<?xml version="1.0" encoding="UTF-8" standalone="no"?><svg xmlns="http://www.w3.org/2000/svg" xmlns:xlink="http://www.w3.org/1999/xlink" contentScriptType="text/ecmascript" fill="#000000" width="801" zoomAndPan="magnify" contentStyleType="text/css" viewBox="-0.0 -0.4 801.4 752.0" height="752" data-name="Layer 2" preserveAspectRatio="xMidYMid meet" version="1"><g id="change1_1" data-name="Layer 1"><path d="m49.63,751.57c-2.61,0-5.5-.28-8.14-.28h-.57c-1.76,0-2.89-1.45-2.89-3.2.28-1.45,1.45-2.61,3.17-2.61h.28c4.65.28,10.46,0,14.82,0h0c1.73,0,2.89,1.16,2.89,2.92,0,1.45-1.16,2.89-2.89,2.89-2.04,0-4.37.28-6.69.28Zm-32.23-2.61h-.28c-4.34-.57-8.99-1.45-14.8-2.61h0c-.88,0-1.45-.6-1.73-1.16-.6-.57-.6-1.45-.6-2.04.28-1.73,2.04-2.61,3.49-2.32,4.37.88,9.58,1.76,14.51,2.32,1.45.31,2.61,1.76,2.32,3.2,0,1.45-1.16,2.61-2.92,2.61Zm62.42-.57c-1.45,0-2.61-.88-2.89-2.32-.31-.6,0-1.45.28-2.04.57-.88,1.16-1.16,1.73-1.45h1.16c4.65-1.16,9.01-2.61,13.07-4.08,1.45-.57,3.2,0,3.77,1.76.28.57.28,1.45,0,2.04-.28.85-.85,1.45-1.73,1.45-4.37,1.73-9.3,3.17-14.51,4.65h-.88Zm35.12-15.39c-.88,0-1.73-.28-2.32-1.16-.57-.6-.57-1.45-.57-2.04,0-.85.57-1.45,1.16-2.01h.28v-.31h.28s0-.28.28-.28c3.49-2.32,6.97-5.22,10.74-8.7.88-1.16,2.92-.88,4.08,0,.85,1.16.85,2.89-.31,4.05-4.05,4.08-7.82,7.26-11.59,9.86h-.6c-.28.31-.85.6-1.45.6Zm27.58-26.98c-.6,0-1.16-.31-1.76-.6-.85-.57-1.13-1.16-1.13-2.04-.31-.85,0-1.45.57-2.3h.28c3.2-4.37,6.41-8.73,8.7-11.9.88-1.47,2.92-1.76,4.08-.88,1.45,1.16,1.73,2.89.57,4.05-3.17,4.93-6.09,8.73-8.99,12.19h0v.31c-.6.57-1.45,1.16-2.32,1.16Zm22.65-31.66c-.6,0-1.16,0-1.47-.28-1.45-1.16-1.73-2.89-.85-4.05l.28-.28v-.31c2.89-3.49,5.81-7.82,8.99-11.88,1.16-1.16,2.92-1.16,4.37-.31,1.16.88,1.16,2.61.28,4.08-2.61,3.17-5.5,6.94-8.99,11.59v.28l-.28-.28.28.28h0c-.6.88-1.45,1.16-2.61,1.16Zm24.94-29.59c-.57,0-1.45-.28-2.01-.88-.31-.57-.6-1.16-.6-2.01s.28-1.47.88-2.04h0q0-.28.28-.28c3.49-3.49,7.26-6.69,11.31-9.89,1.16-1.13,3.2-.85,4.08.31.57.57.57,1.45.57,2.32s-.57,1.45-1.16,2.01c-3.77,2.92-7.26,6.09-11.03,9.3v.28c-.28,0-.28.28-.28.28-.6.31-1.16.6-2.04.6Zm31.35-22.65c-1.16,0-2.01-.57-2.61-1.73-.28-.6-.28-1.45,0-2.04,0-.88.6-1.45,1.16-1.73q.28,0,.57-.31c4.37-2.3,9.01-4.34,13.66-6.09,1.45-.57,3.17,0,3.77,1.47.28.85.28,1.73,0,2.32-.28.85-.88,1.13-1.76,1.45-4.62,2.01-8.99,4.05-13.04,6.09l-.31.28c-.28,0-.85.28-1.45.28Zm36.28-13.35c-1.16,0-2.32-.88-2.61-2.01-.57-1.76.28-3.2,2.04-3.49l.28-.31c2.61-.57,5.22-1.16,8.14-1.45,2.32-.57,4.34-.88,6.66-1.45,1.45-.28,2.92.57,3.2,2.32.57,1.45-.6,2.89-2.04,3.49-2.32.28-4.34.88-6.66,1.16-2.92.57-5.53,1.16-7.85,1.73h-1.16Zm37.73-9.86c-1.45,0-2.32-.57-2.89-1.73-.57-1.47.28-3.2,1.73-3.8h.31c4.65-2.01,8.99-4.05,13.04-6.38,1.47-.57,3.2,0,4.08,1.16.28.88.28,1.45.28,2.32-.28.88-.88,1.45-1.45,1.76-4.65,2.3-9.01,4.62-13.95,6.38,0,0,0,.28-.28.28h-.88Zm32.82-20.04c-.6,0-1.47-.28-2.04-.85-.6-.6-.88-1.16-.88-2.04.28-.88.6-1.45,1.16-2.04h0l.28-.28c3.49-3.17,6.69-6.66,9.86-10.43.88-1.16,2.92-1.47,4.08-.31,1.16.88,1.45,2.61.28,4.08-2.89,3.77-6.66,7.54-10.46,11.03h0s0,.28-.28.28h0c-.57.28-1.16.57-2.01.57Zm23.21-30.75c-.31,0-.88,0-1.16-.28-.6-.28-1.16-.88-1.45-1.76-.31-.57-.31-1.45,0-2.01v-.31h.28q0-.28.28-.57c2.04-4.37,3.77-8.99,4.93-13.07.6-1.45,2.04-2.32,3.77-1.73,1.45.57,2.32,2.01,1.76,3.77-1.76,4.93-3.49,9.58-5.53,13.92,0,.31-.28.31-.28.31v.28c-.28.88-1.45,1.45-2.61,1.45Zm10.74-37.16h-.31c-.85,0-1.45-.57-2.01-1.16-.31-.57-.6-1.45-.6-2.01,0,0,0-.31.28-.6.6-4.34.88-8.99,1.16-14.23,0-1.73,1.16-2.89,2.92-2.89h0c1.73,0,2.89,1.45,2.89,2.89-.28,5.24-.57,10.18-1.45,15.11v.28h0c-.28,1.45-1.45,2.61-2.89,2.61Zm-6.69-29.59c-2.61,0-5.22,0-7.54-.28h-.28c-1.76,0-2.92-1.47-2.92-3.2.28-1.45,1.45-2.61,3.2-2.61h.57c4.93.28,10.18.28,14.51,0h0c1.76,0,2.92,1.16,2.92,2.89,0,1.45-1.16,2.92-2.61,2.92-2.64.28-5.24.28-7.85.28Zm31.07-3.2c-1.45,0-2.61-1.16-2.92-2.32-.28-1.73.88-3.17,2.32-3.49h.31c4.93-1.16,10.15-2.32,14.2-3.46,1.45-.31,3.2.57,3.77,2.01,0,.88,0,1.45-.28,2.04-.57.88-1.16,1.16-1.73,1.45-4.65,1.45-9.3,2.61-14.82,3.77h-.85Zm-62.13-.88h-.57c-5.22-1.45-9.86-3.17-14.51-5.5h-.28c-.6-.28-1.16-1.16-1.47-1.76-.28-.85-.28-1.45,0-2.3.88-1.16,2.64-1.76,4.08-1.16h.28l.28.28c4.08,1.73,8.42,3.49,13.07,4.93.88,0,1.45.57,1.76,1.16.57.57.57,1.45.28,2.32-.28,1.16-1.45,2.01-2.92,2.01Zm38.61-4.93c-1.73,0-2.89-1.16-3.17-2.89v-.28c-.31-4.65-.88-9.3-2.04-14.51,0-1.45.88-2.92,2.61-3.2,1.45-.28,2.92.6,3.2,2.32.88,4.93,1.45,10.15,2.01,14.8v.6c.31,1.45-.85,2.89-2.61,3.17h0Zm60.66-5.5c-1.13,0-2.3-.6-2.61-1.76-.28-.57-.28-1.45,0-2.32.31-.57.88-1.13,1.47-1.45h.28c4.05-1.73,8.42-3.77,13.35-6.09,1.73-.85,3.17,0,4.05,1.16.6,1.45,0,3.2-1.45,4.08-4.37,2.01-8.7,4.05-13.63,6.09-.31,0-.31.28-.6.28h-.88Zm-132.63-8.14c-.88,0-1.45-.57-2.04-.88-3.49-3.46-6.97-7.54-9.58-12.19h-.28v-.28c-.6-.57-.6-1.45-.6-2.32.31-.57.6-1.16,1.47-1.73,1.16-.6,3.17-.31,3.77.85.28,0,.28.31.28.31,2.61,4.05,5.53,7.82,8.99,11.03,1.16,1.16,1.16,3.17,0,4.34-.57.31-1.45.88-2.01.88Zm167.18-9.58c-1.16,0-2.04-.57-2.61-1.45-.28-.57-.6-1.45-.28-2.04.28-.85.57-1.45,1.16-1.73l.28-.28c.28-.31.57-.31.57-.31,4.37-2.89,8.42-5.5,11.62-8.11,1.45-.88,3.2-.6,4.05.57,1.16,1.45.88,3.2-.57,4.08-3.77,2.89-7.85,5.78-12.5,8.7h0c-.28,0-.28.28-.28.28-.57,0-1.16.28-1.45.28Zm-102.47-15.08c-1.16,0-2.32-.88-2.61-2.04h-.28v-.57c-1.45-5.53-2.89-9.89-4.37-13.95-.28-.88-.28-1.45,0-2.32.6-.57,1.16-1.16,2.04-1.45,1.16-.6,2.89.28,3.49,1.73,1.73,5.53,3.2,10.18,4.34,14.51h0c.31,0,.31.31.31.31h0c.28,1.45-.6,3.17-2.04,3.77h-.88Zm133.22-8.7c-.85,0-1.45-.31-2.3-.88-.31-.6-.6-1.16-.6-2.04s.28-1.45.88-2.04v-.28h.28c3.77-3.77,7.26-7.26,10.15-10.43.88-1.16,2.92-1.16,4.08-.31.57.31.88,1.16.88,1.76,0,.85,0,1.73-.6,2.32-3.49,3.77-6.97,7.54-10.46,10.74l-.28.28h-.28c-.28.57-1.16.88-1.76.88Zm-216.53-.31c-1.45,0-2.61-.85-2.89-2.01-1.45-4.65-2.32-9.89-2.89-15.11v-.57c0-.6.28-1.47.85-2.04.31-.6,1.16-.88,1.76-.88,1.73,0,3.17.88,3.17,2.61h0v.31c.6,4.62,1.47,9.58,2.64,14.2.28,1.47-.6,2.92-2.04,3.49h-.6Zm70.27-27.58c-1.16,0-2.32-.57-2.92-1.73h0v-.28c-2.04-4.37-4.34-8.7-6.66-13.07-.31-.57-.31-1.45-.31-2.32.31-.57.88-1.16,1.47-1.73,1.45-.6,3.17-.31,4.05,1.16,2.61,4.93,4.93,9.27,6.66,13.63h0c0,.28.31.28.31.28.28.6.28,1.45,0,2.32-.31.6-.88,1.16-1.47,1.45-.28.28-.85.28-1.13.28Zm171.23-1.73c-.57,0-1.16,0-1.45-.28-.88-.6-1.16-1.16-1.45-2.04,0-.57,0-1.45.57-2.04q0-.28.28-.28h0c-.28,0,0,0,0-.28,2.32-3.77,4.96-7.85,7.26-12.47.88-1.47,2.64-1.76,4.08-1.16,1.45.85,1.73,2.61,1.16,4.05-2.61,4.37-5.24,8.99-7.85,13.07h0l-.28.28c-.57.88-1.45,1.16-2.32,1.16Zm-244.39-9.3h-.28c-.88,0-1.45-.28-2.04-.85-.57-.6-.57-1.47-.57-2.32v-1.76c.57-4.65,1.16-9.27,1.73-13.07q0-.28.28-.57h0c.31-1.45,1.76-2.32,3.2-2.32,1.73.28,2.61,2.04,2.32,3.49v.28c-.6,3.77-1.16,7.85-1.76,12.5v2.01c-.28,1.45-1.45,2.61-2.89,2.61Zm53.4-22.34c-.88,0-1.73-.6-2.32-1.16,0,0,0-.28-.28-.28-2.89-4.07-6.38-7.85-9.58-10.74-1.16-1.16-1.16-2.91,0-4.07.88-1.16,2.92-1.16,4.05-.3,3.49,3.49,6.97,7.26,10.18,11.62h.28c.88,1.45.6,3.17-.57,4.34-.6.31-1.16.6-1.76.6Zm207.83-3.2h-.88c-.85-.28-1.45-.85-1.73-1.45-.28-.86-.28-1.45-.28-2.32h.28v-.28h0v-.58c1.45-4.35,2.32-8.72,3.2-13.35-.31,0-.88-.3-1.16-.3h-.6c-1.45-.58-2.32-2.32-1.73-3.77.57-1.45,2.01-2.32,3.77-1.74h.28c4.93,1.74,9.58,2.61,13.95,2.91.57.28,1.45.58,1.73,1.16.57.58.88,1.45.88,2.03-.31,1.46-1.47,2.62-2.92,2.62h-.28c-2.89-.3-5.53-.58-8.14-1.16-.85,4.35-2.01,9-3.49,13.93h0c0,.28-.28.28-.28.28-.28,1.18-1.45,2.03-2.61,2.03Zm-251.36-11.31c-.57,0-1.16-.3-1.45-.58-.88-.58-1.16-1.16-1.16-2.04-.28-.57,0-1.45.28-2.03,3.77-5.23,9.01-8.42,14.82-8.42h.28c1.73,0,2.89,1.16,2.89,2.91,0,.58-.28,1.45-.88,1.74-.28.58-1.16,1.16-2.01,1.16h-.28c-3.8,0-6.97,2.03-9.89,5.8-.85.88-1.45,1.46-2.61,1.46Zm289.37-5.81c-1.45,0-2.3-.86-2.61-2.03-.28-.88-.28-1.46,0-2.32.6-.58,1.16-1.16,1.76-1.16.28,0,.28-.28.28-.28h.28c4.37-1.16,8.7-3.2,13.07-5.53,1.45-.57,3.2,0,3.77,1.16.28.88.6,1.46.28,2.32-.28.88-.57,1.46-1.45,1.74-4.65,2.61-9.27,4.65-14.23,5.81,0,.28-.28.28-.57.28h-.6Zm-59.18-11.61c-.6,0-1.16,0-1.76-.28-3.77-2.91-7.82-5.81-11.9-9.3h-.28v-.28h-.28c-.6-.58-.88-1.16-.88-2.04,0-.58,0-1.45.6-2.03,1.13-1.16,2.89-1.45,4.05-.3.28,0,.28.3.28.3,4.05,3.19,7.85,6.09,11.62,8.7,1.45.88,1.73,2.62.85,4.07-.57.58-1.45,1.16-2.3,1.16Zm92.29-8.12c-.88,0-1.76-.3-2.32-.88-.6-.58-.88-1.45-.88-2.03.28-.88.6-1.74,1.16-2.04v-.28h0q.28-.3.6-.3c3.49-3.47,6.66-6.96,9.58-10.45.85-1.16,2.89-1.16,4.05-.28.57.58.88,1.16.88,2.03.28.58,0,1.45-.6,2.03-3.49,4.07-6.97,7.84-10.43,11.04v.28c-.6.58-1.47.88-2.04.88Zm-65.59-1.46c-1.76,0-2.92-1.16-3.2-2.91v-.28c0-4.65-.28-9.28-1.16-14.51,0-.58,0-1.46.57-2.03.31-.58,1.16-1.16,1.76-1.16,1.73-.3,3.2.86,3.49,2.31.57,5.23,1.16,10.16,1.16,15.39v.28c0,1.46-1.16,2.91-2.61,2.91h0Zm-55.73-16.26c-.88,0-1.47-.28-2.04-.86-3.49-4.07-6.69-8.14-9.58-11.9h0s0-.28-.28-.28h0c-.31-.58-.6-1.46-.6-2.32.28-.58.6-1.46,1.45-1.74,1.16-.86,3.2-.58,4.08.58v.28l.28.3c2.89,4.07,5.81,7.84,8.99,11.32.88,1.16.88,2.89-.28,4.05-.57.58-1.45.58-2.01.58Zm145.41-12.47c-.28,0-.88,0-1.45-.58-.6-.3-1.16-.88-1.16-1.74-.31-.88,0-1.46.28-2.04v-.28h.28q0-.3.28-.58c2.32-3.77,4.93-8.12,7.26-12.19.88-1.46,2.61-1.74,3.77-1.16.88.58,1.16,1.16,1.47,1.74.28.86.28,1.74-.31,2.32-2.61,4.63-5.22,9-7.54,12.77l-.28.28v.3c-.6.58-1.45,1.16-2.61,1.16Zm-96.66-9.3c-1.45,0-2.32-.86-2.92-2.03v-.3h0c-1.73-4.63-3.46-9.28-5.5-13.63-.28-.58-.28-1.46,0-2.32.28-.58.88-1.16,1.45-1.45,1.45-.58,3.49,0,4.05,1.45,2.04,4.93,3.8,9.58,5.53,13.93v.58c.28.58.28,1.45,0,2.32-.57.58-1.16,1.16-1.73,1.16-.31.28-.6.28-.88.28Zm-68.51-11.31c-1.16,0-2.32-.88-2.61-2.04-1.73-5.22-2.32-10.45-2.61-15.09v-.86h0c0-1.74,1.16-2.91,2.89-2.91h0c1.45,0,2.61,1.16,2.92,2.61v.58h0c0,4.35.85,9,2.32,13.93.28,1.74-.6,3.2-2.04,3.78h-.88Zm183.73-13.36c-.28,0-.57-.28-1.16-.28-1.45-.86-2.04-2.32-1.16-3.77v-.58c1.76-3.77,3.77-7.84,6.09-13.35.6-1.46,2.32-2.32,3.77-1.46,1.47.58,2.04,2.32,1.47,3.78-2.04,4.63-4.08,9.28-6.09,13.63v.3c-.6,1.16-1.76,1.73-2.92,1.73Zm-132.65-9.86c-.85,0-1.73-.58-2.3-1.16v-.28h-.31c-3.17-4.07-6.38-7.55-9.86-10.16-.57-.58-.88-1.16-1.16-2.03,0-.58.28-1.46.88-2.04.88-1.16,2.61-1.45,4.05-.58,3.77,3.2,7.26,6.68,10.74,11.04q0,.28.28.28v.28c.6.58.6,1.16.6,2.04s-.6,1.45-1.16,2.03c-.6.3-1.16.58-1.76.58Zm-46.15-13.35c-.57,0-1.45-.58-2.01-1.16-1.16-1.16-1.16-2.91,0-4.07,4.34-3.77,9.58-6.09,15.36-6.38h.6c1.45,0,2.89,1.16,2.89,2.91,0,.58-.28,1.45-.88,2.03-.57.58-1.13.86-2.01.86h-.28c-4.65.3-8.42,1.74-11.34,4.95-.57.58-1.45.86-2.32.86Zm193.91-12.77h-1.16c-1.47-.58-2.04-2.32-1.76-3.77q.28-.3.28-.58c1.76-4.35,3.2-9,4.96-13.93.57-1.46,2.3-2.32,3.77-1.74.57.28,1.16.86,1.73,1.45.28.88.28,1.46,0,2.32-1.45,4.65-3.2,9.28-4.65,13.65l-.28.58h0c-.28,0-.28.28-.28.28h0c-.6,1.16-1.45,1.74-2.61,1.74Zm12.47-36.86h-.88c-.88-.28-1.45-.58-1.73-1.45-.6-.58-.6-1.46-.28-2.04v-.58l1.13-3.47c.88-3.49,2.04-6.97,3.2-10.74.28-1.46,2.04-2.32,3.49-2.04,1.45.58,2.61,2.32,2.04,3.78-.88,3.47-2.04,6.96-2.92,10.15-.57,1.46-.85,2.91-1.16,4.07q-.28,0-.28.3h0c-.28,1.16-1.45,2.03-2.61,2.03Zm10.46-37.15c-.31,0-.6-.3-.88-.3-.6,0-1.16-.58-1.76-1.16-.28-.58-.57-1.45-.28-2.32v-.28h0q.28-.3.28-.58l1.16-4.65c.6-2.91,1.47-6.09,2.32-9.28.31-1.46,2.04-2.32,3.49-2.04,1.45.3,2.32,2.04,2.04,3.49-1.16,4.65-2.32,9.58-3.49,14.51h0c0,.3-.28.3-.28.3-.31,1.16-1.45,2.32-2.61,2.32Zm19.73-27.88c-1.45,0-2.61-.86-2.92-2.03-.28-.58-.28-1.45.31-2.32.28-.58.85-1.16,1.73-1.16v-.28h.28c3.8-1.16,8.42-2.61,13.95-4.65,1.45-.58,3.2.3,3.77,1.74.6,1.45-.28,3.19-1.73,3.77-4.37,1.74-9.01,3.2-14.23,4.65q-.28.28-.6.28h-.57Zm36.28-13.93c-1.16,0-2.04-.58-2.61-1.45-.88-1.45,0-3.19,1.45-4.07h.28c5.22-2.61,9.3-4.63,13.07-6.96,1.16-.58,3.2,0,3.77,1.16.88,1.45.28,3.19-.88,4.05-4.05,2.32-8.42,4.37-13.35,6.97h-.57c-.28.28-.88.28-1.16.28Zm33.08-20.31c-.85,0-1.73-.3-2.32-.88-.57-.58-.57-1.45-.57-2.31,0-.58.28-1.46.88-1.74.28,0,.28-.3.28-.3h0c4.05-3.49,7.54-6.68,10.43-10.16,1.16-.86,2.92-1.16,4.08,0,1.16.88,1.45,2.62.28,4.07-3.2,3.77-6.97,7.26-11.03,10.45l-.28.3c-.6.58-1.16.58-1.76.58Zm23.21-30.19c-.28,0-.57-.3-.85-.3-.6-.28-1.45-.86-1.76-1.45-.28-.86-.28-1.45,0-2.32,0,0,0-.28.31-.28h0c1.45-4.35,2.61-9,2.89-13.65,0-1.74,1.45-2.91,3.2-2.61.57,0,1.45.28,2.01.86.28.58.6,1.46.6,2.04-.31,5.22-1.45,10.15-3.49,15.09.28,0,.28.28,0,.28h0v.3c-.6,1.15-1.45,2.03-2.92,2.03Zm.6-38.31c-1.45,0-2.61-.58-2.89-1.74v-.58h0c-1.47-3.78-3.2-8.14-5.53-12.77-.88-1.46-.28-3.2,1.16-3.78,1.45-.86,3.2-.28,3.77,1.16,2.61,4.65,4.65,9.3,6.09,13.65v.58c.28.58.28,1.45-.28,2.03-.28.58-.88,1.16-1.45,1.46h-.88Z"/></g></svg>