<?xml version="1.0" encoding="UTF-8" standalone="no"?><svg xmlns="http://www.w3.org/2000/svg" xmlns:xlink="http://www.w3.org/1999/xlink" contentScriptType="text/ecmascript" fill="#000000" width="658" zoomAndPan="magnify" contentStyleType="text/css" viewBox="-3.1 -15.4 658.1 1118.2" height="1118" preserveAspectRatio="xMidYMid meet" version="1"><g data-name="Layer_1"><g><g id="change1_1"><path fill="#fff4d4" d="M637.78,844.94l-.14-1.81c.07-2.51-.19-5.03-.44-7.46-.36-3.52-.71-6.85,0-9.48.37-1.37.14-2.84-.61-4.04-.76-1.2-1.98-2.04-3.38-2.3-.37-.07-.63-.2-.9-.44-.82-.75-1.87-1.2-2.97-1.3-11.96-1.07-24.1-1.4-35.84-1.71-16.59-.44-33.75-.9-50.33-3.51-.27-.04-.53-.06-.8-.06-1.15,0-2.28.39-3.2,1.12-1.12.9-1.81,2.23-1.9,3.67-2.03,32.71-10.48,49.17-25.83,50.29-4.3-.32-8.28-2.3-12.16-6.06-2.07-2-3.64-4.76-4.79-8.43-.54-1.71-1.92-3.01-3.66-3.43-.4-.1-.81-.15-1.21-.15-1.34,0-2.65.53-3.62,1.5-3.24,3.25-6.51,4.97-9.45,4.97-6.6,0-12.7-8.9-13.32-19.43-.11-1.98-1.37-3.72-3.22-4.45-.61-.24-1.24-.36-1.88-.36-1.29,0-2.55.49-3.52,1.41-4.66,4.43-9.32,6.77-13.49,6.77-8.47,0-16.05-10.15-17.63-23.61-.23-1.96-1.57-3.61-3.43-4.24-.54-.18-1.09-.27-1.64-.27-1.36,0-2.68.54-3.66,1.55-.16.17-.45.39-1.1.39-.18,0-.36-.02-.7-.07-2.76-.36-5.6-.53-8.68-.53-6.39,0-12.7.76-18.81,1.5-2.47.3-4.93.59-7.41.84-2.3.23-4.17,1.98-4.53,4.27-2.13,13.27-1.79,26.68-1.47,39.66.15,6.01.31,12.22.2,18.34.24,28.68,2,57.66,3.69,85.69l.55,9.09c.53,8.03.94,16.28,1.32,24.27,1.32,27.17,2.69,55.27,9.42,81.89.52,2.07,2.28,3.59,4.4,3.82,43.79,4.77,88.44,6.06,131.62,7.32h.29c9.83.36,19.86.97,29.55,1.56,15,.92,30.5,1.87,45.83,1.87,13.07,0,24.72-.69,35.63-2.11,2.29-.3,4.09-2.09,4.4-4.37,11.01-80.71,4.81-162.79-1.19-242.17Z"/></g><g id="change2_1"><path fill="#ffd2ab" d="M414.41,183.03c-1.52-9.07-3.1-18.44-5.11-27.6-.03-.16-.07-.38-.03-.52.72-2.57-.65-5.26-3.16-6.18-2.12-.78-3.87-1.48-4.88-1.9-10.86-5.09-21.43-13.35-33.26-25.98-.97-1.04-2.33-1.62-3.73-1.62-.32,0-.64.03-.95.09-1.72.33-3.15,1.51-3.79,3.14-3.08,7.79-8.16,16.42-11.52,22.13-1.15,1.95-2.1,3.57-2.71,4.71-7.58,11.92-16.51,24.05-25.38,24.05-4.78,0-10.01-3.54-15.56-10.53-.97-1.22-2.44-1.93-4-1.93-.03,0-.06,0-.1,0-1.59.03-3.08.8-4.02,2.09-1.93,2.64-4.09,5.83-6.36,9.2-10.27,15.22-25.78,38.21-41.28,38.21-1.65,0-3.31-.26-4.93-.78-4.9-2.07-8.86-6.06-12.09-12.21-.85-1.61-2.49-2.65-4.31-2.73-.98-.04-2.56-.64-4.08-1.22-2.06-.78-4.38-1.66-6.92-1.92-2.61-.54-5.26-.81-7.91-.81-12.32,0-23.81,5.77-30.76,15.44-6.4,8.92-7.94,19.72-4.25,30.64,5.68,14.48,21.36,19.12,34.42,21.54,1.35.31,2.85.46,4.56.46,1.3,0,2.63-.09,4.04-.18,1.08-.07,2.2-.15,3.27-.15,2.18,0,3.16.35,3.76.85,1.27,6.52,2.49,13.08,3.72,19.66,4.11,22.07,8.36,44.89,14.48,66.62,23.53,98.32,43.39,98.72,50.02,98.72h.08c14.16,0,25.59-19.51,35.98-61.39.08-.33.13-.67.14-1,.02-.54.1-.85.16-1.02.91-2.57-.36-5.41-2.89-6.44-18.04-7.34-35.16-20.58-49.44-38.22-6.42-8.22-11.69-17.77-16.35-26.31.02-.44.13-.78.34-1.02.36-.42,1.05-.68,1.8-.68s2.05.24,2.69,1.86c.05.14.11.27.18.4,17.55,35.27,47.57,59.69,80.39,65.35,2.72.42,5.43.64,8.06.64,46.04,0,61.97-63.6,66.68-90.94,5.93-33.97,1.05-67.7-4.44-99.31l-.54-3.19ZM271.49,254.69c-.75-.39-1.57-.59-2.39-.59-.53,0-1.05.08-1.56.24-2.63.85-5.06,1.29-7.04,1.29-1.02,0-1.9-.12-2.61-.36-.11-.03-.21-.07-.32-.09-.46-.12-.76-.54-.89-.78-.29-.52-.38-1.15-.24-1.61.39-1.28,1.63-1.38,2-1.38.22,0,.43.03.64.09.44.12.9.18,1.36.18.09,0,.18,0,.26,0,5.77-.3,11.59-2.83,17.79-7.73,2.35-1.57,4.04-3.74,5.54-5.66,1.3-1.66,2.77-3.54,3.68-3.54.18,0,.41.04.61.09.63.19,1.15.79,1.32,1.49-.35,2.79-3.55,7.46-10.14,12.02-1.69,1.16-2.51,3.22-2.1,5.23.07.32.1.67.09.99,0,.58.08,1.15.27,1.7,10.94,32.53,37.39,58.45,67.37,66.03.23.06.47.1.71.13,3.02.33,3.26,2.09,3.22,2.84-.09,1.61-1.26,1.61-1.64,1.61-.31,0-.85-.05-1.62-.29-.12-.04-.25-.07-.37-.1-26.55-6.06-51.72-27.14-65.73-55.05-.57-1.51-1.34-3.18-2.15-4.94-1.27-2.76-2.7-5.89-3.53-8.71-.39-1.32-1.29-2.43-2.51-3.07ZM357.96,296.11c-2.21-1.85-4.31-3.75-6.26-5.66-1.03-1.01-2.06-2.06-3.06-3.13-1-1.08-2.37-1.63-3.74-1.63-1.18,0-2.37.41-3.33,1.24-.8.69-2.1.84-3.05.84-7.09,0-16.8-6.93-18.29-11.82-.28-.92-.36-1.61,1-2.6.2-.08.42-.12.66-.12.7,0,1.61.39,1.96,1.24.18.45.43.87.74,1.25,2.49,3.12,6.01,5.71,10.48,7.72.66.3,1.37.45,2.09.45.13,0,.26,0,.39-.01,2.3-.18,5.17-1.72,5.89-5.47.26-.66,1.17-1.01,1.94-1.01.37,0,1.03.08,1.44.7,5.99,8.63,13.31,17.96,24.44,19.33.21.03.42.04.63.04.14,0,.28,0,.42-.02,4.62-.38,7.69-2.16,9.13-5.28,2.57-5.59-1.95-11.85-5.94-17.37-1.26-1.75-2.83-3.92-3.22-4.88-.05-.14-.12-.27-.18-.41-6.38-12.64-11.99-24.95-10.62-36.69.37-.88.95-1.27,1.86-1.27.83,0,1.66.37,2.03.91.1.15.42.6-.04,1.82-.3.78-.39,1.63-.29,2.46,1.45,11.16,5.45,22.34,11.98,33.36.84,1.32,1.75,2.64,2.66,3.97,3.86,5.62,7.5,10.93,6.45,16.68-1.42,7.76-8.46,10.52-14.57,10.52-5.07,0-10.06-1.85-13.34-4.93-.07-.07-.15-.14-.22-.2ZM332.73,230.96c-.21.22-.63.34-1.26.37-1.58-.16-2.05-.56-1.7-7.1.1-1.9.2-3.86.03-5.74v-.23c-.24-4.84-.48-9.85-1.58-14.87-.12-.55-.33-1.07-.62-1.55-.44-.73-.36-1.9.13-2.4,1.08-.48,1.73-.56,2.04-.56.99,0,3.35,1.72,3.89,17.68l.07,1.86c0,.9.03,1.88.06,2.92.09,2.87.27,8.22-1.07,9.62ZM387.64,229.37c-.57-.79-.4-1.75,0-2.32.61-.87.93-1.9.93-2.95-.03-7.92-.62-16.29-1.9-27.3-.15-1.04-.41-2.1-.67-3.16-.6-2.41-.67-3.13-.18-3.69.51-.62,1.16-.72,1.51-.72.14,0,.28.02.42.04,3.33,1.68,3.62,10.89,3.82,17.01.1,3.36.21,6.55.67,9.21.03.8.07,1.6.11,2.4.18,3.49.35,6.8-.1,9.9-.01.09-.02.19-.03.28-.15,1.66-1.7,2.4-2.75,2.4-.96,0-1.43-.54-1.81-1.11Z"/></g><g id="change2_2"><path fill="#ffd2ab" d="M577.43,777.65c-.64-5-1.24-9.72-1.45-14.44-.05-1.23-.52-2.36-1.37-3.25l-.15-.19c-.71-1.17-1.09-3.01-1.49-4.96-.33-1.61-.68-3.27-1.27-4.93-7.25-29.55-34.13-50.96-64.03-50.96-8.22,0-16.26,1.63-24.07,4.92-34.16,15.81-59.41,74.46-56.1,111.55,2.18,17.92,9.76,20.6,14.08,20.6h0c4.97,0,9.73-3.47,14.55-10.59,1.28-1.53,2.14-3.16,2.91-4.6.72-1.35,1.35-2.54,2.08-3.2,1.13-.46,1.79-.54,2.09-.54,2.05,0,3.07,10.35,3.46,14.25.68,6.94,1.33,13.49,4.37,17.64,1.32,2.04,3.36,3.21,5.63,3.21,3.75,0,6.26-3.14,7.76-5.01.17-.22.33-.41.46-.57.16-.18.3-.37.43-.57.44-.67.89-1.34,1.35-2.01,1.9-2.79,4.05-5.95,5.17-9.79.04-.14.08-.29.11-.43.22-1.14,1.07-1.9,2.09-1.9.15,0,.31.02.45.04.94.14,1.51,1.26,1.5,2.22,0,.12,0,.25,0,.38.05.9.1,1.81.15,2.72.31,6.03.66,12.87,3.79,19,.09.18.19.35.3.52,3.94,5.88,8.39,7.11,11.42,7.11,7.42,0,13.18-7.24,15.57-14.33,6.44-18.09,6.47-37.21,6.5-55.7,0-4.39.01-8.92.11-13.34,0-.04,0-.08.01-.13.19-2.11.01-4.39-.15-6.61-.62-8.2.22-8.32,1.71-8.52.92,0,1.89.77,2,1.57-.07,4.08.03,9.02.15,14.74.14,6.66.3,14.22.2,22.02-.03,2.52,1.79,4.69,4.28,5.1,9.38,1.54,19.42,2.57,31.6,3.24.09,0,.19,0,.28,0,1.39,0,2.72-.57,3.69-1.57,1.03-1.08,1.54-2.55,1.39-4.03-.1-1.07-.05-2.33,0-3.65.05-1.25.1-2.54.03-3.83.16-7.19-.74-14.3-1.61-21.17Z"/></g><g id="change3_1"><path fill="#244668" d="M287.22,447.65c-4.26-1.24-8.12-3.42-11.82-6.66-.96-.84-2.16-1.27-3.37-1.27-.97,0-1.94.27-2.79.83-3.95,2.58-7.68,5.43-11.3,8.18-1.19.91-2.37,1.81-3.57,2.71-7.89,5.93-17.08,12.77-26.34,19.03-2.36,1.59-6.75,4.55-9.5,4.55-.56,0-.98-.11-1.47-.6-3.25-8.54-6.28-17.4-9.22-25.98-4.29-12.51-8.72-25.45-13.96-37.89-.57-1.36-1.71-2.41-3.11-2.87-.52-.17-1.06-.25-1.59-.25-.91,0-1.82.24-2.62.72-21.63,12.93-41.31,29.25-57.98,43.45-35.82,29.24-61.33,64.15-75.86,103.84-22.41,64.23-36.47,128.66-41.8,191.46-3.49,37.05-1.3,74.48.81,110.68.69,11.73,1.39,23.87,1.89,35.61.04,4.42.27,8.86.5,13.15.26,5.05.54,10.28.49,15.33-.03,2.62,1.93,4.83,4.54,5.13,24.89,2.8,48.21,4.16,71.28,4.16,4.63,0,9.3-.06,13.88-.17,2.52-.06,4.62-1.95,4.94-4.46,2.07-16.22,1.91-32.73,1.74-48.69-.14-13.43-.28-27.31.95-40.79,1.56-18.74,2.81-37.8,4-56.24,1.7-26.06,3.45-53,6.13-79.23,4.18-32.99,8.6-69,13.5-110.04l.76-5.98c.59-4.67,1.17-9.36,1.84-14.06.09-.68,1.07-1.38,2.01-1.38h0c.78.04,2.27,1.4,2.94,3.54.37,1.2.43,2.65-.19,3.12-1.1.83-1.81,2.08-1.98,3.44-1.2,9.8-2.42,19.58-3.64,29.34-7.52,60.27-15.29,122.59-18.21,184.53l-.07.91c-2.34,28.86-4.76,58.7-4.23,88.22.06,9.32.09,19.22-.15,28.98-.17,1.64-.22,3.46-.28,5.38-.06,2.37-.13,4.83-.44,7.03-.21,1.51.27,3.04,1.31,4.16.97,1.05,2.33,1.64,3.75,1.64.1,0,1.51-.08,1.51-.08,3.02-.17,6.05-.35,9.08-.58,34.61.16,69.84,1.15,103.92,2.12,16,.45,32,.9,48,1.27.04,0,.08,0,.12,0,1.32,0,2.6-.51,3.55-1.44.98-.95,1.54-2.26,1.55-3.62l.02-1.47c.03-1.73.06-3.52-.1-5.19-.17-16.97.37-34.27.89-51.01.38-12.32.78-25.05.9-37.6l.52-59.8c.93-105.03,1.9-213.64,1.98-320.27,0-2.27-1.5-4.27-3.68-4.91Z"/></g><g id="change3_2"><path fill="#244668" d="M245.71,382.83c-.52-.17-1.05-.25-1.58-.25-1.1,0-2.2.36-3.1,1.05-1.29.98-3.52,1.71-5.67,2.42-1.56.51-3.16,1.04-4.67,1.73-8.62,3.08-17.77,6.76-25.19,10.14-1.79.84-3.54,1.74-5.3,2.63l-.81.41c-2.5,1.28-3.5,4.33-2.24,6.84.83,1.66,1.55,3.75,2.25,5.78.78,2.26,1.58,4.58,2.62,6.56,3.31,9.01,6.53,18.23,9.63,27.14,2.05,5.88,4.1,11.76,6.19,17.62.53,1.47,1.7,2.63,3.18,3.13.53.18,1.08.27,1.63.27.98,0,1.96-.28,2.8-.84,9.36-6.13,18.35-12.95,27.05-19.55,2.5-1.89,5-3.79,7.59-5.73l1.02-.8c1.34-1.06,2.86-2.26,4.39-3.26,1.14-.74,1.93-1.91,2.2-3.24.28-1.33.01-2.71-.74-3.85-8.48-12.86-13.72-30.57-17.94-44.8-.48-1.61-1.72-2.88-3.31-3.4Z"/></g><g id="change3_3"><path fill="#244668" d="M386.7,376.27c-2.41-.36-4.86-.79-6.42-1.57-.72-.36-1.5-.54-2.28-.54-.85,0-1.7.21-2.46.63-7.25,3.99-15.09,6.02-23.29,6.02-4.65,0-9.51-.65-14.45-1.93-.42-.11-.85-.16-1.28-.16-.94,0-1.88.26-2.69.77-1.19.74-2.02,1.92-2.3,3.29-2.92,13.92-7.83,34.09-16.79,48.5-.79,1.27-.98,2.83-.53,4.25.46,1.43,1.52,2.58,2.9,3.16,16.57,6.92,30.34,12.76,44.12,19.67.72.36,1.5.54,2.29.54.69,0,1.37-.14,2.02-.42,1.38-.59,2.43-1.77,2.87-3.21,3.44-11.35,7.06-22.87,10.56-34.02,3.95-12.59,8.04-25.6,11.9-38.46.43-1.42.22-2.96-.58-4.21-.8-1.25-2.1-2.1-3.57-2.31Z"/></g><g id="change3_4"><path fill="#244668" d="M547.81,496.94c-19.25-47.88-60.85-87.02-114.2-107.41-10.04-3.66-20.67-6.96-32.49-10.07-.43-.12-.87-.17-1.3-.17-2.2,0-4.22,1.43-4.89,3.64-4.98,16.56-10.25,33.32-15.34,49.53l-3.22,10.26c-1.08,2.45-1.89,5.59-2.73,8.9-1.26,4.93-3.61,14.1-6.52,14.1-.41,0-1.14-.12-2.27-.66-13.89-7.92-28.8-14.14-43.23-20.16-3.3-1.38-6.61-2.76-9.89-4.15-.64-.27-1.32-.41-1.99-.41-1.24,0-2.47.45-3.43,1.32-2.52,2.28-5.26,3.98-8.16,5.07-2.02.76-3.35,2.82-3.31,4.98.39,22.58.08,45.59-.21,67.84-.31,23.32-.64,47.43-.16,71.05-.24,36.98-.61,74.59-.97,110.96-.4,40.29-.81,81.95-1.05,122.92-.11,14.14-.53,28.55-.95,42.48-.44,14.92-.9,30.36-.97,45.58-.45,3.08-.15,6.6.16,10.31.15,1.83.31,3.69.36,5.47.07,2.72,2.27,4.9,4.99,4.96,6.11.14,12.24.26,18.35.34h.07s.08,0,.12,0c7.02-.16,14.14-.64,21.03-1.11,8.34-.56,16.97-1.15,25.3-1.15,1.3,0,2.61.01,3.9.04.04,0,.08,0,.12,0,1.37,0,2.68-.55,3.64-1.53.99-1,1.52-2.38,1.46-3.79-.53-13.24-.96-26.44-1.38-39.57l-.29-8.73-.11-10.12c-.12-10.9-.25-22.17-.09-33.22.18-1.76.27-3.61.37-5.5.32-6.29.63-12.24,4.04-15.8,2-1.09,4.85-1.34,7.86-1.6,1.53-.14,3.1-.27,4.67-.53,1.35-.13,2.7-.26,4.05-.4,5.5-.55,10.7-1.07,15.93-1.07,3.28,0,6.22.21,8.86.62.55.1.83.29.99.42.93.76,2.07,1.15,3.22,1.15.72,0,1.45-.15,2.13-.46,1.77-.81,2.92-2.55,2.98-4.5.96-33.46,17.41-70.96,41.78-95.43,1.56-1.47,3.24-2.87,5.16-4.3,1.97-1.46,2.62-4.13,1.55-6.34-1.34-2.76-1.5-6.41-1.68-10.28-.1-2.36-.21-4.8-.6-7.23-2.7-30.7-3.32-61.14-3.42-97.49-.31-14.72-.73-26.91-1.31-38.33-.04-1.05.58-2.22,1.93-2.32.95,0,1.96.83,2,1.7,1.01,17.92,1.22,36.23,1.41,53.94.2,18.45.42,37.54,1.54,56.37l.47,7.39c.65,10.4,1.33,21.15,2.51,31.74.18,1.61,1.12,3.05,2.52,3.86.79.45,1.67.68,2.55.68.7,0,1.4-.14,2.05-.43,7.86-3.45,16.39-5.19,25.37-5.19,29.18,0,55.97,18.27,65.25,44.67,2.25,5.52,3.85,11.54,5.17,16.74.1.39.24.76.42,1.11.04.08.08.17.1.22.19.78.52,1.46,1.03,2.06,1.81,7.87,2.55,16.39,3.07,24.46.17,2.67,2.38,4.75,5.05,4.77h.04c2.66,0,4.87-2.04,5.09-4.69,3.17-38.49-.42-76.96-4.73-116.4-7.49-55.66-17.5-114.91-39.8-171.14Z"/></g><g id="change4_1"><path fill="#f2bc57" d="M378.5,646.51c12.71-.24,25.94-7.7,31.86-19.07,5.18-18.13,1.99-37.84-2.13-55.83-19.56,1.45-39.1,3.5-58.7,4.04-3.53,24.54-4.1,68.52,28.97,70.86ZM378.2,659.27c-28.93.1-43.21-31.47-43.08-56.74-.16-9.25.26-18.55,1.76-27.68.24-1.31.89-2.47,1.8-3.36-1.75-6.88,5.01-9.32,10.73-8.58,21.36-.24,42.69-3.86,63.98-3.97,3.79.65,5.95,3.98,6.66,7.54,2.03,6.71,3.1,13.28,4.04,19.84,2.01,15.89,3.59,33.33-3.02,48.35-8.59,14.75-25.79,24.57-42.87,24.59Z"/></g><g id="change5_1"><path fill="#0a253a" d="M383.5,232.36c-1.8-2.5-1.73-5.84-.04-8.25-.04-8.93-.82-17.76-1.84-26.59-.52-3.63-2.68-7.53.23-10.79,1.96-2.43,5.08-3.11,7.65-2.27,9.1,3.73,6.21,22.05,7.82,30.47.17,4.52.64,9.1-.02,13.6-.39,4.31-4.11,7.04-7.84,7.04-2.23,0-4.46-.99-5.96-3.22Z"/></g><g id="change5_2"><path fill="#0a253a" d="M324.71,218.84c-.23-4.81-.45-9.65-1.47-14.36-1.84-3.03-1.2-7.45,1.86-9.45,13.74-6.7,13.37,15.12,13.74,23.39,0,6.44,1.79,17.95-7.55,18.03-9.53-.87-5.96-11.22-6.58-17.6Z"/></g><g id="change5_3"><path fill="#0a253a" d="M371.16,292.38c.08,0,.17,0,.27-.02h-.16c-.06,0-.1,0-.12.02ZM354.68,300.03c-2.25-1.88-4.46-3.88-6.56-5.94-1.09-1.07-2.17-2.17-3.22-3.3-10.15,8.77-40.31-12.42-26.28-21.85,3.61-1.96,8.36-.25,9.94,3.59,2.21,2.78,5.38,4.81,8.58,6.25.91-.08,1.18-.76,1.3-1.55,1.42-5.45,9.43-6.79,12.56-2.06,5.14,7.41,11.64,16.03,20.86,17.18,12.93-1.07-2.06-14.81-4.35-20.55-6.13-12.15-12.91-26.38-11.06-40.17,2.93-9.34,17.2-5.03,13.62,4.44,1.44,11.06,5.55,21.7,11.22,31.27,4.74,7.39,11.57,14.87,9.84,24.32-1.82,9.98-10.54,14.71-19.6,14.71-6.13,0-12.42-2.15-16.85-6.33Z"/></g><g id="change5_4"><path fill="#0a253a" d="M344.28,331.44c-30.2-6.89-55.66-30.68-69.29-57.97-2.91-7.82-13.45-23.97-.35-27.29,4.89-.41,8.02,3.88,7.96,8.44,9.78,29.09,33.65,55.1,63.77,62.71,10.66,1.14,9.76,14.63,1.03,14.63-.95,0-2-.17-3.12-.52Z"/></g><g id="change5_5"><path fill="#0a253a" d="M256.26,260.12c-3.73-.97-5.8-5.24-4.72-8.83,1.22-3.96,5.32-5.71,8.89-4.72,5.57-.29,10.77-3.36,15.06-6.77,5.01-3.2,7.12-11.94,14.3-9.86,2.79.85,4.72,3.42,4.97,6.21-.43,11.08-21.39,24.59-34.27,24.59-1.55,0-2.97-.19-4.23-.62Z"/></g><g id="change5_6"><path fill="#0a253a" d="M247.39,201.32c-.12-.04-.25-.06-.39-.1.14.06.27.1.39.1ZM228.12,257.06c5.67,28.96,10.36,58.79,18.4,87.35,14.42,60.22,46.17,158.17,76.16,37.28.04-.91.17-1.75.45-2.5-20.22-8.23-37.9-22.96-51.55-39.81-6.79-8.69-12.15-18.46-17.33-27.97-1.38-9.24,11.35-11.41,14.59-3.2,14.98,30.12,42.68,56.73,76.6,62.57,44.99,7.01,62.92-51.29,68.92-86.13,5.69-32.57,1.15-65.46-4.44-97.58-1.73-10.23-3.38-20.46-5.61-30.57-.21-1.03-.21-2.02.06-2.97-2.21-.82-4.04-1.55-5.3-2.08-13.49-6.33-24.78-16.4-34.82-27.11-4.33,10.95-12.27,23.19-14.58,27.54-13.02,20.51-28.7,40.12-49.35,14.11-12.3,16.79-33.71,56.59-58.48,48.4-6.81-2.79-11.47-8.23-14.83-14.61-3.59-.16-7.61-2.87-11.55-3.18-22.98-4.95-45.32,14.89-37.4,38.35,4.81,12.28,18.9,16.22,30.7,18.4,2.23.52,4.74.35,7.22.17,1.2-.08,2.43-.16,3.61-.16,3.32,0,6.38.62,8.52,3.69ZM286.13,453c-.04-.14-.08-.27-.1-.39-.02.02-.04,0-.06-.02.02.12.08.27.16.41ZM319.06,433.98c14.96,6.25,29.95,12.56,44.44,19.82,7.34-24.2,15.18-48.25,22.45-72.47-2.91-.43-5.74-.95-7.96-2.06-11.7,6.44-25.5,8.69-41.49,4.56-2.95,14.09-8.02,34.97-17.45,50.15ZM232.62,392.5c-8.07,2.87-17.35,6.56-24.96,10.03-2.02.95-3.98,1.96-5.96,2.97,2.02,4.02,3.16,9.28,4.97,12.52,5.53,15,10.62,30.14,15.97,45.16,11.84-7.76,22.96-16.54,34.29-25.04,1.63-1.26,3.63-2.91,5.76-4.31-8.79-13.33-14.11-31.07-18.57-46.15-3.16,2.41-8.07,3.18-11.51,4.81ZM495.24,826.87c3.59.54,5.88,3.88,5.84,7.34.41,6.58.33,13.72,3.4,19.7,6.79,10.13,15,2.58,17.93-6.09,7.8-21.93,5.74-45.84,6.35-68.74v.83c.6-6.72-3.59-18.42,6.13-19.76,3.76-.29,7.43,2.66,7.63,6.5-.17,8.73.52,22.36.35,36.97,10.38,1.71,20.73,2.62,31.05,3.18-.25-2.64.17-5.49,0-7.88.31-11.88-2.52-23.77-3.05-35.48-.21-.21-.41-.49-.6-.74-2.14-3.24-2.14-7.78-3.47-11.33-8.48-35.3-46.99-57.23-81.07-42.89-32.31,14.96-56.22,71.98-53.18,106.3,1.88,15.49,9.04,23.17,19.49,7.53,2.48-2.83,3.28-6.95,6.46-9.14,17.16-7.84,10.34,24.59,16.75,32.9,1.73,2.91,4.52-1.38,5.78-2.83,2.17-3.36,4.77-6.58,5.9-10.44.7-3.51,3.61-6.02,7.1-6.02.39,0,.8.04,1.2.1ZM281.58,927.87c.02-2.27.14-4.5-.08-6.33-.31-29.66,1.51-59.31,1.79-88.95,1.09-126.6,2.41-253.5,2.5-380.04-5.22-1.51-9.76-4.21-13.76-7.72-5.07,3.3-9.78,7.08-14.59,10.69-8.73,6.56-17.51,13.06-26.55,19.17-5.14,3.47-13.43,8.93-18.3,2.31-8.13-21.25-14.54-43.42-23.41-64.47-20.53,12.27-39.18,27.52-57.37,43.03-33.23,27.11-59.5,61.23-74.27,101.56-21.39,61.33-36.04,125.53-41.53,190.25-4.58,48.64.68,97.19,2.72,145.77.1,9.51,1.09,19.06.99,28.59,28.2,3.16,56.3,4.66,84.46,3.96,3.77-29.5-.04-59.6,2.66-89.26,3.77-45.2,5.55-90.59,10.15-135.7,4.64-36.6,9.14-73.5,13.51-110.04.85-6.68,1.65-13.39,2.6-20.07.47-3.45,3.9-5.96,7.32-5.8,6.54.31,11.16,11.61,5.59,15.84-8.77,71.5-18.44,141.91-21.83,213.66-2.39,29.54-4.81,59.06-4.29,88.69.06,9.78.1,19.56-.16,29.34-.39,3.4-.16,8.37-.76,12.77,3.45-.19,6.93-.39,10.4-.66,50.71.23,101.48,2.21,152.22,3.4ZM299.93,451.5v.12c.82,46.33-1.3,92.67-.37,139-.5,77.96-1.57,155.92-2.02,233.88-.23,29.48-1.79,58.94-1.92,88.44-.68,3.92.37,9.9.52,15.24,6.09.14,12.21.25,18.3.33,16.77-.39,33.77-2.6,50.46-2.21-.64-16.22-1.15-32.39-1.67-48.46-.14-14.58-.41-29.13-.19-43.69.87-8.36-.25-18.85,6.37-25.08,4.33-2.76,10.09-2.29,15.02-3.12,10.11-.95,20.3-2.39,30.41-.82,1.36.25,2.45.8,3.3,1.49,1.03-35.67,18.57-74.1,43.38-99,1.8-1.71,3.69-3.26,5.63-4.7-2.79-5.73-1.73-12.89-2.76-19.12-2.87-32.61-3.36-65.31-3.45-98.01-.27-12.75-.66-25.5-1.3-38.21-.17-3.86,2.58-7.32,6.52-7.63,3.75-.29,7.43,2.64,7.61,6.5,2.08,36.72.76,73.54,2.95,110.27.85,12.94,1.51,25.97,2.97,38.89,36.25-15.89,83.65,3.09,97.39,42.23,2.29,5.63,3.9,11.53,5.4,17.41.23.45.43.93.54,1.38.27.27.5.58.76.91,2.08,8.46,2.89,17.49,3.47,26.49,3.16-38.35-.52-77.13-4.7-115.3-7.76-57.72-17.93-115.59-39.48-169.91-19.82-49.28-62.14-85.76-111.21-104.51-10.48-3.82-21.23-7.08-32.04-9.94-6.06,20.13-12.4,40.14-18.67,60.14-3.86,8.33-4.68,31.93-18.69,25.04-16.77-9.59-34.95-16.57-52.73-24.12-2.95,2.66-6.21,4.72-9.8,6.06ZM378.58,820.89c-3.05,18.92-.87,38.31-1.2,57.16.27,31.58,2.35,63,4.23,94.48,2.33,35.07,2.02,71.3,10.6,105.25,43.69,4.75,87.59,6.02,131.53,7.3,36.76,1.3,73.42,6.13,110.18,1.36,11.02-80.87,4.74-162.23-1.38-243.18.21-5.88-1.8-12.63-.27-18.38-1.16-.21-2.33-.72-3.38-1.67-28.76-2.58-57.84-.74-86.52-5.26-1.69,27.33-8.33,53.74-30.92,55.1-6.19-.35-11.35-3.28-15.72-7.51-3.03-2.93-4.87-6.64-6.11-10.58-15.68,15.74-30.43.02-31.48-17.76-20.03,19.06-37.17,1.63-39.71-19.95-1.4,1.44-3.49,2.25-6.11,1.82-2.7-.35-5.36-.49-8.03-.49-8.6,0-17.12,1.46-25.7,2.31ZM434.36,1095.78c-14.19-.87-28.24-2.99-42.45-3.84-3.4-.21-6.52-.93-9.1-3.3-6.31-6.6-6.56-16.71-8.15-25.25-4.93-40.62-7.49-82.02-9.22-123.18-22.9.52-45.78,3.34-68.7,2.1-53.2-1.16-107.07-2.85-160.15-3.84-29.93.95-59.95,3.42-89.82-.1-10.27-1.09-20.59-1.79-30.88-2.85-5.59-.16-12.17-3.1-10.34-9.74-.17-1.69-.08-3.47.04-5.14-.08-6.54-.5-13.04-.8-19.56-1.65-51.74-7.9-103.46-2.87-155.24,2.91-40.64,11.08-81.78,20.69-120.99,11.26-44.99,24.16-90.93,51.24-129.24,5.96-7.84,12.32-15.33,19.06-22.51-.21-.74-.33-1.53-.29-2.31,0-.1.02-.23.04-.35-.78-.1-1.53-.33-2.25-.7-39.65-24.61-36.99-80.52-30.97-121.24,6.93-45.01,34.97-81.65,56.77-120.21,25.83-46.09,7.72-102.9,29.77-150.43C175.62,7.49,264.06-9.88,332.14,4.83c14.59,3.4,28.7,8.85,40.46,18.15,1.9,1.51,4.62,3.86,7.12,6.6.56-.66,1.18-1.28,1.92-1.82,53.12-43.12,108.24,5.32,121.69,60.71,14.13,58.71-7.53,118.81,6.39,177.62,9.35,59.19,48.71,112.55,43.73,173.89-.21,6.93-3.14,22.82-9.24,30.47,27.52,47.76,38.21,107.03,48.81,170.9,6.19,38.97,9.06,78.35,9.57,117.79.17,12.67-.8,25.31-2.54,37.86-.17,1.2-.7,2.27-1.44,3.16.5,2.21.21,4.48-1.32,6.37-.25.37-.54.72-.85,1.03,5.63.12,11.28.21,16.92.33,8.5,1.16,20.13-1.2,26.55,5.41,1.28,1.79,1.55,3.71,1.13,5.45,7.28,1.82,13.93,13.64,5.22,17.74,2.81,44.54,6.87,89,8.09,133.58.41,36.82-2.02,73.67-5.05,110.35-.97,8.09-2.23,19.97-12.77,19.97-14.85,1.44-29.81,2.37-44.72,2.48-52.44-3.26-104.96-4.66-157.46-7.1Z"/></g></g></g></svg>