<?xml version="1.0" encoding="UTF-8" standalone="no"?><svg xmlns="http://www.w3.org/2000/svg" xmlns:xlink="http://www.w3.org/1999/xlink" contentScriptType="text/ecmascript" fill="#000000" width="524" zoomAndPan="magnify" contentStyleType="text/css" viewBox="0.0 0.0 524.5 1253.7" height="1254" preserveAspectRatio="xMidYMid meet" version="1"><g data-name="Layer 2"><g fill="#51233c" id="change1_1" data-name="Layer 1"><path d="M87.51 175.02L87.51 0 0 87.51 87.51 175.02z"/><path d="M87.51 715.98L87.51 540.96 0 628.47 87.51 715.98z"/><path d="M87.51 983.22L87.51 808.2 0 895.71 87.51 983.22z"/><path d="M87.51 445.5L87.51 270.48 0 357.99 87.51 445.5z"/><path d="M87.51 1250.47L87.51 1075.45 0 1162.96 87.51 1250.47z"/><path d="M378.81 178.25L378.81 3.23 291.3 90.74 378.81 178.25z"/><path d="M378.81 719.21L378.81 544.19 291.3 631.7 378.81 719.21z"/><path d="M378.81 986.45L378.81 811.43 291.3 898.94 378.81 986.45z"/><path d="M378.81 448.73L378.81 273.71 291.3 361.22 378.81 448.73z"/><path d="M378.81 1253.7L378.81 1078.68 291.3 1166.19 378.81 1253.7z"/><path d="M233.16 178.25L233.16 3.23 145.65 90.74 233.16 178.25z"/><path d="M233.16 719.21L233.16 544.19 145.65 631.7 233.16 719.21z"/><path d="M233.16 986.45L233.16 811.43 145.65 898.94 233.16 986.45z"/><path d="M233.16 448.73L233.16 273.71 145.65 361.22 233.16 448.73z"/><path d="M233.16 1253.7L233.16 1078.68 145.65 1166.19 233.16 1253.7z"/><path d="M436.95 90.74L524.46 178.25 524.46 3.23 436.95 90.74z"/><path d="M524.46 719.21L524.46 544.19 436.95 631.7 524.46 719.21z"/><path d="M524.46 986.45L524.46 811.43 436.95 898.94 524.46 986.45z"/><path d="M524.46 448.73L524.46 273.71 436.95 361.22 524.46 448.73z"/><path d="M524.46 1253.7L524.46 1078.68 436.95 1166.19 524.46 1253.7z"/></g></g></svg>