<?xml version="1.0" encoding="UTF-8" standalone="no"?><svg xmlns="http://www.w3.org/2000/svg" xmlns:xlink="http://www.w3.org/1999/xlink" contentScriptType="text/ecmascript" fill="#000000" width="734" zoomAndPan="magnify" contentStyleType="text/css" viewBox="0.0 -0.2 734.4 642.9" height="643" data-name="Layer 2" preserveAspectRatio="xMidYMid meet" version="1"><g id="change1_1" data-name="Layer 1"><path d="m3.19,642.7h-.28c-1.46,0-2.91-1.16-2.91-2.61,0-.88.3-1.76.86-2.32.3-.6,1.16-.88,2.04-.88,5.22-.28,10.45-.57,14.51-.88,1.45,0,3.19.88,3.19,2.61.3,1.47-.86,2.92-2.61,3.2-4.65.28-9.58.6-14.81.88h0Zm38.32-3.77h-.3c-1.45,0-2.61-1.16-2.91-2.61,0-.6,0-1.47.58-2.04.3-.6,1.16-1.16,1.74-1.16h.58c4.35-.88,9-1.76,14.51-2.61,1.16-.31,2.91.57,3.19,2.32.3.57,0,1.45-.28,2.01-.58.6-1.16,1.16-2.03,1.16-4.37,1.16-9.3,2.04-14.51,2.92h-.58Zm37.44-8.42c-1.16,0-2.32-.88-2.62-2.04-.28-.57-.28-1.45.3-2.04.28-.85.86-1.16,1.74-1.45h0l.28-.28c4.65-1.16,9.28-2.61,13.93-4.37,1.46-.57,3.19.31,3.77,1.76.58,1.73-.28,3.17-1.73,3.77-5.23,1.73-9.88,3.2-14.51,4.65h-1.16Zm36.57-13.07c-1.16,0-2.03-.88-2.61-1.76-.58-1.45,0-3.17,1.45-3.77l.3-.28h.28c4.07-2.04,8.42-4.05,13.07-6.38,1.16-.6,3.19-.28,3.77,1.16.86,1.45.28,3.17-1.16,4.05-5.23,2.61-9.28,4.65-13.35,6.38h-.3q0,.31-.28.31h0c-.58,0-.86.28-1.16.28Zm33.96-18.88c-.86,0-1.74-.28-2.32-1.16-.86-1.45-.58-3.17.58-4.05l.58-.28c3.78-2.32,7.55-5.24,11.9-8.42,1.16-.88,3.19-.6,4.07.57.86,1.16.58,2.92-.58,4.08-3.77,2.89-7.84,5.78-12.19,8.7l-.3.28h-.28c-.58.28-.88.28-1.46.28Zm30.49-24.09c-.88,0-1.74-.28-2.32-.85-.3-.6-.58-1.16-.58-2.04s.28-1.45.86-2.04c0,0,.3,0,.3-.28,3.77-3.49,7.26-6.97,10.16-10.46,1.15-1.16,3.19-1.16,4.35,0,1.16.88,1.16,2.92,0,4.08-3.49,3.77-6.97,7.26-10.46,10.74q-.28,0-.28.28h0c-.58.57-1.45.57-2.03.57Zm25.82-28.71c-.58,0-1.16-.31-1.74-.6-.57-.57-1.15-1.16-1.15-2.04s0-1.45.58-2.01v-.28l.28-.31h.28c2.62-3.77,5.53-7.82,8.14-11.9.86-1.13,2.61-1.73,4.07-.85,1.16.85,1.74,2.61.58,4.05-2.62,4.37-5.53,8.42-8.42,12.47-.3,0-.3.31-.3.31-.58.57-1.45,1.16-2.32,1.16Zm20.9-32.8c-.58,0-1.16-.31-1.45-.31-.88-.57-1.16-1.16-1.46-2.01-.28-.6,0-1.47.3-2.04,0,0,0-.28.28-.28,2.32-4.93,4.65-9.3,6.39-13.07.58-1.45,2.31-2.32,3.77-1.76,1.45.88,2.03,2.64,1.45,4.08-2.03,4.65-4.35,8.99-6.68,13.35v.28h0c-.86,1.16-1.74,1.76-2.61,1.76Zm15.67-35.43c-.3,0-.58-.28-1.16-.28-1.45-.57-2.03-2.32-1.74-3.77h.3v-.28c1.73-4.65,3.19-9.01,4.63-13.95.58-1.73,2.32-2.61,3.77-2.04,1.46.6,2.32,2.04,1.74,3.49-1.45,4.93-2.89,9.86-4.63,14.51h0l-.3.31c-.28,1.16-1.45,2.01-2.61,2.01Zm11.03-37.44h-.58c-1.74-.28-2.61-2.01-2.32-3.49v-.28l.3-.28c1.16-4.65,2.03-9.58,2.91-14.23.28-1.73,1.73-2.89,3.47-2.32,1.46.28,2.62,1.76,2.32,3.2-.86,4.93-2.03,9.58-3.19,14.8v.28h0c-.3,1.47-1.46,2.32-2.91,2.32Zm6.68-38.29h-.28c-.88,0-1.46-.6-2.04-1.16-.28-.6-.58-1.16-.58-2.04v-.28h0v-.31c.58-4.34,1.16-8.69,1.46-14.5.28-1.45,1.74-2.61,3.19-2.61,1.74,0,2.91,1.45,2.61,3.19-.28,4.35-.58,9-1.45,14.8v.28c-.3,1.47-1.45,2.64-2.91,2.64Zm49.35-28.46c-.58,0-1.46-.28-2.04-.86s-.86-1.46-.86-2.04c0-.86.28-1.45.86-2.03s1.16-.86,2.04-.86h.28c5.81-.3,10.45-.58,14.81-1.16,1.45,0,2.89,1.16,3.19,2.61,0,1.45-1.16,2.91-2.61,3.19-5.81.58-10.74.88-15.09,1.16h-.58Zm-23.51-.58l-.3-.28c-4.35-.3-9.28-.88-15.09-1.74h-.28c-.58-.3-1.45-.58-1.74-1.16-.58-.58-.86-1.45-.58-2.32.3-1.45,1.74-2.61,3.49-2.32h.28c4.65.88,9.58,1.46,14.51,2.04,1.46,0,2.62,1.45,2.62,2.89s-1.46,2.91-2.91,2.91Zm62.12-4.35c-1.46,0-2.62-1.16-2.91-2.32-.3-1.74.58-3.19,2.32-3.49h.28c5.23-1.45,9.86-2.61,14.23-4.05,1.45-.3,3.19.58,3.47,2.03.3.58.3,1.45,0,2.32-.58.58-1.16,1.16-1.74,1.16-4.93,1.74-9.57,2.91-14.8,4.07h-.28q-.3.28-.58.28Zm-100.14-2.91c-.3,0-.58,0-.86-.28-4.65-1.16-9.3-2.91-14.51-4.93h-.3c-1.45-.88-2.03-2.32-1.45-3.78.58-1.45,2.03-2.31,3.77-1.74,0,0,.28,0,.28.3,4.65,1.74,9.3,3.19,13.65,4.65,1.74.58,2.61,2.03,2.03,3.77-.28,1.16-1.45,2.03-2.61,2.03Zm14.8-2.32h0c-.58,0-1.45-.58-2.03-1.16-.58-.28-.86-1.15-.58-2.03v-15.09c0-.58.3-1.45.88-2.03.28-.58,1.15-.88,2.03-.88h0c1.45,0,2.91,1.46,2.91,2.91v15.39c-.3,1.45-1.46,2.89-3.2,2.89Zm121.91-7.54c-.86,0-2.03-.58-2.61-1.45-.58-1.46,0-3.2,1.45-4.07h.3c4.93-2.32,8.99-4.65,13.05-6.97,1.16-.86,3.19-.28,3.77.88.88,1.45.58,3.19-.86,4.05-4.35,2.62-8.7,4.95-13.35,7.26h-.3c-.58.3-.86.3-1.45.3Zm-172.41-5.81c-.3,0-.88-.28-1.45-.58-4.07-2.61-8.42-5.51-12.49-8.7h-.3c-.58-.58-.86-1.45-.86-2.03-.3-.88,0-1.74.58-2.32.86-1.16,2.61-1.16,3.77-.3h.3s.28,0,.28.3c3.49,2.61,7.26,5.51,11.9,8.12,1.16.88,1.74,2.62.86,4.07-.58.86-1.45,1.45-2.61,1.45Zm205.2-15.09c-.86,0-1.74-.28-2.32-1.16-.58-.28-.58-1.15-.58-1.73,0-.88.3-1.74.88-2.32h.28c3.78-3.2,7.26-6.68,10.46-10.46.86-.86,2.89-1.15,4.05,0,1.16,1.16,1.16,2.91.3,4.07-3.49,3.77-6.97,7.26-10.74,10.45l-.28.3h0c0,.28-.3.28-.3.28-.58.3-1.16.58-1.74.58Zm-234.23-10.45c-.88,0-1.74-.28-2.32-1.16-3.19-4.07-5.81-8.12-8.42-12.47h0c0-.3-.28-.3-.28-.3v-.28c-.58-1.16-.3-3.2,1.16-3.78,1.45-.86,3.19-.28,4.05,1.16h0v.3c2.62,4.05,5.23,8.12,8.14,11.89.86,1.16.86,3.2-.58,4.07-.3.3-.88.58-1.74.58Zm78.66,0c-1.45,0-2.61-1.16-2.91-2.61v-.58c-.28-4.65-.86-9.58-1.16-14.51-.28-1.74.88-3.19,2.62-3.19,1.45-.3,2.89.86,2.89,2.31.88,5.51,1.16,10.74,1.46,14.81v.58h0c.28,1.74-.88,2.91-2.62,3.19v-.28.28h-.28Zm180.25-19.16c-.58,0-.86-.28-1.45-.58-1.46-.58-1.74-2.61-.88-3.77v-.28c1.74-2.91,3.2-5.81,4.35-8.42.3-.58.88-1.46,1.16-2.04.3-.86.88-1.73,1.16-2.61.58-1.45,2.32-2.03,3.78-1.45.57.28,1.15.86,1.45,1.45.28.88.28,1.74,0,2.32-.3,1.16-.88,2.03-1.16,2.91-.28.58-.86,1.16-1.16,2.03-1.45,2.91-2.91,5.81-4.35,8.72h-.3v.28c-.58.86-1.45,1.45-2.61,1.45Zm-276.02-15.38c-1.46,0-2.62-.86-2.91-2.03-1.16-4.95-2.04-9.88-2.62-15.09v-.58c-.28-1.46.88-2.91,2.62-2.91,1.45-.3,2.91.86,3.19,2.61h0v.3c.58,4.93,1.45,9.58,2.61,14.21.3,1.46-.58,3.19-2.31,3.49h-.58Zm91.13-4.07c-1.45,0-2.61-1.16-2.89-2.32v-1.16c-.88-4.35-1.74-8.99-2.91-13.93-.3-1.45.86-2.89,2.32-3.47,1.45-.3,3.19.86,3.47,2.32,1.16,4.63,2.04,9.57,2.91,14.8h-.28.28v.28h0c.3,1.74-.86,3.2-2.32,3.49h-.58Zm202.01-15.38c-.28,0-.86,0-1.16-.3-1.45-.86-2.03-2.61-1.45-4.05q.3,0,.3-.3c1.45-2.91,3.19-6.09,4.63-9,.58-1.45,1.46-2.91,2.04-4.35.58-1.16,2.61-1.74,4.05-1.16.58.3,1.16.88,1.16,1.74.3.58.3,1.45,0,2.03-2.03,4.07-4.05,8.42-6.68,13.35,0,0,0,.3-.28.3-.3,1.16-1.46,1.74-2.62,1.74Zm-295.47-18.86q-.3,0-.58-.3c-.58,0-1.46-.28-1.74-.86-.58-.88-.88-1.46-.58-2.32.58-5.23,1.45-9.86,2.32-14.81,0-.28.28-.28.28-.58.3-1.45,1.74-2.31,3.2-2.03.86.3,1.45.58,2.03,1.16.28.86.58,1.45.28,2.32v.28c-1.16,4.93-2.03,9.58-2.31,14.51-.3,1.46-1.46,2.62-2.91,2.62Zm84.75-3.78c-1.16,0-2.32-.58-2.91-2.03h0v-.28c-1.74-5.81-3.19-10.16-4.65-13.95-.58-1.45.3-3.19,1.74-3.77,1.74-.58,3.2.3,3.78,1.74,1.45,4.07,2.89,8.72,4.63,14.23l.3.28h0c.28.88,0,1.74-.3,2.32-.28.58-.86,1.16-1.74,1.45h-.86Zm228.43-11.89c-.3,0-.88-.3-1.16-.3-1.46-.86-2.04-2.61-1.46-4.07.3,0,.3-.28.3-.28,2.32-4.07,4.65-8.7,7.26-13.07.58-1.45,2.32-2.03,3.77-1.16.58.3,1.16.88,1.45,1.74.3.58,0,1.46-.28,2.04-2.03,4.05-4.35,8.12-6.97,13.05h0l-.28.3h0c-.58,1.16-1.45,1.74-2.61,1.74Zm-304.18-22.07c-.3,0-.58,0-.88-.28-.86-.3-1.45-.88-1.74-1.46-.28-.86-.28-1.45,0-2.32,2.04-5.22,4.07-9.86,6.09-13.93h.3v-.28c.58-1.45,2.61-2.03,4.07-1.16,1.16.86,1.73,2.61.86,4.07v.28c-2.03,3.77-4.07,8.14-5.81,13.07-.58,1.16-1.73,2.03-2.89,2.03Zm61.52-2.03c-.86,0-2.03-.58-2.31-1.74h-.3v-.3c-2.32-4.35-4.93-8.7-7.54-12.19-.3-.86-.58-1.45-.3-2.32,0-.57.3-1.45,1.16-1.73,1.16-1.16,2.91-.58,4.07.58,2.61,3.77,5.22,8.12,7.84,13.05h0v.58h.28c.58,1.46,0,2.91-1.45,3.77-.3,0-.88.3-1.46.3Zm261.52-10.16c-.58,0-1.16,0-1.46-.28-1.45-.88-1.73-2.62-1.15-3.78v-.28h.28v-.3l.3-.28c2.31-4.35,4.93-8.42,7.26-12.49.86-1.45,2.61-1.74,4.05-.86.58.28,1.16.86,1.16,1.74.3.58.3,1.45-.28,2.03-2.62,4.65-4.93,8.7-7.55,12.77h0v.58c-.58.88-1.45,1.16-2.61,1.16Zm-286.48-18.86h-1.16v-.3h-.28c-4.07-1.74-8.14-1.74-11.9,0-1.45.58-3.19,0-3.77-1.45-.88-1.45-.3-3.19,1.16-3.77,5.51-2.62,11.31-2.62,16.84,0h.58c.57.28,1.15.86,1.45,1.74.28.58.28,1.45-.3,2.03-.28,1.16-1.45,1.74-2.61,1.74Zm306.51-14.23c-.58,0-1.16-.28-1.45-.58-1.46-.86-1.74-2.61-.88-3.77v-.58c.3,0,.3-.28.3-.28,2.61-4.07,5.22-8.14,7.84-12.19.86-1.16,2.89-1.74,4.05-.88,1.46.88,1.74,2.91.88,4.07-2.32,3.49-4.93,7.54-8.14,12.47v.3c-.58.86-1.74,1.45-2.61,1.45Zm21.77-32.21c-.58,0-1.16-.28-1.74-.58-1.45-.86-1.74-2.91-.58-4.07v-.28h0c1.16-1.46,2.04-2.61,2.91-4.07-3.77-1.16-7.55-2.91-11.32-4.65-.58-.28-1.16-.86-1.45-1.73-.3-.58-.3-1.46,0-2.04.58-1.45,2.32-2.03,3.77-1.45,4.07,2.03,8.42,3.49,12.77,4.93.58-1.16,1.46-2.03,2.32-3.19s2.91-1.46,4.07-.58c.58.58.86,1.16,1.16,2.03,0,.88-.3,1.46-.58,2.03-2.62,3.49-5.51,7.26-8.72,12.2h-.28v.28c-.58.58-1.46,1.16-2.32,1.16Zm42.96-1.74h-.28c-5.81-.28-10.74-.58-15.39-1.16-.58,0-1.45-.28-1.74-1.16-.58-.58-.86-1.16-.58-2.03,0-1.45,1.74-2.61,3.2-2.61,4.35.58,8.99,1.16,14.51,1.16h.28c1.45,0,2.91,1.15,2.91,2.89,0,1.46-1.46,2.91-2.91,2.91Zm23.51-1.45c-1.45,0-2.61-1.16-2.91-2.62-.28-1.45.88-2.89,2.61-3.19,4.65-.58,9.3-1.45,14.23-2.32l.28-.28h.88c1.16,0,2.61.86,2.91,2.32.28,1.45-.88,2.89-2.32,3.47h-.3c-5.51,1.16-10.45,2.04-15.09,2.62h-.28Zm37.73-9c-1.16,0-2.32-.58-2.61-2.03-.58-1.46.28-2.91,1.74-3.49,4.35-1.46,8.7-3.2,13.63-5.23h.3c1.74-.86,3.49,0,4.07,1.46.58,1.45-.3,3.19-1.74,3.77q0,.28-.3.28c-5.51,2.04-9.86,3.77-14.21,5.23h-.88Zm-134.09-13.07c-.58,0-1.16,0-1.74-.28,0-.3-.3-.3-.3-.3-4.07-2.89-7.84-6.09-11.89-9.58-1.16-1.15-1.16-2.89,0-4.05.86-1.16,2.89-1.46,4.05-.3,3.77,3.49,7.55,6.39,11.32,9.3h.28c.58.58.88,1.16,1.16,2.03,0,.58,0,1.45-.58,2.03-.58.88-1.45,1.16-2.31,1.16Zm169.79-2.03c-1.16,0-2.03-.58-2.61-1.74-.28-.58-.28-1.45,0-2.03,0-.88.58-1.46,1.16-1.74,4.65-2.32,9-4.65,13.07-7.26h.28c1.45-1.16,3.19-.58,4.07.86.58,1.46.28,3.2-1.16,4.07h-.3c-4.05,2.61-8.42,4.93-13.05,7.54-.3,0-.88.3-1.46.3Zm-116.38-3.49c-.58,0-1.16-.28-1.74-.86-.58-.3-.86-1.16-1.16-1.74,0-.88.3-1.74.88-2.32h0v-.28c3.47-3.78,6.68-7.55,9.86-11.32,1.16-1.16,2.91-1.16,4.07-.3,1.15,1.16,1.45,3.2.28,4.07-3.77,4.35-6.68,7.84-9.58,11.32h-.28v.28c-.58.58-1.46,1.16-2.32,1.16Zm149.48-17.12c-.86,0-1.74-.58-2.32-1.16-1.16-1.45-.86-3.19.58-4.07,4.35-3.19,8.14-6.38,11.03-9.28l.3-.3h.28c.88-1.16,2.91-1.16,4.07,0,.3.58.58,1.46.58,2.32,0,.58-.28,1.46-.86,1.74,0,.3-.3.3-.3.3-3.19,3.19-6.96,6.09-11.61,9.86-.58.28-1.16.58-1.74.58Zm-231.04-4.07c-.86,0-1.45-.28-2.03-.86l-.3-.3h0c-3.19-3.77-6.09-7.84-9-12.19-.86-1.45-.58-3.19.88-4.07,1.16-.86,2.91-.58,3.77.88,2.91,3.77,5.81,7.84,8.7,11.61h.3v.58c1.16,1.16.86,2.91-.3,3.77-.58.58-1.16.58-2.03.58Zm107.98-7.54c-.88,0-1.74-.3-2.32-.88-.88-1.16-.88-2.91,0-4.07.28,0,.28-.28.28-.28,4.65-4.35,8.14-7.54,11.03-10.16,1.16-1.16,3.2-.86,4.37.3.86,1.16.86,2.89-.3,4.05-3.19,2.91-6.96,6.09-10.74,9.88h-.28q0,.28-.3.28c-.58.58-1.15.88-1.73.88Zm143.38-18.3c-1.16,0-2.32-.86-2.62-2.03-1.16-3.77-3.77-8.12-6.96-11.61v-.3q-.3,0-.3-.28c-1.16-1.16-.86-2.91.3-3.77,1.16-1.16,2.91-1.16,4.07,0l-.3.58.3-.3h.28c4.07,4.65,6.68,9.28,8.12,13.93.58,1.46-.28,3.19-2.03,3.49,0,.28-.28.28-.86.28Zm-272.27-6.68c-1.15,0-2.31-.58-2.61-1.45l-.28-.3c-2.32-4.63-4.65-8.99-6.68-13.63-.3-.58-.3-1.45,0-2.03.28-.88.86-1.46,1.45-1.74,1.45-.58,3.49,0,4.07,1.45,1.74,4.35,4.05,9,6.38,13.35h0c0,.3.3.3.3.3.58,1.45,0,3.19-1.46,3.77-.28.28-.86.28-1.16.28Zm158.49,0c-1.16,0-2.04-.58-2.62-1.16-.28-.58-.58-1.45-.28-2.31,0-.58.58-1.46,1.16-1.74h0l.28-.3h0c4.35-3.19,8.72-5.8,12.77-8.12,1.16-.88,3.2-.3,3.77.86.88,1.46.58,3.2-.86,4.07-3.77,2.03-7.54,4.65-12.19,7.84h0q-.3.28-.58.28c-.58.3-1.16.58-1.45.58Zm33.96-18.28c-1.16,0-2.32-.86-2.62-2.03-.28-.88-.28-1.46,0-2.32.3-.58.88-1.16,1.74-1.45h.3c4.93-1.74,9.58-3.2,14.8-4.07,1.74-.3,2.91.58,3.19,2.32.3,1.45-.57,2.89-2.03,3.19-4.65.86-9,2.03-13.93,3.77,0,.3-.28.3-.28.3h0c-.58,0-.88.28-1.16.28Zm52.82-1.16c-.28,0-.58-.28-1.16-.28-4.07-1.74-8.7-2.91-13.63-3.78h-.3c-.86,0-1.45-.57-2.03-1.15-.3-.58-.58-1.16-.58-2.04.28-1.45,1.45-2.91,3.49-2.61v.28h.57c5.23.58,10.16,2.04,14.81,3.78,1.45.58,2.03,2.31,1.45,3.77-.28,1.16-1.45,2.03-2.61,2.03Zm-260.93-15.96c-1.16,0-2.32-.88-2.62-2.04l-.28-.28c-1.16-3.49-2.32-6.97-3.49-10.16-.3-1.74.58-3.19,2.03-3.77,1.46-.3,3.2.28,3.49,1.74,1.16,3.19,2.32,6.38,3.49,10.16,0,.28.28.28.28.58.3,1.45-.28,2.89-1.74,3.47-.28.3-.58.3-1.15.3Z"/></g></svg>