<?xml version="1.0" encoding="UTF-8" standalone="no"?><svg xmlns="http://www.w3.org/2000/svg" xmlns:xlink="http://www.w3.org/1999/xlink" contentScriptType="text/ecmascript" fill="#000000" width="752" zoomAndPan="magnify" contentStyleType="text/css" viewBox="-0.5 -15.3 752.2 1339.5" height="1339" preserveAspectRatio="xMidYMid meet" version="1"><g data-name="Layer_1"><g><g id="change1_1"><path fill="#f2bc57" d="M444.8,430.5c-15.98-3.45-33.17-5.77-50.62-6.85-4.16,0-7.91,2.64-9.28,6.63-11.37,33.09-28.26,65-44.6,95.86-74.8,135.45-151.59,268.5-227.48,403.19-19.88,37.18-105.84,148.49-97.07,180.97,7.26,69.46,29.37,136.32,62.99,192.95,16.15,15.19,90.99-29.81,117.96-43.68,55.75-33.93,107.09-61.58,144.71-99.86,46.79-174.46,95.7-300.55,102.98-498.18,2.69-62.7,2.76-124.06,5.56-186.71-2.64-13.48,10.6-37.48-5.14-44.31Z"/></g><g id="change1_2"><path fill="#f2bc57" d="M539.01,301.13c-26.32-17.02-64.5-16.11-94.55-18.39-39.67-5.64-69.1,23.46-66.12,61.79,2.01,22.5-7.88,58.64,13.21,73.21,19.28,3,38.99,4.53,57.71,8.36,5.22.24,7.69-5.03,12.59-5.72,32.4-16.48,65.03-45.14,89.63-72.47,8.26-15.95-5.84-33.79-12.49-46.77Z"/></g><g id="change1_3"><path fill="#f2bc57" d="M573.37,26.87C476.14,4.67,313.81,2.63,292.28,126.31c-12.49,76.81,15.16,105.85,60.95,153.96,20.33,21.95,22.23,30.95,46.84,6.34,4.24-3.22,5.13-9.25,2.01-13.56-30.62-44.02-78.29-114.09-67.56-173.24,7.25-.5-.41,20.16,3.54,26.76.97,7.33,10.45,10.9,16,5.97,22.62-18.98,64.92-29.87,116.04-29.87,171.58-.45,161.88,99.34,191.57,20.49-.67,53.57-69.26,132.46-116.4,161.22-13.39,11.57,11.69,29.91,11.53,41.41,11.71,19.99,37.95-14.46,52.34-19.72,142.59-82.55,132.84-238.74-35.78-279.21Z"/></g><g id="change2_1"><path fill="#17334f" d="M25.67,1185.58c-6.69-13.29,5.85-20.51,17.72-21.19,15.42-2.69,32.65-6.41,46.7-9.69,67.16-16.48,133.92-34.6,200.49-53.3,18.72-5.58,37.75-10.74,55.39-19.27,14.63-6.34,24.74,15.19,10.17,22.36-40.64,18.28-84.86,27.14-127.54,39.45-51.57,13.87-103.05,28.35-155.25,39.64-10.2,2.26-20.51,3.96-30.78,5.88-5.52,3.45-13.54,1.9-16.9-3.88Z"/></g><g id="change2_2"><path fill="#17334f" d="M65.29,990.25c.05-14.06,14.32-12.81,24.43-13.64,56.48-7.18,112.2-19.37,166.36-36.44,25.06-7.72,49.92-16.31,74.38-25.74,27.47-11.99,57.95-20.44,82.29-37.99,10.24-6.75,23.46,5.73,17.45,16.36-3.42,5.96-10.05,9.14-15.9,12.29-92.45,43.63-189.46,74.92-290.14,91.39-15.27,2.63-30.65,4.81-46.14,5.58-6.63.32-12.5-5.17-12.73-11.81Z"/></g><g id="change2_3"><path fill="#17334f" d="M176.59,825.2c-6.84-4.37-7.3-14.69-1.09-19.75,2.94-2.45,6.51-3.22,9.89-2.58,10.26-1.49,20.4-3.79,30.49-6.1,49.3-12.77,97.78-28.63,145.52-46.34,22.77-8.94,46.05-16.94,67.93-27.92,14.53-6.53,24.84,15.35,10.17,22.34-63.71,29.22-130.72,51.03-197.98,70.54-11.51,3.26-23.13,6.14-34.87,8.54-9.73,1.28-20.84,6.61-30.05,1.28Z"/></g><g id="change2_4"><path fill="#17334f" d="M280.64,651.81c-5.31-4.07-7.04-11.41-3.09-17.09,2.2-3.18,5.98-5.12,9.81-5.28,11.62-1.85,23.17-4.39,34.64-7.06,39.32-10.4,76.06-21.8,111.67-39.08,13.82-9.17,27.57,11.44,13.69,20.45-9.55,5.24-19.49,9.55-29.61,13.5-35.01,13.5-70.81,25.38-107.61,32.85-9.61.85-20.47,6.93-29.5,1.71Z"/></g><g id="change3_1"><path fill="#471911" d="M42.27,1264.87c10.39,19.64,16.92,43.94,35.42,57.61,2.11,1.21,4.3,1.69,6.48,1.69,4.62,0,9.3-2.09,13.67-3.76,21.58-7.86,41.23-14.31,62.75-24.64,63.83-32.18,124.18-71.02,180.99-114.46,4.53-3.87,9.97-7.25,12.43-12.87,2.68-6.89,3.95-14.44,5.62-21.61,4.43-18.93,9.53-37.74,15.15-56.33,23.3-75.47,47.35-150.99,61.41-228.82,8.73-50.96,15.57-103.39,19.96-155.14,6.06-76.75,5.01-153.81,8.44-230.68.44-10.11.94-20.23,1.96-30.3.39-3.92-1.13-7.63-3.79-10.2.02-.04.05-.08.07-.12,23.74-5.56,67.94-45.88,77.89-55.34,7.98-7.73,16.19-15.36,23.24-23.95.6-.9,1.06-1.84,1.54-2.78,3.11-1.58,6.14-3.96,8.94-6.29-.13.1-.27.19-.42.29h-.02c53.83-36.84,118.7-72.36,142.33-137.05,31.64-80.67-34.37-167.43-111.24-190.37-98.27-28.1-220.4-35.04-300.22,39.43-31.7,37.63-37.65,106.38-21.73,151.93,8.25,24.66,26.77,43.69,44.01,62.41,8.59,9.4,17.07,18.91,25.85,28.12,4.58,4.27,8.98,9.77,14.22,13.62-.31,1.52-.58,3.06-.76,4.63-3.64,19.04-3.87,38.66-2.92,58,.8,15.2,1.78,31.43,9.17,44.97-.09.29-.21.57-.28.86-3.09,7.06-6.1,14.12-9.01,21.27-11.37,27.35-24.49,52.01-38.65,79.27-36.29,69.77-77.73,136.71-116.76,204.96-45.61,78.33-83.83,160.83-135.65,235.5-13.85,21.46-26.56,43.63-39.64,65.57-9.97,16.76-19.91,33.54-29.77,50.36-3.4,5.79-3.13,12.54-2.76,19.03,3.49,57.54,19.16,112.21,42.06,165.21ZM483.08,396.27c-7.61,5.04-16.61,10.7-25.7,15.36-3.49.34-6.26,2.16-8.12,4.67-18.48-4.21-37.53-5.17-56.06-8.26-7.43-18.49-4.84-40.31-5.29-59.87.96-12.51,1.57-25.58,6.69-37.21,8.84-7.88,17.3-18.37,30.19-17.63,24.09-1.94,48.25-.19,71.98,4.33,10.2,2.21,23.09,3.62,33.68,8.27,6.12,10.87,14.15,22.46,13.73,35.4-18.28,20.39-38.91,38.88-61.1,54.93ZM401.71,420.71c.04-2.59-.59-5.08-1.84-7.17,1.38,2.09,2.03,4.64,1.84,7.17ZM530.58,276.37c-1.07.77-1.95,1.68-2.65,2.68-6.76-1.73-13.8-2.77-20.46-4.29-12.24-2.32-24.61-4.64-37.03-5.68-17.54-1.43-35.23-1.49-52.74.34-16.06-21.82-31.06-44.46-43.93-68.33-8-15.82-14.87-32.34-19.87-49.38.28-.15.57-.27.85-.45,5.98-5.6,11.99-11.12,19.51-14.79,35.92-18.24,75.12-19.14,115.34-18.51,32.89,1.88,66.09,6.79,95.99,22.07,14.78,7.63,33.25,16.22,46.35,28.68-15.24,29.91-37.88,56.3-62.6,78.65-11.99,10.87-25.09,20.35-38.74,29ZM361.16,274.36c-46.66-49.02-70.96-74.05-59.19-146.47,7.61-52.36,34.79-69.71,81.09-87.84,60.74-22.63,126.1-17.95,188.41-3.55,48.94,7.92,93,37.57,116.22,81.97,23.49,41.25,10.3,92.67-20.46,126.41-18.85,20.43-41.18,37.15-63.77,53.18-12.27,8.53-24.94,16.47-37.32,24.83-3.46-11-9.68-21.79-15.56-30.33,27.61-17.96,51.86-40.94,72.87-66.24,17.34-21.21,54.68-80.65,47.31-107.46-5.01-9.13-20.37-6.98-22.4,3.34-1.53,7.66-3.65,15.12-6.18,22.42-15.05-11.79-37.98-22.14-46-26.68-55.75-30.29-193.44-38.96-248.37,7.07-.35-2.16-.73-4.3-1.01-6.47-1.07-6.27,1.19-12.29.98-18.43-1.36-9.74-14.23-13.87-20.92-6.64-11.55,17.87-.4,49.4,4.56,68.74,12.76,42.67,36.73,80.68,62.69,116.58-2.17,1.67-4.25,3.46-6.28,5.28-3.55,2.4-6.63,5.19-9.34,8.26-6.12-5.63-11.69-11.88-17.35-17.98ZM26.46,1089.14c11.09-18.85,22.25-37.65,33.43-56.46,19.06-33.51,40.28-65.69,61.18-98.02,35.58-55.79,63.77-115.74,96.64-173.07,38.86-68.54,80.4-135.54,117.68-204.94,20.76-40.35,43.9-80.15,58.7-123.19,3.11.24,6.27.31,9.31.74,13.85,1.31,25.91,3.11,39.37,5.97-.29.84-.51,1.72-.61,2.63-1.09,10.84-1.57,21.73-2.07,32.6-2.74,61.81-2.86,123.86-5.5,185.71-5.7,93.52-16.63,186.84-40.81,277.65-18.49,73.57-45.3,144.76-61.95,218.79-43.78,35.14-91.08,65.63-139.99,93.48-33.12,20.5-67.6,34.48-104.66,47.2-33.81-56.83-54.31-122.03-61.6-187.68.17-7.02-3.16-15.25.88-21.4Z"/></g></g></g></svg>