<?xml version="1.0" encoding="UTF-8" standalone="no"?><svg xmlns="http://www.w3.org/2000/svg" xmlns:xlink="http://www.w3.org/1999/xlink" contentScriptType="text/ecmascript" fill="#000000" width="1361" zoomAndPan="magnify" contentStyleType="text/css" viewBox="-1.9 -0.5 1361.2 1570.5" height="1571" preserveAspectRatio="xMidYMid meet" version="1"><g data-name="Layer_1"><g><g id="change1_1"><path fill="#244668" d="M1137.56,1367.1h3.85c11.27.01,23.44-.38,38.45-1.23,49.02-3.57,88.79-8.3,125.12-14.91,3.23-.41,6.41-1.16,9.49-1.9,3.88-.93,7.54-1.8,10.57-1.8,1.11,0,2.02.12,2.8.36.95.29,1.93.44,2.9.44,2.09,0,4.16-.67,5.88-1.95,2.51-1.88,3.98-4.85,3.94-7.99-.22-18.48-.93-37.99-2.1-58.21-11.15-138.52-27.87-285.16-49.66-435.78-2.57-18.54-5.06-37.11-7.55-55.7-9.68-72.18-19.68-146.83-34.5-219.21-13.52-69.06-24.29-122.16-34.95-172.34-11.53-50.39-24.5-98.75-56.16-136.44-.13-.15-.26-.3-.4-.45-5.52-5.81-11.62-11.47-18.14-16.81-1.78-1.46-3.99-2.22-6.22-2.22-1.06,0-2.13.17-3.16.52-3.21,1.09-5.63,3.76-6.4,7.06-1.99,8.52-4.49,16.84-7.14,25.65-3.39,11.3-6.91,22.98-9.17,34.82-6.54,30.98-11.36,62.12-15.73,91.34-8.93,58.4-13.13,110.19-12.81,158.19l-.08,11.43c-.12,17.55-.25,35.7-.02,53.61,0,.64-.46,1.19-.66,1.4-.51.52-1.2.84-1.78.84-1.5-.01-2.45-1.39-2.46-2.69-.34-24.89-.11-49.22.19-76.27.04-58.15,7.71-114.97,14.38-157.94l1.33-8.38c5.41-34.3,11-69.77,20.58-103.38,1.23-4.25,2.52-8.49,3.82-12.73,1.63-5.32,3.26-10.65,4.75-16,.46-1.64.48-3.37.07-5.02-.18-.72.02-1.58.51-2.18,1.75-2.15,2.5-4.94,2.08-7.68-.42-2.74-1.98-5.17-4.29-6.7-17.75-11.74-36.65-21.71-56.44-31.9l-15.85-7.37c-43.87-20.41-89.23-41.51-135.12-59.49-1.17-.46-2.39-.68-3.61-.68-2.18,0-4.34.72-6.1,2.12-2.74,2.18-4.12,5.64-3.6,9.11-.47,24.53-2.94,45.43-7.58,64.03-10.63,44.85-58.53,159.12-84.67,159.12-.77,0-1.48-.13-2.22-.42-13.61-8.93-25.5-20.22-38.07-32.17-8.48-8.06-17.25-16.39-26.86-24.13-4.25-3.2-8.55-7.09-13.1-11.21-10.1-9.15-20.54-18.62-33.57-23.52-1.12-.42-2.29-.63-3.45-.63-1.74,0-3.47.46-5,1.37-2.56,1.51-4.3,4.11-4.72,7.05-.98,6.77-1.94,14.08-2.34,22.02-1.21,79.02-.59,159.31,0,236.96.66,86.01,1.34,174.95-.46,262.33-1.68,73.94-2.37,149.12-3.04,221.83-1.34,145.98-2.73,296.93-12.22,444.87-.8,10.63-1.56,21.26-2.31,31.89-1.1,15.52-2.21,31.04-3.46,46.56-.22,2.7.69,5.37,2.51,7.38,1.82,2.01,4.38,3.18,7.09,3.23,4.91.1,9.8.14,14.7.14,83.32,0,168.46-13.94,253.32-41.51,51.69-18.52,101.25-38.04,139.33-72.91,1.94-1.78,3.09-4.26,3.18-6.89,1.23-34.08-.2-68.79-1.78-101.58-1.82-28.16-4.21-56.71-6.53-84.32-4.12-49.11-8.39-99.9-9.48-149.74-.65-85.53.8-162.4,4.42-235.02.4-8.17.84-16.34,1.28-24.52,1.77-32.99,3.61-67.09,2.53-100.86-.03-.99-.21-1.97-.54-2.91-.15-.43-.26-.95.28-1.7.59-.84,1.7-1.47,2.63-1.47,0,0,.21,0,.32,0,4.27,0,8.08-2.77,9.37-6.88.32-1.03,1.71-1.4,2.57-1.4,1.41,0,1.98.57,2.19,1.93,1.88,15.64,4.05,31.46,6.15,46.77,1.47,10.73,2.94,21.47,4.35,32.37,19.72,135.19,25.56,274.15,31.21,408.52,1.45,34.46,2.95,70.09,4.68,105.42.44,5.55.85,11.13,1.25,16.72.55,7.55,1.1,15.13,1.74,22.7.43,5.05,4.63,8.95,9.7,8.99ZM885.81,793.43c-57.68-1.26-104.35-46.8-111.03-108.71-7.26-47.59-5.78-92.24,4.41-132.81,4.46-18.8,10.52-18.8,12.51-18.8h.44c6.77.32,13.66.75,20.55,1.18,7.42.46,14.83.93,22.02,1.24,35.9,1.72,70.78,2.06,100.23,2.16,10.18-.04,21.27-.46,33.66-1.27,2.05-.08,4.21-.36,6.39-.65,2.02-.27,3.92-.53,5.48-.53,1.92,0,2.17.33,2.56.82.57.71.53,1.69.32,2.31-.51,1.52-.64,3.14-.38,4.73,8.46,51.01,26.05,157.07-15.64,214.24-18.67,22.3-48.49,36.14-77.91,36.14-1.17,0-2.34-.02-3.6-.06Z"/></g><g id="change1_2"><path fill="#244668" d="M185.09,1364.84c-.4,0-.79.02-1.19.07-9.37,1.15-19.69,1.7-31.56,1.7-8.43,0-16.91-.28-23.41-.53-3.06-.27-8.05-.51-14.29-.81-21.84-1.04-67.29-3.19-84.75-11.39-1.33-.62-2.75-.93-4.18-.93-1.87,0-3.73.53-5.35,1.58-2.85,1.85-4.54,5.04-4.47,8.43.36,17.97.81,35.95,1.28,53.91.28,10.56.67,21,1.18,31.04.14,2.69,1.44,5.19,3.48,6.95,1.79,1.54,4.12,2.37,6.47,2.37.33,0,.66-.01.99-.05.18,0,.35.03.52.09.49.18.99.31,1.5.4,25.68,4.72,51.03,7.12,75.36,7.12,6.56,0,13.15-.18,19.9-.54l3.71-.32c42.89-3.7,48.93-6.87,58.71-52.91,2.05-11.55,4-23.28,5.79-34.86.47-3.04-.51-6.12-2.65-8.33-1.86-1.92-4.41-2.98-7.05-2.98Z"/></g><g id="change1_3"><path fill="#244668" d="M664.8,966.27c2.01-127.22,4.09-258.77,3.43-388.22-.15-26.96-.38-53.91-.61-80.86-.43-50.68-.88-103.08-.77-154.66-.09-20.86.37-36.84,1.5-51.77.22-1.6.36-3.25.48-4.93.27-3.66-1.52-7.16-4.65-9.08-1.58-.97-3.36-1.46-5.14-1.46s-3.5.47-5.06,1.4c-15.62,9.38-31.05,19.56-45.98,29.4-23,15.17-46.78,30.85-71.31,43.63-11.82,6.08-24.98,12.3-33.04,12.3s-12.95-7.76-23.59-36.27c-16.13-40.52-28.25-84.63-37.07-134.9-2.51-14.01-5.21-30.56-6.25-47.12-.19-2.97-1.71-5.7-4.15-7.41-1.67-1.18-3.65-1.79-5.66-1.79-.91,0-1.83.13-2.72.38-36.63,10.57-66.07,19.71-92.69,28.8-46.95,16.4-95.74,35.91-134.57,67.37-4.05,3.28-4.83,9.16-1.78,13.38.3.41.45.84.47,1.32.03,1.14.27,2.26.69,3.32,25.38,64.08,45.62,134.7,63.69,222.19,10.49,52.35,17.1,108.6,19.65,167.18-.03.86-.25,2.14-2.43,2.14-2.39,0-2.45-1.61-2.48-2.67-5.42-126.02-32.95-255.19-81.83-383.93-.19-.51-.4-.89-.67-1.36-1.35-2.93-4.07-5.01-7.25-5.56-.55-.1-1.11-.14-1.66-.14-2.63,0-5.17,1.05-7.03,2.97-25.98,26.66-45.46,59.76-59.6,101.32-25.4,78.73-43.3,158.5-53.24,237.27-5.19,48.33-9.71,97.5-14.08,145.05-3.26,35.45-6.63,72.1-10.25,108.19-12.55,137.5-23.85,271.97-24.32,405.32-.14,28.51.06,58.82.64,92.67.05,3.11,1.58,6.01,4.11,7.82,1.69,1.21,3.69,1.83,5.71,1.83,1.01,0,2.03-.16,3.02-.48.31-.1.63-.15.91-.15.46,0,.69.14.77.18.66.39,1.37.7,2.1.92,3.55,1.08,7.45,2.11,12.55,3.28,13.43,2.7,26.64,4.05,39.25,5.23l11.18.79c17.78,1.28,36.17,2.6,54.44,2.6,14.96,0,28.29-.88,40.75-2.7,4.32-.63,7.7-4.03,8.3-8.35,5.88-41.8,10.54-84.41,15.06-125.62,4.64-42.39,9.44-86.22,15.57-129.18,5.66-43.67,12.62-87.97,19.36-130.81,9.21-58.61,18.74-119.22,25.11-179.36,1.6-15.12,3.09-30.28,4.56-45.43.13-.74.47-1.85,2.36-1.85.84,0,1.65.29,2.05.73.49.54.47,1.67.41,2.3-2.65,28.74-6.05,58.97-10.39,92.42-.48,3.71,1.18,7.36,4.29,9.44.19.13.35.28.41.36,1.05,1.52.47,4.47-.63,9.14-.83,3.53-1.76,7.51-1.72,11.79-5.49,133.07-4.1,264.02-2.05,397.55.07,9.83.04,19.66.02,29.49-.05,20.12-.11,40.93.68,61.51.51,12.88,1.13,25.75,1.75,38.62.77,15.98,1.54,31.97,2.1,47.95.1,2.74,1.33,5.31,3.41,7.1,15.11,12.99,33.95,25.69,56.23,37.86,80.68,41.46,175.62,63.58,298.79,69.6.16,0,.33.01.49.01,5.07,0,9.34-3.89,9.78-8.99,1.14-13.44,2.07-26.9,3.01-40.36.42-6.12.85-12.23,1.29-18.31,9.86-129.83,11.51-259.08,12.53-402.4.54-39.33,1.17-78.65,1.79-117.98Z"/></g><g id="change1_4"><path fill="#244668" d="M979.07,549.35c-.81-4.74-4.92-8.17-9.67-8.17-.18,0-.37,0-.55.01-16.79.93-34.09,1.38-52.89,1.38h0c-40.54,0-81.33-2.16-119.63-4.37-.19-.01-.38-.02-.57-.02-4.33,0-8.18,2.85-9.41,7.05-13.27,45.08-14.7,96.43-4.23,152.67,10.27,53.45,54.26,90.78,106.99,90.78,1.97,0,3.96-.05,6.34-.19,48.52-4.49,82.43-37.26,88.57-85.53,9.6-53.81,2.9-107.84-4.92-153.61Z"/></g><g id="change1_5"><path fill="#244668" d="M505.26,356.81c.88,0,1.78-.12,2.67-.37,17.38-4.9,32.71-14.1,47.54-23,4.01-2.4,7.99-4.79,12.26-7.24,15.82-9.77,31.61-20.06,46.88-30.01,13.08-8.52,26.6-17.32,40.01-25.72.62-.39,1.24-.89,1.76-1.41,2.23-2.23,3.26-5.4,2.76-8.52-.51-3.12-2.48-5.8-5.3-7.22-64.01-32.02-113.96-81.37-140.67-139.03-4.13-8.77-14.15-37.39-14.47-56.15-.07-4.29-2.92-8.03-7.03-9.25-.92-.27-1.86-.41-2.79-.41-3.21,0-6.29,1.58-8.15,4.34-14.52,21.56-26.06,46.89-35.3,77.44-.23.76-.36,1.54-.41,2.33-.1,1.95-.65,3.82-1.51,5.14-1.2,1.84-1.76,4.02-1.57,6.21,5.93,70.1,24.73,141.71,54.37,207.1,1.63,3.58,5.17,5.77,8.94,5.77Z"/></g><g id="change1_6"><path fill="#244668" d="M689,265.36c14.6,5.78,29.47,18.87,41.41,29.38l3.26,2.86c10.45,8.82,20.77,18.32,30.75,27.5,10.3,9.48,20.96,19.29,31.93,28.53,1.84,1.55,4.09,2.31,6.32,2.31,2.69,0,5.37-1.1,7.31-3.26,22.34-24.88,35.75-55.54,48.71-85.19l3.46-7.92c9.37-24.19,21.04-54.29,24.69-85.39,1.5-12.77,2.31-25.08,2.58-37.03,1.9-3.25,1.78-7.3-.31-10.42-5.25-7.85-10.34-15.83-15.42-23.81-10.91-17.11-22.19-34.81-35.03-51.02-.55-.73-1.13-1.44-1.85-2.33-1.9-2.36-4.73-3.66-7.65-3.66-1.06,0-2.13.17-3.17.53-3.91,1.33-6.56,4.97-6.65,9.09-1.15,56.38-58.19,122.17-92.16,156.44-12.26,12.62-25.83,24.84-40.33,36.33-1.97,1.43-3.4,3.58-3.89,6.11-.88,4.63,1.65,9.23,6.03,10.97Z"/></g><g id="change1_7"><path fill="#244668" d="M1337.19,1354.38c-1.79-1.54-4.07-2.37-6.4-2.37-.52,0-1.05.04-1.57.13-66.78,10.83-127.1,19.8-189.1,19.88-2.81,0-5.48,1.21-7.34,3.32-1.86,2.1-2.73,4.9-2.39,7.69,2.98,24.43,7.28,44.15,13.58,62.19,1.9,5.2,6.1,8.86,11.87,10.37,9.19,2.99,18.44,4.98,27.2,6.77,19.03,3.75,38.23,6.46,57.02,8.05,5.91.53,11.89.8,17.76.8,22.02,0,51.81-3.77,68.66-21.75,8.95-9.55,13.08-21.72,12.29-36.18,1.06-16.43,1.66-33.23,1.84-51.34.03-2.9-1.22-5.66-3.42-7.54Z"/></g><g id="change2_1"><path fill="#17334f" d="M378.25,1515.61c-6.33-1.34-11.1-8.09-9.44-14.56,2.4-9.4,3.91-19.03,5.5-28.6,10.44-66.25,18.96-131.63,22.96-198.44,10.76-151.09,8.5-302.68,3.13-453.92-4.57-133.4-15.81-267.46-47.96-397.33-19.97-78.62-44.97-156.45-76.87-231.03.26.44.5.89.76,1.31.04.04.08.07.12.11-7.36-9.64,4.83-24.04,15.71-17.8,5.52,3.2,7.9,10.15,10.3,15.77,8.11,18.82,14.81,38.2,21.69,57.48,19.8,54.45,37.9,109.49,51.48,165.86,34.37,136.97,45.36,278.64,49.86,419.4,3.5,114.65,6.15,229.47,1.44,344.13-3.24,83.24-8.56,166.52-21.13,248.92-3.62,24.9-6.68,49.96-11.87,74.6-.75,8.01-6.89,16.22-15.67,14.1Z"/></g><g id="change2_2"><path fill="#17334f" d="M495.66,1542.5c-6.56-.48-12.01-6.48-11.35-13.16,4.51-45.63,10.32-91.14,16.17-136.61,6.4-51.07,11.71-102.3,16.57-153.55,15.97-182.82,27.77-366.12,30-549.67-1.98-112.05,4.92-225.2-8.67-336.6-2.41-8.13,1.15-18.55,10.8-18.95,7.04-.57,13.77,5.89,13.12,12.87,7.41,51.51,8.7,103.62,8.59,155.59,3.24,213.47-3.26,427.03-21.44,639.78-7.32,104.99-18.57,209.65-32.26,313.99-2.97,24.97-5.91,49.92-8.38,74.95-.63,6.67-6.45,11.86-13.14,11.33Z"/></g><g id="change2_3"><path fill="#17334f" d="M759.93,1542.86c-4.14-3.71-5.09-8.28-4.03-12.82.4-6.07.2-12.17.14-16.56-9.53-160.22-13.91-320.58-12.05-481.12.84-106.67-5.29-213.44,2.51-319.98,9.39-117.7,16.43-235.96,32.91-352.91,3.16-15.11,26.55-12.22,24.15,4.39-3.2,16.07-4.76,32.47-6.45,47.52-10.84,103.83-19.39,207.91-26.69,312.06-5.29,79.55-3.32,159.26-2.01,238.91.31,109.77-.4,219.54,1.71,329.31,1.08,52.68,4.45,105.31,7.49,157.91,1.34,25.28,3.02,50.6,3.03,75.93-.02,4.3.19,9.22-1.74,13.16-3.46,7.09-12.97,9.36-18.97,4.2Z"/></g><g id="change2_4"><path fill="#17334f" d="M901.39,1505.94c-16.28-104.22-19.25-209.79-18.87-315.11,1.1-116.77,2.02-233.59,7.98-350.22,6.03-114.46,9.69-229.26,24.05-343.05,10.38-85.08,28.54-168.96,51.59-251.47,6.28-22.59,12.56-45.25,20.44-67.34,2.38-4.75,1.75-10.68,6-14.36,2.49-2.32,5.56-3.2,8.9-3.26,15.1,1.73,13.19,15.87,8.04,26.35-5.54,15.51-10.26,31.33-14.69,47.18-23.34,82.04-42.84,165.39-53.89,250.03-13.17,98.74-18.03,197.02-22.88,296.29-8.96,168.4-12.56,337.17-10.05,505.78,1.33,55.05,3.96,110.12,10.88,164.8,2.09,17.43,4.58,34.79,6.96,52.19.9,6.62-4.7,12.74-11.14,13.31-6.73.59-12.45-4.44-13.31-11.12Z"/></g><g id="change3_1"><path fill="#0a253a" d="M885.59,803.24c1.28.04,2.55.06,3.82.06,32.3,0,65.02-15.09,85.65-39.91,41.92-57.13,28.56-155.75,17.59-221.9,1.28-3.84.69-8.27-1.98-11.58-5.6-7.25-14.84-3.61-22.48-3.3-11.09.73-22.19,1.23-33.29,1.27-33.26-.12-66.53-.56-99.73-2.15-13.9-.61-28.52-1.76-42.58-2.42-14.54-.65-20.16,14.54-22.96,26.33-11.2,44.57-11.47,91.27-4.56,136.55,6.87,63.75,54.64,115.61,120.52,117.05ZM795.74,548.01c57.77,3.34,115.86,6.19,173.64,2.99,8.48,49.58,13.85,100.57,4.89,150.48-5.49,43.92-35.63,73.15-79.76,77.23-51.03,2.72-93.27-33.12-102.78-82.66-9.07-48.75-10.09-100.15,4.01-148.04Z"/></g><g id="change3_2"><path fill="#0a253a" d="M158.77,1474.95c19.1-2.7,31.05-13.5,36.82-31.72,21.86-75.7,23.51-155.85,34.48-233.58,6.85-67.26,16.72-134.1,26.93-200.9-1.04,64.52-1.21,129.07.42,193.55,1.36,53.07.08,106.17,1.82,159.22.96,24.61,2.45,49.17,3.39,73.78-.06,1.59-.06,3.26.02,4.93-1.48,4.18-.92,9.03,2.63,12.39,25.51,23.28,55.45,41.46,86.77,55.75,96.64,44,203.76,58.82,309.12,61.53,4.7.08,9.36.13,14.06.13,93.44,0,186.36-16.9,274.74-47.98,45.61-17.66,93.42-37.26,129.28-71.38l.02-.02c1.88-1.05,3.45-2.61,4.55-4.49.33-.31.63-.61.94-.94,3.87-4.49,3.66-9.59,1.32-13.54.67-17.99.25-36.06-.15-54.05-.92-48.79-5.68-97.39-9.74-145.99-11.14-114.63-9.17-230.82-4.72-346.02,1.15-24.32,2.63-48.62,3.7-72.94,1.65,12.49,3.26,24.99,4.79,37.49,12.75,93.06,17.51,186.8,21.54,280.59,5.73,87.51,4.6,175.56,15.63,262.63,5.25,24.17,5.2,68.03,33.74,76,26.89,8.29,54.99,12.45,82.95,15.23,40.1,4.28,92.4.06,114-39.22,5.14-11.83,5.02-25.2,6.04-37.9,5.45-94.61-4.7-189.08-15.36-282.98-11.62-115.57-27.41-230.55-43.78-345.52-13.69-116.7-36.54-231.97-60.51-346.92-30.49-150.19-48.18-195.6-192.27-261.25-26.03-12.04-52.36-23.42-78.52-35.17-13.19-5.93-26.33-12.1-39.83-17.28-8.92-2.97-18.18-8.32-27.77-8.17-14.94-22.77-28.84-46.24-45.76-67.61C823.32,5.82,793.03,2.02,750.47.68c-51.86-1.17-103.89-1.04-155.67,2.09-32.66,2.61-65.69,7.84-96.47,19.43-22.96,7.58-35.63,28.77-45.53,49.44-7.08,14.56-13.62,29.48-18.6,44.92-8.09,1.4-17.32,5.98-24.22,7.12-50.92,14.96-101.78,30.72-150.15,52.76-120.94,50.52-156.04,143.76-183.27,263.13-29.31,109.76-34.66,223.43-45.86,335.95C14.34,947.32-1.91,1119.57.18,1292.31c.33,42.56,1.13,85.06,2.36,127.58.31,11.99.77,23.97,1.74,35.92-.06,5.35,3.82,10.28,8.98,11.64,2.24.63,4.47.56,6.64-.1,2.8,3.16,7.29,5.1,11.81,5.33,12.96,2.19,25.97,3.99,39.07,5.16,29.27,2.42,59.09,2.97,87.99-2.9ZM1240.93,1460.62c-18.8-1.59-37.49-4.26-56-7.9-8.8-1.8-17.72-3.74-26.37-6.58-2.42-.58-4.49-1.88-5.37-4.3-6.77-19.39-10.57-39.58-13.06-60.01,64-.08,127.87-9.82,190.66-20-.17,17.16-.75,34.31-1.86,51.42,2.99,46.03-53.83,50.44-87.99,47.37ZM692.65,256.22c14.63-11.56,28.58-24.03,41.58-37.42,36.77-37.09,93.73-103.91,94.93-163.08.56.69,1.13,1.4,1.69,2.13,18.55,23.42,33.49,49.52,50.09,74.34-.92,1.57-1.48,3.39-1.5,5.31-.12,11.87-.98,23.76-2.36,35.54-3.38,28.81-13.67,56.12-24.09,82.99-13.81,31.38-27.2,64.34-50.33,90.1-21.44-18.05-41.27-37.95-62.68-56.02-13.27-11.62-29.86-26.93-47.39-33.87.02,0,.02-.02.04-.02ZM666.64,1466.89c14.25-222.09,10.22-444.81,15.29-667.21,3.43-166.45-2.09-332.92.46-499.36.36-7,1.25-13.87,2.24-20.77,16.84,6.33,30.25,22.88,44.23,33.39,22.63,18.24,41.75,41.31,66.15,57.11,39.6,18.68,93.99-135,101.13-165.11,5.39-21.58,7.42-43.9,7.84-66.11,0-.54-.02-1.07-.1-1.59,51.03,20,100.71,43.55,150.42,66.63,18.33,9.46,37.36,19.41,55.16,31.18-2.4,2.95-3.36,6.96-2.42,10.74-2.69,9.59-5.79,19.08-8.55,28.65-10.53,36.94-16.17,75.07-22.17,112.94-8.19,52.76-14.46,106.02-14.5,159.47-.29,25.45-.54,50.94-.19,76.41.08,6.69,5.41,12.31,12.2,12.37,6.58.04,12.45-5.52,12.35-12.2-.29-21.61-.04-43.23.1-64.84-.35-52.55,4.76-104.87,12.7-156.77,4.55-30.38,9.28-60.72,15.63-90.79,3.91-20.46,11.55-40.08,16.26-60.26,6.06,4.97,11.83,10.28,17.24,15.98,31.26,37.23,43.48,85.88,54.1,132.31,12.16,57.21,23.65,114.61,34.89,172.03,18.53,90.49,29.29,182.89,41.96,274.37,20.9,144.49,37.88,289.71,49.6,435.22,1.11,19.12,1.84,38.32,2.07,57.54-8.5-2.63-18.6,1.99-27.23,3.01-41.08,7.48-82.72,11.79-124.36,14.83-13.81.79-27.67,1.32-41.5,1.21-1.11-13.16-1.96-26.33-2.99-39.37-8.38-171.75-11.1-344.16-35.96-514.59-3.39-26.31-7.31-52.57-10.47-78.9-2.15-14.08-20.41-13.35-23.88-2.3-7.84-.25-15.5,7.58-12.5,16.21,1.32,41.54-1.78,83.1-3.8,124.59-3.91,78.46-5.03,157.04-4.43,235.57,1.73,78.42,10.99,156.4,16.03,234.61,1.61,33.5,2.97,67.07,1.76,100.59-37.9,34.69-88.22,53.78-136.02,70.9-85.48,27.77-174.24,42.56-264.51,40.79,2.11-26.16,3.8-52.34,5.77-78.5ZM454.83,133.11c7.92-26.2,18.72-52.03,34.04-74.8.35,20.56,10.97,50.75,15.4,60.16,29.38,63.42,83.16,112.62,145.16,143.63t-.04.04c-29.15,18.26-57.59,37.63-86.84,55.7-18.35,10.49-36.63,23.32-57.31,29.15-28.94-63.85-47.6-133.83-53.53-203.87,1.82-2.78,2.92-6.31,3.11-10.01ZM24.64,1247.11c.48-135.13,12.01-269.96,24.28-404.48,8.48-84.31,15.27-168.81,24.32-253.08,10.07-79.8,28.14-158.78,52.82-235.3,14.17-41.66,33.28-72.84,57.29-97.49.12.25.27.5.4.73,46.24,121.79,75.58,250.19,81.2,380.87.54,16.26,24.32,15.92,24.55,0-2.45-56.73-8.69-113.31-19.85-169-15.71-76.06-35.56-151.59-64.19-223.87-.08-2.51-.92-4.83-2.32-6.77,35.27-28.58,79.19-47.41,131.62-65.73,30.46-10.39,61.26-19.72,92.17-28.63,1.02,16.21,3.53,32.28,6.39,48.23,8.19,46.68,20.06,92.71,37.61,136.8,17.28,46.3,24.38,52.68,70.25,29.08,41.04-21.38,78.29-49.58,117.85-73.34-.11,1.57-.25,3.11-.46,4.6-1.34,17.59-1.63,35.23-1.55,52.86-.17,78.52.94,157.02,1.38,235.53.86,168.68-2.88,337.35-5.22,506.01-.96,133.98-2.36,268.14-12.5,401.8-1.42,19.52-2.65,39.09-4.3,58.59-101.24-4.95-203.91-21.83-294.78-68.53-18.35-10.03-37.88-22.44-54.31-36.57-1.02-28.86-2.7-57.73-3.86-86.61-1.15-30.23-.48-60.45-.69-90.68-2.03-132.41-3.41-264.99,2.05-397.35-.19-8.92,6.21-18.57.59-26.66-.84-1.19-1.88-2.17-3.03-2.93,4.01-30.86,7.58-61.77,10.43-92.79.84-9.01-5.7-13.75-12.24-13.75-5.52,0-11.05,3.39-12.1,10.43-1.48,15.21-2.97,30.44-4.58,45.63-10.99,103.83-31.03,206.42-44.44,309.95-12.08,84.64-18.7,170.04-30.61,254.69-34.54,5.04-69.66,1.61-104.28-.77-11.68-1.09-24.91-2.44-37.99-5.06-3.89-.9-7.79-1.88-11.62-3.05-3.01-1.76-6.52-1.92-9.67-.9-.52-30.82-.79-61.64-.63-92.46ZM29.3,1447.37c-.38,0-.75.02-1.13.06-.52-10.26-.9-20.52-1.17-30.8-.48-17.95-.92-35.9-1.28-53.85,24.09,11.32,88.03,11.78,102.59,13.12,18.91.73,37.97,1.07,56.79-1.23-1.78,11.56-3.7,23.11-5.75,34.64-9.05,42.58-11.16,41.46-53.6,45.17-30.92,1.67-62.18-.84-92.63-6.44-1.25-.44-2.53-.65-3.8-.65Z"/></g></g></g></svg>