<?xml version="1.0" encoding="UTF-8" standalone="no"?><svg xmlns="http://www.w3.org/2000/svg" xmlns:xlink="http://www.w3.org/1999/xlink" contentScriptType="text/ecmascript" fill="#000000" width="659" zoomAndPan="magnify" contentStyleType="text/css" viewBox="-21.7 -5.9 658.7 592.5" height="592" preserveAspectRatio="xMidYMid meet" version="1"><g data-name="Layer_1"><g><g id="change1_1"><path fill="#fff4d4" d="M507.55,78.12c-1.67,0-3.37.04-5.28.15-22.28,2.11-41.21,6.47-57.87,13.32-.57.12-1.08.19-1.51.19-1.33,0-2.03-1.1-2.91-7.92-.25-1.94-.51-3.95-.98-5.78-.03-.13-.07-.26-.12-.38-15.94-46.33-86.97-67.43-146.23-67.43-9.08,0-17.51.53-25.17,1.59-38.79,6.35-70.98,35.13-98.42,87.98-.07.14-.14.28-.2.42-1.55,3.79-3.19,6.05-4.38,6.05-1.52,0-4.3-1.55-8.27-4.61-.27-.21-.57-.39-.88-.54-7.12-3.46-15.49-5.22-24.89-5.22-3.9,0-8.05.3-12.32.91-.09.01-.19.03-.28.05-52.88,10.47-100.13,60.15-107.59,113.28-5.99,57.11,30.5,104.86,85.12,111.09,1.92.12,3.88.18,5.82.18,33.71,0,64.7-18.75,88.11-35.22,1.68-1.29,3.49-2.5,5.4-3.77,3.12-2.07,6.34-4.22,9.21-6.93,1.31-1.23,1.87-3.06,1.48-4.82s-1.67-3.18-3.38-3.74c-9.54-3.16-18.35-7.45-26.19-12.73-.61-.41-1.3-.68-2.02-.8-.94-.16-1.41-1.25-1.53-1.88-.07-.35-.24-1.55.58-2.07.83-.52,1.41-.59,1.82-.59,1.96,0,4.68,1.83,7.31,3.61,2.14,1.45,4.36,2.94,6.69,3.89,10.96,4.79,25.97,11.36,40.69,11.36,5.79,0,11.23-1.02,16.16-3.04.36-.15.7-.34,1.02-.56,1.05-.75,2.12-1.14,3.08-1.14,1.42,0,2.44.86,2.7,1.7.35,1.11-.78,2.18-1.61,2.79-5.98,3.28-12.86,4.94-20.46,4.94-3.65,0-7.41-.37-11.19-1.11-.33-.06-.65-.09-.98-.09-1.57,0-3.07.73-4.05,2-1.18,1.54-1.39,3.61-.53,5.35,15.06,30.76,46.33,63.68,88.66,63.83,2.44.13,4.91.2,7.35.2,42.15,0,80.39-18.8,102.31-50.27,1.04-1.49,1.21-3.42.44-5.07-.77-1.65-2.35-2.77-4.16-2.93-8.33-.77-14.31-2.77-18.26-6.1-.23-.49-.21-1-.16-1.29.1-.65.45-1.25,1.05-1.69.43-.33.65-.33.82-.33.91,0,2.48.71,3.86,1.34.66.3,1.31.59,2.08.91,4.89,1.85,10.18,2.75,16.15,2.75,10.13,0,20.42-2.67,29.5-5.03,2.31-.6,4.56-1.18,6.74-1.7.18-.04.36-.1.53-.16l1.34-.49c2.3-.85,4.91-1.81,6.71-1.81.79,0,1.23,0,1.76,1.34.5,1.34-.39,2.62-1.3,2.99-8.52,2.96-16.9,5.31-24.92,6.96-2.04.42-3.62,2.04-3.99,4.09-.37,2.05.54,4.12,2.31,5.23,24.46,15.37,50.95,23.5,76.6,23.5,9.57,0,18.99-1.16,28.04-3.45,53.17-13.89,81.33-52.02,81.44-110.49-2.4-59.3-47.51-122.8-110.83-122.8Z"/></g><g id="change1_2"><path fill="#fff4d4" d="M518.89,502.1c-1.97-4.07-4.43-9.13-9.06-12.39-.88-.62-1.91-.94-2.94-.94-.72,0-1.45.15-2.13.47-.52.24-1.12.39-1.72.42-.2.01-.39.03-.59.07-6.9,1.2-13.93,2.56-20.74,3.87-21.93,4.23-44.61,8.61-66.77,8.61-2.91,0-5.9-.08-8.89-.24-.59-.27-1.32-.86-1.1-2.28.01-.09.35-2.16,2.01-2.16.26,0,.56.04.88.13.45.12.91.19,1.38.19h.05c24.87-.26,49.65-4.76,73.61-9.11l5.56-1.01c2.21-.23,4.57-.82,7.06-1.44l1.14-.28c2.51-.62,4.17-3.02,3.84-5.59l-.07-.53c-3.27-23.34-3.09-47.46-2.92-70.8l.04-6.63c-.25-20.98-1.49-40.82-2.8-61.82l-.55-8.91c-.08-1.18.64-2.51,1.98-2.69,2.57-.34,4.47-2.55,4.43-5.14-.04-2.59-2.02-4.74-4.59-5-24.64-2.48-49.49-11.92-71.86-27.31-.86-.59-1.87-.9-2.89-.9-.33,0-.66.03-.99.1-1.35.26-2.53,1.06-3.29,2.21-22.26,34-62.49,54.3-107.6,54.3-2.41,0-4.76-.06-7.4-.18-43.15-.23-75.36-32.86-91.11-63.32-.69-1.33-1.92-2.29-3.38-2.63-.38-.09-.77-.13-1.16-.13-1.08,0-2.15.34-3.03,1-15.25,11.26-35.53,25.33-57.09,34.37-2.46,1.03-3.71,3.78-2.88,6.31.7,2.13.55,5.45.42,8.38-.04.93-.08,1.82-.09,2.55-.42,10.69-1.29,21.92-2.71,35.2-1.61,12.21-2.88,24.65-4.1,36.67-1.79,17.55-3.64,35.71-6.57,53.27-.24,1.46.16,2.95,1.09,4.09.94,1.14,2.32,1.82,3.8,1.86.78.02,1.6.43,2.07,1.04.39.5.5,1.05.35,1.74-.46,2.13.48,4.32,2.34,5.45,42.14,25.59,92.19,29.12,140,29.12,8.73,0,17.43-.11,26.03-.22l2.95-.04c16.99-.66,34.61-1.59,52.56-2.77,1.12,0,2.38.75,2.52,2.1.06.6-.18,1.28-.63,1.81-.22.26-.69.71-1.36.75-29.39,2.09-53.83,3.06-76.92,3.06-6.56,0-13.11-.08-19.49-.25-22.24-.39-48.01-1.31-72.19-7.42l-1.21-.34c-51.25-14.21-59.59-24.57-60.8-28.36-.47-1.48-1.59-2.66-3.04-3.22-.59-.22-1.21-.34-1.82-.34-.9,0-1.8.24-2.59.71-.71.41-1.37.86-2.16,1.49-3.21,2.73-6.79,7.34-8.63,11.07-.31.58-.61,1.15-.91,1.73-.06.12-.12.24-.17.37-10.57,25.16-11.58,44.39-3.08,58.8,14.45,24.49,52.91,28.6,90.1,32.58l3.37.36c25.13,1.93,51.42,2.91,78.14,2.91,29.82,0,61.1-1.22,92.96-3.63.2-.01.4-.04.59-.08,6.66-1.3,17.34-2.22,29.71-3.28,41.84-3.6,99.14-8.53,114.98-35.18,5.48-9.22,5.55-20.07.22-32.27-.03-.06-.11-.24-.14-.3Z"/></g><g id="change2_1"><path fill="#0a253a" d="M217.29,274.69c15.74,33.3,46.5,62.49,85.14,62.63,40.85,2.17,82.6-14.54,105.93-48.95,5.74-11.22,11.3-12.05,21.29-4.87,30.61,20.96,69.32,32.26,106.01,22.96,53-13.84,77.53-51.76,77.63-105.35-2.37-58.3-47.63-121.1-110.53-117.77-19.31,1.82-38.83,5.67-56.79,13.12-11.72,2.89-10.09-10.05-11.92-17.12-18.5-53.78-116.19-69.32-165.74-62.45-45.39,7.43-74.86,47.04-94.71,85.3-5.16,12.65-11.18,10.73-20.49,3.55-10.54-5.12-22.84-5.45-34.27-3.84-50.96,10.09-96.28,57.45-103.5,108.8-5.47,52.13,27.17,99.39,80.37,105.46,33.25,2.13,64.3-15.57,90.48-33.98,6.13-4.74,13.62-8.17,17.89-14.71,1.48-1.48,3.34-2.14,5.2-2.14,4.74,0,9.49,4.15,8.02,9.35ZM301.94,352.23c-42.17-.23-76.97-30.02-95.62-66.08-37.28,27.5-84.07,56.32-131.7,40.72C.37,305.18-21.68,211.37,23.05,152.19c27.79-42.21,87.72-82.95,138.38-58.83C192.62,33.4,235.51-5.92,306.8.73c49.92,3.01,129.1,22.84,142.49,78.45,34.7-11.2,73.98-17.58,106.9,1.73,52.25,26.69,80.83,93.1,69.11,149.85-7.69,48.25-41.61,79.51-88.21,90.67-40.14,9.47-82.42-2.64-115.84-25.64-24.43,37.32-68.08,56.61-111.87,56.61-2.48,0-4.95-.06-7.43-.17Z"/></g><g id="change2_2"><path fill="#0a253a" d="M116.32,484.97c.14-.21.25-.45.37-.68.02-.04.04-.08.06-.12-.14.27-.29.52-.43.8ZM270.13,586.47c-33.21.06-66.43-1.57-99.31-6.54-32.08-3.96-74.8-15.93-76.78-54.63-.58-23.89,4.89-54.03,26.72-67.21,5.34-45.74,11.96-92.03,13.6-137.76,1.11-2.66,4.17-4.68,7.08-4.42,9.16.7,7.43,11.39,7.3,17.93-.47,11.94-1.47,23.79-2.76,35.67-4.21,31.98-5.96,64.43-11.74,96.11-1.48,4.19-6.09,4.83-9.2,7.3-2.85,2.43-5.96,6.6-7.43,9.59-.29.56-.58,1.11-.87,1.67-30.94,73.61,29.99,78.64,86.07,84.68,56.55,4.35,113.85,3.55,170.32-.72,35.07-6.85,167.88-2.7,141.21-63.68-1.92-3.94-4-8.27-7.76-10.77-2.91-.83-5.84-.95-8.05-3.3-2.43-2.58-2.76-6.42-3.18-9.78-3.63-25.87-3.09-51.99-2.93-78.08-.27-23.85-1.88-46.75-3.34-70.45-.27-4.04,2.56-7.74,6.7-8.13,3.94-.37,7.88,2.66,8.13,6.72,5.05,49.37.68,99.21,6.27,148.47,12.48,4.39,18.15,18.24,21.6,30,6.02,20.96-8.42,41.82-27.03,50.56-29.03,14.11-62.09,15.29-93.6,19.29-42.76,5.57-85.67,7.55-128.46,7.55-4.19,0-8.36-.02-12.56-.06Z"/></g><g id="change2_3"><path fill="#0a253a" d="M216.06,275.92c-15.31-3.01-30.14-8.71-43.1-17.45-6.07-1.01-8.11-9.96-2.81-13.31,7.43-4.66,14.01,3.86,20.57,6.56,15.99,6.99,35.73,15.27,52.87,8.27,9.72-6.89,19.7,4.99,9.86,11.84-7.2,4.02-15.16,5.73-23.19,5.73-4.74,0-9.51-.58-14.19-1.63Z"/></g><g id="change2_4"><path fill="#0a253a" d="M413.65,289.84c-.1,0-.17,0-.27.02.1-.02.17-.02.27-.02Z"/></g><g id="change2_5"><path fill="#0a253a" d="M414.24,289.8h.1c-.23.02-.47.02-.68.04.19-.02.39-.02.58-.04Z"/></g><g id="change2_6"><path fill="#0a253a" d="M385.93,281.62c-2.45-3.26-1.57-8.07,1.67-10.4,3.96-3.05,7.92-.35,11.68,1.18,15.8,5.98,34.29-.54,49.39-4.17,5.65-2.02,13.28-5.53,16.32,2.08,1.44,3.88-.64,8.07-4.41,9.59-14.63,5.08-31.01,9.12-46.35,9.92-9.63-.29-20.98-1.53-28.32-8.19Z"/></g><g id="change2_7"><path fill="#0a253a" d="M129.46,462.41c.1-.12.17-.23.27-.33-.1.1-.19.21-.27.33ZM265.49,511.61c-24.61-.43-49.51-1.55-73.48-7.61-12.79-3.57-83.07-22.32-62.01-42.21,4.95-5.14,14.15-.48,12.58,6.79,49.63,30.14,110,28.84,166.13,28.12,17.41-.68,34.82-1.61,52.23-2.76,4.04-.27,7.72,2.58,8.13,6.72.37,3.94-2.66,7.86-6.71,8.13-25.7,1.82-51.49,3.07-77.28,3.07-6.52,0-13.04-.08-19.58-.25Z"/></g><g id="change2_8"><path fill="#0a253a" d="M405.02,507.02c-9.26-2.87-5.16-16.9,4.19-14.28,26.39-.27,52.6-5.4,78.52-10.07,7.69-.7,21.56-7.96,23.72,3.73.52,4.85-3.69,8.13-8.13,8.37-29.07,5.07-58.75,12.56-88.38,12.56-3.3,0-6.62-.1-9.92-.29Z"/></g></g></g></svg>