<?xml version="1.0" encoding="UTF-8" standalone="no"?><svg xmlns="http://www.w3.org/2000/svg" xmlns:xlink="http://www.w3.org/1999/xlink" contentScriptType="text/ecmascript" fill="#000000" width="710" zoomAndPan="magnify" contentStyleType="text/css" viewBox="-13.1 -1.0 709.5 1247.3" height="1247" preserveAspectRatio="xMidYMid meet" version="1"><g data-name="Layer_1"><g><g fill="#244668" id="change1_1"><path d="M348.57,741.56c1.31-12.43,2.52-24.89,3.72-37.36,4.74-49.11,9.65-99.9,21.52-148.18.66-2.71.15-5.57-1.42-7.88-3.49-5.12-7.76-10.22-12.95-15.42-57.53-53.56-117.39-102.27-177.94-144.79-5.47-3.83-10.97-7.64-16.49-11.45l-10.09-6.98c-1.67-1.16-3.62-1.75-5.6-1.75-1.1,0-2.2.18-3.26.56-2.98,1.05-5.27,3.46-6.16,6.49-.45,1.52-.85,3.05-1.07,4.12-3.7,13.67-7.85,27.52-11.86,40.92-1.55,5.17-3.1,10.34-4.62,15.51-7.03,23.73-14.14,48.7-21.12,74.11-31.76,110.01-53.32,228.89-64.08,353.31-2.56,28.79-5.93,58.06-9.2,86.37-5.43,47.07-11.05,95.74-13.12,144.05-.18,4.24,2.38,8.12,6.35,9.61,10.81,4.07,21.93,5.64,32.68,7.16,3.87.55,7.74,1.09,11.61,1.77,12.18,2.07,24.34,4.27,36.5,6.47,27.97,5.06,56.89,10.29,85.55,13.84,37.56,5.4,74.37,10.24,111.64,10.24,27.2,0,51.41-2.61,74.03-7.99,5.27-1.25,8.53-6.54,7.29-11.81-35.61-150.58-45.76-271.55-31.92-380.9Z"/><path d="M581.17,41.42c-13.56-7.77-28.5-13.88-44.4-18.18-2.08-.72-4.38-1.29-7.38-1.81-.56-.1-1.12-.15-1.68-.15-2.1,0-4.16.67-5.86,1.94-.53.39-1.19.61-1.87.61-.39,0-.78-.07-1.16-.21-.75-.28-1.53-.47-2.33-.56-21.91-2.54-44.23-4.22-65.82-5.84l-6.41-.48c-23.42-1.33-47.7-2-72.17-2-28.47,0-58.21.91-88.52,2.72l-5.28.38c-42.36,3.03-86.16,6.16-127.47,21.73-58.66,24.37-98.7,68.33-109.86,120.59-11.14,52.16,6.53,106.13,50.03,152.23,24.18,23.72,52.12,43.01,79.14,61.67,4.91,3.39,9.82,6.78,14.75,10.23,56.1,38.8,108.5,83.13,152.32,121.33l3.63,3.2c17.5,15.4,35.59,31.33,44.14,52.4,4.37,10.49,5.22,19.86,3.5,22.51-.29.44-1.24.62-2.01.7-.73-.14-1.1-.3-1.21-.35-1.36-.66-2.82-.99-4.29-.99s-3.04.35-4.44,1.06c-2.74,1.39-4.67,3.97-5.22,6.99-1.21,6.62-2.33,13.39-3.43,20.7-.48,3.22.66,6.47,3.06,8.68,1.83,1.69,4.21,2.6,6.65,2.6.75,0,1.5-.09,2.25-.26.77-.18,1.51-.36,2.6-.67,39.66-12.4,73.45-35.08,110.75-61.54,20.17-15.8,40.37-33.76,51.59-58.36,14.55-36.13,12.56-75.66-5.34-105.76-15.83-26.53-36.97-49.14-57.41-70.99-4.41-4.71-8.81-9.42-13.21-14.22-34.05-36.43-67.81-71.93-106.28-105.58-19.3-17.47-37.98-36.18-56.05-54.28-17.08-17.11-34.74-34.8-52.95-51.48-3.87-3.6-7.72-7.24-11.56-10.87-9.39-8.89-19.1-18.08-29.33-26.7-.27-.23-.46-.7-.5-1.26-.05-.67.11-1.35.42-1.81.63-.56,1.19-.91,1.49-.91,2.67,0,8.7,5.9,11.93,9.07,2.16,2.11,4.2,4.11,6.31,5.85,8.06,7.53,16.11,15.08,24.2,22.7,18.27,16.85,36.22,34.74,53.59,52.05,19.27,19.21,39.2,39.07,59.8,57.75,1.81,1.64,4.23,2.47,6.66,2.47,1.64,0,3.28-.37,4.74-1.12,1.43-.37,2.76-1.07,3.89-2.03,5.39-4.61,10.42-9.5,14.63-13.65,24.56-23.65,44.63-50.45,64.94-78.43,7.55-10.33,15.35-21,22.65-31.61.89-1.24,1.52-1.24,1.79-1.24.99,0,2.21.75,2.71,1.67.17.32.5.91-.18,1.97l-7.36,10.36c-25.13,35.39-51.11,71.98-82.64,102.23-2.25,1.93-4.37,4.11-6.42,6.22-2.07,2.12-4.02,4.12-5.98,5.78-2.15,1.82-3.41,4.46-3.47,7.27-.06,2.81,1.08,5.51,3.14,7.42,29.91,27.72,58.39,58.15,85.93,87.58l13.45,14.35c2.48,2.75,4.99,5.51,7.52,8.29,18.81,20.66,38.25,42.03,50.56,66.09,1.43,2.8,4.11,4.74,7.21,5.23.51.08,1.03.12,1.54.12,2.58,0,5.08-1.02,6.93-2.87,12.67-12.63,25.34-27.14,40.09-45.92l3.15-4.29c31.31-42.55,74.2-100.83,75.79-153.16,0-.2,0-.4,0-.59-2.1-69.92-52.82-126.58-99.97-156.53Z"/></g><g id="change2_1"><path fill="#f2bc57" d="M226.24,1061.08c-21.17-30.55-41.11-61.98-62.61-92.32-18.83,26.79-37.45,53.72-56.78,80.16-4.4,6.94-12.09,13.87-20.79,9.99-17.73-13.08-31.83-31.22-47.71-46.61-4.68-4.95-9.24-9.99-13.98-14.9-5.62-4.67-12.13-12.24-8.04-19.54,3.64-7.97,15.45-9.79,20.79-2.39,17.91,18.03,34.87,37.07,53.07,54.87,17.09-24.13,33.51-47.21,50.35-71.31,6.76-7.69,10.4-20.69,21.48-22.8,6.58-.86,11.73,3.87,15,9.03,7.38,10.39,14.65,20.87,21.88,31.38,12.59,18.28,24.75,36.84,37.08,55.29,10.91-24.61,21.27-49.57,34.74-72.93,9.27-17.71,26.7-4.68,36.06,5.29,13.6,12.66,26.18,26.35,38.76,40.01,7.44,8.07,15.27,16.11,21.75,24.99,9.13,13.23-10.09,27.24-19.89,14.4-7.67-10.07-16.64-19.11-25.16-28.44-11.34-12.17-22.66-24.38-34.96-35.58-11.2,21.01-20.28,43.04-29.98,64.77-5.54,13-16.21,32.13-31.07,16.65Z"/></g><g id="change2_2"><path fill="#f2bc57" d="M328.28,822.78c-54.68-16.4-112.72-19.84-169.57-19.12-35.72,1.47-72.62.35-106.19,14.38-15.27,7.49-25.99-15.84-10.12-22.43,24.32-9.88,50.24-14.24,76.41-14.94,38.85-1.91,77.91-2.72,116.7.52,24.54,2.47,48.95,6.25,73.17,10.97,12.32,3.75,38.97,3.88,34.96,22.54-1.89,6.12-9.18,10.45-15.36,8.09Z"/></g><g id="change2_3"><path fill="#f2bc57" d="M336.81,721.65c-86.6-27.08-180.98-37.09-269.33-13.48-5.45,1.28-12.12,2.36-16.68-1.76-7.22-5.81-5.24-17.99,3.55-21.11,53.72-13.2,109.6-18.57,164.96-12.41,30.71,2.84,61.3,8.17,89.74,15.07,12.44,4.58,48.67,6.72,43.13,25.62-1.89,6.11-9.18,10.47-15.36,8.07Z"/></g><g id="change2_4"><path fill="#f2bc57" d="M124.77,355.23c-4.72-4.31-5.18-11.36-1.56-16.4.58-1.66.82-3.43,1.13-5.16,2.79-18.26-.29-37.55,6.46-55.07,20.1-43.79,63.42-10.33,95.55-19.52,41.36-19.5,14.46-59.43,12.35-91.7-.93-22.47,18.73-39.9,40.27-41.25,7.14-.85,16.2-.67,20.48,6.1,3.87,5.47,1.86,13.44-3.59,16.99-3.61,2.44-7.61,2.22-11.31,1.14-6.01.19-12.41,1.66-17,5.74.19-.19.38-.37.57-.56.13-.1.27-.2.54-.54-1.22,1.09-2.31,2.29-3.24,3.64.32-.53.54-.88.82-1.36-8.48,15.19,4.2,32.58,5.98,48.27,2.51,11.76,2.44,24.11-.52,35.77-5.31,20.48-22.71,37.47-43.15,42.73-20.37,5.11-40.57-3.36-60.9-4.26-23.88-.81-14.86,35-18.27,50.37.11,13.36-7.72,37.23-24.62,25.07Z"/></g><g id="change2_5"><path fill="#f2bc57" d="M234.38,433.78c-25.83-9.95,7.16-43.19,20.14-51.19,26.2-20.3,70.15,2.43,89.43-28.38,26.03-39.82-33.65-85.73,16.28-116.77,15.16-8.76,35.56-9.89,51.17-1.63,8.52,4.44,9.92,16.84,1.44,22.15-5.58,4.31-11.78.97-16.8-2.05-10.55-2.72-23.72-.54-30.15,9.02.15-.26.31-.52.47-.77.16-.19.32-.39.36-.59-1.2,1.91-2.53,4.23-2.7,6.36.03-.22.06-.44.09-.66.09-.32.19-.64.29-.97-1.67,20.02,12.46,38.41,11.16,58.82,1.06,29.97-18.39,62.02-49.42,67.05-14.27,2.83-28.92,2.11-43.33,3.74-13.57,1.45-24.66,11.29-31.84,22.38-.77,1.36-1.51,2.71-1.97,4.21-1.64,6.5-8.16,10.76-14.61,9.28Z"/></g><g id="change2_6"><path fill="#f2bc57" d="M355.05,532.82c-20.33-26.19,43.61-35,59.36-37.83,18.67-2.85,20.31-20.56,18.57-36.25-9.97-41.2-5.88-67.02,32.21-90.69,13.93-8.08,55.64-21.87,67.07-7.02,3.66,5.6,1.99,13.33-3.61,16.97-3.7,2.62-7.82,1.94-11.81,1.26-18.64.34-38.02,6.04-51.59,19.3-18.25,15.19-11.96,34.93-8.25,54.98,2.61,16.44.96,35-8.98,48.85-12.79,17.47-36.3,17.3-55.53,21.56-6.98,2.13-14.17,4.21-20.29,8.28-4.85,4.44-12.12,5.2-17.16.58Z"/></g><g id="change3_1"><path fill="#0a253a" d="M518.1,4.73c-3.2-.35-6.21.83-8.54,2.83-21.6-2.31-43.49-3.95-65.16-5.57-53.72-2.99-105.08-2.47-159.47.63-49.92,3.85-102.09,5.91-148.27,27.14C18.72,82.87-13.1,209.16,68.72,310.04c17.32,19.86,37.64,36.47,58.83,51.99-6.23,27.95-15.45,55.21-23.46,83.2-13.94,47.95-26.45,93.71-38.76,142.96-24.3,101.53-37.26,205.39-46.41,309.26-5.68,51.73-12.06,103.37-16.38,155.25-.98,11.39-2.01,22.78-2.36,34.21-.21,6.41-.86,14.19,2.92,19.75,7.22,8.67,17.33,12.51,28.21,14.73-1.39,21.41-3.14,42.85-2.77,64.32.67,7.61,6.33,11.24,12.04,11.24,6.35-.02,12.77-4.51,12.47-12.98-.43-19.72,1.53-39.41,2.67-59.08,3.92.54,7.74,1.16,11.37,2.01,10.78,2.06,21.55,4.01,32.33,5.93-2.14,22.79-1.72,45.84-1.89,68.7-.36,6.6,4.83,12.71,11.51,13,.23,0,.46.02.69.02,6.16,0,12.29-5.06,12.31-11.51.15-21.98-.27-44.1,1.6-66.04,16.38,2.74,32.79,5.31,49.22,7.71-.04.59-.07,1.17-.09,1.76-.59,21.83-1.9,43.65-1.65,65.5.11,6.41,6.18,11.39,12.31,11.39.27,0,.54,0,.81-.02,8.63-.56,12.31-8.96,11.35-16.63.95-19.39-.21-39.34,2.32-58.5,19.65,2.63,39.37,5.02,59.17,7.1-.08,16.89.27,33.81,1.59,50.66.73,7.59,6.42,11.2,12.14,11.2,6.35,0,12.75-4.49,12.35-12.95-1.57-15.74-1.16-31.45-1.49-47.17,3.21.1,6.41.24,9.62.24,14.77,0,29.55-.98,44.26-2.36,2.37-.29,4.75-.56,7.14-.83,1.97,26.94,5.25,53.99,7.4,81,.77,7.59,6.44,11.2,12.16,11.2,6.37,0,12.75-4.49,12.33-12.95-1.8-20.35-3.82-40.66-5.66-61.01-.54-5.7-1.32-11.41-1.74-17.15.23-1.49.08-3.01-.24-4.49,7.3-1.38,14.47-3.22,21.35-6,16.38-9.88,3.39-31.61,1.96-46.26-8.17-37.63-16.67-75.22-21.83-113.4-5.72-46.68-11.18-93.67-11.37-140.77-.13-47.16,5.5-94.09,10.07-140.96,2.34-22,4.43-43.59,7.07-65.1,43.29-5.14,96.98-43.9,131.46-68.63,44.57-32.83,69.18-77.16,62.73-133.52-.72-5.44-1.86-10.71-3.28-15.85,1.23-1.04,2.34-2.22,3.05-3.66,27.21-27.02,51.48-57.08,72.84-88.95,24.09-38.63,52.63-78.67,54.72-125.68.71-71.46-47.87-135.82-106.38-172.74-21.81-12.6-46.16-21.4-71.23-24.45ZM370.92,1124.71c-59.24,14.08-121.79,6.23-182.01-2.42-40.89-5.06-81.24-13.37-121.8-20.27-14.19-2.47-28.92-3.34-42.48-8.44,3.3-76.96,15.48-153.26,22.29-229.97,10.26-118.72,30.61-236.74,63.73-351.45,6.79-24.74,13.81-49.44,21.1-74.05,5.58-18.89,11.41-37.67,16.55-56.65.29-1.31.64-2.62,1.01-3.92,8.86,6.16,17.76,12.26,26.55,18.42,62.22,43.69,121.27,92.15,176.89,143.94,4.23,4.24,8.14,8.86,11.52,13.82-15,61.09-18.87,124.32-25.46,186.81-16.3,128.77,2.45,258.72,32.12,384.19ZM671.32,198.26c-1.55,51.03-47.08,111.16-77.04,151.93-12.22,15.55-25.11,30.81-39.1,44.78-14.61-28.54-38.19-52.83-59.54-76.5-32.69-34.8-65.03-70.07-100.05-102.55,4.53-3.82,8.62-8.73,12.72-12.21,35.37-33.87,63.12-74.47,91.41-114.17,8.78-13.6-10.97-26.85-20.31-13.81-7.4,10.76-15.13,21.33-22.84,31.88-19.51,26.87-39.34,53.47-63.58,76.81-4.05,3.99-8.96,8.78-14.19,13.25-.78.21-1.53.53-2.25.89-38.98-35.37-74.71-74.06-113.41-109.75-8.11-7.63-16.24-15.27-24.4-22.88-9.11-7.36-21.19-25.32-33.39-13.31-4.32,4.85-4.12,13.08,1.02,17.34,14.02,11.81,27.04,24.74,40.47,37.21,37.4,34.25,71.33,71.67,109.09,105.85,37.84,33.1,70.87,67.74,105.69,105,24.41,26.64,50.75,52.34,69.37,83.54,17.51,29.46,17.24,65.82,4.66,97.06-10.28,22.5-29.42,39.32-48.54,54.3-33.47,23.72-68.14,47.54-107.63,59.9-.63.17-1.28.28-1.92.44,1.02-6.78,2.15-13.58,3.39-20.38,1.36.66,2.98,1.16,5.02,1.42,19.27-.56,12.95-25.05,8.04-36.84-9.99-24.66-30.88-42-50.33-59.19-49.23-42.92-99.48-84.87-153.24-122.05-31.86-22.27-64.73-43.5-92.6-70.83C12.01,214.36,39.47,96.47,154.58,48.63c41.33-15.57,86.02-18.24,129.69-21.38,53.09-3.16,106.33-3.72,159.43-.71,23.9,1.8,47.87,3.51,71.65,6.27,4.3,1.62,8.87.76,12.24-1.72,2.25.39,4.39.85,6.25,1.54,14.81,3.97,29.11,9.69,42.44,17.32,50.57,32.14,93.17,86.52,95.03,148.31Z"/></g></g></g></svg>