<?xml version="1.0" encoding="UTF-8" standalone="no"?><svg xmlns="http://www.w3.org/2000/svg" xmlns:xlink="http://www.w3.org/1999/xlink" contentScriptType="text/ecmascript" fill="#000000" width="771" zoomAndPan="magnify" contentStyleType="text/css" viewBox="-7.1 -9.8 770.9 844.5" height="845" data-name="Layer 2" preserveAspectRatio="xMidYMid meet" version="1"><g data-name="Layer 1"><g><g id="change1_1"><path fill="#51233c" d="m291.25,208.58c3.1-24.24,44.31-41.37,65.87-44.37,25.61-3.52,59.96,1.83,76.41,23.56,8.44,11.19,9.32,22.78,3.24,35.43-7.89,16.29-51.23,48.64-68.21,55.79-10.31,4.37-25.72-3.96-35.39-9.28-20.46-11.24-45.15-35.86-41.92-61.14h0Zm257.04,176.7c66.9-52.35,151.45-119.33,119.44-215.95-24.38-73.66-123.46-122.93-192.89-144.58C389.15-1.98,285.52-9.84,198.76,15.09,65.13,53.42,29.84,175.9,103.25,290.73c22.33,34.88,47.8,53.98,79.27,79.16.88.68,4.81.04,2.98,3.88-.98,2.11-16.2,11.97-19.53,14.91-57.27,51.04-126.07,135.4-156.1,206.69-16.97,40.26-15.76,59.53,33.27,64.29-7.21,26.31-15.75,52.71-20.07,79.8-2.55,16.04-10.85,45.44,13.89,41.41,12.47-2.06,11.23-26.64,13.29-37.19,2.94-14.79,6.23-30.59,10.07-45.05,1.21-4.62,5.89-26.89,11.47-25.22,5.35,6.24,39.26,27.52,39.66,33.21.15,2.01-4.66,12.81-5.69,16.79-5.15,20.06-13.35,46.61-16.14,66.48-.98,7.07-.45,16.15,7.84,18.65,13.07,3.93,17.77-10,20.81-19.82,5.59-17.71,7.46-45.44,14.81-60.94,1.05-2.22,2.27-4.42,5.06-3.64,4.21,3.43,30.77,14.42,30.91,16.93l-20.46,73.57c1.67,15.75,15.75,20.02,25.08,6.51,8.59-12.41,15.75-65.01,20.85-68.7,7.66-5.5,37.2,16.84,55.17,4.66,19.63-13.29,18.55-42.88,23.6-63.63,13.39-54.82,34.4-108.6,69.49-153.21,1.95,1.38,2.59,5.69,3.28,8.19,12.28,45.05,7.56,67.82,4.66,112.24-1.32,20.74.6,31.98,22.43,37.44,4.17,1.07,22.68,2.06,23.6,2.84,1.48,1.21-2.11,11.63-2.39,14.81-1.05,11.23-.95,23.17-2.37,34.41-1.23,9.95-6.63,25.71-6.63,34.63-.04,7.42,6.63,15.47,14.67,14.93,8.73-.6,12.07-8.64,14.03-16.01,3.84-14.62,6.88-40.93,8.01-56.32.29-4.02-.88-21.1-.1-21.89,1.13-1.13,29.29-.45,31.75,2.69,3.68,4.72,3.25,36.56,2.75,44.47-.59,9.72-3.92,22.18-4.71,32-1.07,13.19-.1,20.95,14.93,19.47,7.8-.73,10.15-5.93,12.22-13.04,5.05-17.77,6.53-54.38,5.15-73.03-.2-2.79-3.14-9.51-2.34-10.24,1.37-1.38,33.32,0,39,0,1.48,0,2.59,25.16,2.36,28.75-.74,11.28-12.8,45.39,5.75,47.15,13.74,1.28,17.48-16.18,19.33-26.68,1.91-10.89,3.24-27.98,2.5-38.97-.2-3.24-3.98-13.53-2.4-14.86.84-.7,16.89-1.72,21.24-2.86,36.03-9.47,39.89-37.09,45.19-69.63,13.07-79.98-.63-153.39-44.75-221.27l-21.65-24.2h0Z"/></g><g id="change2_1"><path fill="#f471a4" d="m254.37,657.32l-49.8-22.51c-34.41-13.82-56.69-32.74-82.14-57.91-14.88-14.71-26.29-26.56-46.51-33.92-2.41-.89-3.93.36-2.73-3.68,1.58-5.27,15.2-22.82,19.5-28.75,39.67-54.76,88.89-107.74,148.64-140.67,62.43-34.4,165.83-64.3,210.52-120.1,43.1-53.81-5.72-107.69-63.3-113.49-57.73-5.82-148.69,31.59-119.23,103.15,10.94,26.6,33.06,46.37,58.53,58.54l-117.75,55.96c-33.89-18.9-64.02-47.63-85.27-80.23-54.11-82.99-41.11-183.91,56.09-223.69,118.23-48.37,320.43-14.63,417.94,68.82,164.96,141.19-126.6,276.54-218.01,344.63-64.26,47.87-103.35,117.96-126.47,193.86h0Z"/></g><g id="change2_2"><path fill="#f471a4" d="m589.38,604.3l-51.36,7.16c-49.21,2.84-94.21-3.91-142.36-9.33-2.97-.34-11.87.81-12.58-.03-1.79-2.12-3.99-32.63-5.29-39.5-1.79-9.58-14.37-43.48-12.94-48.4,1.94-6.76,42-35.68,50.42-41.54,31.08-21.58,67.78-45.61,100.11-65.19,2.36-1.42,12.2-7.6,13.35-7.31,2.94.77,3.25,6.85,4.73,9.08,3.7,5.64,11.44,12.18,15.86,18.59,32.95,47.76,49.49,119.4,40.06,176.48h0Z"/></g><g id="change3_1"><path fill="#ffa476" d="m247.51,682.58c-2.18,8.66-5.9,45.35-11.41,49.53-2.8,2.12-33.83-8.88-39.72-11.03-52.01-18.8-70.61-46.83-113.44-72.55-17.76-10.66-31.34-12.82-50.1-18.77-1.73-.56-5.65-1.59-5.68-3.42-.03-.89,5.27-13.93,6.39-16.53,2.59-6.15,17.05-36.8,19.9-39.78,3.32-3.46,6.79-2.5,11.03-1.79,21.1,3.47,45.68,38.18,62.48,52.34,25.18,21.24,74.25,44.97,105.19,57.83,4.9,2.04,9.93,4.21,15.37,4.17h0Z"/></g><g id="change3_2"><path fill="#ffa476" d="m585,632.06c2.11,2.48-4.66,30.52-8.05,34.42-3.86,4.48-15.31,7.34-21.22,8.63-42.66,9.37-94.5,5.22-137.32.7-5.54-.59-39.57-2.3-40.16-6.03-1.17-7.57,1.72-13.59,2.48-20.43,1.38-12.23-5.37-21.12,12.62-19.68,57.2,4.62,113.95,15.55,171.99,6.84l19.65-4.45h0Z"/></g><g id="change4_1"><path fill="#ffffff" d="m252.16,560.03c-.24,0-.49-.06-.71-.18-.44-.24-.73-.67-.78-1.17l-3.04-29.55c-1.43-13.93-1.96-19.01-2.16-21.12l-1.14.31c-26.24,7.21-26.74,7.35-54.41,16.62-.41.14-.86.09-1.23-.12s-.63-.58-.72-1.01c-2.49-12.63-3.98-19.11-5.43-25.37-1.55-6.71-3.02-13.07-5.54-26.35-4.82.81-8.35,1.34-11.31,1.8-8.07,1.23-11.76,1.79-25.39,5.31-.8.2-1.62-.27-1.82-1.08-.21-.8.27-1.62,1.07-1.82,13.78-3.56,17.51-4.12,25.69-5.37,3.24-.49,7.16-1.09,12.71-2.03.8-.13,1.57.4,1.72,1.2,2.68,14.21,4.19,20.75,5.79,27.67,1.39,6,2.81,12.2,5.12,23.79,26.16-8.77,27.16-9.04,52.95-16.13l2.87-.79c.43-.12.9-.04,1.27.23.37.26.6.68.62,1.13.06.96.1,1.37,2.31,22.83l2.81,27.36,18.58-9.67c.74-.38,1.64-.1,2.02.64.38.73.1,1.64-.64,2.02l-20.53,10.68c-.22.11-.45.17-.69.17Z"/></g><g id="change4_2"><path fill="#ffffff" d="m551.08,561.99c-.31,0-.61-.09-.86-.27-17.82-12.58-21.62-16.56-30.82-26.17-3.09-3.23-6.9-7.2-12.08-12.38l-20.89,21.78c-14.3,14.92-14.58,15.2-15.1,15.8-.49.56-1.33.69-1.96.26l-6.05-4.05c-19.14-12.81-20.94-14.01-42-30.06l-32.94,23.29c-.67.48-1.61.32-2.09-.36-.48-.68-.32-1.61.36-2.09l33.84-23.92c.53-.38,1.25-.37,1.77.03,21.82,16.62,23.39,17.68,42.72,30.61l4.98,3.34c1.22-1.29,4.43-4.64,14.3-14.93l21.94-22.88c.28-.29.66-.46,1.06-.46.38,0,.79.15,1.07.44,5.77,5.73,9.89,10.04,13.21,13.5,8.83,9.23,12.62,13.18,29.14,24.91l19.94-29.5c.46-.68,1.39-.87,2.08-.4.68.46.86,1.39.4,2.08l-20.8,30.77c-.23.33-.57.56-.97.63-.09.01-.18.02-.27.02Z"/></g></g></g></svg>