<?xml version="1.0" encoding="UTF-8" standalone="no"?><svg xmlns="http://www.w3.org/2000/svg" xmlns:xlink="http://www.w3.org/1999/xlink" contentScriptType="text/ecmascript" fill="#000000" width="717" zoomAndPan="magnify" contentStyleType="text/css" viewBox="-15.1 -6.6 717.1 911.9" height="912" preserveAspectRatio="xMidYMid meet" version="1"><g data-name="Layer_1"><g><g id="change1_1"><path fill="#f2bc57" d="M158.42,780.42c83.12,27.61,159.85-21.37,191.83-113.63,9.86-29.66,16.65-62.59,39.72-84.94,55.65-44.39,107.16-93.94,73.07-168.32-5.94-11.19-21.96-43.71-32.83-34.83-21.87,34.12-50.51,60.99-70.36,95.72-.81,2.25-3.84,3.93-2.63,6.92,3.48,12.61,3.7,26.27.61,38.48-8.22,34.54-40.16,59.94-75.55,59.51-80.16.77-107.35-110.46-35.36-146.66,38.44-19.77,40,8.09,68.52-27.51,21.29-24.03,40.12-49.94,58.92-75.25,2.76-3.69-.52-8.4-4.83-8.37-38.52-27.13-89.72-37.22-128.57-10.98-33.71,19.42-41.19,60.23-67.64,85.06-14.09,11.22-31.2,16.25-49.32,21.57-54.32,9.71-92.71,71.34-107.57,116.8-31.58,96.74,48.75,213.96,141.96,246.47ZM233.77,665.74c-3.42,8.83-125.67-123.43-89.82-96.53,21.12,26.69,45.8,51.72,72.86,77.46,3.88,5.84,17.36,12.54,16.96,19.07Z"/></g><g id="change1_2"><path fill="#f2bc57" d="M655.07,41.37c-41.76-45.4-47.17-39.58-79.99,7.44-14.85,21.16-36.97,42.1-50.82,63.41-2.82,8.5,3.74,21.07,2.52,29.71-.19,1.96.76,3.86,2.45,4.87,14.76,9.55,29.84,18.39,39.1,31.82,4.12,1.81,4.85-1.05,10.28-.72,6.17-.95,13.09,4.45,17.83-.02,19.36-23.82,37.7-48.9,55.55-73.25,20.22-24.86,25.8-36.98,3.08-63.25ZM560.2,107.72c-3.81-1.7-2.92-3.04,3.44-10.25,3.11-2.45,7.78-12.17,11.7-9.11,1,1.16,1.28,2.07-4.1,7.65-3.59,3.03-7.19,9.93-11.04,11.71ZM632.91,86.49c1.67-2.11,5.57-7.04,7.67-7.04,3.12,1.75,2.87,2.57-3.03,8.95-3,2.07-4.24,6.94-7.58,7.82-5.06-1.2-.53-5.85,2.94-9.73ZM600.51,128.3c2.11-3.25,10.05-12.6,9.62-4.18-4,3.08-8.07,12.4-12.35,13.36-4.36-1.3-2.26-3.34,2.73-9.17ZM610.65,47.82c-3.91,5.06-8.86,10.34-10.35,16.73-.55.57-1.49.94-2.39.94-7.8-2.33,5.64-15.1,9.13-20.63,1.77-2.1,5.43.73,3.61,2.97Z"/></g><g id="change2_1"><path fill="#c79973" d="M309.05,428.78c9.79,3.63,18.77,9.14,25.97,15.93,6.25,5.89,11.47,12.61,15.5,19.97.85,1.54,2.43,2.54,4.18,2.64.1,0,.2,0,.3,0,1.65,0,3.2-.8,4.17-2.15.48-.68.97-1.35,1.44-2,.96-1.32,1.87-2.57,2.6-3.71,8.41-11.55,17.44-23,26.17-34.09,5.78-7.33,11.75-14.92,17.51-22.47,13.65-17.82,26.18-36.56,38.31-54.68,7.47-11.17,15.19-22.72,23.06-33.87,9.3-13.07,18.99-26.39,28.36-39.27,17.34-23.83,35.27-48.46,51.77-72.99,1.94-2.12,3.71-5.01,5.57-8.06,2.25-3.69,4.81-7.88,7.31-9.86,1.18-.94,1.88-2.34,1.92-3.85.04-1.5-.58-2.95-1.7-3.95-10.3-9.23-21.43-17.52-33.1-24.64-.83-.5-1.75-.75-2.66-.75-1.49,0-2.96.65-3.96,1.88-9.88,12.13-20.14,24.35-30.06,36.16-8.18,9.74-16.64,19.8-24.88,29.83-37.3,46.28-75.94,96.41-118.07,153.16-12.48,16.17-25.96,33.21-41.49,48.3-1.26,1.22-1.8,3-1.44,4.72.36,1.72,1.58,3.13,3.22,3.74Z"/></g><g id="change2_2"><path fill="#c79973" d="M583.63,182.93c-.54-.02-1.09-.03-1.65-.03-.96,0-1.95.03-2.9.07-.95.03-1.89.07-2.81.07-.67,0-2.71,0-3.78-.48-.67-.31-1.39-.46-2.11-.46-.77,0-1.54.17-2.24.52-1.37.67-2.37,1.92-2.72,3.4-.08.35-.23.66-.47.96-3.84,4.9-7.4,10.07-10.84,15.06-1.61,2.34-3.23,4.68-4.95,7.11-4.99,7.45-10.26,15.13-16.12,23.48-.84,1.19-1.12,2.68-.79,4.1.06.26.07.49.02.67-2.95,9.96-5.22,19.9-6.74,29.6-7.75,54.08-6.44,108.63,3.92,162.27,13.51,60.42,25.63,124.69,12.82,187.91-5.77,32.36-18.7,62.8-31.44,91.2-13.41,29.68-27.62,53.55-43.49,73.01-41.35,51.74-106.15,82.62-173.34,82.62-1.44,0-2.88-.01-4.09-.03-57.54-3.82-103.6-43.6-132.11-76.3-.16-.18-.33-.35-.52-.51-.28-.24-.47-.49-.55-.75-.5-1.48-1.66-2.65-3.14-3.17-23.32-8.23-46.61-22.18-67.37-40.33-.96-.84-2.16-1.26-3.36-1.26-1.09,0-2.18.35-3.1,1.05-1.93,1.48-2.55,4.11-1.49,6.29,1.49,3.05,3.06,6.15,4.85,9.53,21.52,39.68,46.87,79.81,86.43,104.62,34.17,20.85,76.75,31.42,126.54,31.42h1.42c4.21.05,8.45.16,12.71.27,5.88.15,11.97.31,17.99.31,11.58,0,26.78-.51,41.78-4.48,46.86-12.97,91.75-45.84,129.81-95.03,33.22-42.94,59.01-96.32,70.74-146.41,11.37-45.86,15.2-91.31,11.39-135.18-2.37-22.25-6.71-44.6-10.9-66.21-8.02-41.31-16.31-84.03-10.73-126.61.01-.09.02-.19.03-.28,3.43-45.98,15.7-90.15,27.98-131.47.45-1.51.18-3.14-.73-4.42-.91-1.28-2.36-2.07-3.93-2.14Z"/></g><g id="change3_1"><path fill="#0a253a" d="M594,141.62c-7.36-4.97-1.9-11.86,2.56-16.55,3.92-4.77,9.24-13.18,16.15-7.9,3.07,2.46,3.8,7.41,1.14,10.48-5.12,4.33-9.08,14.94-16.07,14.94-1.16,0-2.43-.29-3.78-.97Z"/></g><g id="change3_2"><path fill="#0a253a" d="M626.18,100.3c-7.26-4.6-1.79-12.6,2.72-16.98,3.96-5.01,10.29-12.98,16.69-6.62,6.77,8.09-5.45,14.52-9.1,20.94-1.34,2.39-3.92,3.69-6.52,3.69-1.3,0-2.62-.33-3.78-1.03Z"/></g><g id="change3_3"><path fill="#0a253a" d="M556.49,111.68c-7.69-5.01-1.16-13.16,3.45-17.72,4.81-5.08,11.33-16.44,19.06-9.18,6.31,7.12-3.49,13.24-7.45,18.53-3.24,3.49-6.54,9.51-11.35,9.51-1.14,0-2.37-.35-3.71-1.15Z"/></g><g id="change3_4"><path fill="#0a253a" d="M592.42,68.25c-6.85-8.58,6-19.45,10.54-26.47,6.21-7.49,17.68,1.71,11.61,9.34-3.18,3.78-6.07,7.84-8.68,12.05.14,4.52-3.94,7.43-7.98,7.43-2.02,0-4.02-.74-5.49-2.35Z"/></g><g id="change3_5"><path fill="#0a253a" d="M227.28,670.08c-30.02-28.01-60.73-57.82-86.64-89.37-3.28-4.75-10.17-9.24-8.52-15.68,1.16-3.94,5.4-6.39,9.37-5.16,4.93,1.92,6.62,7.65,10.31,11.02,19.91,24.05,41.55,46.58,64.28,67.95,6.29,6.11,12.52,12.3,18.94,18.24,3.98,2.58,5.98,7.88,2.74,11.86-1.46,1.82-3.65,2.78-5.84,2.78-1.65,0-3.3-.54-4.64-1.63Z"/></g><g id="change3_6"><path fill="#0a253a" d="M151.8,570.85s-.08-.08-.1-.12c.06.06.1.1.14.16t-.04-.04Z"/></g><g id="change3_7"><path fill="#0a253a" d="M151.51,570.5c.08.08.14.16.19.23-.06-.08-.14-.16-.19-.23Z"/></g><g id="change3_8"><path fill="#0a253a" d="M592.47,174.65c19.25-23.68,37.3-48.36,55.37-72.99,4.41-6.15,8.87-12.3,13.22-18.51,1.75-2.7,4.66-6.02,3.92-9.32.1-11.35-6.77-20.69-13.72-29.05-11.51-12.91-24.24-28.96-42.95-29.56-11.16,10.87-19.39,24.36-29.03,36.51-9.22,13.33-21.95,26.88-33.26,40.19-.21,3.24-2.7,6.25-5.86,7.06-4.35,5.38-8.31,10.69-11.55,15.93-.29,7.12,4.11,18.88,3.26,27.52,12.89,7.76,25.09,16.63,36.25,26.78,1.49,1.34,2.43,3.09,2.68,4.93,2.15-.99,4.93-1.36,7.82-1.36,5.07,0,10.52,1.13,13.86,1.86ZM470.8,222.08c-40.43,50.15-79.59,101.33-118,153.07-13.12,17-26.57,33.89-41.98,48.85,10.23,3.78,19.78,9.53,27.7,17,6.62,6.23,12.17,13.37,16.48,21.23,1.46-2.06,2.93-3.98,4-5.65,14.07-19.31,29.36-37.77,43.84-56.77,21.95-28.67,40.58-59.1,61.25-88.4,26.55-37.32,54.85-74.66,80.29-112.49,4.02-4.17,8.19-14.34,13.7-18.73-10.01-8.99-20.86-17.08-32.35-24.09-18.05,22.16-36.76,43.88-54.92,65.97ZM243.71,314.85c-32.92,19.12-40.25,60.05-67.03,84.62-22.22,17.8-51.72,20.92-77.51,31.21-35.89,19.8-65.66,66.28-77.81,104.74-29.69,99,47.22,205.96,138.67,240.15,87.66,28.82,157.63-30.02,185.38-110.39,10.09-30.41,17-63.77,40.91-86.89,19.41-20.01,44.6-34.06,61.15-56.85,21.33-30.57,28.72-71.94,11-105.66-5.9-12.73-13.55-24.86-24.05-34.2-5.18,7.49-10.46,14.92-15.93,22.22-17.58,23.66-37.11,45.94-53.53,70.43.08,2.39-1.09,4.41-2.81,5.73,3.67,13.29,4.02,27.71.64,41.09-3.71,14.63-11,28.08-21.66,38.83-9.2,9.3-20.53,16.34-32.95,20.44-8.4,2.78-17.12,4.1-25.89,4.1-3.47,0-6.97-.19-10.44-.6-7.8-.99-15.43-3.12-22.63-6.27-7.22-3.16-13.76-7.36-19.89-12.27-5.94-4.74-11.04-10.66-15.33-16.88-4.66-6.73-8.13-14.19-10.64-21.95-4.74-14.69-5.14-31.21-.99-46.05,2.17-7.78,5.28-15.22,9.53-22.09,4.21-6.85,9.43-12.85,15.31-18.3,2.6-2.41,5.51-4.56,8.42-6.58,2.89-1.96,5.9-3.82,9.04-5.36,6.81-3.36,13.93-5.98,21.41-7.45,9.24-1.82,18.48-2.08,27.73-.87,1.32-1.53,2.99-2.91,4.43-4.27,4.64-4.42,9.04-9.02,13.39-13.72,21.08-23.77,39.73-49.45,58.65-74.91-1.2-.02-2.41-.37-3.49-1.03-21.23-15.16-48.07-25.44-74.33-25.44-17.06,0-33.87,4.33-48.75,14.48ZM295.1,854.38c60.92-.97,119.9-27.31,159.76-73.32.1-.12.19-.23.29-.35.04-.04.08-.08.12-.12,0-.02.02-.02.02-.04.06-.06.1-.12.16-.17,33.13-39.26,53.35-87.49,69.98-135.64,13.47-42.62,14.25-87.82,9.82-131.95-6.35-47.43-20.63-93.58-23.54-141.54-1.65-25.97-.93-52.17.82-78.14.81-9.39,1.88-18.69,3.4-27.87-14.25,19.6-28.65,39.09-42.58,58.92v.04c-10.36,14.87-20.32,30.02-30.47,45.05v.02c20.75,18.09,33.56,44.35,39.34,70.99,5.01,28.74-3.84,58.96-18.51,83.67-20.15,34.2-60.88,49.61-81.18,83.57-15.33,27.62-19.1,59.41-33.17,87.61-27.99,59.16-85.72,108.97-154.47,102.14-5.65-.41-11.28-1.15-16.83-2.15,31.25,31.62,72.08,57.93,117.05,59.29ZM368.62,885.75c98.84-27.36,174.53-142.01,196.95-237.75,10.77-43.45,15.16-88.75,11.28-133.41-6.91-64.8-30.24-128.27-21.62-194.02,3.38-45.24,15.29-89.18,28.18-132.54-1.34-.06-2.74-.02-4.13.04-3.22.12-6.46.23-8.89-.87-.25,1.05-.72,2.04-1.42,2.93-5.51,7.03-10.38,14.56-15.57,21.85-5.3,7.94-10.71,15.78-16.19,23.58.25,1.07.27,2.19-.06,3.28-2.85,9.63-5.07,19.23-6.58,28.88-7.72,53.9-6.39,107.42,3.84,160.42,13.9,62.12,25.72,126.54,12.87,189.92-5.74,32.24-18.48,62.69-31.81,92.4-11.82,26.16-26.03,51.86-44.15,74.1-43.36,54.24-112.66,85.9-181.75,84.5-53.93-3.59-101.13-38.49-135.62-78.04-1.01-.87-1.69-1.88-2.06-2.97-25.06-8.85-48.52-23.37-69.03-41.3,1.55,3.16,3.14,6.29,4.75,9.34,21.31,39.3,46.4,78.74,84.6,102.69,37.42,22.82,82.27,30.86,125.35,30.66,23.6.29,48.01,2.39,71.05-3.71ZM298.59,904.38c-137.52.43-193.63-68.04-245.39-185.97-3.3-1.48-4.58-4.66-4.19-7.67-9.53-12.32-17.78-25.35-24.51-38.64-32.51-57.8-33.15-126.25.99-183.48,14.54-23.54,31.73-46.38,53.74-63.42,13.84-10.64,32.8-14.23,48.69-19.37,15.64-5.16,32.61-9.99,44.13-22.47,13.06-15.12,19.95-34.39,31.93-50.31,28.84-42.85,82.06-57.39,130.15-41.01,12.07,4.13,23.15,10.48,33.98,17.18,3.45,1.78,8,4.29,9.51,7.78,6.87-9.14,13.82-18.22,20.96-27.15,37.19-49.18,76.62-96.5,116.1-143.81-.33-2.02.25-4.25,2.15-6.35-.31-10.62-5.32-21.62-2-32.08,3.61-5.61,7.72-10.89,12.07-16.03-5.24-4.5-10.54-8.95-16.44-12.5-5.01-2.02-5.94-9.78-1.3-12.79,7.43-4.68,18.88,6.46,27.4,14.17,4.68-5.3,9.34-10.6,13.6-16.15,1.92-2.31,3.84-4.64,5.73-6.99-5.71-4.11-11.59-7.92-17.76-11.26-2.7-.68-4.75-2.83-5.51-5.49-.99-3.34.91-6.6,3.65-8.35,2.89-1.84,6.19-.66,8.93.72,6.91,3.75,13.55,8.05,19.91,12.65,4.48-5.8,8.89-11.66,13.27-17.54,1.03-1.16,2.04-2.41,3.03-3.71-.19-.14-.39-.27-.58-.43-5.67-6.37-23.08-9.9-17.68-20.48,7.3-10.05,19.97,4.64,27.02,8.85t.04.02c4.46-5.63,9.55-10.46,16.52-11.96,25.42-.85,43.86,20.16,58.69,38.21,10.23,12.13,18.63,30.63,12.4,45.74.93.45,1.84,1.03,2.72,1.63,4.81,3.32,9.24,6.46,13.93,9.7,7.51,5.98-1.49,17.45-9.08,11.8-4.08-2.85-8.19-5.69-12.27-8.56-1.63-.04-2.99-.52-4.06-1.3-5.94,8.5-12.05,16.92-18.22,25.31,5.96,3.86,12.13,7.49,18.28,10.97,8.31,5.05.72,17.66-7.69,12.77-6.39-3.59-12.62-7.45-18.85-11.35-.23-.12-.47-.23-.7-.37-6.02,8.05-12.09,16.07-18.2,24.07.6.33,1.16.78,1.69,1.34,3.22,4.02,7.98,6.54,12.09,9.59,8.25,5.18.66,17.8-7.67,12.77-5.1-3.8-11.16-7.04-15.31-11.94-4.62,5.45-9.72,14.94-16.13,18.75-.27,2.17-1.22,4.33-1.8,6.37-5.78,19.66-11.06,39.48-15.93,59.39-7.63,31.34-11.14,63.48-12.27,94.75-.74,55.74,18.55,109.34,23.43,164.62,4.35,51.18-1.94,103.15-15.82,152.45-21.1,74.56-72.47,157.77-137.72,200.93-35.71,27.66-73.75,37.3-116.16,37.3-7.69,0-15.51-.31-23.5-.91Z"/></g></g></g></svg>