<?xml version="1.0" encoding="UTF-8" standalone="no"?><svg xmlns="http://www.w3.org/2000/svg" xmlns:xlink="http://www.w3.org/1999/xlink" contentScriptType="text/ecmascript" fill="#000000" width="1681" zoomAndPan="magnify" contentStyleType="text/css" viewBox="-0.7 -0.3 1680.9 1046.1" height="1046" preserveAspectRatio="xMidYMid meet" version="1"><g data-name="Layer 2"><g id="change1_1" data-name="Layer 1"><path fill="#c9b8ff" d="M1580.38,981c-.41.6-4.16.92-4.64-.83a25.34,25.34,0,0,1-.34-7.31c.27-1-.89-4.37-2.57-7.53l-2.24-1.79c-.34-.27-1.59.7-2.2,1.37l-2.31,2.59a50.9,50.9,0,0,0,2.22,10.94l-3-.29a4.46,4.46,0,0,1-3.15-2.88l-.57-4.13c-.1-4.53-1.76-8.45-3.7-8.71l-.77.57a15.85,15.85,0,0,0-3.45,4l-6.11,9.31c-4.55-4.35-5.11-9.69-3.9-10.37s-7.44-5.38-11-3.19-5.73,2.59-4.87.91l.17-.94a24.88,24.88,0,0,0,.69-6.55c0-.45-3.46-1.46-4-.74-7,8.65-11.5,1.89-15.61-3.82l-4.5-6.27c-6.64-1.09-14.15-1.9-14.94-2.13s-1.84-2.68-1.94-3.33-.32-5.46-.48-10.7l-5.73,4-.85.59c-.79.94-6.45-7.35-9.79-8.19s-3.66-1.36-.71-1.15l2.56-.59c.82-.19,1.88-3.08,1.68-4.5-.7-4.9-2.26-1.92-3.83-.48-.28.25-2.48-1.66-2.41-1.84l.8-2.15c1.08-2.25,2.33-6.76,2.23-8.15s-7.33,5.08-9.3,8.06-6.76,4.55-10.65,3.5l-2.3-3.59-1.14-1.77c-.76-2.25-13.65-7.42-17.65-10.36a52.2,52.2,0,0,0-14.3-7.26l-2.49-3.6a40.83,40.83,0,0,0-19.07-15.15l-5.62-2.21c-1.3-7.06-14.74-9.62-15.19-14.71s-4.24-5.39-5.46-4-2.64-1.62-3.15-6.67l-5.8.86c-.9.13-3.58-4.76-3.12-6.39.69-2.45,2.7-4.15-1-4.43a4.27,4.27,0,0,0-3.5,2.49l-.93,3.37c3.27,7.55,8,16.46,10.49,19.8l.28,5.19.52,9.77c-3.77,8.74-3.78,19.55-2.37,21.24s.8,4-1.35,5.25l-1.22,1.8-3.19,4.75a77.82,77.82,0,0,0-6.72,21.47l-2,5.33c-.37,1,1.85,3,1.93,4.65.23,4.77,1.57,11.2-.44,14-3,4.2-8.57,5.8-13,8.67l-.59.38c-.28,1.22,2.41,3.49,3.52,4s-1.78,2.19-6.43,3.82l1.73,7.16c.72,3,.94,6.9-.14,9.48l-.87,2.09c-2.85,1.08.73,16,.38,22.51s-1.1,8.57-1.67,4.67l-.93-1-1.27-1.37a4.41,4.41,0,0,0-5.25,2.42l.3,1.5.35,1.81c1.9,2.56-19.64,6.92-27,11.13s-14.89,8.31-16.85,9.1l-.64-.75c-4.22-5-7.55-4.26-12.55-.53-3.51,2.61-8.51,1.51-13.13-2.24l-7.4-6c-9.65-3.39-18.57-6-19.82-5.8l-.86-.52-5.56-3.34c-6.68-2.09-20.47-9.66-24.34-10.81s-20-12.69-25.4-15-16.62-7.79-19-9.33-17.57-11.69-22.81-14.7-18-9.33-28.42-14l-8.25-6.57L1084,949.6c-7.62-3.67-23.56-18-28.59-19.61s-19.69-11.09-24.5-13.23a84.88,84.88,0,0,0-12.82-4.68l-.07-.67-.73-6.82c-4.52,0-10-.59-12.11-1.27l-1.63-1.29-8.84-7c-10.69-5.32-24.48-13.25-26.37-14.66a61.28,61.28,0,0,0-12.06-5.71c-2.46-.62-10.46-5.22-12.49-7.14s-10.77-3.17-12.3-5-11.85-9-15.19-11.26-24.07-11.78-30.27-16-16.4-10.53-18.68-11-6.24-1.44-7-1.65-7.3-12.37-11.63-12.82a60.13,60.13,0,0,0-13,0l-.05-.24c-2.13-10.62-9.63-11.22-16.54-13.33l-4.33-1.32c-4.57-2.33-12.77-7.18-14.33-8.59s-7.18-6.48-9.05-6.11-5.9-1.64-8.95-4.46l-3.18-1.8-5.41-3.06c-6.15-2.87-13.64-5.76-14.52-5.38s-3.88-4.26-5.34-4.82-9.65,1-9.37-2-13.72-7.36-18.71-10.7-18.69-20.54-24.4-22.1-11.19-3.3-11.95-3.21-6.46,5.21-8.19,3.19S668.55,711.82,664,710.13s-18.29-8.28-21.87-10.9-18-8.73-22.29-11.4-12.62-8.23-18.59-12.34l-4.45,1.33-7.85,2.36c-3-6.25-18.47-15.63-23.22-18.49s-16-8.93-18.74-10.27-8.4-1.79-12.52-1l-.36,2.06-1.76,9.84c-1,11.07-2.23,24.52-2.37,26.11s-7.46,6.47-6.9,9.73-.39,16.39-1.84,20a49.2,49.2,0,0,0-3.06,11.34l.94,1.53,2.56,4.19c-1.31,4.32-2.7,9.33-2.51,10.14a87.35,87.35,0,0,0,5.59,10l-3.81,5-3.94,5.2c-5.76,2.59-22.55,10.57-27,13.21s-8.81,5.67-9.71,6.7l-.89.08c-4.63.38-9-.16-13.46,3.59L463,790.6c-4.66.92-13.59,8-15.83,6.36s-8.08.44-9.33-1.32-5.08-.48-8.51,2.86l-4.47-5.57c-1.46-1.81-7.34,2.58-10.67,1.59l-10-3c-11.17-1.86-25.83-4.64-27.87-6.22s-10.53-.39-12.88-1-5.5-1.83-5.9-2.4-7.79-3.87-16.42-7.32l-8.69-.31-9.11-.32c-10-2.92-28.66-7.09-32.62-9s-18.21-9-31.68-15.68l-13.65.5L229,744.09l-1.38-.68c-1.53-.72-28.44-5.85-38.06-8.23s-34.77-8.89-41.13-11.14-17-5.9-19.36-6.35-11-.56-13.57-1.52-9.32.25-14.91,2.69l-4.31-7.52-1.74-3c-5.25-.59-13.3-1.46-17.89-1.94l-3.73-1.77-3.7-1.75c-3.59-3.39-8.5-7.09-9.39-7.15s-18.94-5.66-23.74-10-10.49-9.07-11.36-9.16-13.87,6.19-18.24,3.36-7.2-6.06-6.3-7.17l.53-1a3,3,0,0,1,4.86-.9c1.16,1,3.19,1.93,4.25,1.36l2.81-1.51c2.72-2.31,1.75-7.15.75-8.06s2.36-13.3.39-17.41S10,636,9.77,633.82l.19-.05,6.59-1.95a77.25,77.25,0,0,1,13.5-10.54c1.12-.52-2.11-8.83-3.53-11.53s5.68-7.76,7-4.81,1.38-8.17-2-7.53-9.63,1.56-11.13,1.16-.79-7.86-1.32-10.52,2.46-4.81,3.57-4.79a38.27,38.27,0,0,1,6,.93l2,.47c1.15.27,2.36.93,3.43.69l2.54-.55c2.45-2,10.15-3.79,9.32-6.57s1.16-6.81,2.18-7.29-.61-9.48-3-10.57-5.52-12-8.55-11.35-6.61-1.87-6.95-3.06,1-5.17,2.07-6,7.48.26,9.48,1.45,7.08,2.69,7.93,1.58,2.73-4.27,3.68-5,5.35-2.31,9.81-3.61L64.5,537c5.22,7,8.77-2.89,13.91-.73l5.16,2.16c6.65-.93,9.6-4.91,6.57-8.84L87,529.21l-5.88-.72c-6.57.23-13,.08-13.28-.32s3.29-5,4.78-6.71,5.78.16,7.18,1.64,10.45-3.43,13.11-5.49,16.43,3.23,20.79,1.45,10.4-4.72,11.48-4.94,11.1,4.78,14.44,2.87,8.54-3.53,11.56-3.59l2.2,1.28c2.3,1.34,3.65,5.47,5.92,6.25l2.25.77c3-1.37,8.69-1.48,12.62-.25l3.43-.4c5.48-.65,7.45,4.31,10.38,7.66,3.54,4,4.81-5.46,9.28-1.36,3.71,3.4,7.56-.69,5.51-5.34-3.06-7-6.1-15.83-11.26-19l-4.42-2.72c-4.82-3.28-17.2-17.42-15-20.57s7-9.54,10.64-14.2l-4-6.26-.54-.84c.32-1.76,1.54-14.4,1.75-18.68A89,89,0,0,1,181,428.93h.43l9.59-.34c-4.14-4.82-4-19.54-5.12-23.61s-3.39-11.9-4.94-17.4l4.73-1.57,6.12-2c-2.12-3.79-4.67-12.17-3.31-14.24s5.1-6.16,3.88-7.88a65.65,65.65,0,0,1-3.83-6.21l.75-2.42c.51-1.67-.63-5.9-1.32-6l-6.27-.83c1.84-4.29,8.57-22.12,12.5-25.07s19.75-7.48,24.55-8,18-.55,18.48-3,3.53-14.79,6.24-16.14a24.2,24.2,0,0,0,5.77-4.35c.43-.51,3.39-1.58,6.58-2.38l2.91,1.35h0c4.62-1.57,9.21,2.62,9.56,5s2.77-1.16,3.41-2.78,11.95,1.21,16,2.79a78,78,0,0,1,9.43,4.26l.18,1,1.51,8.19c4.89-2,11.53-4.58,14.75-5.74l2.18,3.94c3.41,6.15,5.5-4.82,9-1l2.63,2.87c3.36,2.53,9.1,6.36,12.76,8.52l1.14-1.17c5.67-5.83,5.31,3.79,8.25,3.9,1.13.05,2.25-1.4,3.45-1.73l1.41-.39c1.63,0,5.53,3.12,8.65,7l4.5.25c3.16.18,7-.74,9.31,1l2.8,2.12c2.16,4.62,5.12,4.16,5.42,3.1s2.93,1.29,5.84,5.23l.24-.22,4.47-4c1.8,4.09,9,13.54,12.14,14.29s11.67,1,13.77,1.35,8.81,4.68,11,5.22a97.7,97.7,0,0,0,13.84,1.34l.52,8.06,0,.54c2.32.35,9.4.78,11.32.75s4.57,5.76,5.88,12.87l7.47-4.84,4.4-2.86c.23,5.33,5,11.69,10.56,14.12l5.45.26c2.77.13,5.68,2.39,8.09,4.43,1.58,1.34,2.36,5.7,3.52,5.72,2.89,0,5.8-1.65,8.7-2.65l9.26,6.85,2.15,1.59c2.38,1.66,12.9,4.9,16.24,5.37s5.63-.59,5.48-1.06-9.37-6.36-12.73-8.62S520.89,379.36,518,376.17s-6.52-5.52-8.13-5.16l-1.45.41-1.16.33c-1.26.48-5.91-2.46-10.33-6.54l-3.89-3.72-2.7-2.58c-3.28-3.52-8.24-8.89-11.11-10s-8.69-5.32-12.94-9.32l-5.75-1.14L453.31,337c-3.68-8.64-2.86-22.08-5.16-23s-5.35-1.73-6.39-1.16-1,3.68-.62,4.69-1,1.11-3.06.23l-1.85,0-7.85-.17c.12-7.47-5-8.75-6.75-10.51s-6.78-8.33-8.61-9.14-5.88-1.5-7-2.19-13.62-13.9-19-16.95S371.48,267.27,369.27,265s-10-13.87-13.59-13.43-6.86.36-7.26-.17L348,251l-6.21-5.47c-6.86-6-22.28-18.55-26.09-21.34s-10.51-7.61-14.91-10.71l-3.28-3.72-2.9-3.29c-2.26-4.76-7.54-8.9-11.74-9.2l-3.55-1.56-.95-.41c-.48-2.34-3.8-8.47-5-10s-3.91-5.2-6-8.18l-2.19-.34c-7.31-1.14-.05-5.29-1.14-6.43-2.23-2.32-5.08-3.85-7.81-5.38l-1.31-.74c-1.69-.19-1.69-7-1-9.18s8.05-11.91,8.12-16.15,1.82-13.82,3.88-21.3l1.94-6.79.63-16.8c.35-2.21.59-4.44,1.06-6.61.37-1.72,1.73-4.63,1.45-4.85-7.12-5.62-1.25-12.51.55-16l3.59-7c-1.71-6.56-2.89-14.74-2.64-18.18h.08L279,42c-.76-5.34-.83-13.05-.44-14.29s7.6-1.69,8.13-4.75,5.46-7.12,10.93-9l4.89.3,3.36.21c3.59,3.55,7,4.43,7.13,3.81s5.67-3.15,12.27-5.62l4.26,5.95,1.09,1.51c2.09.75,4.14-.64,4.56-3.07L335,14.88c-.06-1-1.81-1.69-2.1-2.78-1.59-6,.55-10,6.27-11.77L340.25,0c1.3.34,9.63,2.05,12.21.86a11.64,11.64,0,0,1,9,.1l2.13,1.51.54.38c.29,1.53-5.53,3.31-7.64,3.5s-3.85,8-3.85,10.65,2.66,4.86,5.91,4.95l2.12-1.25c1.35-.79,1.16-4.92,2.54-6.12l1.33-1.16c2.43,1.29,10.45.95,17.82-.75l6.27,11.89,1.07,2c.8,2.53,3.09,3.16,3.71,2.62s-.06-5.91-.51-7.79-.1-3.64.78-3.91l.33.25c2.15,1.66,4.12,3.67,6.35,5.13,1.68,1.11,3.65,2.19,5.5,2.21l4.71.05c-.61,1.94-1.6,5.49-1.75,6.25S410,32.88,411.75,33l1.13-.82a24.58,24.58,0,0,1,7.42-2.94l4.65-.86c1.58,4,6.12,7.61,10.1,8L438.63,34c.39-.26,2,2.84,3.37,3.83l3.42,2.52c3.92,2.44,16.87,10.62,21.51,14.65S478.8,64.41,480,63.63a42.17,42.17,0,0,1,6.34-3l1.12,1,1.38,1.18c.59,2.85,2.4,3.53,4,1.49l.35.27c1.78,1.36,3.17,3.44,4.7,5.27l1.69,2c2,2.44,4.11,2.83,4.61.87l.38-1.1.38-1.1c.53-1.16,8.07,11.15,12.58,13.47s9.85-.85,10.44-2.66,1.52,0,2.07,4.08l.76.2c11,2.93,15.86,20.69,29.44,17.53,1-.24,2.44,2,3.74,3l4.92,3.61a12.88,12.88,0,0,1,3.49,16.87l1.3,6.41.38,1.87c2.8,2.65,5.16.9,5.25-3.89l-.21-3.06c-.27-4,1.14-4.8,4.34-5.91,4.94-1.7,13-.91,14.36,6,1.66,8.45,7.42,3.67,9.07,6.67,2.34,4.29,3.63,9.91,8.74,6.77l4-2.46c3.54,1.57,6.88,3.13,7.42,3.48l.13.46c1.9,6.71,10.33,10,7.22,19.43l-.13.38c.91.8,3.55-3,5.86-8.47l1.78.06,6.2.19c2.11,5.57,12,9.93,13.26,12.78s4.71,4.48,5.71,3.5,4.09,5.31,5,8.18.49,5-1,4.74l-.22-.28c-1.88-2.45-3.87-4.68-6.65-1.87-.62.63-1,3-.7,3.31,1.4,1.35,3.38,3.48,4.66,3.08l6.27-2c.26,5.37,4.4-.78,6.72-2.33s6.89,10.4,8,15.69,3.89,6.83,6.25,3.42l-.19-.23-6.48-7.72c4.85-5.49,12.94,1,16.62.95s12.45,6.91,15,9.16,12.45,8.63,15.64,10.49,4.18-2.49,3.66-4.38a3.14,3.14,0,0,1,2.66-4l.54.64a67.4,67.4,0,0,1,4.9,7.2l2.56,4c7.26,4.26,22,9.53,23.07,13.08s4.32,3,7.18-1.13l2.9,7.28c.59,1.5,1.45,4,2.27,4l8.65.51c7.29,6.21,20,13.6,28.13,16.42l2.12,10.92c.32,1.65,2.4,4.71,4.38,1.06a11.91,11.91,0,0,0,1.41-5.43v-2.46c-.65-3,6.66-1.22,8,1.67s2.33,6.06,2.29,7.07l0,.91c0,.5,3.15,5,3.95,5.72l5.3,5c5.83,5.5,12.69,11.55,15.24,13.45l.63-.65c7.25-7.57,9.82-2.64,12,5.5.31,1.18,4.37,2.5,4.91,1.8,6.22-8.07,7-.2,9.19,4.08l.82,1.61c1.41,1.39,8.47-1.92,9.26,1s.75,9.11-.1,13.79l5.52-.54,2.78-.27c3.1-1.32,14.45,5.54,18.47,7.18s9,4.3,9.57,5.26-2.21,3.6-3.45,4.33,1.76,2.74,3.11,3.32a45.33,45.33,0,0,1,7.56,5.42l3,1.8c.76.46,3.12-1,3.63-2.23.65-1.55-.21-3.93.28-5.67.38-1.4,1.75-3.21,2.79-3.31l1.13-.11c1.26,1.39,4.75,14.86,8.61,15.17s10.41,2.85,10.38,5.5.22,7.74,1.46,10.17,6.41.11,7.73-1.26,2.23.2,2,3.48l-.46,2.16-.45,2.08c.09,2.48,3.09,3.53,6.67,2.34l3.28-1,.35-.1a13.63,13.63,0,0,1,1.55,2l-.09.35-.75,2.69a6.23,6.23,0,0,0,3.91,7.44l1.94-1.1,2.91-1.64c-1.57-3.41-2.63-8.18-2.37-10.61l0-2.28,0-1.37c-.47-1.51,1.53-2.74,2.65-2.74s2,9.76,2,13.57,5.22,4.44,6.57,3.74,3.44-3.59,4.65-6.41l3.12.26,2.53.22c3.51-.09,2.08-6.29.65-8.33s3.62-.3,11.22,3.85l3.36,7.19,2.86,6.15c3.61-2.58,9-8.41,10.06-8.51s1.06,2.46.74,3.47a49.92,49.92,0,0,0-.79,8.31c.06,1.81-6.43,4.71-7.93,7.34s-4.12,2-4.4,1.47-7.74-18.06-12.08-16-8,7.3-8.14,11.69l.4,4.21c.09.91,2.37,1.86,3.73,2.12l.75.14c1-1,.29-3.83-.28-4.57s1.22-4.05,2.11-5.11,7.79,12.78,10.21,18.54,6.13,8.36,6.78,7.53,2.18-7.57,2.37-9.91,2.24-6.06,4.55-8.24l2-2.26.54-.62c-.25-1.65,3.69-1.53,3.31.34a122.07,122.07,0,0,1-4.21,13.23c-1.17,2.61,5.91,11.05,8,14.94s7.65,5,9.21,5.53,4.72,4.39,7,8.63L1082,438l.62-.58c.91-.3,4.32,2.28,7.58,5.73l4.29.84,1.39.28c1.16,2.17-.38,9.53-1.17,7.41s-6.78-1.27-8.76-.18-.44,6.12,3.42,11.18l5.68-5.52c2.48-2.4,4.86-3,6.31.77l3.34,8.71c7.12.22,14.51,2.27,15.11,3s6.24,13.62,6.17,18.83-.62,9.47-1.2,9.47l-.52.12c-2.34.53-5.63-1.8-6.56,2.92-.21,1.08.15,3.3.55,3.41,2.49.68,5.45,2,7.49,1l2.08-1c1.46-3.31,6.8-20.83,8.8-26.22s4.82-13.9,5-15.6,2.26-2.15,4.67-1l2.76-1.91,1.47-1c.56,3,0,9.28-1.32,14l6.75,2.26c1,.33,2.56.22,2.84.91a16.15,16.15,0,0,1,.72,5.18V481c-1.2.22-10.51-3-14-4.54s-3.13,5.3-1.94,7,5.37,3.77,6.63,4.75,5.57,1.19,7,.25,2.48.73,2.27,3.72l.47,2.3.48,2.34c1.09,2-5.42,6.44-7.8,7.31s-8.35,3.58-9.62,4.71.61,3,4.19,4.23l3.4.14c1.59.07,3.19-2.88,4.93-4.19s4.92-3.45,5.14-3.1l3.71,5.78c3.72-3.28,7.62-11.63,9-13s2.09-5,1.9-5.93-2.33-3.74-4.75-6.27l-2,.32-1.55.24c-1.85,4.74-3.56,5.78-3.8,2.3l-.15-1.83-.37-4.8c.37-5.26,1.19-10.44,1.81-11.52l.73-.23c.94-.29,2.54-.28,3,.41l4.87,7.48c5.19,8.39,3.39,28.31,0,33.06s2.39,8.65,4.68,8.65,7.94-4,9.1-6.47,5.27,4.47,8.2,5.45-1.95,2.46-4.85,2.32-1.27,4.82.29,6.79a15.94,15.94,0,0,0,7.57,4.72l.83,3.86.31,1.47c2.2.94,13.26-5,16.27-1.73s12.91,7.08,12.45,4.85.74-1.16,1.51.3-2.63,15.94.52,19,12.76,1.86,15.43.42,3.59,6.3,3.59,9,5.49,4.87,7.57,4.87,6,3.07,8.79,6.81l1.61,8.59.51,2.74c2.53,3.75,5.34,1.1,5.53-.31s1.92-2.4,3.86-2.19l1-.63,3-2c3-2.92,5.06-2.33,4.62,1.32l-1.6,1.7-5.24,5.59c1.31,7.43,4.72,12.74,5.48,12.47s6.16-4.3,12-9l3.09,9.06.87,2.57c.58,3,2.86,4.55,5.06,3.41l.38.56c1.55,2.25,2,5.61,3.73,7.6,1,1.24,4.29,1.83,5.24.87l5.39-5.46c1.14,5.27-.56,13-1.58,14.36s.49,6.34,1.61,8.19.47,3.07-1.44,2.7l-1.18.82c-2.48,1.71-4.4,6.55-7.53,2.23-.77-1.06,2-5.16,1.63-7.49l-.22-1.28c-3-.53-8.24-7.35-7-9.26s-4.48-3.49-6.64-3.49-4.87-6.41-5.16-8.35-2.3,1.34-4.47,7.28l-5.84-5.9L1282,619c-1.15,1.55.56,13.18,4.32,14.28s12.83,2.38,15.15,3.15,3.56,6.11,2.75,11.89l2.21,2.78,3.72,4.68c5.12,4.24,10,7.51,10.84,7.26l.77-.16,3.52-.75c3.76-.57,13.09,4.1,15.29,6.48s8.58,10,9.91,7.72,4.72,1.59,5.78,4.18-1.67,3-6.06.83l-3.16-1.17c-.56-.2-1.92,1.11-2.27,2.06s-.45,3.15.09,3.65a110.18,110.18,0,0,0,11.27,9.49c.91.65,3.66-.22,4.15-1.31l1.65-3.69c3.23-2.18,10-13.27,13.94-13.45s4,1,.15,2.64l-1.15,1.5-1.27,1.64c-.63,2.65-1,11.25-.89,19.11l3.07,1.21c2.14.85,6,.26,7.23-1.52,1.74-2.56.76-5.66-3.1-6.18l-1.32-.18c-1.66-2.9,3.16-7.45,5-8.06a9.58,9.58,0,0,1,6.38.43l1.48-.13c6.14-.55,4.33,4.79,5.35,8.74l1.13,4.4c4.09-.37,11.44-1,12.66,1.72s-1.72,8.73-3.19,10.19-6.33,6-7.93,6.17-2.46-6.22-3.38-8.41-2.94-5.69-3.32-7.54-4.71,1.59-6.1,3.29,3.5,7.92,5.76,9.71,4.69,6.57,4.89,7.87,9.89,1.8,12.17,5.22,12.59,11.41,16.12,12.16,13.16,14.83,13.34,16.85,2.86,1.67,3.68,1,2.59,2.52,3.08,4.18,3.91-4.34,4.92-6.79-4.4-9-6.59-10.64-7.66-5.56-12.17-8.73l-4.61-2.13-.32-.15c-1.7,4.47-.64,13.58.9,15.36s3.94,1.55,4-1.7-3.38-21.39-4.34-24.23,4.24-4.34,5.59-2.18,7.77,9.51,14.24,16.34l4.75,0c2.28,0,5.82,1.72,6-3.25l.28-6.4a67.16,67.16,0,0,1-8,1.83c-.28,0,.36-4.11,1.43-9l-1.25-1.2-4.75-4.56c3.23-2.42,13-6,15.68-6.77s7.55,4.74,10.8,12.31l5.32,5c1.35,1.26,2.24,3.23,3.63,4.37.72.6,2.38-.41,3.07.2l2.89,2.53c2.81,3.2,7.37,14.15,8.86,20.93s3.26,15.75,3.92,19.92l-3.71-3.61c-3.43-3.33-.49-4.53.54-7l.5-1.19a22.93,22.93,0,0,0-6.92-6.71l.07-3.69c0-.6-2.7-2.08-2.94-1.78-1.88,2.35-3.08,5.77-5.26,7.4-2,1.49-5,1-7.36,1.84-.35.13-.19,3.35.27,4.92l.2.69c1.36.26,14.51,4.7,17.07,9.42s7.3,9.83,7,3.55-2.38-23.12-4.53-37.43l5.71,1.72,3.45,1.05c3.92-.13,7.88.07,8.71.59s-1.81,6.39-2.93,8.22,1.14,6.89,2.12,8,5.14-2,6.58-3.75,12,2.89,14.84,4.71,5.63-6.3,5.77-9-.76-4.86-2-4.73l-.69.32-4,1.83c-3.45-2.63-7-7.69-7.78-11.23l-1.79-1.35-1.88-1.41c-4.37.34-9.54-1.83-10.81-3.78s-2.21-4-2.1-4.6l.64-.21c4.37-1.45,8.77-2.81,13.2-3.92l4.56-1.14c1.75-4.79-1-10.31-1.61-8.62a11.05,11.05,0,0,1-4.13,4.83l-.32-.41-2.91-3.77c-2.75,2.32-11.44,9.87-14.63,9.3s-5.8-10-5.8-13.8-2.91-4-3.49-3.37-1.83-.74-2.75-3l.26-1.79.31-2.07c-.5-1.75-9.28-4.27-10.12-5.09s-3.19-3.47-3.82-4.23-3.2,2.56-3.38,4.35a21.23,21.23,0,0,1-2.45,6.92l-1.51,1.39-.4.37a10.36,10.36,0,0,1-3.15-6.13l.13-1.89.29-4.11c1.13-4.51-2.13-17-4.79-19.23s-2.84,2.71-2.29,4.55-3.87,7.25-6,9a25.48,25.48,0,0,0-5.79,7.31l.4.46a12.81,12.81,0,0,0,4.91,3l1.39.58c2.43.39.46,8.12-.84,10.55s-11.92-1.25-15.75-.62-11.47-5.57-13.08-7.81-8.27-5-11.17-4-4.51-.84-3.58-4.13L1411,688c.51-2.17,1.62-6,1.2-6.31l-2.75-1.74c-3.34-1.21-6.6.9-6.88,2.53s-4-5.42-5.14-8.19,1.28-3.95,5.38-2.65l3.1.61,2,.38c2.81-.17-7.44-11.74-8.82-11.81s-2.11-12.35.4-16.31,6.85.54,9.65,10l2.47,6.39.69,1.77c2.41,1,5.65-.9,6.13-2s3-6.65,3.81-8.45,3.8-2.85,4.68-2.69,1.1,7.91.48,17.24l-1.42,8.64c-.2,1.22,1.94,3.55,3.4,4.48l3.37,2.17c1.65,4.11,4.83,8.38,7,9.48l1-.87a10,10,0,0,0,2.83-6.59l0-3.55c-.89-3.93-5.08-22.58-8.54-23.61s-.93-5.13,1.06-6.34,8.72,3.85,10.62,6.11,6.06-.1,9.23-5.25l-6.42-2.4c-1-.36-2.84,0-3-.47l-3.6-12.74c-7.2,4.69-13.75,3.28-14.56-3.13l5.6-6.46,4.64-5.36c-1.88-4.64-5.18-9.53-7.34-10.87l-2.47,2c-.84.68-3.36-.32-4.4-1.47l-5.44-6.06c4.62-3.18,13.8,6.51,18.08,6.79s6.32,2.88,4.55,5.8l.53,1,1.3,2.53a3.1,3.1,0,0,1-.13,5.29,57.59,57.59,0,0,0-6.09,3.86l-1.68,1.85c-.54.59-.56,2.86-.05,3.66,2,3.19,3.94,1.71,6.64.28l3.53-1.87c3.84-.22,12,9.33,13.55,12.4s3.64,5.71,4.35,5.48-.65-6.88-1.46-9.6,4.64-4.28,6.34-4.1.29,10.58,1.61,12.13,4.44,6.73,3.87,8.15a16,16,0,0,0-.63,6.29l.79,1.56,1.8,3.59a59.88,59.88,0,0,1,8.24-8.93c1.53-1.18,1.62-4.19,1.18-5s1.87-1.45,2.89-1.47,3,10.77,7.38,11.69,2.55,1.45-4,1.18l-2.74,2-2.79,2.05c-1.9,5.23-6.65,4.43-7.72,3.26s-3.62-1.51-5.67-.75l-1.42,1.35-.38.36c1,2.4,8,9,10.44,10.66s5.93-1.75,6.29-3,5.62-4,11.68-6.09l3.8,8,.82,1.74c2.39,1,6.31-3.08,7.06-5s2.3,3.85,2.61,6.18,7.78,2.19,10.51,1.42,6.81,6.36,7.51,9.18,2.7,9.7,4.45,15.28l5.23-6.58c.46-.57,4,1.19,4,1.42l-.42,2.81c-.78,2.77,3,12.72,4.74,15.75a26.66,26.66,0,0,0,7.81,8.2l1.33-4.25a14.24,14.24,0,0,1,2-4.59c.49-.6,2.11-.26,3,.2l.45.23c.08,1.27-1.45,5.11-3.4,8.54l3.38,3.17c2.22,2.09,4.55,4,6.89,5.94.08.07.73-.84,1.11-1.3s.73-1.22,1.15-1.27l.34,0c.72,1,1.22,6.12,1.11,11.39l.35,5c.07,1.05,2.17,2.68,3.28,2.62s2.23-1.81,3-3.12l.71-1.22c.31-1.42,5.15.24,6.84,1.27s-6.84,5.86-8,10,.59,8.75,1.64,9.21-3.58,7.32-6.16,8.69-13.73,2.5-17.06,2.5-3.67,3.26-.74,7.24l2.18,4.31,2.21,4.35c4.53,3.22,5,9.86,3.21,12.16s8.76-.81,12.21-2.23,1.31,10.88,2,16.39,2.7,12.52,4.5,13.23,2.17-2.81,1.66-4.67,4.46-5.54,6.81-6.47,3.3,1.29,2.11,4.94l-1.08,3.33c-1.09,3.33-3.71,7.38-2.91,9.82l1.42,4.3c4.38,3.35,7.5,3.76,6.93.92l-1.05-2.23c-3-6.34-.08-10.07,3.21-14.73l5.86-8.3a112.81,112.81,0,0,1,13.3,3.12,25.63,25.63,0,0,0,6.51,1.17c1.21-.09.86-5.42-.77-11.83l-7.56,3-1.56.61a6.5,6.5,0,0,1-3.54-6.26l.82-.37c2.83-1.3,7.2-1.41,4.81-6.59l-.91-2c-4.28-.2-8.26,5.33-8.4,7a12.39,12.39,0,0,1-1,4c-.21.25-5.28-4.32-7.63-3.93s-11.82-1-13.74-3.16-3.78-6.9-4.12-10.59l-.43,0-7-.37c-.92-6.74,1.53-13.32,2.64-14s5.37-7.79,9.17-7.92,12.06-1.53,11.33-1.24-5.78-.59-11.2-2l-.71,9-.5,6.25c3.94,2,8.49,4.47,10.12,5.54l1.19-.36c1-.3,1.91-2.54,2.16-4.09l.81-4.93a113.4,113.4,0,0,0-10.27-12.07l-.53-2.11-.63-2.48c-2.71-1.84,2.27-8.71,5.44-11.08s3.38,2.27,2.94,3.56,1.38,3.49,4,4.9l2.26,1.61c1.32.94,1.69,3.79,2.5,5.79l1.31,3.23c1.42,3.51,8.73,3.07,10.67,1.73s-1.33,7.48-3.11,11.09-.35,6.3,3.17,6l2.53-.62,1.24-.31c1.68,1.47,1.56,5.74,2.44,6.51s6.45,2.88,8.26,3.87.31,4.15-3.34,7l-.13,2.32-.24,4.57a114.51,114.51,0,0,0,15.12,1.74l0,4.14v1.36c-.59,1.46,2.83,10.52,4.46,13.38s8,12.76,8.5,16.07,1.12,6.61,1.29,7.34l.36.24,2.18,1.44c2.46,1.46,8.47,6.46,7.18,8s4.41,10,7,12.77,4,6.18,3.07,7.55l-.58,2.13-3.35,12.51c-3.49,13.84-8.19,29.58-10.45,35l-5.78-.71-2-.24c-2.23.11-2.61,5.22-.85,11.35l1.71,4.79,1.62,4.55c-2.42-.56-6.45,2.19-7.06,3.6s-13.07,16.74-20.21,18.08-5.72-3-4.2-5.69,5.91-7.93,4.58-9.08-7.86-6.9-9.53-5.22-1.16,5.12,1.12,7.65l1.85,2.5c1.45,2,2.86,6.22,3.76,6l2.26-.49c-.7-3.48-12-7.95-13.16-8.59s-6.27-7.2-8.76-7.87-11.58,4-14.29,6-6.31,3.76-8,4S1580.79,980.42,1580.38,981ZM1208.09,550.31c0-3.79-1.76-3-3.91,1.74l-2.34,1.88-2.69,2.16c-3.87.86-6.32-3.6-5.44-9.91l-3.62-2.67-3.6-2.65c-4.22-3.36-5.85-.34-3.62,6.71l3.88,3,3.81,3c6.26-.48,11.61-2.81,11.69-3.54a60.08,60.08,0,0,1-.09,6.6C1202,561,1208.09,554.11,1208.09,550.31ZM1628.33,959c.52-1.87-5.84-23-7-23.12l-1.33-.14c-1.55,1-2.06,2.66-1.12,3.6l.56,1.06,1.63,3.1c-1.94,2-5,2.4-6.71,1l-.27-1.73-.55-3.5c.21-4.26-9.89-4.69-13.44-3.63s-5.08,5.55-3.41,10l2,.56c8,2.22,6.38,5.92,2.35,11.29-.51.69.35,4,1.33,4.8s3.15.31,4.19-.6c1.63-1.44,2.83-3.64,4.06-5.65,1.51-2.44,9.42-3.79,10.84-1.45l1.45,2.39c1.24,3.27,3.53,4.69,5.1,3.15Zm-84.69-193.27-3.8,1.84c-3.91.11-12.36,4.09-18.79,8.85l2.22,9.28,1.47,6.13c3.63,7.37,7.9,8.33,8.32,6.68a5.86,5.86,0,0,0-.9-5,6.46,6.46,0,0,1-1.39-3.94c.17-.45,6.49-2.35,7.69-4.75s6.52-13,9.8-13.36,2.16-3.42-2.47-6.78ZM585.05,147.57l1.79,1.21,4.33,2.93c4.88,3,13.27-4.19,11.55-7.31a36,36,0,0,0-5.17-7.09c-.56-.38-3.17,0-5.79,1S582.2,144.73,585.05,147.57ZM376.73,20.69c-2.19-1.61-4.55-1.41-5.24.44l.24,1.54.31,2c1.13,2,.42,3.5-1.58,3.31l-1.81-.21-1.13-.14c-1.23-.22-1.86,2.07-1.69,3s5.37,5.61,7.64,7.08a4.3,4.3,0,0,0,6.33-1.73C381,33.5,378.92,22.31,376.73,20.69ZM532,109.23a71.27,71.27,0,0,0,10.87,2.54l3.09,2.61.67.57c1.87-1.28,2.15-5.09,1.67-6.11S538,100.63,536.62,97.6s-4-3.51-5.84-1S529.84,108.43,532,109.23ZM795.31,268.78c.55-1.94.46-6.06,0-6.21l-4.16-1.3c-3.07-3.74-9.23-6.64-10.62-6.58s-2.14,5.31-2,7.26,2,6.32,4.08,9.72l3.82-3.62,6.69-6.33c-.23,5.7.53,9.6,1.69,8.68Zm311,214.31a58.7,58.7,0,0,0-10-15.79l-1.1-1.29c-3.33,1.44-6.87,5.88-5.68,7s9,9.35,10.88,13.36,4.94,3.64,6.86-.82Zm362.57,263.73,2.4-1.56c1.62-2.66.87-7.44-.8-8.11s.75-2.72,2.56-3.45-1.64-3.23-3.08-3.78-6.49,6.66-6.65,11.89,1.58,8,3.85,6.12ZM439.05,56.18a40.31,40.31,0,0,0,6.32,7.65l1.82.18,1.78.18c2-1.2,2.41-4.84,1.9-5.83s-3.6-4-6.86-6.63l-2.45-3-1.64-2c-1-3.2-2.45-5-3.3-4S437.43,53.58,439.05,56.18ZM724.27,214.81c-2.12-1.55-9.95-3.17-12.36-1.93s-4.55,4-4.77,6l.21.06,3.61,1c3.87.63,15-3.63,15.4,0s1.43,5.72,2.26,4.72S726.38,216.35,724.27,214.81Zm915.59,643.51,2,3.64c5.22,1.59,4.5-9,2.6-13.54s-4.34-.72-5.4,8.5ZM479.7,72l-.93,0-5.18.25a145.25,145.25,0,0,0-11.43-12.43l-1.09.79c-3.87,2.8-1.46,5.89.77,8.85l.87,1.16c.23,2.53,3.21,4.59,6.63,4.59S482,73.8,479.7,72ZM902.57,328.62l-.36-.85c-2.12.12-3.64,1.45-3.38,3l.38,1.31c.16.54,1,.87,1.06,1.38l1.45,11.8c5.09,2.84,6.76-1.63,3.7-9.91ZM1567.24,917.9c-3.7,1.35-7.4,3.22-8.21,4.16l-.18,1c-.2,1.1,0,3.22.47,3.42a34.88,34.88,0,0,0,5.92,1.48l2.31.54c2.42,1.24,9,6.29,11,4.35s2.33-3.72.83-4S1570.94,916.56,1567.24,917.9Zm-29.9,2.61c14.79-8.48,14.79-8.48,13.69-25.15Z"/></g></g></svg>