<?xml version="1.0" encoding="UTF-8" standalone="no"?><svg xmlns="http://www.w3.org/2000/svg" xmlns:xlink="http://www.w3.org/1999/xlink" contentScriptType="text/ecmascript" fill="#000000" width="843" zoomAndPan="magnify" contentStyleType="text/css" viewBox="-8.7 -1.2 843.2 627.3" height="627" data-name="Layer 2" preserveAspectRatio="xMidYMid meet" version="1"><g data-name="Layer 1"><g><g id="change1_1"><path fill="#51233c" d="m661.14.81c17.02-1.98,40.62-.54,56.28,6.83,6.99,3.31,28.72,17.42,34.98,22.43,44.94,36,82.16,135.22,76.97,191.79-2.27,24.88-20.55,54.76-29.38,78.52-24.99,67.13-24.06,140.56-30.45,210.65-2.93,32.07-1.7,90.85-37.73,104.6-24.16,9.22-54.37,3.52-60.44-24.66-1.17-5.43-3.1-19.46-2.93-24.81,1.87-63.19,21.05-151.83,3.68-212.44-4.48-15.61-6.58-16.35-20.35-8.68-39.49,22-87.9,84.42-115.03,121.45-53.86,73.51-79.88,146.79-183.79,153.74-88.77,5.92-203.48-1.24-291.5-16.32-26.21-4.49-70.13-12.15-59.96-48.15,5.97-21.13,51.47-41.85,70.83-50.86,44.91-20.92,87.4-38.5,131.66-61.21,24.88-12.76,39-16.61,65.14-24.41,81.07-24.19,139.34-104.54,178.65-174.93C491.34,166.33,560.15,12.59,661.14.81h0Z"/></g><g id="change2_1"><path fill="#c9b8ff" d="m28,567.33c-2.06-1.8,2.27-5.47,3.45-6.86,17.52-21.23,118.17-58.26,149.7-73.03,20.13-9.43,39.59-20.46,59.71-29.98,8.34-1.83,35.74,11.92,47.89,13.32,91.45,10.42,162.32-81.7,206.36-149.26,28.15-43.21,53.28-88.25,82.98-130.54,25.43-36.21,84.22-118.28,119.55-139.89,14.13-8.64,20.64-10.13,35.14-1.37,39.1,23.62,73.19,125.8,69.06,169.85-2.02,21.58-19.18,48.5-27.1,69.34-29.77,78.29-24.6,163.98-34.82,245.29-2.39,18.94-1.97,58.57-28.85,58.58-15.51,0-15.86-19.14-14.97-31.24,4.32-59.95,20.06-161.38,1.77-217.47-17.37-53.3-55.11-28.73-85.53-4.02-60.35,49.01-99.2,117.27-144.81,178.92-32.75,44.27-53.93,68.75-112.47,73.51-86.01,6.99-205.98-.85-291.3-16.1-5.51-.99-33.35-6.95-35.75-9.04h0Z"/></g><g id="change3_1"><path fill="#f471a4" d="m680.07,27.78c-3.86,7.92-12.48,11.62-18.43,17.16-90.19,83.98-143.03,200.65-213.86,298.16-35.93,49.48-91.57,106.32-158.04,100.25,2.4-6.11,10.25-6.22,15.37-8.73,152.95-75.07,169.47-232.48,270.43-347.21,26.38-29.96,61.82-62.34,104.52-59.63h0Z"/></g></g></g></svg>