<?xml version="1.0" encoding="UTF-8" standalone="no"?><svg xmlns="http://www.w3.org/2000/svg" xmlns:xlink="http://www.w3.org/1999/xlink" contentScriptType="text/ecmascript" fill="#000000" width="909" zoomAndPan="magnify" contentStyleType="text/css" viewBox="-54.5 -4.5 908.5 1183.7" height="1184" preserveAspectRatio="xMidYMid meet" version="1"><g data-name="Layer_1"><g><g id="change1_1"><path fill="#244668" d="M148.06,1065.4c24.95,34.98,68.41,52.69,106.75,68.32,6.74,2.74,13.35,5.44,19.95,8.27,36.61,14.58,73.15,21.97,108.63,21.97,54.04,0,103.37-17.84,142.41-51.4,37.76-30.49,64.01-70.75,82.7-102.47,23.26-40.03,39.95-72.36,54.09-104.82,35.38-81.13,64.85-173.27,90.07-281.7,22.31-96.1,36-173.36,43.09-243.4,5.83-75.27,13.09-168.94-20.92-251.95-16.66-38.23-52.17-67.15-108.53-88.41-27.05-10.33-58.65-17.37-93.94-20.93-18.56-1.87-43.07-4.02-68.14-4.02-20.18,0-38.42,1.35-55.93,4.16-50.18,8.92-97.54,43.88-145.03,107.2-23.26,33.77-43.45,71.27-59.99,111.46-1.35,3.28-.82,7.04,1.38,9.83,1.88,2.38,4.73,3.73,7.7,3.73.51,0,1.03-.04,1.54-.12,15.1-2.4,30.55-3.62,45.92-3.62,2.72,0,5.43.04,8.15.11,45.56,1.27,91.08,13.75,131.63,36.09,7.09,3.9,14.25,8.28,21.28,13.02,1.64,1.11,3.56,1.68,5.49,1.68,1.19,0,2.38-.22,3.52-.65,2.99-1.15,5.23-3.68,6.01-6.79,8.52-34.13,38.55-96.85,48.05-114.82,23.89-47.79,71.02-96,122.44-96,25.94,0,50.11,12.35,71.86,36.74,7.72,8.61,14.43,19.38,20.53,32.99.06.14.03.53-.15.99-.34.84-1.01,1.47-1.49,1.65-.26.1-.56.16-.87.16-.23,0-.47-.03-.68-.09-2.04-1.45-3.53-4.78-5.25-8.59-1.53-3.41-3.26-7.25-5.88-10.76-18.58-29.26-50.05-48.15-80.28-48.15-8.07,0-16.07,1.29-24.08,3.94-55.82,20.63-85.69,73.27-105.48,116.83-1.13,2.48-1.17,5.32-.12,7.84,1.05,2.52,3.1,4.49,5.66,5.43,12.97,4.79,28.71,18.79,32.89,24.9,18.02,23.85,21.57,59.74,9.29,93.76-1.18,2.51-2.21,5.3-3.3,8.23-1.53,4.14-5.62,15.14-8.38,15.14-.19,0-.39-.03-.6-.06-.6-.11-1.2-.17-1.8-.17-3.31,0-6.44,1.67-8.27,4.53-2.16,3.37-2.05,7.71.26,10.97.57.8,1.11,1.61,1.65,2.45,12.5,19.17,22.57,39.42,29.95,60.2.27.76.57,1.54.87,2.33.54,1.41,1.05,2.74,1.32,3.82.07.29,1.26,4.03,1.26,4.03.85,2.65,1.65,5.32,2.43,8.03,1.47,5.03,2.85,10.47,4.35,17.12,3.16,14.09,5.27,28.55,6.25,42.97.35,5.11,4.55,9.09,9.68,9.16,7.14.09,15.29,3.44,17.98,6.22,16.38,17.82,18.85,57.03,5.5,87.41-5.33,12.13-17.7,32.48-40.72,32.48-1.9,0-3.88-.14-5.58-.37-1.17-.45-2.36-.66-3.54-.66-3.74,0-7.3,2.15-8.94,5.75-3.37,7.38-7.08,14.74-11.04,21.86-11.06,19.9-25.54,39.43-43.05,58.06-15.35,16.33-33.09,30.97-52.71,43.5-2.63,1.68-4.3,4.5-4.51,7.61-.21,3.11,1.06,6.13,3.43,8.15.38.32.5.99.53,1.59-7.23,68.47-26.85,103.18-58.32,103.18-.51,0-1.9-.06-2.07-.06-2.42,0-4.77.9-6.58,2.53-1.94,1.75-3.1,4.2-3.23,6.81-2.85,58.33.97,132.55,35.32,154.86.39.25.8.48,1.23.68,9.51,4.4,19.68,6.63,30.21,6.63,28.93,0,62-17.82,88.4-47.6,11.92-13.18,23.66-27.85,35.9-44.84.1-.13,1.16-1.78,1.16-1.78,1.6-2.51,5.86-9.16,7.86-9.55,0,0,.43.02,1.2.48.53.33.95.99,1.11,1.72.06.27.16.95-.16,1.44-13.65,20.59-28.41,39.61-42.87,55.18-27.92,31.67-61.91,49.84-93.24,49.84-6.01,0-12.01-.67-17.7-1.95-46.42-11.18-50.29-69.72-53.4-116.76-.22-3.29-.43-6.49-.63-9.17-.74-25.8.65-50.74,4.14-74.12.05-.35.09-.7.1-1.05.19-4.71,1.83-7.19,2.55-7.6,2.82-1.62,4.66-4.52,4.91-7.77.85-10.95,1.14-22.6.87-34.61-.07-3.05-1.55-5.89-4-7.69-1.71-1.25-3.75-1.91-5.82-1.91-.91,0-1.82.13-2.72.38-26.03,7.5-53.03,11.3-80.23,11.3-7.63,0-15.19-.29-22.42-.87-1.51-.13-3.02-.25-4.51-.42-.36-.04-.88-.08-1.23-.08-1.37-.15-2.72-.31-4.41-.53l-2.36-.25c-.16-.01-.61-.03-.77-.04-.75-.11-1.49-.2-2.24-.3-.5-.16-1.01-.27-1.53-.34-14.7-2.09-28.13-4.92-41.07-8.65-21.02-6.06-41.57-14.65-61.06-25.56-9.86-5.52-19.51-11.7-28.7-18.37-1.7-1.24-3.73-1.87-5.77-1.87-1.35,0-2.7.28-3.97.84-3.2,1.41-5.4,4.42-5.79,7.9-10.1,90.98-6.48,213.98,33.98,286.36.18.32.37.62.58.91Z"/></g><g id="change2_1"><path fill="#f2bc57" d="M583.04,561c22.39-196.53-187.12-361.9-373.1-294.23C-10.41,335.67-54.5,643.93,138.11,771.68c172.41,124.73,432.1,2.06,444.93-210.68ZM515.5,619.48c-129.25,291.47-550.86,96-411.61-191.28,140.17-245.4,508.8-75.72,411.61,191.28Z"/></g><g id="change2_2"><path fill="#f2bc57" d="M194.95,266.29c12.04-6.5,42.04-4.1,40.81-22.55,1.45-13.85,21.86-33.67,15.57-49.9-10.32-9.28-27.35,2.49-35.36,8.78-10.08,6.66-47.93,56.4-21.02,63.66Z"/></g><g id="change2_3"><path fill="#f2bc57" d="M530.54,362.73c19.06,16.06,25.21-25.46,31-39.64,10.73-38.3-4.55-89.32-47.91-100.18-15.47,3.84-17.7,33.92-25.61,47-26.16,55.13,13.76,46.45,42.51,92.83Z"/></g><g id="change2_4"><path fill="#f2bc57" d="M599.29,531.81c-5.39-.38-10.35,4.25-10.31,9.67-.45,31.98-6.21,63.08-16.96,92.98-2.47,6.32,2.99,13.66,9.75,13.11,37.58,6.27,67.64-105.64,17.52-115.76Z"/></g><g id="change2_5"><path fill="#f2bc57" d="M445.77,793.09c-13.99-4.89-27.42,11.2-41.7,13.97-5.21,1.4-8.83,6.4-7.62,11.82,1.56,16.84.45,34.94-1.53,51.84-4.81,3.62-7.84,8.11-7.66,14.65-1.21,9.94,10.27,12.73,17.87,10.37,26.57-4.35,53.82-79.46,40.63-102.63Z"/></g><g id="change2_6"><path fill="#f2bc57" d="M95.59,742.83c-23.17-13.31-18.58,30.7-19.66,42.13-2.06,19.89,18.4,55.23,29.58,28.69.54-15.44,1.24-36.57,4.93-49.68,2.41-9.94-9.69-14.47-14.86-21.15Z"/></g><g id="change3_1"><path fill="#fffbf2" d="M519.76,482.57C439.32,198.91,24.94,303.39,88.23,591.1c81.21,282.14,493.51,178.28,431.53-108.53ZM289.93,533.02c-3.22-4.71-8.5-2.05-12.46-3.52-4.82-4.58-94.43-94.82-66.32-77.98,16.83,15.65,62.6,80.2,81.73,76.53,44.34-30.33,83.59-61.12,120-91.21,60.98-40.19-123.61,108.62-122.95,96.18Z"/></g><g id="change4_1"><path fill="#17334f" d="M366.13,899.91c-63.82-4.58-127.73-12.3-190.29-25.93-15.31-3.36-30.34-7.67-45.63-11.14-4.34.76-8.59-1.09-11.45-4.34-4.39-5-3.83-13.58,1.52-17.72,9.41-6.83,21.34.6,31.47,2.11,50.06,13.37,100.69,20.58,151.78,26.64,21.49,2.74,43.1,4.59,64.71,5.93,6.67.5,11.76,6.69,11.18,13.29-.58,6.72-6.7,11.68-13.29,11.16Z"/></g><g id="change4_2"><path fill="#17334f" d="M391.86,1058.66c-68.4-7.39-136.89-13.91-205.12-22.82-15.64-2.54-32.47-2.02-47.27-7.92-15.32-8.68-1.66-31.8,13.07-21.36,52.97,7.44,106.2,13.35,159.38,19.14,27.35,2.86,54.77,5.04,82.07,8.5,6.62.84,11.76,6.44,11.16,13.29-.54,6.48-6.73,12.02-13.29,11.18Z"/></g><g id="change4_3"><path fill="#17334f" d="M486.94,243.11c-69.88-22.33-139.54-44.57-212.85-49.94-21.09,1.2-20.83-28.48,0-24.63,75.89,5.18,149.37,28.33,221.39,51.56,14.95,5.92,6.72,28.25-8.53,23.01Z"/></g><g id="change4_4"><path fill="#17334f" d="M552.05,140.78c-57.7-26.66-117.04-49.74-177.69-68.63-11.21-.05-19.59-11.42-11.59-20.95,6.18-6.84,15.6-3.7,23.11-1.25,60.26,19.44,119.73,42.05,177.1,68.83,14.2,7.54,3.67,28.84-10.93,22Z"/></g><g id="change4_5"><path fill="#17334f" d="M790.16,346.74c-54.03-16-108.84-26.58-163.69-39.03-20.47-4.17-40.92-10.45-61.76-11.79-12.09-2.04-13.19-20.3-1.57-23.92,9.99-2.16,20.34,2.09,30.28,3.41,68.33,15.4,137.4,28.47,204.66,48.1,15.05,5.66,7.38,28.21-7.92,23.22Z"/></g><g id="change4_6"><path fill="#17334f" d="M764.91,544.45c-59.08-12.11-118.12-26.43-174.95-46.85-15.01-5.66-7.45-28.19,7.92-23.23,12.52,4.91,25.37,8.96,38.26,12.73,43.83,12.66,88.29,25.07,133.23,32.88,16.61,2.97,11.98,27.09-4.46,24.46Z"/></g><g id="change4_7"><path fill="#17334f" d="M704.13,804.15c-58.51-24.4-116.73-49.7-177-69.75-15.06-5.47-7.52-28.03,7.94-23.23,47.86,16.05,94.69,35.2,141.27,54.58,9.6,4.1,19.2,8.24,28.73,12.52,6.06,1.72,13.64,8.33,12.01,14.31-.4,6.57-6.27,12.07-12.95,11.57Z"/></g><g id="change4_8"><path fill="#17334f" d="M640.24,962.29c-82.97-15.69-168.22-22.59-252.7-20.35-16.21-1.19-14.66-25.28,1.76-24.51,84.42-2.79,168.95,5.74,252.15,19.64,18.31,1.52,17.51,27.13-1.21,25.22Z"/></g><g id="change5_1"><path fill="#0a253a" d="M432.82,1085.59c-.42-.09-.8-.22-1.21-.31-.12-.03-.24-.04-.36-.07l1.57.38Z"/></g><g id="change5_2"><path fill="#0a253a" d="M.37,552.6c-.08,2.49.33,5.1.52,7.48.46,5.81,1.02,11.6,1.84,17.38,6.92,49.23,25.7,96.12,54.97,136.34,3.81,5.24,7.86,10.31,12.02,15.28-6.64,8.15-5.63,25.84-7.71,34.99-3.39,27.56,1.19,64.31,30.48,75.83.73.33,1.47.57,2.22.74-1.04,77.26,3.56,195.77,55.55,250.55,46.09,42.81,153.53,83.1,216.09,87.53,5.49.33,10.87.48,16.19.48,116.36,0,193.24-76.87,246.93-175.93,40.91-70.69,71.35-146.83,96.03-224.56,52.05-173.2,128.5-475.67,66.9-646.8-32.22-85.37-131.93-118.08-215.34-127.31-51.48-4.99-105.04-9.09-155.31,5.56-74.82,28.33-128.48,94.74-164.59,163.9-1.73,3.32-3.43,6.65-5.15,9.98-6.34-15.9-30.2-4.09-40.48,3.41-24.38,17.16-39.39,46.34-42.37,75.55.18,1.49.61,2.78,1.15,3.96-37.26,17.84-70.83,43.39-97.76,74.72-30.46,35.5-52.95,78.29-63.85,123.86C2.92,489.54-.18,514.11,0,538.79c.02,3.49.12,6.98.25,10.45.04,1.09.04,2.22.12,3.36ZM85.74,784.57c-.26-11.65.94-23.28,2.95-34.75,3.99,3.95,8.09,7.79,12.3,11.52-3.98,14.18-4.73,36-5.28,51.81-7.35-6.91-9.58-18.87-9.97-28.58ZM311.34,131.79c34.37-45.82,80.09-92.69,138.66-103.11,40.22-6.44,81.03-4.1,121.36-.04,30.46,3.07,62.5,9.28,91.43,20.33,41.69,15.73,84.42,40.47,103.03,83.16,31.88,77.79,26.51,165.11,20.14,247.27-8.19,80.9-24.43,162.58-42.86,241.94-22.17,95.3-50.33,190.16-89.51,279.99-15.8,36.27-33.41,69.1-53.59,103.81-21.75,36.92-46.8,72.65-80.38,99.77-68.91,59.22-159.82,60.37-241.23,27.94-42-18.01-94.84-34.62-122.34-73.17-40.03-71.61-42.18-195.88-32.77-280.55,9.51,6.92,19.39,13.33,29.64,19.05,19.95,11.16,41.16,20.1,63.14,26.43,13.94,4.03,28.08,6.9,42.4,8.94.56.17,1.15.31,1.76.38.65.08,1.3.15,1.96.25.42.06.84.08,1.25.1.79.08,1.57.17,2.36.25,1.44.19,2.88.36,4.33.52.38.04.79.08,1.19.08,1.57.17,3.16.31,4.76.44,7.73.61,15.48.9,23.24.9,28,0,56.03-3.94,82.94-11.7.25,11.2-.02,22.48-.87,33.67-4.74,2.74-7.2,9.09-7.45,15.71-3.74,25.09-4.97,50.52-4.24,75.85,3.45,48.03,4.46,121.7,61.91,135.26,6.59,1.46,13.14,2.15,19.64,2.15,38.89,0,75.35-24.51,100.61-53.16,15.42-16.61,30.3-36.06,43.69-56.25,3.7-5.58,1.63-13.44-3.93-16.92-11.3-6.73-18.12,5.31-23.38,13.44-11.01,15.29-22.57,30.01-35.21,44-25.51,28.77-68.16,56.71-107.21,38.65-32.07-20.81-33.04-101.42-30.84-146.19.68.03,1.39.1,2.05.1,51.32,0,63.88-71.75,68.14-112.52.07-4.33-1.62-7.51-4.1-9.6,19.97-12.74,38.49-27.76,54.7-45,17.09-18.18,32.34-38.17,44.48-60.01,4.11-7.39,7.8-14.97,11.29-22.63.64.22,1.27.45,1.98.59,2.47.34,4.89.52,7.25.52,57.21,0,76-99.85,42.44-136.36-4.95-5.14-15.8-9.29-25.22-9.38-1.03-14.98-3.04-29.87-6.33-44.46-1.34-5.95-2.8-11.87-4.51-17.72-.81-2.78-1.63-5.54-2.51-8.29-.36-1.11-.69-2.26-1.07-3.38-.59-2.42-1.67-4.83-2.47-7.1-7.77-21.88-18.3-42.83-30.97-62.27-.62-.94-1.29-1.85-1.92-2.79.85.16,1.67.25,2.46.25,12.43,0,16.05-19.66,20.75-29.4,12.27-33.64,11.7-74.05-10.53-103.47-5.18-7.6-22.57-22.73-37.32-28.16,21.64-47.64,49.96-93.24,99.94-111.71,36.34-12.01,73.63,10.01,92.88,40.6,5.49,7.1,6.62,17.93,14.77,22.55,2.97,1.36,6.46,1.48,9.53.29,5.95-2.3,9.8-9.8,7.02-15.88-5.73-12.79-12.77-25.01-22.15-35.46-75.26-84.37-168.93-21.5-210.39,61.43-8.96,16.96-39.82,80.91-48.81,116.91-7.02-4.73-14.37-9.34-22.03-13.55-41.64-22.94-88.55-35.98-136.09-37.3-18.73-.52-37.46.8-55.92,3.73,15.83-38.43,35.44-75.49,59.03-109.74ZM397.78,881.12c3.49-1.68,6.23-4.9,6.84-8.93,1.8-11.85,2.07-24.09,2.19-36.08.12-5.57.55-13.06-.81-19.31.55-.21,1.11-.39,1.65-.6,11.14-4.35,22.02-9.42,32.61-15.05-2.84,26.07-12.12,77.63-37.89,85.15-1.78.3-3.57.26-5.36.18.23-1.79.51-3.57.77-5.36ZM588.2,615.89c6.68-24.1,10.14-49.16,10.52-74.27,3.85.18,7.72,1.12,9.56,4.78,7.06,12.2,7.42,27.08,6.18,40.79-2.38,19.49-10.18,49.39-33.29,50.52,2.58-7.18,4.99-14.43,7.03-21.82ZM513.65,232.75c35.42,12.14,47.66,54.03,38.42,87.74-2.67,11.6-7.44,22.53-12.74,33.16-.52,1.07-.79,2.18-.95,3.31-14.63-19.39-31.57-36.92-50.41-52.24,0-.12.02-.22.02-.33,2.07-12.6,6.9-24.51,11.22-36.46,4.7-11.33,9.43-23.19,14.43-35.17ZM222.07,210.32c5.26-4.18,10.97-8.34,17.72-9.53,1.45,0,2.83-.28,4.16-.7-6.43,13.17-12.47,26.53-17.43,40.33-.77,2.12-.75,4.32-.22,6.4-10.61,2.66-21.08,5.92-31.35,9.74,4.42-17.72,12.53-34.69,27.12-46.25ZM25.55,513.11c1.15-11.83,2.95-23.49,5.39-35.14,2.7-11.81,6.06-23.4,10.13-34.83,4.1-10.99,8.76-21.69,14.08-32.16,5.35-10.15,11.2-19.97,17.63-29.48,6.83-9.82,14.21-19.24,22.17-28.17,7.84-8.61,16.15-16.74,24.89-24.4,9.22-7.84,18.85-15.09,28.92-21.79,9.97-6.41,20.25-12.29,30.88-17.51,10.87-5.18,22.02-9.72,33.43-13.56,11.78-3.82,23.78-6.92,35.94-9.24,12.31-2.22,24.7-3.7,37.21-4.33,4.16-.17,8.32-.27,12.49-.27,8,0,15.98.33,23.95.96,12.04,1.09,23.99,2.88,35.83,5.43,11.74,2.67,23.28,6.02,34.6,10.05,11.33,4.16,22.36,9.03,33.1,14.54,10.16,5.33,20,11.24,29.46,17.72.02,0,.04.02.06.04,9.59,6.69,18.76,13.96,27.5,21.71,8.5,7.71,16.72,16.15,24.47,25.05,7.75,9.11,14.9,18.64,21.54,28.61,6.42,9.9,12.24,20.14,17.45,30.74,5.02,10.53,9.65,21.79,13.56,33.33l.15.44c.06.23.13.44.21.67,3.7,11.55,6.66,23.26,8.98,35.17,2.23,12.31,3.66,24.7,4.37,37.21.5,12.12.27,24.22-.69,36.32-1.15,12.5-3.07,24.86-5.71,37.13-2.63,11.37-5.91,22.57-9.82,33.6-4.05,10.93-8.9,21.86-14.31,32.58-5.39,10.16-11.28,19.98-17.72,29.5-7.02,9.97-14.52,19.47-22.61,28.58-7.52,8.13-15.36,15.88-23.69,23.19-9.42,8.06-19.27,15.52-29.59,22.36-9.92,6.42-20.21,12.24-30.84,17.43-10.74,5.08-21.73,9.53-32.97,13.33-11.83,3.85-23.84,6.96-36.07,9.34l-.21.04c-.13.02-.27.06-.4.08-11.68,2.09-23.74,3.47-35.9,4.2-12.43.56-24.87.38-37.26-.59-2.21-.19-4.39-.44-6.6-.69-9.95-1.23-19.85-2.78-29.69-4.89-11.55-2.67-22.86-5.95-34.02-9.88-10.8-4.03-21.37-8.55-31.66-13.75-10.53-5.47-20.71-11.55-30.53-18.22-9.88-6.89-19.33-14.33-28.33-22.34-8.52-7.77-16.57-16.03-24.15-24.7-7.5-8.82-14.46-18.03-20.9-27.64-6.79-10.34-12.87-21.06-18.32-32.16-5.1-10.74-9.51-21.71-13.37-32.93-3.87-11.89-6.98-23.97-9.38-36.25-2.13-11.81-3.53-23.7-4.28-35.69,0-.1-.02-.19-.02-.29v-.15c-.04-.46-.06-.98-.08-1.48-.48-12.29-.21-24.57.75-36.82Z"/></g><g id="change5_3"><path fill="#0a253a" d="M116.29,681.51c27.2,35.17,64.36,62.41,106.15,77.64,26.14,9.53,54.03,14.46,81.91,14.46,14.15,0,28.31-1.28,42.21-3.87,31.3-5.7,61.6-17.84,88.05-35.46,38.17-25.43,68.55-61.43,86.82-103.55.71-1.59,2.03-4.62,3.22-7.73,17.15-44.19,21.35-93.59,10.36-139.85-5.01-20.98-12.49-41.35-22.88-60.26-10.74-19.58-24.07-37.48-39.76-53.39-6.81-6.85-14.21-13.46-22.06-19.66-10.01-7.88-21.08-15.25-32.76-21.63-32.51-17.82-69.52-28-106.6-28.9-43.04-1.04-85.86,9.21-123.4,30.4-38.78,21.88-71.23,54.6-92.35,93.86-21,39.09-31.11,84.02-28.02,128.34,3.26,47.01,20.27,92.29,49.08,129.61ZM93.83,503.09c1.23-7.63,3.24-16.7,5.75-25.68,2.67-9.03,5.87-17.87,9.59-26.54,3.59-8.04,7.61-15.86,12.08-23.44,4.85-8,10.13-15.71,15.88-23.09,4.7-5.93,10.78-12.72,17.22-19.16,6.77-6.58,13.89-12.75,21.37-18.49,7.23-5.37,14.73-10.34,22.5-14.86,8.48-4.76,17.2-9.01,26.18-12.7,8.65-3.41,17.45-6.29,26.41-8.67,9.38-2.38,18.85-4.14,28.44-5.31,8.59-.96,17.2-1.42,25.85-1.42h1.53c9.99.19,19.95,1.02,29.82,2.47,8.27,1.28,17.45,3.32,26.51,5.87l.13.04c.17.06.36.12.56.15,8.52,2.55,17.34,5.75,25.97,9.47,7.08,3.15,14.96,7.19,22.63,11.64,7.9,4.77,15.53,9.97,22.82,15.61,6.94,5.52,13.71,11.55,20.12,17.95.1.11.21.21.31.31,6.46,6.66,12.48,13.67,18.12,21.02,5.33,7.15,10.26,14.56,14.71,22.27l.06.08c.11.21.25.42.36.63,4.32,7.71,8.5,16.32,12.16,25.14,3.72,9.32,6.83,18.87,9.32,28.62,1.96,7.71,3.7,17.15,4.87,26.68,1.07,9.8,1.5,19.64,1.36,29.52-.31,9.61-1.17,19.16-2.61,28.67-1.42,8.9-3.47,17.65-5.93,26.29-2.57,8.55-5.56,16.99-9.13,25.2l-.31.71c-3.66,8.13-7.75,16-12.24,23.67-4.78,7.83-9.97,15.34-15.61,22.57-4.95,6.19-11.22,13.25-17.95,19.95-5.71,5.6-12.93,11.87-20.52,17.7-7.5,5.58-15.29,10.7-23.38,15.38-8.11,4.51-16.46,8.55-25.05,12.12-8.69,3.45-17.53,6.42-26.58,8.82-7.31,1.84-14.69,3.36-22.13,4.49-1.84.27-3.7.52-5.56.75-9.74,1.07-19.52,1.57-29.34,1.48-9.46-.23-18.97-1.04-28.46-2.42-9.17-1.48-18.24-3.49-27.21-6.02-8.94-2.67-17.66-5.83-26.22-9.53-7.56-3.36-15.76-7.59-23.76-12.29-8-4.85-15.65-10.18-23.03-15.96-5.83-4.66-12.58-10.64-18.97-17.05-6.43-6.6-12.56-13.69-18.26-21.15-5.48-7.4-10.55-15.06-15.17-23.03-4.51-8.07-8.57-16.38-12.12-24.95-3.64-9.13-6.73-18.45-9.21-27.96-2.17-8.63-3.91-18.2-5.1-27.91-1.02-9.47-1.48-18.99-1.36-28.54.27-9.74,1.11-19.45,2.57-29.09Z"/></g><g id="change5_4"><path fill="#0a253a" d="M270.53,536.46c2.69,2.57,5.64,3.64,8.48,3.64,1.26,0,2.49-.23,3.66-.62,2.65,2.98,5.54,4.27,8.58,4.27,8.59,0,18.16-9.49,25.2-14.08,39.45-28.37,78.46-57.69,115.17-89.58,12.66-10.13-2.3-29.09-15.02-19.43-3.34,2.92-6.69,5.81-10.07,8.67-37.8,31.55-77.16,61.26-117.39,89.62-.34.14-.64.34-.97.5-.1-.12-.18-.23-.29-.35-23.32-24.26-47.89-47.6-69.12-73.76-7.42-15.53-30.09-3.82-21.86,11.33,21.44,29.04,48.89,53.51,73.63,79.78Z"/></g></g></g></svg>