<?xml version="1.0" encoding="UTF-8" standalone="no"?><svg xmlns="http://www.w3.org/2000/svg" xmlns:xlink="http://www.w3.org/1999/xlink" contentScriptType="text/ecmascript" fill="#000000" width="838" zoomAndPan="magnify" contentStyleType="text/css" viewBox="-0.0 0.1 837.7 703.3" height="703" data-name="Layer 2" preserveAspectRatio="xMidYMid meet" version="1"><g id="change1_1" data-name="Layer 1"><path d="m669.9,703.3h-.88c-5.53-.31-10.46-1.47-15.11-3.49-1.45-.6-2.01-2.32-1.45-3.77.88-1.47,2.61-2.04,3.77-1.47,4.08,1.76,8.7,2.64,13.66,2.92h.28c.57,0,1.45.28,2.01.85.6.6.88,1.16.88,2.04,0,1.45-1.45,2.92-3.17,2.92Zm23.21-4.37c-1.16,0-2.32-.88-2.61-2.04-.31-.57-.31-1.45,0-2.01.28-.88.85-1.47,1.45-1.47,4.34-1.73,8.42-4.05,12.76-6.66l.31-.28c1.45-.88,3.17-.31,4.05.85.88,1.47.57,3.2-.88,4.08h-.28v.28c-4.37,2.89-8.99,5.22-13.63,6.97-.31,0-.6.28-1.16.28Zm-53.71-15.39c-1.16,0-2.32-.57-2.61-1.73-.28,0-.28-.28-.28-.28h0c-1.73-4.65-2.61-9.89-2.89-15.67,0-.88.28-1.47.85-2.04.6-.6,1.16-.88,2.04-.88h0c1.73,0,2.89,1.16,2.89,2.61.31,5.24.88,9.89,2.64,13.66v.28h0c.28.88.28,1.45,0,2.32-.31.57-.88,1.16-1.76,1.45-.28.28-.57.28-.88.28Zm84.75-7.54c-.85,0-1.45-.28-2.01-.57-1.16-1.16-1.45-2.92-.28-4.08,2.89-3.77,5.5-7.82,7.82-11.9q0-.28.28-.57h0c.6-1.16,2.32-1.76,3.77-1.16,1.47.88,2.04,2.61,1.16,4.05v.28c-2.61,4.65-5.22,9.01-8.7,13.07-.57.6-1.16.88-2.04.88Zm-84.16-30.75h-.6c-.85-.31-1.45-.6-1.73-1.47-.6-.57-.6-1.45-.28-2.01v-.6c1.16-3.49,2.32-6.97,3.49-10.15.57-1.45,1.16-2.92,1.73-4.08.57-1.45,2.32-2.01,3.77-1.45,1.45.6,2.32,2.32,1.45,3.77-.57,1.47-1.16,2.64-1.45,4.08-1.16,2.89-2.32,5.81-3.49,9.58h0v.28h0c-.28,1.45-1.45,2.04-2.89,2.04Zm99.83-4.08s-.28,0-.57-.28c-.6,0-1.45-.6-1.76-1.16-.57-.57-.57-1.45-.57-2.04.88-4.65,1.16-9.27,1.16-13.92v-.6h0v-.28c0-1.45,1.45-2.89,2.89-2.89h0c1.76,0,2.92,1.16,2.92,2.89v.88c0,5.22-.28,10.15-1.16,14.8-.28,1.45-1.45,2.61-2.92,2.61Zm-81.83-29.9c-.6,0-1.16-.28-1.76-.57-1.16-.88-1.45-2.61-.57-3.77,0-.28.28-.28.28-.6h.28q0-.28.31-.57c2.89-3.49,6.09-6.97,9.86-10.74,1.16-1.16,3.17-1.16,4.05,0,1.16,1.16,1.16,3.2,0,4.37-3.49,3.49-6.97,6.94-9.86,10.43q0,.31-.28.6c-.6.57-1.47.85-2.32.85Zm80.1-8.7c-1.45,0-2.61-1.16-2.89-2.32-.88-4.62-2.04-9.58-3.49-14.2v-.31h0v-.28c-.31-.57-.31-1.45.28-2.04.28-.57.88-1.16,1.73-1.45,1.47-.57,3.2.6,3.49,2.04h0v.28h0q.28.28.28.6c1.16,4.62,2.32,9.86,3.49,14.2.31,1.47-.57,2.92-2.32,3.49h-.57Zm-51.67-18c-1.16,0-2.01-.28-2.32-1.16-1.16-1.16-.85-2.89.6-4.05h0s.28,0,.28-.28c3.77-2.61,7.85-5.53,12.19-8.42,1.45-.88,3.49-.6,4.05.88.88,1.16.6,3.17-.85,4.05-3.77,2.32-7.54,4.93-11.9,8.14v.28h-.28c-.6.57-1.47.57-1.76.57Zm148.33-12.47c-.88,0-1.45-.28-2.04-.57-1.45-1.16-2.61-2.64-4.34-3.49v-.31c-.88-.57-1.16-1.13-1.16-2.01-.31-.6,0-1.45.57-2.04.88-1.45,2.61-1.73,4.05-.57h0l.31.28h0c1.45,1.16,2.89,2.32,4.34,3.77.6.57,1.16,1.16,1.16,2.04,0,.57-.28,1.45-.85,2.01-.6.6-1.47.88-2.04.88Zm-107.97-6.66c-1.16,0-2.32-.6-2.92-1.76v-.57q-.28,0-.28-.31l-.6.6c-.57.28-1.45.57-2.01.88h-.28c-1.47.85-3.2,0-3.8-1.47-.28-.57-.28-1.45,0-2.32.31-.57.6-1.13,1.47-1.45h.28v-.28c.57,0,.88-.28,1.45-.57.28-.31.88-.31,1.16-.6-1.16-2.32-2.32-4.65-3.77-6.97v-.28h0c-.28,0-.28-.28-.28-.28-.6-1.45,0-2.92,1.45-3.77,1.16-.88,2.89-.31,3.77,1.16,0,0,.28,0,.28.28h0c1.16,2.32,2.61,4.93,3.77,7.54,1.76-.57,3.77-1.45,6.09-2.32,1.47-.28,3.2.28,3.8,1.76.57,1.45-.31,3.17-1.76,3.77-2.04.88-4.05,1.45-5.5,2.32,0,0,0,.28.28.57.57,1.45,0,3.2-1.76,3.77-.28.31-.57.31-.85.31Zm82.71-8.73c-.28,0-.57-.28-.88-.28-4.34-1.73-8.99-3.2-13.92-4.05h-.28v-.28c-1.47-.31-2.64-1.76-2.32-3.2.28-1.76,1.73-2.61,3.46-2.32h.31c5.5,1.16,10.43,2.61,14.8,4.37.88.28,1.45.85,1.73,1.73.31.57.31,1.45,0,2.04-.57,1.16-1.73,2.01-2.89,2.01Zm-53.12-4.34c-1.45,0-2.61-.88-2.89-2.32-.31-.88,0-1.45.57-2.32.28-.6.88-.88,1.76-1.16h.57c5.22-.88,10.15-1.45,14.8-1.73h.31c1.45,0,2.89,1.13,2.89,2.89,0,.57-.28,1.45-.6,2.04-.57.57-1.45.85-2.01.85-5.24.31-9.86.88-14.51,1.76h-.88Zm-49.92-19.76c-.88,0-1.76-.57-2.32-1.16-3.2-3.46-6.69-6.94-10.18-9.86l-.28-.28v-.28c-1.16-.88-1.45-2.61-.57-3.77,1.16-1.16,2.89-1.45,4.34-.6v.28h.31c3.77,3.49,7.54,6.97,10.71,10.74.6.6.88,1.47.88,2.04,0,.88-.57,1.45-1.16,2.04-.28.57-1.16.85-1.73.85Zm-31.07-23.21c-.28,0-.57,0-1.16-.28-4.05-1.73-8.42-3.49-13.35-4.93h-.57c-1.47-.6-2.32-2.04-1.76-3.77.28-1.45,2.04-2.32,3.49-2.04l.28.28c5.24,1.47,9.86,3.2,14.51,5.24,1.16.57,2.04,2.32,1.16,3.77-.28,1.16-1.45,1.73-2.61,1.73Zm-114.94-9.58h-7.26c-2.89-.28-5.5-.57-7.82-.85h-.6c-.88-.31-1.45-.6-1.73-.88-.6-.6-.88-1.45-.88-2.32.28-1.45,1.73-2.61,3.2-2.61h.57c2.32.28,5.22.57,7.54.57,2.61.31,4.93.31,6.97.31,1.45,0,2.89,1.45,2.89,3.17,0,1.45-1.45,2.61-2.89,2.61Zm77.78,0c-.28,0-.28-.28-.28,0-4.65-.57-9.58-.85-14.8-1.16h-.28c-1.76,0-2.92-1.45-2.92-2.89,0-1.73,1.45-2.89,2.92-2.89h1.16c4.93.28,9.86.57,14.51,1.16.57,0,1.45.28,1.73.85.6.6.88,1.45.6,2.32,0,1.45-1.16,2.61-2.64,2.61Zm-53.69-.28h-.28q-.28,0-.6-.28c-1.45,0-2.32-1.16-2.61-2.61,0-1.47,1.16-2.92,2.61-2.92.31,0,.31-.28.6-.28h6.09c2.89-.28,5.81-.28,8.7-.57h.28c1.45,0,2.92,1.45,2.92,2.89,0,.88-.31,1.45-.88,2.04-.6.57-1.16.85-2.04.85-2.61.31-5.22.31-7.82.31-2.32.28-4.65.28-6.97.28v.28Zm-62.7-4.05h-.57c-4.65-1.16-9.58-2.32-14.51-3.77,0,0-.31,0-.31-.31h-.28c-1.45-.28-2.32-2.01-1.73-3.49.28-1.45,1.73-2.3,3.49-2.01,0,0,.28,0,.57.28,5.22,1.45,9.58,2.61,13.95,3.49,1.73.28,2.61,1.73,2.32,3.49-.31,1.16-1.47,2.32-2.92,2.32Zm-36.85-12.19h-1.16c-4.08-2.04-8.42-4.37-13.35-6.97l-.31-.28c-.85-.6-1.16-1.16-1.45-1.76-.28-.88,0-1.73.28-2.32.88-1.16,2.64-1.73,4.08-.85h.28c4.05,2.3,8.42,4.62,13.07,6.66,1.16.88,2.04,2.61,1.45,3.77-.57,1.16-1.73,1.76-2.89,1.76Zm-467.32-13.66h0c-5.22,0-10.74-.57-15.08-.85-1.45-.31-2.61-1.76-2.61-3.2.28-1.45,1.73-2.61,3.17-2.61,4.93.57,9.86.57,14.82.88.57,0,1.45.28,2.01.85.28.6.6,1.16.6,2.04,0,1.45-1.16,2.89-2.92,2.89Zm23.81-1.16h0c-1.73,0-2.89-1.16-3.2-2.61,0-.85.31-1.45.88-2.01.28-.6,1.16-1.16,1.73-1.16h.6c4.37-.6,8.99-1.47,14.23-2.32,1.45-.31,3.17.57,3.49,2.01,0,.88,0,1.47-.31,2.32-.57.6-1.16.88-2.01,1.16-4.65,1.16-9.58,2.04-14.82,2.61h-.57Zm410.72-5.5c-.6,0-1.16-.28-1.76-.6-3.77-2.89-7.26-6.38-11.31-10.15v-.28h-.28v-.31c-.6-.57-.88-1.13-.88-1.73,0-.88.28-1.73.88-2.04,1.13-1.16,3.17-1.16,4.05,0q.28,0,.28.31c3.49,3.17,6.97,6.38,10.74,9.58,1.45,1.13,1.45,2.89.57,4.05-.57.88-1.45,1.16-2.3,1.16Zm-373.27-4.08c-1.16,0-2.32-.85-2.89-1.73-.6-1.45,0-3.2,1.45-3.77.28,0,.28-.28.57-.28,4.37-1.76,8.7-4.08,13.07-6.41,1.16-.85,3.2-.28,3.77,1.16.88,1.16.28,2.92-.88,3.77-4.34,2.64-8.99,4.65-13.63,6.69v.28h-.57c-.31,0-.6.28-.88.28Zm123.36-19.44h-.6c-1.45,0-2.89-1.16-2.89-2.89,0-1.45,1.16-2.89,2.61-2.89,0,0,.28-.31.6-.31,5.22,0,9.86-.57,14.51-1.16,1.45,0,2.89.88,3.17,2.32.31,1.76-.85,3.2-2.32,3.49-5.5.6-10.43,1.16-15.08,1.16v.28Zm-24.09-.28h-.28c-5.24-.57-10.18-1.16-15.11-2.04h-.28s-.28,0-.28-.28c-.6,0-1.16-.28-1.76-.85-.28-.88-.57-1.47-.28-2.32.28-1.47,2.04-2.64,3.2-2.32h.57-.28c4.65.85,9.58,1.45,14.51,1.73,1.73.28,2.89,1.76,2.89,3.2-.28,1.73-1.45,2.89-2.89,2.89Zm-66.47-.88c-.88,0-1.73-.28-2.32-.85-.57-.6-.88-1.45-.88-2.32.31-.6.6-1.45,1.16-1.76v-.28h.31c3.77-3.49,7.26-6.97,10.15-10.46.57-.85,2.04-1.13,2.89-.85.31,0,.31-.28.31-.6.85-1.45,2.32-2.01,4.05-1.16h.28c3.77,2.04,8.42,3.77,13.35,5.53.88.28,1.45.88,1.76,1.45.28.6.28,1.45,0,2.32-.6,1.45-2.04,2.04-3.77,1.73-4.93-1.73-9.58-3.77-13.95-5.78h0c0,.57-.28.85-.57,1.16-3.8,4.34-7.26,7.82-10.74,11.03l-.31.28h0c-.57.28-1.13.57-1.73.57Zm313.75-3.46c-.85,0-1.73-.31-2.3-1.16-2.64-3.8-5.53-7.85-8.42-12.5v-.28h0v-.28c-.6-.6-.6-1.45-.31-2.04,0-.88.6-1.45,1.16-1.73,1.16-.88,3.2-.6,4.08.85h0q0,.31.28.31c2.61,4.62,5.22,8.7,8.14,12.19.85,1.45.57,3.17-.6,4.05-.57.28-1.16.6-2.04.6Zm-185.46-1.47c-1.45,0-2.61-.85-2.89-2.01-.31-.88,0-1.76.28-2.32.57-.6,1.16-1.16,1.73-1.16l.31-.28h.28c4.34-1.16,8.99-2.32,13.92-4.08,1.76-.57,3.2.28,3.8,1.76.57,1.45-.31,3.17-2.04,3.77-4.65,1.45-9.58,2.89-14.23,4.05,0,.28-.28.28-.57.28h-.6Zm36.57-12.76c-1.16,0-2.32-.6-2.61-1.76-.28-.57-.28-1.45,0-2.32.28-.57.88-1.16,1.45-1.45,0,0,.31-.28.31,0,4.34-2.01,8.99-4.34,13.35-6.66,1.16-.6,3.17,0,3.77,1.45.88,1.45.28,3.2-1.16,3.77-5.22,2.61-9.58,4.65-13.63,6.69h-.31c-.28.28-.85.28-1.16.28Zm-170.67-7.26c-.57,0-1.45-.28-1.73-.6-4.08-3.17-8.14-6.38-11.62-10.15h0q-.28,0-.28-.28c-.6-.6-.88-1.16-.88-2.04s.28-1.45.88-2.04c.88-.85,2.89-1.16,4.05,0l.31.31h0c3.17,3.17,6.94,6.38,11.03,9.55.57.31.85,1.16,1.16,1.76,0,.88-.31,1.73-.6,2.32-.57.57-1.45,1.16-2.32,1.16Zm30.19-4.93c-.57,0-1.16-.31-1.45-.31-.88-.57-1.16-1.13-1.45-2.01,0-.6,0-1.45.28-2.04q.28,0,.28-.28h0c2.32-4.05,4.65-8.42,6.69-13.07.57-1.45,2.32-2.04,3.77-1.45.57.28,1.16.88,1.45,1.45.28.88.28,1.76,0,2.32-2.04,4.37-4.05,8.7-6.97,13.35h.31s0,.28-.31.28q0,.31-.28.6c-.57.57-1.45,1.16-2.32,1.16Zm174.75-6.09c-.88,0-2.04-.6-2.61-1.47-.6-1.13-.31-2.89.85-3.77.28,0,.28-.28.28-.28h.31s0-.28.28-.28c4.05-2.61,8.14-5.22,11.9-7.85,1.45-.85,3.17-.57,4.05.6.88,1.45.6,3.2-.57,4.05-4.37,2.92-8.42,5.53-12.78,8.42h0l-.28.28c-.28,0-.88.31-1.45.31Zm95.49-.88c-1.47,0-2.32-.88-2.92-1.73-2.32-5.53-4.05-9.89-5.5-14.23h-.31v-.28c-.28-.6-.28-1.47,0-2.04.31-.88.88-1.45,1.76-1.76,1.73-.28,3.2.31,3.77,1.76h0v.28h0c1.73,4.65,3.49,9.01,5.81,13.63.28.88.28,1.47,0,2.32-.28.6-.88,1.16-1.45,1.76-.6,0-.88.28-1.16.28Zm-326.25-16.84c-.88,0-2.04-.57-2.61-1.45-2.32-4.93-4.37-9.58-5.81-14.51v-.28h0c-.28-.88-.28-1.47,0-2.32.57-.6,1.16-1.16,2.04-1.16,1.16-.6,2.89.28,3.46,2.01h0v.31c1.47,4.62,3.2,8.99,5.53,13.04.88,1.47.28,3.2-1.16,4.08-.28,0-.88.28-1.45.28Zm262.39-4.93c-.88,0-1.76-.28-2.32-1.16-.88-1.16-.88-2.89.28-4.05h.28s0-.31.31-.31c3.77-3.17,7.54-6.09,11.03-9.27,1.45-1.16,3.17-.88,4.05.28.6.57.88,1.16.88,2.04s-.6,1.45-1.16,2.01c-3.49,3.2-7.26,6.41-11.31,9.58h0l-.31.28c-.57.31-1.16.6-1.73.6Zm-192.15-7.26h-.6c-1.45-.6-2.61-2.04-2.01-3.49v-.88c1.16-4.62,2.01-9.27,2.61-13.92,0-1.45,1.16-2.61,2.89-2.61h.31c1.45.28,2.61,1.73,2.61,3.17-.6,4.93-1.45,9.86-2.92,15.11v.57c-.28,1.16-1.45,2.04-2.89,2.04Zm242.94-7.85c-1.45,0-2.61-.85-2.92-2.01-1.16-4.93-2.61-9.86-3.46-14.51v-.6c-.31-.57-.31-1.45.28-2.01.28-.6,1.16-1.16,1.73-1.47,1.45-.28,3.2.88,3.49,2.32v.31h.28v.57c1.16,5.22,2.32,9.86,3.2,13.95.28.57.28,1.45-.28,2.01-.28.88-.88,1.16-1.76,1.45h-.57Zm-22.05-10.71c-.6,0-1.47-.31-2.04-.88-1.16-1.16-1.16-3.2,0-4.37h.28c2.92-2.89,6.09-6.38,10.46-10.74.88-1.16,2.89-1.16,4.05,0,1.16,1.16,1.16,2.92,0,4.08-2.61,2.89-6.38,6.66-10.43,10.74h0v.28h-.31c-.57.57-1.16.88-2.01.88Zm-298.39-6.69s-.28,0-.28-.28c-.88,0-1.76-.28-2.04-1.16-.6-.6-.6-1.16-.6-2.04.88-5.22,2.32-10.15,4.37-14.8h.28v-.6h0c.6-1.45,2.61-2.01,3.77-1.45.88.31,1.47,1.16,1.76,1.76.28.85,0,1.45-.28,2.32h0v.28c-2.04,4.34-3.49,8.7-4.08,13.35-.28,1.45-1.45,2.61-2.89,2.61Zm80.7-13.35h0c-1.76,0-2.92-1.16-2.92-2.61h0l-.28-.28h0c-.28-4.93-1.45-9.58-2.61-13.95-.28-.88-.28-1.73,0-2.32.57-.57,1.16-1.16,1.73-1.45,1.45-.28,3.2.57,3.77,2.04,1.47,4.65,2.32,9.58,2.92,15.08,0,0,.28.28,0,.28h0c.28.88,0,1.76-.6,2.32-.57.6-1.16.88-1.73.88h-.28Zm232.2-7.26h-.31c-1.45,0-2.61-.88-2.89-2.32-.6-4.34-1.16-8.7-1.45-12.76l-.28-2.32h0v-.31c-.31-.85,0-1.73.57-2.32.57-.57,1.16-.85,2.32-.85,1.45,0,2.61,1.16,2.89,2.61v.28h0c.6,5.53,1.16,10.18,1.76,14.8.28,1.47-.88,2.92-2.32,3.2h-.28Zm11.88-1.16c-.57,0-1.16-.28-1.73-.88-.57-.57-1.16-1.16-1.16-2.01,0-.6.28-1.47.88-2.04h0v-.28c3.17-3.49,6.38-7.54,9.58-11.34.85-1.45,2.89-1.45,4.05-.57s1.45,2.89.6,4.05c-2.64,3.2-6.12,7.57-9.58,11.62q-.31,0-.31.28h0c-.57.6-1.45,1.16-2.32,1.16Zm-306.78-12.19c-.88,0-1.45-.28-2.04-.57-.57-.6-.88-1.47-.88-2.04,0-.88.31-1.76.88-2.32,4.05-4.07,7.85-7.26,11.31-10.16h.31c1.45-1.16,3.17-.86,4.05.58,1.16,1.16.88,2.91-.57,4.07h0s0,.28-.31.28c-3.17,2.34-6.66,5.51-10.74,9.28-.57.6-1.45.88-2.01.88Zm47.31-13.93c-.88,0-1.45-.28-1.76-.58-.28,0-.28-.28-.28-.28h-.28c-3.2-2.62-7.26-3.78-11.31-3.78h-.6c-.88,0-1.73-.28-2.04-.86-.57-.58-.85-1.16-.85-2.03,0-.58,0-1.46.57-2.04.6-.58,1.45-.86,2.32-.86h.6c5.5,0,10.43,1.74,14.8,4.93h.28l.28.28h0s0,.3.31.3c.85.86,1.16,2.61,0,3.77-.31.58-1.16,1.16-2.04,1.16Zm283.56-4.35c-.57,0-1.16-.3-1.73-.58-.6-.58-.88-1.16-1.16-2.04,0-.86.28-1.45.57-2.03l.31-.28v-.3c3.17-4.07,6.09-8.12,8.7-11.9.88-1.15,2.61-1.45,4.05-.57,1.16.86,1.45,2.61.6,4.05-2.92,4.07-5.81,8.14-8.7,11.9q0,.28-.31.58c-.57.58-1.45,1.16-2.32,1.16Zm-40.05-6.97c-1.45,0-2.61-1.16-2.89-2.91,0-4.63-.28-9.28-.6-14.8v-.28c0-.88.31-1.74.88-2.32.6-.58,1.45-.88,2.04-.88h.28c1.45,0,2.61,1.46,2.89,2.91v.3c0,6.09.31,10.73.31,14.8.28,1.74-1.16,3.19-2.64,3.19h-.28Zm62.13-25.24c-.6,0-1.16,0-1.47-.3-.57-.58-1.16-1.16-1.45-2.03,0-.58,0-1.46.6-2.04h0q0-.28.28-.28c.28-.88.88-1.74,1.45-2.61.28-.58.88-1.16,1.16-1.74l1.45-2.62c1.16-1.74,2.61-3.77,3.77-5.51.6-1.45,2.32-2.03,3.8-1.16,1.45.88,2.01,2.62,1.13,4.07-1.73,2.91-3.46,5.51-5.22,8.12-.57.88-.88,1.74-1.45,2.32-.28.88-.88,1.46-1.45,2.32v.3c-.6.58-1.45,1.16-2.61,1.16Zm-62.42-13.65h-.28c-.6,0-1.45-.3-2.04-.86-.28-.58-.57-1.16-.57-2.04,0-5.51.28-11.03.57-15.09v-.28c0-1.46,1.16-2.91,2.61-2.91h.28c1.76.28,2.92,1.45,2.92,3.19v.3h0l-.28.58c0,4.35-.31,9.28-.31,14.21-.28,1.74-1.45,2.91-2.89,2.91Zm82.14-19.74c-.28,0-.88,0-1.16-.28-.88-.3-1.16-.88-1.45-1.74-.28-.58-.28-1.45.28-2.32h0c2.89-5.51,4.93-9.58,6.69-13.35.85-1.45,2.61-2.03,4.05-1.45.57.58,1.16,1.16,1.45,1.74.28.86.28,1.73,0,2.31-2.61,4.95-4.65,9.3-6.97,13.35l-.28.3c-.57.86-1.45,1.45-2.61,1.45Zm-80.1-19.15h-.31c-.85,0-1.45-.3-2.01-.88-.28-.58-.6-1.45-.6-2.03.31-5.23.88-10.45,1.45-15.09h0v-.3c.31-1.73,1.47-2.89,3.2-2.61.88,0,1.45.58,2.04,1.16.28.58.57,1.16.57,2.03v.3c-.57,4.93-1.16,9.86-1.45,14.8,0,1.46-1.45,2.62-2.89,2.62Zm96.94-15.97h-.88c-.88-.28-1.45-1.16-1.73-1.74-.31-.58-.31-1.45,0-2.03v-.28h0c.28-.3.28-.58.28-.58,2.04-4.95,3.77-9.3,5.22-13.36.6-1.45,2.61-2.31,3.77-1.73,1.47.58,2.32,2.31,1.76,3.77-2.04,5.22-3.77,9.86-5.53,13.93h0v.28l-.28.3c-.57.86-1.45,1.45-2.61,1.45Zm-92.6-22.63h-.28c-.88,0-1.73-.58-2.04-1.16-.57-.58-.85-1.46-.57-2.03.57-5.23,1.45-10.16,2.04-14.81,0,0,0-.28.28-.28v-.58c.28-1.16,2.01-2.32,3.17-2.04,1.76.3,2.64,1.74,2.32,3.49v.28c-.57,4.95-1.45,9.88-2.01,14.81-.31,1.45-1.47,2.32-2.92,2.32Zm105.67-13.65c-.31,0-.31-.28-.6-.28-1.73-.3-2.61-2.04-2.04-3.49v-.58c1.47-4.93,2.92-9.58,3.8-13.93.28-1.74,2.01-2.61,3.46-2.32,1.76.3,2.64,2.04,2.32,3.49-1.16,4.07-2.32,9.28-4.05,14.51h0v.28h0c-.28,1.46-1.45,2.32-2.89,2.32Zm-99.58-24.67h-.57c-.6-.28-1.45-.58-1.76-1.45-.57-.58-.57-1.16-.28-2.03.88-4.93,1.76-9.88,2.61-14.51h0l.31-.3c.28-1.74,1.73-2.61,3.17-2.32.88,0,1.45.3,2.04,1.16.28.58.57,1.46.28,2.04v.58c-.88,4.63-2.04,9.57-2.89,14.51-.31,1.45-1.45,2.31-2.92,2.31Zm108.28-13.35h-.6c-.57-.28-1.45-.58-1.73-1.16-.6-.58-.88-1.45-.6-2.31v-.88c.88-4.93,1.47-9.58,1.76-13.93,0-1.74,1.45-2.91,3.2-2.61,1.45,0,2.61,1.45,2.61,3.19-.6,5.23-1.16,10.16-1.76,14.81,0,0,0,.28-.28.58-.28,1.15-1.45,2.31-2.61,2.31Zm-100.14-24.66h-.57c-.88-.3-1.47-.88-1.76-1.46-.57-.58-.57-1.45-.28-2.03,1.16-5.51,2.32-10.45,3.49-14.81h0v-.28c.57-1.46,2.01-2.32,3.49-2.04,1.73.3,2.61,2.04,2.32,3.49l-.31.3v.28c-1.16,4.93-2.32,9.58-3.49,14.23-.28,1.45-1.45,2.32-2.89,2.32Zm102.47-13.93c-1.45,0-2.61-1.46-2.92-2.91h0v-.58c0-4.35-.57-9-1.16-14.51,0-.58,0-1.46.6-2.04.57-.58,1.16-1.16,2.04-1.16,1.73-.28,2.89.88,3.17,2.62.6,4.63.88,9.58,1.16,14.8v.88h0c0,1.45-1.16,2.61-2.61,2.91h-.28Zm-92.32-23.51c-.28,0-.57,0-.85-.3-1.45-.58-2.32-2.03-1.76-3.77,2.04-6.39,3.49-10.16,4.37-11.9.28-.28.28-.86.57-1.16,0-.28.31-.58.6-.86v-.58h0c.28,0,.28-.3.28-.3.6-1.15,2.32-1.73,3.77-.86,1.45.58,2.04,2.32,1.16,3.77v.3c-.57.86-.88,1.45-1.16,2.03-.88,1.74-2.32,6.09-4.05,11.61-.6,1.16-1.76,2.04-2.92,2.04Zm86.23-14.81c-1.16,0-2.32-.86-2.92-2.03h0v-.3c-1.45-4.93-3.49-9.28-5.5-13.35-.28-.58-.6-1.45-.28-2.32.28-.58.85-1.16,1.45-1.73,1.16-.58,3.17,0,3.77,1.45,2.32,4.35,4.34,9,6.09,13.93v.58c.28.58.28,1.45,0,2.03-.28.88-.88,1.46-1.76,1.46-.28.28-.57.28-.85.28Zm-67.91-19.44c-.6,0-1.47-.28-1.76-.58-.57-.58-1.16-1.16-1.16-2.03,0-.58.28-1.46.6-2.04,3.49-4.35,7.26-7.84,11.31-11.03h0l.28-.28h0c1.16-.88,3.2-.58,4.08.86.85,1.16.57,2.91-.6,4.07h-.28c-3.49,2.61-6.97,5.8-10.18,10.16-.57.58-1.45.86-2.3.86Zm47-12.49c-.57,0-1.16-.28-1.73-.58h0l-.28-.28c-3.77-2.61-8.14-4.07-12.5-4.35-.57-.3-1.45-.58-2.01-1.16-.28-.58-.6-1.46-.6-2.04.31-1.45,1.45-2.61,2.92-2.61h.28c5.22.3,10.15,2.03,15.08,5.23v.28h.31c.85.58,1.16,1.16,1.45,2.04,0,.58,0,1.45-.6,2.03-.57.86-1.45,1.45-2.32,1.45Z"/></g></svg>