<?xml version="1.0" encoding="UTF-8" standalone="no"?><svg xmlns="http://www.w3.org/2000/svg" xmlns:xlink="http://www.w3.org/1999/xlink" contentScriptType="text/ecmascript" fill="#000000" width="814" zoomAndPan="magnify" contentStyleType="text/css" viewBox="-0.1 -0.4 814.4 781.1" height="781" data-name="Layer 2" preserveAspectRatio="xMidYMid meet" version="1"><g id="change1_1" data-name="Layer 1"><path d="m630.55,780.65c-1.46,0-2.91-1.16-2.91-2.61-.28-1.74.86-3.2,2.32-3.2q.28-.28.58-.28h0c4.63-.58,9.28-1.74,13.93-2.91,1.74-.58,3.19.58,3.77,2.03.3.58,0,1.46-.28,2.04-.58.86-1.16,1.16-1.74,1.45-5.23,1.45-10.16,2.61-14.81,3.19-.28,0-.28.3-.58,0,0,.3-.28.3-.28.3Zm-23.51-.3h-.58c-5.23-.86-10.16-2.61-14.81-4.63h-.28c-.86-.58-1.45-1.16-1.74-1.74-.28-.88,0-1.46.3-2.32.58-1.45,2.31-2.03,3.77-1.45l.28.28c4.37,2.03,8.72,3.19,13.65,4.07.58,0,1.16.58,1.74,1.16s.58,1.45.58,2.32c-.3,1.15-1.46,2.31-2.91,2.31Zm60.37-11.31c-1.16,0-2.04-.58-2.62-1.74-.28-.58-.28-1.46,0-2.32.3-.58.88-1.16,1.46-1.45l.28-.3c4.37-1.74,8.42-4.07,13.07-6.39,1.45-.86,3.19-.28,4.07.88.86,1.45.28,3.19-1.16,4.07-4.65,2.61-9.3,4.93-13.35,6.68l-.58.28c-.3.3-.58.3-1.16.3Zm-93.75-6.97c-.88,0-1.74-.28-2.32-.86-3.49-3.78-6.68-7.84-9.28-12.19v-.3h-.3c-.28-.86-.58-1.45-.28-2.32.28-.86.58-1.45,1.45-1.74,1.16-.86,2.91-.58,3.77.88h.3v.28c2.61,4.07,5.51,7.84,8.7,11.32,1.16,1.16.88,3.19-.28,4.07-.3.58-1.16.86-1.74.86Zm127.13-12.49c-.86,0-1.45-.28-2.03-1.15-.58-.58-.88-1.16-.88-2.04.3-.58.58-1.45,1.16-2.03h.3c3.19-2.61,6.68-5.81,11.03-9.86,1.16-1.16,2.91-1.16,4.07,0,.57.57.86,1.45.86,2.31,0,.58-.58,1.46-.86,2.04-4.37,3.77-8.14,7.26-11.32,9.86h-.3v.3c-.58.28-1.16.57-2.03.57Zm-146.57-20.89c-1.16,0-2.32-.88-2.62-2.03-1.74-4.65-3.19-9.58-4.35-14.51v-.58c-.28-.58,0-1.46.3-2.04.57-.58,1.15-1.16,1.73-1.45,1.74-.3,3.2.86,3.49,2.32l-.28.28.58-.28v.28c1.16,4.93,2.61,9.58,4.05,14.23.58,1.45-.28,2.89-1.74,3.47-.28,0-.57.3-1.15.3Zm174.73-5.81c-.58,0-1.46-.28-2.04-.86-1.16-1.16-1.16-2.91,0-4.07h0l.3-.28c2.89-2.91,6.09-6.39,10.15-10.74.88-1.16,2.91-1.45,4.07-.3.58.58.88,1.46.88,2.04,0,.86-.3,1.45-.88,2.03-3.49,4.07-6.96,7.84-10.16,11.03h0s0,.3-.28.3c-.58.58-1.16.86-2.03.86Zm-246.15-18.28h0c-1.45,0-2.89-1.16-2.89-2.91-.3-1.45.86-2.91,2.61-2.91h.28c4.65-.57,9.3-1.45,14.23-2.61,1.45-.58,2.91.3,3.49,1.74.28,1.74-.58,3.19-2.04,3.77-5.22,1.46-10.15,2.32-15.09,2.91h-.58Zm-23.5-2.61h-.58c-4.95-1.46-9.58-3.77-14.23-6.68h-.28l-.3-.3c-.58-.28-.86-.86-1.16-1.74,0-.58,0-1.45.3-2.03.86-1.45,2.91-1.74,4.05-.86h.3l.28.28c4.07,2.32,8.42,4.35,12.49,5.81.86,0,1.45.58,1.74,1.45.58.58.58,1.45.28,2.03-.28,1.16-1.45,2.04-2.89,2.04Zm295.77-7.84c-.58,0-1.16-.3-1.74-.58-.58-.58-1.16-1.46-1.16-2.04,0-.86.28-1.45.86-2.03q0-.28.3-.28h0c2.03-2.62,4.35-5.23,6.68-7.84.86-1.16,2.03-2.32,2.91-3.49,1.16-1.16,3.19-1.45,4.35-.3,1.16,1.16,1.16,2.91,0,4.07-3.19,4.07-6.68,7.84-9.58,11.32h-.28v.28h-.3c-.28.58-1.16.88-2.03.88Zm-235.69-1.16c-.86,0-2.03-.88-2.61-1.74-.3-.58-.3-1.45,0-2.03,0-.88.58-1.46,1.45-1.74h0c0-.3.3-.3.3-.3,4.35-2.32,8.7-4.93,12.47-7.54,1.46-.88,3.19-.3,4.07.86.28.58.58,1.46.28,2.32,0,.58-.58,1.45-1.16,1.74-4.05,2.61-8.4,5.23-13.05,7.84h-.3c-.28.28-.86.58-1.45.58Zm26.7-2.32c-1.45,0-2.61-1.16-2.91-2.61-.58-4.93-.86-10.16-1.16-15.09v-.3c-.28-.58,0-1.45.58-2.03s1.16-.88,2.04-.88h0c1.74,0,2.91,1.16,3.19,2.62v.58c.28,5.51.58,10.16,1.16,14.51,0,1.74-.88,2.91-2.61,3.19h-.3Zm-118.13-10.74c-.88,0-1.46-.28-2.04-.86-.28-.3-.58-.58-.86-.88-.3-.28-.58-.58-.58-.86-2.91-3.49-5.23-6.97-7.26-10.74l-.28-.28v-.3c-.88-1.45-.3-3.19,1.15-4.05,1.46-.58,3.2,0,3.78,1.15v.3h.28c2.04,3.77,4.35,7.26,6.68,10.16l.3.28c.28.58.86.88,1.16,1.46.86,1.16.86,2.89-.3,4.05-.58.58-1.16.58-2.03.58Zm123.64-9c-.86,0-1.74-.58-2.32-1.16-.58-.57-.86-1.15-.58-2.03,0-.86.3-1.45.88-2.03l.28-.3s.3-.28.58-.28c3.49-3.19,7.26-6.39,10.46-9.58,1.16-.86,2.89-.86,4.05.28.58.58.88,1.16.88,2.04,0,.58-.3,1.45-.88,2.03-3.77,3.49-7.54,6.97-11.31,9.86q0,.3-.3.3h0c-.58.58-1.16.86-1.74.86Zm228.72-6.09c-.57,0-1.15-.28-1.73-.86-1.16-.88-1.46-2.61-.3-4.07l.3-.28c1.16-1.46,2.61-3.2,4.05-4.65,1.74-2.32,3.49-4.35,5.51-6.68.88-1.16,2.91-1.45,4.07-.3,1.16.88,1.16,2.62.3,4.07l-2.91,3.19c-2.32,2.91-4.35,5.53-6.68,8.14v.28h-.3c-.58.58-1.45,1.16-2.32,1.16Zm-235.67-13.05h0c-.88,0-1.74-.3-2.04-.88-.58-.58-.86-1.16-.86-2.03,0-4.65.28-9.58.86-15.09v-.3c0-1.45,1.74-2.61,3.2-2.61.58,0,1.45.3,2.03.88.28.86.58,1.45.58,2.31v.3c-.3,4.35-.58,9-.86,14.8,0,1.46-1.46,2.62-2.91,2.62Zm-133.52-6.39c-1.45,0-2.61-.86-2.91-2.03-1.16-4.65-2.03-9.58-2.61-14.81v-.58c0-.86,0-1.74.58-2.31.58-.58,1.16-.88,2.03-.88,1.46,0,2.91.88,3.19,2.61v.3h0c.58,5.51,1.46,10.16,2.32,14.21.58,1.46-.58,3.2-2.03,3.49h-.58Zm168.06-1.74c-.58,0-1.16-.28-1.74-.58-1.16-1.16-1.45-2.89-.3-4.35,0,0,.3,0,.3-.28,2.91-3.2,6.39-6.97,9.58-11.04.86-1.16,2.91-1.45,4.07-.28.57.28.86,1.16,1.15,1.74,0,.86-.28,1.74-.58,2.32-3.47,3.77-6.68,7.54-9.86,11.31-.28,0-.28.3-.28.3h0c-.58.58-1.46.86-2.32.86Zm226.11-9c-.88,0-1.46,0-2.04-.58s-.86-1.15-.86-2.03c-.3-.58,0-1.45.58-2.03h0s0-.3.28-.3c.88-1.16,2.04-2.61,3.2-3.77.58-1.16,1.45-2.03,2.32-3.19.86-1.16,2.89-1.46,4.05-.3,1.16.88,1.46,2.62.58,4.07-1.45,1.74-2.91,3.19-4.07,4.93l-1.73,2.03h0q0,.3-.3.3c-.28.58-1.16.86-2.03.86Zm-201.73-21.19c-.58,0-1.16-.28-1.45-.58-1.46-.86-1.74-2.61-.88-4.05h0c.3,0,.3-.3.3-.3,2.61-3.49,5.22-7.54,8.42-12.19.86-1.16,2.61-1.74,4.05-.86.58.58.88,1.16,1.16,1.73.3.88,0,1.74-.28,2.32-3.19,4.65-5.81,8.72-8.42,12.19l-.3.3h0c0,.28-.28.28-.28.28h0c-.58.88-1.45,1.16-2.32,1.16Zm-55.44-.28h-.28c-.86,0-1.45-.58-2.03-1.16-.3-.58-.58-1.45-.58-2.03.86-4.65,1.74-9.3,2.61-14.81v-.28l.28-.3c.3-1.45,1.74-2.61,3.2-2.32,1.74.3,2.61,2.04,2.32,3.49v.58c-.88,4.65-1.74,9.58-2.62,14.51-.28,1.16-1.45,2.32-2.91,2.32Zm-140.18-6.09h-.3c-1.45-.3-2.91-1.46-2.61-3.19,0-4.95.58-9.88,1.16-15.09v-.3c.28-1.74,1.74-2.91,3.19-2.61,1.74.28,2.61,1.74,2.61,3.19h0v.58c-.58,4.93-1.16,9.86-1.16,14.51-.28,1.45-1.45,2.91-2.89,2.91Zm216.81-26.42c-.58,0-.86,0-1.45-.28-.58-.3-1.16-.88-1.46-1.74,0-.58,0-1.46.3-2.32h.28v-.3c2.32-4.05,4.65-8.4,6.97-13.05.58-1.16,2.61-1.74,3.77-1.16,1.46.86,2.03,2.32,1.46,3.77-2.32,4.35-4.65,9-7.26,13.35v.3h0c-.58.86-1.46,1.45-2.62,1.45Zm-68.5-5.51h-.88c-1.45-.58-2.31-2.03-2.03-3.77,1.74-5.51,2.91-10.16,4.35-14.23v-.28h.58-.28c.28-1.46,2.03-2.62,3.49-2.04,1.45.58,2.31,2.04,2.03,3.78l-.3.28c-1.73,5.23-2.89,9.86-4.05,14.23-.3,1.16-1.74,2.03-2.91,2.03Zm-143.38-6.68h-.58c-1.46-.58-2.61-2.03-2.32-3.49,1.16-4.93,2.32-9.86,3.49-14.8h0v-.3c.58-1.45,2.03-2.32,3.49-2.03.86,0,1.45.58,1.73,1.16.58.58.58,1.45.58,2.32v.28h0q-.28.3-.28.58c-1.46,5.51-2.32,9.86-3.19,13.93-.3,1.16-1.46,2.32-2.91,2.32Zm229.01-22.63c-.3,0-.88,0-1.16-.3-.58-.28-1.16-.86-1.46-1.45-.28-.88-.28-1.46-.28-2.32.28,0,.28-.3.28-.3,2.04-4.93,3.49-9.28,4.93-13.93.3-1.45,2.04-2.32,3.49-1.74,1.74.3,2.61,2.04,2.03,3.49-1.45,4.93-3.19,9.58-5.22,14.23v.58c-.58.86-1.46,1.74-2.61,1.74Zm-72.86-7.26c-.28,0-.86-.3-1.16-.3-.58-.28-1.16-.86-1.45-1.74-.3-.58-.3-1.45,0-2.03,1.74-4.35,4.05-9,6.38-13.65q.3-.28.3-.58c.86-1.16,2.61-1.74,4.05-1.16,1.16.88,1.74,2.62,1.16,4.07h0l-.28.3c-2.03,4.05-4.07,8.4-6.39,13.35-.28.86-1.45,1.74-2.61,1.74Zm-146.29-7.84h-.86c-.58-.3-1.46-.88-1.74-1.46-.3-.86-.3-1.45,0-2.32,1.16-4.35,2.61-8.7,4.07-13.05l.57-1.16v-.3h0c.58-1.45,2.32-2.32,3.78-1.74,1.45.58,2.32,2.04,1.74,3.78h0v.28c-1.74,4.65-3.2,9.3-4.65,13.93-.58,1.16-1.45,2.04-2.91,2.04Zm228.72-22.35h0c-1.74-.3-2.89-1.46-2.89-3.2l.28-.28h0v-3.77c0-3.78-.28-6.97-1.16-10.16-.28-.58-.28-1.46,0-2.04.58-.86,1.16-1.15,1.74-1.45,1.45-.28,3.19.3,3.77,2.03.88,3.49,1.46,7.26,1.46,11.62v4.05s0,.3-.3.58h0c0,1.46-1.45,2.62-2.91,2.62Zm-63.27-3.49c-.58,0-1.16-.3-1.74-.58-1.16-1.16-1.46-2.91-.58-4.07,3.49-4.65,6.96-8.42,10.16-11.61.28,0,.28-.3.28-.3h.3c.86-1.15,2.89-.86,4.05,0,.88,1.16.88,3.2-.28,4.37l-.3.28c-3.19,2.91-6.38,6.68-9.57,10.74-.58.58-1.46,1.16-2.32,1.16Zm-152.38-10.74c-.3,0-.58,0-1.16-.28-.58-.3-1.16-.88-1.46-1.46-.28-.86-.28-1.45,0-2.32,1.74-4.35,3.49-9,5.53-13.93h0s0-.28.28-.28c.28-1.46,2.32-2.04,3.77-1.46,1.46.58,2.04,2.32,1.46,3.78h0v.28c-1.74,4.07-3.49,8.42-5.81,13.65-.28,1.16-1.45,2.03-2.61,2.03Zm182.57-13.07c-1.46,0-2.62-.86-2.91-2.03-.58-1.45.28-3.19,1.74-3.77,2.91-.88,5.8-1.46,8.7-1.74,2.03-.28,4.65-.28,6.97-.28h.28l.3.28c1.73,0,2.89,1.45,2.61,3.19,0,1.46-1.45,2.91-3.19,2.32l-.3.3c0-.3-.28-.3-.28-.3-1.74,0-3.78,0-5.81.3-2.32,0-4.93.58-7.26,1.45-.28.28-.58.28-.86.28Zm-167.48-22.92c-.3,0-.88,0-1.16-.3-1.46-.58-2.04-2.32-1.46-3.77,2.32-4.93,4.37-9.58,6.39-13.65v-.28c.86-1.46,2.32-2.04,4.07-1.16,1.45.58,2.03,2.32,1.16,3.77v.3c-2.04,4.35-4.07,8.7-6.39,13.35-.28,1.16-1.45,1.74-2.61,1.74Zm16.84-35.13c-.58,0-.88,0-1.46-.28-1.45-.58-2.03-2.32-1.16-3.77,2.32-4.35,4.65-9,6.68-13.35.3,0,.3-.3.3-.3h0v-.28c.86-1.16,2.61-1.74,3.77-1.16,1.45.86,2.03,2.61,1.45,4.07v.28h-.28q0,.28-.3.28l-.86,1.74c-1.74,3.78-3.77,7.55-5.51,11.32-.58.88-1.46,1.45-2.61,1.45Zm17.98-34.24c-.58,0-.86-.3-1.45-.58-1.46-.58-2.03-2.32-1.16-3.77,1.45-2.62,2.61-4.95,4.07-7.55,1.16-1.74,2.03-3.77,3.19-5.51v-.28h.28c.58-1.46,2.62-2.04,3.78-1.16,1.45.58,2.03,2.31,1.16,3.77l-1.74,3.49c-2.04,3.19-3.78,6.68-5.51,9.86-.58,1.16-1.46,1.74-2.62,1.74Zm19.16-33.96c-.58,0-1.16-.3-1.45-.58-.88-.3-1.16-.88-1.46-1.74-.28-.88,0-1.46.3-2.04,1.45-2.61,2.89-5.22,4.35-7.54,1.16-2.03,2.03-3.77,3.19-5.51h0c0-.3.3-.3.3-.58.86-1.16,2.61-1.45,3.77-.88,1.45.88,2.03,2.62,1.16,4.07v.3c-2.62,4.05-4.93,8.12-7.84,13.05-.58.88-1.46,1.46-2.32,1.46Zm-258.32-20.61c-1.46,0-2.91-1.16-2.91-2.91,0-1.46,1.45-2.91,2.91-2.91h.28c2.91,0,7.26-1.74,11.9-4.65v-.28h.28c1.46-.88,3.2-.58,4.07.58.88,1.45.58,3.19-.86,4.07,0,0,0,.28-.3.28h0c-6.09,4.07-11.03,5.81-15.38,5.81Zm-191.57-.88c-1.16,0-2.03-.28-2.61-1.16-.3-.86-.58-1.45-.3-2.32,0-.58.58-1.45,1.16-1.73,3.49-2.32,7.26-5.23,11.03-9.3h.3v-.28c1.16-.88,2.91-.88,4.07.28,1.15,1.16,1.15,2.91,0,4.07h0c-.3,0-.3.28-.3.28-4.35,4.07-8.42,7.55-11.9,9.88-.58.28-1.16.28-1.45.28Zm-13.93-7.26h-.58c-.58-.28-1.45-.58-1.74-1.16-.58-.58-.86-1.45-.58-2.03v-.3h0v-.28c.58-4.07,1.74-9,3.77-14.81.58-1.45,2.32-2.31,3.78-2.03,1.45.58,2.31,2.32,1.73,3.77-1.73,5.51-3.19,10.16-3.47,13.93v.3h-.3c0,1.45-1.16,2.61-2.61,2.61Zm483.85-4.93c-.58,0-1.16,0-1.74-.28-.58-.3-.86-1.16-1.16-1.74-.28-.88,0-1.46.3-2.32,2.61-4.35,5.22-8.72,7.84-12.77l.58.28-.58-.28q.28,0,.28-.3c.88-1.16,2.62-1.74,4.07-.86,1.16.86,1.74,2.61.86,4.05h0l-.28.3-.88,1.74c-2.31,3.49-4.63,6.96-6.96,11.03-.58.88-1.45,1.16-2.32,1.16Zm-286.18-5.81h-.3c-1.74-.28-2.61-1.73-2.61-3.19l.28-.28v-.3c.58-3.19,1.46-7.26,2.91-11.61.3-1.16.58-2.03.88-3.19.28-1.46,2.03-2.32,3.47-1.74,1.74.58,2.32,2.03,2.04,3.49l-.3.58c-.28.86-.28,1.73-.58,2.61-1.45,4.07-2.31,7.84-2.61,11.03,0,0-.28,0-.28.3h0c0,1.45-1.46,2.31-2.91,2.31Zm39.47-2.31c-.58,0-1.45-.3-1.74-.58-1.16-1.16-1.45-3.2-.28-4.37,3.19-3.19,6.38-6.96,9.58-11.03h0c0-.28.28-.28.28-.28.86-1.16,2.91-1.46,4.07-.3,1.16.88,1.45,2.62.58,4.07h-.3v.28c-2.91,3.49-6.09,7.26-9.86,11.32-.58.58-1.45.88-2.32.88Zm-195.92-6.97c-.58,0-1.16-.28-1.74-.58-.58-.58-1.16-1.16-1.16-2.03s.3-1.46.58-2.04c2.62-3.47,5.51-6.96,9-11.89v-.3s.3,0,.3-.28c.86-1.16,2.61-1.16,3.77-.58,1.45.86,1.74,2.91.86,4.05,0,.3-.28.3-.28.3h0c-3.49,4.93-6.39,8.7-9,12.19-.58.58-1.45,1.16-2.32,1.16Zm-28.44-16.54c-.58,0-.86-.3-1.16-.3-.86-.28-1.45-.86-1.74-1.74-.28-.58-.28-1.45.3-2.03v-.58c2.03-4.07,4.35-8.42,6.68-13.35.86-1.45,2.61-2.03,3.77-1.16.86.28,1.45.86,1.45,1.74.3.58.3,1.45,0,2.03-2.61,5.23-4.93,9.58-6.68,13.35v.3c-.58,1.16-1.45,1.74-2.61,1.74Zm491.69-1.16c-.58,0-1.16-.3-1.45-.58-.58-.3-1.16-1.16-1.46-1.74,0-.88,0-1.45.58-2.03,2.62-4.07,5.51-8.72,8.14-12.78l.28-.28c.88-1.16,2.62-1.74,3.77-.86,1.46.86,1.74,2.89.88,4.05v.3h0c-2.91,4.05-5.51,8.42-8.14,12.47-.57.88-1.45,1.46-2.61,1.46Zm-243.81-6.09c-.58,0-.86-.3-1.45-.58-.58-.3-1.16-.88-1.16-1.74-.3-.58-.3-1.46.28-2.04,2.61-4.35,4.93-8.7,7.26-12.77l.3-.28h0c.58-1.46,2.61-2.03,3.77-1.16,1.45.58,2.03,2.32,1.45,3.77-.28,0-.28.3-.28.3-2.04,4.05-4.35,8.12-7.55,13.05-.58.88-1.45,1.46-2.61,1.46Zm-51.09-3.78c-.28,0-.57,0-.86-.28-.86-.3-1.45-.86-1.74-1.45-.28-.88-.28-1.46,0-2.32h0l.3-.3c1.74-4.63,4.05-9.28,6.38-13.63.58-1.46,2.32-2.04,3.77-1.46.88.58,1.16,1.16,1.46,1.74.28.88.28,1.74,0,2.32-2.32,4.07-4.35,8.7-6.39,13.35h0v.3h-.28c-.3,1.15-1.46,1.73-2.62,1.73Zm-146.27-4.35c-.58,0-.88-.28-1.46-.58-1.45-.86-1.74-2.61-.86-4.05,2.03-3.49,4.63-7.84,7.26-12.78h0c0-.28.28-.28.28-.28.58-1.45,2.62-1.74,3.77-1.16.88.58,1.16,1.16,1.46,1.74.28.86.28,1.74-.3,2.32h0v.28c-2.89,4.93-5.51,9.58-7.54,13.07-.58.86-1.46,1.45-2.61,1.45Zm462.36-18.57c-.28,0-.86,0-1.16-.3-1.45-.86-2.03-2.61-1.16-4.07,2.32-3.77,4.95-8.42,7.26-12.77v-.28h.3v-.3h.28c.58-1.16,2.32-1.74,3.49-.86,1.45.58,2.03,2.32,1.16,3.77q0,.3-.28.58c-2.32,4.35-4.65,8.7-7.26,13.07-.58.58-1.46,1.16-2.62,1.16Zm-494.87-.58c-.58,0-1.16,0-1.46-.3-1.45-.86-2.03-2.61-1.16-4.07l.3-.28.28-.3c2.32-4.35,4.95-8.42,7.55-12.47.86-1.16,2.61-1.74,4.07-.88,1.16.88,1.74,2.62.86,4.07-2.91,4.35-5.51,8.42-7.84,12.49h0v.28l-.28-.28.28.28h0c-.58.88-1.45,1.46-2.61,1.46Zm247.88-7.26c-.3,0-.58,0-1.16-.3-.58-.28-1.16-.86-1.46-1.45-.28-.58-.28-1.46,0-2.32,2.04-4.07,3.78-8.42,5.81-13.65v-.28h0c.58-1.46,2.32-2.04,3.77-1.74.88.28,1.46.86,1.74,1.45.3.88.3,1.74,0,2.32v.58c-1.74,4.35-3.77,9-5.8,13.65-.58,1.16-1.74,1.74-2.91,1.74Zm-50.79-3.49c-.58,0-1.16-.3-1.74-.58-1.16-.88-1.74-2.61-.88-3.77,0-.3.3-.3.3-.58,2.61-4.37,5.51-8.42,8.42-12.49.86-1.16,2.61-1.45,4.07-.58.57.3.86,1.16,1.15,1.74,0,.86,0,1.74-.58,2.32-2.61,3.77-5.51,7.84-8.12,11.89v.3l-.28.28c-.58.88-1.46,1.46-2.32,1.46Zm-146-4.35c-.58,0-.86-.3-1.45-.3-.58-.28-1.16-.86-1.46-1.74-.28-.86-.28-1.45.3-2.32,2.03-4.35,4.07-8.7,6.09-13.35v-.28c.58-1.46,2.32-2.32,3.77-1.74.88.28,1.46.86,1.74,1.74.3.58.3,1.45,0,2.32l-.28.28c-1.74,4.07-3.78,8.72-6.09,13.65-.58.86-1.46,1.74-2.62,1.74Zm-29.89-17.42c-.58,0-1.16,0-1.74-.58-.58-.3-.86-.88-1.16-1.74,0-.86,0-1.45.58-2.32h0l.28-.28s0-.3.3-.3c2.61-3.77,5.81-7.84,8.7-11.61.88-1.16,2.91-1.45,4.07-.58,1.16,1.16,1.45,2.91.58,4.07-3.19,4.05-6.09,8.12-9,11.89l-.28.3c-.58.86-1.46,1.16-2.32,1.16Zm491.69-1.16c-.3,0-.58-.3-1.16-.3-1.45-.86-2.03-2.31-1.45-3.77,2.31-5.51,4.35-9.86,5.51-13.63l.28-.3v-.28c.58-1.16,2.04-2.04,3.77-1.46.58,0,1.16.58,1.46,1.46.28.58.58,1.45.28,2.03q0,.28-.28.28v.3c-1.46,4.35-3.49,8.7-5.51,13.93-.58.86-1.74,1.74-2.91,1.74Zm-293.16-8.42c-.58,0-1.16-.3-1.74-.86-1.16-.88-1.45-2.91-.28-4.07h0c.28,0,.28-.3.28-.3,3.78-4.63,6.97-8.12,9.88-11.31,1.16-1.16,2.89-1.16,4.05,0s1.46,2.89.3,4.05c-2.91,3.2-6.39,6.97-9.88,11.04v.28h-.28s0,.3-.28.3c-.3.57-1.16.86-2.04.86Zm41.51-1.45q-.3,0-.58-.3c-.88,0-1.46-.58-1.74-1.16-.58-.86-.58-1.45-.3-2.32,1.16-4.93,2.32-9.86,3.2-14.21v-.3h0v-.28c.58-1.46,2.03-2.32,3.49-2.04.57,0,1.45.3,1.73,1.16.58.58.58,1.46.58,2.04v.58c-.86,4.63-2.03,9.58-3.47,14.51-.3,1.45-1.46,2.32-2.91,2.32Zm-195.34-7.55c-.3,0-.58,0-.88-.28-1.74-.58-2.32-2.04-1.74-3.49,1.46-4.35,2.91-9,4.65-14.23v-.28c.58-1.46,2.03-2.32,3.77-2.04.58.3,1.16.88,1.46,1.46.58.86.58,1.45.28,2.32v.28h0c-1.45,4.35-2.91,9-4.93,14.23-.28,1.16-1.45,2.03-2.61,2.03Zm-20.32-11.61c-.58,0-1.45-.3-1.74-.58-1.45-1.16-1.45-2.91-.28-4.35h.28c2.91-3.49,6.39-6.97,10.16-11.04,1.16-1.15,3.19-1.15,4.35,0,.88,1.16.88,2.91,0,4.07-3.77,3.49-6.96,7.26-10.16,10.74q-.28,0-.28.28h0c-.58.58-1.45.88-2.32.88Zm201.15-7.55c-.88,0-1.46-.28-2.04-.86s-.86-1.45-.86-2.03c0-.88.28-1.74.86-2.04,0-.28.3-.28.3-.28h0c4.07-3.77,7.84-6.97,11.32-10.16,1.16-.86,3.19-.86,4.05.28,1.16,1.46.88,3.2-.28,4.37-3.49,2.89-7.26,6.09-11.03,9.57l-.3.3h0c-.58.58-1.16.86-2.03.86Zm278.93-.28h-.86c-.58-.3-1.16-.58-1.74-1.45-.3-.58-.58-1.16-.3-2.04.88-4.93,1.74-9.86,2.32-14.21v-.58c0-1.46,1.16-2.62,3.19-2.62,1.46.3,2.62,1.74,2.62,3.2v.28c-.58,4.93-1.46,10.16-2.62,15.09-.28,1.45-1.45,2.32-2.61,2.32Zm-258.62-11.32c-1.73,0-2.89-1.45-2.89-2.91,0-5.51-.3-10.15-1.16-14.51v-.28h0c-.3-1.45.86-3.19,2.32-3.49,1.73,0,3.19.88,3.19,2.61.28,0,.28.3.28.3.88,4.65,1.16,9.86,1.16,15.38,0,1.46-1.45,2.91-2.91,2.91Zm-190.11-6.38c-.28,0-.28-.3-.58-.3-.86,0-1.74-.86-2.03-1.45-1.16.28-2.32,0-3.2-.88-.86-1.16-.86-2.89.3-4.05l.28-.3h0c1.46-1.16,2.62-2.32,4.07-3.49.58-2.61.88-5.22,1.45-7.54v-.3h.3-.3c.3-1.73,2.04-2.89,3.49-2.61.88.3,1.46.58,1.74,1.45.58.58.58,1.16.58,2.04v.28h0c-.28.3-.28.58-.28.88l.58-.3c1.15-.86,3.19-.86,4.05.58.58.3.58,1.16.58,2.04,0,.58-.28,1.45-1.16,2.03-2.03,1.45-4.05,3.19-5.8,4.65-.3,1.45-.88,3.19-1.16,4.93-.3,1.16-1.46,2.32-2.91,2.32Zm199.69-6.68c-.86,0-1.74-.58-2.32-1.16-.86-1.46-.58-3.2.88-4.37h.28c3.49-2.61,7.55-5.51,12.19-8.7,1.16-.86,3.2-.58,4.07.88.88,1.15.58,2.89-.86,4.05-4.35,2.62-8.14,5.51-11.9,8.42h-.28l-.3.3c-.58.28-1.16.58-1.74.58Zm250.2-14.23c-1.45,0-2.61-.86-2.91-2.32-.86-4.63-2.32-9-4.35-13.35v-.28c-.58-.58-.58-1.46-.28-2.32.28-.58.86-1.16,1.45-1.46,1.45-.86,3.19-.28,4.07,1.16v.3c0,.28,0,0,0,0,.28.28.28.58.28.58,2.03,4.35,3.49,9,4.65,14.21.28.88,0,1.74-.3,2.32-.58.58-1.16,1.16-2.03,1.16h-.58Zm-422.61-4.35c-1.16,0-2.03-.58-2.61-1.46-.88-1.15-.3-2.89.86-3.77l.58-.28c4.35-3.2,9-5.81,12.49-7.84,1.74-.88,3.49-.3,4.07.86.86,1.46.28,3.2-.88,4.07-4.07,2.32-8.12,4.93-12.49,7.84h-.28c-.58.28-1.16.58-1.74.58Zm204.92-2.91c-.86,0-1.74-.58-2.32-1.45-.28-.58-.58-1.46-.28-2.04.28-.86.58-1.45,1.16-1.74q.28-.28.58-.28c5.22-2.91,9.28-5.23,13.05-7.26,1.46-.58,3.19,0,3.77,1.16.88,1.45.3,3.19-1.16,4.07-4.05,2.03-8.4,4.35-12.77,6.96q-.28.3-.58.3c-.28.28-.86.28-1.45.28Zm-377.91,0h-.86c-.88-.28-1.46-.86-1.74-1.45-.3-.88-.58-1.74-.3-2.32,1.46-4.35,3.2-9.58,4.93-14.23.58-1.45,2.32-2.32,3.78-1.74,1.45.58,2.31,2.32,1.74,3.78-1.46,4.35-3.2,9-4.95,13.93-.28,1.16-1.45,2.03-2.61,2.03Zm326.83-2.91c-1.16,0-2.04-.58-2.62-1.45-2.32-4.07-5.51-7.84-8.7-11.03h-.3c-.58-.58-.86-1.46-.86-2.04,0-.86.28-1.74.86-2.03.88-1.16,2.91-1.45,4.07-.3h0l.3.3c3.77,3.77,6.96,7.84,9.57,12.19.88,1.45.3,3.19-.86,4.07-.58.28-1.16.28-1.45.28Zm-174.45-7.26h-.28c-1.46-.28-2.62-1.74-2.62-3.19.58-4.93.88-9.86,1.16-14.8v-.3c.3-1.74,1.46-2.61,3.19-2.91,1.46.3,2.91,1.46,2.62,3.2v.28c-.3,4.93-.58,10.16-1.16,15.09-.3,1.45-1.46,2.61-2.91,2.61Zm54.56-5.8c-1.16,0-2.32-.58-2.61-1.74-.3-.58-.58-1.46-.3-2.32.3-.58.88-1.16,1.74-1.45h0l.3-.3c4.93-2.03,9.58-4.07,13.93-5.51,1.45-.58,3.19.28,3.77,1.74.58,1.45-.28,3.19-1.74,3.77-4.63,1.45-9.28,3.49-13.63,5.51h-.3c-.28.3-.86.3-1.16.3Zm205.8-1.74c-1.16,0-2.32-.58-2.62-1.46-.28-.86-.58-1.73-.28-2.31.28-.88.86-1.16,1.74-1.74h.28c4.07-1.74,8.72-3.78,13.93-5.81,1.46-.58,3.19.3,3.77,1.74.3.58.3,1.45,0,2.03-.58.88-1.15,1.46-1.73,1.74-5.23,2.04-9.58,3.77-13.65,5.51,0,0-.28,0-.28.3h-1.16Zm163.41-7.55c-.58,0-1.16-.28-1.74-.58-3.49-2.89-7.55-5.51-12.19-7.54v-.3h-.3c-.58-.28-1.16-.86-1.45-1.73-.3-.58-.3-1.46.28-2.04.58-1.45,2.32-2.03,3.78-1.45l.28.28c4.93,2.32,9.28,4.93,13.07,8.14,1.45.86,1.45,2.89.58,4.05-.58.58-1.46,1.16-2.32,1.16Zm-278.93-1.45c-.58,0-.88,0-1.16-.3-4.37-1.45-9-2.61-13.93-3.19h-.3c-1.45-.28-2.61-1.74-2.32-3.49,0-1.45,1.46-2.61,3.2-2.31h.58c5.22.86,10.15,2.03,14.8,3.77,1.45.28,2.32,2.03,1.74,3.49-.3,1.15-1.46,2.03-2.61,2.03Zm-53.42-1.45c-1.45,0-2.61-1.16-2.91-2.32-.28-1.74.58-3.2,2.04-3.49l.28.28v-.28h.3c5.22-1.16,10.16-2.03,15.09-2.32,1.45,0,2.91.88,2.91,2.61.28,1.46-.88,2.91-2.62,2.91-4.63.58-9.58,1.46-14.21,2.32h-.3c-.28.3-.58.3-.58.3Zm205.22-3.2c-1.16,0-2.32-.58-2.62-2.03-.58-1.46.3-2.91,1.74-3.49.3,0,.3-.28.3-.28h.28c4.93-1.46,9.58-2.62,14.23-3.78,1.74-.58,3.19.58,3.77,2.04.28,1.45-.88,3.19-2.32,3.49-5.23,1.45-9.86,2.61-13.93,3.77l-.28.28h-1.16Zm-435.38-4.63h-1.16c-1.46-.88-2.32-2.62-1.46-4.07v-.3c0-.28.3-.28.3-.28,1.74-4.65,3.77-9,6.09-13.35.58-1.46,2.32-2.04,3.77-1.46,1.45.88,2.03,2.62,1.45,4.07-2.31,4.65-4.35,9-6.38,13.35v.3h0c-.58,1.16-1.45,1.74-2.61,1.74Zm473.39-4.07c-1.45,0-2.89-1.16-2.89-2.32-.3-.86,0-1.74.58-2.32.28-.58.86-.86,1.74-1.16h.86c4.93-.86,9.86-1.45,14.51-1.74h.28c1.46,0,2.62,1.16,2.91,2.62,0,.86-.28,1.74-.86,2.32-.3.57-1.16.86-1.74.86-4.35.28-9,.86-14.81,1.74h-.58Zm53.7-.3h-.58c-4.63-.86-9.58-1.45-14.21-1.74h-.58c-.58,0-1.46-.28-2.04-.86-.28-.58-.57-1.45-.57-2.32,0-1.45,1.45-2.61,2.89-2.61h1.16c4.93.28,9.88.86,14.51,1.74,1.46.28,2.62,1.74,2.32,3.49-.28,1.45-1.45,2.31-2.91,2.31Zm-386.61-8.7c-1.74,0-3.19-1.16-3.19-2.91,0-4.65-.3-9.58-.88-14.51h0v-.58h0c0-.58.3-1.45.58-2.03.58-.58,1.46-.88,2.04-.88,1.73,0,3.19.88,3.19,2.62h0v.28c.58,4.93.86,10.16.86,15.09,0,.58-.28,1.46-.58,2.04-.58.57-1.45.86-2.03.86h0Zm-123.07-21.49c-.58,0-1.16-.28-1.45-.58-1.45-.86-1.74-2.61-1.16-3.77l.3-.28q0-.3.28-.58c2.32-4.07,4.93-8.14,7.84-12.19.58-1.46,2.61-1.74,3.77-.88,1.46.88,1.74,2.62.88,4.07-2.62,3.77-5.23,7.84-7.84,12.19v.58h0c-.58.86-1.74,1.45-2.62,1.45Zm118.14-17.12c-1.46,0-2.62-.86-2.91-2.03-1.16-4.93-2.61-9.58-4.35-13.93h0v-.3c-.58-1.45,0-3.19,1.45-3.77,1.46-.58,3.19.28,3.77,1.45q.3.3.3.58c1.74,4.65,3.49,9.58,4.65,14.51,0,.88,0,1.46-.3,2.04-.58.86-1.16,1.16-2.03,1.45h-.58Zm-95.79-14.8c-.58,0-1.45,0-2.03-.58s-.86-1.16-.86-2.04.28-1.45.58-2.03l.28-.3h0c3.77-4.35,7.26-7.82,10.74-11.03.86-1.16,2.91-.86,4.05.3.88,1.16.88,2.91-.28,4.05-3.19,3.2-6.68,6.68-10.16,10.46v.28h-.28c-.58.58-1.16.88-2.04.88Zm78.95-19.74c-.88,0-1.45-.28-2.03-.86-3.49-3.49-7.26-6.39-11.04-8.14h-.28c-.88-.28-1.46-.86-1.46-1.74-.28-.58-.28-1.45,0-2.03.58-1.46,2.32-2.32,3.78-1.74,0,.28.28.28.28.28,4.93,2.32,9.3,5.53,12.77,9.58.58.3.88,1.16.88,2.04,0,.58-.3,1.45-.88,2.03-.58.3-1.16.58-2.03.58Zm-49.35-5.23c-1.16,0-2.03-.58-2.61-1.45-.58-.58-.58-1.45-.28-2.03.28-.88.57-1.46,1.45-1.74,0-.3.28-.3.28-.3h0s.3,0,.3-.28h0c4.93-2.62,9.86-4.35,14.21-5.23,1.46-.58,3.2.58,3.49,2.03.3,1.74-.58,3.2-2.03,3.49-4.35,1.16-9,2.62-13.35,5.23h-.3c-.28.28-.86.28-1.16.28Z"/></g></svg>