<?xml version="1.0" encoding="UTF-8" standalone="no"?><svg xmlns="http://www.w3.org/2000/svg" xmlns:xlink="http://www.w3.org/1999/xlink" contentScriptType="text/ecmascript" fill="#000000" width="861" zoomAndPan="magnify" contentStyleType="text/css" viewBox="0.0 0.0 861.4 861.4" height="861" data-name="Layer 2" preserveAspectRatio="xMidYMid meet" version="1"><g data-name="Layer 1"><g><g id="change1_1"><circle fill="#ffffff" r="430.69" cx="430.69" cy="430.69"/></g><g id="change2_1"><path fill="#51233c" d="m769.1,373.53c-3.3,0-6.24-2.34-6.87-5.71-29.98-159.06-169.41-274.51-331.53-274.51-41.29,0-81.62,7.37-119.87,21.91-3.61,1.37-7.66-.44-9.03-4.06s.44-7.66,4.06-9.03c39.84-15.15,81.84-22.83,124.84-22.83,168.85,0,314.07,120.24,345.29,285.91.72,3.8-1.78,7.46-5.58,8.18-.44.08-.87.12-1.3.12Z"/></g><g id="change2_2"><path fill="#51233c" d="m122.14,294.57c-2.54,0-5.12-.57-7.56-1.78-8.41-4.18-11.83-14.38-7.65-22.79,17.1-34.38,39.49-65.72,66.55-93.14,27.05-27.41,58.08-50.2,92.21-67.75,8.35-4.29,18.6-1,22.89,7.35,4.29,8.35,1,18.6-7.35,22.89-61.83,31.78-112.92,83.56-143.87,145.79-2.97,5.97-8.99,9.43-15.23,9.43Z"/></g><g id="change2_3"><path fill="#51233c" d="m92.29,373.53c-.43,0-.87-.04-1.3-.12-3.8-.72-6.3-4.38-5.58-8.17,1.63-8.65,3.61-17.34,5.89-25.85,1-3.73,4.84-5.95,8.58-4.95,3.73,1,5.95,4.84,4.95,8.58-2.19,8.16-4.09,16.51-5.66,24.81-.63,3.36-3.57,5.71-6.87,5.71Z"/></g><g id="change2_4"><path fill="#51233c" d="m430.69,792.07c-48.78,0-96.11-9.56-140.67-28.41-43.04-18.2-81.68-44.26-114.86-77.44-33.18-33.18-59.24-71.83-77.44-114.86-18.85-44.56-28.41-91.89-28.41-140.67,0-9.24.35-18.56,1.05-27.7.71-9.36,8.9-16.37,18.24-15.66,9.36.71,16.38,8.88,15.66,18.24-.63,8.29-.95,16.75-.95,25.13,0,180.52,146.86,327.38,327.38,327.38,150.39,0,280.97-101.73,317.54-247.39,2.29-9.11,11.52-14.63,20.63-12.35,9.11,2.29,14.63,11.52,12.35,20.63-19.25,76.7-64.22,146.09-126.6,195.4-31.22,24.67-65.99,43.89-103.34,57.1-38.65,13.68-79.22,20.61-120.58,20.61Z"/></g><g id="change2_5"><circle fill="#51233c" r="26.41" cx="775.91" cy="436.7"/></g><g id="change3_1"><path fill="#51233c" d="m482.77,397.94c-2.29.69-2.29,3.93,0,4.62,58.1,17.47,87.15,53.92,87.15,109.37,0,24.62-5.85,46.23-17.54,64.83s-27.77,32.99-48.23,43.18c-20.46,10.19-42.21,15.28-65.23,15.28-31,0-55.84-9.52-74.53-28.56-18.69-19.04-28.03-41.23-28.03-66.56,0-12.75,3.28-23.65,9.83-32.68,6.55-9.03,15.85-13.55,27.9-13.55s20.73,3.99,27.1,11.96c6.38,7.97,9.57,17.8,9.57,29.49,0,4.78-.98,12.84-2.92,24.18-1.06,4.96-1.59,9.48-1.59,13.55,0,7.62,2.39,14.13,7.17,19.53,4.78,5.41,11.43,8.1,19.93,8.1,11.16,0,19.44-4.65,24.84-13.95,5.4-9.3,8.1-24.22,8.1-44.77,0-5.31-.18-10.63-.53-15.94l-2.85-58.61c-.34-7.02-1.67-13.98-4.2-20.54-2.42-6.26-5.48-11.23-9.16-14.91-6.02-6.02-12.35-9.7-19-11.03-6.64-1.33-17.23-1.99-31.75-1.99l-7.71.27c-5.31,0-8.15-2.57-8.5-7.71l-.53-11.63s0-.08-.01-.12c0-.06-.02-.12-.02-.18-1.1-8.17,5.44-15.4,13.69-15.44,19.17-.11,33-1.83,41.48-5.18,8.77-3.45,14.65-8.72,17.67-15.81,3.01-7.08,4.52-22.59,4.52-46.5,0-33.83-1.77-56.33-5.31-67.49-3.55-11.16-10.81-16.74-21.79-16.74-6.73,0-12.62,2.22-17.67,6.64-5.05,4.43-7.57,10.1-7.57,17,0,4.61.8,11.25,2.39,19.93,2.3,12.22,3.45,21.43,3.45,27.63,0,10.28-3.45,18.42-10.36,24.44-6.91,6.02-15.14,9.03-24.71,9.03-11.87,0-21.12-4.69-27.77-14.08-6.64-9.39-9.96-21.08-9.96-35.07,0-24.45,9.47-45.88,28.43-64.3,18.95-18.42,44.55-27.63,76.79-27.63,37.2,0,65.54,11.34,85.03,34.01,19.48,22.68,29.23,47.65,29.23,74.93,0,21.26-6.55,40.25-19.66,56.99-13.11,16.74-32.15,28.74-57.13,36h0Z"/></g></g></g></svg>