<?xml version="1.0" encoding="UTF-8" standalone="no"?><svg xmlns="http://www.w3.org/2000/svg" xmlns:xlink="http://www.w3.org/1999/xlink" contentScriptType="text/ecmascript" fill="#000000" width="1111" zoomAndPan="magnify" contentStyleType="text/css" viewBox="-20.6 -30.2 1110.9 1320.1" height="1320" preserveAspectRatio="xMidYMid meet" version="1"><g data-name="Layer_1"><g><g id="change1_1"><path fill="#f2bc57" d="M358.39,769.24c4.8,1.61,10.32-.28,12.51-5.15,21.56-47,45.24-97.15,72.37-153.33,1.99-4.12.87-9.06-2.69-11.93-111.48,59.83-211.75,175.99-309.59,266.59-10.3,15.23-151.6,140.68-99.77,138.98,120.38-61.13,214.83-160.94,327.17-235.16Z"/></g><g id="change1_2"><path fill="#f2bc57" d="M282.56,1103.12c94.67-126.25,181.94-255.33,261.1-391.14,46.37-68.14,72.55-151.22,80.38-234.13,25.17-129.13,145.02-231.75,137.24-367.22C751.09-23.73,580.12-.05,527.26,90.73c-58.62,86.57-30.59,172.91,58.88,230.71-3.26,28.01-25.58,57.46-35.65,81.61-11,27.09-450.48,886.83-267.94,700.06ZM600.14,114.97c130.87-129.38,129.86,91.81,58.41,157.47-84.55-3.48-110.47-97.07-58.41-157.47Z"/></g><g id="change1_3"><path fill="#f2bc57" d="M1014.93,243.53c-150.4-52.34-243.52,126.84-351.91,200.61-29.28,14.15-33.49,20.03-37.72,52.58-.52,14.29-19.46,77.73,11.92,54.95,107.78-103.83,119.87-78.27,256.11-63.22,51.88-1.5,100.77-23.61,131.01-59.44,42.59-54.6,52.74-145.36-9.4-185.48ZM959.9,403.14c-52.94,51.55-162.62,49.89-100.81-47.32,72.41-107.67,231.18-78.97,100.81,47.32Z"/></g><g id="change2_1"><path fill="#e1a031" d="M513.49,616.37c-22.62-9.99-13.58-37.76.36-51.38,7.32-8.75,21.67-21.27,32.15-10.2,10.23,1.26,17.67,11.58,18.56,21.4,1.8,24.75-27.43,48.08-51.07,40.18Z"/></g><g id="change3_1"><path fill="#471911" d="M658.55,282.26c8.96,0,16.36-11.89,20.94-19.29,15.88-26.01,29.02-56.71,34.85-87.01,20.6-102.53-47.2-150.98-121.54-67.51-53.14,60.28-33.58,168.77,57.88,170.67,2.72,2.22,5.35,3.15,7.86,3.15ZM588.95,174.67c4.35-32.2,25.56-60.28,53.24-76.62,9.11-5.29,16.71-7.58,23.03-7.58,29.29,0,30.97,49.25,25.57,77.9-6.04,30.94-18.03,59.88-35.35,86.48-1.5-.08-3.01-.08-4.49-.21-43.69-.35-68.87-38.86-62-79.98Z"/></g><g id="change3_2"><path fill="#471911" d="M1034.56,239.46c-18.37-16.88-44.63-20.67-68.72-20.1-110.81,3.55-187.72,95.09-257.97,169.94-16.29,16.61-34.56,31.05-54.34,43.26,10.06-26.67,22.54-52.59,35.5-77.85,35.73-69.79,84.42-138.49,88.03-219.27,4.09-113.23-87.13-165.61-186.63-117.7-73.74,33.06-122.48,121.42-105.27,201.3,9.97,47.2,47.45,81.97,86.09,107.77-37.5,76.92-75.46,153.48-112.87,230.27-.38.27-.76.45-1.15.76-136.78,104.29-265.2,219.96-383.08,345.41-17.09,18.26-34.16,36.65-49.85,56.16-13.25,16.46-41.87,47.72-9.28,60.34,2.15.38,4.35.56,6.62.56,31.34,0,73.07-34.89,97.14-51.28,41.85-31.64,83.52-63.56,125.12-95.53,33.66-25.85,67.35-51.67,101.44-76.94-23.36,51.76-46.03,103.91-67.68,156.61-15.13,36.23-30.36,72.44-43.69,109.38-7.33,23.32-30.55,75.76,6.04,84.04.81.08,1.61.12,2.42.12,46.05,0,109.95-119.46,138.22-155.6,76.02-105.58,145.87-214.92,208.15-329.93,12.43-23.94,23.97-48.79,31.61-74.7.19-.66.33-1.34.51-2,10.3-.77,19.06-16.33,27.01-22.75,30.72-28.38,63-58.78,103.64-71.67,20.54-6.33,41.73-2.65,61.97,2.88,69.81,17.89,141.54,13.96,199.79-32.37,41.79-33.68,63.67-90.6,60.13-143.69-2.76-29.27-16.74-57.94-38.88-77.39ZM351.44,761.54c-76.89,56.19-151.45,115.44-227.46,172.84-30.47,22.3-60.36,47.6-96.16,60.82,40.12-53.93,88.84-100.63,135.54-148.79,85.38-84.47,176.38-165.18,271.04-239.85-24.58,50.94-48.82,102.05-72.43,153.49-3.16-1.1-6.84-.91-10.52,1.5ZM538.68,701.12c-26.83,45.2-53.59,90.41-81.61,134.88-41.31,65.46-88.64,127.73-131.49,192.27-14.84,21.77-29.9,43.36-46.39,63.9-10.13,11.12-20.2,23.92-34.41,29.78.52-26.45,12.73-51.07,21.38-75.64,9.46-24.26,19.35-48.37,29.4-72.4,30.46-73.76,62.47-146.83,95.91-219.27,27.61-59.4,55.99-119.26,84.85-178.95,3.24-2.49,4.52-5.77,4.4-9.06,25.86-53.38,52.09-106.59,78.53-159.16,11.68-22.73,23.19-45.53,33.62-68.87,3.61-3.59,4.72-9.24,2.53-13.92,1.73-4.97.35-11.1-4.26-14.1-17.26-11.33-33.45-23.57-48.29-38.09-50.29-48.12-44.71-121.88-7.5-176.21,27.23-43.06,80.26-71.38,127.1-71.38,44.09.02,82.7,25.14,89.05,86.75,6.08,53.2-16.49,104.37-40.54,150.55-36.32,68.99-78.35,136.73-96.47,213.4-8.5,36.25-8.29,73.74-19.35,109.53-13.83,40.87-34.83,78.82-56.46,115.99ZM1016.61,422.96c-30.03,35.58-77.6,54.33-123.55,55.66-29.04-.15-57.61-5.58-85.73-12.41-18.89-4.83-38.93-5.91-57.92-.96-47.2,12.79-84.71,47.08-119.52,79.84-.47.65-1,1.31-1.58,1.97,2.37-16.25,4.12-32.61,6.69-48.8,1.84-10.47,4.26-20.81,7.12-31.05.94-.33,1.85-.76,2.69-1.37,7.84-4.45,15.82-8.59,23.46-13.41,34.22-20.58,61.76-49.83,88.36-79.21,44.97-48.04,93.32-97.68,157.04-119.43,30.36-9.61,66.05-16.15,95.95-2.03,58.36,37.76,44.59,123.05,7,171.19Z"/></g><g id="change3_3"><path fill="#471911" d="M955.34,279.59c-21.12,3.8-40.79,13.46-58.36,25.55-17.63,12.12-33.87,27.44-45.99,45.15-13.6,19.89-25.3,45.42-17.01,69.71,2.45,7.15,7.29,13.62,13.37,18.24.21.17.42.35.63.52.1.06.17.13.27.19,0-.02.23.13.46.29.08.04.15.1.23.13.06.06.12.1.19.13.08.04.13.1.21.13v.02c.77.52,1.55,1,2.36,1.46,5.08,2.86,10.53,4.7,16.28,5.75.5.08,1,.13,1.5.15,3.39.54,6.85.77,10.32.77,9.78,0,19.72-1.92,28.86-4.85,21.06-6.73,40.6-18.1,57.54-32.26,16.49-13.79,31.76-30.42,41.58-49.71,5.02-9.88,9.32-20.44,10.38-31.57,1.25-13-1.29-26.41-10.18-36.4-13.02-14.63-34.41-16.69-52.63-13.41ZM993.2,330.44c-.5,2.34-1.13,4.66-1.84,6.96-1.21,3.41-2.63,6.73-4.18,9.99-1.21,2.38-2.45,4.7-3.82,6.98-1.19,2.03-2.72,4.03-3.89,6.14-.9,1.21-1.73,2.47-2.65,3.7-2.65,3.53-5.43,6.96-8.32,10.3-4.78,5.27-10.13,10.53-15.77,15.44-5.62,4.76-11.49,9.17-17.62,13.25-5.39,3.47-10.93,6.64-16.67,9.47-4.79,2.28-9.69,4.33-14.69,6.08-3.68,1.19-7.4,2.22-11.2,3.05-2.99.58-6.02,1.04-9.03,1.28-2.34.13-4.68.17-7.02.08-1.65-.13-3.3-.33-4.93-.59-1.28-.29-2.53-.61-3.78-1-.52-.19-1.04-.38-1.53-.59-.38-.17-.77-.33-1.13-.5-.75-.42-1.48-.84-2.19-1.3-.58-.4-1.13-.84-1.67-1.28-.52-.48-1-.98-1.48-1.5-.4-.52-.81-1.05-1.19-1.59-.29-.48-.58-.98-.84-1.46-.29-.67-.58-1.34-.82-2.03-.23-.79-.46-1.59-.65-2.42-.19-1.11-.33-2.24-.44-3.38-.06-1.4-.08-2.8-.04-4.2.15-1.88.4-3.76.71-5.62.54-2.47,1.21-4.91,1.98-7.35,1.25-3.51,2.72-6.94,4.35-10.32,2.03-3.95,4.3-7.79,6.73-11.51,3.91-5.66,8.15-11.05,12.7-16.19,3.93-4.3,9.22-9.47,14.81-14.35,5.64-4.74,11.49-9.17,17.61-13.25,4.58-2.97,10.3-6.25,16.17-9.22,4.58-2.21,9.24-4.18,14.02-5.91,3.93-1.3,7.9-2.44,11.97-3.34,3.11-.61,6.21-1.07,9.36-1.36,1.38-.08,2.74-.12,4.12-.12.86,0,1.74.02,2.63.06,1.75.13,3.49.35,5.22.63,1.27.27,2.53.59,3.76.96.98.36,1.96.77,2.9,1.21.58.31,1.15.63,1.71.98.63.44,1.25.92,1.84,1.4.52.48,1.02,1,1.52,1.52.36.46.71.94,1.06,1.42.36.59.71,1.21,1.05,1.82.25.59.5,1.19.73,1.78.29.98.56,1.96.79,2.93.15,1.02.29,2.03.38,3.07.06,1.4.08,2.8.04,4.2-.15,1.9-.4,3.78-.73,5.66Z"/></g></g></g></svg>