<?xml version="1.0" encoding="UTF-8" standalone="no"?><svg xmlns="http://www.w3.org/2000/svg" xmlns:xlink="http://www.w3.org/1999/xlink" contentScriptType="text/ecmascript" fill="#000000" width="861" zoomAndPan="magnify" contentStyleType="text/css" viewBox="0.0 0.0 861.4 861.4" height="861" data-name="Layer 2" preserveAspectRatio="xMidYMid meet" version="1"><g data-name="Layer 1"><g><g id="change1_1"><circle fill="#ffffff" r="430.69" cx="430.69" cy="430.69"/></g><g id="change2_1"><path fill="#51233c" d="m769.1,373.53c-3.3,0-6.24-2.34-6.87-5.71-29.98-159.06-169.41-274.51-331.53-274.51-41.29,0-81.62,7.37-119.87,21.91-3.61,1.37-7.66-.44-9.03-4.06s.44-7.66,4.06-9.03c39.84-15.15,81.84-22.83,124.84-22.83,168.85,0,314.07,120.24,345.29,285.91.72,3.8-1.78,7.46-5.58,8.18-.44.08-.88.12-1.3.12Z"/></g><g id="change2_2"><path fill="#51233c" d="m122.14,294.57c-2.54,0-5.12-.57-7.56-1.78-8.41-4.18-11.83-14.38-7.65-22.79,17.1-34.38,39.49-65.72,66.55-93.14,27.05-27.41,58.08-50.2,92.21-67.75,8.35-4.29,18.6-1,22.89,7.35,4.29,8.35,1,18.6-7.35,22.89-61.83,31.78-112.92,83.56-143.87,145.79-2.97,5.97-8.99,9.43-15.23,9.43Z"/></g><g id="change2_3"><path fill="#51233c" d="m92.29,373.53c-.43,0-.87-.04-1.3-.12-3.8-.72-6.3-4.38-5.58-8.18,1.63-8.65,3.61-17.35,5.89-25.84,1-3.73,4.84-5.95,8.58-4.95,3.73,1,5.95,4.84,4.95,8.58-2.19,8.16-4.09,16.5-5.66,24.81-.63,3.36-3.57,5.7-6.87,5.7Z"/></g><g id="change2_4"><path fill="#51233c" d="m430.69,792.07c-48.78,0-96.11-9.56-140.67-28.41-43.04-18.2-81.68-44.26-114.86-77.44s-59.24-71.83-77.44-114.86c-18.85-44.56-28.41-91.89-28.41-140.67,0-9.22.35-18.54,1.05-27.7.71-9.36,8.89-16.38,18.24-15.67,9.36.71,16.38,8.88,15.67,18.24-.63,8.31-.95,16.76-.95,25.13,0,180.52,146.86,327.38,327.38,327.38,150.39,0,280.97-101.73,317.54-247.39,2.29-9.11,11.52-14.63,20.63-12.35,9.11,2.29,14.63,11.52,12.35,20.63-19.26,76.7-64.22,146.09-126.6,195.4-31.22,24.67-65.99,43.89-103.34,57.1-38.65,13.68-79.22,20.61-120.58,20.61Z"/></g><g id="change2_5"><circle fill="#51233c" r="26.41" cx="775.91" cy="436.7"/></g><g id="change3_1"><path fill="#51233c" d="m412.53,521.12c-11.76,10.44-4.42,29.87,11.31,29.87h91.08c6.02,0,10.76-2.26,14.22-6.78,3.45-4.52,6.42-12.97,8.9-25.38,1.06-5.14,2.75-8.54,5.05-10.23,2.3-1.68,7.17-2.52,14.61-2.52,10.98,0,16.47,2.39,16.47,7.17,0,1.59-.27,3.46-.8,5.58-.89,4.78-2.75,16.21-5.58,34.28-3.19,19.66-6.34,36.8-9.43,51.42-3.1,14.61-5.41,22.63-6.91,24.05-1.51,1.42-5.63,2.13-12.36,2.13h-170.17c-21.8,0-39.47-17.67-39.47-39.47v-22.71c0-8.68,7.44-19.66,22.32-32.95,7.44-6.73,24.67-27.01,51.68-60.85,27.01-33.83,44.51-61.47,52.48-82.9,7.97-21.43,11.96-50.04,11.96-85.82,0-29.93-2.88-49.2-8.64-57.79-5.76-8.59-14.04-12.89-24.84-12.89-8.15,0-14.53,2.3-19.13,6.91-4.61,4.61-6.91,10.63-6.91,18.07,0,4.25.44,9.39,1.33,15.41,1.06,7.97,1.59,15.68,1.59,23.12,0,16.12-3.68,28.61-11.03,37.46-7.35,8.86-16.7,13.29-28.03,13.29-12.05,0-21.61-4.78-28.7-14.35-7.09-9.57-10.63-21.08-10.63-34.54,0-27.99,10.45-51.77,31.35-71.34,20.9-19.57,48.89-29.36,83.96-29.36s64.87,11.25,87.82,33.75c22.94,22.5,34.41,51.64,34.41,87.42,0,19.84-4.08,38.84-12.22,56.99-8.15,18.16-19.26,34.28-33.35,48.36s-34.67,31.75-61.78,53.01c-19.69,15.28-36.55,29.15-50.58,41.6Z"/></g></g></g></svg>