<?xml version="1.0" encoding="UTF-8" standalone="no"?><svg xmlns="http://www.w3.org/2000/svg" xmlns:xlink="http://www.w3.org/1999/xlink" contentScriptType="text/ecmascript" fill="#000000" width="1100" zoomAndPan="magnify" contentStyleType="text/css" viewBox="-4.9 -2.1 1100.3 897.9" height="898" data-name="Layer 2" preserveAspectRatio="xMidYMid meet" version="1"><g data-name="Layer 1"><g><g id="change1_1"><path fill="#51233c" d="m454.36.79c77.12-2.93,164.1,2.29,239.92,16.1,36.6,6.67,118.76,26.03,140.56,56.9,6.01,8.51,17.07,45.3,19.08,56.69,2.18,12.36.6,36.27,3.18,45.04.67,2.25,16.96,18.82,20.31,23.31,38.32,51.2,60.03,136.24,83.18,196.94,28.68,75.17,62.81,148.38,90.8,223.75,16.28,43.83,44.09,115.83,17.62,158.94-30.42,49.53-136.19,73.69-190.47,76.06-10.74.46-32.72-5.59-43.07-4.41-10.35,1.19-27.67,11.05-38.4,14.58-69.77,22.95-139.22,31.06-212.23,19.33-14.23-2.27-44.97-13.4-55.26-13.4-14.87.01-44.22,11.17-62.16,13.43-63.97,8.02-167.91-.98-227.6-26.96-14.97-6.51-32.61-20.27-46.53-24.65-17.24-5.43-40.28-5.06-58.47-8.12-56.67-9.51-139.68-30.24-134.59-102.1,3.19-45.18,36.25-115.79,54.75-158.76,43.83-101.78,93.99-200.86,138.66-302.19,6.46-14.62,28.83-61.11,27.1-73.84-.64-4.8-4.98-12.58-6.33-18.98-4.3-20.23-3.5-46.8-5.2-68.25-.71-8.89,4.32-29.46,8.27-37.77,13.11-27.59,77.47-42.75,105.69-48.18C365.8,6.02,411.26,2.42,454.36.79h0Z"/></g><g id="change2_1"><path fill="#f471a4" d="m542.37,844.95c-.67-.95-.49-14.13-.26-17.09,8.66-112.97,11.84-226.61,18.37-339.81,1.66-28.82,5.87-58.32,7.03-87.11.46-11.19,3.86-48.65-16.22-41.58-16.32,5.73-10.48,32.26-11.33,46.17-8.03,130.57-14.42,261.79-23.1,392.48-.92,13.75-1.53,27.63-2.22,41.41-1.44,9.01-23.14,12.79-31.57,14.34-64.23,11.86-180.93,3.81-240.23-25-4.41-2.15-20.94-11.44-21.9-14.99,8.69-75.95,27.16-150.5,49.11-223.54,20.11-66.83,44.19-135.41,71.23-199.7,4.76-11.33,19.44-36.15,21.41-45.21,3.78-17.41-14.05-26.03-25.9-9.79-4.91,6.71-13.71,28.25-17.78,37.34-42.91,95.88-81.08,215.41-104.53,317.92-8.45,36.96-16.32,75.27-19,113.04-50.84-6.29-104.96-9.9-149.17-37.98-27.69-19.12-18.61-49.71-10.95-77.36,17.27-62.29,54.71-136.22,81.61-196.23,40.37-90.08,83.31-179.04,123.26-269.35,1.14-2.57,3.07-11.02,3.46-11.48,1.31-1.46,31.38,13.73,36.1,15.55,107.22,41.78,244.27,38.82,357.58,30.31,52.75-3.96,151.13-12.27,194.9-41.59,15.47-10.38,9.93-18.82,25.41,2.8,34.26,47.8,53.85,126.02,75.32,181.83,32.88,85.46,75.59,172.59,103.97,258.81,17.07,51.9,32.74,101.18-23.39,132.79-43.16,24.28-105.05,36.29-153.35,32.47-5.98-.47-22.68,2.04-25.46-2.11-2.61-3.91-.47-18.29-.95-24.3-10.98-138.61-30.46-287.44-57.7-424.47-2.34-11.76-5.22-33.32-9.46-43.35-5.79-13.74-25.01-11.21-26.94,4.02,32.67,152.32,51,307.13,66.53,461.5-1.94,5.36,1.97,31.94,1.17,33.41-2.77,5.09-36.54,15.5-44.33,17.7-59.88,17.09-128.55,19.74-189.32,6.88-4.41-.93-30.49-7.42-31.44-8.75h0Z"/></g><g id="change3_1"><path fill="#ffa476" d="m449.77,28.34c77.82-3.08,163.81,1.9,240.28,15.73,26.11,4.71,106.75,22.86,120.86,44.44,8.63,13.2-15.54,23.59-25.34,27.66-39.06,16.17-83.4,20.38-124.99,24.24-107.68,9.97-245.9,6.78-350.32-24.21-15.16-4.51-60.84-19.96-67.79-33.31-5.3-10.21,14.21-20.52,21.87-24.16,46.74-22.23,133.65-28.34,185.43-30.39h0Z"/></g><g id="change4_1"><path fill="#c9b8ff" d="m620.26,172.41c.6.6-.24,13.45.13,17.09.59,5.8,8.4,41.09,6.75,42.61-1.38,1.3-31.9-.33-37.95-.07-3.93.18-7.42,2.32-11.34,2.44-26.96.86-68.58,2.83-94.32.03-15.72-1.7-13-29.88-12.58-42.65.22-7.31,4.69-13.03.07-21.73l149.25,2.29h0Z"/></g><g id="change4_2"><path fill="#c9b8ff" d="m452.63,167.83c-10.61,13.57-10.34,32.77-9.25,49.42.74,11.3,9.12,16.61-7.81,14.72-31.57-3.56-65-6.17-96.01-14.21-2.26-.57-12.61-3.67-13.01-4.21-.68-.96-.49-18.24-.25-21.68.21-3.47,2.02-6.46,2.22-9.26.78-11.27-.84-22,2.44-33.16,39.98,9.25,80.72,15.13,121.67,18.38h0Z"/></g><g id="change4_3"><path fill="#c9b8ff" d="m764.9,151.74c-.84,8.62,21.2,52.29,18.36,55.08-.82.82-18.96,5.5-22.36,6.36-31.86,8.02-65.4,12.5-98.1,14.46-2.83.18-5.02,3.43-7.02-.04-2.55-4.42-6.93-31.22-7.82-38.11-.88-6.67,1.46-13.28-2.44-19.37,40.13-3.71,80.37-8.16,119.39-18.38h0Z"/></g><g id="change4_4"><path fill="#c9b8ff" d="m298.79,204.55c-1.33,1.44-31.36-13.6-36-15.62-9.39-5.86-18.62-11.06-20.88-22.75-1.31-6.71-4.77-46.73-2.79-48.86,1.27-1.37,28.55,15.65,33.8,15.55,4.8,1.8,28.53,8.2,29.49,9.54,3.4,4.8-1.07,12.01-1.37,17.3-.63,10.75-1.24,19.28-2.3,29.86-.32,3.25.74,14.27.06,14.98h0Z"/></g><g id="change4_5"><path fill="#c9b8ff" d="m808.54,195.37l-18.4-52.75c6.08,1.58,33.23-17.59,34.44-16.12.91,1.09,4.44,22.75,4.67,26.33,1.06,15.89-1.65,40.74-20.71,42.54h0Z"/></g></g></g></svg>