<?xml version="1.0" encoding="UTF-8" standalone="no"?><svg xmlns="http://www.w3.org/2000/svg" xmlns:xlink="http://www.w3.org/1999/xlink" contentScriptType="text/ecmascript" fill="#000000" width="727" zoomAndPan="magnify" contentStyleType="text/css" viewBox="0.0 0.0 727.4 724.2" height="724" data-name="Layer 2" preserveAspectRatio="xMidYMid meet" version="1"><g id="change1_1" data-name="Layer 1"><path d="m575.57,724.19c-.58,0-1.46-.28-1.74-.85-.58-.6-1.16-1.16-1.16-2.04s.28-1.45.86-2.04c2.62-2.89,5.81-6.38,10.16-11.03v-.28h.3c1.15-1.16,2.89-1.16,4.05,0,.58.28.88,1.16.88,2.04,0,.57-.3,1.45-.88,2.01l-.28.28c-3.19,3.49-6.68,6.97-9.88,10.74-.57.6-1.45,1.16-2.31,1.16Zm134.67-22.62c-.86,0-1.45-.31-2.03-.88-2.61-2.61-5.51-5.53-8.42-8.7l-2.03-2.04v-.28h-.3c-.58-.6-.86-1.45-.86-2.32,0-.6.28-1.45.86-1.76,1.16-1.16,3.2-1.16,4.07,0q.28,0,.28.31c.3,0,.3.28.3.28,3.49,3.49,6.96,7.26,10.16,10.15.58.88.86,1.45.86,2.32s-.28,1.45-.86,2.04c-.58.57-1.46.88-2.04.88Zm-107.38-5.24c-.88,0-1.46-.28-2.04-.85-1.16-1.16-1.16-3.2,0-4.08,3.78-3.49,7.55-6.97,11.32-9.86v-.28c.3,0,.3-.28.58-.28.88-.88,2.91-.6,3.77.57,1.16,1.16.88,2.89-.28,4.05h-.3c-3.47,3.2-7.26,6.41-11.03,9.89-.58.57-1.16.85-2.03.85Zm121.61-1.45h0c-1.74,0-2.91-1.45-2.91-2.89v-.31c-.28-5.78-.86-10.43-1.16-14.8,0-.57,0-1.45.58-2.04.58-.57,1.16-1.13,2.03-1.13,1.46,0,2.91,1.13,3.2,2.61.58,4.34.86,9.27,1.16,14.8v.57c0,.88-.3,1.47-.88,2.04-.58.6-1.16,1.16-2.03,1.16h0Zm-40.93-21.77c-.86,0-1.74-.28-2.32-.88-2.31-2.89-4.93-5.78-7.54-8.7l-2.32-2.32c0-.28-.28-.28-.28-.28-.58-.6-.88-1.45-.58-2.32,0-.57.28-1.45.86-2.04,1.16-.85,3.19-.85,4.07.31,0,.28.28.28.28.28l2.04,2.32c2.61,3.17,5.22,6.09,7.84,8.7,1.15,1.16.86,3.2-.3,4.37-.58.28-1.16.57-1.74.57Zm-50.5-1.16c-.88,0-1.74-.57-2.32-1.45-.3-.6-.58-1.45-.3-2.04,0-.88.58-1.45,1.16-1.73,4.07-2.92,8.42-5.81,12.77-8.42h.3c1.16-.88,3.19-.28,4.07,1.16.58,1.16.28,3.17-1.16,3.77l-.3.28h0c-4.63,2.61-9,5.53-12.47,7.85-.58.28-1.16.57-1.74.57Zm83.87-15.08c-.86,0-2.03-.31-2.31-1.16h0c0-.31-.3-.31-.3-.31h0c-2.61-4.05-5.51-6.38-9.86-7.54-.88-.28-1.46-.88-1.74-1.45-.3-.6-.58-1.45-.3-2.32.58-1.45,2.04-2.32,3.49-1.73,5.51,1.45,10.16,4.93,13.35,9.86h0c0,.28.3.28.3.28v.28c.58,1.16.28,2.92-1.16,3.77-.3.31-.88.31-1.46.31Zm-49.63-3.2c-1.16,0-2.32-.88-2.61-2.04-.28-.57-.28-1.45,0-2.01.28-.88.86-1.47,1.74-1.76h.58c4.93-1.73,9.28-3.17,13.93-4.34l.28-.31c2.04-.28,3.2.88,3.49,2.32.3.6,0,1.45-.28,2.04-.3.88-1.16,1.16-1.74,1.45h-.3c-4.35,1.16-8.7,2.61-13.35,4.05l-.28.31h-.3c-.28.28-.86.28-1.16.28Zm-9.28-9.86c-.86,0-1.74-.28-2.32-.88-3.19-3.77-6.38-7.82-9.58-11.62v-.28h-.28c-.88-1.45-.58-3.17.58-4.34,1.16-.88,3.19-.6,4.05.57l.3.28c2.91,3.77,6.09,7.85,9.28,11.62,1.16,1.16.88,2.89-.28,4.05-.58.31-1.16.6-1.74.6Zm-24.38-30.47c-.88,0-1.74-.31-2.32-1.16-2.91-4.08-5.81-8.14-8.72-11.9l-.28-.28h0c-.58-.88-.58-1.47-.58-2.32.28-.88.58-1.47,1.16-1.76,1.45-.88,3.19-.88,4.07.6h.28v.28c2.91,4.05,5.81,8.14,8.7,11.9.58.57.88,1.45.58,2.32,0,.57-.58,1.16-1.15,1.73-.3.28-.88.6-1.74.6Zm-22.65-31.66c-.86,0-1.74-.57-2.32-1.16l-.28-.57c-2.61-4.05-5.23-8.14-7.84-12.19h0q-.3,0-.3-.28c-.28-.6-.58-1.16-.28-2.04,0-.88.58-1.45,1.16-2.04,1.45-.57,3.19-.28,4.07,1.16l.28.31c2.32,3.77,5.23,8.11,8.14,12.19.86,1.45.57,3.17-.88,4.05-.58.28-1.16.57-1.74.57Zm-20.61-33.08c-.86,0-2.03-.57-2.32-1.45-2.91-4.65-5.22-8.7-7.54-12.78v-.57c-.58-.6-.58-1.45-.3-2.32.3-.6.58-1.16,1.46-1.45,1.16-.88,3.19-.31,3.77,1.16h0l.28.28c2.32,4.05,4.65,8.7,7.26,12.76.3.88.58,1.76.3,2.32-.3.88-.88,1.47-1.45,1.76-.3.28-.88.28-1.46.28Zm-18.28-34.24c-1.16,0-2.03-.6-2.61-1.76-2.04-4.65-4.37-8.99-6.11-13.35v-.28h0q-.28,0-.28-.28c-.58-1.45,0-3.2,1.45-3.77,1.74-.6,3.49,0,4.07,1.45v.28h0c2.32,5.22,4.35,9.58,6.09,13.63.3.6.58,1.47.3,2.32-.3.6-.88,1.16-1.46,1.47-.58.28-.86.28-1.45.28Zm-15.09-35.71c-1.16,0-2.32-.85-2.61-2.01-1.74-4.65-3.2-9.58-4.65-14.23h-.3c.3-.28,0-.28,0-.28-.28-.88,0-1.47.3-2.32.28-.6,1.16-1.16,1.74-1.47,1.45-.28,3.19.6,3.49,2.04l.28.28c1.45,4.65,2.91,9.58,4.65,14.23.58,1.16-.3,2.92-1.74,3.49-.3.28-.88.28-1.16.28Zm-10.74-37.44c-1.16,0-2.32-.85-2.61-2.32-1.16-4.62-2.04-9.58-2.91-14.8v-.28c0-.88,0-1.45.58-2.04.28-.88,1.16-1.16,1.74-1.16,1.74-.28,3.19.88,3.49,2.32v.6c.58,4.34,1.45,9.27,2.61,14.2.28,1.76-.58,3.2-2.32,3.49h-.58Zm-27.57-30.47h-6.68c-1.46,0-2.91-1.45-2.91-2.89.28-1.76,1.45-2.92,2.91-2.92h15.38c1.74,0,2.91,1.16,2.91,2.61,0,1.76-1.16,2.92-2.62,3.2h-8.99Zm-30.19-2.04h-.3c-4.07-.57-9-1.16-14.8-2.32h-.3c-.86-.28-1.45-.57-2.03-1.45-.3-.57-.58-1.45-.3-2.01.3-1.47,1.74-2.64,3.2-2.32h.58c5.8,1.16,10.73,2.01,14.51,2.61,1.45,0,2.61,1.45,2.31,3.17,0,1.47-1.45,2.32-2.89,2.32Zm62.4-.28c-1.46,0-2.61-.88-2.91-2.32,0-.85,0-1.73.58-2.32.58-.57,1.16-.85,2.03-1.16h.3c4.93-.85,9.86-1.73,14.21-2.61,1.74-.57,3.2.6,3.49,2.04.58,1.45-.58,2.89-2.03,3.49-4.35,1.16-9,2.01-14.81,2.89h-.86Zm-9.58-5.5h0c-1.45,0-2.91-1.16-2.91-2.92,0-2.32-.28-4.93-.28-7.54s.28-4.93.28-7.26v-.6c0-1.73,1.46-2.89,2.91-2.89h.28c.58,0,1.46.28,1.74.88.58.57.88,1.45.88,2.32h0v.28h0v14.51h0c0,.88-.3,1.73-.88,2.04-.28.57-1.16,1.16-1.74,1.16h-.28Zm-90.85-1.76h-.88c-4.35-1.16-9.28-2.32-14.21-3.77,0,0,0,.28,0,0h-.58l-.3-.28c-1.45-.6-2.03-2.04-1.74-3.49.58-1.45,2.32-2.32,3.49-2.04q.3.28.58.28c5.51,1.47,10.16,2.64,14.23,3.8.86,0,1.45.57,1.74,1.16.58.57.58,1.45.58,2.01-.58,1.45-1.74,2.32-2.91,2.32Zm137.87-2.32c-1.16,0-2.04-.85-2.62-2.01-.58-1.47.3-3.2,1.74-3.8h.3c4.35-1.73,8.7-3.46,13.35-5.78,1.45-.88,3.19-.31,3.77,1.16.88,1.45.3,3.17-1.16,3.77-4.63,2.32-9.28,4.34-13.93,6.38h-.28c-.3,0-.58.28-1.16.28Zm-175.61-7.82q-.28,0-.58-.28c-4.35-1.16-8.7-2.64-14.51-4.37,0-.28,0,0-.28-.28-1.45-.6-2.32-2.04-1.74-3.49.3-1.45,2.03-2.32,3.49-2.04q.28.28.58.28c4.35,1.47,9,2.92,13.93,4.37.86.28,1.45.57,1.74,1.45.28.6.58,1.45.28,2.04-.28,1.45-1.45,2.32-2.91,2.32Zm209.85-10.74c-.86,0-1.73-.28-2.31-1.16-.88-1.16-.58-2.89.58-4.05h.28l.28-.31c3.78-2.89,7.26-5.78,11.04-8.99,1.16-1.16,2.91-1.16,4.05,0,.58.57.88,1.45.88,2.32,0,.57-.58,1.45-.88,1.73-4.05,3.77-7.84,6.97-11.89,9.86h-.3q0,.31-.28.31c-.3.28-.88.28-1.46.28Zm-246.71-1.45c-.28,0-.58,0-.86-.31-4.93-1.73-9.86-3.46-14.23-4.93l-.28-.28c-.58-.28-1.16-.88-1.74-1.45-.28-.88-.28-1.45,0-2.32.58-1.45,2.32-2.04,3.77-1.73l.3.28c4.63,1.73,9.58,3.49,13.93,4.93.86.28,1.45.88,1.74,1.45.28.88.28,1.45,0,2.32-.3,1.16-1.46,2.04-2.62,2.04Zm-36.28-13.95h-1.16c-4.63-2.04-9.28-3.77-13.93-5.81h-.28c-.58-.57-1.16-1.16-1.45-1.73-.3-.6-.3-1.45,0-2.04.58-1.73,2.31-2.32,3.77-1.73.28.28.28,0,.28.28h.58c4.35,2.04,8.72,3.77,13.07,5.53h0c.86.28,1.45.85,1.74,1.45.28.88.28,1.73,0,2.32-.58,1.16-1.46,1.73-2.62,1.73Zm202.6-.88h0c-1.73-.28-2.89-1.45-2.89-3.17.28-5.81.58-10.46,1.16-14.8v-.6c.28-1.45,1.45-2.61,3.19-2.32,1.45,0,2.61,1.45,2.61,2.92v.28h0v.28c-.58,4.93-.86,9.58-.86,14.8-.3,1.45-1.46,2.61-3.2,2.61Zm107.7-11.03c-.58,0-1.16,0-1.46-.28-1.45-1.16-1.74-2.89-.86-4.05l.28-.31h0c2.91-4.05,5.23-8.39,7.26-12.47.88-1.45,2.61-2.04,4.07-1.45,1.45.88,2.03,2.61,1.16,4.05-2.32,4.65-4.93,9.01-7.84,13.07h0v.28h0c-.58.88-1.46,1.16-2.61,1.16Zm-346.28-3.17c-.3,0-.58-.31-1.16-.31-4.35-2.01-8.7-4.05-13.07-6.09l-.86-.28c-.58-.57-1.16-1.16-1.45-1.73-.3-.88-.3-1.76,0-2.32.86-1.45,2.61-1.76,4.05-1.45l.3.28c4.63,2.32,9.28,4.34,13.35,6.38,1.45.6,2.32,2.32,1.45,3.77-.28.88-1.45,1.76-2.61,1.76Zm-35.12-16.84c-.3,0-.88-.28-1.16-.28-4.35-2.32-9-4.65-13.35-6.97l-.3-.28c-1.45-.6-2.03-2.32-1.16-3.8.58-1.45,2.62-2.01,3.78-1.16q.28,0,.58.31c2.03.85,4.05,2.01,6.09,3.17,2.32,1.16,4.63,2.32,6.96,3.49.58.28,1.16.88,1.46,1.45.28.88,0,1.76-.3,2.32-.58,1.16-1.45,1.76-2.61,1.76Zm278.35-7.54h-.86c-.58-.31-1.16-.6-1.74-1.47-.3-.57-.3-1.45-.3-2.01,1.46-5.53,3.2-10.18,5.81-14.51v-.31h0c.86-1.45,2.61-2.01,4.07-1.16.58.31,1.16.88,1.16,1.76.28.57.28,1.45,0,2.04q0,.28-.3.28h0c-2.03,3.77-3.77,8.14-4.93,13.35-.58,1.16-1.74,2.04-2.91,2.04Zm117.84-7.85h-.28c-1.46-.28-2.62-1.45-2.32-3.2v-.28h0c.28-2.32.28-4.34.28-6.66,0-2.64,0-4.93-.58-7.57-.28-1.45.88-2.89,2.32-3.17,1.45-.28,3.19.85,3.49,2.32.58,2.89.58,5.5.58,8.42,0,2.61,0,5.22-.3,7.26v.28c-.28,1.45-1.45,2.61-3.19,2.61Zm-430.45-3.2c-.28,0-.86,0-1.45-.28-4.35-2.61-9-5.22-12.77-7.54q-.3,0-.58-.28c-1.16-.6-1.74-2.32-.88-3.77.88-1.47,2.62-1.76,4.07-1.16h0v.28h.28c3.49,2.04,8.14,4.93,12.78,7.54,1.45.88,2.03,2.32,1.15,3.77-.57,1.16-1.45,1.45-2.61,1.45Zm334.09-20.01c-.88,0-1.74-.28-2.32-1.16-.88-1.45-.58-3.2.58-4.05,3.77-2.32,8.12-4.96,13.35-7.57q.28,0,.58-.28c1.45-.57,3.19,0,3.77,1.45s0,3.2-1.45,4.08h-.3c-4.93,2.32-9,4.62-12.47,7.26-.58.28-1.16.28-1.74.28Zm-367.46,0c-.3,0-.86,0-1.45-.28-3.78-2.64-8.14-5.24-12.49-8.14l-.3-.28c-.58-.6-1.15-1.16-1.15-2.04-.3-.6,0-1.45.28-2.04.86-1.16,2.91-1.73,4.07-.85l.28.28.3.28c1.74.88,3.19,2.04,4.63,2.89,2.62,1.76,4.95,3.49,7.55,4.96.58.28,1.16.85,1.16,1.73.28.88,0,1.45-.3,2.32-.58.88-1.45,1.16-2.61,1.16Zm453.08-12.47c-.58,0-1.45-.31-2.03-.88h0v-.28c-3.49-2.92-7.26-5.24-11.9-6.97-1.45-.6-2.32-2.04-1.74-3.49.58-1.76,2.32-2.32,3.78-1.76,5.22,1.76,9.86,4.65,13.63,8.14q.3,0,.3.28c1.16,1.16,1.16,2.92,0,4.08-.58.57-1.16.88-2.04.88Zm-50.5-3.8c-1.16,0-2.32-.85-2.62-2.01-.28-.6-.28-1.45,0-2.04.3-.88.88-1.45,1.74-1.45,4.65-1.76,9.3-3.49,13.93-4.93h.58c1.16-.6,2.91.28,3.49,1.73s-.28,3.2-1.74,3.77h-.28c-4.07,1.47-9.3,2.92-14.23,4.93h-.86Zm-434.8-5.5c-.58,0-1.16-.28-1.46-.6-4.05-2.89-8.12-6.09-12.19-8.99l-.28-.28c-1.16-.88-1.46-2.61-.58-4.08,1.16-1.16,2.89-1.45,4.05-.28h.3c4.93,3.77,8.42,6.38,11.9,9.01.86.57,1.15,1.13,1.15,1.73.3.88,0,1.73-.28,2.32-.58.57-1.45,1.16-2.61,1.16Zm-30.77-23.81c-.58,0-1.16-.28-1.74-.88-4.07-3.17-7.84-6.38-11.32-9.55l-.28-.31h0c-1.16-1.16-1.16-2.89-.3-4.05,1.16-1.16,2.91-1.16,4.07-.28l.28.28c3.78,3.2,7.55,6.38,11.32,9.58.58.57.88,1.16,1.16,2.04,0,.85-.28,1.45-.86,2.01-.58.6-1.16,1.16-2.32,1.16Zm-28.74-25.82c-.86,0-1.45-.28-2.03-.88-3.19-3.2-6.39-6.38-10.45-10.74h-.3c-1.16-1.16-1.16-3.17,0-4.34,1.16-.88,2.91-.88,4.07.28h.28c0,.28.3.28.3.57,3.49,3.49,6.96,6.97,10.16,9.86,1.16,1.16,1.16,3.2,0,4.37-.58.6-1.16.88-2.04.88Zm-26.7-28.15c-.86,0-1.74-.6-2.03-1.16-3.49-4.08-6.97-8.14-9.88-11.34v-.28h0s0-.28-.28-.28c-.3-.6-.58-1.16-.58-2.04.28-.88.58-1.45,1.16-2.04,1.16-.85,3.19-.57,4.07.6,0,0,.28,0,.28.28,3.19,3.77,6.39,7.85,9.58,11.31.86,1.16.86,2.92-.3,4.08-.57.57-1.45.88-2.03.88Zm-24.09-30.78c-.86,0-1.74-.28-2.32-1.16-2.89-4.05-5.51-8.14-8.12-12.47h-.28v-.28c-.58-.6-.58-1.47-.58-2.04.28-.88.58-1.45,1.45-2.04,1.16-.88,3.19-.28,4.07.88v.28h0c2.89,4.37,5.51,8.42,8.42,12.19.86,1.45.58,3.2-.88,4.08-.58.57-1.16.57-1.74.57Zm-20.31-32.8c-1.16,0-2.04-.6-2.62-1.73-2.03-3.8-4.35-8.14-6.68-13.07l-.28-.31v-.28c-.58-1.45,0-3.17,1.45-3.77,1.16-.57,2.91,0,3.77,1.45h0s0,.31.3.31c2.03,4.62,4.35,8.99,6.68,13.04.58,1.47,0,3.2-1.16,3.77-.58.31-1.16.6-1.45.6Zm-16.26-35.12c-1.16,0-2.32-.88-2.91-2.04-1.74-4.93-3.49-9.27-4.93-13.92v-.31c-.3,0-.3-.28-.3-.28-.28-1.45.58-3.17,2.04-3.49,1.45-.57,3.19.31,3.47,1.76h0c.3,0,.3.28.3.28,1.45,4.93,3.19,9.3,4.93,13.95.58,1.45-.28,3.17-1.74,3.77-.28,0-.58.28-.86.28Zm-11.61-37.16c-1.46,0-2.62-.88-2.91-2.32-1.16-4.93-2.04-9.86-2.91-14.51h-.28v-.57h0c0-.88,0-1.45.57-2.04.3-.88,1.16-1.16,2.04-1.16,1.45-.28,2.91.6,3.19,2.32v.28h0v.31c.88,4.93,2.03,9.55,3.19,14.2.3,1.47-.86,2.92-2.31,3.49h-.58ZM3.77,20.64c-1.45,0-2.61-1.16-2.91-2.64C.58,12.5,0,7.85,0,3.2h0v-.28C0,1.47,1.16,0,2.61,0c1.74,0,3.19,1.16,3.19,2.92.3,5.22.58,9.86.88,14.51,0,.88,0,1.73-.58,2.32-.58.57-1.16.88-2.03.88h-.3Z"/></g></svg>