<?xml version="1.0" encoding="UTF-8" standalone="no"?><svg xmlns="http://www.w3.org/2000/svg" xmlns:xlink="http://www.w3.org/1999/xlink" contentScriptType="text/ecmascript" fill="#000000" width="1308" zoomAndPan="magnify" contentStyleType="text/css" viewBox="-11.0 -4.1 1307.7 536.3" height="536" preserveAspectRatio="xMidYMid meet" version="1"><g data-name="Layer_1"><g><g id="change1_1"><path fill="#244668" d="M1273.26,230.17c-.76-2.61-2.57-4.78-5-6.01-141.52-71.51-253.06-103.4-361.68-103.4-17.16,0-34.4.86-51.39,2.56l-10.88,1.29c-43.16,5.12-80.43,9.55-117,9.55h0c-50.29,0-94.06-8.64-142.33-28.17-23.68-8.42-47.42-18.13-70.39-27.51-26.51-10.83-53.91-22.03-81.79-31.5C366.3,25.55,296.72,14.69,226,14.69c-17.57,0-35.36.69-52.88,2.05-.23.02-.46.05-.69.08-3.82.57-9.42,1.18-16.19,1.92-64.43,7.05-127.1,16.88-124.32,52.08.03.36.08.71.14,1.07,3.2,16.77,15.09,28.25,25.57,38.38l1.36,1.31c3.8,4.3,3.77,12.75,3.46,19.95-3.17,37.28-5.96,80.45,1.18,121.05,0,0,.78,4.23.79,4.28,1.14,5.88,2.49,11.65,4,17.14,5.76,21.01,14.56,40.23,26.14,57.1,38.7,56.62,107.83,90.42,184.9,90.42,43.57,0,85.8-10.61,122.12-30.67.09-.05.17-.09.25-.14,38.85-19.06,74.26-46.77,99.72-78.01,19.14-23.41,36.43-48.81,53-77.88,1.31-2.45,2.58-4.88,3.83-7.28,10.77-20.73,17.83-32.56,37.12-34.5,2.85-.18,5.81-.29,8.82-.29,14.87,0,50.74,2.68,64.06,27.35,3.57,9.42,4.27,20.64,4.96,31.51.26,4.14.52,8.22.91,12.16,2.31,24,5.6,51.8,15.65,78.02,38.65,103.59,139.66,175.93,245.64,175.93,7.66,0,15.39-.38,22.73-1.1,42.3-3,83.89-16.72,120.27-39.66,1.19-.74,2.35-1.49,3.49-2.23l2.75-1.82,4.38-3,3.13-2.22,3.27-2.43c13.27-9.94,25.47-21.14,36.25-33.23.27-.3.54-.61.57-.65,1.68-1.9,3.33-3.83,4.94-5.78.89-1.07,1.75-2.14,2.57-3.16.96-1.19,1.88-2.38,2.71-3.46l1.56-2.06c.87-1.14,1.74-2.31,2.35-3.21l.65-.89c8.17-11.43,15.25-23.56,21.02-36.07,6.06-11.58,10.32-24.21,14.45-36.42,7.57-22.41,14.71-43.58,31.86-57.14,4.15-3.3,9.35-4.64,17.98-4.64,2.71,0,5.43.12,8.13.24,1.87.08,3.74.16,5.57.21.08,0,.17,0,.25,0,.75,0,1.51-.09,2.24-.26,9.61-2.25,17.13-7.64,21.75-15.56,5.28-9.05,6.31-21.08,2.82-33ZM1107.02,398.08c-.73.82-1.47,1.64-2.31,2.53-.51.56-1.03,1.11-1.67,1.77-9.71,10.31-20.53,19.8-32.16,28.19-.2.15-.4.3-.59.46-.28.2-1.89,1.32-1.89,1.32-1.05.76-2.1,1.5-3.37,2.32-1.28.88-2.58,1.74-3.95,2.63-1.02.67-2.04,1.32-3.47,2.19l-.79.5c-.64.41-1.25.8-2.27,1.38l-2.39,1.45s-1.1.62-1.28.72c-22.74,13.14-46.84,22.03-71.48,26.4-10.8,1.71-22.18,2.58-33.83,2.58-17.53,0-35.82-1.86-55.78-5.67-89.09-18.19-123.65-45.28-160.42-125.9-1.67-4.7-3.49-9.4-5.31-14.14-7.15-18.54-13.91-36.04-12.83-54.17,4.45-76.13,77.26-99.2,108.22-105.56,19.85-3.78,41.54-5.7,64.46-5.7,59.99,0,130.65,13.39,199.14,37.76,46.46,15.59,71.25,38.6,73.67,67.96,1.77,47.35-20.19,89.46-38.91,116.45-.07.1-1.72,2.46-2.51,3.55-2.6,3.64-5.39,7.33-8.28,10.97ZM520.4,202.71c.42,1.01-.06,2.69-.99,3.39-1.57,1.2-2.75,2.85-3.37,4.73-10.38,31.59-31.33,59.05-46.99,76.43-40.8,44.05-104.63,96.56-177.02,96.58-5.27,0-10.66-.29-16.26-.89-51.43-4.22-100.29-26.27-134.08-60.54-1.38-1.38-2.69-2.75-4.16-4.37-.64-.67-1.25-1.35-1.9-2.1-6.89-7.71-13.02-15.99-18.24-24.59-5.35-8.84-9.42-18.8-12.43-30.35,0,0-.92-3.7-1.13-4.62-.15-.6-.29-1.2-.45-2.03-.36-1.66-.7-3.32-1.09-5.44l-.52-2.95-.47-2.84c-.24-1.5-.46-3.01-.67-4.59l-.08-.6c-.01-.18-.03-.37-.06-.55-.59-4.36-1.1-9.11-1.58-14.72-3.88-59.78-1.9-141.97,59.47-165.4,13.61-4.56,28.62-6.69,47.25-6.69,14.38,0,29.27,1.29,43.66,2.53,7.19.62,14.34,1.24,21.23,1.69,51.85,4.4,102.76,13.25,151,26.21,5.75,1.76,11.72,3.39,17.75,5.03,27.68,7.53,56.3,15.33,70.19,39.37,12.42,21.56,15.92,45.59,10.39,71.41-.42,1.97-.23,4.02.56,5.88Z"/></g><g id="change2_1"><path fill="#443a39" d="M136.32,309.07c1.92,2.33,4.72,3.57,7.58,3.57,1.66,0,3.33-.42,4.86-1.29,3.39-1.93,6.83-3.87,10.26-5.77,23.6-13.04,47.95-24.93,70.98-36.03,57.08-28.44,119.86-52.86,186.61-72.58,5.02-1.49,10.05-2.98,15.11-4.43,4.15-1.19,7.03-4.95,7.11-9.27.07-4.32-2.69-8.18-6.79-9.51-20.6-6.68-42.92-13.3-70.23-20.84-.85-.24-1.74-.35-2.61-.35-.79,0-1.59.1-2.36.29-16.23,4.02-29.66,7.59-41.9,11.13-23.95,6.02-124.91,42.25-201.52,79.38-4.21,2.04-6.4,6.77-5.23,11.3,5.1,19.66,14.56,37.96,28.14,54.4Z"/></g><g id="change2_2"><path fill="#443a39" d="M137.3,99.53c14.13.46,28.75,3.36,42.89,6.17l6.12,1.21,19.5,3.98c43.32,8.82,88.11,17.93,131.28,30.11,60.03,16.45,113.97,31.84,166.15,53.73,1.22.51,2.51.76,3.8.76,1.7,0,3.39-.44,4.9-1.31,2.66-1.53,4.44-4.21,4.84-7.25,3.65-28.24-4.32-52.81-23.69-73.03-.29-.3-.59-.58-.92-.84-11.19-9.06-24.82-14.89-39.41-16.88-.35-.05-.71-.08-1.06-.09l-2.19-.04c-2.09-.03-5.96-.08-6.91-.81-1.23-2.37-3.38-4.14-5.95-4.89-62.03-18.23-132.74-29.66-210.39-33.99l-4.49-.16c-6.07-.22-12.35-.44-18.7-.44-20.61,0-46.8,2.3-66.56,20.2-.2.18-.39.37-.58.57-2.1,2.25-4.16,4.67-6.11,7.22-2.24,2.92-2.66,6.85-1.08,10.18,1.57,3.33,4.88,5.49,8.55,5.61Z"/></g><g id="change2_3"><path fill="#443a39" d="M749.76,227.85c.43,0,.87-.03,1.3-.09,17.45-2.33,35.38-3.46,54.84-3.46,48.9,0,98.16,7.31,148.44,15.45,14.12,2.41,28.27,4.69,42.42,6.96,47.12,7.56,95.84,15.38,142.15,28.57.89.25,1.79.38,2.69.38,2.27,0,4.5-.79,6.28-2.27,2.49-2.08,3.8-5.25,3.5-8.48l-.12-1.21c-.04-.47-.12-.93-.23-1.38-9.1-37.6-46.55-50.54-76.64-60.94-5.63-1.94-11.12-3.84-16.28-5.84-.2-.08-.41-.15-.61-.22-49.69-15.57-102.87-25.21-158-28.66-6.62-.46-13.48-.7-20.4-.7-27.96,0-97.23,4.41-136.43,45.25-2.89,3.01-3.56,7.52-1.67,11.24,1.69,3.33,5.1,5.38,8.76,5.38Z"/></g><g id="change2_4"><path fill="#443a39" d="M960.07,248.56c-1.52-2.14-3.85-3.58-6.44-4-20.08-3.23-43.43-6.92-66.49-9.75-.4-.05-.81-.07-1.2-.07-4.28,0-8.13,2.79-9.39,6.97-1.39,4.57.72,9.47,4.98,11.62,30.79,15.5,55.46,32.82,75.59,53.13,30.5,29.21,56.23,63.91,81.11,97.47,5.23,7.06,10.46,14.12,15.74,21.13,1.93,2.56,4.87,3.92,7.86,3.92,1.99,0,4.01-.61,5.74-1.86,12.62-9.12,24.15-19.59,34.28-31.1,3.25-3.69,3.27-9.21.04-12.92-47.01-54.16-87.2-91.08-130.29-119.73-.24-.16-.49-.31-.74-.45-7.89-4.3-9.02-6.18-9.12-6.95.46-2.59-.14-5.25-1.67-7.4Z"/></g><g id="change2_5"><path fill="#443a39" d="M1163.72,478.24c-4.71-11.69-10.6-23.28-18-35.43-1.59-2.61-4.31-4.33-7.35-4.65-.35-.04-.69-.06-1.04-.06-2.68,0-5.26,1.1-7.12,3.06-8.78,9.26-18.43,17.95-28.65,25.83-2.27,1.75-3.67,4.41-3.81,7.28-.15,2.87.97,5.66,3.05,7.63,5.73,5.43,35.19,32.5,52.29,32.5,5.29,0,9.73-2.23,12.5-6.28,4.29-6.26,3.73-15.44-1.87-29.89Z"/></g><g id="change2_6"><path fill="#443a39" d="M55.35,353.33c12.03,0,22.87-3.43,29.84-6.3,2.73-1.13,4.8-3.42,5.66-6.24.85-2.82.39-5.88-1.26-8.33l-1.46-2.22c-9.15-13.85-16.59-29.75-22.11-47.27-.93-2.94-3.18-5.28-6.09-6.31-1.06-.38-2.17-.56-3.27-.56-1.91,0-3.81.56-5.44,1.64-19.22,12.78-43.79,32.06-35.27,51.99,6.78,15.22,20.78,23.6,39.41,23.6Z"/></g><g id="change3_1"><path fill="#0a253a" d="M1287.87,227.89c-2.21-14.42-13.9-25.7-28.83-25.11-7.58-1.67-14.38-6.9-21.73-9.78-120.21-58.88-253.81-98.45-388.71-83.83-78.23,9.03-152.8,20.25-229.3-6.71-52.26-17.2-102.64-39.51-153.85-59.55-50.31-18.99-103.11-31.49-156.46-38.22C230.08-4.1,149.3-1.03,72.07,18.13,9.18,32.69.28,80.02,47.31,120.64c1.04,33.66-5.85,67.39-2.22,101.19.89,13.27,2.62,26.61,5.32,39.75-7.42,4.5-14.76,9.14-22.01,13.92-38.41,25.83-39.43,72.65,6.71,89.53,6.79,2.17,13.65,3.15,20.48,3.15,14.1,0,28.04-4.18,41.04-10.29,47.39,54.94,123.06,81.92,195.06,78.17,60.43-1.5,117.2-27.79,166.2-61.74,35.19-25.74,63.27-59.68,87.17-95.86,10.26-15.5,19.79-31.43,28.65-47.76,9.86-25.35,24.61-25.74,49.08-21.65,43,7.6,33.08,28.21,37.49,62.98,2.59,26.62,7.21,53.26,17.16,78.21,38.65,99.75,135.75,177.02,244.03,181.47,5.66.36,11.32.54,16.97.54,52.21,0,104.26-15.33,148.31-43.11,17.02,17.45,36.43,31.85,60.33,39.3,2.19.5,4.45.75,6.69.75,10.11,0,20.31-4.91,25.22-13.94,11.4-23.85-5.85-58.09-24.98-86.96,2.73-3.55,5.43-7.13,7.97-10.84,14.81-21.38,25.14-45.47,33.89-69.85,7.12-17.74,11.05-38.86,26.24-51.74,4.53-3.55,10.09-2.95,15.55-2.36,2.28.25,4.56.5,6.75.46,34.33-2.21,52.22-34.33,43.44-66.07ZM24.9,325.73c-4.49-10.5,8.76-24.52,31.78-39.81,5.51,17.53,13.09,34.36,23.25,49.74.5.78,1.07,1.49,1.58,2.26-19.83,8.19-46.8,9.81-56.61-12.19ZM1154.61,481.9c17.54,45.29-26.96,11.9-47.1-7.17,10.6-8.17,20.53-17.18,29.75-26.9,6.62,10.88,12.55,22.19,17.34,34.08ZM1246.44,269.18c-12.91-.33-27.06-2.42-38.05,6.33-29.59,23.42-32.28,65.09-49,96.91-6.29,13.66-14.07,26.44-22.97,38.34-.99,1.33-1.98,2.65-3,3.95-2.31,2.95-4.7,5.83-7.16,8.66-.72.83-1.41,1.69-2.15,2.52-10.27,11.48-21.69,21.92-34.02,31.2-.65.49-1.33.95-1.99,1.44-3.26,2.4-6.58,4.73-9.96,6.97-1.15.76-2.32,1.51-3.48,2.25-34.99,22.38-75.7,36.14-117.05,39.08-112.56,11.07-219.58-64.21-258.47-168.47-9.24-24.13-12.62-49.94-15.07-75.53-1.52-15.21-.94-32.14-6.69-46.82-13.29-25.43-45.43-33.08-73.01-33.08-3.22,0-6.39.12-9.44.31-29.02,2.9-36.96,24.55-48.98,46.93-15.29,26.81-32.28,52.24-51.95,76.31-25.54,31.34-60.08,57.61-96.78,75.58.27-.15.56-.3.83-.47-.48.25-.94.52-1.44.77.14-.06.27-.13.41-.19-87.92,48.66-212.29,38.07-280.22-38.62-1.14-1.28-2.25-2.6-3.36-3.93-1.35-1.61-2.7-3.23-4-4.9-1.11-1.43-2.17-2.91-3.25-4.38-1.16-1.59-2.36-3.15-3.48-4.78-11.86-17.29-19.8-35.85-25.01-55.16-.42-1.55-.79-3.12-1.18-4.68-.61-2.51-1.22-5.02-1.75-7.55-.32-1.55-.6-3.1-.89-4.65-7.38-39.31-5.03-81.04-1.61-121.17.4-9.23.48-20.43-6.2-27.62-10.11-9.8-21.58-20.23-24.34-34.69-2.67-33.66,105.92-39.6,132.16-43.52,86.27-6.69,173.53,3.26,255.9,29.8,51.46,17.49,100.69,40.7,151.9,58.92,99.88,40.43,171.61,30,274.66,17.84,144.01-14.46,280.91,35.88,407.49,99.84,4.58,15.67-.06,32.18-17.4,36.25Z"/></g><g id="change3_2"><path fill="#0a253a" d="M517.95,120.53c-19.14-33.14-60.03-38.61-93.57-48.89-50.11-13.46-101.34-22.21-153.05-26.6-38.34-2.53-78.84-9.55-116.09,2.93-68.33,26.08-70.18,113.31-66.15,175.35.43,5.12,1,10.25,1.68,15.37-.01,0-.03.01-.04.02.06.45.15.89.21,1.34.44,3.22.95,6.43,1.52,9.63.1.57.18,1.15.29,1.72.7,3.71,1.53,7.39,2.46,11.04.08.32.13.64.21.96.01,0,.03-.02.05-.02,3.01,11.55,7.25,22.73,13.51,33.08,4,6.6,8.47,12.86,13.27,18.84,0,0-.02.01-.03.02.12.15.25.28.36.42,1.91,2.37,3.93,4.64,5.95,6.91.74.83,1.45,1.69,2.2,2.51,2.56,2.76,5.21,5.42,7.93,8.02.19.18.37.38.56.57,0,0,0,0,0,0,36.3,34.46,86.16,54.95,135.72,59.01,5.73.61,11.41.92,17.07.92,72.19-.02,136.78-48.5,184.23-99.73,20.6-22.87,39.42-50.61,49.1-80.07,4.38-3.37,6.26-9.76,4.06-14.97,5.54-25.91,3.33-52.71-11.47-78.38ZM203.07,65.58c7.73,0,15.42.35,22.86.59,69.77,3.89,140.54,13.79,207.96,33.6,3.45,6.64,11.12,5.96,17.55,6.14,12.52,1.71,24.7,6.81,34.56,14.79,18.3,19.11,24.07,41.58,21.03,65.05-54.13-22.71-110.76-38.73-167.33-54.22-49.83-14.06-100.73-23.84-151.42-34.23-16.69-3.25-33.6-7.02-50.63-7.58,1.72-2.21,3.51-4.38,5.45-6.47,16.51-14.96,38.34-17.66,59.97-17.66ZM466.38,196.09c-.18.21-.36.42-.53.63-.27.27-.54.52-.81.77.46-.45.86-.94,1.25-1.43.03.01.06.02.09.03ZM113.68,223.31c-1.77-35.35-3.65-75.82,10.1-109.42,2.75,1.27,6.24,1.59,10.46.23,28.44,1.52,56.77,9.17,84.77,14.52,31.17,6.23,62.2,13.05,92.98,20.9-1.28.37-2.58.7-3.87,1.07-65.68,21.54-131.77,45.52-194.23,76.32-.06-1.21-.18-2.4-.21-3.63ZM117.74,252.19c77.02-37.32,177.02-72.99,199.58-78.68,13.86-4,27.84-7.64,41.86-11.12,23.41,6.47,46.71,13.25,69.78,20.73-5.06,1.46-10.11,2.95-15.15,4.43-64.65,19.1-127.85,43.13-188.2,73.21-24.01,11.58-47.99,23.32-71.35,36.23-3.46,1.91-6.88,3.88-10.31,5.83-12.16-14.73-21.3-31.69-26.21-50.63ZM305.77,368.58c-49.97,3.38-105.58-13.98-144.07-47.58,10.94-6.1,21.96-12.06,33.13-17.72,47.7-23.97,95.89-47.45,146.12-65.76,27.69-9.88,59.03-20.56,88.38-28.92,9.9-2.82,19.79-5.73,29.8-8.04,1.47-.07,5.7-2.18,7.28-4.45,11.63,4.3,23.17,8.86,34.62,13.73-27.63,76.76-133.51,155.7-195.26,158.75Z"/></g><g id="change3_3"><path fill="#0a253a" d="M1086.18,189.82c-81.22-28.9-183.1-48.68-268.56-32.39-60.05,12.33-112.35,49.06-116.18,114.63-1.52,25.39,10.53,49.16,18.83,72.57,38.78,85.19,76.52,113.25,167.56,131.84,19.01,3.62,38.38,5.87,57.75,5.87,11.83,0,23.65-.84,35.37-2.7,26.19-4.64,51.62-14.21,74.84-27.62.01.02.02.03.03.05,1.14-.66,2.24-1.38,3.36-2.06,1.63-.98,3.27-1.97,4.88-2.98,1.58-1,3.15-2.02,4.7-3.05,1.63-1.09,3.24-2.2,4.85-3.33,1-.7,2.04-1.36,3.04-2.08-.01-.01-.02-.03-.03-.04,12.11-8.76,23.38-18.63,33.56-29.42,0,0,.01.02.02.03,1.48-1.53,2.9-3.11,4.32-4.68,0,0,0,0,0-.01s0,0,0-.01c3.89-4.89,7.66-9.95,11.28-15.16.03-.04.05-.07.08-.11,0,0,0,0,0,0,24.85-35.83,42.3-78.7,40.66-122.42-3.47-42.44-44.11-64.75-80.36-76.91ZM879.11,175.79c6.77,0,13.39.23,19.72.67,52.8,3.3,105.25,12.41,155.75,28.23,32.22,12.49,77.56,21.23,86.92,59.93.04.43.05.85.09,1.28-60.6-17.24-123.44-25.22-185.59-35.84-67.94-11-137.63-21.17-206.26-12.01,30.23-31.53,83.71-42.27,129.38-42.27ZM947.6,457.75c-31.51.21-62.83-5.66-92.88-14.98-33.52-10.05-62.06-24.95-82.12-55.48-19.79-27.46-35.15-59.36-43.38-92.98-3.09-6.02-3.55-12.64-3.36-19.39.59-11.76,3.07-22.24,7.06-31.57,2.45,1.14,5.41,1.5,8.78.5,26.85-4.26,53.82-5.34,80.78-4.46,0,0,0,.01,0,.02,1.38,4.68,5.79,8.3,10.61,8.82,9.4,3.2,18.45,7.29,27.44,11.43,72.67,29.54,121.73,92.86,167.11,154.04,4.57,6.01,9.11,12.23,13.68,18.53-28.75,16.09-61.31,25.37-93.71,25.52ZM1061.8,419.14c-31.04-41.28-60.45-83.92-97.9-119.78-22.64-22.85-49.59-40.45-78.22-54.83,22.22,2.72,44.37,6.17,66.39,9.73-1.43,8.28,6.98,13.39,14.09,17.27,48.76,32.42,89.77,73.65,128.23,117.94-9.67,11-20.62,20.99-32.6,29.67ZM1025.37,285.45c-10.05-8.53-20.25-16.6-30.83-24.19,48.19,7.87,96.42,15.4,143.83,29.06.89.31,1.75.52,2.59.66-3.66,26.95-16.12,53.05-29.63,76.13-.52.81-1.11,1.58-1.64,2.39-25.81-30.18-54.41-58.01-84.32-84.05Z"/></g></g></g></svg>