<?xml version="1.0" encoding="UTF-8" standalone="no"?><svg xmlns="http://www.w3.org/2000/svg" xmlns:xlink="http://www.w3.org/1999/xlink" contentScriptType="text/ecmascript" fill="#000000" width="657" zoomAndPan="magnify" contentStyleType="text/css" viewBox="-9.6 -12.1 657.0 614.8" height="615" preserveAspectRatio="xMidYMid meet" version="1"><g data-name="Layer_1"><g><g id="change1_1"><path fill="#fff4d4" d="M594.63,81.99c-9.46,0-19.8,3.62-29.87,10.45-23.4,15.68-42.56,36.01-58.68,53.84-.5.55-.87,1.2-1.08,1.89-.22.37-.53.75-.92.93-.61.29-1.17.7-1.62,1.21l-6.3,7.04c-6.4,7.16-13.02,14.57-19.64,21.65-38.66,41.48-74.99,86.1-110.13,129.25-10.18,12.5-20.36,25.01-30.61,37.45-.89,1.08-1.3,2.48-1.13,3.86.17,1.39.9,2.65,2.02,3.48,7.75,5.76,25.22,21.93,32.43,34.96.78,1.41,2.17,2.37,3.76,2.59.24.03.47.05.71.05,1.35,0,2.66-.54,3.62-1.51,52.69-53.04,95.99-96.2,136.34-135.91,5.63-5.78,11.33-11.52,17.04-17.27,30.23-30.46,61.48-61.96,83.32-100.02,9.08-15.62,10.8-30.64,4.71-41.22-4.65-8.08-13.38-12.72-23.96-12.72Z"/></g><g id="change1_2"><path fill="#fff4d4" d="M233.29,505.14c15.11,0,29.92-2.61,38.24-4.92,28.46-9.37,70.37-35.6,69.45-69.52,0-.17.03-.34.06-.49.43-1.78-.13-3.65-1.46-4.9-5.41-5.11-10.54-11.33-15.51-17.34-6-7.26-12.21-14.77-19.02-20.61l-.8-.72c-.95-.87-2.26-1.35-3.56-1.35-.13,0-.26,0-.39.01-.3,0-.97-.1-2.01-.78-.45-.29-.95-.51-1.47-.65-3.05-.81-6.27-1.22-9.57-1.22-9.85,0-20.76,3.54-33.48,10.9-17.63,10.97-23.16,29.18-28.52,46.79-5.56,18.28-10.81,35.55-29.07,44.73-1.37.69-2.36,1.96-2.69,3.46s.03,3.07.98,4.27c6.48,8.2,19.54,12.35,38.82,12.35Z"/></g><g id="change2_1"><path fill="#f2bc57" d="M119.3,242.95c13.15,59.71,102.31,37.17,85.36-21.85-17.21-51.75-95.19-32.08-85.36,21.85Z"/></g><g id="change3_1"><path fill="#ff8456" d="M353.9,119.47c-20.92-61.56-111.08-28.66-87.55,31.92,23.5,52.97,103.63,23.88,87.55-31.92Z"/></g><g id="change3_2"><path fill="#ff8456" d="M174.93,390.01c-12.37-46.98-82.67-33.54-76.95,14.72,8.48,53.8,88.86,38.64,76.95-14.72Z"/></g><g id="change4_1"><path fill="#244668" d="M109.83,532.32c45.5,39.16,97.75,60.72,147.11,60.72,3.71,0,7.46-.12,10.98-.35,57.78-2.01,115.28-24.47,161.85-63.2,59.57-48.29,72.66-98.81,38.94-150.16-.88-1.76-2.38-4.38-4.26-7.65-5.22-9.11-13.96-24.35-17.45-35.85-.52-1.71-1.9-3.03-3.63-3.47-.42-.1-.84-.16-1.25-.16-1.33,0-2.63.52-3.59,1.48-12.41,12.29-24.79,25.01-36.76,37.31-7.37,7.58-14.75,15.16-22.11,22.62-3.9,3.82-7.78,7.78-11.52,11.61-6.37,6.51-12.95,13.23-19.86,19.46-.29.27-.61.54-.92.8-1.48,1.23-2.15,3.18-1.73,5.06.03.13.05.29.05.67,1.14,27.15-23.75,46.98-42.52,59.5-18.94,12.33-42.47,19.12-66.26,19.12-9.77,0-19.48-1.12-29.06-3.38-6.73-1.29-15.15-5.96-18.2-12.39-1.55-3.26-1.41-6.49.3-9.67.99-1.65,2.8-2.72,5.09-4.07.52-.31,1.04-.62,1.63-.97,6.32-4.01,11.85-10.26,16.47-18.69,4.21-8.15,6.7-16.88,9.11-25.32,3.08-10.8,5.99-21.01,12.17-29.67,11.84-16.48,32.87-27.56,52.33-27.56,2.67,0,5.31.21,7.85.63.27.04.55.07.82.07,1.29,0,2.55-.49,3.51-1.4.54-.51,1.03-.51,1.19-.51.1,0,.2,0,.31.02.26.04.51.06.77.06,1.48,0,2.9-.64,3.88-1.79,20.52-24.02,40.76-48.93,60.32-73.03,31.19-38.41,63.45-78.12,97.51-115,8.55-9.05,16.97-18.58,25.11-27.8,3.86-4.38,7.73-8.75,11.62-13.1.82-.91,1.28-2.08,1.3-3.3.73-35.53-17.22-69.86-48.03-91.87-33.31-27.54-74.43-41.5-122.22-41.5s-103.35,15.29-152.68,42.98C82.64,102.95,16.56,206.35,9.64,316.09c-3.16,84.06,34.37,164.95,100.19,216.22ZM356.53,112.98c5.35,12.18,5.35,27.08.02,39.88-5.29,12.73-15.91,22.97-29.16,28.1-5.65,2.21-11.71,3.34-18.01,3.34-7.83,0-15.62-1.78-22.55-5.15-12.34-6.01-21.67-16.62-26.27-29.89-4.51-12.93-3.31-27.94,3.21-40.15,3.42-6.39,7.86-11.81,13.2-16.1,5.48-4.39,11.74-7.63,18.6-9.62,2.79-.81,5.71-1.36,8.49-1.63.15,0,.46-.02.46-.02.1,0,.19,0,.29,0,.14,0,.27,0,.41-.02,1.47-.12,2.91-.18,4.28-.18,1.18,0,2.36.04,3.52.13,6.61.56,12.94,2.29,18.82,5.14,10.86,5.29,19.63,14.57,24.69,26.15ZM198.98,201.95c1.26,1.41,2.45,2.9,3.47,4.35.08.13.17.25.24.38.07.13.15.26.24.38,3.4,4.98,5.8,10.38,7.12,16.04,1.56,6.74,1.73,13.58.5,20.33-1.25,6.93-4.09,13.55-8.45,19.68-7.9,11.16-20.63,18.45-34.94,20-1.41.16-2.96.24-4.72.24-12.5,0-25.24-5.24-34.07-14.02-5.14-5.11-9.13-11.27-11.52-17.81-2.49-6.83-3.43-14.2-2.79-21.91,1.15-13.97,9.2-27.5,21.03-35.32,3.97-2.64,7.96-4.65,11.59-5.83,0,0,1.14-.37,1.28-.42,4.81-1.49,9.86-2.24,15.02-2.24.41,0,.83,0,1.24.01,5.57.13,11.41,1.41,17.36,3.82,6.24,2.53,12.08,6.58,16.97,11.83l.44.49ZM136.32,355.79h.35c7.89.12,14.94,1.78,20.42,4.79.14.1.3.19.48.29,0,0,.25.16.37.22,2.03,1.13,4,2.43,5.96,3.93,7.72,6.14,13.23,14.59,15.53,23.77,3.18,12.72.55,26.17-7.19,36.9-7.53,10.41-19.57,16.91-32.99,17.82-.91.05-1.81.09-2.72.09-12.4,0-24.77-5.78-33.08-15.47-9.08-10.6-12.69-25.93-9.2-39.06,1.91-7.1,5.3-13.45,10.08-18.87,4.48-5.09,10.6-9.23,17.2-11.65,4.98-1.81,10.08-2.77,14.77-2.77Z"/></g><g id="change5_1"><path fill="#0a253a" d="M302.15,91.94c-.33.06-.68.14-1.03.19-1.15.23-2.31.52-3.45.83-1.86.6-3.69,1.3-5.49,2.08-1.59.78-3.14,1.59-4.68,2.48-1.61,1.03-3.14,2.13-4.66,3.32-1.3,1.13-2.54,2.29-3.77,3.51-1.34,1.49-2.58,3.01-3.78,4.6-.89,1.32-1.73,2.66-2.06,3.14-1.16,2.17-2.17,4.39-3.07,6.68-.56,1.65-1.05,3.3-1.46,4.97-.39,1.79-.66,3.57-.85,5.38-.12,1.67-.17,3.34-.17,5.01.12,2.08.33,4.11.66,6.17.35,1.71.74,3.4,1.22,5.07.5,1.65,1.16,3.22,1.65,4.41.76,1.63,1.59,3.2,2.48,4.75.95,1.47,1.94,2.89,3.01,4.31,1.2,1.44,2.45,2.79,3.77,4.13,1.44,1.28,2.91,2.5,4.46,3.69,1.4.97,2.83,1.88,4.31,2.74,1.9.99,3.86,1.88,5.84,2.64,1.59.54,3.18.99,4.79,1.42,1.65.35,3.28.62,4.93.83,2.15.17,4.29.23,6.44.19,1.63-.14,3.2-.31,3.88-.37,1.94-.35,3.84-.76,5.74-1.26,1.86-.6,3.69-1.28,5.49-2.04,1.46-.72,2.89-1.46,4.31-2.27,1.77-1.15,3.45-2.33,5.1-3.63,1.24-1.09,2.43-2.21,3.61-3.38,1.16-1.28,2.29-2.6,3.34-3.98,1.11-1.57,2.12-3.18,3.07-4.85.87-1.71,1.65-3.45,2.37-5.24.58-1.65,1.11-3.32,1.53-5.05.37-1.77.66-3.53.89-5.34.12-1.86.19-3.73.16-5.61-.1-1.82-.29-3.61-.54-5.41-.33-1.77-.74-3.49-1.22-5.22-.56-1.67-1.16-3.32-1.84-4.93-.89-1.9-1.88-3.75-2.5-4.74-.89-1.38-1.82-2.72-2.81-4.04-1.16-1.4-2.37-2.72-3.65-4.02-1.38-1.28-2.81-2.48-4.29-3.63-1.67-1.18-3.4-2.27-5.18-3.26-1.73-.87-3.47-1.67-5.28-2.37-1.67-.58-3.36-1.07-5.07-1.49-1.71-.35-3.44-.62-5.16-.83-1.86-.14-3.73-.19-5.01-.19-.21.02-.41.02-.62.04h-.02c-1.82.1-3.61.29-5.4.56ZM284.58,183.74c-13.64-6.64-23.91-18.51-28.86-32.8-4.99-14.34-3.61-30.86,3.53-44.23,3.63-6.79,8.5-12.85,14.52-17.68,6.04-4.83,12.94-8.38,20.38-10.54,3.12-.91,6.37-1.51,9.61-1.82.35-.02.7-.04,1.05-.02,2.87-.23,5.74-.27,8.64-.04,7.2.6,14.13,2.48,20.63,5.63,12.23,5.96,21.7,16.28,27.13,28.68,6.06,13.82,5.82,30.06.06,43.9-5.92,14.23-17.72,25.35-32.02,30.9-6.33,2.48-13.1,3.69-19.87,3.69-8.56,0-17.1-1.92-24.78-5.67Z"/></g><g id="change5_2"><path fill="#0a253a" d="M159.68,195.66c-1.61.16-3.2.39-4.79.66-1.32.31-2.62.6-3.9.99-.41.14-.82.27-1.01.35-1.26.45-2.48.95-3.73,1.47-1.59.8-3.14,1.65-4.68,2.54-1.3.89-2.56,1.8-3.8,2.78-1.53,1.36-3.01,2.76-4.41,4.25-1.28,1.53-2.46,3.12-3.61,4.77-.7,1.16-1.36,2.31-2,3.49-.82,1.77-1.55,3.55-2.21,5.4-.45,1.49-.83,2.97-1.18,4.48-.29,1.73-.52,3.44-.68,5.16-.08,1.69-.08,3.34,0,5.01.16,1.65.35,3.28.62,4.89.29,1.4.62,2.76,1.03,4.13.64,1.92,1.38,3.8,2.23,5.67.74,1.44,1.55,2.81,2.39,4.19,1.01,1.46,2.06,2.83,3.16,4.19,1.16,1.28,2.37,2.48,3.65,3.65,1.32,1.15,2.7,2.17,4.13,3.18,1.49.95,3.01,1.8,4.56,2.62,1.36.62,2.72,1.2,4.11,1.73,1.86.6,3.73,1.11,5.63,1.53,1.53.27,3.07.47,4.6.6,1.73.1,3.44.1,5.16.04,1.59-.12,3.16-.33,4.74-.58,1.73-.37,3.44-.82,5.14-1.34,1.61-.58,3.16-1.2,4.7-1.9,1.51-.76,2.95-1.59,4.39-2.48,1.44-.99,2.81-2.02,4.15-3.12,1.4-1.28,2.74-2.6,4-4,1.09-1.3,2.1-2.66,3.09-4.06.91-1.48,1.79-2.97,2.58-4.52.64-1.38,1.2-2.76,1.73-4.15.54-1.67.99-3.38,1.36-5.08.29-1.63.52-3.24.66-4.89.12-1.71.12-3.4.04-5.1-.12-1.75-.35-3.47-.64-5.22-.35-1.71-.8-3.38-1.11-4.39-.08-.23-.16-.47-.23-.68v-.02c-.5-1.4-1.07-2.78-1.67-4.11-.82-1.63-1.73-3.24-2.7-4.79-.7-1.01-1.44-2.02-2.21-2.99-.23-.31-.49-.6-.72-.89-1.13-1.24-2.29-2.43-3.51-3.55-1.38-1.16-2.81-2.25-4.33-3.32-1.61-1.01-3.24-1.94-4.93-2.81-1.48-.66-2.95-1.26-4.44-1.82-1.57-.48-3.11-.89-4.7-1.26-1.57-.29-3.12-.5-4.72-.68-.99-.04-1.98-.06-2.97-.06s-1.98.02-2.97.06ZM124.76,272.94c-5.59-5.55-10.01-12.29-12.71-19.68-2.83-7.78-3.76-15.86-3.09-24.09,1.28-15.53,10.31-30.57,23.29-39.15,4.15-2.76,8.56-5.05,12.81-6.42l.66-.21c.21-.08.43-.14.62-.21l.08-.02c5.82-1.8,11.82-2.6,17.91-2.46,6.6.16,13.06,1.73,19.16,4.19,7.01,2.83,13.49,7.39,18.69,12.98.1.1.19.19.29.31.1.12.21.23.31.35,1.42,1.57,2.72,3.22,3.92,4.93.16.23.31.47.45.72,3.67,5.38,6.39,11.37,7.88,17.76,1.71,7.36,1.9,14.98.54,22.4-1.42,7.88-4.68,15.2-9.3,21.72-8.93,12.61-23.29,20.47-38.54,22.12-1.77.19-3.53.27-5.3.27-13.92,0-27.85-5.74-37.67-15.51Z"/></g><g id="change5_3"><path fill="#0a253a" d="M133.07,365.78c-1.59.21-3.14.5-4.7.85-1.26.37-2.52.78-3.77,1.22-1.3.52-2.54,1.11-3.8,1.73-1.32.76-2.58,1.57-3.84,2.41-1.46,1.13-2.85,2.31-4.19,3.55-.95,1.01-1.86,2.04-2.76,3.11-.91,1.24-1.77,2.48-2.56,3.78-.7,1.24-1.34,2.5-1.94,3.8-.54,1.4-1.05,2.81-1.49,4.25-.33,1.36-.62,2.76-.87,4.15-.17,1.57-.31,3.14-.37,4.74.02,1.51.1,3.05.25,4.56.19,1.28.43,2.54.7,3.8.37,1.36.8,2.7,1.26,4.04.66,1.57,1.38,3.09,2.17,4.6.78,1.3,1.57,2.54,2.45,3.77.93,1.15,1.9,2.27,2.89,3.38.95.91,1.88,1.79,2.87,2.62,1.4,1.09,2.83,2.06,4.33,2.99,1.28.72,2.58,1.36,3.9,1.96,1.36.54,2.76,1.01,4.17,1.46,1.42.35,2.83.64,4.27.89,1.61.19,3.2.31,4.81.33,1.24-.02,2.48-.1,3.73-.19,1.34-.17,2.66-.41,4-.68,1.67-.43,3.32-.95,4.95-1.55,1.36-.56,2.66-1.2,3.98-1.88,1.22-.72,2.43-1.49,3.59-2.31,1.24-.97,2.43-1.96,3.55-3.03,1.09-1.11,2.12-2.23,3.11-3.44.89-1.18,1.71-2.41,2.5-3.69.74-1.28,1.4-2.6,2.02-3.96.6-1.47,1.11-2.95,1.55-4.48.35-1.42.64-2.83.87-4.27.17-1.44.29-2.89.33-4.35-.02-1.53-.12-3.03-.27-4.54-.19-1.4-.45-2.76-.78-4.11-.33-1.32-.76-2.64-1.22-3.92-.6-1.47-1.28-2.91-2.02-4.31-.7-1.2-1.46-2.39-2.27-3.53-1.03-1.36-2.13-2.66-3.32-3.9-1.03-.99-2.08-1.96-3.2-2.87-1.36-1.01-2.76-1.96-3.78-2.58-.39-.21-.78-.43-1.16-.64-.62-.33-1.26-.64-1.9-.93-.08-.04-.17-.08-.25-.12-1.51-.64-3.05-1.16-4.62-1.63-1.61-.41-3.22-.72-4.87-.99-1.44-.16-2.89-.27-3.4-.29h-1.09c-1.28.02-2.54.1-3.8.21ZM99.59,431.46c-10.09-11.78-14.26-28.63-10.25-43.71,2.1-7.84,5.8-14.83,11.18-20.92,5.14-5.84,11.99-10.4,19.29-13.08,5.67-2.06,11.59-3.12,16.94-3.07,7.92.12,16.22,1.69,23.19,5.65.02.02.04.02.06.04.02.02.04.02.06.04.12.06.25.14.37.21,2.33,1.3,4.54,2.78,6.66,4.41,8.46,6.73,14.67,15.99,17.31,26.53,3.55,14.21.54,29.27-8.02,41.12-8.58,11.86-22.32,18.94-36.82,19.93-1.01.06-2.02.1-3.03.1-14.09,0-27.81-6.6-36.95-17.25Z"/></g><g id="change5_4"><path fill="#0a253a" d="M567.59,96.68c-21.87,14.65-40.12,33.54-57.74,53.02,0,.06-.02.14-.02.19-.87,1.9-2.15,3.14-3.59,3.82-8.66,9.65-17.21,19.37-26.01,28.76-49.55,53.16-94.36,110.39-140.53,166.46,7.18,5.34,25.93,22.26,33.85,36.58,45.22-45.51,90.58-90.87,136.3-135.87,35.65-36.58,74.04-71.73,99.6-116.29,15.84-27.25,5.16-46.27-14.83-46.27-7.92,0-17.27,2.97-27.04,9.59ZM256.47,397.87c-33.56,20.88-19.35,72.31-57.99,91.74,12.13,15.33,54.24,10.52,71.46,5.74,26.41-8.69,66.94-33.3,65.93-64.71.02-.58.1-1.15.21-1.65-12.19-11.53-22.16-27.35-34.49-37.9-.27-.25-.54-.48-.8-.72-1.59.12-3.38-.35-5.28-1.59-2.72-.72-5.47-1.05-8.27-1.05-10.81,0-21.79,4.93-30.78,10.13ZM180.37,57.05C85.08,107.44,21.5,209.23,14.74,316.28c-3.11,82.56,33.28,161.41,98.42,212.17,42.56,36.62,97.54,62.84,154.58,59.14,58.03-2.02,114.31-25.06,158.81-62.07,47.69-38.66,75.28-86.73,37.71-143.66-2.97-6.13-17.21-28.28-22.14-44.56-19.89,19.7-39.22,40-58.9,59.95-10.52,10.31-20.48,21.25-31.44,31.13-.37.35-.78.7-1.18,1.03.12.49.17,1.01.17,1.57,1.2,28.74-22.94,49.39-44.83,63.99-28.88,18.81-65.7,24.36-99.06,16.48-13.18-2.52-29.23-15.08-21.33-29.71,1.98-3.28,5.26-4.81,8.36-6.71,6.35-4.04,11.08-10.21,14.67-16.73,9.18-17.78,9.86-39.07,21.66-55.62,13.99-19.49,40.95-32.95,65.15-29,1.46-1.38,3.45-2.17,5.76-1.82,53.2-62.26,102.38-127.99,158-188.22,12.48-13.2,24.41-27.15,36.64-40.8.72-35.09-17.7-67.54-46.04-87.72-34.72-28.76-76.39-40.45-119.11-40.45-52.09,0-105.75,17.39-150.29,42.39ZM255.11,602.64c-65.15,0-124.23-35.48-170.07-79.36C39.06,482.43,10.78,424.29,2.36,363.73c-11.96-88.13,22.44-183.44,81.55-248.81C153,37.39,265.22-12.15,369.42,2.6c42.37,7.01,81.4,29.64,111.09,60.3,16.15,17.29,26.82,40.78,29.38,64.61,16.09-16.98,33.19-32.82,53.04-45.38,38.58-25.81,84.44,1.77,64.41,48.21-16.98,37.71-47.06,67.38-74.82,97.33-32.14,32.84-64.65,65.31-97.72,97.23.08.27.14.54.17.81.25,2.02,1.03,4.66,1.3,5.8,3.53,11.43,9.16,22.07,14.92,32.49,11.86,20.53,24.63,41.86,25.99,66.12.6,34.64-17.54,66.92-42.48,89.99-51.57,50.91-122.42,82.56-195.22,82.56-1.48,0-2.93,0-4.39-.04Z"/></g></g></g></svg>