<?xml version="1.0" encoding="UTF-8" standalone="no"?><svg xmlns="http://www.w3.org/2000/svg" xmlns:xlink="http://www.w3.org/1999/xlink" contentScriptType="text/ecmascript" fill="#000000" width="1131" zoomAndPan="magnify" contentStyleType="text/css" viewBox="-1.0 -3.8 1131.1 1363.6" height="1364" preserveAspectRatio="xMidYMid meet" version="1"><g data-name="Layer_1"><g><g id="change1_1"><path fill="#17334f" d="M801.8,192.98c-6.69-29.04-19.89-55.28-32.72-80.78-16.03-30.67-37.29-64.22-73.84-80.66-27.88-11.24-57.93-17.18-86.92-17.18-31.99,0-62.49,7.35-87.83,21.06-73.25,35.88-116.34,103.18-139.46,153.05-2.24,4.48-4.51,8.95-6.77,13.43-13.14,25.97-26.72,52.83-36.62,81.02-.98,2.8-.65,5.9.92,8.42,1.56,2.52,4.19,4.21,7.13,4.57,4.12.52,8.96.76,14.08,1.02,22.33,1.12,40.96,3.04,42.47,15.02-.73,3.74-4.11,7.04-9.43,11.87-2.35,2.13-4.78,4.34-6.78,6.58-6.24,6.54-13.03,12.95-19.6,19.15-10.54,9.95-21.44,20.25-31.01,31.85-2.49,3.02-2.95,7.23-1.17,10.71l6.54,12.84c20.96,41.14,42.63,83.67,64.81,124.95,6.14,11.87,12.58,23.72,18.81,35.19,11.42,21.02,23.23,42.75,33.17,64.66,1.6,3.52,5.1,5.76,8.94,5.76.11,0,.23,0,.34,0,3.97-.14,7.47-2.66,8.86-6.38,6.09-16.31,12.61-30.34,19.92-42.87,1.92-3.29,1.76-7.39-.4-10.52-3.96-5.74-5.11-20.04-5.88-29.51-.38-4.67-.7-8.74-1.28-11.97-2.61-25.26-4.16-50.47-5.67-75.07-7.12-85.7-9.64-162.09-7.71-233.75.24-35.27,2.03-75.74,20.32-109.76,14.94-28.25,45.38-59.65,86.07-63.19,3.34-.07,6.73-.12,10.14-.12,23.98,0,58.85,2.11,84.51,20.2,29.43,21.66,25.1,64,18.78,101.71-6.96,35.16-22.75,68.74-38.02,101.22l-2.55,5.43c-13.52,28.18-27.92,56.6-41.86,84.07-9.67,19.06-19.33,38.13-28.81,57.31-9.94,20.24-19.81,40.89-29.35,60.87-13.65,28.56-27.76,58.09-42.25,86.78-.38.76-.66,1.55-.84,2.38-.48,2.27-1.68,3.93-2.59,4.53-1.15.75-2.12,1.72-2.87,2.87-17.63,27.1-27.41,57.04-36.87,86-1.51,4.63-3.02,9.26-4.41,13.44-9.06,23.41-15.11,48.41-18.5,76.43-.58,4.79,2.41,9.3,7.05,10.62.9.25,1.8.38,2.7.38,3.74,0,7.25-2.15,8.9-5.68,11.99-25.75,23.53-46.06,36.52-64.19,35.01-52.14,77.83-99.88,119.24-146.05l3.75-4.18c47.17-54.78,98.82-112.69,156.77-164.99,3.7-3.34,4.31-8.93,1.41-12.99-9.25-12.97-22.11-24.87-38.2-35.38-3.26-2.41-6.88-4.52-10.39-6.56-6.15-3.58-12.5-7.28-15.11-11.71-.13-1.22.01-1.73,0-1.73.32-.31,2.29-1.75,11.66-1.75,1.48,0,2.93.03,4.32.06l1.46.02c25.02-.29,49.41-1.31,72.74-10.55,3.97-1.57,6.47-5.53,6.18-9.79-2.41-35.72-6.57-67.75-12.77-98.17Z"/></g><g id="change2_1"><path fill="#244668" d="M472.67,1224.78c-2.12-11.02-4.32-22.42-5.92-33.85-7-41.82-10.56-84.98-14-126.71-.69-8.4-1.39-16.8-2.09-24.93-1.42-24.06-3.19-48.48-4.9-72.09-3.77-52.08-7.67-105.92-8.01-158.76.03-23.24.8-50.5,6.21-76.5,4.18-20.8,11.14-41.54,17.86-61.58l2.19-6.55c.73-2.17.67-4.53-.16-6.67-7.15-18.37-15.81-37.2-25.76-55.96-6.15-11.57-12.32-23.13-18.49-34.69-30.74-57.61-62.52-117.17-91.67-176.7-1.68-6.51,4.8-13.84,12.09-21.3,9.22-9.17,18.57-18.22,27.91-27.26,6.92-6.71,13.85-13.41,20.72-20.16,2.62-2.57,3.59-6.4,2.5-9.91-1.09-3.51-4.04-6.12-7.66-6.77-14.33-2.55-29.27-3.19-41.28-3.71-.14,0-.28,0-.42,0-.3,0-.61.01-.91.04-.93.09-1.81.13-2.65.13-2.35,0-5.4-.35-6.53-2.02-1.78-2.63-1.82-10.22,2.4-20.89,10.66-28.85,24.96-57.07,38.8-84.36,3.15-6.2,6.29-12.4,9.39-18.6,0-.01.01-.03.02-.04.23-.46.44-.94.59-1.4,1.25-3.74.13-7.87-2.83-10.47-1.83-1.61-4.15-2.45-6.49-2.45-1.45,0-2.9.32-4.26.97-5.17,2.49-10.35,4.96-15.53,7.43-17.21,8.21-35.01,16.7-52.24,25.75-.16.08-.32.17-.47.26-5.17,3.09-10.96,5.62-17.08,8.31-11.56,5.07-23.51,10.3-33,20.01-.4.41-.76.85-1.08,1.32-18.86,27.54-29.32,59.19-39.43,89.8-2.11,6.41-4.22,12.8-6.46,19.29-15.48,47.59-29.4,96.64-42.86,144.07-5.25,18.5-10.49,36.97-15.85,55.45-20.58,73.72-38.31,149.39-55.45,222.58-6.6,28.16-13.19,56.32-19.96,84.46-2.93,12.34-5.9,24.7-8.88,37.08-10.3,42.82-20.94,87.11-29.98,130.98-.62,3.03.22,6.18,2.27,8.49,3.66,4.13,7.83,6.61,12.3,9.09,32.97,17.5,71.62,31.96,121.82,45.54l2.92.74c13.02,3.27,26.49,6.66,40.44,7.87.29.02.57.04.85.04,4.61,0,8.66-3.24,9.61-7.84,9.9-48.05,20.14-97.73,27.5-147.24.3-1.15.76-1.36.97-1.45,3.36-1.54,5.56-4.83,5.72-8.52,2.1-51.42,1.99-106.99-.34-169.78-1.86-71.35-4.4-154.36-10.99-236.4-.63-9.01-1.22-18.01-1.8-27.02-1.07-16.46-2.17-33.49-3.56-50.31l-.33-3.61c-.24-2.64-.49-5.28-.68-7.95-.02-.28.19-.7.53-1.08.51-.56,1.28-.97,1.91-.98.75,0,1.11.22,1.45.57.83.85,1.33,2.46,1.28,4.1-.01.36,0,.72.03,1.08,9.62,120.53,15,221.3,16.95,317.37,4.6,99.93,1.2,205.71-10.12,314.62-1.8,21.98-4.14,44.38-6.41,66.05-5.09,48.68-10.36,99.01-9.95,149.02.02,2.73,1.18,5.32,3.2,7.17,29.14,26.63,67.48,33.13,104.56,39.41,7.25,1.23,14.44,2.45,21.91,3.89,3.88.57,7.71,1.18,11.5,1.79,13.21,2.11,25.69,4.1,37.95,4.1,27.11,0,46.89-10.56,62.41-33.47,2.05-3.22,3.22-6.46,4.24-9.31l.48-1.37c.55-1.19.86-2.49.9-3.8l.06-1.74c.01-.36,0-.73-.02-1.09-1.37-17.52-4.7-34.81-7.92-51.53Z"/></g><g id="change2_2"><path fill="#244668" d="M207.92,1084.85c-33.86-4.36-130.55-32.45-167.24-56.07-1.61-1.04-3.46-1.56-5.31-1.56-1.31,0-2.63.26-3.87.79-3,1.28-5.16,3.97-5.78,7.18-4.27,22.31-7.77,43.02-10.68,63.3-.57,3.94,1.3,7.83,4.73,9.85,38.48,22.7,98.73,49.75,167.18,49.75,3.15,0,6.3-.06,9.45-.18,4.57-.17,8.42-3.48,9.27-7.98,2.94-15.48,6.31-32.44,10.62-53.36.55-2.68-.04-5.46-1.63-7.68-1.59-2.22-4.03-3.68-6.74-4.03Z"/></g><g id="change2_3"><path fill="#244668" d="M953.38,1083.71c.35,0,.71-.02,1.07-.06l5.48-.58c5.37-.56,10.92-1.13,16.41-1.99,19.56-2.92,40.54-7.03,66.03-12.94,5.35-1.24,10.71-2.46,16.07-3.68,14.34-3.27,29.17-6.65,43.72-10.34,0,0,.02,0,.04,0,1.76-.44,3.39-1.35,4.67-2.68,1.85-1.89,2.85-4.45,2.79-7.1-1.42-59.15-8.07-119.03-14.49-176.94-3.63-32.72-7.38-66.56-10.12-99.77-10.92-106-29.34-212.66-54.77-317.17-16.84-64.71-37.84-139.35-74-206.12-10.51-19.73-25.67-35.47-43.71-45.41-34.48-19.81-67.64-34.51-101.37-44.96-.95-.29-1.93-.44-2.9-.44-2.63,0-5.2,1.06-7.08,3.02-2.57,2.68-3.41,6.58-2.17,10.09,3.25,9.17,5.93,18.3,7.95,27.04,4.7,21.3,7.21,43.57,9.63,65.11l.58,5.17c.1,4.32.74,8.91,1.35,13.35,1.63,11.79,2.45,20.54-1.97,24.8-16.84,9.69-38.13,12.26-58.65,13.59-4.12.27-7.64,3.09-8.8,7.05-1.16,3.97.3,8.23,3.63,10.67,13.01,9.51,28.9,22.52,37.03,39.24,1,5.44-4.06,11.33-12.39,18.88-22.18,19.54-43.46,40.4-66.94,65.63-31.25,33.34-62.14,68.5-92.01,102.51-16.67,18.98-33.92,38.61-51.2,57.89-34.45,42.23-73.51,90.09-98.41,145.21l-1.62,3.48c-5.78,12.37-11.75,25.17-15.87,38.22-.06.19-.12.39-.17.58l-.66,2.73c-1.09,4.6-2.74,11.56-5.03,13.86-1.88,1.9-2.91,4.48-2.85,7.16.16,6.39.39,12.78.7,19.22,5.53,98.86,11.86,204,23.16,307.2,3.47,27.08,8.16,54.05,12.75,79.31,2.72,13.69,5.8,29.2,6.28,44.2.06,2.02.75,3.96,1.96,5.57,3.39,4.52,6.56,9.24,9.92,14.24,9.69,14.42,19.71,29.33,35.47,39.72.16.1.31.2.47.29.29.17.56.34.79.53,1.14.98,2.5,1.68,3.95,2.05,7.68,1.95,13.36,2.35,20.03,2.82,14.09.85,28.59,1.28,43.08,1.28,37.96,0,77.91-2.85,125.97-9l10.94-1.66c48.08-7.29,97.79-14.83,143.07-34.33,1.08-.47,2.22-1.27,3.06-2.08l.48-.27c.4-.22.82-.42,1.26-.63,3.32-1.61,10.24-4.95,11.17-13.54.02-.21.04-.42.05-.63,2.03-46.3-.77-92.83-3.48-137.84-1.45-24.15-2.96-49.13-3.69-73.85-4.12-91.59-8.37-212.5-4.56-335.57.02-.63-.02-1.27-.12-1.89-11.68-71.45-11.25-145.75-9.81-215.87.14-19.94.52-41.4,2.28-62.87.6-5.49,1.16-11.04,1.71-16.62,2.88-28.96,5.86-58.88,17.49-84.67.58-.53,1.29-.83,1.96-.83.44,0,.82.13.88.15,1.05.79,1.29,1.24,1.29,1.24.22,1.07-1.28,4.71-2.19,6.88-1,2.42-2.13,5.17-2.95,8.27-16.46,66.88-16.25,135.48-16.05,201.82.05,15.27.09,30.55-.05,46.23,1.03,32.56,3.21,61.97,6.69,89.91.55,4.41,3.99,7.9,8.39,8.52.93.13,1.79.71,1.93,1.22,4.25,15.51,7.82,31.59,11.28,47.14l1.35,6.08c16.87,77.63,23.07,158.12,29.06,235.96.97,12.61,1.94,25.22,2.96,37.91.91,10.18,1.5,20.41,2.03,30,.15,2.69,1.4,5.21,3.45,6.95,1.78,1.51,4.04,2.33,6.35,2.33Z"/></g><g id="change2_4"><path fill="#244668" d="M1106.21,1062.08c-1.75-1.39-3.91-2.13-6.1-2.13-.75,0-1.52.09-2.26.26-6.43,1.52-12.86,3.07-19.3,4.61-38.22,9.18-77.75,18.68-117.15,23.07-3.1.05-5.59.92-7.42,1.56-.48.17-.95.35-1.44.46-4.66,1.09-7.86,5.37-7.57,10.15,1.1,18.47,2.84,40.24,7.39,61.65.89,4.2,4.4,7.33,8.67,7.74,5.58.53,11.48.79,18.02.79,15.64,0,31.35-1.55,46.53-3.05,4.61-.46,9.16-.9,13.64-1.3.17-.01,5.93-.81,5.93-.81,19.28-2.66,39.22-5.4,56.79-16.34,2.59-1.61,4.29-4.35,4.58-7.39,2.23-22.95,3.34-46.36,3.4-71.56,0-3.01-1.36-5.85-3.72-7.72Z"/></g><g id="change1_2"><path fill="#17334f" d="M784.24,1010.99c28.38,13.9,16.11,70.23,8.3,94.55-20.16,54.16-81.16,73.65-133.62,57.29-37.84-11.09-70.92-37.26-88.95-72.51-9.99-20.2-19.77-46.34-8.5-67.8-.38-3.45.63-6.98,2.78-9.46,3.63-4.76,9.84-4.74,15.29-4.74,6.46-.08,12.95-.15,19.41-.29,13.02-.27,26.03-.88,39.03-1.55,25.37-1.3,50.79-1.5,76.18-2.09,23.19,1.13,49.31-6.58,70.08,6.6Z"/></g><g id="change3_1"><path fill="#0a253a" d="M7.26,1117.39c46.85,30.74,102.32,49.17,158.07,54.51,60.43,5.91,51.15-5.93,61.87-56.17,1.13-5.2,2.28-10.38,3.39-15.57-1.67,17.05-3.32,34.1-4.89,51.15-3.28,41.83-9.51,84.16-6.25,126.04,18.51,37.99,86.42,48.58,124.39,55.5,53.55,8.46,102.68,23.76,140.46-26.93,11.53,17.28,24.43,34.83,42.42,45.84.73.36,1.44.67,2.15.88,1.34,1.17,3.03,2.09,5.12,2.69,18.53,4.43,37.74,3.82,56.69,4.53h2.13c90.98,0,182.85-10.99,270.25-36.79,11.12-4.07,23.94-6.48,33.08-14.33,4.55-2.68,8.61-6.62,11.01-10.36,7.15-12.41,5.6-27.35,5.79-41.14-.52-29.57-2.13-59.15-3.51-88.7-5.66-105.14-9.8-210.35-10.82-315.64-.27-20.25-.08-40.52.25-60.8,5.66,29.29,10.16,58.8,13.64,88.41.02.11.02.23.04.34,6.94,64.77,12.03,131.11,16.4,196.3,1.84,26.08,2.69,52.34,6.81,78.21,1.94,12.31,6.23,27.48,21.08,28.33,30.24,3.45,158.65-.94,163.84-37.71,9.44-73.36,1.27-147.7-4.76-221.03-14.13-142.92-27.46-286.47-59.43-426.79-18.91-81.99-55.87-235.52-112.98-294.91-29.21-24.76-65.78-39.3-100.73-54.05-12.01-4.72-24.3-8.48-36.69-11.99-2.84-1.06-6.12-2.24-9.3-2.17-6.87-15.09-14.63-29.8-22.65-44.23-12.7-21.98-27.89-43.75-48.89-58.59C681.91,1.84,625.24-3.75,573.78,2.01c-63.56,11.37-120.46,52.01-159.11,102.87-7.38,9.34-14.29,19.03-20.71,29.02-1.42.25-2.88.77-4.33,1.63-29.23,13.77-58.42,27.62-87.23,42.31-20.16,11.81-44.67,17.7-61.41,34.5-31.2,41.96-42.62,94.99-59.59,143.67-15.29,49.69-28.9,99.88-43.59,149.77-29.65,102.45-52.63,206.71-77.27,310.43-17.99,76.24-37.53,152.13-51.67,229.21-2.76,15.17-5.27,30.4-7.61,45.65-2.22,9.53-2.21,19.64,6,26.33ZM1096.75,1140.4c-17.38,10.82-38.55,12.89-58.4,15.71-19.01,1.69-39.43,4.32-59.3,4.32-5.75,0-11.47-.21-17.09-.75-4.2-19.79-5.98-39.97-7.19-60.2,2.3-.54,4.47-1.76,6.92-1.76h.27c46.76-5.16,92.44-17.13,138.14-27.94-.06,23.59-1.07,47.12-3.36,70.64ZM826.98,263.32c-2.72-24.03-5.22-48.1-10.43-71.75-2.21-9.57-5.01-18.97-8.29-28.21,34.75,10.76,67.7,25.89,99.38,44.09,17.26,9.51,30.74,24.24,39.93,41.5,34.56,63.83,54.97,134.06,73.17,203.99,25.26,103.8,43.55,209.43,54.51,315.7,7.52,91.25,22.34,183.71,24.57,275.94-.02,0-.06.02-.08.02-19.77,5.02-39.72,9.38-59.61,13.98-21.61,5.01-43.32,9.51-65.27,12.79-7.13,1.11-14.33,1.73-21.5,2.51-.56-10.15-1.15-20.27-2.05-30.34-7.4-92.08-12.49-184.38-32.2-275.08-4.01-17.99-7.88-35.98-12.75-53.74-1.32-4.62-5.5-7.71-10.05-8.34-3.66-29.48-5.68-59.22-6.62-89.01.81-82.22-4.05-164.65,15.82-245.39,2.49-9.49,10.74-18.7.19-26.6-5.7-3.89-13.04-2.17-17.07,3.18-15.13,32.6-16.7,70.23-20.62,105.56-1.75,21.27-2.19,42.54-2.34,63.89-1.5,72.65-1.82,145.6,9.93,217.52-3.47,112.1-.48,224.31,4.56,336.32,2.09,70.41,10.26,140.25,7.17,210.81-.42,3.87-4.37,4.99-7.35,6.6-1.04.52-1.96,1.17-2.74,1.96-47.51,20.46-100.65,27.5-151.61,35.31-55.73,7.14-109.86,11.07-166.97,7.63-6.58-.46-11.49-.82-18.2-2.53-.65-.56-1.4-1.07-2.22-1.55-19.2-12.66-29.55-33.79-42.94-51.65-.5-15.44-3.45-30.63-6.46-45.8-4.74-26.12-9.26-52.32-12.64-78.65-11.14-101.84-17.38-204.23-23.09-306.5-.31-6.29-.54-12.6-.69-18.91,4.83-4.87,6.58-14.42,8.25-21.14,4.3-13.62,10.8-27.12,17.03-40.51,23.76-52.59,60.82-98.66,97.12-143.15,47.31-52.76,94.13-108.01,142.77-159.89,21.35-22.94,42.6-44.13,66.26-64.98,8.15-7.38,18.57-17.41,15.21-29.54-8.48-18.18-24.59-32.22-40.54-43.88,21.67-1.4,44.86-4.16,63.79-15.38,12.98-10.7,4.85-32.14,4.66-46.8ZM389.8,192.86c28.63-61.76,72.9-118.22,135-148.64,50.82-27.48,114.15-24.8,166.76-3.59,32.57,14.65,52.82,45.49,68.81,76.1,12.68,25.2,25.49,50.8,31.86,78.44,6.48,31.82,10.36,64.23,12.54,96.62-21.94,8.69-45.89,9.59-69.24,9.86-11.95-.21-30.15-1.13-26.77,16.28,5.02,11.12,19.89,16.19,29.34,23.26,13.67,8.9,26.31,19.7,35.83,33.03-56.71,51.19-107.8,108.01-157.63,165.88-43.5,48.5-87.3,96.95-123.7,151.17-14.69,20.5-26.64,42.69-37.26,65.52,3.05-25.2,8.61-50.04,17.91-74.07,11.18-33.47,20.69-67.43,40.35-97.64,3.47-2.26,5.91-6.39,6.83-10.7,24.68-48.87,47.52-98.62,71.65-147.75,23.36-47.26,47.93-93.96,70.71-141.46,16.49-35.16,33.75-70.65,41.35-108.99,6.27-37.38,11.95-86.11-22.59-111.53-25.91-18.28-59.03-22.11-90.33-22.11-3.59,0-7.15.06-10.66.13-40.76,3.41-75.6,33.2-94.23,68.41-18.8,34.96-21.19,75.37-21.46,114.29-2.11,78.31,1.27,156.59,7.75,234.63,1.55,25.24,3.13,50.5,5.73,75.66,1.86,9.67,1.17,34.58,8.8,45.65-8.25,14.13-14.92,29.08-20.64,44.38-15.52-34.2-34.79-66.63-52.2-100.3-24.47-45.55-47.79-91.58-71.33-137.74,15.09-18.3,33.75-33.31,50.13-50.46,6.87-7.67,17.87-13.85,18.99-24.99-1.63-27.77-45.26-23.53-65.21-26.03,11.35-32.34,27.58-62.71,42.9-93.3ZM79.47,842.56c24.63-102.34,47.01-205.27,75.31-306.67,19.18-66.15,37.23-133.43,58.59-199.11,12.5-36.31,22.73-74.57,44.65-106.58,12.85-13.14,32.49-17.43,48.1-26.75,22.15-11.62,44.92-22.17,67.47-33.03-.02.06-.06.1-.08.15-17.09,34.18-35.37,68.07-48.62,103.95-6.9,17.45-7.63,38.24,16.9,35.96,13.35.58,26.83,1.23,39.99,3.57-16.17,15.88-32.6,31.49-48.68,47.47-8.11,8.3-18.47,19.31-14.35,31.86,35.08,71.69,73.19,141.94,110.66,212.41,9.42,17.76,17.99,36.17,25.28,54.91-7.63,22.86-15.61,45.64-20.37,69.31-5.37,25.78-6.37,52.17-6.41,78.42.5,77.29,8.38,154.33,12.93,231.45,4.37,51,7.75,102.15,16.21,152.68,3.95,28.27,11.51,56.06,13.73,84.52-.02.58-.04,1.15-.06,1.75-.11.25-.21.52-.31.79-1.09,2.97-2.05,6.02-3.78,8.73-26.7,39.39-61.85,29.08-102.15,23.15-41.43-8.06-88.68-11.05-121.27-40.83-.59-71.67,10.49-142.88,16.32-214.19,10.91-104.95,15-210.45,10.15-315.87-2.15-106.08-8.53-211.96-16.97-317.7.23-7.56-4.49-14.79-12.54-14.79h-.29c-6.44.15-12.43,5.93-11.95,12.58.27,3.91.67,7.81,1.02,11.72,2.13,25.7,3.55,51.44,5.35,77.16,6.31,78.52,8.92,157.25,10.97,235.97,2.09,56.37,2.65,112.79.35,169.12-3.05,1.4-5.56,4.16-6.52,8.52-7.33,49.39-17.39,98.25-27.46,147.12-14.17-1.23-28.04-4.89-41.83-8.34-40.97-11.09-81.95-24.7-119.6-44.69-3.57-1.98-6.87-3.89-9.55-6.92,11.58-56.21,25.6-112.23,38.8-167.78ZM44.18,1021.51c-.42,1.78-1.09,3.53-2.24,4.99,1.38-2.01,2.21-4.3,2.4-6.58,0,.02,0,.04.02.06-.06.54-.12,1.04-.19,1.55l.02-.02ZM35.36,1037.03c38.13,24.55,135.71,52.97,171.3,57.56-3.66,17.82-7.25,35.63-10.64,53.51-59.53,2.26-120.17-18.09-171.27-48.22,3.01-20.96,6.6-41.93,10.61-62.85Z"/></g></g></g></svg>