<?xml version="1.0" encoding="UTF-8" standalone="no"?><svg xmlns="http://www.w3.org/2000/svg" xmlns:xlink="http://www.w3.org/1999/xlink" contentScriptType="text/ecmascript" fill="#000000" width="681" zoomAndPan="magnify" contentStyleType="text/css" viewBox="0.0 -0.3 680.9 658.6" height="659" data-name="Layer 2" preserveAspectRatio="xMidYMid meet" version="1"><g id="change1_1" data-name="Layer 1"><path d="m235.69,658.32h-.28c-5.53-.28-10.46-.28-15.09-.88-1.74,0-2.91-1.45-2.62-3.17,0-1.47,1.46-2.64,2.91-2.64,4.65.6,9.58.6,14.81.88h.28c1.74,0,2.91,1.45,2.91,2.92,0,1.73-1.16,2.89-2.91,2.89Zm23.8-.6h-.28c-1.46,0-2.61-1.16-2.91-2.61,0-.85.3-1.73.88-2.32.57-.57,1.15-.85,2.03-.85,1.45,0,2.61-.31,3.77-.31h.58c3.49-.28,6.68-.85,10.16-1.16.28-.28.58-.28.86-.28,1.46,0,2.62,1.16,2.62,2.61.28.6,0,1.47-.3,2.04-.58.6-1.16,1.16-2.03,1.16q-.3,0-.3.28h-.58c-3.77.28-6.96.88-9.86,1.16-1.16,0-2.32,0-4.65.28h0Zm-62.4-3.46h-.58s0-.31-.28,0c0,0,0-.31-.3-.31-4.93-.85-9.86-2.01-14.51-3.49-1.45-.28-2.32-2.01-2.03-3.46.58-1.76,2.03-2.64,3.77-2.04,4.65,1.45,9.28,2.61,14.23,3.49h.28c.58.28,1.46.57,1.74,1.16.58.57.58,1.45.58,2.32-.3,1.45-1.45,2.32-2.91,2.32Zm100.72-2.04c-1.46,0-2.62-.88-2.91-2.32-.3-.88,0-1.73.58-2.32.28-.57.86-.88,1.74-1.16,5.51-1.16,10.16-2.04,14.21-3.2h1.16c1.46,0,2.62.88,2.91,2.04.28,1.45-.58,3.2-2.32,3.49h0l-.28.28c-4.37.88-9,2.04-14.51,3.2h-.58Zm37.44-9.86c-1.16,0-2.32-.88-2.62-2.04-.28-.57-.28-1.45,0-2.32.3-.57.88-1.16,1.74-1.16,4.65-1.73,9.3-3.17,13.93-4.93l.3-.28c1.45-.6,3.19.28,3.77,1.73.58,1.45-.3,3.2-1.74,3.77h-.28c-4.07,1.76-8.72,3.49-14.23,5.24h-.86Zm-175.03,0c-.58,0-.86-.31-1.16-.31s-.28,0-.58-.28c-4.93-2.32-9.28-4.93-13.05-7.54-.88-.28-1.16-.88-1.46-1.73,0-.88,0-1.47.58-2.32.88-1.16,2.62-1.47,3.78-.88,4.05,2.61,8.12,4.93,12.77,7.26.28.28.28,0,.28.28,1.46.6,2.03,2.32,1.46,3.77-.58.88-1.46,1.76-2.62,1.76Zm365.44-12.78h-.58c-4.65-.28-9.58-.88-15.09-1.45-1.74-.6-2.62-2.04-2.32-3.49.28-1.45,1.74-2.61,3.19-2.32,4.93.6,9.58,1.16,14.51,1.16h.3l.28.28c1.45,0,2.61,1.16,2.61,2.92,0,1.45-1.45,2.89-2.89,2.89Zm-154.42-1.73c-1.16,0-2.03-.6-2.61-1.76-.3-.57-.3-1.45,0-2.01.28-.88.58-1.47,1.45-1.76,4.35-2.04,8.72-4.34,13.07-6.66v-.31h.28c1.16-.85,3.2-.28,3.78,1.16.86,1.47.28,3.2-1.16,3.77v.31h-.3c-4.35,2.32-8.7,4.65-13.35,6.94-.28.31-.58.31-1.16.31Zm177.92-.6c-1.45,0-2.61-.85-2.89-2.32-.3-.57,0-1.45.28-2.01.58-.6,1.16-1.16,2.03-1.16,4.37-.88,9-2.04,13.93-3.77h.3c1.74-.6,3.19.28,3.77,1.73s-.28,3.2-1.74,3.77c0,0,.3,0-.28,0-.3.28-.58.28-.88.28-4.35,1.47-9.28,2.64-13.93,3.49h-.58Zm-61.52-5.81h-.88l-.58-.28c-4.63-2.01-9.28-4.05-13.63-6.66-1.16-.88-1.74-2.61-.88-4.08.88-1.45,2.62-2.01,4.07-1.16,4.07,2.64,8.42,4.65,12.77,6.69h.3c1.73.57,2.31,2.32,1.73,3.77-.58,1.16-1.45,1.73-2.89,1.73Zm-358.76-1.73c-.86,0-1.45-.57-2.03-1.16,0,0-.28,0-.28-.28-3.49-4.08-6.69-7.85-9.3-12.19-.58-.6-.58-1.45-.28-2.04,0-.88.58-1.45,1.16-2.04,1.16-.85,3.19-.28,4.05,1.16,2.62,4.08,5.51,7.85,8.72,11.34v.28h.28c.58.57.58,1.45.58,2.04,0,.85-.28,1.45-.86,2.01-.58.6-1.16.88-2.04.88Zm456.86-5.22c-1.16,0-2.32-.6-2.61-1.76-.58-.57-.58-1.45-.3-2.01.3-.88.58-1.47,1.45-1.76,3.78-2.04,7.84-4.34,12.49-7.26h0l.3-.28h0c1.45-.88,3.47-.28,4.05.88.58.57.58,1.45.58,2.01-.28.88-.86,1.45-1.45,2.04h0l-.3.28c-4.05,2.61-8.7,5.24-13.05,7.54-.58,0-.88.31-1.16.31Zm-180.83-6.09c-1.16,0-2.04-.6-2.61-1.47-.88-1.16-.58-2.89.86-3.77,4.07-2.89,7.84-5.78,11.61-8.7l.3-.28s.28,0,.28-.28c1.16-.88,2.91-.6,4.07.57.86,1.45.58,3.2-.58,4.05h-.3l.3.31h-.3c-4.63,3.49-8.42,6.38-12.19,8.99-.28.28-.86.6-1.45.6Zm50.21-7.57c-.58,0-1.46-.28-1.74-.85h0c-.28,0-.28-.31-.28-.31-3.49-3.17-6.97-6.66-10.74-11.03-.88-1.16-.88-2.89.58-4.05,1.16-.88,2.91-.88,4.05.28,2.91,3.77,6.39,7.26,9.88,10.46l.28.28h0c1.16,1.16,1.16,2.89.3,4.05-.58.6-1.46,1.16-2.32,1.16Zm162.54-8.11c-.88,0-1.74-.31-2.04-.88-1.16-1.45-.86-3.2.3-4.37,3.49-2.61,6.96-5.78,11.03-9.58v-.28h.3c.86-1.16,2.89-1.16,4.05,0,.3.6.58,1.45.58,2.04,0,.88-.28,1.73-.86,2.32h0c-3.49,3.49-7.26,6.66-11.32,10.15-.58.28-1.16.6-2.03.6Zm-507.94-6.41c-1.16,0-2.32-.85-2.62-2.01v-.31h-.28v-.28c-1.46-4.65-2.61-9.86-3.49-14.8-.28-.88,0-1.45.58-2.04.3-.85,1.16-1.16,1.74-1.16,1.74-.57,3.19.6,3.49,2.32.86,4.93,1.74,9.58,3.19,13.95l.28.28h0c.3,1.73-.57,3.2-2.03,3.77-.28,0-.58.28-.86.28Zm325.07-2.61c-.86,0-1.45-.28-2.03-.85-.58-.6-.88-1.16-.88-2.04s.3-1.45.88-2.04c3.19-3.17,6.96-6.66,10.45-10.43q0-.31.3-.31c.86-1.16,2.89-1.45,4.05-.28s1.16,2.89,0,4.05v.31h-.28l-.3.28c-2.89,3.2-6.09,6.66-10.15,10.46-.58.57-1.16.85-2.04.85Zm-3.47-13.35c-1.16,0-2.04-.57-2.62-1.45h0q0-.28-.28-.28c-2.32-4.65-4.65-9.3-6.39-13.95-.28-.57-.28-1.45,0-2.01.3-.88.88-1.47,1.46-1.76,1.45-.57,3.19.28,3.77,1.76,1.74,4.34,4.07,8.7,6.38,13.04h0c.3.31.3.6.3.6.58,1.16,0,2.89-1.16,3.77-.58.28-.88.28-1.45.28Zm214.2-4.65c-.88,0-1.46-.28-2.04-.85-.58-.6-.86-1.16-.86-2.04,0-.6,0-1.45.58-2.04,3.49-3.77,6.68-7.54,9.58-11.31v-.28h.28c.88-1.16,2.62-1.47,4.07-.6.58.6.86,1.16.86,2.04.3.88,0,1.73-.58,2.32h0s0,.28-.28.28c0,0,0,.28-.3.28-3.19,4.37-6.68,8.14-9.28,11.03-.58.6-1.16,1.16-2.03,1.16Zm-185.18-11.03c-.58,0-1.16-.28-1.74-.57-1.16-1.16-1.46-2.92-.58-4.08,2.89-3.77,5.51-7.54,8.42-12.19,0,0,0-.28.28-.28h0c.88-1.45,2.61-1.73,4.07-.88.58.31.86,1.16,1.16,1.76,0,.88,0,1.73-.58,2.32h0v.28c-2.91,4.65-5.81,8.7-8.72,12.47-.58.6-1.45,1.16-2.31,1.16Zm-355.86-6.66c-1.74,0-3.19-1.45-3.19-2.92v-.57c.28-5.22.58-10.18.86-15.11.3-1.45,1.46-2.61,3.19-2.61.88,0,1.46.6,2.04,1.16.58.6.86,1.16.58,2.04-.3,4.65-.58,9.58-.58,14.51v.57c0,1.47-1.46,2.92-2.91,2.92Zm564.83-13.07c-.58,0-1.16-.28-1.74-.6-.58-.28-.86-1.16-1.16-1.73,0-.88,0-1.45.58-2.32,2.32-3.2,4.93-6.97,8.14-12.19.86-1.16,2.61-1.73,4.05-.88,1.16.88,1.74,2.61.88,4.08-2.91,4.34-5.51,8.42-8.42,12.47-.58.57-1.45,1.16-2.32,1.16Zm-251.36-.88h-.28c-1.16,0-2.32-.88-2.61-2.32,0,0,0-.28-.3-.28-.86-5.22-1.74-10.15-2.03-15.08,0-.88.28-1.76.58-2.32.58-.6,1.45-.88,2.03-.88,1.46-.28,2.91,1.16,3.19,2.61.3,5.22,1.16,9.86,2.04,14.51h0v.6c.28,1.45-.58,2.89-2.32,3.17h-.3Zm62.7-12.47c-.58,0-.86-.28-1.16-.6-.86-.28-1.45-.85-1.45-1.45-.3-.88-.3-1.73,0-2.32,2.03-4.05,4.07-8.42,6.09-13.35v-.28h0c.58-1.45,2.32-2.32,3.77-1.73.88.28,1.46.85,1.74,1.45.28.85.28,1.73,0,2.32v.28h-.28c-1.74,4.37-3.78,8.99-6.11,13.92-.58.88-1.45,1.76-2.61,1.76Zm-371.82-12.19h-.58c-.86-.28-1.45-.6-2.03-1.45-.3-.6-.58-1.47-.3-2.04v-.28h0c1.16-5.53,2.32-10.18,3.49-14.82.3-1.45,2.04-2.3,3.49-2.01.86.28,1.45.57,1.74,1.45.58.57.58,1.45.28,2.04-1.45,5.78-2.32,10.43-3.19,14.51h0c-.28,0-.28.28-.28.28v.28c-.3,1.16-1.46,2.04-2.62,2.04Zm307.09-13.95h-.28c-1.46-.28-2.62-1.45-2.62-3.17v-.31h0c.58-5.22,1.46-10.15,2.62-15.08.28-1.45,1.73-2.61,3.47-2.32,1.46.28,2.62,2.04,2.04,3.49-.88,4.93-1.74,9.86-2.32,14.51v.28c-.3,1.45-1.46,2.61-2.91,2.61Zm78.66-10.43h-.86c-1.46-.31-2.32-2.04-2.04-3.49,1.46-4.65,2.32-9.58,3.2-14.23h0c0-.28.28-.57.28-.57.3-1.47,1.74-2.32,3.19-2.32.88.28,1.46.57,1.74,1.16.58.85.88,1.45.58,2.3v.31h0v.28c-1.16,5.22-2.03,9.86-3.49,14.51-.28,1.16-1.45,2.04-2.61,2.04Zm-375.58-13.07c-.28,0-.58,0-.86-.28-.88-.31-1.46-.88-1.74-1.47-.3-.57-.3-1.45,0-2.01v-.6c1.74-4.65,3.47-9.27,5.22-13.92.3-1.45,2.32-2.32,3.78-1.76.58.31,1.16.88,1.45,1.45.28.88.28,1.47,0,2.32-1.74,4.37-3.19,9.01-4.93,13.95v.28c-.58,1.16-1.74,2.04-2.91,2.04Zm306.79-13.95c-.28,0-.86,0-1.16-.28-1.45-.57-2.03-2.32-1.45-3.77v-.28h.3c2.03-4.65,4.35-9.3,6.68-13.66.86-1.45,2.61-1.73,4.05-1.16,1.46.88,1.74,2.64.88,4.08-2.32,4.34-4.65,8.7-6.39,13.07h0l-.28.28h0c-.58,1.16-1.46,1.73-2.62,1.73Zm74.31-11.31h0c-1.45,0-2.91-1.16-2.91-2.89v-.6c0-4.93-.28-9.58-.86-13.63v-.6c-.28-.57,0-1.45.58-2.01.28-.6.86-.88,1.74-1.16,1.45-.31,3.19.85,3.19,2.32l.3.28h0v.88c.58,4.05.86,8.7.86,13.92v.6c0,1.73-1.16,2.89-2.91,2.89Zm-366.87-11.03c-.58,0-.88,0-1.16-.28-.58-.31-1.16-.6-1.46-1.47-.28-.57-.28-1.45,0-2.32v-.28c2.32-5.22,4.35-9.58,6.39-13.63.58-1.45,2.32-2.04,3.77-1.45.58.28,1.16.85,1.45,1.73.3.6.3,1.45,0,2.32-2.61,5.22-4.63,9.58-6.38,13.35v.6c-.58.85-1.46,1.45-2.61,1.45Zm312.89-10.74c-.58,0-1.45-.28-1.74-.6-.58-.57-1.16-1.13-1.16-2.01,0-.6.3-1.45.58-2.04h0l.3-.28c3.47-4.37,6.96-8.14,10.45-11.31,1.16-.88,3.19-.88,4.35.28.88,1.45.88,3.17-.28,4.05-3.49,2.92-6.68,6.69-9.88,10.74h-.28c-.58.88-1.46,1.16-2.32,1.16Zm44.4-15.11c-.86,0-1.45-.28-2.03-.85-3.19-3.77-6.68-5.24-10.74-5.24h-.28c-1.74,0-3.19-1.45-3.19-2.89,0-.88.28-1.73.86-2.04.58-.57,1.16-1.16,2.03-1.16h.58c5.51,0,11.04,2.64,15.09,7.57.88,1.16.88,2.89-.28,4.05-.58.28-1.16.57-2.04.57Zm-340.47-9.27c-.58,0-1.16,0-1.45-.28-.86-.31-1.16-.88-1.45-1.47-.3-.85-.3-1.73.28-2.32v-.28h0q0-.28.3-.28v-.28c2.03-4.08,4.35-8.42,6.68-12.78.86-1.45,2.61-2.04,4.05-1.16,1.46.88,1.74,2.61,1.16,4.08-2.32,4.05-4.63,8.42-6.96,13.04,0,0,0,.31-.3.31-.28.85-1.45,1.45-2.32,1.45Zm18.3-33.96c-.3,0-.88-.31-1.46-.31-1.16-.85-1.74-2.61-.86-4.05h0v-.28q.28-.28.28-.6c2.62-4.05,5.23-8.42,7.26-12.47.88-1.16,2.62-1.73,4.07-.88.58.31,1.16.88,1.45,1.76,0,.57,0,1.45-.28,2.32-2.61,4.05-4.93,7.82-7.26,11.9l-.3.85-.28.31c-.58.85-1.45,1.45-2.61,1.45Zm20.03-33.39c-.3,0-.88,0-1.46-.28-.58-.6-1.16-1.16-1.16-1.76-.28-.85,0-1.73.3-2.3h0q0-.31.28-.31c1.16-2.01,2.32-3.77,3.49-5.5,1.46-2.32,2.91-4.65,4.35-7.26.88-1.16,2.91-1.45,4.07-.88,1.45,1.16,1.74,2.89.88,4.05-2.91,4.37-5.53,8.73-7.84,12.78h-.3v.28c-.58.88-1.45,1.16-2.61,1.16Zm21.19-32.51c-.58,0-1.16-.28-1.46-.57-1.45-.88-1.73-2.61-.86-3.77q0-.31.28-.6c2.62-4.05,5.53-8.14,8.42-12.19.88-1.45,2.62-1.73,4.07-.88,1.16.88,1.45,2.64.58,4.08-2.91,4.05-5.51,8.11-8.42,12.19v.57h-.28c-.3.6-1.16,1.16-2.32,1.16Zm22.05-31.92c-.58,0-1.16-.28-1.74-.6-.58-.57-.86-1.16-1.16-2.01,0-.6,0-1.47.58-2.04h0v-.28h.3c.28-.6.86-1.45,1.16-2.04l.86-.88c0-.28,1.16-1.73,2.91-4.34.88-1.16,2.32-2.92,3.49-4.93.86-1.47,2.91-1.76,4.07-.88,1.45.88,1.73,2.61.86,4.05-3.77,5.53-6.39,9.01-6.68,9.58-.58.6-.86,1.16-1.45,1.76l-.58.85h0v.31s-.3,0-.3.28c-.58.57-1.45,1.16-2.32,1.16Zm-190.41-2.61c-1.45,0-2.61-.88-2.89-2.32,0-.88,0-1.76.58-2.32.58-.6,1.15-.88,2.03-1.16,4.07-.6,8.7-1.76,13.93-3.49h.28c1.46-.57,3.2.28,3.49,1.73.58,1.47-.28,3.2-1.74,3.8h-.28c-6.09,2.01-10.74,3.17-14.81,3.77h-.58Zm-22.93-2.61c-.57,0-1.15,0-1.45-.31,0,0-.28,0-.28-.28-4.65-2.61-8.42-6.38-11.32-11.9-.3-.57-.3-1.45,0-2.01,0-.88.58-1.47,1.45-1.76,1.16-.88,2.91-.28,3.78,1.16,2.31,4.37,5.22,7.54,8.99,9.58l.3.28c1.16.6,1.74,2.32,1.16,3.77-.58.88-1.74,1.47-2.62,1.47Zm59.51-10.18c-1.16,0-2.03-.88-2.61-1.73-.3-.6-.3-1.47-.3-2.32.3-.6.88-1.16,1.45-1.76,4.65-2.01,9-4.34,13.07-6.66l.3-.28c1.45-.88,3.19-.31,4.05,1.16.88,1.45.3,3.17-1.16,3.77q0,.28-.28.28l-.3.28c-3.77,2.04-7.84,4.37-13.05,6.69-.3.28-.88.57-1.16.57Zm176.18-16.84c-.58,0-1.16-.28-1.74-.57-.58-.31-.86-.88-1.16-1.76,0-.85,0-1.45.58-2.32h0s0-.28.3-.28c.86-1.45,1.74-2.89,2.91-4.34,1.74-2.64,3.47-5.24,5.22-7.85.88-1.45,2.91-1.73,4.07-.88,1.45.88,1.74,2.61.86,4.08-2.89,4.34-5.8,8.42-8.4,12.47,0,0-.3,0-.3.28-.58.6-1.45,1.16-2.32,1.16Zm-142.5-2.89c-1.16,0-2.04-.6-2.62-1.16-.28-.88-.58-1.45-.28-2.32.28-.88.58-1.45,1.16-1.76,4.05-2.61,8.12-5.22,12.47-8.39,0,0,0-.31.3,0v-.31c1.16-.85,3.19-.28,4.07.88.86,1.16.57,3.2-.88,4.05h0l-.28.31c-4.37,2.89-8.42,5.78-12.49,8.42-.3.28-.86.28-1.45.28Zm-108.56-3.77c-1.45,0-2.91-1.16-2.91-2.92v-2.89c0-3.49.3-7.26.58-11.03v-1.76c.3-1.45,1.46-2.32,3.19-2.32.88,0,1.46.31,2.04.88.58.6.86,1.45.58,2.04v1.73c-.3,3.2-.58,6.69-.58,10.46v2.89c0,.6-.3,1.45-.58,2.04-.58.57-1.46.88-2.03.88h-.3Zm140.48-18.59c-1.16,0-1.74-.28-2.31-1.16-.58-.57-.88-1.45-.58-2.01,0-.88.28-1.47,1.15-2.04,4.07-3.2,8.14-6.09,11.62-8.99h.28v-.31c1.46-.85,3.19-.57,4.07.6,1.16,1.16.86,2.89-.3,4.05-.28,0-.28.28-.58.28-3.19,2.64-6.96,5.53-11.61,9.01-.58.28-1.16.57-1.74.57Zm132.07-7.26c-.58,0-1.16,0-1.46-.28-1.45-.88-1.74-2.61-.86-4.05l.28-.31q0-.28.3-.28c1.74-3.17,3.77-6.38,5.8-9.58l2.04-2.61c.58-1.45,2.61-1.73,3.77-.88.88.31,1.16,1.16,1.45,1.76,0,.88,0,1.45-.57,2.04-2.62,4.34-5.23,8.7-8.14,12.76,0,0,0,.28-.28.28-.3.88-1.16,1.16-2.32,1.16ZM8.14,191.59s-.3,0-.58-.28c-.88,0-1.46-.6-1.74-1.16-.3-.6-.58-1.45-.3-2.32v-.28c1.74-5.24,3.2-9.89,5.23-14.23.58-1.45,2.32-2.32,3.77-1.76,1.46.6,2.04,2.32,1.46,3.8-1.46,4.05-3.2,8.42-4.65,13.63v.28q-.3,0-.3.28h0c-.57,1.16-1.45,2.04-2.89,2.04Zm165.73-4.37c-.88,0-1.74-.28-2.32-.85-.88-1.47-.88-3.2.58-4.08,3.19-2.89,6.38-5.22,9.28-7.82l2.04-1.76.28-.28h0c1.16-1.16,3.19-.88,4.07.28,1.16,1.16.86,2.92-.3,4.08h0v.28h-.28c-3.19,2.89-6.97,5.81-11.61,9.58-.3.28-1.16.57-1.74.57Zm122.48-15.96c-.58,0-.86,0-1.45-.28-.58-.6-1.16-1.16-1.16-1.73-.28-.88-.28-1.76.28-2.32v-.31c2.32-3.77,4.65-7.54,6.97-11.31l.86-1.45c.88-1.45,2.62-1.76,4.07-.88,1.46.6,1.74,2.32.88,3.77-1.74,3.2-3.49,6.09-5.53,9.3l-2.03,3.49-.28.28h0c-.58.88-1.46,1.45-2.62,1.45Zm-92.87-9.27c-.88,0-1.46-.31-2.04-.88-1.16-1.45-1.16-3.2.3-4.37,1.74-1.45,3.19-2.89,4.07-3.49,2.31-2.32,4.63-4.34,6.96-6.38h0s.3,0,.3-.28c1.15-.88,3.19-.88,4.05.28.58.6.88,1.45.58,2.04,0,.85-.28,1.73-.86,2.01h0c0,.31-.3.31-.3.31-2.32,2.01-4.63,4.05-6.96,6.38l-.3.28c-.86.88-2.03,2.04-3.77,3.2-.58.57-1.16.88-2.03.88Zm-179.66-6.12c-.58,0-1.16,0-1.46-.28-1.45-.85-2.03-2.61-1.16-3.77v-.28l.3-.28c2.61-4.93,5.22-9.01,7.54-12.78.88-1.45,2.91-1.73,4.07-.88,1.45.88,1.74,2.64.86,4.08-2.31,3.77-4.93,7.82-7.54,12.47h0c0,.28-.3.28-.3.6-.58.85-1.45,1.13-2.31,1.13Zm292.56-17.97c-.58,0-1.15-.31-1.45-.31-1.45-.85-2.03-2.61-1.16-4.05q0-.28.3-.28c2.31-4.65,4.63-8.7,6.96-13.07.88-1.45,2.61-2.04,4.07-1.16,1.16.57,1.74,2.32,1.16,3.77-2.62,4.93-4.93,9.3-7.26,13.07q0,.28-.3.57h0c-.28.88-1.45,1.47-2.32,1.47Zm-83.87-1.76c-.88,0-1.46-.28-2.04-1.16-.58-.57-.86-1.16-.86-2.01s.58-1.47,1.16-2.04l2.03-1.76c3.19-2.89,6.09-5.22,9-7.82l.3-.28c1.15-1.16,3.19-.88,4.35.28.86,1.16.86,2.89-.3,4.05h-.28q0,.31-.3.31l-2.32,2.01c-2.89,2.61-5.8,4.93-8.7,7.85-.58.28-1.16.57-2.03.57Zm-187.5-12.76c-.58,0-1.16,0-1.74-.6-.58-.28-.88-1.16-1.16-1.73,0-.88.28-1.76.58-2.32h.28v-.28c3.2-4.08,6.39-8.14,9.3-11.62.86-1.16,2.89-1.45,4.05-.6,1.16,1.16,1.46,2.92.3,4.08-2.91,3.77-6.09,7.54-9,11.59,0,.31-.3.31-.3.31-.57.85-1.45,1.16-2.31,1.16Zm217.11-12.5c-.88,0-1.74-.28-2.32-1.16-.88-1.16-.58-2.89.58-4.05,1.16-.88,2.32-1.73,3.49-2.89,2.89-2.32,5.51-4.37,8.12-6.41l.28-.28c1.16-.88,3.2-.57,4.07.6.88,1.13.88,2.89-.58,4.05h0l-.28.28c-3.77,2.92-7.84,6.38-11.32,9.3-.58.28-1.45.57-2.03.57Zm71.98-7.82h-1.16c-1.46-.88-2.04-2.61-1.46-4.08v-.28c2.32-5.22,4.37-9.58,5.53-13.63.57-1.45,2.31-2.32,3.77-1.76,1.45.6,2.32,2.04,1.74,3.8-1.46,3.77-3.2,8.42-5.51,13.92l-.3.6c-.28.85-1.45,1.45-2.61,1.45Zm-264.13-9.3c-.58,0-1.45-.28-2.03-.88-.58-.57-.88-1.16-.88-2.01s.3-1.45.88-2.04q0-.28.28-.28c3.77-4.37,6.97-7.85,10.16-11.03,1.16-1.16,2.91-1.16,4.07,0,1.15,1.16,1.15,2.89,0,4.05-3.78,4.05-6.97,7.26-10.16,10.74q0,.28-.3.28v.28c-.58.31-1.16.88-2.03.88Zm222.92-6.66c-1.16,0-2.04-.6-2.32-1.16-1.16-1.47-.88-3.2.58-4.08,4.35-3.17,8.42-6.09,12.47-8.7h.3c.86-.88,2.91-.57,3.77.6.86,1.45.58,3.17-.86,4.05v.28h-.3c-4.35,2.92-8.12,5.53-11.9,8.42-.58.28-1.15.6-1.73.6Zm33.08-20.04c-1.16,0-2.32-.88-2.61-1.73-.3-.88-.3-1.76,0-2.32.28-.88.86-1.47,1.45-1.47,8.14-3.17,13.65-3.17,17.13-.57.28,0,.28.28.28.28h.3c.58.6.86,1.16.86,2.04s0,1.45-.58,2.04c-1.16,1.16-2.91,1.45-4.07.28h-.28c-1.74-1.45-5.51-1.16-11.32,1.16-.28.28-.86.28-1.16.28Zm-228.72-1.16c-.86,0-1.74-.28-2.03-.88-.58-.57-.88-1.45-.88-2.32,0-.57.3-1.45.88-1.73v-.28q.28,0,.28-.28s.3,0,.3-.31c3.47-3.17,6.96-6.38,10.73-9.86.88-.88,2.91-.88,4.07.28.88,1.16.88,3.2-.28,4.08-4.37,4.05-7.84,7.26-10.74,10.15-.3,0-.3.28-.3.28h0c-.58.6-1.45.88-2.03.88Zm28.74-26.13c-.88,0-1.46-.28-2.04-1.13-1.16-1.16-.86-2.92.3-4.08h0l.28-.28c1.46-1.16,2.61-2.32,4.07-3.49,2.61-2.04,4.93-4.05,7.26-6.09,1.16-.88,3.19-.88,4.07.57,1.16,1.16.86,2.92-.3,4.08-3.77,3.17-7.54,6.38-11.32,9.58h-.28v.28c-.58.28-1.16.57-2.03.57Zm30.17-24.66c-.86,0-1.73-.57-2.31-1.16-.3-.57-.58-1.45-.58-2.04.28-.85.58-1.45,1.16-2.01h.28v-.28c3.19-2.32,6.09-4.65,8.7-6.69,1.16-.88,2.04-1.73,3.2-2.32,1.16-.88,2.91-.88,4.05.6.3.57.58,1.16.58,2.01-.28.88-.58,1.45-1.15,2.04l-.88.57c-2.91,2.32-6.68,5.24-11.03,8.42h0s0,.31-.3.31c-.28.28-.86.57-1.74.57Z"/></g></svg>