<?xml version="1.0" encoding="UTF-8" standalone="no"?><svg xmlns="http://www.w3.org/2000/svg" xmlns:xlink="http://www.w3.org/1999/xlink" contentScriptType="text/ecmascript" fill="#000000" width="1310" zoomAndPan="magnify" contentStyleType="text/css" viewBox="-6.5 -10.4 1310.3 989.6" height="990" preserveAspectRatio="xMidYMid meet" version="1"><g data-name="Layer_1"><g><g id="change1_1"><path fill="#244668" d="M726,236.79c9.19-8.77,18.69-17.85,26.01-28.87.1-.14.19-.29.27-.43,20.25-34.23,25.67-69.76,15.66-102.75-10.19-33.59-36.24-61.9-73.35-79.71-.16-.07-.32-.15-.48-.21-16.22-6.75-33.73-10.16-52.04-10.16-32.59,0-65.51,10.87-92.88,30.77-29.11,22.34-43.15,45.93-41.73,70.29,1.03,13.56,11.2,25.45,24.71,28.91,2.53.65,5.02.98,7.4.98,20.55,0,27.11-21.64,31.9-37.44,1.87-6.16,3.8-12.54,5.93-15.82.22-.34.42-.69.59-1.05,13.23-27.25,51.98-29.37,63.55-29.37l2.07.02c22.65.02,44.74,10.18,60.6,27.89,15.99,17.85,23.72,41.15,21.24,63.79-2.62,21.43-14.76,43.12-36.06,64.47-3.83,3.81-7.79,7.44-11.99,11.29-11.25,10.3-22.88,20.96-31.37,35.05-15.95,27.26-18.58,60.26-6.88,86.13.19.42.41.82.66,1.21.38.6.55,1.12.48,1.53-.41,2.92.51,5.87,2.51,8.04,1.87,2.02,4.48,3.16,7.22,3.16.2,0,.4,0,.6-.02,3.14-.19,6.29-.29,9.44-.29s6.13.09,9.19.29c.21.01.42.02.62.02,2.61,0,5.13-1.04,6.98-2.91,1.99-2.01,3.03-4.79,2.82-7.62-2.37-32.58,5.93-65.81,22.8-91.2,6.19-9.4,14.62-17.44,23.53-25.96Z"/></g><g id="change1_2"><path fill="#244668" d="M1223.83,943.09l-3.38-2.28c-5.15-3.57-10.29-7.18-15.41-10.79-1.65-1.17-3.85-1.76-5.97-1.76-.89,0-1.76.11-2.58.31-.28,0-.58-.04-.87-.1-.35-.07-.7-.12-1.05-.15-131.71-11.81-264.81-32.78-393.52-53.05-30.44-4.79-60.86-9.58-91.27-14.26-128.94-19.99-260.88-30.86-388.49-41.37-31.59-2.6-63.18-5.2-94.7-7.94-8.52-.78-17.04-1.65-25.55-2.51-12.23-1.24-24.87-2.53-37.42-3.54l-1.9-.13c-1.66-.1-4.43-.27-4.95-.59l-.5-.5c-1.89-1.89-4.41-2.88-6.95-2.88-1.69,0-3.39.43-4.92,1.33-8.08,4.69-15.34,8.73-22.19,12.36-3.8,2.01-5.85,6.27-5.05,10.5.8,4.23,4.26,7.44,8.53,7.94,0,0,29.53,3.37,36.95,4.24l78,9.11c39.94,4.7,79.91,9.35,119.87,14,0,0,235.97,27.51,259.34,30.24,27.96,3.27,55.92,6.54,83.88,9.78,28.75,3.33,57.49,6.7,86.23,10.06l67.52,7.89c38.27,4.44,76.52,8.91,114.77,13.39l244.9,28.57c.38.05.77.07,1.15.07,4.05,0,7.74-2.51,9.19-6.38,1.58-4.23.08-9-3.66-11.55Z"/></g><g id="change2_1"><path fill="#443a39" d="M1193.73,794.4l-1.59-1.33c-47.77-37.77-101.77-66.72-153.99-94.72-24.64-13.21-50.11-26.86-74.74-41.37-45.91-25.09-85.56-60.81-114.95-103.7-11.67-15.37-22.28-34.21-33.51-54.16-26.13-46.39-55.74-98.97-106.89-115.02-.3-.09-.6-.17-.9-.24-1.25-.27-2.34-1.19-2.53-2.15-.73-3.73-3.54-6.7-7.22-7.64-13.27-3.37-26.51-5.08-39.34-5.08-72.61,0-124.07,52.31-173.84,102.89-8.03,8.16-16.33,16.6-24.52,24.57-73.3,73.03-169.71,117.71-262.95,160.92l-12.24,5.68c-39.31,17.44-89.52,42.43-129.18,81.14-.13.12-.25.25-.37.38-32.94,35.87-45.92,62.53-38.58,79.23,2.27,5.18,8.65,13.87,25.8,13.87,16.34,0,39.38-7.57,68.49-22.51,39.22-20.11,77.15-43.61,113.83-66.34,17.08-10.59,34.75-21.53,52.32-32,59.18-35.81,116.13-66.91,174.07-95.07,61.22-29.61,127.46-57.01,197.08-57.01,1.68,0,3.36.02,5.23.05,57.1.06,106.17,32.13,142.77,60.24,20.36,14.73,40.67,30.33,60.31,45.42,12.2,9.37,24.4,18.74,36.68,27.97,78.24,59.31,169.6,127.92,263.68,191.75,15.21,10.39,30.4,21.07,43.26,30.16,2.83,1.99,5.64,4,8.46,6.01,10.47,7.47,21.28,15.19,32.62,22.06.2.12.41.24.62.34.82.42,1.64.88,2.47,1.34,4.05,2.24,9.06,5.02,15.24,5.18.65.13,1.31.2,1.99.2.87,0,1.75-.12,2.63-.36,2.12-.59,6.32-2.37,8.99-5.36,9.02-9.64,9.02-23.82,9.02-32.31,0-.41-.02-.82-.08-1.22-6.73-53.82-49.98-89.95-88.14-121.82Z"/></g><g id="change3_1"><path fill="#231615" d="M970.07,643.86c-27.02-15.86-53.16-33.5-74.76-56.42-24.66-25.91-46.87-58.25-64.56-90.37-24.43-41.85-48.58-87.76-90.37-114.77-2.92-13.79-32.07-20.33-44.44-23.72-.35-.09-.7-.15-1.05-.23-3.49-31.47,3.72-65.46,22.53-91.09,14.75-18.8,35.54-32.32,47.91-53.03,16.82-29.77,26.62-64.65,20.73-98.85-10.57-54.76-57.79-101.03-112.22-112.1-64.71-13.71-141.12,16.24-173.03,75.45-13.96,25.34-10.91,62.5,17.49,76.22,12.64,6.21,29.59,8.51,41.81-.06,12.75-8.69,19.2-23.01,23.67-37.28,4.33-11.64,7.06-26.12,19.24-32.16,71.88-35.92,142.17,42.04,89.62,106.65-15.9,21.23-39.2,35.58-54.39,57.34-21.42,30.5-28.89,74.41-11.55,108.29-17.11,3.4-33.79,9.22-49.44,16.92-48.04,25.83-83.56,68.74-122.4,106.02-27.94,28.35-59.76,53.57-93.53,74.82-72.88,46.47-153.24,78.9-230.45,117.07-46.83,25.1-93.19,58.11-119.68,105.27-10.26,18.37-17.74,43.75-2.72,61.62,17.57,18.6,47.71,14.74,80,2.26,1.93,1.68,4.36,2.83,7.06,3.17,37.07,4.64,74.22,8.67,111.33,12.98,51.02,5.96,102.05,11.89,153.07,17.87,51.57,6.04,103.12,12.04,154.7,18.05,51.46,5.98,102.89,12.04,154.35,18.01,51.17,5.93,102.34,11.95,153.53,17.91,50.84,5.93,101.7,11.85,152.57,17.8,49.92,5.85,99.85,11.66,149.79,17.49,40.37,4.7,80.74,9.38,121.11,14.13.42.04.84.06,1.27.06,5.44,0,10.24-4.1,11.62-9.27.26.02.5.08.77.09.5.02.98.04,1.48.04,15.84,0,28.36-13.27,32.58-27.85,10.07-34.2-6.54-70.02-27.43-97.31-76.5-94.92-193.84-140.56-296.2-201.03ZM648.11,346.49c-11.09-24.49-6.96-54.28,6.41-77.12,10.63-17.64,27.43-30.01,41.81-44.34,19.03-19.06,35.54-42.92,38.88-70.23,5.85-53.24-37.88-102.64-91.58-102.68-27.77-.44-61.35,7.9-74.45,34.89-9.49,14.63-9.97,54.41-34.56,48.12-9.22-2.36-16.63-10.55-17.36-20.14-1.52-25.95,18.72-47.03,37.92-61.76,38.34-27.87,90.72-37.82,135.17-19.33,69.14,33.18,93.15,101.57,53.49,168.6-13.5,20.33-36.02,34.31-49.56,54.85-18.69,28.12-26.83,63.57-24.37,97.36-6.64-.41-13.29-.43-19.92-.02.37-2.59-.1-5.4-1.87-8.19ZM1157.76,944.13c-49.16-5.75-98.31-11.47-147.46-17.2-50.56-5.91-101.11-11.83-151.68-17.7-51.25-5.96-102.49-12.01-153.76-17.95-51.34-5.95-102.66-12.01-154.01-17.97-52.47-6.1-104.93-12.26-157.4-18.35-50.56-5.89-101.13-11.76-151.67-17.7-26.01-3.05-51.99-6.06-78-9.11-12.32-1.43-24.65-2.83-36.97-4.25,7.68-4.07,15.25-8.31,22.58-12.56.16.17.28.38.45.54,3.47,3.38,8.55,3.22,13.04,3.57,20.98,1.69,41.87,4.12,62.81,6.04,161.1,13.96,322.64,24.43,482.58,49.23,161.35,24.82,322.7,52.8,485.42,67.39.98.19,1.92.29,2.82.29,1.03,0,1.97-.15,2.88-.37,5.16,3.62,10.3,7.27,15.48,10.86,1.14.75,2.28,1.53,3.42,2.31-20.17-2.35-40.34-4.71-60.51-7.06ZM180.91,792.39c10.44-6.39,19.61-12,26.8-15.92,45.76-28.12,91.25-56.79,138.18-82.97,58.65-32.55,118.54-64.4,181.12-88.95,60.14-22.98,129.88-37,191.52-10.66,61.62,30.8,113.02,78.31,168.49,118.51,86.07,65.19,172.69,129.88,262.06,190.48,3.27,2.25,6.51,4.55,9.77,6.81-69.53-7.54-139.12-14.66-208.21-26.07-104.14-15.28-209.07-34.27-313.69-47.58-144.95-20.12-291.23-27.41-436.78-41.73-6.43-.65-12.84-1.3-19.26-1.91ZM1265.65,943.17c-.82.98-2.95,2.11-4.35,2.49.08-.08.04-.1-.02-.12.54,0,.98-.29,1.53-.48-6.12,1.69-11.47-2.36-16.72-5.04-14-8.48-27.18-18.28-40.51-27.69-14.4-10.16-28.83-20.29-43.38-30.25-89.81-60.91-176.83-125.93-263.31-191.46-32.47-24.41-64.25-49.69-97.14-73.51-43.15-33.14-92.56-62.04-148.52-62.1-72.9-1.4-142,26.7-206.59,57.94-60.36,29.32-117.03,60.51-174.89,95.51-55.1,32.81-108.46,68.74-165.55,98-86.78,44.53-109.89,16.53-43.98-55.22,35.98-35.12,80.7-58.95,126.29-79.19,98.27-45.63,200.36-91.12,278.15-168.62,64.13-62.45,127.33-145.47,228.34-119.83.94,4.91,5.06,8.8,10.13,9.88,67.83,21.29,95.4,112.89,135.5,165.74,30.36,44.3,70.96,80.65,118.06,106.39,75.97,44.74,157.8,80.19,227.36,135.17,36.84,30.8,79.73,66.05,86.07,116.67,0,8.29-.23,19.16-6.48,25.72Z"/></g></g></g></svg>