<?xml version="1.0" encoding="UTF-8" standalone="no"?><svg xmlns="http://www.w3.org/2000/svg" xmlns:xlink="http://www.w3.org/1999/xlink" contentScriptType="text/ecmascript" fill="#000000" width="781" zoomAndPan="magnify" contentStyleType="text/css" viewBox="-0.3 0.0 780.5 785.1" height="785" data-name="Layer 2" preserveAspectRatio="xMidYMid meet" version="1"><g id="change1_1" data-name="Layer 1"><path d="m743.06,785.13h0c-5.24-.28-10.18-.86-15.11-1.74h-.57c-.6-.28-1.45-.58-1.76-1.45-.57-.58-.57-1.16-.57-2.04.28-1.45,1.73-2.61,3.49-2.31h.28c5.22.86,9.86,1.45,14.51,1.74.88,0,1.45.28,2.04.86.57.58.57,1.45.57,2.32,0,1.45-1.45,2.61-2.89,2.61Zm23.78-.28c-1.73,0-2.89-1.16-2.89-2.62-.28-.86,0-1.74.6-2.32.57-.57,1.16-.86,1.73-.86h.57c3.8-.58,6.97-.86,9.89-1.16,1.45-.28,3.17.88,3.17,2.32.31.86,0,1.74-.57,2.32-.28.58-1.16.86-1.76,1.16-3.17.28-6.66.58-10.15,1.16h-.6Zm-61.51-7.84c-.31,0-.88,0-1.16-.3-4.93-1.74-9.3-3.77-13.66-6.38h-.57c-1.16-.88-1.76-2.62-.88-4.07.6-1.16,2.32-1.74,3.77-1.16,0,0,.31,0,.31.28,4.34,2.32,8.7,4.37,13.04,6.11,1.76.58,2.32,2.03,1.76,3.77-.28,1.16-1.45,1.74-2.61,1.74Zm-33.11-20.03c-.57,0-1.45-.3-1.73-.88-4.08-3.19-7.54-6.96-10.74-11.03h0l-.28-.3c-.88-1.16-.88-3.19.57-4.05,1.16-.88,2.92-.88,4.08.58h.28q0,.28.28.58c2.89,3.47,6.09,6.96,9.58,10.15,1.16.88,1.16,2.62.28,3.78-.57.86-1.45,1.16-2.32,1.16Zm-22.93-31.07c-1.16,0-2.32-.58-2.61-1.74-2.32-4.93-4.05-9.58-5.22-14.51v-.28c-.28-.88,0-1.74.28-2.32.6-.58,1.16-1.16,1.73-1.16,1.47-.58,3.2.58,3.49,2.03h0l.31.3c.85,4.35,2.61,9,4.62,13.63.31.58.31,1.46,0,2.32-.28.58-.57,1.16-1.45,1.46-.28.28-.85.28-1.16.28Zm-25.82-9c-2.04,0-3.77,0-5.53-.28h-.28c-.88,0-1.45-.3-2.04-.88-.57-.58-.57-1.16-.57-2.03,0-1.45,1.16-2.61,2.89-2.61h.6c4.65.28,9.3,0,14.23-.58,1.73,0,3.17,1.16,3.17,2.61,0,.88,0,1.45-.57,2.03-.28.88-1.16,1.16-1.76,1.16-3.49.3-6.94.58-10.15.58Zm-28.74-4.35c-.28,0-.57-.28-.88-.28-4.62-1.46-9.27-3.2-14.2-5.51h0l-.31-.3h0c-1.45-.58-2.01-2.32-1.45-3.77.6-1.46,2.61-2.04,4.08-1.46,0,0,0,.3.28.3,4.65,2.03,8.99,3.77,13.35,5.23,1.45.57,2.32,2.03,2.04,3.77-.6,1.16-1.76,2.03-2.92,2.03Zm61.25-1.74c-1.16,0-2.32-.86-2.61-2.03-.31-.58-.31-1.46,0-2.03.28-.88.85-1.46,1.45-1.74h.28c4.93-2.04,9.3-4.07,12.78-6.68,1.45-.58,3.17-.3,4.05.86.88,1.45.57,3.19-.88,4.07-4.34,2.91-8.99,5.22-13.63,6.96v.3h-.57c-.31,0-.6.28-.88.28Zm-95.78-15.96c-.6,0-1.16-.3-1.47-.58-1.16-.88-2.01-1.46-2.89-2.03-3.2-2.62-6.38-4.95-8.99-7.55h-.31v-.28c-1.16-1.16-1.45-2.91-.28-4.07.88-1.16,2.89-1.16,4.05-.3v.58-.28h.31c2.61,2.32,5.5,4.65,8.7,7.26.57.58,1.45.86,2.04,1.45l.57.58c.6.3,1.16.88,1.16,1.74.28.58,0,1.45-.28,2.03-.6.88-1.76,1.46-2.61,1.46Zm127.13-6.39c-.6,0-1.45-.28-2.04-.86-.57-.3-.88-1.16-.88-1.74-.28-.86,0-1.45.6-2.03v-.3s.28,0,.28-.28l.28-.3c2.92-3.77,4.93-7.84,5.81-11.61.28-1.45,2.04-2.32,3.49-2.03,1.45.28,2.61,1.73,2.04,3.47-.88,4.37-3.2,9.3-7.26,14.23,0,0,0,.28-.31.28-.28.58-1.16,1.16-2.01,1.16Zm-44.42-.28h-.57c-1.47-.3-2.64-1.74-2.32-3.49.85-5.51,2.61-10.45,5.22-14.8h0s0-.3.28-.3v-.28c.6-1.16,2.32-1.74,3.77-.88.88.3,1.16,1.16,1.45,1.74.31.86,0,1.74-.28,2.32-.28.28-.28,0-.28.28h0c-2.04,3.49-3.77,7.84-4.37,12.77-.28,1.46-1.45,2.62-2.89,2.62Zm-110.29-20.61c-.88,0-1.76-.3-2.32-1.16-2.92-4.07-5.53-8.42-7.85-13.07l-.28-.28c-.28-.88-.28-1.74,0-2.32.28-.88.6-1.46,1.45-1.74,1.47-.58,3.2,0,3.77,1.45h.31v.3c2.01,4.07,4.65,8.42,7.54,12.49.88,1.15.57,2.89-.88,3.77-.28.58-1.16.58-1.73.58Zm133.79-7.26c-1.16,0-2.3-.88-2.61-2.04-.57-1.74.31-3.19,2.04-3.77,1.45-.28,2.89-.58,4.37-.86,4.05-.58,8.42-.58,11.31-.3h.28c1.76.3,2.92,1.74,2.61,3.19,0,1.74-1.16,2.91-3.17,2.62.28,0-.31,0-.31,0-2.61-.3-6.09-.3-9.86.28-1.45.3-2.61.58-3.77.88h-.88Zm-149.18-27.86c-1.45,0-2.61-1.16-2.89-2.32-1.16-5.23-1.76-10.16-2.04-15.09h0v-.88c.28-1.45,1.45-2.61,2.89-2.61h0c1.47,0,2.92,1.16,2.92,2.61v.3c.28,5.23.88,9.86,2.01,14.51.31,1.45-.85,2.91-2.3,3.49h-.6Zm9.58-34.25c-2.89,0-5.81-.28-8.99-.86h-.31c-1.73-.3-2.89-1.74-2.61-3.2,0-.28,0-.58.28-.86-1.16-.58-1.73-1.74-1.45-2.91.6-4.65,1.45-9.58,2.92-14.8h0c0-.3.28-.3.28-.3v-.28c.57-1.46,2.04-2.32,3.49-2.04,1.45.58,2.32,2.04,2.01,3.49h0v.58c-1.45,4.93-2.32,9.58-3.17,14.21v.58c4.34.58,8.99.58,13.35,0,1.73-.28,2.89.88,3.17,2.62.31,1.45-.85,2.91-2.3,3.19-2.64.3-4.96.58-6.69.58Zm-31.35-7.54c-.57,0-.88-.3-1.16-.3-4.34-2.03-8.7-4.35-13.63-6.96l-.28-.3c-1.47-.86-1.76-2.61-1.16-3.77.85-1.46,2.89-2.04,4.05-1.16h.28v.28c4.37,2.62,8.7,4.65,13.07,6.68.6.3,1.16.88,1.45,1.46s.28,1.45,0,2.32c-.57.86-1.45,1.74-2.61,1.74Zm59.5-1.16c-1.16,0-2.01-.58-2.61-1.46-.88-1.16-.28-2.91.88-3.77,0-.3.28-.3.28-.3,3.77-2.61,7.54-5.8,10.74-9.28,1.16-1.16,2.89-1.16,4.05-.28.6.58.88,1.16.88,2.03.28.86,0,1.45-.57,2.03-3.49,4.07-7.57,7.26-11.62,10.46-.28,0-.6,0-.88.28-.28.3-.85.3-1.16.3Zm-92.89-19.16c-.57,0-1.13,0-1.73-.58-4.05-2.91-7.82-6.09-11.62-9.28h-.28v-.3c-1.16-.86-1.45-2.91-.28-4.07.88-1.16,2.89-1.45,4.05-.28h0l.31.28c3.17,2.62,6.66,5.53,11.59,9,.6.58.88,1.16.88,2.04.28.58,0,1.45-.6,2.03-.57.86-1.45,1.16-2.32,1.16Zm117.86-10.16c-.6,0-.88,0-1.45-.28-1.45-.88-2.04-2.62-1.16-4.07h0l.28-.3c2.04-4.05,4.37-8.4,6.09-13.05.6-1.46,2.61-2.04,4.05-1.46,1.47.58,2.04,2.32,1.47,3.78-2.04,4.63-4.08,9.28-6.69,13.35.28,0,0,.28,0,.28,0,0,0,.3-.28.58-.6.58-1.45,1.16-2.32,1.16Zm-52.24-3.49c-.6,0-.88-.28-1.16-.28-1.45-.88-2.32-2.61-1.45-4.07,2.01-4.35,4.05-8.7,6.66-13.35h0v-.28h.28v-.3c.88-1.16,2.61-1.74,3.77-.86,1.47.86,2.04,2.61,1.16,3.77v.58c-2.89,4.93-4.93,9-6.66,13.05-.6.88-1.45,1.74-2.61,1.74Zm-94.93-11.61c-.85,0-1.45-.28-2.01-.58-3.49-3.19-6.97-6.68-10.74-10.74h-.31s0-.28-.28-.28c-.88-1.16-.88-2.91.28-4.07,1.16-.86,2.92-.86,4.08,0l.28.3c3.2,3.47,6.97,6.96,10.46,10.45.57.58.85,1.16,1.16,2.03,0,.88-.31,1.46-.88,2.04-.6.58-1.45.86-2.04.86Zm161.68-20.89h-.88c-1.45-.58-2.32-2.04-2.01-3.49v-.58c1.73-5.51,2.61-10.16,3.17-13.93,0-1.74,1.45-2.61,3.2-2.61,1.45.28,2.61,1.45,2.61,3.19-.6,4.07-1.73,9.28-3.2,14.8v.58l-.28.3c-.28,1.16-1.45,1.74-2.61,1.74Zm-47.31-1.16c-.6,0-1.16-.3-1.76-.58-1.16-.88-1.45-2.91-.57-4.07,3.49-4.65,6.66-8.42,9.86-11.61v-.3h.28c.88-1.16,2.92-1.16,4.08-.28,1.16,1.16,1.16,3.19,0,4.07v.28q-.31.3-.6.3c-2.89,3.47-5.81,7.26-8.99,11.03-.6.86-1.45,1.16-2.32,1.16Zm-141.64-5.81c-.88,0-1.76-.28-2.32-.86-3.2-3.49-6.41-7.26-9.86-11.04-.31,0-.31-.28-.31-.28h0c-.57-.58-.85-1.45-.85-2.03.28-.88.57-1.46,1.16-2.04,1.16-1.16,3.17-.86,4.05.3,0,0,.28,0,.28.28,3.77,4.35,6.97,7.84,9.86,11.03,1.16,1.16,1.16,2.91,0,4.07-.57.3-1.45.58-2.01.58Zm169.22-21.47c-1.16,0-2.04-.58-2.64-1.46-.28-.58-.28-1.16-.28-2.03.28-.88.6-1.46,1.45-1.74,5.53-3.77,10.74-5.81,15.11-5.81h.57c1.47,0,2.92,1.46,2.92,2.91-.28,1.74-1.45,2.91-3.2,2.91h-.28c-3.2,0-7.26,1.74-12.19,4.65-.28.58-.88.58-1.45.58Zm-195.07-7.55c-.85,0-1.73-.58-2.01-1.16-2.92-3.19-6.09-6.96-9.58-11.61h-.31v-.3c-1.13-1.15-.85-2.89.31-4.05,1.16-.88,3.17-.88,4.05.58l.28.28h.31v.3l.85,1.16c2.92,3.19,5.53,6.68,8.42,9.86.88,1.16.88,3.19-.28,4.07-.57.58-1.16.86-2.04.86Zm-24.38-30.19c-1.16,0-1.73-.58-2.32-1.16l-1.16-1.45c-2.61-3.49-5.5-6.97-8.11-10.45h0l-.31-.3c-.57-.58-.57-1.45-.57-2.03,0-.88.57-1.46,1.16-2.04,1.16-.86,2.89-.58,4.05.58v.3h.28c1.76,2.61,3.8,4.93,5.81,7.26,1.16,1.45,2.04,2.91,3.2,4.35,1.16,1.45.88,3.19-.28,4.07-.6.58-1.16.86-1.76.86Zm-24.09-30.77c-.85,0-1.73-.58-2.32-1.16-1.45-2.31-3.17-4.63-4.93-6.68-1.45-1.74-2.61-3.47-4.05-5.22v-.3h0c-1.16-1.45-.88-3.19.57-4.07,1.16-1.15,2.92-.86,3.77.3l.31.28h0v.3l8.99,11.9c1.16,1.16.88,2.89-.57,4.05-.31.3-.88.58-1.76.58Zm-23.21-31.05c-.88,0-1.73-.58-2.32-1.45-1.16-1.46-2.32-2.62-3.2-4.07-2.01-2.62-3.77-5.23-5.78-7.55v-.28c-.31,0-.31-.3-.31-.3-.85-1.45-.57-3.19.6-4.05,1.16-.88,3.2-.58,4.05.58,0,0,.31.28.31.58,1.13,1.45,2.3,3.19,3.77,4.93,1.73,2.03,3.49,4.35,5.22,6.68.28.86.57,1.45.57,2.32-.28.86-.57,1.45-1.16,2.03-.57.28-1.13.58-1.73.58Zm-23.5-31.35c-.88,0-1.76-.58-2.32-1.16-1.16-1.45-2.32-3.19-3.49-4.65-1.76-2.61-3.49-4.93-5.53-7.26v-.28h0c-1.16-1.16-.85-3.19.28-4.07,1.47-.86,3.2-.58,4.08.58h.28v.3c.88,1.16,2.04,2.32,2.89,3.77,2.04,2.61,4.08,5.23,6.12,8.12,1.13,1.16.85,3.2-.31,4.07-.57.3-1.16.58-2.01.58Zm-23.81-30.77c-.88,0-1.76-.58-2.32-1.16-3.49-4.63-6.97-8.42-9.3-11.31h-.28q0-.3-.28-.3c-.88-1.16-.88-2.91.28-4.07s3.2-.86,4.37.3h0s0,.28.28.28c2.61,3.2,5.81,6.68,9.58,11.62.88,1.15.88,2.89-.6,4.05-.28.3-1.16.58-1.73.58Zm-27.58-27.28c-.28,0-.88,0-1.45-.28-4.37-2.32-8.7-4.65-13.07-6.97,0,0,0-.28-.28-.28h0c-.6-.3-1.16-.88-1.45-1.74-.31-.58,0-1.46.28-2.04.57-1.45,2.61-2.03,4.05-1.16h.31l.28.3c1.16.58,2.61,1.45,3.77,2.03,2.89,1.46,5.81,3.2,8.99,4.93.6.3,1.16.88,1.47,1.46.28.86,0,1.74-.31,2.32-.57.86-1.45,1.45-2.61,1.45Zm-33.96-18.58c-.57,0-1.16,0-1.45-.28-4.37-2.61-8.7-4.93-13.07-7.55h0l-.28-.28c-.6-.3-1.16-1.16-1.16-1.74-.28-.86,0-1.45.28-2.03.88-1.46,2.61-2.04,4.05-1.16l.31.28c3.49,2.04,7.54,4.35,12.76,7.55,1.16.58,1.76,2.32.88,3.77-.6.86-1.45,1.45-2.32,1.45Zm-32.8-20.89c-.6,0-1.16-.3-1.76-.58-4.05-3.49-7.82-6.68-11.03-10.16h-.28v-.28h-.28c-.6-.58-.88-1.46-.88-2.04.28-.86.6-1.45,1.16-2.03.88-1.16,2.92-1.16,4.05,0h0v.28c3.49,3.2,6.97,6.39,11.05,9.58,1.16.88,1.45,2.91.28,4.07-.6.58-1.16,1.16-2.32,1.16Zm-25.82-28.74c-.88,0-1.76-.28-2.32-1.16-2.64-4.35-4.93-8.7-7.26-13.35l-.31-.28c-.28-.88-.28-1.74,0-2.32.31-.86.88-1.45,1.47-1.74,1.45-.58,3.17,0,3.77,1.45.28,0,.28.3.28.3,2.32,4.93,4.65,9,6.97,12.77.85,1.45.28,3.19-.88,4.07-.57.28-1.16.28-1.73.28Zm-15.99-35.12c-1.16,0-2.32-.86-2.61-2.03-1.73-5.23-3.17-9.86-4.34-14.23v-.28h0c-.31,0-.31-.3-.31-.3,0-.58,0-1.45.31-2.03.57-.58,1.16-1.16,1.73-1.45,1.45-.3,3.2.58,3.77,2.03h0v.28h0c1.45,5.23,2.92,9.88,4.37,14.23.28.58.28,1.45,0,2.03-.6.88-1.16,1.46-1.76,1.46-.28.28-.57.28-1.16.28Zm-10.15-37.44c-1.45,0-2.61-.86-2.89-2.03-1.16-4.07-2.32-9-3.49-14.51h0v-.58h0c-.31-.58-.31-1.45.28-2.03.28-.88,1.16-1.16,1.73-1.46,1.76-.28,3.2.88,3.49,2.32v.58h.28c1.16,4.93,2.04,9.58,3.2,14.23.28,1.45-.57,3.19-2.04,3.47h-.57Zm-8.7-37.73c-1.45,0-2.61-1.16-2.92-2.32-.85-4.65-1.73-9-2.89-14.51v-.58c-.28-.58,0-1.45.28-2.03.6-.58,1.16-1.16,2.04-1.16,1.16-.3,2.89.58,3.2,2.03v.3q.28,0,.28.28v.3l.57,3.77c.88,3.49,1.45,6.96,2.32,10.45.28,1.46-.57,2.91-2.32,3.49h-.57Zm-19.16-29.61c-.6,0-1.16,0-1.45-.3-5.24-2.89-9.3-5.22-13.07-7.54l-.28-.3h0c-1.47-.86-1.76-2.61-1.16-4.05.85-1.16,2.89-1.74,4.05-.88q.28.3.6.3c4.34,2.61,8.42,5.22,12.76,7.54,1.16.58,1.76,2.32.88,3.78-.28.86-1.45,1.45-2.32,1.45Zm-32.8-20.61c-.6,0-1.45-.3-1.76-.58-4.62-3.19-8.42-6.39-11.88-9.28l-.31-.3h-.28c-.57-.58-.88-1.16-.88-2.03,0-.58.31-1.46.6-2.04,1.16-1.16,2.89-1.45,4.05-.28h.28v.28c3.49,2.62,6.97,5.51,11.62,9,.57.3,1.16.88,1.16,1.74.28.88,0,1.45-.6,2.32-.28.58-1.13,1.16-2.01,1.16Zm-29.31-25.84c-.6,0-1.47-.28-2.04-.86-3.49-3.78-6.69-7.84-9.58-11.9v-.58c-.6-.58-.6-1.16-.6-2.03.31-.88.6-1.46,1.16-1.74,1.47-.88,3.2-.58,4.37.86v.3c2.32,3.47,5.22,7.26,8.99,11.31.88,1.16.88,2.91-.28,4.07-.57.58-1.16.58-2.01.58ZM5.52,18.86c-1.45,0-2.61-.88-2.89-2.32-.88-4.35-.88-8.12-.88-10.16-.28,0-.6-.28-.88-.58C-.29,4.63-.29,2.91.87,1.74q.28-.3.6-.58c.57-.3.85-.88,2.61-1.16,2.61.28,3.17,2.61,3.17,3.19.31.58.31,1.16.31,1.74v.86c0,2.62,0,5.51.85,9.58.31,1.74-.57,3.19-2.32,3.49h-.57Z"/></g></svg>