<?xml version="1.0" encoding="UTF-8" standalone="no"?><svg xmlns="http://www.w3.org/2000/svg" xmlns:xlink="http://www.w3.org/1999/xlink" contentScriptType="text/ecmascript" fill="#000000" width="1282" zoomAndPan="magnify" contentStyleType="text/css" viewBox="-3.1 -10.8 1282.0 711.5" height="712" preserveAspectRatio="xMidYMid meet" version="1"><g data-name="Layer_1"><g><g id="change1_1"><path fill="#443a39" d="M37.71,550.7c1.3.45,2.59,1.02,3.65,1.48,72.55,34.15,149.37,45.3,208.1,51.18l3.88.42c43.05,4.71,87.57,9.59,131.75,9.64h.12c89.89-1,182.8-17.19,276.43-48.23,58.28-21.2,114.97-48.33,169.8-74.56,15.91-7.61,31.82-15.23,47.82-22.73,32.88-15.65,66-30.83,98.44-45.12,2.44-1.07,4.34-3.1,5.26-5.6.92-2.5.78-5.27-.39-7.67-.13-.26-.23-.53-.34-.89-3.57-10.69-8.71-19.79-15.38-27.17-20.51-21.92-45.37-32.57-76.02-32.57-33.54,0-67.96,12.72-101.25,25.02-15.45,5.71-30.03,11.1-44.14,15.03-15.36,4.89-29.33,7.37-41.53,7.37-24.86,0-42.49-10.06-53.92-30.76-.09-.16-.18-.32-.28-.47-29.14-46.42-76.01-108.14-146.2-108.14-15.11,0-30.77,2.95-46.53,8.78-1.52.56-2.87,1.49-3.95,2.7-1.57,1.78-2.69,2.16-3,2.16,0,0-.26,0-.39,0-3.85,0-7.37,2.26-8.96,5.8-1.54,3.44-4.77,6.49-8.7,10.02-19.17,16.59-39.92,30.68-61.58,41.83-32.12,16.24-67.09,31.7-103.98,45.98-18.21,7.18-36.96,13.53-55.11,19.67-30.53,10.33-62.1,21.02-91.67,35.8-39.17,17.4-70.21,54.51-85.14,101.76-.59,1.82-1.34,3.62-2.31,5.49-1.31,2.53-1.46,5.51-.4,8.16,1.06,2.65,3.21,4.7,5.91,5.63Z"/></g><g id="change1_2"><path fill="#443a39" d="M465.79,257.44c.9,0,1.81-.12,2.7-.38,12.03-3.45,24.03-5.2,35.67-5.2,66.5,0,116.22,57.3,146.26,105.48,12.65,23.32,29.37,34.18,52.59,34.18,12.28,0,25.56-3.1,38.31-6.51,14.78-4.32,29.59-9.69,45.26-15.36,35-12.67,71.19-25.78,105.21-25.78,25.87,0,47.86,7.67,67.24,23.44.18.15.37.29.56.42,7.47,5.25,24.41,25.45,27.03,38.21.6,2.9,2.46,5.37,5.09,6.73,1.42.74,2.97,1.11,4.53,1.11,1.33,0,2.66-.27,3.91-.81,30.49-13.22,61.76-26.27,92.96-38.81,9.93-4.04,19.88-8.06,29.82-12.08,13.38-5.41,26.77-10.83,40.14-16.29,4.61-1.88,9.21-3.79,13.81-5.7,15.35-6.36,31.22-12.95,47.2-18.45l1.35-.49c2.65-.97,5.65-2.06,8.4-2.75,4.92-1.23,8.1-6.01,7.32-11.02-2.29-14.91-1.92-30.91-1.56-46.38.14-6.15.28-12.27.26-17.89,1.12-25.5-1.2-52.6-7.2-83.32l-1.74-7.14c-10-41.37-26.73-110.6-64.12-128.42-12.7-5.96-28.27-8.86-47.6-8.86-56.63,0-131.73,25.36-192.08,45.74-20.17,6.81-37.58,12.69-51.82,16.78-3.64,1.05-6.36,4.1-6.98,7.84-.62,3.74.97,7.5,4.09,9.67,7.49,5.2,16.36,11.29,25.44,17.03,1.61,1.02,3.43,1.52,5.25,1.52,2.35,0,4.68-.84,6.53-2.48.15-.13.32-.24.51-.33,18.38-5.64,37.18-11.14,55.36-16.46l14.09-4.13c40.96-11.81,75.2-20.46,107.55-27.17,2.63-.49,5.27-1.01,7.92-1.52,11.89-2.32,24.19-4.72,35.84-4.72,6.52,0,12.33.73,18.17,2.34,6.84,1.6,13.07,5.67,14.08,8.25.06.15.23.59-.65,1.83-1.65,1.3-2.84,3.1-3.39,5.13-.18.66-.76,1.37-1.45,1.76-.66.37-1.27.82-1.82,1.34-4.09,3.8-8,7.76-11.78,11.58-4.78,4.84-9.3,9.41-14.36,13.89-33.79,31.56-79.58,49.66-125.62,49.66-18.09,0-35.62-2.82-52.11-8.38-36.51-12.38-69.13-35.26-100.68-57.39-13.78-9.66-28.03-19.66-42.9-28.96-5.74-3.25-11.84-7.11-18.3-11.19-23.22-14.69-49.54-31.34-77.08-31.34-9.22,0-18.07,1.92-26.31,5.69-.4.18-.78.39-1.15.62-11.3,7.12-22.39,15.19-33.92,24.65-3.08,2.53-4.32,6.66-3.16,10.47,1.17,3.81,4.52,6.53,8.49,6.9,36.63,3.37,70.7,34.82,99.21,65.17,1.19,1.26,1.03,1.98.76,2.61-.5,1.16-1.67,1.94-2.44,1.94-.5,0-1.05-.38-1.47-.76-18.82-20.48-39.83-41.19-66.19-54.45-10.85-4.97-23.57-10.28-37.32-10.28-2.48,0-4.95.18-7.35.53-.52-.07-.77-.27-.95-.46-1.93-2-4.5-3-7.07-3-2.41,0-4.82.88-6.71,2.65-13.14,12.32-25.61,25.12-40.29,40.56-2.37,2.49-3.26,6.04-2.36,9.35.9,3.32,3.48,5.92,6.78,6.86,16.18,4.61,31.06,11.05,44.41,19.25,17.61,10.31,34.2,24.9,53.75,47.28.44.51.05,1.5-.09,1.79-.48,1.05-1.37,1.76-2.07,1.76,0,0-.4-.06-.59-.08-.58-.06-1.57-.89-2.99-2.63-9.05-10.12-18.35-19.42-27.85-27.81-22.26-18.65-49.63-31.86-79.15-38.21-.69-.15-1.38-.22-2.06-.22-2.66,0-5.24,1.08-7.12,3.05-7.61,8.01-17.67,18.49-28.22,28.83-5.43,5.76-10.97,11.46-16.53,17.11-2.59,2.63-3.49,6.48-2.33,9.98,1.16,3.5,4.18,6.06,7.82,6.62,37.68,5.81,75.04,23.2,108.04,50.28.13.11,2.03,1.51,2.03,1.51,2.66,1.94,9.73,7.1,9.94,9.36,0,0-.06.41-.57,1.11-.44.59-1.34.99-2.2.99-.29,0-.7-.05-1.04-.32-26.31-20.85-52.51-40.35-83.74-49.79-11.68-3.52-25.34-7.41-39.49-9.18-.4-.05-.81-.08-1.22-.08-.97,0-1.95.14-2.88.43-.27.08-.56.13-.84.13-.35,0-1.01-.07-1.56-.52-1.81-1.47-4-2.19-6.18-2.19-2.51,0-5.02.96-6.92,2.85l-3.5,3.47c-11.1,11.01-22.59,22.4-33.67,33.86-.17.17-.33.35-.48.54-2.12,2.54-4.24,5.12-6.27,7.78-2.58,3.36-2.71,8-.33,11.5,1.86,2.73,4.93,4.29,8.12,4.29Z"/></g><g id="change1_3"><path fill="#443a39" d="M1239.21,322.57c-.9,0-1.81.12-2.7.38-17.83,5.1-34.57,12.09-50.76,18.85-6.09,2.54-12.2,5.09-18.48,7.59l-32.47,13.16c-60.48,24.48-123.01,49.79-183.35,77.34-35.4,15.63-70.82,32.64-105.07,49.09-58.8,28.24-119.6,57.44-181.37,80.19-97.41,32.51-192.76,48.99-283.41,48.99h-.02c-7.65,0-15.36-.12-22.57-.34-69.4-4.75-155.77-10.65-235.29-30.66-31.2-7.83-60.62-20.02-85.29-30.91-1.25-.55-2.93-.83-4.3-.83-.61,0-1.25-.21-1.72-.57-1.73-1.3-3.81-1.99-5.92-1.99-.96,0-1.93.14-2.87.43-3.01.92-5.4,3.23-6.42,6.2-6.1,17.78-1.08,38.84,12.94,53.8,61.45,63.07,233.9,72.49,331.23,72.49,4.39,0,8.6-.02,12.6-.06,78.35-.72,161.31-7.86,240.29-20.7,72.31-14.78,143.57-44.08,205.98-84.65,15.48-9.77,29.73-21.53,43.52-32.89,24.82-20.47,48.26-39.81,78.18-48.22,2.03-.61,4.17-1.29,6.41-1.99,11.31-3.57,25.39-8.01,37.15-8.01,5.53,0,9.94.95,13.44,2.9,4.17,4.26,5.76,10.93,7.59,18.6.79,3.32,1.61,6.75,2.69,10.12.08.25.17.49.27.74,5.31,12.86,19.93,12.86,25.44,12.86l2.26-.02s3.67.02,3.78.02c.38,0,.77-.02,1.15-.07,44.14-5.21,91.04-19.7,143.38-44.31,30.59-14.37,54.29-44.68,66.64-85.02,9.42-27.41,7.9-54.89-4.28-77.39-1.75-3.23-5.1-5.14-8.64-5.14Z"/></g><g id="change1_4"><path fill="#443a39" d="M1002.12,513.37c-.98-4.09-1.99-8.32-3.63-12.58-1.42-3.69-4.9-6.17-8.85-6.29-.7-.02-1.42-.04-2.12-.04-15.16,0-29.93,4.81-41.84,8.72-3.84,1.1-6.75,4.47-7.09,8.63-.42,5.09,3.13,9.65,8.16,10.5,8.43,1.41,17.04,3.08,25.35,4.69,6.69,1.3,13.39,2.59,20.1,3.79.57.1,1.15.15,1.72.15,2.73,0,5.37-1.14,7.24-3.19,2.27-2.48,3.11-5.95,2.24-9.2-.46-1.71-.88-3.44-1.29-5.17Z"/></g><g id="change2_1"><path fill="#231615" d="M1257.86,315.87c-1.96-6.9-2.49-14.1-3.13-21.21-1.21-23.21.06-46.39.1-69.6-.73-50.02-12.89-99.61-30.67-146.2-28.13-89.68-100.76-87.24-178.57-68.03-38.72,9.26-76.91,20.75-114.69,33.26-23.01,7.52-46.03,15.04-68.97,22.77-2.84.96-5.25,2.47-6.94,4.93-26.62-17.97-52.99-36.5-81.39-51.61-28.75-16.9-65.21-28-96.3-10.61-44.53,26.91-78.9,67.74-115.57,104.12-35.12,36.9-71.36,72.73-107.15,108.94-12.41,13.83-23.3,29.8-27.56,48.12-42.83,40.79-99.46,61.89-153.07,84.64-64.25,27.6-136.57,39.89-194.22,81.53-30.23,23.49-48.48,57.73-60.72,93.3-4.64,9.88-14.6,16.44-16.86,27.6-5.2,20.2-.9,42.69,11.97,59.2,54.97,69.33,219.48,79.32,304.1,83.14,13.06.38,26.12.56,39.16.56,66.53,0,132.99-4.76,199.04-12.49,40.29-4.47,80.57-10.97,119.1-23.84,39.07-12.66,77.44-27.89,113.31-47.97,34.89-18.66,66.7-42.23,96.97-67.59,7.19-6.27,14.65-12.12,22.5-17.34,3.51,2.74,8.13,2.45,12.39,2.23,29.23,2.67,57.73,10.15,86.73,14.4,3.53.36,6.44-.5,8.63-2.11,26.87,10.28,66.15-4.32,91.37-10.36,64.57-19.81,128-40.41,152.91-109.89,11.49-28.79,18.64-62.33,6.52-92.04-2.36-6.27-6.46-11.7-8.98-17.86ZM471.8,240.16c12.16-12.56,24.61-24.86,37.03-37.19,3.24,2.63,7.6,3.34,11.47,2.15,12.91,1.61,25.45,5.1,37.88,8.84,30.34,9.17,55.96,28.65,80.47,48.08,5.2,4.18,13.25,2.76,17.18-2.47,8.07-11.16-5.01-19.54-13.02-25.47-32.51-26.68-71.13-45.97-112.77-52.4,5.62-5.7,11.2-11.45,16.69-17.26,9.55-9.36,18.89-19.03,28.19-28.81,27.39,5.89,53.39,18.1,74.91,36.13,9.47,8.38,18.39,17.4,26.83,26.83,2.42,2.97,5.33,5.43,9.26,5.85,10.26,1.71,18.1-11.7,11.22-19.66-16.44-18.81-34.52-36.63-56.21-49.33-14.52-8.92-30.32-15.55-46.68-20.21,13.02-13.69,26.16-27.29,39.89-40.16,2.05,2.13,4.97,3.51,8.59,3.49,13.87-2.36,27.58,3.13,40.01,8.82,24.76,12.47,44.74,32.24,63.31,52.45,11.66,11.16,28.33-5.77,17.26-17.47-27.14-28.88-63.94-64.38-105.44-68.2,10.49-8.61,21.4-16.67,32.93-23.94,38.7-17.74,80.36,18.1,112.75,36.46,47.74,29.92,91.27,68.79,145.26,87.11,64.29,21.67,138.49,2.45,187.59-43.4,9.15-8.07,17.2-17.16,26.12-25.45,2.9-1.65,5.18-4.47,6.06-7.71.73-.58,1.38-1.25,1.96-2.01,8.96-13.12-8.23-22.76-19.24-25.33-21.77-6.02-44.34-.21-65.96,3.82-36.54,7.58-72.63,17.05-108.48,27.39-23.32,6.85-46.74,13.62-69.98,20.75-1.5.56-2.74,1.34-3.78,2.26-8.52-5.39-16.86-11.09-25.09-16.8,69.83-20.04,220.29-84.41,284.61-54.2,35.29,16.82,51.53,92.52,60.49,129.02,5.18,26.58,8.11,53.47,6.92,80.55.04,21.84-1.94,44.48,1.4,66.19-3.76.94-7.52,2.38-10.7,3.53-20.83,7.17-41.02,15.98-61.39,24.3-23.3,9.51-46.64,18.89-69.94,28.37-31.22,12.54-62.29,25.51-93.17,38.89-3.32-16.13-22.32-38.17-31.01-44.27-23.09-18.79-47.91-25.64-73.44-25.64-51,0-104.81,27.37-153.24,41.54-34.6,9.24-60.47,12.41-79.65-23.19-44.23-71.06-108.86-128.94-193.13-104.79,1.96-2.55,3.99-5.02,6.02-7.46ZM43.85,534.43c12.93-40.89,39.85-78.06,79.78-95.8,47.03-23.49,97.31-35.96,146.39-55.31,35.63-13.79,70.71-29.11,104.81-46.35,22.8-11.74,44.19-26.39,63.58-43.17,4.41-3.95,8.82-8.04,11.24-13.43,3.39.13,7.17-1.44,10.74-5.47,83.16-30.72,140.31,30.55,181.01,95.38,23.07,41.79,66.53,40.89,107.02,28,66.74-18.55,152.45-72.98,211.25-10.13,6.12,6.77,10.36,14.96,13.23,23.57.23.71.5,1.4.82,2.07-33.12,14.6-66.01,29.69-98.69,45.24-71.65,33.58-142.33,69.85-216.76,96.93-88.3,29.27-179.93,46.6-273.18,47.64-44.96-.06-89.87-5.12-134.58-10.01-70.62-7.08-140.08-19.75-204.98-50.31-1.52-.67-3.07-1.34-4.62-1.88,1.15-2.23,2.15-4.55,2.93-6.98ZM948.38,512.61s.06-.02.08-.02c12.56-4.12,25.68-8.32,39.07-8.32.59,0,1.21.02,1.8.04,2.07,5.39,3.09,11.2,4.6,16.8-15.21-2.7-30.32-5.94-45.55-8.5ZM1242.83,401.91c-10.01,32.7-29.69,64.36-61.53,79.32-44.3,20.83-91.58,37.69-140.35,43.44-1.17-.04-2.45-.02-3.78-.02-7.06.08-15.76.15-18.62-6.77-3.66-11.37-4.28-25.07-13.65-33.58-18.05-11.26-47.01-.12-65.82,5.58-49.21,13.83-82.03,55.66-124.09,82.2-61.56,40.03-130.74,68.62-202.7,83.33-77.64,12.62-159.26,19.77-238.41,20.5-86.99.79-274.79-5.93-336.7-69.47-10.72-11.45-15.84-28.73-10.68-43.77,2.28,1.73,5.14,2.63,7.98,2.55,28.19,12.45,56.92,23.94,86.86,31.45,77.35,19.47,157.63,25.51,237.01,30.94,105.16,3.26,210.24-15.92,309.78-49.14,98.69-36.34,191.19-87.17,287.3-129.61,70.88-32.37,143.38-61.07,215.55-90.39,22.88-9.11,44.46-19.29,68.24-26.1,11.57,21.37,11.55,46.47,3.62,69.52Z"/></g></g></g></svg>