<?xml version="1.0" encoding="UTF-8" standalone="no"?><svg xmlns="http://www.w3.org/2000/svg" xmlns:xlink="http://www.w3.org/1999/xlink" contentScriptType="text/ecmascript" fill="#000000" width="716" zoomAndPan="magnify" contentStyleType="text/css" viewBox="-9.1 0.0 716.3 833.2" height="833" preserveAspectRatio="xMidYMid meet" version="1"><g data-name="Layer_1"><g><g id="change1_1"><path fill="#fff4d4" d="M365.62,610.5c-2.56,2.29-5.21,4.66-7.81,6.41-2.08,1.41-2.84,4.12-1.77,6.39.6,1.3.92,2.87.88,4.45,0,.2,0,.4.02.6,2.07,21.97,3.06,44.46,4.03,66.2,1.04,23.5,2.12,47.8,4.54,71.6,1.3,14.93,2.73,30.83,4.65,46.54.2,1.64,1.18,3.08,2.64,3.87.76.41,1.59.62,2.43.62.77,0,1.54-.17,2.25-.52,27.53-13.54,52.35-21.57,75.92-24.57,5-.69,10.28-1.03,15.68-1.03,21.77,0,43.95,5.57,63.54,10.5,2.05.71,4.15,1.07,6.24,1.07,10.17,0,19.27-8.52,21.26-19.85.65-2.46.75-5.1.84-7.66.07-1.89.14-3.67.41-5.12.26-1.35-.04-2.75-.84-3.88-.79-1.13-2-1.89-3.36-2.11-16.51-2.68-28.59-7.2-38-14.23-4.16-3.56-8.79-8.98-7.58-14.76,1.29-6.13,8.95-12.11,19.52-15.24,2-.59,3.44-2.34,3.63-4.42.19-2.08-.9-4.06-2.75-5.02-1.65-.85-3.32-1.67-4.99-2.5-7.85-3.9-15.27-7.58-20.99-13.36-2.34-2.35-4.8-6.04-3.24-10.29,1.56-4.26,6.55-7.46,12.41-7.96,2.18-.19,4-1.75,4.52-3.87s-.37-4.35-2.22-5.52c-6.96-4.43-8.79-10.82-7.53-15.18,1.36-4.65,5.89-7.32,12.43-7.32h.58c5.61.12,11.25.83,17.25,2.15.36.08.73.12,1.1.12.98,0,1.95-.28,2.78-.82,1.15-.75,1.95-1.92,2.22-3.26.5-2.44.7-4.31.64-6.01l.11-2.15c1.05-21.23,2.25-45.3-7.05-65.93-.71-1.57-2.16-2.68-3.86-2.95-11.3-1.77-22.84-2.66-34.32-2.66-46.54,0-91.32,14.11-126.13,39.75-3.56,2.1-6.88,5.06-10.09,7.93Z"/></g><g id="change1_2"><path fill="#fff4d4" d="M225.36,792.67c6.63-.65,13.45-.98,20.29-.98,38.25,0,78.27,10.55,112.68,29.7.77.43,1.63.65,2.48.65,1,0,2.01-.3,2.87-.88,1.6-1.08,2.44-2.97,2.19-4.89-5.37-41.08-7.57-83.2-9.69-123.93-1.03-19.8-2.1-40.27-3.52-60.4-.05-1.83-.42-3.57-.74-5.1-.23-1.1-.46-2.14-.51-2.98-.1-1.72-1.07-3.27-2.56-4.12-8.81-5.03-17.42-10.99-25.75-16.75-11.38-7.87-23.15-16-35.83-22.18-8.44-4.52-38.44-19.29-70.09-19.29-16.27,0-29.64,4.05-39.74,12.04-.51.4-.93.89-1.25,1.45-4.04,7-4.13,14.86-4.22,22.47-.05,4.16-.09,8.08-.79,11.6-.04.18-.06.37-.08.55-.58,6.81-1.36,13.64-2.24,21.21-.25,2.13-.55,4.25-.85,6.36l-.2,1.46c-.24,1.7.39,3.4,1.67,4.53.95.84,2.15,1.28,3.38,1.28.44,0,.88-.06,1.32-.17,14.65-3.91,27.06-5.9,36.87-5.9,5.95,0,10.98.73,14.94,2.17,4.09,1.93,6.34,4.92,6.88,9.14.87,6.8-3.14,15.73-9.32,20.77-1.55,1.26-2.22,3.31-1.72,5.24.5,1.93,2.08,3.39,4.05,3.75,8.22,1.47,13.46,6.31,14.01,12.96.52,6.34-3.4,14.32-13.36,17.87-2.01.72-3.37,2.61-3.39,4.75-.03,2.14,1.28,4.06,3.27,4.83,7.16,2.75,10.82,6.82,10.87,12.1.08,8.42-8.91,19.21-19.82,23.65-14.68,6.69-30.29,12.24-46.41,16.5-2.56.67-4.18,3.19-3.73,5.8.55,3.19.64,6.99.74,10.67.1,3.93.19,7.63.86,10.49.54,2.32,2.62,3.94,4.97,3.94.12,0,.24,0,.36-.01,9.7-.68,19.05-3.11,28.1-5.46,7.91-2.06,15.39-4.01,23.01-4.87Z"/></g><g id="change2_1"><path fill="#ffd2ab" d="M233.13,688.13c-5.18-4.53-11.73-5.14-17.46-5.14-1.33,0-2.67.03-4.17.07-1.29.04-2.55.08-3.77.08-.48,0-.95,0-1.41-.02-.06,0-.12,0-.17,0-.69,0-1.37.14-2.01.41-.98.42-2.01.9-3.07,1.39-3.25,1.51-6.92,3.23-9.75,3.23-1.06,0-1.9-.24-2.68-.76-1.49-1.74-1.15-2.51-1.04-2.77,1.25-2.87,8.47-6.01,13.79-6.01.18,0,.69.02.77.02.88,0,1.75-.23,2.52-.67,8.71-4.94,20.64-11.71,23.75-24.29.34-1.36.08-2.72-.62-3.83-2.08-4.83-7.5-7.28-16.12-7.28-31.05,0-105.98,30.93-116.22,36.01-.71.33-1.45.69-2.23,1.07-2.38,1.17-5.33,2.63-7.19,2.63-.48,0-.9,0-1.51-1.09-.28-.53-.32-1.27-.1-1.94.1-.31.35-.87.76-1.07,11.35-5.08,24.73-11.01,39.85-17.06,1.56-.62,2.71-1.97,3.08-3.6.38-1.63-.07-3.34-1.2-4.58-.22-.24-.41-.57-.59-1-.03-.08-.07-.16-.1-.24-11.34-24.32-22.46-49.52-34-77.04-.13-.31-.29-.6-.47-.88-.35-.52-.58-1.09-.67-1.65-.32-2-1.79-3.62-3.75-4.13-.43-.11-.87-.17-1.3-.17-1.53,0-3.01.69-4,1.93-36.4,45.74-61.07,92.63-69.41,131.85-5.06,20.42-2.58,37.24,7.39,49.98,13.26,16.95,39.63,25.91,76.24,25.91h0c50.21,0,105.77-16.66,128.45-32.09.15-.1.29-.21.42-.32,5.81-4.91,8.17-9.64,7.02-14.05-1.03-3.95-4.53-6.53-10.38-7.65-.09-.02-.52-.08-.52-.08-5.26-.73-10.71-1.49-16.16-1.49-5.15,0-9.72.68-13.96,2.08-.12.03-.24.04-.35.04-.83,0-1.62-.81-1.98-1.61-.25-.55-.43-1.32.04-1.97,1.77-1.49,9.62-4.18,15.38-6.16,16.5-5.67,27.53-9.91,30.39-16.92,1.01-2.48.89-5.17-.33-7.59-.3-.59-.7-1.11-1.2-1.54Z"/></g><g id="change2_2"><path fill="#ffd2ab" d="M467.72,180.06c-.14-.7-.29-1.41-.41-2.11-.29-1.69-1.41-3.12-2.98-3.81-.66-.29-1.35-.43-2.05-.43-.97,0-1.94.28-2.78.82-15.61,10.11-36.06,15.24-60.78,15.24s-46.25-4.88-60.66-8.98c-.46-.13-.93-.19-1.4-.19-1.28,0-2.52.48-3.48,1.37-1.31,1.22-1.88,3.03-1.52,4.78,1.39,6.62-.11,14.08-3.75,18.56-2.26,2.79-5.11,4.2-8.45,4.2-1.63,0-3.4-.34-5.26-1-.56-.2-1.14-.3-1.72-.3-1.31,0-2.6.51-3.57,1.46-1.4,1.37-1.89,3.41-1.27,5.26l1.04,3.11c4.93,14.68,10.02,29.87,7.44,44.63-1.35,7.95-7.21,10.78-12.25,10.78-3.21,0-6.42-1.09-9.18-3.08-19.37-14.74-32.05-41.33-31.55-66.25,0-.82.13-1.36.25-1.67.59-1.65.3-3.48-.77-4.87-3.94-5.07-10.38-7.87-18.12-7.87-5.78,0-11.79,1.6-16.65,4.5-12.16,7.89-16.71,24.24-12.2,43.69,3.49,15.76,17.09,28.1,33.98,30.9,10.5,4.83,14.09,17,17.89,29.87,1.32,4.48,2.68,9.1,4.36,13.28,4.82,15.53,9.59,30.71,15,45.86,1.27,3.27,2.81,7.47,4.6,12.3,19.07,51.66,39.44,102.08,60.45,102.08h0c12.36,0,20.61-15.45,25.98-48.55.34-1.95.4-4.11.45-6.2.05-1.81.1-3.69.33-5.25.33-2.21-.82-4.38-2.83-5.35-18.57-8.96-35.83-26.22-52.76-52.75-6.1-9.71-10.77-17.8-14.65-25.4-.61-1.21-.19-2.68.95-3.29.3-.16.66-.25,1.04-.25.74,0,1.67.35,2.08,1.16,27.19,52.95,58.63,82.1,88.53,82.1,36.97,0,63.74-44.86,69.86-117.11,2.86-37.36,2.02-73.53-2.51-107.47-.17-1.27-.42-2.54-.69-3.8ZM385.36,237.59c.46,4.91,1.15,12.34-.78,14.51-.14.16-.51.57-1.83.65-.78-.09-.99-.34-1.11-.48-.68-.81-1.19-3.09-.81-6.34.02-.21.04-.42.03-.63-.04-9.17-.5-17.34-1.38-24.98-.05-.44-.16-.86-.32-1.27-.98-2.51-.87-4.72-.27-5.61.11-.16.36-.53,1.54-.53.32,0,.67.03,1.04.09,2.38,1.42,2.75,5.07,3.04,10.75.09,1.72.18,3.49.4,5.17-.15,2.53.13,5.51.43,8.66ZM347.85,306.84c.52-.33.98-.52,1.28-.52,1.46,0,4.15,3.8,5.6,5.84.55.78,1.08,1.52,1.64,2.26,8.35,10.71,17.12,18.53,28.48,25.41,8.69,5.12,18.02,7.82,26.98,7.82,1.9,0,3.81-.12,5.67-.36.1-.01.2-.03.29-.05.96-.18,1.95-.42,2.95-.67,1.65-.4,3.35-.82,4.6-.82.84,0,1.15.08,1.56.81.35,1.21.34,2.09-.04,2.61-1.04,1.43-5.34,3.11-14.03,3.11-2.23,0-4.58-.1-6.97-.29-24.08-3.03-42.59-21.02-53.99-35.72-1.28-1.53-5.17-6.19-4.89-8.33.05-.36.4-.78.86-1.11ZM413.54,308.89l-.41-.6c-.8-1.17-2.04-1.95-3.43-2.17-.26-.04-.52-.06-.79-.06-1.13,0-2.24.38-3.15,1.08-2.11,1.65-4.69,2.52-7.46,2.52-2.6,0-5.21-.81-7.38-2.29-6.39-4.33-9.83-8.81-9.92-10.98-.01-.27-.03-.87,1.07-1.83.61-.35,1.04-.47,1.26-.47.78,0,2.65,2.19,3.77,3.49,2.68,3.13,6.01,7.03,11.48,7.4.11,0,.23.01.34.01,1.37,0,2.68-.55,3.64-1.53,4.68-4.76,7.04-5.27,7.84-5.27,2.08,0,4.84,4.38,7.28,8.25,3.24,5.14,6.92,10.97,12.76,14.38.79.46,1.68.69,2.57.69.84,0,1.67-.21,2.43-.62,1.57-.85,2.58-2.45,2.67-4.23.54-10.73-3.1-20.71-6.62-30.36-1.32-3.61-2.56-7.02-3.58-10.43-.56-2.65-1.7-5.43-2.9-8.38-3.13-7.66-4.24-11.68-1.92-13.43.28-.13.59-.2.92-.2.92,0,2.31.63,2.4,2,.02.36.09.72.18,1.07,1.64,5.78,3.65,11.44,5.6,16.92l1.24,3.5c1.05,3.97,2.54,8.13,3.99,12.16,4.35,12.09,8.85,24.59,2.43,34.21-1.96,2.23-4.8,2.57-6.33,2.57-2.27,0-4.6-.7-6.45-1.93-5.53-3.64-9.43-9.37-13.57-15.44ZM442.73,232.08c.06-1.25.12-2.45.13-3.57.47-3.18.07-6.76-.36-10.53-1.15-10.28-.33-11.8,1.89-12.2,1.12,0,2.14.92,2.32,2.04-.03,2.13.21,5.03.48,8.34.55,6.75,1.71,20.8-1.28,24.04-.13.14-.2.22-.59.22-.13,0-.26-.01-.43-.03-1.66-.15-2.58-.23-2.16-8.31Z"/></g><g id="change2_3"><path fill="#ffd2ab" d="M645.81,581.29c-.94-1.47-2.57-2.36-4.3-2.36-.09,0-.18,0-.27,0-1.84.1-3.48,1.18-4.3,2.83-5.11,10.3-10.47,20.72-15.66,30.8-6.87,13.37-13.98,27.18-20.64,40.96-1.48,2.19-2.71,4.92-4,7.8l-.19.43c-.56,1.24-.6,2.66-.11,3.93.49,1.27,1.47,2.3,2.71,2.84,8.74,3.83,17.47,7.72,26.2,11.61,7.43,3.31,14.87,6.62,22.26,9.88.49.22,1.64.75,1.27,2.43-.22,1.03-1.02,2.12-2.07,2.12-.33,0-.72-.09-1.11-.26-8.27-3.61-16.51-7.31-24.76-11-8.82-3.96-17.64-7.91-26.66-11.84-.03-.01-2.87-1.24-2.87-1.24-2.25-.97-4.49-1.94-6.75-2.88-.15-.07-.3-.13-.46-.19-7.66-3.26-14.78-6.14-21.99-8.9-2.55-.85-5.1-1.74-7.65-2.64l-1.97-.69c-2.7-.92-5.83-1.98-8.89-2.84-.85-.25-1.72-.49-2.58-.7-.07-.02-.22-.06-.22-.06-5.67-1.46-10.72-2.17-15.45-2.17-2.31,0-4.6.17-6.8.51-1.76.27-3.25,1.43-3.94,3.07-.69,1.64-.48,3.52.56,4.96,4.62,6.42,11.41,9.78,17.99,13.02,4.19,2.07,8.16,4.03,11.16,6.61.65.77.46,1.71.35,2.09-.09.3-.44,1.23-1.38,1.58-.85.05-1.71.08-2.58.08-2.59,0-5.25-.2-8.08-.42-3.11-.24-5.93-.44-8.82-.44-5.09,0-9.21.66-12.98,2.07-1.64.61-2.85,2.02-3.2,3.74-.36,1.71.18,3.49,1.44,4.71,8.19,7.96,18.6,12.56,28.67,17,2.52,1.11,5.02,2.22,7.46,3.36.29.14.59.25.91.33,3.95,1.02,6.3,3.82,6.41,5.37.08,1.18-1.69,2.15-2.75,2.63l-.13.03c-25.54,5.92-30.74,10.71-32.46,14.63-1,2.28-.88,4.72.35,6.89.19.33.41.64.67.92,16.75,18.41,58.4,21.16,81.73,21.16,12.64,0,25.78-.81,36.16-2.24,33.85-5.51,50.42-22.08,50.66-50.45,2.1-38.18-10.33-78.88-38.02-124.44-.95-1.54-1.92-3.09-2.9-4.63Z"/></g><g id="change3_1"><path fill="#f2bc57" d="M428.74,430.13c-13.07-7.06-30.07-2.22-43.43-5.46-6.85,6.16-4.23,19.36-8.81,26.93-2.32,8.07-11.45,27.36-26.85,24.88-25.66-3.21-30.21-37.18-44.39-55.13-9.78,1.15-21.54,5.18-31.21,8.07-10.57,18.56,24.55,103.06,81.22,100.54,44.03-.59,78.74-57.19,73.47-99.83Z"/></g><g id="change3_2"><path fill="#f2bc57" d="M476.31,441.6c-60.55-21.55-31.71-8.45-49.27,32.35-19.3,54.37-87.37,91.95-136.02,24.53-6.6-8.49-23.6-43.1-23.85-59.38.02-2.71-2.41-5.09-5.11-5.03-65.6,24.15-121.29,65.14-172.67,126.71-2.72,3.12-.34,8.47,3.88,8.37,7.44,7.98,9.99,22.15,15.47,32.04,7.93,17.74,15.73,37.11,24.47,54.37,8.27,2.23,17.66-5.53,25.6-6.71,8.74-8.37,7.06-51.86,9.57-66.12,4.2-21.17,24.52-24.55,49.52-25.51,48.57-.68,91.65,29.98,129.64,56.76,1.92,1.35,4.52,1.22,6.3-.33,36.06-31.51,80.99-50.79,126.57-54.3,20.87.82,61.3-10.18,67.27,15,2.85,6.2,7.16,47.67,3.36,70.46,1.17,9.6,19.94,9.64,27.35,14.92,4.37,1.46,10.2,6.03,13.49.62,7.06-13.61,13.58-27.19,20.45-40.78,6.36-16.99,23.05-35.24,23.83-52.63-40.95-58.13-97.71-102.63-159.87-125.33Z"/></g><g id="change4_1"><path fill="#0a253a" d="M424.3,328.59c-6.58-4.33-11.02-11.02-15.39-17.43-6.04,4.72-14.56,4.74-20.84.43-6.21-4.21-17.8-14.13-8.95-21.23,9.59-5.94,11.84,8.97,19.82,9.51,19.21-19.56,20.28,8.46,34.1,16.52.68-13.55-6.27-26.51-10.05-39.3-1.59-8.04-11.45-21.45-2.54-27.4,4.56-2.6,10.75.41,11.1,5.82,1.96,6.89,4.44,13.57,6.81,20.32,4.15,15.95,16.26,35.46,5.61,50.96-2.6,3.14-6.46,4.58-10.4,4.58-3.24,0-6.56-.97-9.26-2.78Z"/></g><g id="change4_2"><path fill="#0a253a" d="M405.23,357.06c-23.52-2.97-43.16-19.31-57.27-37.52-3.94-4.72-9.8-12.11-2.87-17,7.2-4.64,11.64,3.88,15.31,8.73,7.92,10.15,16.32,17.66,27.04,24.14,8.83,5.2,19.14,8.13,29.4,6.79,5.26-.99,11.66-3.98,14.81,2.39,3.57,10.83-8.93,12.79-18.81,12.79-2.93,0-5.63-.17-7.61-.33Z"/></g><g id="change4_3"><path fill="#0a253a" d="M375.76,245.33c-.04-8.13-.41-16.32-1.34-24.42-2.81-7.22-.21-14.75,8.73-12.79,7.59,3.4,5.86,13.74,6.91,20.63-.78,8.5,5.67,28.8-7.43,29.11-6.6-.43-7.49-7.24-6.87-12.54Z"/></g><g id="change4_4"><path fill="#0a253a" d="M444.43,245.47c-9.1-.81-6.58-11-6.68-17.35,1.49-8.34-5.9-25.64,6.11-27.42,4.08-.29,7.65,2.87,7.96,6.91-.27,8.5,5.55,37.92-6.5,37.92-.29,0-.58-.02-.89-.06Z"/></g><g id="change4_5"><path fill="#0a253a" d="M230.62,198.52c-12.48,8.09-13.02,25.23-10,38.29,3.2,14.48,16.07,24.92,30.45,27.07,17.58,7.49,19.19,30.55,25.62,46.36,4.75,15.33,9.55,30.63,14.94,45.74,13.95,36.1,62.26,183.85,81.24,66.8.54-3.16.19-7.57.76-11.33-23.27-11.22-41.16-33.15-54.87-54.63-5.3-8.42-10.36-16.96-14.89-25.83-1.82-3.63-.54-8.15,3.11-10.07,3.53-1.88,8.23-.54,10.07,3.09,62.61,121.9,137.7,97.39,148.76-33.07,2.74-35.65,2.21-71.21-2.48-106.41-.25-1.92-.74-3.8-1.07-5.71-34.89,22.61-86.91,17.89-125.61,6.89,3.24,15.43-6.23,34.02-24.18,27.62,5.34,16.03,11.66,33.09,8.68,50.21-2.48,14.59-17.99,19.25-29.56,10.91-20.81-15.84-34.08-44.37-33.56-70.31,0-1.28.19-2.43.54-3.4-3.24-4.17-8.58-5.9-14.09-5.9-4.95,0-10.03,1.4-13.88,3.69ZM285.04,431.34c-3.14.91-6.25,1.88-9.35,2.93,8.13,40.76,31.83,90.6,79.59,90.6,36.08-.16,58.59-38.89,67.67-69.62,1.42-6.54,1.94-13.33,1.38-20.01-.06-.78,0-1.53.17-2.25-10.56-1.61-21.25-2.35-31.96-1.79-2.02.33-3.98-.41-5.47-1.73-1.11,8.05-2.91,16.01-5.71,23.72-4.74,14.52-15.18,30.66-32.55,28.34-26.18-4.35-34.8-34.27-45.18-55.33-5.36,2.7-14.01,3.32-18.59,5.14ZM525.93,553.86c13.26.45,23.19,4.37,26.39,18.36,3.44,7.45,7.71,49.74,3.77,73.42,10.62,3.55,21,8.07,31.32,12.25.29-.52.56-1.07.8-1.57,6.72-12.93,13-26.08,19.58-39.07,8.03-15.8,16.34-31.48,24.2-47.37-38.97-55.33-93.66-100.18-157.4-123.45-11.45-4.08-23.19-7.78-35.13-10.52,1.9,12.3-4.93,33.94-7.74,40.08-14.83,34.24-45.05,69.98-86.25,63.21-23.75-2.99-45.34-17.8-58.5-37.57-6.6-8.5-24.65-44.44-24.92-62.43-20.84,8.05-40.81,18.34-60.2,29.46-35.59,20.26-75.05,55.2-108.55,95.41,2.31.02,4.6,1.09,6.04,3.07,12.23,27.05,23.41,54.71,36.25,81.53.35.95.52,1.86.52,2.72,6.93-2.6,14.05-5.1,21.13-7.37.08-3.47,1.16-7.1,1.4-10.46,2.33-16.94,3.36-34,4.62-51.06.31-6.15,3.12-11.82,7.45-16.13,13.66-12.81,33.93-14.61,51.7-14.17,48.38,1.09,90.28,31.05,128.05,57.62,36.16-31.6,81.4-51.84,129.49-55.54,8.71-.76,17.54-1.22,26.34-1.22,6.56,0,13.12.25,19.62.83ZM512.64,687.07c9.51,9.26,22.88,13.82,34.74,19.41,9.59,2.46,15.33,13.14,3.98,17.82-5.09,1.18-33.19,7.43-29.38,14.15,20.13,22.12,84.85,21.23,113.28,17.31,27.11-4.41,46.13-16.03,46.38-45.69,2.39-43.42-15.14-85.06-37.28-121.49-.93-1.51-1.88-3.03-2.85-4.54-11.95,24.09-24.74,47.84-36.45,72.06-1.38,1.94-2.62,4.77-3.96,7.74,16.19,7.1,32.31,14.38,48.52,21.52,8.77,4,2.93,17.49-6.06,13.62-17.12-7.47-34.1-15.31-51.26-22.77-.14-.06-.29-.14-.45-.19-3.14-1.36-6.27-2.74-9.43-4.04-.02-.02-.04-.04-.06-.02-7.24-3.09-14.54-6.06-21.87-8.87-3.22-1.07-6.44-2.21-9.67-3.34-2.89-.99-5.78-1.96-8.68-2.78-.85-.25-1.73-.49-2.58-.7-.02-.02-.04-.02-.04-.02-6.64-1.71-13.35-2.6-20.22-1.55,6.72,9.34,20.22,11.59,28.57,18.94,3.94,4.06,1.77,11.16-3.73,12.4-3.88.31-7.9,0-11.92-.31-2.81-.21-5.63-.43-8.42-.43-3.8,0-7.57.39-11.18,1.75ZM17.62,702.83c-25.29,102.01,156.87,70.61,204.27,38.35,5.92-5.01,8.99-10.87-1.03-12.79-9.59-1.34-19.02-2.7-28.24.39-6.58,1.82-11.99-6.81-7.47-11.94,6.11-6.21,50.05-14.09,44.62-24.88-4.77-4.17-11.63-3.98-18.03-3.8-1.94.06-3.82.12-5.59.06-6.27,2.68-14.61,7.96-20.96,2.95-9.68-10.46,8-18.11,16.98-17.66,8.58-4.87,18.79-10.87,21.31-21.08l-.1.14c-5.43-19.12-110.78,23.19-125.76,30.63-5.51,2.54-13.45,7.76-17.56.39-1.84-3.45-.58-8.33,3.09-10.07,9.9-4.42,24.12-10.77,40.04-17.14-.62-.68-1.14-1.51-1.55-2.52-11.9-25.52-23.19-51.27-34.08-77.22-.76-1.13-1.26-2.39-1.48-3.69-33.32,41.86-59.64,88.5-68.45,129.9ZM378.53,606.84c-5.94,3.42-11.59,10.07-17.86,14.3.91,1.96,1.42,4.31,1.36,6.73,4.31,45.82,3.92,92.01,8.58,137.83,1.34,15.49,2.74,30.94,4.62,46.36,24.49-12.03,50.27-21.58,77.48-25.04,27.4-3.77,54.96,2.97,81.4,9.63,10.27,3.71,19.43-5.22,21.04-14.98,1.01-3.59.47-8.62,1.22-12.63-14.5-2.35-28.63-6.46-40.37-15.27-19.6-16.65-6.66-32.86,13.68-38.89-9.49-4.87-19.66-9.1-27.27-16.81-11.59-11.64-2.25-25.68,12.34-26.94-16.56-10.54-12.61-32.39,8.35-31.91,6.21.14,12.29.95,18.24,2.27.37-1.81.6-3.51.52-5.01,1.07-21.76,2.64-45.72-6.48-65.97-11.02-1.73-22.26-2.6-33.54-2.6-43.76,0-88.25,13-123.32,38.91ZM360.81,816.93c-8.02-61.31-8.91-123.18-13.26-184.76-.04-2.62-1.09-5.4-1.24-8.02-20.98-11.97-39.55-28.18-61.46-38.85-27.87-14.94-77.09-29.23-104.24-7.74-5.41,9.39-2.35,21.97-4.42,32.51-.6,7.12-1.42,14.25-2.25,21.37-.31,2.66-.7,5.3-1.07,7.94,21.74-5.8,42.02-8.38,55.1-3.51,16.57,7.61,10.38,29.15-1.18,38.58,24.69,4.41,23.54,32.8,1.47,40.66,26.63,10.25,10.97,37.18-8.68,45.16-15.12,6.89-30.97,12.5-47.22,16.79,1.2,7.03.43,16.13,1.53,20.86,17.31-1.2,33.71-8.36,50.96-10.32,6.89-.68,13.84-1.01,20.79-1.01,40.02,0,80.37,10.98,115.17,30.35ZM355.8,831.18c-34.29-20.09-74.18-29.23-113.65-30-19,.14-37.11,6.31-55.53,10.09-6.25,1.03-13.2,2.93-19.29.25-11.57-5.51-8.09-20.07-9.61-30.99-26.72,5.65-54.23,7.72-80.97,5.9-44.29-3.71-85.82-29.29-75.03-79.32,8.54-49.14,34.41-93.23,64.57-132.24,45.12-60.36,102.28-112.18,172.17-141.95,18.92-8.62,38.66-15.55,58.96-20.09.1-.06.21-.1.31-.14-10.73-25.56-20.42-51.49-28.98-77.86-.5-1.44-.97-2.89-1.44-4.35-2.27,1.77-5.63,2.23-9.51-.06-59.81-23-98.88-90.21-100.12-152.91.68-50.87,34.93-95.04,89.24-88.13,5.14-12.09,4.95-26.71,13.88-37.03,6.62-8,18.24-5.96,24.84.95,7.84-23.7,29.95-26.98,51.86-24.75,13.49.56,26.94-.12,40.29-2.02,14.5-2.14,28.08-7.7,41.42-13.6,11.76-5.32,23.13-12.73,36.45-12.93,54.71,6.56,53.64,113.17,32.76,150.24-4.04,7.61-8.99,14.07-14.63,19.49,1.69,1.13,2.91,3.03,3.03,5.69,10.5,60.26,14.4,224.76-64.01,241.53,106.22,10.46,199.69,84.64,251.33,175.97,23.33,42.77,43.1,96.09,26.84,144.22-18.92,38.17-70.61,36.53-107.33,35.05-4.11-.39-8.33-.76-12.54-1.2,1.36,10.62-5.45,27.89-10.71,32.04-11.88,13.9-29.99,8.56-45.08,4.35-16.55-3.71-32.8-6.77-49.63-6.44-24.74,1.32-48.05,8.52-70.41,18.2-7.05,3.2-13.95,6.62-20.82,10.21-3.61,2.14-7.65,3.84-11.68,3.84-2.37,0-4.72-.58-6.97-2Z"/></g></g></g></svg>