<?xml version="1.0" encoding="UTF-8" standalone="no"?><svg xmlns="http://www.w3.org/2000/svg" xmlns:xlink="http://www.w3.org/1999/xlink" contentScriptType="text/ecmascript" fill="#000000" width="1151" zoomAndPan="magnify" contentStyleType="text/css" viewBox="-1.4 -1.3 1150.7 543.6" height="544" data-name="Layer 2" preserveAspectRatio="xMidYMid meet" version="1"><g data-name="Layer 1"><g><g id="change1_1"><path fill="#efe3bd" d="m1148.58,377.86c.78,45.91-71.82,106.52-203.16,117.81-42.63,3.66-88.4,18.24-139,24.86-70.28,9.23-147.92,14.99-229.65,16.38C259.68,542.29,1.41,479.83,0,397.36c-1.35-79.72,238.08-149.04,540.72-158.41,10.25-.28,20.61-.56,30.98-.74,144.88-2.46,269.53-.99,368.19,30.8,123.48,39.78,207.93,64.05,208.69,108.85Z"/></g><g id="change2_1"><path fill="#e5d29c" d="m806.42,520.53c-70.28,9.23-147.92,14.99-229.65,16.38C259.68,542.29,1.41,479.83,0,397.36c-1.35-79.72,238.08-149.04,540.72-158.41-4.4,2.19-8.7,4.7-12.88,7.52-45.7,30.81-60.21,85.42-23.6,129.85,19.87,24.09,47.95,39.69,75.59,54.14,71.71,37.6,148.13,72.05,226.59,90.07Z"/></g><g id="change1_2"><path fill="#efe3bd" d="m841.57,248.55l1.63,96.11c.63,37.22-119.5,69.5-268.47,72.03l-1.9.03c-148.03,2.3-268.23-25.91-268.86-62.91l-1.63-96.11C299.97,118.13,411.29,2.97,550.85.6L584.58.03c78.37-1.33,119.66,43.88,184.88,77.1,55.26,28.15,76.32,108.4,72.12,171.42Z"/></g><g id="change2_2"><path fill="#e5d29c" d="m493.41,280.05c17.14,50.16,44.37,96.87,79.42,136.67-148.03,2.3-268.23-25.91-268.86-62.91l-1.63-96.11C299.97,118.13,411.29,2.97,550.85.6l28.23-.48c-59.2,51.67-104.98,133.35-100.03,213.22,1.34,22.72,6.9,45.15,14.35,66.7Z"/></g><g id="change3_1"><path fill="#af503e" d="m842.02,270.67l1.26,74.01c.63,37.22-119.6,69.51-268.47,72.03-148.98,2.53-270.13-25.66-270.76-62.88l-1.26-74.01c.63,37.22,121.78,65.41,270.76,62.88,148.87-2.53,269.1-34.82,268.47-72.03Z"/></g></g></g></svg>