<?xml version="1.0" encoding="UTF-8" standalone="no"?><svg xmlns="http://www.w3.org/2000/svg" xmlns:xlink="http://www.w3.org/1999/xlink" contentScriptType="text/ecmascript" fill="#000000" width="623" zoomAndPan="magnify" contentStyleType="text/css" viewBox="-10.9 -3.7 623.4 708.3" height="708" preserveAspectRatio="xMidYMid meet" version="1"><g data-name="Layer_1"><g><g id="change1_1"><path fill="#fff4d4" d="M547.96,430.02c-2.37-30.41-4.02-61.43-5.62-91.42-1.81-34-3.68-69.16-6.61-103.7-3.67-43.25-6.05-87.36-8.36-130.03l-.62-11.46c-.53-9.8-.49-19.85-.45-29.56.03-8.82.07-17.94-.32-27.08-1.31-20.18-16.08-22.34-27.03-23.94-18.42-2.05-38.14-3.05-60.28-3.05-26.66,0-53.74,1.45-79.92,2.86l-.34.02c-26.04,1.42-52.97,2.89-80.09,2.89h-1.62c-10.45-.54-21.46-.81-32.73-.81-42.12,0-84.69,3.79-125.87,7.45-14.03,1.25-28.54,2.54-42.76,3.66-2.13.17-3.93,1.64-4.51,3.7-.54,1.89-.7,3.85-.85,5.58-.34,3.97-.66,4.72-1.5,5.07-1.95.8-3.21,2.72-3.16,4.83.32,15.36.75,31.18,1.29,48.38.07,2.2,1.54,4.1,3.65,4.73,1.25.37,1.6,1.75,1.61,2.5.02,1.58-.97,1.91-1.3,2.02-2.15.71-3.58,2.75-3.51,5.02.3,9.13.61,18.27.92,27.41,2.11,62.04,4.29,126.19,2.7,188.99-4.15,74.79.6,150.58,5.19,223.87l.52,8.34c0,.12.02.25.04.37.66,4.83.79,10.7.93,16.92.47,21.24,1.06,47.67,24.02,55.52.23.08.46.14.7.18,13.71,2.6,28.33,3.76,47.44,3.76,8.73,0,17.59-.24,26.16-.47,9.57-.27,17.55-.49,25.78-.49,8.91,0,16.77.27,24.22.83,44.32,1.74,89.38,1.83,132.95,1.91,25.14.05,51.14.1,76.61.47,10.2.28,20.58,1.07,30.61,1.83,12.71.96,25.85,1.96,38.9,1.96,3.56,0,7.03-.07,10.34-.22.55-.02,1.1-.14,1.62-.34,23.18-8.98,27.63-43.68,30.88-69.02.64-4.96,1.24-9.64,1.91-13.49.01-.09.03-.18.04-.27,3.77-31.49,1.9-63.33.09-94.11-.61-10.3-1.23-20.95-1.64-31.6ZM205.57,505.14c-1.77.92-3.45,1.79-5.11,2.53-2.93.97-5.46,2.67-7.91,4.32-2.47,1.66-5.02,3.38-6.86,3.38-.37,0-.73-.07-1.1-.21-1.05-.71-1.19-2.01-.77-3.06,1.2-1.66,3.59-2.87,6.11-4.16,1.23-.63,2.49-1.27,3.73-2.02,2.84-1.25,5.65-2.75,8.38-4.19,6.58-3.5,12.8-6.81,19.08-6.81.93,0,1.86.07,2.78.23,2.78.45,4.68,2.59,7.54,6.04,2.13,2.57,4.55,5.49,7.91,7.46.64.38,1.36.61,2.1.68,1.14.11,2.27.16,3.4.16,10.04,0,19-4.07,27.66-8.01,7.43-3.38,14.46-6.57,21.73-7.09,9.21.17,17.54,6.37,25.6,12.36,1.86,1.38,3.7,2.75,5.52,4.03.41.29.86.52,1.34.67,1.18.39,2.43.59,3.71.58,3.66,0,6.83-1.54,9.62-2.9.93-.45,1.83-.9,2.7-1.23.19-.07.38-.15.56-.25,8.49-4.45,16.75-9.47,24.73-14.33,8.87-5.4,18.05-10.98,27.42-15.68,4.53-2.29,11-4.73,15.59-4.73,3.19,0,3.74.92,3.86,3-.26,1.14-1.4,1.81-2.42,1.81-.1,0-.2,0-.3-.02-.2-.02-.39-.03-.59-.03-.09,0-.17,0-.26,0-5.34.27-10.05,2.47-14.21,4.4l-1.39.64c-6.32,2.54-14.05,7.52-22.99,13.29-14.18,9.14-31.83,20.52-43.43,20.52-2.66,0-4.8-.6-6.59-1.87-1.82-1.25-3.61-2.61-5.42-3.98-6.38-4.82-12.98-9.82-21.45-11.49-.33-.06-.66-.1-.99-.1-.3,0-.59.02-.88.08-7.93,1.39-15.32,4.58-22.47,7.65-9.09,3.91-17.68,7.61-26.83,7.61-.59,0-1.18-.01-2.01-.05-5.62-.04-9.46-4.27-13.9-9.16-1.3-1.43-2.64-2.9-4.05-4.28-.96-.94-2.24-1.45-3.57-1.45-.24,0-.48.02-.71.05-5.52.78-10.26,3.24-14.85,5.63ZM384.96,398.23c-12.6,7.91-26.11,13.98-40.16,18.03-7.23,2.07-14.5,3.6-21.59,4.54-1.88.24-3.73.47-5.63.66l-1.13.12c-.96.11-1.86.22-2.75.22,0,0-.32,0-.43.01l-2.5.16c-2.65.15-5.35.23-8.01.23h-.11c-.82,0-1.62,0-2.44-.02-7.98-.15-15.07-.75-21.68-1.84-14.54-2.38-28.48-6.62-41.42-12.6-13.3-6.14-26.27-14.78-38.55-25.69-5.17-4.59-10.35-10.05-15.83-16.71-4.94-5.98-9.28-12.17-12.92-18.42-8.03-13.73-13.9-28.16-17.46-42.86-3.57-14.85-4.9-30.71-3.95-47.13.84-14.15,4.09-28.9,9.67-43.85,10.49-28.18,30.18-53.57,55.44-71.48,24.81-17.59,55.29-27.57,85.82-28.09,1.22-.02,2.45-.03,3.67-.03,10.12,0,19,.8,27.15,2.46.12.03.53.11.61.12,20.6,3.93,40.01,11.89,57.68,23.64,22.19,14.9,40.19,35.4,52.05,59.3,13.42,27.01,18.67,57.01,15.18,86.77-3.55,30.43-16.28,59.62-35.83,82.19-10.61,12.22-22.34,22.41-34.87,30.27Z"/></g><g id="change2_1"><path fill="#f2bc57" d="M448.99,237.96c-16.77-94.18-128.94-148.75-213.35-104.08-118.34,56.85-105.7,236.51,19.7,276.06,105.88,37.67,218.53-62.66,193.65-171.98Z"/></g><g id="change3_1"><path fill="#0a253a" d="M290.97,123.73c-5.9.52-11.72,1.36-17.54,2.48-6.17,1.34-12.21,2.99-18.19,4.97-5.9,2.13-11.63,4.54-17.27,7.24-5.28,2.7-10.36,5.63-15.35,8.83-5.32,3.55-10.4,7.43-15.25,11.63-5.03,4.46-9.72,9.22-14.07,14.09-3.8,4.48-7.36,9.1-10.69,13.93-4.02,6.13-7.61,12.4-10.85,18.98-2.46,5.43-4.68,10.89-6.62,16.52-1.84,5.86-3.42,11.74-4.66,17.76-1.3,7.12-2.15,14.26-2.5,20.53-.19,5.84-.1,11.68.21,17.53.5,5.84,1.28,11.61,2.33,17.39,1.44,6.75,3.22,13.37,5.4,19.95,2.02,5.47,4.21,10.79,6.7,16.07,2.72,5.3,5.65,10.46,8.85,15.49,3.96,5.82,8.19,11.35,12.79,16.69,4.06,4.62,8.5,8.87,13.08,12.96,4.87,4.13,9.86,8,15.12,11.57,5.41,3.51,10.98,6.71,16.75,9.57,5.74,2.76,11.64,5.12,17.68,7.16,6.38,2.02,12.83,3.69,19.39,4.99,6.21,1.07,12.42,1.81,17.72,2.13,6.31.27,12.6.23,18.9-.16.1,0,.19-.02.29-.02.12,0,.25-.02.37-.04.12,0,.21,0,.27-.02,5.86-.48,11.63-1.34,16.46-2.27,6.17-1.3,12.23-2.89,18.24-4.85,5.82-2.04,11.51-4.37,17.1-6.99,5.55-2.78,10.93-5.84,16.15-9.2,5.22-3.53,10.23-7.3,15.04-11.37,4.99-4.43,9.7-9.08,14.17-14.03,4.35-5.07,8.36-10.36,12.13-15.91,3.26-5.07,6.23-10.27,8.97-15.66,3.03-6.33,5.61-12.79,7.86-19.45,1.84-6.04,3.4-12.11,4.6-18.28,1.01-5.94,1.75-11.86,2.15-17.87.31-6.58.25-13.12-.21-19.68-.54-5.82-1.36-11.61-2.47-17.35-1.38-6.37-3.07-12.62-4.85-17.89-2.08-5.84-4.41-11.53-7.08-17.12-2.99-5.96-6.33-11.74-9.49-16.5-3.3-4.89-6.83-9.55-10.65-14.03-4.44-5.05-9.14-9.84-14.19-14.32-4.74-4.1-9.7-7.92-14.89-11.45-.21-.16-.45-.29-.66-.45-5.34-3.53-10.91-6.68-16.63-9.51-5.74-2.76-11.63-5.14-17.41-7.12-.1-.04-.21-.06-.31-.1l-.25-.08c-6.21-2-12.54-3.63-18.5-4.77-.25-.04-.5-.1-.76-.14-2.89-.5-5.82-.8-8.71-1.28-2.83-.35-5.65-.6-8.48-.8-2.72-.14-5.43-.19-8.09-.19-4.25,0-8.33.16-12.07.45ZM300.11,427.29c-7.49-.14-15.02-.68-22.42-1.9-14.79-2.43-29.11-6.72-42.74-13-14.59-6.73-27.81-15.86-39.81-26.51-5.94-5.28-11.33-11.16-16.38-17.27-4.93-5.98-9.49-12.4-13.39-19.1-8.09-13.86-14.25-28.65-18.01-44.25-3.84-15.97-5.03-32.26-4.08-48.62.91-15.49,4.56-30.82,9.98-45.34,11.04-29.65,31.5-55.58,57.27-73.87,25.68-18.2,57.21-28.49,88.67-29.03,10.69-.19,21.6.41,32.12,2.56l.06.02c.06.02.1.02.16.04h.02c21.48,4.08,41.71,12.46,59.7,24.43,22.86,15.35,41.53,36.6,53.78,61.27,13.72,27.62,19.27,59,15.68,89.63-3.63,31.03-16.55,61.29-37.05,84.95-10.46,12.05-22.46,22.75-36,31.25-12.91,8.11-26.82,14.4-41.47,18.61-7.3,2.1-14.81,3.71-22.34,4.7-1.92.25-3.82.49-5.76.68-1.46.16-2.99.39-4.48.37-.85.06-1.71.12-2.56.17-2.76.16-5.53.23-8.31.23-.89,0-1.77,0-2.64-.02Z"/></g><g id="change3_2"><path fill="#0a253a" d="M319.82,518.85c-7.86-5.41-15.35-12.77-24.96-14.67-17.76,3.12-33.46,16.3-52.25,15.29-9.94-.08-15.27-8.83-21.48-14.91-6.72.95-12.69,5.18-18.86,7.88-6.68,2.08-12.67,10.58-20.01,7.26-3.65-2.04-4.72-6.5-2.91-10.13,2.64-4.13,7.92-5.71,11.94-8.21,10.58-4.58,21.33-13.28,33.42-11.28,8.11,1.3,10.85,10.4,17.21,14.13,18.48,1.75,34-13.78,52.17-14.96,13.26.14,23.91,10.11,34.2,17.33,4.25,1.4,8.73-2,12.63-3.47,17.8-9.32,34.24-21.04,52.23-30.04,7.69-3.88,26.38-11,26.88,3.09-.45,4.19-4.33,7.08-8.44,6.6-4.91.25-9.41,2.62-13.84,4.64-16.44,6.54-48.03,34.23-68.43,34.23-3.55,0-6.75-.83-9.49-2.77Z"/></g><g id="change3_3"><path fill="#0a253a" d="M225.86,627.79c69.79,2.74,139.7,1.38,209.51,2.39,26.63.74,52.94,4.75,79.47,3.57,24.63-9.55,25.64-55.87,29.6-78.62,4.97-41.53.02-83.14-1.57-124.71-5.07-64.96-6.72-130.17-12.23-195.09-4-47.14-6.42-94.38-8.99-141.64-1.03-18.86.04-37.73-.78-56.59-.95-14.79-9.63-17.31-22.49-19.19-46.44-5.18-93.08-2.66-139.7-.16-27.44,1.49-54.87,2.97-82.25,2.89-67.09-3.47-134.19,5.07-200.7,10.29-1.36,4.81.33,11.64-5.32,13.97.33,16.09.78,32.22,1.28,48.33,6.52,1.94,7.34,11.99.45,14.26,2.37,72.2,5.45,144.61,3.61,216.84-4.29,77.28.89,154.49,5.71,231.61,2.95,21.56-4.13,59.52,21.54,68.3,23.81,4.52,48.17,3.86,72.51,3.2,8.66-.25,17.29-.49,25.93-.49,8.15,0,16.3.21,24.42.83ZM181.77,704.32c-10.38-.48-18.83-7.05-23.17-16.26-6.29-10.65-12.13-21.58-18.5-32.18-1.84-4.48-6.35-8.85-8.5-13.51-3.24-.06-6.48-.17-9.72-.31-23.97-.06-46.42-9.88-50.83-35.67-4.72-23.08-3.69-46.87-5.61-70.28-1.98-35.42-4.6-70.86-5.76-106.34-1.92-.7-3.57-2.27-4.37-4.91-14.15-74.23-33.32-145.6-48.11-219.37-2.91-24.78-18.13-80.8,7.16-95.97,13.35-6.91,27.85-11.08,42.5-14.26-.16-7.96-.27-15.89-.35-23.85-.17-6.77-.04-13.57-.21-20.36-2.23-3.73-.23-9.18,3.94-10.67-.74-7.69.31-17.87,7.22-22.59,2.58-1.75,6.15-1.69,9.16-1.8,10.83-.39,22.18-1.88,32.72-2.76,18.48-1.65,36.37-3.24,54.42-4.87,30.31-3.49,60.79-3.2,91.24-2.91,18.07.17,36.16.35,54.21-.25,63-2.37,126.46-8.91,189.32-2.37,10.07,1.86,21.89,3.34,29.11,11.41,7.2,9.1,8.71,20.92,8.44,32.18.12,14.91-.27,29.79.37,44.7,2.52,47.63,4.99,95.25,9.01,142.76,4.95,57,6.66,114.18,10.54,171.23,3.26-.49,6.77,1.01,8.05,5.16,8.5,25.21,22.22,46.29,35.24,68.9,13.16,16.26-8.33,24.92-20.15,31.73-5.98,2.23-11.82,11.2-17.91,7.2-.21,26.2-2.25,52.32-8,78.17-4.48,19.12-11.14,41.49-30.18,50.6-10.54,3.65-22.2,1.71-33.15,1.57-23.91-1.49-47.47-3.28-71.13-3.8-2.72,2.91-7.51,4.89-10.81,6.68-49.39,19.84-102.32,29.48-153.77,42.68-21.41,4.31-43.09,10.56-65.05,10.56-2.45,0-4.91-.08-7.37-.23Z"/></g><g id="change3_4"><path fill="#0a253a" d="M288.44,421.58c-1.78-.06-3.24-.85-4.49-2.05-4.21-4.08-7.76-8.6-10.88-13.54-14.2-22.99-21.79-49.35-25.51-75.97-9.69-61.12,5.7-141.42,35.93-195.4,5.52-8.44,10.97-18.34,20-23.36,8.91-2.91,13.47,10.93,3.81,12.73-22.9,25.37-32.7,60.79-40.83,93.04-10.41,43.17-12.65,88.47-2.45,131.91,3.89,17.27,10.09,34.09,19.25,49.3,2.82,4.62,6.1,8.94,10.07,12.64,3.94,3.8.51,11.12-4.89,10.71Z"/></g><g id="change3_5"><path fill="#0a253a" d="M328.54,133.1c23.01,39.67,27.89,86.68,24.67,131.7-1.54,58.95-16.82,92.02-44.79,142.4,21.52-6.76,41.75-18.62,57.88-34.41,26.72-28.78,43.99-67.89,44.03-107.33-.23-27.57-13.19-52.84-27.09-75.96-14.47-23.74-32.44-44.27-56.09-58.76.47.78.92,1.57,1.38,2.35ZM277.9,415.81c-.44-1.04-.62-2.21-.5-3.4-.02.22-.05.45-.06.68,0,.28.02.56.02.84v-.05c.1.66.23,1.32.54,1.93ZM293.24,421.66c-6.28-4.28-1.19-11.17,1.55-15.99,5.58-10.23,10.96-20.56,16.35-30.87,7.8-14.74,14.84-29.89,19.73-45.86,7.15-22.97,8.86-47.13,9.9-71.03,2.32-44.27-3.23-92.95-30.8-129.07-39.36,3.71-61.27,24.17-83.64,54.65-18.11,23.38-27.04,52.85-26.99,82.18-2.22,37.06,7.41,75.13,31.54,103.91,10.79,13,23.63,24.7,39.33,31.37,3.68,1.68,7.44,3.15,11.25,4.49,4.44.93,9.41,3.64,8.54,8.93-.54,4.65-6.77,6.95-10.25,3.93-5.96-2.01-11.84-4.28-17.53-6.98-19.1-8.89-34.54-24.18-46.85-41.02-20.95-28.32-30.1-63.95-28.93-98.9-.69-35.23,9.12-70.17,31.39-97.86,24.28-32.81,50.77-54.76,93.04-57.44,5.13-9.68,22.39,3.87,28.64,7.38,37.37,25.75,62.71,65.71,77.89,107.73,15.3,47.4-2.39,99.76-31.42,138.25-12.54,16.94-29.78,29.35-48.12,39.37-8.32,4.43-36.94,17.26-44.63,12.84Z"/></g><g id="change3_6"><path fill="#0a253a" d="M190.21,288.69c-11.23-.42-22.72-.14-33.79-2.25-2.6.37-5.29-.86-6.59-3.29-3.2-6.1,4.16-11.66,9.68-9.09,28.74,3.39,57.95,1.63,86.86,1.97,34.23-.13,68.74-.71,102.77-1.49,31.7-.81,63.22-1.02,94.9-1.36,3.51-.17,6.75,2.11,7.06,5.79.3,3.3-2.3,6.82-5.78,6.92-85.1.5-170.05,3.94-255.12,2.78Z"/></g><g id="change3_7"><path fill="#0a253a" d="M272.13,211.42c-31.61-1.24-61.68-7.73-86.05-29.12-6.07-2.48-4.85-11.65,1.79-12.32,3.22-.44,5.67,1.97,8.03,3.77,5.57,4.22,10.91,8.16,16.93,11.61,31.6,15.86,68.49,13.7,102.85,13.71,29.85-.81,60.01-1.18,88.79-9.94,6.96-2.03,13.71-4.74,19.85-8.63,2.98-1.79,7.06-.31,8.63,2.64,3.64,7.93-7.12,10.91-12.39,13.77-24.52,9.93-51.23,13.07-77.5,14-23.72,1.04-47.25,1.55-70.93.51Z"/></g><g id="change3_8"><path fill="#0a253a" d="M411.04,372.79c-24.26-19.16-48.66-26.07-78.93-29.48-32.66-2.98-66.22-2.27-97.83,7.2-8.86,2.86-17.53,6.41-25.51,11.25-4.91,3.05-9.26,6.85-13.73,10.49-2.72,2.16-6.96,1.22-8.9-1.51-2.22-3.08-1.07-7.13,1.89-9.2,3.83-3.15,7.58-6.36,11.7-9.14,47.42-31.73,158.34-31.58,205.4.84,4.65,2.94,9.06,6.23,13.57,9.35,2.05.93,3.58,2.96,3.79,5.28.44,6.28-7.07,9.07-11.45,4.9Z"/></g></g></g></svg>