<?xml version="1.0" encoding="UTF-8" standalone="no"?><svg xmlns="http://www.w3.org/2000/svg" xmlns:xlink="http://www.w3.org/1999/xlink" contentScriptType="text/ecmascript" fill="#000000" width="606" zoomAndPan="magnify" contentStyleType="text/css" viewBox="-1.7 -9.1 605.6 1024.7" height="1025" preserveAspectRatio="xMidYMid meet" version="1"><g data-name="Layer_1"><g><g id="change1_1"><path fill="#ffd2ab" d="M372.89,362.73l.56-2.99c3.29-17.42,6.69-35.43,8.37-53.02.42-2.97.2-5.92,0-8.78-.21-2.91-.47-6.54.47-7.62.48-.55,1.85-.95,3.68-1.07.37-.02.74-.09,1.09-.19,15.2-4.43,32.41-10.29,44.39-24.09,10.09-12.84,13.45-26.84,9.46-39.43-4.15-13.09-15.55-23.01-31.93-27.9-8.88-2.94-18.62-4.44-28.96-4.44-2.87,0-5.85.11-8.83.34-.19.01-.38.04-.56.07-.89.17-1.8.3-2.69.38-2.34.22-4.22,2.01-4.57,4.34-5.57,37.58-15.54,55.85-30.47,55.85h0c-1.13,0-2.32-.1-3.53-.3-11.13-5.4-16.02-17.71-21.2-30.73-2.17-5.46-4.41-11.1-7.04-15.92-5.76-11.82-12.33-23.37-18.69-34.54-4.11-7.22-8.37-14.69-12.33-22.12-.9-1.68-2.64-2.7-4.5-2.7-.21,0-.43.01-.64.04-2.1.27-3.82,1.8-4.32,3.86-3.2,13.15-9.78,21-17.6,21-6.17,0-12.93-4.69-18.96-13.09-7.05-10.43-12.06-21.26-14.89-32.19-.46-1.79-1.85-3.18-3.63-3.66-.44-.11-.88-.17-1.31-.17-1.36,0-2.68.54-3.66,1.54-9.15,9.37-19.45,17.44-30.66,24.01-4.18,2.5-18.02,10.29-31.75,16.21-1.33.57-2.35,1.68-2.82,3.05-.46,1.37-.32,2.87.38,4.14.24.42.27.95.09,1.67-4.74,19.81-9.49,40.99-10.94,63.05-1.49,21.6-.67,43.41.13,64.51.15,4.02.3,8.04.44,12.12.19,4.24.36,8.49.52,12.74,1.11,28.27,2.27,57.51,10.23,85.71,10.19,35.57,27.85,57.5,52.59,65.22,7.29,2.11,14.92,3.18,22.68,3.18,25.78,0,54.03-12.14,77.47-33.28,14.54-12.96,25.39-28.57,34.94-43.53,1.22-1.56,2.24-3.33,3.22-5.04,2.24-3.91,3.75-6.29,5.87-6.33,1.42,0,1.97,1.34,2.1,1.76.16.49.41,1.72-.63,2.47-.52.37-.96.83-1.31,1.37-1.5,2.31-2.98,4.62-4.46,6.93-4.64,7.24-9.01,14.08-14.07,20.88-18.74,25.02-42.65,43.79-67.33,52.84-1.46.54-2.6,1.71-3.09,3.18-.49,1.48-.28,3.09.56,4.4.37.57.55,1.25.5,1.93-.02.27-.01.53.01.8.82,9.01,3.41,17.79,6.02,26.08,8.12,24.38,22.4,28.02,30.19,28.02h0c13.12,0,27.72-9.79,39.06-26.18.05-.08.11-.17.16-.25,27.26-44.83,39.07-96.66,50.49-146.79l1.67-7.32ZM309.65,352.21c-1.97,6.93-6.84,13.64-11.55,20.13-1.41,1.95-2.8,3.86-3.95,5.55-11.17,14.92-41.64,49.62-83.23,49.62-1.9,0-3.63-.06-5.29-.19-.13,0-.49-.01-.63-.01-1.31,0-1.75-1.56-1.83-1.87-.11-.48-.26-1.55.46-2.2,2.75-.51,5.81-.57,9.03-.64,5.31-.11,11.33-.23,17.33-2.39,33.63-10.96,64.06-40.1,75.71-72.49.33-.93.39-1.94.16-2.9-.1-.45-.12-.84-.06-1.17.31-1.52-.08-3.1-1.08-4.3-3.39-4.07-4.71-8.05-3.93-11.85.23-.43.73-1.02,1.92-1.02.89,0,1.81.38,2.29.94.21.25.45.65.31,1.47-.19,1.15.02,2.33.59,3.35,4.95,8.76,14.48,15.34,24.27,16.76.24.03.49.05.73.05.31,0,.62-.03.93-.08.28-.05.56-.08.84-.08.67,0,2.24.16,2.67,1.58.09.63.15,1.58-.22,2.02-.51.6-2.15,1.21-4.7,1.21-2.41,0-5.14-.55-7.22-1.48-1.99-.84-4.11-1.89-6.14-3.04-.78-.44-1.65-.67-2.53-.67-.65,0-1.31.12-1.93.38-1.45.59-2.55,1.82-2.98,3.33ZM170.72,267.39c-.05,7.39-.1,14.36,1.33,21.86.1.54.29,1.06.56,1.54.43.76.45,1.36.08,1.99-.49.84-1.55,1.47-2.46,1.47-.35,0-.81-.08-1.31-.67-3.06-6.16-2.95-13.6-2.83-21.47.04-3.21.09-6.53-.09-9.78-.02-10.02.04-19.83.94-29.59.16-1.6.8-2.94,1.87-3.69.39-.3.76-.44,1.16-.44.84,0,1.8.63,2.29,1.49.5.9.24,1.55-.04,2.01-.41.68-.66,1.44-.73,2.23-.63,7.37-.69,14.78-.75,21.96l-.03,3.13c.05,2.74.03,5.38,0,7.97ZM183.39,350.71c2.09-3.39,4.06-6.59,5.63-9.8,6.92-11.92,12.66-23.91,17.08-35.69,1.42-3.92,2.69-7.96,4.16-13.26.36-1.5.97-3.6,2.3-4.59.4-.33.71-.37.94-.37.86,0,1.92.72,2.42,1.64.48.89.15,1.37-.02,1.63-.3.45-.52.94-.66,1.46-4.25,15.38-10.06,29.75-17.37,42.95-2.05,4.17-4.52,8.24-7.14,12.54-4.05,6.68-8.24,13.57-10.87,21.04-.37.59-.62,1.27-.71,2,0,.05-.02.23-.03.24-.1,1.02-.09,1.95.04,2.83.3,2.01,1.74,3.53,3.58,4.05,1.37.77,2.97,1.17,4.68,1.17h0c10.76,0,28.01-17.56,33.04-22.94.16-.18.31-.36.45-.56,2.35-3.36,5.01-5.54,6.78-5.54.75,0,1.6.45,2.51,1.34.8.78,1.59,1.75,2.42,2.78,1.93,2.38,4.12,5.08,7.46,6.77,1.62.86,3.36,1.3,5.17,1.3,7.26,0,12.24-6.81,13.69-9.04.62-1.03,1.25-1.17,1.73-1.17.95,0,2.03.62,2.51,1.45.25.44.43,1.03-.2,2.14-3.75,6.74-10.83,11.09-18.06,11.09-3.77,0-9.19-1.18-13.6-6.81-.91-1.15-2.26-1.87-3.73-1.95-.1,0-.2,0-.3,0-1.36,0-2.67.54-3.63,1.51l-.84.85c-9.3,9.39-23.35,23.59-35.78,23.59-3.64,0-6.92-1.25-10.02-3.83-5.73-7.88-1.19-16.57,6.36-28.82ZM257.5,247.92c-.13,2.11-.27,4.49.08,6.89.53,15.02,1.41,27.5,2.84,40.49.09.79-.28,1.39-.51,1.68-.22.28-.7.76-1.44.89h-.36c-1.14.01-2.22-.95-2.36-2.04-1.67-14.86-2.65-30.37-3-47.41l-.04-1.52c-.06-1.97-.11-3.83.37-5.15.39-1.05,1.63-1.14,2-1.14.65,0,1.24.2,1.67.55,1.01,1.35.94,3.47.74,6.75Z"/></g><g id="change1_2"><path fill="#ffd2ab" d="M554.48,756.63c-.09-.66-.19-1.33-.3-1.99-.22-1.35-.99-2.56-2.12-3.35-.86-.6-1.88-.92-2.92-.92-.32,0-.64.03-.95.09-.55.1-1.23.16-2.02.16-1.74,0-3.74-.25-6-.56l-.42-.05c-2.18-.29-4.44-.59-6.55-.59-.61,0-1.19.02-1.75.08-21.59.67-43.2,3.55-59.63,5.99-1.19.18-2.27.77-3.07,1.67-.22.25-.51.46-.83.61-1.97.91-3.15,2.98-2.93,5.14l.09.82c1.99,14.04,4.15,30.68,5.04,47.56.28,5.29.35,10.16.23,14.87-.06,2.43,1.6,4.57,3.98,5.11,10.46,2.36,19.51,4.53,26.78,6.28,5.93,1.42,10.22,2.45,12.86,2.99,1.48.26,2.17,1.13,2.04,2.58-.07.79-.43,2.12-2.09,2.12-.1,0-.2,0-.3-.01-12.61-3.03-26.18-6.24-40.05-9.29-.36-.08-.73-.12-1.09-.12-1.18,0-2.33.41-3.26,1.18-.49.4-1.14.66-1.94.66h-.07c-.76-.1-1.31-.55-1.66-1.32-.67-1.49-2.01-2.57-3.61-2.91-27.08-5.71-50.6-9.59-71.92-11.87-.1-.01-.2-.02-.3-.02-2.06-.1-4.13-.23-6.22-.37-4.12-.27-8.37-.55-12.63-.55-7.41,0-13.42.86-18.89,2.71-1.83.62-3.16,2.22-3.42,4.13-.26,1.92.57,3.82,2.17,4.91l.54.37c6.46,4.42,6.31,5.43,5.52,6.83-.62,1.02-1.84,1.48-4.47,2.3-2.25.7-5.04,1.56-7.5,3.54l-.53.38c-2.09,1.48-7,4.93-5.5,11.09,2.51,8.57,10.13,12.71,16.25,16.04,1.18.64,2.34,1.27,3.54,1.98,2.25,1.26,4.55,3.14,4.28,4.65-.03.2-.06.41-.07.62-.07,1.38-2.02,2.35-5.83,3.76l-.89.33c-.17.07-.35.14-.51.23-2.99,1.53-12.11,6.17-11.6,14.04.52,7.96,10.24,12.51,19.75,15.91,33.27,14.77,67.74,22.58,99.69,22.58,17.18,0,33.72-2.25,49.25-6.71,19.6-6.06,42.53-16.06,45.8-39.74,7.27-44.76,1.61-89.74-3.87-133.31l-.09-.65Z"/></g><g id="change1_3"><path fill="#ffd2ab" d="M120.88,756.27c-.86-.58-1.85-.87-2.85-.87-.73,0-1.46.16-2.14.47-.26.12-.56.2-.89.23-8.55.76-17.25.82-24.72.82h-3.85c-8.51.02-17.01.08-25.51.13-10.72.07-21.43.15-32.16.15-1.15,0-2.26.39-3.16,1.1-.34.26-.74.4-1.21.4-.56,0-1.14-.2-1.59-.56-.92-.74-2.05-1.12-3.19-1.12-.67,0-1.34.13-1.98.4-1.73.72-2.91,2.33-3.1,4.19-3.59,35.41-5.22,71.92-4.97,111.66.19,11.88.62,23.94,1.03,35.6.42,11.87.85,24.13,1.03,36.18.04,2.34,1.66,4.35,3.93,4.89,6.46,1.53,12.79,2.64,18.24,3.55,17.6,2.51,36.82,3.74,58.77,3.74,7.21,0,14.84-.12,23.32-.38,1.57-.05,3.01-.9,3.94-2.17.93-1.27,1.19-2.98.76-4.5-.02-.08-.03-.16-.04-.16,0,0,0,.01,0,.04-4.94-52.15-1.98-105.63.88-157.35.59-10.65,1.18-21.29,1.7-31.94.09-1.79-.77-3.49-2.25-4.49Z"/></g><g id="change2_1"><path fill="#f2bc57" d="M17.99,752.88c31.43-.81,63.87.22,96.97-1.49,3.57,1.69,8.54.78,8.78-3.96,2.02-44.58,1.43-71.94-.84-110.92-.08-3.5-.88-8.35,2.55-8.89,3.95.26,2.36,3.28,2.13,5.82,8.26,106.01-11.65,210.49-2.37,316.1-.18,12.8,19.42,4.06,27.38,5.71,29.63-1.58,59.59-2.77,89.17-3.32,2.73-.08,4.91-2.28,4.96-5.01,1.16-25.48,3.71-50.94,6.39-76.1,8.6-58,2.62-125.58,30.6-175.45,13.92-2.97,28.81-4.36,46.79-4.36,12.14-1.65,24.81,4.35,32.95-1.66-5.67-53.91,1.52-132.35,33.71-175.72,10.62-14.73-18.91-12.03-27.41-14.38-5.03-.57-7.62,6.25-3.55,9.17-19.03,75.05-150.86,115.35-162.73-2.63.36-4.42-2.67-9.51-2.44-13.89,3.51-6.86-6.17-10.16-10.92-6.25-113.61,23.64-173.62,146.15-172.12,267.22Z"/></g><g id="change2_2"><path fill="#f2bc57" d="M461.74,533.07c-7.82-5.66-50.13-34.52-57.1-22-36.64,49.15-39.75,115.56-37.68,173.22-2.56,3.06-.3,8.16,3.72,8.26,88.94-.49,83.55,26.55,66.57-50.47-.99-1.87,1.3-4.05,3.14-3.07,42.85,144.31-15.9,107.85,98.12,106.07,4.97.29,14.11,2.69,13.5-5.17-10.88-72.18-32.69-153.57-90.26-206.84Z"/></g><g id="change3_1"><path fill="#ff4d40" d="M366.49,502.5c-.53-2.16-2.4-3.73-4.63-3.87-4.95-.32-10.14-.49-15.43-.49h-1.52c-.31-.05-.56-.2-.8-.44-.97-1.01-2.3-1.56-3.68-1.56-.26,0-.52.02-.77.06-1.64.25-3.06,1.28-3.8,2.77-9.46,18.98-19.16,32.17-28.94,39.27-8.9,6.81-17.42,10.27-25.33,10.27-23.37,0-39.5-31.7-41.05-61.08-.08-1.51-.82-2.9-2.02-3.81-.9-.67-1.97-1.03-3.07-1.03-.38,0-.77.04-1.15.13-7.23,1.67-14.58,2.51-22.08,2.51h-1.66c-1.56,0-3.02.71-3.99,1.92-.97,1.22-1.33,2.81-.98,4.32,1.15,5,2,10.14,2.9,15.58,3.03,18.24,6.15,37.11,20.7,51,11.37,11.45,27.84,17.76,46.37,17.76,9.66,0,19.44-1.78,28.43-5.19,26.97-11.16,44.09-36.11,54.68-54.03.36-.64.72-1.33,1.1-2.05,1.23-2.33,2.91-5.53,4.44-6.47,1.9-1.16,2.82-3.42,2.29-5.58Z"/></g><g id="change4_1"><path fill="#244668" d="M538.12,998.63c47.53-9.88,55.65-186.61,53.8-215.25-.66-13.12-1.62-27.24-4.16-41.55-.62-5.28-4.54-8.32-7.41-10.54-.42-.32-.83-.64-1.21-.96-.09-.07-.18-.14-.27-.2-5.87-4.18-12.42-6.16-17.48-7.42-.41-.1-.82-.15-1.23-.15-1.27,0-2.51.47-3.47,1.36-1.26,1.17-1.85,2.89-1.57,4.59,1.27,7.68,2.48,15.82,3.68,24.87,5.86,44.97,10.05,82.43,6.4,121.05,0,.11-.02.22-.02.33-.39,13.47-4.05,37.68-24.38,48.53-21.33,12.27-46.99,18.49-76.25,18.49-12.55,0-25.6-1.17-38.83-3.5-23.95-3.96-48.34-11.84-74.65-24.14-6.9-3.06-11.29-8.68-11.73-15.04-.43-6.16,2.88-11.92,9.1-15.79,1.56-.97,2.48-2.71,2.4-4.54-.07-1.84-1.13-3.49-2.77-4.33-8.26-4.24-14.04-12.52-14.05-20.13-.01-5.63,3.18-10.28,9.25-13.43,2.47-1.28,3.45-4.3,2.22-6.8-2.38-4.8-2.83-8.46-1.35-10.85,1.65-2.66,7.6-7.12,28.87-7.12,20.01,0,49.15,4.02,86.6,11.96.35.07.71.11,1.06.11,1.16,0,2.3-.4,3.21-1.14,1.2-.97,1.89-2.43,1.89-3.97,0-3.3-.09-6.85-.3-11.28-2.31-34.89-8.04-70.25-13.36-100.32-.27-1.41-.98-4.93-.98-4.93-.49-2.42-2.62-4.1-5-4.1-.32,0-.65.03-.98.09-.12.02-.25.04-.37.04-.26,0-.67-.05-1.2-.48-.86-.7-1.92-1.09-3.02-1.13-13.4-.5-27.19-1.41-40.52-2.3-20.65-1.36-42-2.77-63-2.77-18.4,0-34.6,1.08-49.55,3.3-1.87.28-3.44,1.57-4.07,3.36-11.44,32.51-17.95,68.49-20.46,113.15-1.4,19.22-3.43,38.74-5.4,57.61-1.3,12.48-2.65,25.39-3.8,38.15l-.07.85c-2.93,34.65-4.86,57.55,7.84,72.06,9.68,11.06,27.27,16.44,58.78,17.98,20.93,2.19,43.13,3.26,67.85,3.26,27.5,0,55.21-1.35,78.66-2.68,6.77-.34,13.56-.57,20.35-.8,16.59-.57,33.76-1.15,50.59-3.4.12-.02.24-.04.36-.06Z"/></g><g id="change2_3"><path fill="#f2bc57" d="M172.91,580.6c7.62-4.25,14.62-13.17,12.76-22.3-8.06,4.02-11.96,13.73-12.76,22.3ZM413.22,583.64c.74-3.72,1.14-8.01-1.23-11.24,0,0,0,0,0,0-2.64,3.27-.99,8.17,1.24,11.24ZM326.61,622.44c2.43-5.1,1.44-11.13-2.81-14.88-1.42,5.02-.18,10.66,2.81,14.88ZM244.9,629.84c5.54-6.29,4.59-16-.73-22.11.19.2.38.39.57.59-2.56-3.6-5.57-1.44-7.05,1.78-2.73,7.32,2.26,14.7,7.21,19.75ZM274.49,658.71c-8.93-1.4-17.34-4.77-25.03-9.47-1.42-.86-2.81-1.76-4.17-2.7-35.38,22.25-81.13-13.4-84.69-50.92-31.32-2.8-44.56-40.93-38.78-68.11,1.19-5.13,2.62-10.22,4.56-15.12,1.03-2.83,2.58-5.84,5.85-6.36,5.91-1.43,9.93,6.4,6.15,10.76-3.8,9.63-6.2,20.05-4.72,30.41,2.12,14.98,9.52,32.87,26.24,35.52-.37-15,13.7-43.68,31.92-35.77,6.91,3.73,7.82,12.7,6.42,19.67-2.54,12.65-12.69,23.68-24.94,27.62,2.95,27.19,33.86,55.39,61.58,43.55-7.5-7.64-12.96-19-9.93-29.8,2.11-7.69,8.97-14.72,17.34-14.4,7.87.34,13.38,6.73,16.37,13.49,4.66,9.95,3.37,22.1-3.69,30.59,19.08,12.9,47.48,12.57,63.87-4.62-9.95-9.93-13.67-34.4,2.98-39.31,5.81-1.08,10.11,3.59,13.48,7.61,6.9,8.1,6.74,20,1.63,28.98,28.36,10.81,57.88-9.18,71.18-33.75-11.83-8.19-15.37-31.61,1-36.82,6.46-2.05,12.49,2.69,15.12,8.35,3.7,7,2.49,15.64.24,22.98,13.71,4.33,27.44-3.24,38.11-11.36,5.86-4.79,12.96-9.46,15.09-17.14.72-4.92,2.31-10.06,8.43-9.1,12.34,3.63-1.08,25.02-7.47,29.53-15.81,14.2-37.53,27.7-59.38,19.76-16.68,31.2-55.61,54.3-90.14,37.99-13.53,15.06-34.92,21.12-54.65,17.93Z"/></g><g id="change5_1"><path fill="#0a253a" d="M164.59,296.31c-5.34-10.23-3.03-22.69-3.69-33.83-.02-10.09.04-20.2.97-30.26.27-2.79,1.51-5.61,3.86-7.26,6.33-4.77,14.96,3.07,10.85,9.8-.7,8.17-.68,16.38-.76,24.57.18,10.38-.58,19.39,1.24,28.96,3.16,5.63-1.79,11.06-6.83,11.06-2.06,0-4.11-.91-5.65-3.05Z"/></g><g id="change5_2"><path fill="#0a253a" d="M250.68,296.39c-1.79-15.9-2.7-31.91-3.03-47.9-.04-2.81-.35-5.82.64-8.5,1.84-5.01,8.66-5.88,12.21-2.31,3.94,4.6,1.24,11.12,2.17,16.63.49,13.99,1.3,26.67,2.81,40.37.48,4.04-2.52,7.8-6.56,8.27-.27.02-.54.04-.82.04-3.67,0-6.97-2.83-7.43-6.6Z"/></g><g id="change5_3"><path fill="#0a253a" d="M184.2,370.86c.04-.1.06-.21.04-.41-.02.14-.04.27-.04.41ZM173.29,383.05c-11.39-14.73,4.77-31.21,11.22-44.54,6.52-11.22,12.23-22.88,16.79-35.03,1.53-4.25,2.79-8.38,4-12.71.66-2.74,1.69-5.61,4.06-7.36,6.06-4.93,15.1,3.2,10.81,9.68-4.23,15.29-10.03,30-17.72,43.84-5.67,11.49-14.4,22.38-18.26,34.47,0-.14,0-.31.02-.47-.06.54-.08,1.11,0,1.65v-.21s-.02-.08-.02-.31c5.92,7.06,27.83-14.89,32.55-19.93,4.08-5.82,10.62-11.14,17.04-4.93,2.93,2.85,4.95,6.79,8.71,8.69,4.68,2.48,9.67-2.14,12.09-5.86,5.01-8.33,17.72-.91,12.87,7.53-8.33,14.98-28.96,19.23-40.14,4.95-9.82,9.9-25.27,25.95-40.25,25.95-4.7,0-9.35-1.57-13.76-5.41Z"/></g><g id="change5_4"><path fill="#0a253a" d="M205.23,432.4c-7.32.23-10.15-10.64-3.51-13.99,8.19-1.84,17.43.27,26.7-3.07,31.54-10.29,61.29-38.25,72.49-69.36-2.21-9.45,11.8-13.02,14.48-3.57,2.21,14.61-9.43,27.23-17.16,38.54-20.53,27.42-52.05,51.66-87.32,51.66-1.9,0-3.78-.06-5.69-.21Z"/></g><g id="change5_5"><path fill="#0a253a" d="M321.25,356.92c-11.51-4.83-28.82-16.71-25.31-31.05,3.2-7.88,15.84-4.68,14.42,3.84,4.11,7.28,12.23,13.02,20.55,14.23,4.1-.76,8.4,1.13,9.45,5.45,1.22,7.03-4.1,9.41-9.92,9.41-3.28,0-6.71-.78-9.2-1.88Z"/></g><g id="change5_6"><path fill="#0a253a" d="M333,387.5c6.93,0,10.09,9.43,4.44,13.49-6.17,9.47-11.9,18.88-18.73,28.08-17.68,23.62-41.8,44.37-69.65,54.57.95,1.46,1.44,3.22,1.32,5.05.78,8.52,3.22,16.79,5.78,24.94,12.62,37.88,41.96,26.94,60.2.54,28.1-46.21,39.57-100.22,51.51-152.39,3.44-18.26,7.1-37.19,8.89-55.78,1.26-8.97-4.7-20.96,8.87-21.85,15.14-4.41,31.15-10.07,41.8-22.34,19.39-24.67,9.45-50.52-20.07-59.33-11.55-3.82-23.72-4.77-35.79-3.84-1.05.19-2.12.35-3.16.45-4.33,29.19-13.68,64.88-40.62,59.7-18.77-8.54-22.2-32.7-31.27-49.32-9.41-19.31-20.82-37.55-30.94-56.5-6.93,28.51-28.45,33.67-45.74,9.57-6.93-10.25-12.48-21.72-15.6-33.77-9.39,9.63-20.07,18.01-31.69,24.82-4.25,2.54-18.19,10.4-32.35,16.52.82,1.46,1.13,3.28.6,5.36-4.89,20.46-9.41,40.93-10.81,62.22-1.75,25.35-.27,50.71.58,76.04,1.46,32.55,1.59,65.52,10.56,97.27,7.41,25.87,21.54,53.12,49.1,61.72,34.16,9.88,69.97-6.13,95.33-29.01,13.74-12.25,24.32-27.23,34.18-42.7,3.71-4.54,5.98-13.35,13.06-13.51h.19ZM232.8,554.45c17.56,17.68,46.7,19.99,69.23,11.45,23.35-9.66,39.63-30.61,52.17-51.8,1.9-3.4,4.02-8.35,7.34-10.38-5.67-.37-11.33-.5-16.94-.47-1.71-.17-3.11-.93-4.15-2.02-9.18,18.42-19.37,33.03-30.41,41.05-43.59,33.36-72.43-13.74-74.58-54.59-7.53,1.73-15.29,2.66-23.23,2.64h-1.65c5.03,21.91,4.72,47.37,22.24,64.12ZM443.24,634.78c2.89,1.71,3.69,4.99,4.31,8.07,2.21,9.8,4.23,19.64,6.4,29.48,5.63,24.53,10.19,49.18,13.84,74,1.24-.29,2.48-.5,3.69-.74,22.8-2.95,44.54-6.54,67.36-5.61,2.39.23,5.36.25,8.11.7-6.66-43.45-15.62-86.85-35.23-126.52-13.45-28.08-28.74-56.94-53.12-77.07-14.61-11.33-31.34-19.43-49-24.86-.47,2-1.57,3.94-3.12,5.41-31.05,42.1-34.49,98.14-35.32,148.78-.5,6.21,3.69,16.09-.19,21.02,10.58.6,21.13,1.24,31.69,1.51,13.37.56,26.82,1.01,40.14,2.37-2.17-10.27-4.42-20.51-6.62-30.76-1.22-5.71-2.25-11.51-3.84-17.1-.7-2-.54-4.23.66-6.21,1.36-2.23,3.94-3.59,6.52-3.59,1.3,0,2.6.35,3.73,1.11ZM353.62,828.18c4.77,3.28,11.3,7.39,7.53,14.07-2.93,4.81-9.18,3.88-13.24,7.24-2,1.46-4.93,3.11-4.23,5.98,2.33,7.94,10.89,11.16,17.39,15,3.57,2,7.63,5.38,6.81,9.99-.29,5.36-5.98,7.06-10.01,8.6-18.19,9.26-4.6,16.26,7.72,20.65,44.93,19.99,97.62,29.5,145.54,15.74,18.15-5.61,39.36-14.63,42.27-35.67,7.14-43.98,1.61-88.07-3.88-131.78-.12-.83-.23-1.69-.37-2.52-2.83.54-6.31.1-9.65-.35-2.81-.37-5.55-.76-7.72-.52-19.93.6-39.86,3.07-59.21,5.94-.7.8-1.55,1.42-2.5,1.86.02.19.06.41.08.6,2.25,15.89,4.23,31.98,5.09,48.01.27,5.12.37,10.19.23,15.27,19.08,4.31,34.04,8.11,39.4,9.22,9.59,1.69,7.65,16.01-2.12,14.77-13.33-3.2-26.78-6.38-40.27-9.35-1.63,1.36-3.86,2.08-5.96,1.79-2.7-.37-4.64-2.08-5.63-4.29-23.83-5.03-47.76-9.26-71.4-11.78-6.11-.29-12.4-.91-18.61-.91-5.86,0-11.68.56-17.25,2.45ZM132.68,633.09c6.91,100.45-7.96,200.58-4.27,301.07-.02,5.03.97,9.78,1.86,14.65.1.85.06,1.65-.08,2.37,15.37-.64,30.74-1.51,46.09-2.14,21.74-1.4,43.53-1.61,65.33-2.21.23-12.36,1.9-24.94,2.43-36.39,2.52-29.42,6.39-58.94,8.64-88.32,2.35-34.86,5.1-69.79,15.55-103.31,3.69-9.45,3.49-23.44,13.78-28.3,25.54-5.55,51.26-5.08,77.03-3.73-.6-.93-1.03-2-1.18-3.16-5.07-52.81,3.09-129.7,35.24-173.08.52-.7,1.05-1.46,1.63-2.21-8.4-1.86-16.92-3.18-25.46-4,2.78,2.08,3.98,6.09,2.25,9.26-19.82,39.15-56.88,78.14-104.59,71.44-38.91-2.27-63.6-34.64-67.46-71.54-1.44-5.63-.8-12.01-3.12-17.25-1.14-2.37-.91-4.93.33-6.99-.58-.08-1.16-.17-1.73-.29-.99.74-2.25,1.32-3.8,1.69-30.51,6.21-58.2,22.18-82.25,41.63-53.62,44.44-74.49,108.94-82.15,175.89-2.23,13.49-4.13,27.04-5.71,40.6,3.75-1.63,9.12-1.71,13.29-1.4,9.55-.17,19.1-.14,28.67-.1,17.21.06,34.47.12,51.64-.99,1.44-.14,2.81.21,4.02.91,1.07-24.84,1.65-49.68.89-74.47-.47-11.94-1.15-23.6-1.65-34.6-.23-4.37-.99-10.13,2.5-13.51,1.47-1.47,3.28-2.12,5.07-2.12,5.05,0,9.96,5.07,7.22,10.58ZM14.66,873.18c.39,23.93,1.69,47.86,2.06,71.79,6.17,1.46,12.29,2.54,17.8,3.45,27.02,3.86,54.11,4.13,81.2,3.3-.12-.37-.19-.78-.25-1.2-5.98-63.11-.56-126.6,2.56-190.02-.8.37-1.67.6-2.58.68-9.67.85-19.35.85-29.01.83-19.23.06-38.45.29-57.68.29-2.74,2.15-6.56,1.88-9.14-.17-3.75,36.88-5.18,73.98-4.95,111.05ZM288.23,704.22c-12.73,36.18-18.05,73.9-20.18,111.83-2.33,32.02-6.31,63.87-9.2,95.82-5.14,60.82-7.26,82.02,61.85,85.36,48.56,5.1,97.25,3.32,145.87.58,23.5-1.18,47.18-1.05,70.51-4.17,40.89-8.5,52.17-172.38,49.74-209.99-.7-13.9-1.69-27.44-4.11-41.09-.39-3.82-4.08-6.04-6.81-8.27-4.72-3.36-10.17-5.24-15.74-6.62,1.38,8.35,2.6,16.71,3.71,25.04,5.28,40.48,10.29,81.36,6.42,122.19-.6,20.77-7.53,42.45-26.94,52.81-35.4,20.36-78.95,22.55-118.46,15.6-26.43-4.37-51.68-13.2-75.88-24.51-17.93-7.96-20.24-29.27-3.26-39.84-17.23-8.85-25-32.14-4.83-42.62-18.57-37.53,61.52-25.62,119.77-13.27,0-3.65-.12-7.3-.29-10.95-2.19-33.19-7.57-67.42-13.27-99.68-.31-1.63-.64-3.26-.97-4.89-1.9.37-3.94-.02-5.76-1.49-34.14-1.28-68.92-5.07-103.33-5.07-16.4,0-32.68.85-48.81,3.24ZM318.08,1011.95c-22.24-1.86-47.24-3.73-63.91-20.32-7.36-8.66-10.67-18.94-11.94-29.83-10.32.31-20.67.33-31.01.62-46.91,1.59-93.78,5.63-140.73,4.29-21.39-1.11-42.95-3.16-63.62-8.91-4.85-1.28-6.93-6.85-5.09-10.87-2.27-63.15-3.44-126.44,3.12-189.46,7.08-50.01,10.95-101.85,30.41-148.97,14.15-33.46,36.33-63.97,64.12-87.65-34.72-7.37-60.4-46.31-48.89-81.03-24.94-24.22-24.36-49.14-4.89-76.47,12.44-19.87,25.13-40.08,29.98-63.35,4.52-21.85,3.75-43.4.06-64.86-8.64-39.16-23.15-77.69-3.44-116.33,18.01-40.81,49.12-75.88,90.54-93.47,23.66-10.19,51.84-15.72,75.22-2.04,32.27-27.38,82.91-32.35,116.85-5.74,18.24,14.38,26.63,36.93,36.74,57.1,13.37,25.7,22.86,54.87,44.95,74.66,23.81,21.29,52.4,39.55,68.33,68.02,17.14,33.17,15.43,79.96-13.51,106.08,8.33,15.82,14.11,34.1,13.53,52.13-1.73,21.81-15.78,44.09-38.16,48.95,15.56,57.08-63.93,69.65-100.24,44.97-3.49-1.84-7.24-5.69-9.01-9.7-3.45,9.92-7.1,19.43-10.98,28.34,4.83-.6,9.99.33,14.79.45,43.63,3.55,89.59,16.42,120.15,49.49,42.31,49.14,63.99,111.17,75.92,174.26,9.06-.93,23.7,7.41,28.78,11.08,7.84,5.18,11.72,13.53,12.19,22.75,1.59,10.93,2.41,21.95,3.11,32.95,2.48,55.33-7.16,176.63-42.37,218.96-11.35,12.23-29.69,11.47-44.87,12.58-42.19,1.51-82.5,4.17-124.13,5.05-24.07-.04-48.07-1.88-72.04-3.73Z"/></g></g></g></svg>