<?xml version="1.0" encoding="UTF-8" standalone="no"?><svg xmlns="http://www.w3.org/2000/svg" xmlns:xlink="http://www.w3.org/1999/xlink" contentScriptType="text/ecmascript" fill="#000000" width="840" zoomAndPan="magnify" contentStyleType="text/css" viewBox="-29.9 -10.0 839.7 819.8" height="820" preserveAspectRatio="xMidYMid meet" version="1"><g data-name="Layer 2"><g data-name="Layer 2"><g id="change1_1"><path fill="#51233c" d="M404.88,809.75A405,405,0,0,1,247.27,31.83,406.56,406.56,0,0,1,522,17.2a19.5,19.5,0,1,1-11.26,37.33A366.43,366.43,0,0,0,404.88,39C203.13,39,39,203.13,39,404.88S203.13,770.75,404.88,770.75a367.14,367.14,0,0,0,89.32-11,19.5,19.5,0,0,1,9.49,37.83A406.53,406.53,0,0,1,404.88,809.75Z"/></g><g id="change1_2"><path fill="#51233c" d="M736.88,620.14a19.5,19.5,0,0,1-16.77-29.42,365.48,365.48,0,0,0,50.64-185.84,19.5,19.5,0,0,1,39,0,404.61,404.61,0,0,1-56.06,205.68A19.49,19.49,0,0,1,736.88,620.14Z"/></g><g id="change1_3"><path fill="#51233c" d="M631.85,112.91a19.42,19.42,0,0,1-11.48-3.75A369.88,369.88,0,0,0,588.61,88.4a19.5,19.5,0,1,1,19.61-33.71,406,406,0,0,1,35.14,23,19.5,19.5,0,0,1-11.51,35.25Z"/></g><g id="change1_4"><path fill="#51233c" d="M598.39,91.05a19.38,19.38,0,0,1-9.79-2.65c-3.33-1.94-6.75-3.86-10.16-5.7A19.5,19.5,0,1,1,597,48.38c3.77,2,7.56,4.17,11.25,6.31a19.5,19.5,0,0,1-9.83,36.36Z"/></g><g id="change2_1"><circle fill="#51233c" r="324.26" cx="404.88" cy="404.88"/></g><g id="change3_1"><path fill="#ffffff" d="M326.85,323.75c-21,0-34.17-22.95-23.29-40.89,15.59-25.68,45.29-46.49,96.47-46.49,72.65,0,105.12,42.1,105.12,87.08,0,38.92-22.35,58.1-40.72,66.2a1,1,0,0,0-.58.9h0a1,1,0,0,0,.65.92c23.75,8.46,53.75,30,53.75,79.42,0,48.62-29.74,102.49-118.86,102.49-56.2,0-88.24-23.29-104.23-51.74-10.57-18.79,3.07-42,24.63-42h.09a32.75,32.75,0,0,1,28.74,17.47c8.8,16.31,25.48,28.31,52.74,28.31,37.48,0,54.72-24.39,54.72-55.26,0-34.57-19.2-53.24-59.17-53.24h-2.85a24.38,24.38,0,0,1-24.38-24.39h0a23.63,23.63,0,0,1,23.63-23.63h0c35.9,0,50.86-12.79,50.86-42.32,0-24.75-15.4-41.54-46.17-41.54-24.73,0-37,9.61-43.71,22.1a31.14,31.14,0,0,1-27.44,16.62Z"/></g></g></g></svg>