<?xml version="1.0" encoding="UTF-8" standalone="no"?><svg xmlns="http://www.w3.org/2000/svg" xmlns:xlink="http://www.w3.org/1999/xlink" contentScriptType="text/ecmascript" fill="#000000" width="1160" zoomAndPan="magnify" contentStyleType="text/css" viewBox="-0.4 -1.9 1160.1 1133.8" height="1134" preserveAspectRatio="xMidYMid meet" version="1"><g data-name="Layer_1"><g><g id="change1_1"><path fill="#f2bc57" d="M481,680.61c-6.63,67.51,83.09,58.15,131.85,60.1,42.41,5.38,53.82-48.86,53.66-80.49,2.26-35.76,7.65-70.81-.83-106.57-16.7-36.49-90.43-19.75-125.19-25.12-76.53-8.05-54.75,97.69-59.49,152.07Z"/></g><g id="change2_1"><path fill="#443a39" d="M1130.67,379.55l-.27-5.51c-2.2-44.75-4.48-91.02-27.45-131.2-15.12-27.5-41.29-32.24-64.8-33.25-101.23-5.29-209.65-7.86-331.47-7.86-67.53,0-138.56.75-223.43,2.36-39.09.39-78.76,2.23-117.13,4-20.67.96-41.34,1.91-62.01,2.66-1.11.04-2.39.32-3.42.72-.17.04-.31.06-.49.06-.22,0-.43-.03-.63-.09-.93-.28-1.89-.43-2.86-.43-.11,0-.22,0-.33,0-23.12.77-43.44,1.14-62.13,1.14-23.37,0-44.65-.57-65.05-1.74-.19-.01-.38-.02-.56-.02-1.84,0-3.65.52-5.21,1.5-.35.22-.71.33-1.1.33,0,0-7.95-.16-11.91-.25-7.89-.18-15.72-.35-23.35-.35-6.72,0-12.58.14-17.91.42-.18,0-.36.02-.54.04-2.01.22-4.08.42-6.16.63-16.84,1.64-37.79,3.68-51.64,18.81-.29.32-.56.65-.81,1.01-17.49,25.06-20.56,55.03-23.52,84.02-.97,9.52-1.89,18.51-3.36,27.69-2.81,23.94-5.13,47.36-6.9,69.66-2.29,30.29-1.62,60.24.1,95.87,1.75,36.97,6.14,85.03,24.69,128.71,12.42,30.83,46.29,33.48,71.03,35.43l2.54.2c38,3.57,77.83,5.38,118.39,5.38,23.23,0,47.3-.59,71.6-1.76,23.44-1.31,46.82-2.77,70.17-4.22,30.11-1.88,61.25-3.82,91.86-5.38,5.2-.27,9.28-4.54,9.32-9.74.2-28.8,1.8-56.46,4.76-82.35,2.44-24.01,12.82-52.63,48.45-52.63,1.91,0,3.88.08,6.29.27,11.06.45,22.26.46,33.09.48,24.6.04,47.84.08,71.02,4.67,29.87,5.24,35.2,24.29,35.38,62.5.39,21.6-1.16,42.84-2.9,62.58-.24,2.74.68,5.46,2.54,7.49,1.86,2.03,4.49,3.19,7.24,3.19,12.56,0,23.56-.13,33.5-.38,76.23-1.01,152.42-4.49,216.97-7.77,36.58-2.14,75.89-5,115.57-11.39,36.75-6.4,71.64-18.27,77.96-61.06,10.04-55.29,8.03-111.87,6.09-166.59-.45-12.55-.89-25.08-1.2-37.84Z"/></g><g id="change2_2"><path fill="#443a39" d="M1118.83,857.58c-4.44-25.5-10.27-51.14-15.89-75.94-9.48-41.75-19.28-84.92-22.54-127.89-.22-2.9-1.71-5.55-4.08-7.24-1.68-1.21-3.68-1.83-5.71-1.83-.82,0-1.65.1-2.46.31-50.05,12.94-103.59,15.02-155.37,17.04-19.91.78-40.51,1.58-60.35,2.97-66.88,2.91-121.81,4.32-172.88,4.44-5,.01-9.19,3.78-9.74,8.75-6.43,58.38-26.95,68.24-70.52,68.24-8.8,0-19.11-.48-32.4-1.5-46.39-3.9-93.45-13.4-90.72-54.25.02-.3.02-.81.01-1.11-.06-2.22-.11-4.43-.15-6.65-.04-2.67-1.17-5.2-3.13-7.02-1.82-1.7-4.21-2.63-6.69-2.63-.18,0-.36,0-.54.01-19.12,1.06-38.23,2.22-57.34,3.38-62.57,3.8-127.28,7.73-190.86,7.73h-5.64c-33.55-.38-69.85-2.61-114.71-7.03-3.91-.19-7.73-.63-11.35-1.28-.58-.11-1.16-.16-1.74-.16-2.39,0-4.72.87-6.53,2.49-2.25,2.01-3.46,4.94-3.27,7.95.08,1.3.12,2.6.16,3.89.06,2.05.13,4.07.3,5.99l.21,5.74c.64,16.97,1.29,34.52.88,51.66-.82,36.82-4.63,74.25-8.32,110.44-2.8,27.54-5.7,56.01-7.28,83.9-2.45,27.49-2.76,62.74,16.81,91.7,27.12,38.26,71.75,56.71,104.63,65.5,34.28,8.35,72.58,12.24,120.52,12.24,23.02,0,46.34-.85,68.89-1.66,11.36-.41,22.71-.82,34.14-1.14,63.91-2.63,129.02-2.8,191.99-2.98,41.49-.11,84.38-.23,126.63-1.05,18.12-.4,36.37-.7,54.68-.99,47.95-.78,97.52-1.59,145.47-4.31,54.67-3.22,112.14-8.97,161.05-40.06.16-.1.32-.21.47-.32,60.85-43.82,46.2-130.87,35.5-194.44-.74-4.37-1.46-8.64-2.15-12.87Z"/></g><g id="change2_3"><path fill="#443a39" d="M312.32,204.83c.12,0,.24,0,.36,0,54.08-1.96,101.77-3.47,145.77-4.62,3.56-.09,6.79-2.11,8.44-5.26,1.65-3.15,1.46-6.96-.49-9.94-1.43-2.18-2.43-6.57-3.16-9.78-.04-.18-.08-.35-.13-.53-5.63-19.63-17.74-23.96-24.65-24.77-6.24-.97-13.25-1.44-21.44-1.44-6.78,0-13.55.32-19.52.6,0,0-5.2.24-5.41.27-3.63.39-7.38.72-11.2,1.06-23.78,2.13-50.74,4.55-70.63,20.2-.94.74-1.74,1.65-2.35,2.68-4.32,7.22-5.15,15.19-5.39,21.32-.11,2.73.93,5.38,2.86,7.32,1.85,1.85,4.35,2.89,6.95,2.89Z"/></g><g id="change2_4"><path fill="#443a39" d="M340.8,147.92c1.73,1.33,3.84,2.04,5.99,2.04.63,0,1.25-.06,1.88-.18,4.33-.84,8.84-1.61,13.36-2.33,11.61-1.66,23.83-2.77,36.34-3.31,2.73-.12,5.29-1.37,7.06-3.45,1.77-2.08,2.59-4.8,2.27-7.52-.25-2.1-.18-4.62.22-7.32.06-.44.1-.89.1-1.34.12-18.16,14.56-31.77,28.97-37.25,28.6-11.38,60.74-13.98,91.82-16.49l1.74-.14c11.8-.81,24.09-1.23,36.52-1.23,24.48,0,49.9,1.53,77.94,4.7,42.28,3.84,86.47,13.42,93.57,55.24.29,1.8.69,3.85,1.12,6.03.39,1.97.8,4.07,1.16,6.21.8,4.77,4.93,8.2,9.68,8.2.32,0,.65-.01.98-.05,7.11-.7,13.58-1.15,19.77-1.36,5.38-.18,9.62-4.67,9.49-10.05-.1-4.03-.24-8.05-.47-11.93-.94-21.17-6.09-41.69-15.2-60.76-9.09-20.22-21.8-32.97-38.05-37.96-20.07-5.57-40.83-7.3-60.91-8.98l-9.76-.83c-31.75-2.05-63.9-3.09-95.54-3.09-26.12,0-52.52.71-78.41,2.11-76.46,3.68-145.12,15.81-145.54,122.39,0,.47.06,1.13.12,1.6.21,2.79,1.59,5.36,3.8,7.06Z"/></g><g id="change2_5"><path fill="#443a39" d="M773.57,153.15c-11.04.56-21.66,1.73-30.2,2.67l-5.75.63c-22.66,3.17-25.82,13.43-28.07,28.95-.41,2.82.42,5.68,2.29,7.83s4.57,3.4,7.42,3.4c34.92.04,69.45.32,102.87.85,5.05.1,15.33.3,15.4.3,3.2,0,6.21-1.56,8.05-4.2,1.88-2.69,2.29-6.15,1.09-9.21l-.93-2.43c-2.18-5.8-4.9-13.02-11.13-17.77-9.13-6.91-22.83-10.59-42.21-11.25-3.11,0-6.03,1.47-7.88,3.97-.25.33-1.27.4-1.29.41-.93,0-1.58-.62-1.81-.88-1.87-2.09-4.54-3.28-7.32-3.28-.17,0-.33,0-.5.01Z"/></g><g id="change3_1"><path fill="#231615" d="M300.31,1131.81c71.92,0,143.78-4.64,215.7-5.24,80.07-.71,160.14.42,240.18-2.01,53.2-.82,106.38-1.25,159.51-4.16,64.42-3.24,136.38-9.53,188.85-51.53,55.16-52.07,42.23-137.32,30.38-204.75-8.78-50.75-21.92-100.61-31.4-151.21-3.91-21.72-8.02-43.64-8.94-65.73,30.91-12.24,45.63-45.18,48.43-76.87,7.46-51.67,5.12-104.16,3.53-156.15-3.57-65.94,1.75-156.38-52.36-203.51-10.99-8.27-24.32-12.52-37.88-13.98-25.34-3.2-51.02-3.41-76.5-4.33-39.18-1.43-78.36-2.83-117.55-3.82.96-11.36-9.9-27.45-16.47-34.09-8.38-8.15-19.68-12.45-31.13-13.9-6.33-.87-12.69-1.44-19.08-1.78-.42-5.71-1-11.14-.76-15.03-3.22-46.85-24.13-106.62-77.35-113.54C640.04-1.94,561.01-1.23,482.89,2.12c-39.62,2.38-81.95,5.06-115.26,28.96-19.52,13.16-33.18,33.81-38.09,56.77-4.7,17.38-8.86,35.17-7.29,53.3-.69,1.94-.77,3.88-.42,5.72-20.95,7.95-33.7,21.52-34.37,49.1-10.12.38-20.25.74-30.38,1.14-25.91.63-51.82,1.04-77.71-.54-2.51.06-5.16-.33-7.81-.69-5.41-.77-10.89-1.55-15.46,1.5-5.43.02-11.12-.08-16.95-.15-40.56-.63-88.59-1.27-108.88,38.45-14.38,29.77-16.32,63.6-20.52,95.91-3.15,26.47-5.98,52.95-8.05,79.53-2.13,27.2-2.09,54.49-.82,81.74,1.69,50.69,6.18,102.55,25.85,149.81,5.99,15.9,17.75,27.34,31.99,34.65-1.26,4.14.44,8.63.99,13,2.19,34.83,1.86,73.19-.98,108.72-2.97,42.27-8.92,84.29-11.58,126.56-2.38,32.26-6.87,65.96,4.91,96.97,34.46,86.21,140.83,107.5,224.2,109.03,8.02.13,16.03.19,24.05.19ZM828.67,172.01c4.64,3.52,6.55,10.1,8.84,15.97-5.17-.1-10.33-.24-15.5-.33-34.26-.54-68.51-.73-102.76-.77,1.81-12.43,2.54-18.3,19.72-20.7,9.25-.99,21.95-2.54,35.15-3.21,2.25,2.49,5.45,4.12,8.97,4.15,4.36-.13,7.25-1.8,9.21-4.37,14.51.5,27.98,2.92,36.37,9.26ZM479.84,180.27c-5.6-31.45-24.43-47.52-56.6-46.39-.16,0-.31,0-.47,0-.07-.48-.09-.97-.21-1.45.04-6.41-.17-13.48,3.49-19.01,24.68-32.28,146.43-30.32,186.65-27.6,31.64,3.68,65.46,2.67,94,19.14,13.44,8.34,17.71,23.94,19.43,39-4.84,1.36-9.52,3.2-13.89,5.77-13.7,7.14-15.65,23.02-17.81,37.12-72.09.14-144.17,1.23-216.24,3.02,1.74-2.76,2.43-6.2,1.66-9.6ZM696.06,186.86c.19-.24.34-.52.57-.75-.21.24-.36.51-.55.75h-.02ZM346.68,139.29c.36-93.5,54.54-108.69,136.19-112.62,57.56-3.11,115.3-2.74,172.84.98,22.98,2.03,46.41,3.3,68.68,9.47,15.52,4.78,25.34,18.32,31.72,32.53,8.55,17.91,13.46,37.34,14.35,57.17.22,3.91.33,7.83.42,11.76-6.81.25-13.61.71-20.37,1.39-.76-4.47-1.73-8.76-2.25-12.16-8.42-49.6-59.95-59.63-102.38-63.48-38.49-4.35-77.37-6.16-116.03-3.49-32.51,2.63-65.96,5.14-96.51,17.3-19.33,7.36-35.02,24.97-35.15,46.32-.46,3.2-.63,6.66-.25,9.91-12.48.55-24.93,1.57-37.29,3.35-4.82.77-9.42,1.59-13.87,2.46-.03-.29-.04-.59-.09-.88ZM316.34,178.34c20.6-16.21,51.53-16.53,76.79-19.22,13.27-.58,29.54-1.75,44.03.54,9.46,1,14.14,9.46,16.51,17.74,1.06,4.63,2.23,9.47,4.55,12.99-48.64,1.29-97.27,2.87-145.89,4.64.24-5.88,1.02-11.71,4-16.7ZM50.11,634.81c-16.8-39.57-21.98-82.91-23.99-125.51-1.52-31.53-2.49-63.16-.12-94.67,1.84-23.13,4.16-46.2,6.87-69.25,5.75-35.75,3.72-76.48,25.18-107.23,12.79-13.98,33.98-14.36,51.63-16.3,16.44-.88,34.46-.12,52.47.19,2.36.04,4.58-.63,6.48-1.82,42.67,2.46,85.37,2.02,128.09.6,1.13.33,2.3.54,3.48.54.98,0,1.94-.12,2.92-.36.42-.1.79-.28,1.19-.43,59.68-2.16,119.38-6.06,179.03-6.65,184.75-3.51,369.71-4.16,554.29,5.49,23.78,1.02,44.42,5.81,56.71,28.17,22.82,39.91,24.28,87.63,26.52,132.47,1.63,67.3,7.36,135.52-4.74,202.18-5.56,37.61-37.19,47.43-69.98,53.14-37.92,6.1-76.16,9.01-114.46,11.26-71.88,3.64-144.4,6.79-216.53,7.75-11.14.28-22.27.36-33.41.36,1.87-21.14,3.35-42.33,2.96-63.58-.15-34.37-3.8-65.04-43.5-72-34.6-6.87-70.23-3.87-105.41-5.29-40.85-3.26-61.03,23.03-64.9,61.18-3.16,27.61-4.6,55.48-4.8,83.32-53.98,2.76-107.86,6.52-162.08,9.55-62.85,3.03-125.85,2.3-188.53-3.59-24.22-1.94-54.85-3.38-65.38-29.52ZM490.84,681.5c-.11-7.99-.15-16-.11-24.01.17-29.85,1.63-59.75,6.18-89.19,2.53-14.13,10.72-29.63,26.75-29.63.33,0,.65,0,.98.02,17.53-.71,34.91-.04,52.24.65,13.6.54,27.2,1.07,40.87.94,12.87,2.26,32.64,1.76,38.4,15.8,6.56,25.93,3.82,53.24,2.59,79.69-1.37,10.87-1.82,22.18-2.76,33.4-.23,2.7-.48,5.4-.78,8.09-1.63,14.51-4.63,28.66-12.11,41.32-6.85,11.47-20.67,11.72-32.57,12.45-31.84,1.05-64.5-.61-95.03-10.3-15.32-5.01-25.64-11.97-24.51-29.54-.06-3.23-.1-6.46-.14-9.69ZM85.01,1033.98c-16.92-25.05-17.63-56.04-15.04-85.15,3.68-65.11,14.17-129.73,15.63-194.99.46-19.43-.4-38.86-1.11-58.27-.31-3.09-.26-6.51-.47-9.87,4.18.74,8.4,1.24,12.61,1.45,38.24,3.78,76.64,6.6,115.09,7.04h5.75c83.01,0,165.86-6.52,248.77-11.09.04,2.31.07,4.62.12,6.93-3.55,53.01,59.57,61.31,99.69,64.69,12.22.94,23.26,1.53,33.22,1.53,51.09,0,73.54-15.5,80.28-77.1,57.77-.15,115.55-1.83,173.29-4.35,72.31-5.06,147.23-2.14,217.77-20.39,5.26,69.33,26.62,136.48,38.53,204.85,10.15,62.31,30.46,154.54-29.42,197.66-46.85,29.78-101.38,35.31-156.36,38.55-65.76,3.74-133.66,3.84-199.79,5.29-106.27,2.05-212.58-.35-318.81,4.03-73.49,1.99-148.67,8.4-220.82-9.17-37.63-10.07-75.91-29.15-98.94-61.64Z"/></g></g></g></svg>