<?xml version="1.0" encoding="UTF-8" standalone="no"?><svg xmlns="http://www.w3.org/2000/svg" xmlns:xlink="http://www.w3.org/1999/xlink" contentScriptType="text/ecmascript" fill="#000000" width="1816" zoomAndPan="magnify" contentStyleType="text/css" viewBox="0.0 -0.6 1815.7 722.7" height="723" preserveAspectRatio="xMidYMid meet" version="1"><g data-name="Layer 2"><g fill="#c9b8ff" id="change1_1" data-name="Layer 1"><path d="M1813,437.9l2.75-4.15c-1.49-4.57-2.72-10.23-2.73-12.59s-1.25-11.61-1.92-16.5l-.56-4.47-.2-1.56c-2-1.45-3.1-2.89-2.42-3.21s1-2-.84-3,1.34-6.67,1.05-7-1.76-1.14-2.56-1.72.68-5.65,1.83-7.64-6.33-7.91-9.41-12.21l3.64-5.49a2.45,2.45,0,0,0,.2-1.78l-2.37-4c-2.68-4.33-5.54-9.1-6.37-10.6s-2.6-5.92-2.25-6.42-2-1.13-5.91-.58l4.79-6.06c.24-.29-1.48-2.48-1.56-3.85l-.23-4.29c-1.15-4.4-2.72-9.89-3.5-12.2s-3.69-9.94-4.6-12.57-3.41-10.87-4.08-12.07-4.16,0-4.6-4-4.58-13.16-3.6-16.2l-.24-.17-2.25-1.61c-1-3-3-5.87-4.36-6.4s-3.56-6.79-5.74-8.29l0-4.19c0-3.33-1.76-6.86-3.29-9.85L1751,232a26.21,26.21,0,0,0-5.07-.24c-.88.13,0-3.13.88-3.94s-2.55-4.09-3.16-6.44l-1-1.73c-1-1.75-2.93-2.6-3.87-4.35l-.34-.62c1.2-2.19-.67-5.54-4.16-7.44l-1.82-4.21-1.38-3.18c-1.52-3.5-4.23-9.76-6-13.91l-2.47-2.33-2.31-2.18a39.71,39.71,0,0,1-3.9-10.11c-.4-2.41-5.47-7.46-6.23-9.86s-5.56-5.85-5.08-7.88l-.53-.76c-1-1.41-2.89-1.7-4.06-3l-1.52-1.66a61.47,61.47,0,0,1-7.32-4.7l.13-.16,3.52-4.5c-3-2.41-6.7-4.75-8.29-5.2s-5.34,3.26-6.28,3.51-4.42.91-5.61,1.11-6.14,4.55-7.4,5.68-7.51-3.06-9.15-4.84a60.6,60.6,0,0,0-9.85-7.43c-2-.95-8.2-4.56-9.83-5.2l-1.39,1.73c-.17.21-1.67-.66-1.66-1l.32-6.53a101.46,101.46,0,0,1-9.42,6.16,143.23,143.23,0,0,0-13.27,9c-2.65,2.22-7.8,13.36-9.22,15.21l-1.43,1.55-.46.5c-.7.25-3.11,3.07-5.35,6.27l0,2.32.05,6c-3.25.71-6,2.15-6,3.2a2.81,2.81,0,0,0,1.92,2.48c.87.19,3.24,2.16,1.58,3.86s-5.93,8.14-5.74,10.49l-.46,2.44a15.59,15.59,0,0,1-2.73,6.31l-1.29,1.68c-2,1.16-2.69,2.92-1.58,3.9s-3.63,4.45-5,6.24l-.7,2c-.3.83,1.13,2.51,1,3.59l-.24,1.49c-1,1.44-2.7,3.78-3.88,5.2l-.59-.3c-2.4-1.21,0-2.14.3-3.31l.25-1.08a5.26,5.26,0,0,0-2.85-3.53c-1.42-.67-4.2-6.83-5.06-7.92s-4.14-5.58-5.37-7.15-2.4-10.84-3.83-10.84-5.75-1.07-5.26-2.37-.15-4.54-2.39-4.67-1-7.92-2.23-8.37-6.18-9-11.21-14.5l-2.66-6.87c-1.4-3.63-3.48-2.29-5.08-2.06-4.15.59-4.13.89-3.32-4l.55-3.35a19.77,19.77,0,0,0-5.15.68c-.71.31-2.79-1.57-3.18-2.07a17.42,17.42,0,0,0-4.26-3c-1.55-.67-7.68,2-10,3.13l-2,1.24c-.88.55-1.44,1.84-2.21,2.69l-5.32,5.85c-4.46-3.29-9.09-7.22-10.29-8.73s-7-5.3-10.12-5-12.19-6.34-14.57-7.78-11,5.07-13.94,6.23l-2.78.92-3.08,1c-3.43,1.09-5.94,8-5.58,15.3l-4.06,5c-1.69,2.08-.25,3.57.58,5.48l.32.73c-1.49,2-4,3.09-5.53,2.5l-.05-.77c-.2-3-2.13-4.32-3.15-2.83l-1.27,1.87c-.35,3.37-.1,7.27.55,8.68s4,4.59,2,4.59-6.15.26-6.2.57a2.47,2.47,0,0,0,1,1.8c.68.36,2.12,2.49.91,3.48s-3.23,5.06-2.21,7.14l-.17.17-3.42,3.5c-1.91,5.48-4.61,12.25-6,15.06s-6.24,11.07-6.49,9.13-1.59-6.45-2.57-6.64-4.3-1.44-3.27-2,2.63-4.79.45-7.63-9.86-9.45-10.53-10.93l-1.83-.73-1.19-.48c-.07-3.08-.5-6-1-6.36a2.74,2.74,0,0,0-2.51.15c-.54.39-1.23-2.16-.43-6.53l-5.13.22c-.37,0-1.09-3.51-1.19-5.43l-.09-1.91c-1-2.13-6.82-8.92-13-15.08l-4-7.75-.8-1.58a13,13,0,0,1-4.54-4.32c-.77-1.44-3.51-4.91-3.89-4.52a2,2,0,0,1-2.71-.86l.16-.24c2.34-3.53.72-4.4-1.77-6.06l-3.14-2.1c-3.06-3.28-7.77-8-10.47-10.57l-3.35,3.13-.75.7a21.38,21.38,0,0,1-5-4.85c-.79-1.31-5.54-3.14-9-1.37s-12.93,7-14.69,7.24l-1.92-.68c-4.13-1.46-6.28-6.6-11.16-7.23l-4.26-.55c-4.3.79-8.69,2.39-9.76,3.56s-5.64-.74-7,.47-5.58-1.41-6.22-.58a80,80,0,0,0-5.92,9.5c-1.87,3.79-6.5,16-6.54,18.44s-.9,8.87-1.44,8.51-2.69,1.46-2.73,5.38-7.2,11.57-7.36,15.22l0,3.33c0,.91.52,1.84.53,2.76l0,1.84a17.53,17.53,0,0,1-2.63,7.21l-1.2.72-4.43,2.65c-.77,5.46-2.06,12.5-2.88,15.64s-3.6,10.61-4.2,9.36-3.39-3.52-4.49-4.11l1.16-2,.59-1c-.16-1.76-1.89-4.92-3.84-7s-5.69-11.71-6.56-14-7-9-9.38-12.34l-.45-4.4c-.07-.76-.34-2-.72-2.14l-3.06-1.1c-.38-3.5-1.39-7.49-2.26-8.88a53.06,53.06,0,0,1-3.3-7.92c-.34-1.35-3.41-4.64-5.64-7s-6.32-11.63-6.8-12.36-3.62-2.36-5.59-2.54-.61-6.73-2.1-7.25-1.89-8-2.52-10.62-6.78-6.16-7.57-6.82-1.57-3.89-1.84-5.81-5.11-5.18-6.67-6-3.4-8.17-5.75-10.2-9.89-8.09-11.52-9-4.36-1.87-5.56-2.8-7.47.86-9,3.08-9.28,5.18-10.5,5.65-6.8-2.48-9.1-3.74-8.54,1.13-7.72,3l.09,1.7,0,.63c-1.58.83-6-1.23-9.84-4.57l-3.43,1.2c-5.58,2-12.18,3.49-14.21,12.5l-.33,1.48a78.94,78.94,0,0,0-.65,9.29l-2.57,2.47a22.48,22.48,0,0,0-3.71,4.07,4.13,4.13,0,0,0,.74,3.28l.89.67c1.31.17,2.28,2.13,2.15,4.36l-2.71,1.14-1.72.73c-.81,4.88-2.11,11.48-2.88,14.66s-3.9,13.65-5.24,16.2-5.1,9-4.32,9.31.41,1.3-2.16,1.47l1.58,3.52c2,4.54-1.63,4.54-2.6,6.47l-1.06,2.12a25,25,0,0,1-2.67,6.18c-.72.92-3.61.76-4.46.19s-3.88-5.23-5.84-8.29-7.74-12.63-8.22-14.76l-.72-1.77-.74-1.81a35.92,35.92,0,0,0-5.1-5.49c-1.64-1.39-6.61-6.86-7.58-8.8s-5.57-7.49-7.63-7.61l-2,.27c-3.29.44-6.38-.37-7.81-4.21l-1.46-3.91c-2.79-2.29-5.62-4.07-6.28-4s-2.41-.7-2.39-2.06-4-5.77-8.78-9.77l-3.92-4.47c-1.29-1.47-4.06-1.14-4.44-4.75a13.1,13.1,0,0,0-3.36.29l-1.36.32c-2.2.85-3.45.77-2.79-.17s.33-2.36-1.55-2-4.06-6.28-5.46-6.59-5.2-2.2-5.38-3.5-4.75-7.43-5.76-9.47-5.94,1.28-6.63,1v-.35l-.18-6.21a95.28,95.28,0,0,0-8.73,6l-1.8-2.62c-.2-.29-1.36,0-1.36,0l.09,5.51A10.47,10.47,0,0,0,898.92,82l-3.18.75-2.92.68c-3.15,3.8-7.35,4.77-9.33,2.17s-10.18-1.32-10.75-1.8l-.1-.58-.31-2c-1.24.08-2.77.22-3.42.31s-4.83-1.13-8-2.17l-5.4.26-1.88.09c-2.08-.87-4.64-.91-5.71-.08s-3.75-1.9-4.44-1.28l-.16.73-1.51,6.82c-4.94.85-10.72,1.9-12.84,2.33l-1.78.88L824.4,90.5c1.39,2.24,1.25,6.39-.3,9.22l-1.07,3-1.27,3.57c-1.68,4-3.78,8.95-4.68,11.06s-4.43,7.8-5.18,8.34-2.71,3-1.77,3.83,3.23,4,1.77,4.34-3.95,2.9-2,4.81l.34,1.85c.34,1.92-1.39,4.32-1.33,6.47l.06,2.35c-.12,2.55-.47,6.23-.77,8.19l.37,2.14.42,2.46c-1,3.34-3,5-4.61,3.74s-5.5-4-5.75-5.83-4.16-4.86-5.64-5.65-4.47-6.83-6.23-6.83-7.1-1.07-6.67-2.37.78-6.47-.37-7.93-6.93-7.07-9.55-9.46l-2.31.17c-3.62.27-5.37-2.68-7.95-4.39l-2.49-1.66c-3.18-.84-5.6-2-5.4-2.62a3.66,3.66,0,0,0-1.88-3.42c-1.48-.62-4-5.8-5-5.52l-.94.25-.88.23a1.47,1.47,0,0,1-.89-2.29l0-.93,0-1.48c-.32-1.63-2.6-4.47-5.07-6.32l-2.06-1.36a19.16,19.16,0,0,1-6-6.33l-1.91-3.27c-1.44,1.72-5.79,1.83-9.67.25l-1.08-2.89-1.55-4.13a59,59,0,0,0-7.35-8.1c-1.64-1.3-4.93-6.32-5.43-6.06s-2.1.32-2.37-.5-1.58-4.37-2.34-6.08S691.06,54,688.26,50.1l-4.68-.41L681,49.46c.3-4.82-.31-8.16-1.35-7.41s-3.47.35-4-.42.31-3.87.36-4.36-1.39-4.36-3.28-7.46-12-4.18-13.89-6.24l.67-3.64.17-.88a1.76,1.76,0,0,0-2.11-1.64l-.59.74c-.58.73-.29,2.61-.88,3.32l-.57.7c-1.17,0-2-.77-1.8-1.79l0-.91L653.64,16a35.9,35.9,0,0,1-5.76-2,1.57,1.57,0,0,1,.07-2.13c.75-.57-3.67-3.13-6-3.6s-8.51-6-10.45-5.61l-1.84.48-1,.25c-.87-2.67-2.17-4-2.89-3a13.74,13.74,0,0,1-6.41,3.57l-.19,4-.06,1.48c-3.56,1.25-8.1,2.88-10.08,3.64s-6.72,4.5-9.18,2.8l-2.35-1.28-2-1.1a70.63,70.63,0,0,0-6.91-2.1c-1.44-.31-6.18-.11-8,2.48l-2.66-3.55L577,9.1c-2.23.35-4.9.08-5.92-.58s-3.85.45-3.71,3.12-.34,5.19-1,5.6l-.56-.14-2.43-.61c-2.65-.84-5.76,1.14-6.91,4.39l-3.39-1-.28-.09c-.6,1.57-1.85,4.38-2.78,6.25s-3.05,4.7-1.67,4.32-1.61,10.36-4,16.31l-2.57,5.06L537.55,60c4.22,4.3,6.63,9.61,5.34,11.79s-4.85,8.54-5.16,9.18-1,6.36-1.69,11.47-3.61,18.86-3.3,19.85-1.25,3.26-2.84,3.8l-.34,1-.57,1.75c.27,2.32,1,6.57,1.62,9.45s-3.84,11.07-4.94,13.54-3.08,11.78-3.88,14.85-8.38,1.52-8.65,1.8l-.23.29-1.46,1.84c-1.21,1.54-1.19,5.18.05,8.08s3.34,14.5,3.94,19.25l1.85,2.84,2.25,3.45A23,23,0,0,0,520,206l.69,3.08.22.95a2.89,2.89,0,0,1-3.45,1.67l-.73-1-1.08-1.44c-.84-2-5.07-5.55-9.41-8l-2.08-5.68-1.9-5.18c-4.19-3.58-8.87-7.69-10.42-9.13s-7.8-4.32-9.66-2.73-6.69,6.36-6.35,6.83,2.16.7,3.42.22,1.26,2.72-.11,1.78l-2.13,3-3,4.19a155.53,155.53,0,0,0-13.48-12.15l-2.63,2.22L455.21,187a14.9,14.9,0,0,0-8.27,1.91c-1.81,1.26-2.2,11.54-1.77,14.42s-5.42,7.25-5.86,7.74-1.46,5.11-2.35,9.34l-1.73,3.73-1,2.1c3.41,4.89,4,9.05,1.37,9.24s-4.37,8.65-5.48,10.16-2.55,9.7-3.36,13.39-7.06,11.67-8,12.49-4.38,10.66-5.66,11.65l-.4-.41a16.55,16.55,0,0,1-3-4.86l-.9-2.1c-.77-2.42-2.26-4.85-3.3-5.4s-4-3.15-4.15-4.64-3.3-3.4-4.6-3.45-5.1-2.62-5.22-5.72l-1.14-1.41-1.13-1.41c-2.13,0-3.75-.7-3.59-1.53a6.46,6.46,0,0,0-2.69-4.74c-1.78-1.06-4.66-5.73-5.5-5.69s-3.45-1.69-5.26-2.66-4.76-6.09-5.62-4.74-2.7-4.3-3.38-5.8l-1.63,1.62c-.26.25-2.38-2.06-3.31-3.52l-1-1.54a7.32,7.32,0,0,0-5.29-4c-2.12-.28-8.84-9.61-12.07-13.13l-3.19-3-1.26-1.17a40.11,40.11,0,0,0-5.61-2.21c-1.47-.41-4.19-5.43-4.8-6.39s-3.14-2.14-4-1.55-5.19-1.57-8.64-4.09L310,186.45c-2.81-3.6-5.77-4.57-9.65-5.48-5.3-1.25-8.32-.35-10,6.21-.74,2.88-2.14,2.49-3.86,1.11l-1-.81a8.13,8.13,0,0,0-4.76.65c-1.32.67-5.61-1.1-7.47.12l-2.41-1.45c-2.62-1.58-3.86,2.55-5.64,4.31-1.95,1.95-2.31,3.95-.34,6.42l.23.3a4.77,4.77,0,0,1-5,2.54c-1.92-.37-.56,7.45-2.34,9.76l-.13,2.36-.33,6.29c-3.31,4.92-5.12,9.12-4,9.32s2.26,5,.14,10.29l-2.35,4.15-.56,1c-2.76-.46-5,1-4.88,3.16s-.48,10-2.78,13.29-7.65,15.69-6.34,19.58,8.28,15.1,8.71,18.65l-2.57,2.06-.54.44c-1.67-1.1-3-.12-3,2.17s-1.27,7.32-2.82,5.63-1.58-7.19-2.14-8.83-1.85-7.84-3.62-9.83-7.36-5.79-7.69-4.91-2.81,1.31-4.41-1.95l-1.24-2.83-.62-1.39c-.47-1.67-1.3-2.81-1.83-2.53s-2.44-.92-3.05-3.29l-.32.06-5.62.95c-5-3.72-10.39-7-12-7.39s-4.68-3.74-6.56-5.69-6.94-4.61-5.74-2.48,3.09,8.85,2.19,9.91-4.47,3.39-5.86,2.72.08-7.06-2.94-8.52-9.86-7.9-7.23-7.22,9.3,1.17,9.38-.31-1.86-2.31-4.44.79l-1.6-6.55-.28-1.12c-1.24-.86-2.87.05-3.6,2L166,251.41l-.81,1c-1.24-.7-2.95.59-3.79,2.87l-1.69-1.12c-1.85-1.24-1.25-3.42.12-5.27l.61-.82c.3-1.39-3.23-2.94-7.85-3.46s-18.31,6.22-21.7,5.08-13.41,1.89-14.32,4.37l-3-2c-2-1.32-2.94,2.22-1.82,3.89l3.54,5.27c-3.34.67-8,4.2-10.32,7.85l-1.73,3.72-.9,1.94c-.41,3.16-.16,5.46.54,5.11a23.18,23.18,0,0,1,5-1.16l1.15.21a4,4,0,0,1,.27,2.24,12.49,12.49,0,0,1-3.2,1.92l-.61.26c-.84-.05-.82,1.06,0,2.47s-3.36,7-5.52,8.56-4.55,9.67-5,9.77-1.21,1.28,0,2.33,3.72,5.43,1.6,6.25-6.83,4.13-6.42,5.82,3.25,5.42,5.23,3.78,8.35,3.27,9.76,4.25l0,.81c-.16,4.66,1.53,6.92,5,8l.61.2c.28,2.1-.55,4-1.86,4.21l-1.13-.25c-1.55-.35-3-1.39-4.58-1.59-.59-.08-1.77,1.22-1.85,2l-.1.93c.7,1.11,3.1,2.54,5.32,3.17s8.9-2.42,9.48-3.39l.41.06a6.3,6.3,0,0,1,3.2,1.54,5.34,5.34,0,0,1-1,3.17c-.94,1-2.46,1.05-3.4,2l-1,1.05c-1,1.94-3.64,2.21-5.9.61s-10.57-1.94-12.46-3-9.23-4.37-11.76-5.87l-.44.64-1.95,2.86c-2.71,0-5.41.27-6,.64s-2.55,2-2.86,2.94-1.33-2.89.08-6.19l2.85-1.31.48-.23c.09-1.74-.49-3.12-1.31-3.07l-.69.23-.6.21c-.62.45-1.39-1.09-1.72-3.41s-8-1.88-10.68-2.64l-2.35-1.22c-.57-.3-1-2.33-.81-3.26s1.45-1.37,2.3-1.57c.47-.12,1.05.92,1.65,1.09l.66.2c.79-.12,1.12-1.73.73-3.58l-.08,0c-2.7.71-7-3.89-7.88,3.69l-.08.73c-3.28-.73-5.11-1.74-4.07-2.25s3.56-3.25,1.88-4.31-5.62-2-5.62-.05-.66,6.74-1.46,6.17-2.9,1.29-3.33,5.08l2.91,2.44a16.74,16.74,0,0,1,3.58,4.6,4.37,4.37,0,0,1,0,3.35,2.58,2.58,0,0,1-2.66.81c-1.18-.43-2.12-1.94-3.31-2.37-1.86-.67-4-.39-5.75-1.27-3.8-1.87,0-4.49-.21-6.76l-.07-.76c-.39-.73-6.29-1.33-8.4-1.47S24.52,331.31,24,333s3.81.26,4.65-.28,3.55,4.21,4.59,6.1,8.23,5.46,10.85,6.4.14,10.05.88,10.79,3.37,2.65,4.2,2.65,3.08-2.24,4.15-3.78,6.5,1.61,8.3,2.89A118.52,118.52,0,0,0,73,363.6c2.44,1.1,5.2,10.48,5,12.67s4.12,5.91,3.92,8.11l-.5.13c-3,.84-7.84-6.23-6.14-9.63l1.64-3.27a13.12,13.12,0,0,0-4.42-1.25c-.9,0-4.85-.66-5.61-1.75s-5-3.94-6.75-3.74v.25l0,6.24c-3.09-1.58-6.89-3.71-8.45-4.74s-6.91-1.15-8.51-.39S37,369,36.63,369s.34,2.18,2.41,4.83l.09,1.88c.41,8.52,3.09-.57,4.2,1.11l.9,1.35c1.27,1.65,3.17,2.31,4.23,1.46s4.84-2.1,3.88.84L51.71,382l-.4,1a11.63,11.63,0,0,0-1.61,4.2c-.24,1.43-1.78,5.16.67,4.3s7.08,2.79,7.86,1.87,3.3-2.34,3.84-1.06,5.63,4.93,5.11,6,.38,6.46-.22,6.92l-.59.26-1.44.63c-1.6.61-2.34,3-1.64,5.38l1.19.76,1.64,1.05c2.27,0,3.94-2.86,3.72-6.38l2.23-3,.77-1.06c-1.46-3.89-2.39-7.32-2.06-7.6s1.67.19,2.23,1.71,3.1,4.32,4,6,3.16,6.13,2.79,6.49-1.92,2-2.59,2.8.66,4.73,1.24,5.93-1.49,4.18-.77,5.58,3.89,4.06,4.78,4a10.56,10.56,0,0,1,6.07,3.8c1.43,2.22,6.49,7.64,7.1,7.41s.75-2.58,1.29-3.5,2.17-2.53,3.42-1.06.39,7.64,2.6,9a130.5,130.5,0,0,0,12.54,6.36l2.18-.17.94-.07c1.16-2.64,2.67-3.29,3.37-1.45s3.76,5.49,5.36,4.29l1.32.22,4.21.68c3.74-2.55,7.68-3.81,8.77-2.81s4.89-3.51,6.6-4.52l1.7-.57.33-.11c1,1.46,1.88.54,2-2.06s1.09-10.43,1.51-8.87,2.39,4.44,3.51,3.25l.51-1.19c.25-.59-.8-2.19-.53-2.64l1.36-2.29c1.06-2.83,3-5.83,4.27-6.68l.87-1.14c.6-.79.57-2.3,1.05-3.31,3-6.23,3.71-13.79,8-19.43l1.46-1.92c.18-4.62-.18-8.88-.81-9.47s1.38-3.9,2.06-5.71,4-4.29,6-1.23l3.79-.18c2.74-.13,4.31,4.69,6.57,7.08l3.48,3.67c4.29,1,8,4.33,8.23,7.48s7.79,6.56,9.47,8.59,10.79,8.6,15.19,12.57l3.42,4.57,3.39,4.52a200.12,200.12,0,0,1,17.54,15.55L258,450l2.77,1.84c3.86,2.21,7.74,5.64,8.63,7.62s4.49,7.41,6.24,7l1.66-.81.47-.23a23.7,23.7,0,0,1,3,5.75c.7,2,5.51,10,9.37,13.31l2.91,4,3.19,4.35c4.67,2.23,8.75,5.05,9.07,6.26l-.2,1.39-.1.77c1,1.06,5.05,4.85,9.06,8.42s15.22,16.2,17.22,18.07l2,1.21c1.59,1,2,6.59,5.11,2.25l.08-.1a25.32,25.32,0,0,1,3.35,5.2c1.18,2.3,5.77,7.59,6.49,7.84s6.13,4.41,11.05,7.92,18.32,14.33,19.49,14.92,4.51-1.51,4.88-1.87,4-2,7.79-3.81,15.65-1,17.19-2.76l1.4-1.78,3.3-4.19c3.31-4.72,7.47-10.41,9.23-12.64s2-11.8,2.51-13.23,3.81-6.17,5.24-8.23,2.35-10.59,2.72-11.81,6.75-1.87,12.76,2.92l1,9.05.13,1.17c2,1,6.39,6.39,9.66,12l3.75,3.9c3.81,4,6.41,9.26,11,12.71,4,3.05,6,10.35,9,15.76.19.36.6.57.7.94l1.17,4.24c3.4,1.11,6.53,3.67,6.94,5.68s5.67,4.63,6.95,5.9,6.18,8.16,8.46,11.28,11.71,14.78,15.7,19.19,17.44,16.14,20.08,18,11.64,4.56,13.69,4.32,7.52-4,9.62-5.1,9,.46,10.81,2.28l2.56-3,1.05-1.21c2.54,1,5.5,1.4,6.56.95s2.37-3,.59-3-4.55-3.9-2.2-8.67,13.85-8.11,13.84-9.23-.17-5.89-.41-8.55,5.49-11.68,7.68-16.46,6.23-21.55,7.32-24.55,5.26-10.69,6.06-8.79,5,6.85,7.28,8.34l1.3,2.12,1.7,2.8a41.89,41.89,0,0,0,7.54,13.27l2.37,3.64c2.28,3.52,4.85,6.94,6.47,10.94l3.31,8.18c5.79,6.43,10.83,12.13,11.2,12.67s3.69,4,6.41,6.71S677.61,629.5,681,632.35s15,13.52,18.42,16.81,15.33-2,16.76-2.91,7.28.84,8.67.12,5.27-2.41,5.9-1,3.39,4.1,4.74,2.95,6.24-8.17,7.28-12.57,6.08-17.8,7.43-20.06l.28-2.23.23-1.86c-1.09-2.68-.79-4.86.67-4.86s5-.42,5.31-.92.43-5,.21-9.22l2.47-3.09.89-1.12c.57-1.62,2.5-8.17,4.28-14.54l3.42-4.58c.66-.89,1.65-2,1.63-3l0-2.16c-1.17-2-3-4.91-4.09-6.4l.25-.72,1-2.92c.84,1.86,2.64,2.24,4,.84s7.48-4.59,9.17-2.42-1.48,9.68-.83,10,2.15,2.4,1.92,3.83a35.22,35.22,0,0,1-2.36,7.1l-.68,0c-.7,0-1.54-1-2.08-1.88-.36-.56-.1-2-.46-2.26-.8-.55-2.06-1.12-2.68-.67a4.08,4.08,0,0,0-.92,3.18l1.1,2.11c1.64,2.14,2.45,4.12,1.78,4.41s-1,1.84.79,2.79,3.41,7.7,4.05,8.17l.55-.12c1.32-.27,2.7-1.45,3.87-1.13l.73.21c.5,1.88,1.19,4.72,1.52,6.31l0,1.5,0,1.14a14.41,14.41,0,0,0,3.36,4.55c1.38,1.24,7.8-1,9.69-.12s8.71-2.44,11-2.45,9.06-2.74,11.21-3.1,8.71-2.56,10-3.55,5.68-1.89,6.3-3.15l-.23-.9c-.81-3.24-1.65-.51-2.55.13a2.6,2.6,0,0,1-1.84.56l-.59-.11a1.72,1.72,0,0,1-.42-2c.36-.5.9-2.3.22-2.6s-2.64-2.36-1.78-3.41,4.84-3.3,7.09-4.79,2.49-9.09,2.44-9.74.42-2.51,1.16-2.71,2.73,1,3.51,1.77,2.53-2.19,2.23-3.76l-.3-1.49c-.12-.6-.35-1.67-.21-1.76.55-.37,1.46-.86,1.81-.54,1.33,1.19,3.59,2.77,3.53,4.05l-.24,5.07c2.94.72,5.63,1.62,6,2s1.31,2.22,2.25,3.78,3.72,7.26,4.91,8.28,3.49,6.68,4.1,8.22,4.33,5.92,5,8.55,6.59,8,7.52,9.1,1.31,7.28,3.06,8.83,7.42,11.54,11.16,17.62l3.32,5.45c3.22,5.31,6.29,11.39,11.24,14.88l.86.61c.72,1.17,2.19,4,3.27,6.32s7,10.26,10.76,12.55l3.4,2.12,1.72,1.06c1.23,2.92,3.23,5.9,4.43,6.62s4.76,2.37,6.55,1l1.23,2.72,1,2.09c1,2.81,3.45,2.36,5.5-1s12.12-1.09,13.69-1.57,5.45-3,8,.12,12.38.64,13.11,1.36,2.83,3.64,3.77,4.25,5.46.85,7.72,3.52,10.4,1.7,9.87.59-.06-4.29.54-6.22.43-8.54,0-10.1a85.05,85.05,0,0,1-1.23-9.56,117.24,117.24,0,0,1,1.3-18l5.27.15,2.18.06c0,2.73.12,5.62.14,6.43s1.13,3,2.38,3.13l.45-.67,1.87-2.79c1.67-3.53,3.54-7.9,4.16-9.7s1.72-7.05.78-7.27a18.53,18.53,0,0,1-4.16-1.54v-.33l0-4.32c0-4.73.89-9.14,2-9.79s5.74-2.52,7.19-3.89,6.06-9.23,7.06-14.09l-1.68-4.73-.75-2.13c.34-3.83,1.13-6.47,1.76-5.88s1.82,0,1.52-2.38,4.84-4.74,4.93-6a47.42,47.42,0,0,0-.56-7.24c-.27-1.41,1.47-4.11,3-2.11s5.45,9.18,7.26,10.69,2.94,10.32,4.19,12.35,5.93,9.17,6.49,12.41l1.44,1.64,1.58,1.78a54.82,54.82,0,0,1,3.29,7.48c.6,1.86,4.55,8,6.52,10.41s4.69,11.35,4.89,11.77,3,1.87,5.5,2.77,2.56,10.11,2.68,10.34,2,3.45,3.8,7.12,12,9.49,14.17,11.37,8.18,13.62,12.45,17.93l3.69,4.2,2.12,2.42c2.29-.86,4.44-.81,4.76.11s5.38,1.81,8.91,1.21,13.75-2.6,14.87-2.87.74,5.69.4,7.19l2.91-.29,1.37-.13c1.54.9,4.15,2.63,5.8,3.84s7.92,4.59,9.7,5.83,7.88-2.3,9.65-2.12,6-6.28,7.54-7.61-.8-7.38,0-8.19,1-6.51.32-10.62l1.16-2.12,1.84-3.36c2.72,2.57,5.16,4.4,5.42,4.06s-.18-3.64-1.59-6.59l3.56-1c1.5-.4,3.25,1,4.87,1h.37c.3-2.13,0-4.44-.72-5.13s-3.24-3.12-4.06-3.9-2.39-4.38-1.14-5.75,3.6-6.08,5-7.59l1.58-1,3.7-2.44a132,132,0,0,0,9.52-21.25l3.24-5.41,3.13-5.24c.67-6.37,3.29-12,5.83-12.45l1.49-1.29,2.82-2.44a108.33,108.33,0,0,0,8.92,6.56l2.61-.3,1.14-.13c1.1-1.23,5-1.9,8.54-1.49l1.75,2.16,3,3.66c2.12-2.17,4.22-3.77,4.66-3.55s1.34,1.27,1,1.76,0,2,1.71,2.13,6.17,3.25,7.62,2,5.76,3.62,7.41,3.62,6.84-2.78,7.66-6.17l1-2.91.78-2.19a36.91,36.91,0,0,1,3.85-5.32c.81-.8,2.08-7,2-7.14a.82.82,0,0,1,.43-1,35.63,35.63,0,0,0,5-4.34l-1.59-3.89-1.1-2.7c.49-4.12,3.41-9.13,6.48-11.12s9.47-12.42,10.33-14.6,3.57-8.86,4.11-10l.55-1,.92-1.69c1.07-1.76,3.27-5.58,4.89-8.49s8.93-12.1,9.2-18.62l4-5.26,2.8-3.66c1-6.6,3.51-10.17,5.56-7.93s5.82,13.22,7.53,15.59,3.5,13,4.65,15.55,6.78,6.76,7.22,7l0,.14-.35,2.12c-.35,2.2,1.13,5.31,3.29,6.89l1.48,2,1.22,1.65a62.51,62.51,0,0,1,1,6.22c0,.71.47,2.56,1,2.53a6.17,6.17,0,0,1,3.76,3l1.06,1.86c1.66,2.88-1.9,7.44,2.4,9.85,1.87,1,2.8,4.8,4.1,7.38.33.66.24,1.84.66,2.21l2.1,1.84a31.82,31.82,0,0,0,3.75,8.35c1.17,1.51,5.65,8.15,8,10.86l1.52,3.46c1.45,3.29,5.89,5.51,6,8.44.32,6.24,6.31,3.55,7.07,9.36l.52,3.94c3.63,4,7.23,6.76,8,6a32.84,32.84,0,0,1,6.38-4c2-.82,5.42,6.61,5.54,7.26s1,2.13,1.51.23l.35-1,.25-.73c.61-1.06,2.29-.91,3.73.34l1.29,1.15.74.66c.75.72,2.79.59,4.53-.28s6.53,5.8,8.81,7.55,9.9,6.37,11.38,8.44,9.34,2.13,11,2.1,6.29,1.58,7,1l.06-.7,0-.54c-.85-.8,1.79-2.51,5.85-3.79l3.5-1.68c1.4-.67,2.51-2.65,3.51-4.28l1.4-2.27c-1.21-1.85-1.44-4-.49-4.76s3.26-6.93,5.92-10.79l-.44-5.2c0-.25,2.29-1,3.54-1.22l4.33-.79c.21-4.35,1-9.14,1.7-10.63s1.51-6.23-.26-5.73l-1.32.21c-.65.1-1.59.07-1.93-.43a4.31,4.31,0,0,1,.1-2.32c4.34-.35,7.19-3.72,9.95-7.46l2.58-3.48c2.8-3.46,5-7.31,4.78-8.56s-.15-4.18.39-3.9,2.13-.65,2.18-2.78,3-7.42,2.43-9.06l.51-1.56.61-1.85c.91-1.86,2.18-3.32,2.81-3.25s2.5-1.42,2.65-3.55l2.37-.19c1.47-.12,2.95-2.47,4.28-2.26,1.76.29,4.37,1.61,4.89,3.32l2.2,7.26c5.38,3.89,10.36,5.59,11.08,3.78s3.39-6.47,3.53-4.25,2.82,7.93,5.7,8,11,1.1,11.74,1.7a14.55,14.55,0,0,1,3.38,7.72c.27,3.43,8.93,2.66,10.68,4.23s8,8.65,10.44,11.53l2.88-4.35.23-.35c.92.35,4.71.19,8.44-.35l2.53-3.41c2.42-3.27,4.32-6.14,4-11.09l-.17-2.59c1.06-3,3.25-5.78,4.88-6.2s2.17-5.74,3.22-5.44,4.81,1.31,6.13,1.21,1.2-3,.76-3.91,2.33-2.57,2.87-3.37l-.09-.64-1.13-8c3.12-2.56,4.08-4.12,2.14-3.46s-5.52,1.47-5.35-4.14l4.86-.49,1-.1a24.82,24.82,0,0,0,3-.05c.53-.07,2.94-1,1.82-1.61s-3.4-4.35-1.3-6.33,9.25-.88,9.78-1.71l.27-.92.76-2.65a39.43,39.43,0,0,0,1-9.21c-.15-2.09,5.52-5.51,8.78-6l3,.28.43,0a47.24,47.24,0,0,1,1.16,6.05c0,.42.8,1.36,1.58,1.86s2.47,2.65,2.08,3.52,1.52,3.75,3,4.73l.83,1.4,1.47,2.47c1.29,2.87,3.3,4.61,4.46,3.87s6.54,2,9.3,2.36l2.53-.6,2.54-.6c2.77-.79,6.51,0,8.32,1.67l.09,1.69.28,5.3a40.79,40.79,0,0,1,8.94,5.73c1.72,1.65,6.79,7.55,7.9,8.76s5.42-.28,7-1.45,2.8-10.91,2.78-15.18,2.3-16.74,5.14-18.8l2.29.13,2.17.13c3,2.84,5.34,2.8,5.17-.1s0-10.61.39-11.21,1.79-1.5,2.27-.71,2.65,3.23,3.19,2.76,2.33-3.9,3.7-6.17,8.57-5.34,10.06-8.14,3.23-13.16,3.7-15,5,.17,6.41-1.21l.67-1.65c1-2.47,1.33-5.38,2.2-8,.41-1.23,1.28-2.75,2.19-3.09l3.07-1.15a44,44,0,0,0,9-3.24v-.82l0-2.55c-.54-2.78.35-5.29,2-5.56s3.27-7.38,4.54-9.59l1.52-1.69a11.59,11.59,0,0,0,2.34-5.21l.64-3.2c-1.16-6.63-2.26-12.41-2.46-12.84ZM123.52,261.26c-1.28,1.67-5.55,5.84-6.7,6.16l-.53-.56-.59-.63a21.67,21.67,0,0,1,1.62-7l1.06-2,1.94-3.6C123.35,256.18,124.79,259.59,123.52,261.26ZM195.64,277c-1,0-4.57-1.89-5.7-4.23l-2-1-.32-.17a6.57,6.57,0,0,1,1.36-4.28l.47.24,2.27,1.19c2.35,1.73,4.49,3.91,4.77,4.83S196.64,277,195.64,277Zm27.73,19-3.82.05c1.5,2.2,2.55,4.58,2.33,5.28s-1.76,1.94-2.84,1.09l-.63-1.1c-1.4-2.48-2.69-7.49-3.83-7.4l-6.07.45c-3.51-5.4-6.53-10.54-6.71-11.43l.17-.74.13-.58c.58-.47,5.59,3.27,7.64,2.76s4-.11,4.41.92a32.19,32.19,0,0,0,2.35,4.53c.43.57,6.81,1.72,7.82,2.37l.1.8C224.54,293.88,223.77,295.92,223.37,295.93ZM807.54,566.44c-.7.31-3.06-.58-4.12-1.37s-5.45-4.52-7.47-6.32-4.33-8.14-2.93-9,4.15,3.57,6.13,9.88l5.81-.18c.79,0,1.83,1.08,2.35,2l.71,1.28C808.46,564.46,808.24,566.12,807.54,566.44Zm9.47-.05c-1,1.65-4.28,3.75-5.26,1.68s4.67-7.78,5.56-6.67S818.06,564.75,817,566.39Z"/><path d="M40.81,361.31c1.42,0,6-.8,6.3-1.46s-1.19-1.19-3.25-1.15a63.68,63.68,0,0,1-8.93-.67c-.79-.28-2.16-2.27-2.85-3.31s-4,.45-4.67.4-1.66-1-.87-2l.44-1,.28-.68c-.13-1.71-1.41-2.12-2.84-.92l-1.21.22-2.32.41c-1.25-2.46-2.73-4.34-3.28-4.17a2.73,2.73,0,0,1-2.72-2.21c-.12-1.63-1-6.33-1.69-6.24l-.34.35c-1.75,1.82-2.86,4.78-5.85,4.28-.76-.13-2.36,1.51-2.45,2.51l-.15,1.57C5,349,5,351.16,4.44,352s-.27,4,1.15,3.66,4.75-2.27,5.68-1.92,2.76,1.56.3,3-4.4,7-3.41,4.93,5.93,1.3,6.77.59,2.55-3.37,3.59-4,3.49-.17,2.29,2-2.25,9-.22,10.68l2.09.65,1.28.39a13.18,13.18,0,0,0,4-4.17c.59-1.22,4.17.5,4.85.7s2.92-.47,3.44-1.84S39.38,361.27,40.81,361.31Z"/><path d="M6.87,306.52l2.63-2.13c1.71-1.39,5.67-2.38,5.22,3.77a4.47,4.47,0,0,0,.21,2.43c1.65,2.11,6.26,1,4.75,6.42l-1.26,4.5c2.48,1.78,5.68,3.4,7.1,3.6s.73-5.31.26-6l-.54-.51-3.46-3.23c2.51-1.76,5.8-2,7.31-.64s2.65,8.53,3.24,9.41l.7.61c1.71,1.48,2.3-4.49,4.81-1l1,1.38c2.57-.19,5-2.12,5.31-4.29s-.51-7.22-2.69-6.42-7.83,3.12-9.12-.68l-.88-3-.39-1.34a6.3,6.3,0,0,0-3.14-4.56c-1.6-.82-6.4-4.43-7.22-5.85L20,299l-3,.21c-3.24.48-6.86-.32-8-1.77s-5.73.06-4.73,1.12S6.55,304.4,6.87,306.52Z"/><path d="M6.6,325.86c2.19-.64,10.36,1.73,10.94,2a10.11,10.11,0,0,0,3.31,1.28c1.16,0,3.14-1.7,2.76-2.66s-1.87-1.09-3.31-.3-5.91-6.24-8.41-8.21l-2.62-.84c-1.17-.37-2.74,2.08-4.22,2.3l-5,.75C1.44,323.93,4.41,326.49,6.6,325.86Z"/><path d="M76.39,413.8C75.81,412.6,78,410,77.48,409a2.18,2.18,0,0,0-3.46-.13c-1.1,1.31-2.32,12.2-.65,12.23a6.2,6.2,0,0,0,4.26-1.41C78.29,418.92,77,415,76.39,413.8Z"/></g></g></svg>