<?xml version="1.0" encoding="UTF-8" standalone="no"?><svg xmlns="http://www.w3.org/2000/svg" xmlns:xlink="http://www.w3.org/1999/xlink" contentScriptType="text/ecmascript" fill="#000000" width="54.3" zoomAndPan="magnify" contentStyleType="text/css" viewBox="20.9 37.8 54.3 20.5" height="20.5" data-name="Layer 1" preserveAspectRatio="xMidYMid meet" version="1"><g id="change1_1"><path fill="#51233c" d="M42.35,43.75a1,1,0,0,1-1-1h0a1,1,0,0,1,1-1h0a1,1,0,0,1,1,1h0a1,1,0,0,1-1,1h0Zm26.2-.85a1,1,0,0,1,.72-1.22h0a1,1,0,0,1,1.22.72h0a1,1,0,0,1-.72,1.22h0a1.07,1.07,0,0,1-.25,0h0A1,1,0,0,1,68.55,42.9Zm-39.25,0A1,1,0,0,1,30,41.66h0a1,1,0,0,1,1.24.68h0a1,1,0,0,1-.67,1.24h0a.9.9,0,0,1-.28,0h0A1,1,0,0,1,29.3,42.9Zm24.85.64a1,1,0,0,1-.63-1.27h0a1,1,0,0,1,1.26-.63h0a1,1,0,0,1,.63,1.26h0a1,1,0,0,1-.95.69h0A1.12,1.12,0,0,1,54.15,43.54Zm2.35-.76a1,1,0,0,1,.28-1.39h0a1,1,0,0,1,1.39.29h0a1,1,0,0,1-.28,1.38h0a1,1,0,0,1-.55.17h0A1,1,0,0,1,56.5,42.78ZM26.83,43a1,1,0,0,1-.25-1.4h0A1,1,0,0,1,28,41.35h0a1,1,0,0,1,.25,1.39h0a1,1,0,0,1-.82.43h0A1,1,0,0,1,26.83,43Zm39.25-.08a1,1,0,0,1-.2-1.4h0a1,1,0,0,1,1.4-.21h0a1,1,0,0,1,.2,1.4h0a1,1,0,0,1-.8.4h0A1,1,0,0,1,66.08,42.91Zm-21.77-.63a1,1,0,0,1,0-1.41h0a1,1,0,0,1,1.42,0h0a1,1,0,0,1,0,1.41h0a1,1,0,0,1-.72.31h0A1,1,0,0,1,44.31,42.28ZM39,42.16h0a1,1,0,0,1,0-1.41h0a1,1,0,0,1,1.42,0h0a1,1,0,0,1,0,1.41h0a1,1,0,0,1-.68.27h0A1,1,0,0,1,39,42.16Zm32.2-.53a1,1,0,0,1-.14-1.4h0a1,1,0,0,1,1.41-.14h0a1,1,0,0,1,.14,1.41h0a1,1,0,0,1-.78.36h0A1,1,0,0,1,71.22,41.63Zm-39.3-.08a1,1,0,0,1-.14-1.41h0A1,1,0,0,1,33.19,40h0a1,1,0,0,1,.14,1.41h0a1,1,0,0,1-.78.36h0A1,1,0,0,1,31.92,41.55Zm19.51-.22h0a1,1,0,0,1,.14-1.41h0a1,1,0,0,1,1.4.14h0a1,1,0,0,1-.15,1.41h0a1,1,0,0,1-.63.22h0A1,1,0,0,1,51.43,41.33Zm7.29-.53a1,1,0,0,1-.06-1.41h0a1,1,0,0,1,1.41-.07h0a1,1,0,0,1,.07,1.42h0a1,1,0,0,1-.74.32h0A1,1,0,0,1,58.72,40.8Zm-34.1-.13h0a1,1,0,0,1,0-1.41h0a1,1,0,0,1,1.41,0h0a1,1,0,0,1,0,1.42h0a1,1,0,0,1-.69.27h0A1,1,0,0,1,24.62,40.67Zm39.31-.06a1,1,0,0,1,0-1.42h0a1,1,0,0,1,1.41,0h0a1,1,0,0,1,0,1.42h0a1,1,0,0,1-.69.28h0A1,1,0,0,1,63.93,40.61ZM46.23,40a1,1,0,0,1,.22-1.39h0a1,1,0,0,1,1.4.22h0a1,1,0,0,1-.22,1.4h0a1,1,0,0,1-.58.19h0A1,1,0,0,1,46.23,40Zm-9.09.18a1,1,0,0,1-.27-1.39h0a1,1,0,0,1,1.39-.26h0a1,1,0,0,1,.26,1.39h0a1,1,0,0,1-.82.44h0A1,1,0,0,1,37.14,40.13Zm36-.86A1,1,0,0,1,73.77,38h0A1,1,0,0,1,75,38.6h0a1,1,0,0,1-.6,1.28h0a1,1,0,0,1-.34.06h0A1,1,0,0,1,73.16,39.27ZM33.88,39.2A1,1,0,0,1,34.54,38h0a1,1,0,0,1,1.25.65h0a1,1,0,0,1-.66,1.25h0a.79.79,0,0,1-.3,0h0A1,1,0,0,1,33.88,39.2Zm15.74.64a1,1,0,0,1-.7-1.23h0a1,1,0,0,1,1.23-.7h0a1,1,0,0,1,.7,1.23h0a1,1,0,0,1-1,.73h0ZM61,38.78a1,1,0,0,1,1-1h0a1,1,0,0,1,1,1h0a1,1,0,0,1-1,1h0A1,1,0,0,1,61,38.78Zm-39.26,0a1,1,0,0,1,1-1h0a1,1,0,0,1,1,1h0a1,1,0,0,1-1,1h0A1,1,0,0,1,21.73,38.75Z"/></g><g id="change1_2"><path fill="#51233c" d="M42.35,51a1,1,0,0,1-1-1h0a1,1,0,0,1,1-1h0a1,1,0,0,1,1,1h0a1,1,0,0,1-1,1h0Zm26.2-.85a1,1,0,0,1,.72-1.22h0a1,1,0,0,1,1.22.72h0a1,1,0,0,1-.72,1.22h0a1.07,1.07,0,0,1-.25,0h0A1,1,0,0,1,68.55,50.15Zm-39.25,0A1,1,0,0,1,30,48.91h0a1,1,0,0,1,1.24.68h0a1,1,0,0,1-.67,1.24h0a1,1,0,0,1-.28,0h0A1,1,0,0,1,29.3,50.15Zm24.85.64a1,1,0,0,1-.63-1.27h0a1,1,0,0,1,1.26-.63h0a1,1,0,0,1,.63,1.26h0a1,1,0,0,1-.95.69h0A1.12,1.12,0,0,1,54.15,50.79ZM56.5,50a1,1,0,0,1,.28-1.39h0a1,1,0,0,1,1.39.29h0a1,1,0,0,1-.28,1.38h0a1,1,0,0,1-.56.17h0A1,1,0,0,1,56.5,50Zm-29.67.21a1,1,0,0,1-.25-1.39h0A1,1,0,0,1,28,48.6h0A1,1,0,0,1,28.22,50h0a1,1,0,0,1-.82.43h0A1,1,0,0,1,26.83,50.24Zm39.25-.08a1,1,0,0,1-.2-1.41h0a1,1,0,0,1,1.4-.2h0a1,1,0,0,1,.2,1.4h0a1,1,0,0,1-.8.4h0A1,1,0,0,1,66.08,50.16Zm-21.77-.63a1,1,0,0,1,0-1.42h0a1,1,0,0,1,1.42,0h0a1,1,0,0,1,0,1.42h0a1,1,0,0,1-.72.31h0A1,1,0,0,1,44.31,49.53ZM39,49.41h0a1,1,0,0,1,0-1.41h0a1,1,0,0,1,1.42,0h0a1,1,0,0,1,0,1.41h0a1,1,0,0,1-.68.27h0A1,1,0,0,1,39,49.41Zm32.2-.53a1,1,0,0,1-.14-1.4h0a1,1,0,0,1,1.41-.14h0a1,1,0,0,1,.14,1.41h0a1,1,0,0,1-.77.36h0A1,1,0,0,1,71.22,48.88Zm-39.3-.08a1,1,0,0,1-.14-1.41h0a1,1,0,0,1,1.41-.14h0a1,1,0,0,1,.14,1.41h0a1,1,0,0,1-.78.36h0A1,1,0,0,1,31.92,48.8Zm19.51-.22h0a1,1,0,0,1,.14-1.41h0a1,1,0,0,1,1.4.14h0a1,1,0,0,1-.15,1.41h0a1,1,0,0,1-.63.22h0A1,1,0,0,1,51.43,48.58Zm7.29-.53a1,1,0,0,1-.06-1.41h0a1,1,0,0,1,1.41-.06h0A1,1,0,0,1,60.14,48h0a1,1,0,0,1-.74.32h0A1,1,0,0,1,58.72,48.05Zm-34.1-.13h0a1,1,0,0,1,0-1.41h0a1,1,0,0,1,1.41,0h0A1,1,0,0,1,26,48h0a1,1,0,0,1-.69.27h0A1,1,0,0,1,24.62,47.92Zm39.31-.06a1,1,0,0,1,0-1.42h0a1,1,0,0,1,1.41,0h0a1,1,0,0,1,0,1.42h0a1,1,0,0,1-.7.28h0A1,1,0,0,1,63.93,47.86Zm-17.7-.66a1,1,0,0,1,.22-1.39h0a1,1,0,0,1,1.4.22h0a1,1,0,0,1-.22,1.39h0a1,1,0,0,1-.58.19h0A1,1,0,0,1,46.23,47.2Zm-9.09.18A1,1,0,0,1,36.87,46h0a1,1,0,0,1,1.39-.26h0a1,1,0,0,1,.26,1.39h0a1,1,0,0,1-.82.44h0A1,1,0,0,1,37.14,47.38Zm36-.86a1,1,0,0,1,.61-1.27h0a1,1,0,0,1,1.27.6h0a1,1,0,0,1-.6,1.28h0a1,1,0,0,1-.34.06h0A1,1,0,0,1,73.16,46.52Zm-39.28-.07a1,1,0,0,1,.66-1.25h0a1,1,0,0,1,1.25.65h0a1,1,0,0,1-.66,1.26h0a1,1,0,0,1-.3,0h0A1,1,0,0,1,33.88,46.45Zm15.74.64a1,1,0,0,1-.7-1.24h0a1,1,0,0,1,1.23-.69h0a1,1,0,0,1,.7,1.23h0a1,1,0,0,1-1,.73h0ZM61,46a1,1,0,0,1,1-1h0a1,1,0,0,1,1,1h0a1,1,0,0,1-1,1h0A1,1,0,0,1,61,46ZM21.73,46a1,1,0,0,1,1-1h0a1,1,0,0,1,1,1h0a1,1,0,0,1-1,1h0A1,1,0,0,1,21.73,46Z"/></g><g id="change1_3"><path fill="#51233c" d="M41.51,58.25a1,1,0,0,1-1-1h0a1,1,0,0,1,1-1h0a1,1,0,0,1,1,1h0a1,1,0,0,1-1,1h0Zm26.21-.85a1,1,0,0,1,.72-1.22h0a1,1,0,0,1,1.22.72h0a1,1,0,0,1-.72,1.22h0a1,1,0,0,1-.24,0h0A1,1,0,0,1,67.72,57.4Zm-39.26,0a1,1,0,0,1,.68-1.24h0a1,1,0,0,1,1.24.68h0a1,1,0,0,1-.67,1.24h0a1,1,0,0,1-.29,0h0A1,1,0,0,1,28.46,57.4ZM53.32,58a1,1,0,0,1-.64-1.27h0A1,1,0,0,1,54,56.14h0a1,1,0,0,1,.63,1.26h0a1,1,0,0,1-.95.69h0A1.12,1.12,0,0,1,53.32,58Zm2.35-.76A1,1,0,0,1,56,55.89h0a1,1,0,0,1,1.39.29h0a1,1,0,0,1-.29,1.38h0a1,1,0,0,1-.55.17h0A1,1,0,0,1,55.67,57.28ZM26,57.49h0a1,1,0,0,1-.24-1.4h0a1,1,0,0,1,1.39-.24h0a1,1,0,0,1,.24,1.39h0a1,1,0,0,1-.82.43h0A1,1,0,0,1,26,57.49Zm39.26-.08a1,1,0,0,1-.2-1.4h0a1,1,0,0,1,1.4-.21h0a1,1,0,0,1,.2,1.4h0a1,1,0,0,1-.8.4h0A1,1,0,0,1,65.25,57.41Zm-21.78-.63a1,1,0,0,1,0-1.42h0a1,1,0,0,1,1.41,0h0a1,1,0,0,1,0,1.41h0a1,1,0,0,1-.73.31h0A1,1,0,0,1,43.47,56.78Zm-5.28-.12h0a1,1,0,0,1,.06-1.41h0a1,1,0,0,1,1.41,0h0a1,1,0,0,1,0,1.41h0a1,1,0,0,1-.68.27h0A1,1,0,0,1,38.19,56.66Zm32.2-.53a1,1,0,0,1-.14-1.4h0a1,1,0,0,1,1.41-.14h0A1,1,0,0,1,71.79,56h0a1,1,0,0,1-.77.36h0A.94.94,0,0,1,70.39,56.13Zm-39.31-.08A1,1,0,0,1,31,54.64h0a1,1,0,0,1,1.4-.14h0a1,1,0,0,1,.14,1.41h0a1,1,0,0,1-.77.36h0A1,1,0,0,1,31.08,56.05Zm19.51-.22h0a1,1,0,0,1,.14-1.41h0a1,1,0,0,1,1.41.14h0A1,1,0,0,1,52,56h0a1,1,0,0,1-.63.22h0A1,1,0,0,1,50.59,55.83Zm7.3-.53a1,1,0,0,1-.06-1.41h0a1,1,0,0,1,1.41-.06h0a1,1,0,0,1,.06,1.41h0a1,1,0,0,1-.74.32h0A1,1,0,0,1,57.89,55.3Zm-34.1-.13a1,1,0,0,1,0-1.41h0a1,1,0,0,1,1.42,0h0a1,1,0,0,1-.05,1.42h0a1,1,0,0,1-.68.27h0A1,1,0,0,1,23.79,55.17Zm39.3-.06a1,1,0,0,1,0-1.42h0a1,1,0,0,1,1.41,0h0a1,1,0,0,1,0,1.42h0a1,1,0,0,1-.7.28h0A1,1,0,0,1,63.09,55.11ZM45.4,54.45a1,1,0,0,1,.22-1.39h0a1,1,0,0,1,1.39.23h0a1,1,0,0,1-.22,1.4h0a1,1,0,0,1-.58.19h0A1,1,0,0,1,45.4,54.45Zm-9.1.18A1,1,0,0,1,36,53.24h0A1,1,0,0,1,37.43,53h0a1,1,0,0,1,.26,1.39h0a1,1,0,0,1-.83.44h0A1,1,0,0,1,36.3,54.63Zm36-.86a1,1,0,0,1,.6-1.27h0a1,1,0,0,1,1.28.6h0a1,1,0,0,1-.61,1.28h0a1,1,0,0,1-.33.06h0A1,1,0,0,1,72.33,53.77ZM33.05,53.7a1,1,0,0,1,.65-1.25h0A1,1,0,0,1,35,53.1h0a1,1,0,0,1-.66,1.25h0a.79.79,0,0,1-.3,0h0A1,1,0,0,1,33.05,53.7Zm15.74.64h0a1,1,0,0,1-.7-1.23h0a1,1,0,0,1,1.23-.69h0a1,1,0,0,1,.7,1.23h0a1,1,0,0,1-1,.73h0Zm11.37-1.06a1,1,0,0,1,1-1h0a1,1,0,0,1,1,1h0a1,1,0,0,1-1,1h0A1,1,0,0,1,60.16,53.28Zm-39.26,0a1,1,0,0,1,1-1h0a1,1,0,0,1,1,1h0a1,1,0,0,1-1,1h0A1,1,0,0,1,20.9,53.25Z"/></g></svg>