<?xml version="1.0" encoding="UTF-8" standalone="no"?><svg xmlns="http://www.w3.org/2000/svg" xmlns:xlink="http://www.w3.org/1999/xlink" contentScriptType="text/ecmascript" fill="#000000" width="1769" zoomAndPan="magnify" contentStyleType="text/css" viewBox="0.0 -0.4 1768.7 666.8" height="667" preserveAspectRatio="xMidYMid meet" version="1"><g data-name="Layer 2"><g fill="#c9b8ff" id="change1_1" data-name="Layer 1"><path d="M764.32,618.37l1.22.5.73.3c.83.18,1.49-1.07,1.45-2.79l-.3-.08-4.77-1.15C763.11,616.74,763.69,618.06,764.32,618.37Z"/><path d="M490.67,605.2a9.52,9.52,0,0,0,1.23,2.93c1.08-1.1,2.24-2.42,3.42-3.88C493.73,604.63,492.14,605,490.67,605.2Z"/><path d="M147.18,446.41a6.29,6.29,0,0,0,1,1.1l1.15-1.48.51-.65a5.28,5.28,0,0,0,1.79-.34c-1.32-1.47-2.56-2.84-3.64-4C147.69,442.73,147.41,444.56,147.18,446.41Z"/><path d="M305.8,608.71s0,0,.06,0C305.54,608,305.6,608.23,305.8,608.71Z"/><path d="M1767.72,571.82c-2.09-3.15-4.19-4.08-4.67-2.06a21.15,21.15,0,0,1-2.52,5.62c-.72,1.12-5.26,2.3-7.75.28s-9.49-7.26-10.77-6.53-6.24-4.33-9.1-5.77l-2.35.73-2.51.78c-2.36-.59-5.57-1.43-7.15-1.86s-5.89-.22-6.07,1.41,2.89,9,.74,8.32-7.38-3.86-6.5-5.66l.47-1.62.28-1a85.86,85.86,0,0,0-3.16-10.55l-4.74,4.83c-.73.75-3.1-.7-4.73-1.08l-1.19-.27c-1.25-.21-4.92,1.11-8.15,2.93l-3.29-1.43-3.21-1.4c-2.94-4.67-5.2-5.84-5-2.59l-.43,1.31c-.37,1.11-1.78,2.7-2.45,2.54-2.41-.58-2.22-2.48-.93-4.42l.39-.59c.92-1.26-.15-2.67-2.37-3.14s-7.77,2.44-8,2.47a23.23,23.23,0,0,1-5.24-4.33l-2.54.52-2.73.57-8.33-1.53-1.6-.52c-.61-.19-1.47-1.28-1.64-1.12l-7.34,6.75c-5.11-6.32-10.55-10.14-12.1-8.51s-6-2.45-6.8-1.57-7.36-.45-13-4.58l-6.64,4.8c-2.28,1.65-5.72,1.21-8.66-1.4l-1.15-1c-2.91.25-5.52-.18-5.79-.95s-1.9-2.63-2.54-1.16-1.14,5.63.16,6.46,5.11,5,6.34,6.76,3.69,7.35,3.47,8.25-2,2.81-3.29,2.16l-1-.85c-3.08-2.52.14-7.51-2.26-9.63s-5.81-2.17-5.6-6.85l0-.4c0-.52-1.38-3-3.06-5.55l-1.85-2-.68-.73c-1.95.18-3.09.92-2.53,1.64s-.1,2.88-3.37,2.27-11.9-2.75-11-3.22,1.91-2.23-.91-2.36-9.64.81-8.86,2.93,2,8.92,1.52,10.55l-.87.42c-1.35.64-6.59-7-6.3-8.87l.76-5.08a44.72,44.72,0,0,0-9.46-.58c-1.79.22-7.9-4.38-9.94-5.83s-9-.38-9.12.81-1.46,5.42-2.15,3.92-6.34-1.61-11.83,1.27l-4.51,2.09-.69.32a4,4,0,0,1-1.37-4.08l.73-1,.85-1.19c1.65-1.29,1.12-2.69-1.17-3.11s-7.09,4.09-7.28,2.61-1.52-5.07-2.47-4.18-4.88.92-5.41-3,4.92-12.13,5.16-9.64,1.73,9.39,2.69,8.47,1.88-5,2.1-7.7,3.54-7.61,4.23-5.53-.57,7.13.13,8.61l-.77,1.58-.74,1.49c-.63,1.61.72,2.69,3,2.4s8.68.53,8.22,2.6l-.26,1.33-.17.87a2,2,0,0,0,1.32,2.21l.46-.35c6.7-5.13,7.19-5.33,13.3-4.89a3.76,3.76,0,0,0,2-.29,21.18,21.18,0,0,1,6.84-2.25c2.43-.21,4,5.19,7.24,1.18.74-.92,4,1.22,6,1.27l2.3.06a19.93,19.93,0,0,1,8.88-.79l.5,1.37c1.58,4.3,4.06-2.61,5.58,1,.36.83,2.5,1,3.79.88l5-.31c1.71,4,4.09,5.2,5.29,2.61s4.09-9.23,3-9.23-4.49-1.46-4.55-3.24,1.15-5.29,2.89-3l1.6.72,1.76.8c2.7-.15,4.41,1,3.78,2.59s-.42,6.06,2.09,5.8l1.06,1,2.44,2.22c1.6-1.63,4-2.57,5.24-2.08s3.28,6,4.52,8.19l.94-1.42,2.67-4.05c3.59.65,6.27.32,6-.72s.66-4.4,2.81-5.34l.87.78,2,1.79c1.81,3.22,3.41,4.38,3.54,2.56s2-6.47,3.9-6.47,6.36.84,5,1.87-3.78,4.92-1.26,5.56l.68-.69,4.54-4.57c3.17,4.28,7.17,6.84,8.9,5.68s6.28-5.28,4.78-5.55-4.45-1.92-4.16-3.2,5-6.3,5-5.12,1.58,5,3.5,5.23,7.53,1.63,7.15,2.76-.07,4.81,1.53,5.5,4.91.14,4.16-2.59,5.34-6.61,5.34-4.76,1.15,6.64,2.56,5.84a11.19,11.19,0,0,1,6.66-.34c1.13.55,5.49.41,6.08-2.27s-2.25-10.31-.52-12.58l1.47-1.55,3.11-3.27c1.54,3.36,3.25,5.61,3.79,5s2-4.09.6-4.74l-1-1c-2.32-2.37-3.26-4.59,1-5.56a3.14,3.14,0,0,0,1.48-2.47,3.22,3.22,0,0,0-1.67-2.28l-1.8-.77c-2.45-.59-4.48-.39-4.5.43s-2.08,4.46-4.08,6l0-1.67c-.12-4.51-3.7-3.87-5.4-5.85l-2.49-2.89c2.37-2.55.8-4.41-3.48-4.14s-10-10.19-9.26-10.74l.09.07,2.73,2.29a19.16,19.16,0,0,0,12.16,4.08l2.54-2.5,2.84-2.82c-.06,2.42.36,4.63.94,4.92s4.55-1.35,7.48-4.27l-3.12-3.88c-2.28-2.85.26-3.37,1.12-4.38,1.22-1.43,1.41-3.31-.18-4.56-2.25-1.75-1.25-3-.48-5.45l.57-1.79c-2.18-3.16-3-6.4-1.79-7.22s-1.06-4.75-1.41-5.38-.74-2.6-.1-2.95,2-3.12.41-4.74l-1-1.69-1.12-1.85c-1-2.57-2.73-4.16-3.86-3.52s-3.54,2.83-3,3.55l.49,0c3.35.1,7.2-.42,3.37,5.59-.23.37.9,1.66.93,2.55l0,1.39a2.58,2.58,0,0,1-3.27,2l-.82-1-1.1-1.32c-.81-2.14-3.67-2.3-6.34-.35s-12.8-1.23-14.66-1.32-6.5-2.78-5.7-5.15,5.93-5.85,5.74-6.74l-.43-.54a23,23,0,0,0-2.64-2.58c-.92-.82-2.57-2.42-2.71-2.26l-3.8,4.28c-1.74-3.75-3.61-6.83-4.16-6.84s-2.53,2.62-3.1,5.85l2.53,1.89c1.21.91,3.29,1.95,4.2,1.35,1.85-1.22,3.49-3.37,4.74,0,.38,1-1.18,3.57-2.35,4.72l-1.42,1.39a6.86,6.86,0,0,1-6.91-1.32l-1-2-.94-1.88c-.28-2.57-1.71-4.82-3.17-5s-5.26-.84-5.27-1.06a3.46,3.46,0,0,1,2.13-1.26c1.18-.27,3.57-1.83,2.29-2.8s-3.35-5.87-1.19-8.33,10.13-4.59,9.5-2.7-.32,6.58,1.82,7,5.81-5.11,4.65-5.4-4.12-4.94-3.53-9.58l5.16,4.15.91.72c2.07-1.65,3.18-3.19,2.47-3.43l-.49-.45c-2.57-2.37-3-8.05-8-6.86a6,6,0,0,1-.72-3.06,2.59,2.59,0,0,1,2.35-1.41l2.77,1c2.94,1.46,5.36,3.94,5.36,5.51s.92,5.93,2,6.21,3.22-1.34,1.11-4.48,2.86-10.42,6.92-8l3.84,1.81.5.24c1.86-2.55-1.85-8.21-8.22-12.6l-7.13.18c-.38,0-1.21-1.93-1.13-2.88l.59-7c-3.86,1.44-8.64,2.13-10.62,1.53l-.64,2.94-.72,3.28c-2.78,1.27-5,.81-5-1s1.23-6.57,2.73-6.57,6.22-1.39,7.53-3.09,2.74-8,4-9.07,3.71-4.5,4.25-3.86,1.65,3.16.49,3.36-5.54,4.13-7,8.25l6-.49a3.54,3.54,0,0,1,1.94.48c2.17,1.25,7.76,2.74,9.15,1.86l.92-.58a3.46,3.46,0,0,0-1.14-4.16l-1,.23-1.43.34c-1.84,1.48-3.35,1.56-3.35.16s1.08-5.32,2.4-5.49,5.13-.94,5.07-1.27a16.88,16.88,0,0,0-3.42-4c-1.77-1.57-7.88-3.72-8.17-5.38s-1.82-7.4-2.21-6a22.78,22.78,0,0,0-1,4.52l.48,1a2.85,2.85,0,0,1-.07,2.31c-.73.66-2.1,1.49-2.65,1.13l-2-1.36c-2-1.9-4.16-.63-4.75,2.82l-2.79,1-2.38.85c-.11-2.49-.87-4.43-1.68-4.33l-.73.09-1.19.14c-1.31.15-2.17-1.33-1.91-3.27l.74-1.42,2.51-4.81c2.34,3,4.25,4.55,4.25,3.42s-2.15-5.18-4.79-6.49-9.3,2.53-10,1.57-3-3.17-1.48-.29,2.91,10.3-.77,12.64l-.79-.86-2.72-2.94c-2.86,2.37-5.12,2.93-5,1.23s2.06-8.07,3.32-12l-4.77-1.55-.71-.23c-.55-2.87-1.22-3.92-1.48-2.33s-2.06,5.39-3.49,5.39-5.4-.51-4.91-1.13.67-2.64-.36-3.45l-.63.26-1.49.63c-1.92,1.53-3.64,2-3.83,1s-.67-3.71-.79-4.32-3.26-2.44-6.56-1.72-9.85-1.86-6.59-4.34l2.77-2.53c1.75-1.59,2.86-1.22,4.48.22l.8.72a2.63,2.63,0,0,0,2.28-3.11l-.12-1.41-.07-.8c.12-.92.81-1.54,1.54-1.38s2.7,2.23,4.32,4,7.39,5.37,7.6,3.94,1.78-4.12,3.07-3l.41-.45c3.77-4.27,7.57-4.95,11.87-1.08.42.37,1.5,0,2.2-.31,3-1.2,5.79-1.94,8.67.58,1,.83,2.71.33,3.86,1l3.38,1.9a41.6,41.6,0,0,1,13.63-1.83l3.53-.18a9.06,9.06,0,0,0,4.82-1.24l2.38-1.73c2.28,1.06,5.42,2.36,7,2.89l1.67-1.17.81-.57c1.71.95,9.55,1.07,17.44.27l7.12-.84c7.83-.91,15.67-1.91,23.52-2.35,2.91-.16,6.25-1.62,9,1.78l.4.51c2.06-1.25,5.69-3.71,8.08-5.46l3,1.25,2.95,1.23c4-3.58,7.5-5.88,7.77-5.1s1.58,1.4,2.15-.75,5.89-2.7,6.25-1.81,1.61.69,1.94-2.52l4,.68c2,.34,4.38-1.31,6.5-2.32l1-.49c1-1,1.22-2.4.6-3s-1.5-3.38.13-4.21l1.22-1.21c2.74-2.72,2.85-4.63,0-6.67l-3.45-2.44c-2.16-4.87-1.9-12,.58-15.78s3.31-17.54,4.5-17.69,3.68-1.76,2.48-3.17l.08-1,.14-1.72a6.94,6.94,0,0,0-.62-6.34c-1.2-1.67-6.57-6.46-8.23-7.79s-10.32-4.34-9.59-6.17l.85-1.1c1.23-1.58,3.78-4.26,4-4.06l4.21,4.23c1.23-2.71.42-7.39-1.81-10.38s-9.29-5.66-9.68-3.76-5.86,4.11-7.11,7.16l-2.58-.84-2.14-.7c-1,1.3-2.33,2.41-2.94,2.48s-2.37-1.29-2.45-3.18l.66-.58,2.31-2c2.84-1.75,4.91-4.37,4.6-5.82s-4.11-4.65-6.16-4.77h-1.87l-3.88,0c-4.24,0-6.63-2.22-5.31-4.91l-3.46-1.24a2.13,2.13,0,0,0-2,.28l-.81.95c-.62,1.34-1.46,2-1.86,1.37s-3.28-3.88-5.28-6.41l-4.25,2.1c-4.19,2.07-9.89,1.31-14.64.2l-4.32-1c-3.28-4.78-6.51-7-7.17-4.95l-1.09,1.1c-.43.45-2.37-.8-3.47-1.58l-2.47-1.74c-2.64-2.09-5-3.09-5.32-2.21s-1.66,2-2.47.61-3.52-4.29-4.27-3.42-6.92,2.87-11.66,2.08-16-3.05-14.93-6.14l-2,.8c-2.38.94-3.51-6.24-5.24-.58-.22.72-.51,2-.72,2-5.31-.31-10.46,2.2-15.93-2.28l-4.88-4c-7.11.6-15,.73-17.45.29s-9.07,3-9.92,2.56l-.62-.68c-5.9-6.47-12.91-6.1-20.11-4.42-.57.13-1.3,1.56-1.46,1.45l-2.28-1.62c-2.33-2-5.35-3.1-6.7-2.42s-4.1-3.65-4.46-4.31-5.06.69-7.43,1.35-8.82-3-10-2-6.29-3-8.34-4l-2-.64c-.67-.22-1.53.38-2.23.22l-3.62-.82a76.23,76.23,0,0,1-10.43-3.19c-1.66-.76-8,2.87-9.64,3.44s-4.86-3.27-4.76-1.3-4-3.15-4.89-5.77L1473,155.6c-2.28,2.34-5.36,2.61-6.72,1.47l-4-3.34c-1.94,3.13-3.51,3.88-3.49,1.67s-4.61,1-5,.14-2.07-2.73-2.28-1.33-2.28,4.33-4.17,3.56l-1.75-.41c-1.35-.31-3.16.42-4.07-.38l-1.54-1.35c-.86-2.45-3.38-4-5.61-3.49l-2,.2c-2.1.2-4.24,0-6.36.07-2.54.11-4.65.26-5-4l-.1-1.18c-2.7.24-5.91,1.22-7.14,2.18l-1.23.44-3.45,1.25c-1-4.13-2.68-5.48-3.64-3l-1.27.67c-1.6.84-4.15,1-5.56.08s-1.87-4-3.22-5.6c-.55-.63-2.51.72-3.61.33l-1.86-.66a29.2,29.2,0,0,0-3.82-2.41l-.21.22-1.26,1.36a21.34,21.34,0,0,1-6.69,4.38l-1.45-1.6-5.1-5.67c-6.8.54-14.68,2.78-17.52,5l-.74-5.89a1.1,1.1,0,0,0-.78-.7c-4.27-.65-8.8,1.4-12.91-2-.71-.58-3,1.14-4.41,2l-3.49,2.09a98.58,98.58,0,0,0-9.22-5.05l-.45.59c-2.84,3.78-5.29-.49-7.92-.19a29.6,29.6,0,0,1-8.46,0,15.69,15.69,0,0,1-6.33-2.93c-1.17-.86-1.47-3.76-2.58-4.16-2.55-.9-2,2.12-2.71,3.71-.31.7-2.37,1.31-2.64,1l-3.9-5.2c-5.69.2-14,.39-18.38.44l-4-.18-5.47-.25c-5.09-4.14-9.93-6.75-10.75-5.8s-4.22,3.32-5.13,2.45-4.16-2.47-4.31-.78-2.3,7.83-4.33,8.71-5.46-6.32-6.15-6.83l-.49.19-5.87,2.32c-4.49-4.23-11.25-8.18-15-8.78l-3.38-.95c-2.41-.69-5.29,4.17-7.54-1.08-.47-1.1-3-1.27-4.67-1.36-3.52-.2-7.11.33-10.58-.22l-1.86-.29a26.68,26.68,0,0,1-5.14,3.07l-1.3-1.74-13.15-5.81-5.84,1.46-.5.12c-.52.07-1.15-1.12-1.41-2.65s-4.61.64-6.16.31-4.89-1.44-6.67-.57-7.81-1.48-11.1,1l.51,5.06.09.9c-.66,1.15-2.07-.47-3.13-3.61s-11.49-6.95-16.43-4.25l-5.2-5-.8-.77a28.68,28.68,0,0,0-6.47,3.26l.12-3.85v-.22a65,65,0,0,0-7.6-1c-3.41-.29-12.47,3.8-13.37,3.7l-.54-.54-2-2.08c-2.55.46-4.86.92-5.14,1l-.23-.07c-1.89-.63-1.76-5.32-5.33-3.15-1.47.89-4.88-1.2-5.59-.2-1.88,2.65-4.38-3.75-5.57.94a3.31,3.31,0,0,1-2.69-.29l-2.14-2.38a59.43,59.43,0,0,1-8.06,0c-1.6-.18-7.36-2-9.47-2s-8.83-.47-10.72,1l-1.93.4-1.8.37a12.35,12.35,0,0,1-5.94-4.71l-1.68,1-1.77,1c-1.91-1.55-3.46-.08-3.46,3.27l-.39,2.24-1,5.65c-4.46-1.31-9.09-4.19-10.29-6.39l-1.43-1.59a72.14,72.14,0,0,0-8.35-8.07l-3.07-2.44A54.37,54.37,0,0,1,963,91.46l-4-.74-.8-.15a49,49,0,0,0-6-5.21l-.63.79-4.38,5.44c-2.27-4.39-6.56-6.9-9.52-5.56s-11.7,6.38-13.82,5.49l-.24-2.88-.36-4.41c-1.88-.35-4.79-1-6.47-1.35s-5.65,0-5.23,2-4.74-.5-6-.47-2.94-4.45-4.12-5l-.87-.9c-2.23-2.31-3.19,4.66-6.1.82-1.14-1.49-4.65-1-7-.66s-4.36,1.6-6.57,2.3a2.35,2.35,0,0,1-1.92-.45l-1.93-1.51a14.52,14.52,0,0,0-7-2.58l-1.49,0-3.83.09a94.94,94.94,0,0,1-9.41,3.81c-1,.23-3.39-2.36-4.23-1.43s-6.18-2.14-10.27-2.26-16.12-7-18.9-8.9S810.65,70,809.55,69l-1.18-.31-1.83-.47a13.64,13.64,0,0,1-6.47-1l-.13-.91c-.41-3-2.26-3.52-3.55-2.14l-4.93,5.25c-2.91-4.42-5.08-5.74-4.82-2.92l-3.58-1.32c-1.57-.58-3.24-1.58-4.76-1.38-3.36.42-6.94,3.12-9.25-2.33-.07-.18-2.26.9-3.48,1.3-.47.15-1.13.28-1.47,0-2.68-2-4.47-2.18-7.53-2-2.6.16-5.23-.77-7.86-1s-5.24-.29-7.86-.28h-.76c-.82.44-4.86-.28-9-1.61l-3.67-1.47c-.28-.11-1.13,2.24-1.94,3.18l-.4.46a8.86,8.86,0,0,1-3.88-2.1c-1.27-1.09-12.92-1.51-19.87-7.15L693,55.74c-1.43.83-3.76-.48-5.68-.78-1.2-.19-2.49-.74-3.6-.44l-6.5,1.75c-1.74-3.88-4.16-6.47-5.37-5.75s-5.62,1.48-6.1-.5-6.42,0-8-1.44-8.49,3-11.78,3.21l-2.83-.63-1.43-.31c-1.26-2.2-2.54-3.35-2.86-2.57s-3.37.13-5.92-3.62l-3,2c-4,2.67-7.92,2.15-12,2.2l-5.2.07c-4-2.8-9.38-4.4-11.86-3.55s-9,4.42-10,3l-1.2-.72c-2.25-1.35-5.61,4.21-7.29-1.26-1.3-4.25-4.58,1.15-6.18-1.93-.21-.4-2.27.54-3.49.78l-1.19.24c-1.26.15-5.59-1.67-9.64-4l-4.27,1.64-.3.12c-1.24-2.47-3.07-2.33-4.08.29l-1,.16c-1.28.2-2.88-1.55-4.2-2.69-1-.89-1.51-2.4-3.07-.53-2.5,3-7.15-1.22-9.44,3.43l-.12.25a24.11,24.11,0,0,1-5.93-4.8L527,39l-4.33-.58c-4.77-1-9.75-1.13-11.06-.38l-.17,1c-.51,3.06-1.95,2.75-3.72,1.95-2.41-1.09-3.8-4.34-7.45-3l-2.41.87a53.81,53.81,0,0,1-12.48-7.44l-3.42,5.09-.12.18a43.29,43.29,0,0,1-5.58-5.3l-2,2.74c-1.55,2.17-3.31,2.85-5.52,2.45l-2.29-.41c-2.53,0-5.34-1-6.23-2.17s-3.89-3.7-4.6-2.93-3.14,2.5-3.39,1.68a2,2,0,0,0-3.16-.57c-1.28,1.21-5.42,3.92-5.52,2.53s-3-3.84-6.31-2.44l-3.69-2.57-3.39-2.35C428.55,25.18,427,25,426.65,27l-.23,1.29-.2,1.1c-.32,1.59-1,2-1.44.93a22,22,0,0,0-6.82-6.4l-2.17,3.95a3.17,3.17,0,0,1-2.66,1.23,6.12,6.12,0,0,1-3.6-1.39l-.58-.52c-.58-1.54-1.18-1.87-1.34-.73s-1.09,4.43-1.71,4.65l-.25-.26-2.42-2.49a64.56,64.56,0,0,0-13.77,3.54l-1.65-6.81a1.78,1.78,0,0,0-1.42.15l-4.51,4.55c-4.26-3.24-9.39-6-11.39-6.13s-7.62,1.23-8.87-1-8.91.76-11.32.06l-1.69-1.61c-2.2-2.11-4.72-2.92-6.46-1-2.76,3.11-4.11,1-6.1-.74l-.52-.46c-1.45.59-2.29,1.53-1.86,2.11a2.87,2.87,0,0,1-1.89,3.67l-1.27-.64c-2.13-1.06-3.05-3.95-5.08-5.74l-3.08-2.72c-2.1,1.56-4.36,2.1-5,1.19L317,17a5.88,5.88,0,0,0-3,2.12l-.6,1.06c-.88.35-4.34.5-7.68.34l-1.53-1.82-2.77-3.27a8.72,8.72,0,0,1-8.86.79l-2.46-1c-.37-.15-1.4.78-1.58,1.41-.38,1.38-1.59,3.72-1.83,1.49l-.51-4.81A54.5,54.5,0,0,1,277,15c-2.6.21-10.24-4.83-12.26-6.85l-2.34,3.2-.43.59a8.13,8.13,0,0,0-4.29.7c-1.13.58-4.13-1.66-5.12-1s-4,1.55-4.18.34a28.54,28.54,0,0,0-.9-4.51c-.17,0-.76.74-.93,1.78s-1.12,4.41-1.65,4.82l-.26-.19c-2.27-1.64-4.44-3.45-6.66-5.16a6.61,6.61,0,0,0-2.59-1.6c-2.94-.44-5.77,2.95-9,.19L226,6.93c-2.63,2.88-4.91,4.21-5.06,3s-1.27-4.89-2-4.19-6.5-.25-12.66-1.91l-5.67,2.94c-.76.4-3.15-1-3.13-1.42l.26-4.9c-3.38-.85-6.31-.34-6.51,1.13s-4.13,4-8.28,2.63-18.07-.12-21.19.58l-2.07-1.2c-2.23-1.29-3.17-.81-5.32,0-3.07,1.11-6.74-.1-10.16-.25-.67,0-1.59,0-2,.49l-.37.45c0,1.31-.71,1.27-1.65-.08s-6.29.16-7.74,2.73L130.7,9l-.42.51A4.58,4.58,0,0,1,127.73,5l.43-.08,2.27-.44c.4-2.41.11-4.13-.65-3.83A13,13,0,0,0,126,4.51l-.88.79c-1,.84-2.33,1.8-3.38,1.61-4.38-.78-8.06,1.22-11.38,3.88L106,14.35c-.09-4.48-1.5-6.22-3.15-3.88s-4.49,14.39-6.11,20.12l-6.12,1L88.21,32c-2.06-.18-2.23,2.27-.39,5.45l-4.93-1.33-3.68-1a6.8,6.8,0,0,0-3,7.09l-.74,1.35-2.19,3.93c-3.3,4.36-4.55,8.29-2.77,8.73s7.82-1.91,9.18-2.19S84.09,60.44,83.1,60s-3.62-1.2-3.95-.74-.67,4.47-.73,8.1,3.91,12.82,3.22,13.09S79,82.64,80.16,83.66s4.66,5.43,4.66,7.09.54,7.34,1.21,6.82,2.38.42,2.65,3-5,9.84-4.24,11.34l.39,1.44c1,3.77.62,8.52,5.36,9.65.5.12,1.26,2.43.94,3l-1.67,3c-2.26,3.28-2,5.67.48,5.3l-.73,4.76-.79,5.15c-.14,6,.69,10.69,1.86,10.52l.5-.73,1.45-2.09a46.42,46.42,0,0,1,4.07-6.61c.91-1.08,3,2.34,2.72,3.92l-2,1c-2.57,1.26-2.26,6.1.36,6.92,2.14.67,4.19,5.72,7,1,.13-.22,1-.08,1.44.19,6.52,4.49,13.71,4,20.87,4,2.12,0,4.79,2.39,6.21,1.51l1.7-1c1.29-3.92,2.5-3.91,2.69,0l1.14.89a18,18,0,0,0,8.28,3.32l3.47.54c3.89-.34,8.4.81,10,2.56s6.31-2.59,6.57-2.51l.25.11,4.35,1.95a48.87,48.87,0,0,1,16.36,3.05l3.51-.88,3.24-.81c3.27.84,7.17,1.92,8.65,2.4s7.8-.28,10.42-2.07l3.22,2.91c1.69,1.52,5.08-1.16,7.51-1.72l3.46-.8c4.15,1.91,7.68,4.82,7.83,6.45s3.8,2.85,3.94,1,.85-6.59,1.27-6.5,1.21,2,1.64,3.79.92,7.13.15,7.55-2.31,2.76-.66,3.7,5.15-4.56,6.2-5.63l1.06-.07c3.53-.26,7.08,0,10.6-.18,1.12-.08,3.09-1.08,3.13-1.77.16-2.85,1.66-4,3.26-2.77l.78.58c-.62,2.82.15,4.84,1.71,4.5s4.45,5.7,6.51,7.21l-3,3-2.79,2.8c-1.76-2-3.76-2.89-4.45-2.08s-3.06,2.78-3.68,2.54l-.26-.45c-1.09-1.92-2-4-3.12-5.86-.26-.42-1.32-.28-2-.22l-3.71.35c1.25,2.52,1.26,4.41,0,4.19s-1.93,3.87-2,4-1.21-.24-1.85-2.07-3.38-5.62-4.8-4.71a64.18,64.18,0,0,1-9.31,4.58L232,194.27a21.92,21.92,0,0,1-4.22-3c-1.76-1.91-.57-3.58.78-5.09,0,0-.79-1.47-1.37-1.71s-1.7.3-1.76.66l-.46,3c-.35,3.62-1.84,6.26-3.31,5.86l-.63-.74-2.52-2.91c-3.19.76-7.94,1.84-10.53,2.39L206.19,195c-1.55,2-1.57,1.95-2.67-1.82-.66-2.25-3.81-4.19-5.57-3.36a22.78,22.78,0,0,0-3.53,2l-.87.62c-1,1.07-3,.36-4.52-1.6l-1.47-1.72-2.32-2.69a29.56,29.56,0,0,1-6.24,6.22l-.68-2.35-1.47-5.11a43.7,43.7,0,0,1-10.9,1l-2.36-.33-.75-.11c-.8-.12-5.3,1.53-10,3.66l-4.71-4-3.23-2.72c-2.15,3.56-4.58,5.33-5.39,3.93s-7.44.07-9.64.39-9.58-5.71-12.35-7.73l-.94,5.74-.43,2.64a21.38,21.38,0,0,1-4.51-3,3,3,0,0,0-3.72,0c-1.11,1.06-3.09,5.59-2.72,8.45s-.82,10.69-3.39,11.49l-1.93.52c-.73.19-1.66.55-2.22.21-4.09-2.49-4-2.47-5.91-.64l-2,2a8.27,8.27,0,0,0-1.91,8.86l.42,3,.21,1.51A14.49,14.49,0,0,1,81.58,225l-2-1.37-.9-.61C78.24,221,77,219.74,76,220.34s-3.85,3.94-3.25,5.74l1,.62,2.56,1.63c3.14,1.36,6.29,1.84,7,1.07s3.32-1.29,3.9.88,1.86,7.92,1.61,8.06-1.31-.49-1.78-1.73-2-4.25-2.38-4-1.31,3.14-1.31,5.7,1.06,8.49,2.36,7.28,4.36,3.11,6,5l2.21.45a2.55,2.55,0,0,1-.11,4.71l-1.27.37c-1.58-.14-2,2.24-1,5.31l-.64.75L87,266.59a65.59,65.59,0,0,0,6.6,4.3c.51.17,1,2.05-.23,3.81s-5.74,7.39-5.62,11.67a150.58,150.58,0,0,0,1.93,15.69.73.73,0,0,0,1,0l.27-.27.49-.49c.56-.52,2.86,1.34,5.13,4.13l.1,2.63.11,3.33c-1.68,3.72-3.82,8.24-4.75,10s-1.18,7.79,2.33,7.92l2.59.49c2.93.55,5.75,1.88,8.69,2.31,2.78.41,5.66-.15,8.47.16s7.07,2.77,8.17,1.45l2.89-3.46a53.81,53.81,0,0,0,9,5.91l3.17-1.3,2.48-1c3.25.45,5.64-.5,5.31-2.1s.29-6.39,2.28-6.39,7.31,1.26,7.38,2.8,2.18,5.35,4.52,4.89,8.35,4.11,9.48,4.24l1-.19c4-.76,7.78-1.73,12.11-.25,3.9,1.33,8.42.07,12.65.37l1.9.14a24.23,24.23,0,0,0,7.23,1.85l1.73-.44c1.92-.5,5-2.12,5.54-1.35,2.11,3.07,3.3,0,4.85-.09,1.81-.05,3.66,2.08,5.48,2.08s3.68-2.18,5.49-2.13l3.28.1c3.68,1,8.94,2.38,11.71,3l2.78-2.19c1.46-1.15,4.65,1,7.08,1.06,2.05.06,13.21.88,15.85,1.81l.94.34a35.23,35.23,0,0,0,7.14.69l2.51-.24,3.72-.34a69.17,69.17,0,0,0,9.43.37l1,.25a48.12,48.12,0,0,1,8.65,2.51c2.66,1.21,4.51-3.57,7-.91,1.53,1.6,2.79-3.22,4.73.1.73,1.24,3.9.62,6,.7,2.47.09,4.95,0,7.42,0h6.37c2.12,0,4.66-.86,6.27.19l3,1.95a30.32,30.32,0,0,1,11.39-2.81l3,.81a27.75,27.75,0,0,0,13.16.15l3.37-.67c4,1.63,10.12,1.56,13.5-.14l3.95,2.65c2.66,1.77,6.94,0,10.44.41l6.8.8c7.49.74,14.76.53,16.16-.47s6-1.09,8.82-2.18l1.65,2.1c2.06,2.64,4.37,2.06,6.73,2.12,2.83.07,5.66,0,8.48,0,2.48,0,5-.09,7.43,0l2.34.11c2.42,1.05,5.42.91,6.66-.31s5.28,1.94,6.47,1.16,5.46,1.19,6.69,1.13,9.56.91,15.64,1.84l4.68-2,3.4-1.44c2.52,1.11,5.17,3.23,5.9,4.7s7.39.67,10.31.08l2.68-.35,1.35-.17c1.68.86,1.16,2.18-1.17,2.94l-1.89,1.18-2,1.26c-2.06,2-2.38,2.9-.71,2.08s7.05,2.69,7,5l-.65,2c-.34,1.06-2.53,2.48-2.79,2.23l-4.76-4.71c-3.2,4-9.85,6.95-14.79,6.48l-4.65.48-.93.1c-1.15.69-2.3.56-2.56-.3s-1.18-3.13-1.5-3.15a17.58,17.58,0,0,0-3,1.43c-1.16.62-4.64-2.64-4.94-5.06l.44-2.1c1-4.7,2.53.46,3,0,3.12-3.41,4.67-3.27,6.14,1.92l.84,3c3.84-.57,5.65-1.77,4-2.66l-1.21-1.17c-.29-.28.22-2.46.86-3.06l.91-.85c1.27.61,1.7.56,1-.13s-2.59-1.7-3.77-1.34-4.2-1.15-5.33-.44-5.92-1.53-7.31-1.78-5.31-.43-5.55,0,.64,2.28,2.46,3.15l.85,1.45c.86,1.46,1.49,4.58.79,5.47-1.34,1.72-4.33,3.86-5.49,3.18l-3.52-2.06a36.67,36.67,0,0,1-4.85,4.83c-.49.21-4.67,0-8.1-.61l-2.55,3.49c-.56.77-2.93.57-4-.14-1.77-1.14-3-3.95-4.77-4.41l-1.58-.41c-2,1.33-5.19,3.27-7.06,4.29s-9-1.1-12.25.66l-3.34-2.26-.78-.54a2.56,2.56,0,0,1-2.9-2c-.16-1.25-2-2.74-3.75-.05l-.21-.15c-3.4-2.31-5.46,5.67-9.45,1.29l-1.55-1.7c-3.52.35-7.54,1.73-8.93,3.07l-.07-.09-1.77-2.17a5.19,5.19,0,0,0-7.7-.74c-2.52,2.08-11.08,1.58-11.19.42s-1-4.14-1.84-4.07l-.07.26-.72,2.85c-1.06,4.85-2.59,7.36-3.4,5.57s-3.27-5.1-3.84-3.73-3.18,3-5,1.79-6.4-4.44-6.4-3.76-.67,2.44-1.5,2.41l-.74-.1-.51-.07a21.31,21.31,0,0,0-5.56.59c-2.54.5-10.51-.76-11.8,1.11s-5,4.9-5.58,2.93-4.47-5.2-7-1.46l-4-1.71-1.21-.51A20,20,0,0,1,311,369l-2.2,2.57-.73.86c-.26.38-1.18.21-2.05-.38s.79-5.4,6.68-8.71l5.23-1.63,1-.29a3.26,3.26,0,0,0-.48-4.08l-1.1-.39a10.09,10.09,0,0,0-3.16-.07l-3.31,0a5.84,5.84,0,0,1-8.35.27l-2-2.15-1-1c-2.56.17-4.15,1.49-3.55,2.93s2.46,4.31,3,3.64l.58-.28c.9-.43,2.12-1.11,2.79-.72a3.56,3.56,0,0,1,1,3,39.07,39.07,0,0,1-3.39,7c-1.31,2.12-2.78,3.13-5.18,1l-1.08-.95a7.25,7.25,0,0,1-6.87-3l-1.66-2.27-.27-.37c-1,.26-1.74.91-1.73,1.45a18.56,18.56,0,0,1-.12,4c-.29,1.3-2.38,3.6-2.56,1.14l-.45-1.6c-.25-.87-1.2-2-1.89-2a2.78,2.78,0,0,0-2.21,1.64l-1,2.68c-.86,3.37-2.22,3.24-3-.3l-3.87.61c-4.16.66-8.46.26-12.69.12l-4-.13c-4.08-1.94-8.06-3.51-8.85-3.5l-.74.17c-1.29.29-3.2,1.49-3.76.9-4.21-4.42-8.19,0-12,.6l-2,.31c-.7-1-1.86-2.61-2.57-3.56s1.37-4.11,6.21-5.05l-3.28-6c-2.22-4.06-4.64,2.61-7.67,3-1.66.19-2.09-1-3-1a66,66,0,0,0-9.22.18c-.24,0-.61,1.36-.56,2.06l.05.7a20,20,0,0,0,4.12,3.78c1.84,1.35,7.64-.56,8.39.88s0,5.34-3.3,5.47l-2.72.13c-2.2.1-4.69-.64-6.7.19-7.5,3.09-7.44,3.27-14.84,1-1.36-.43-4,.76-4.8,1.94l-.63,1a2,2,0,0,1-3.43-.32c-.77-1.36-3.53-4.26-4.23-3s-3.48,4.49-4.14,3.69a30.66,30.66,0,0,1-2.26-4.8c-.34-.83-2.31-.37-3.09-1.48s-5.42,4.72-8.52,7.59l-4.05.54-4.08.54a87.49,87.49,0,0,0-10-.55l-.94.37-2,.78c-2.23.64-4.52.23-5.09-.91s-5,.7-7,4.8l.7,4.63.56,3.76c-2.47,2-6,2.79-7.84,1.71l-2.21-2.81-.34-.42c-1.13.13-2.4,2-2.81,4.11s4.4,9,11.52,10.79l6.8.14c4.76.11,4.63.18,7.37,8.79l.48,1.53c1.9,1.2,3.37.54,3.26-1.48l.22-.06,3.93-1c-.88-3.21-1.13-6.36-.55-7l1.26.68.89.49c1.42-.71,2.74-.23,2.93,1.07s2,4.53,3.49,3.83l.7-.73,1.56-1.64a5.69,5.69,0,0,1,2.1,5l-2.22.44-4.19.83a82.28,82.28,0,0,0,3.5,10l-1.86,1.23c-.7.45-2.45-.8-3.5-1.64a18.66,18.66,0,0,1-3-3.46l-.27-.37a4.17,4.17,0,0,1,1.19-3c.7-.6,2.56-2.45,2.45-2.71s-1.6-.53-3.06,0-5.38,2.6-5.38,3.68-1.38,3.78-3.06,3.52-6,1-5.58,3.31,2.09,6.88,3.42,6.64,3.15,1.4,1.09,4.2l-1.56,2.61-1.79,3c-2.89,3-4.3,6.63-3.15,8.12l1.24,1.07a4.51,4.51,0,0,0,2.95,1.16,79.56,79.56,0,0,0,10.07-1.34l1-.21c.11-1.22.25-2.51.41-3.79a23.09,23.09,0,0,1-2.56-4.6v-4.2c.63.55,1.83,1.78,3.37,3.44a43.12,43.12,0,0,1,1.3-5.71l.71.9c1.17,1.47,0,5.4,3.53,4.41,1.92-.54,4-.69,5.76-1.59,1.2-.6,1.9-2.5,3.09-3.22a2.62,2.62,0,0,1,2.69.86,4.61,4.61,0,0,1,0,3.09L160.5,441a49.77,49.77,0,0,1-8.87,4.09c1.77,2,3.69,4.17,5.56,6.35l4.4,1.46.38.12c.72-1.28,1.5-5.24,1.73-8.79l4.72-1.09.3-.07c.65-.62.41-2.75-.53-4.73l-.49-2a3.4,3.4,0,0,1,1.11-2.87c.72-.35,1.85.44,2.78.82l.23.09c.41,6.19,1.14,10.93,1.6,10.54a79,79,0,0,0,5.15-7.71l5.54,2,1.4.51a9.19,9.19,0,0,1,2.9-.6,2.48,2.48,0,0,1,1.65,2.85l-.63,1.15-.24.42c-.89,0-2.92,1.79-4.51,4s-2.8,10.84-1.07,11.6,5.89-8.16,9-11.7l3.19-.91,5.78-1.65c-2.08-3.62-3-5.78-2.12-4.8l.89.3c1.56.53,4.52.91,3.11,2.93-1.67,2.4.73,5.49-2.08,7.31l-3.39,2.2c-3.84,2.54-5.71,4.55-4.15,4.46l1,.71,3.36,2.33c3.29-1.91,7.34-2.94,9-2.28s6.7,1.4,6.88.11,1.3-6,1.63-4.27a36,36,0,0,0,1.69,6.28l.58.17,4,1.11c4.43-.7,10.11-1.77,12.61-2.38s12.22,3.78,17,3.88l3.64-4.17c.91-1.05,4.15-.43,5.77.6l6.3,4c3-2.93,5.5-3.67,5.53-1.65s6.22-.36,7.53-1,6.22,4.46,7.15,2.74l.55-1.41.54-1.36c.84-3,1.52-3.16,1.52-.32s-1.7,8.43-3.78,7.79-9.2,1.6-11.28,3.57l.75,3.37,9.11-2c1.95.15,3,3.34,6,.9l2.47-2.05c1.77,3.62,3.1,7.15,3,7.86s-1.73,2.39-3.19,2.09l0-.42-.57-7.3c-4,1.93-8.78,4.31-10.53,5.29s-5.93,3-7.23,1.52-4.62-5.59-4.52-5.87l.25,0,1.05-.1c1.16,0-.67-2.9-4.06-6.52l-4.36-.8c-2.31-.43-4.69.73-7-1.48-.79-.76-3.3,1.25-5.06,1.37s-3.27-.61-4.9-1c-1.21-.29-2.8-1.38-3.55-.85l-2.94,2.08a33.94,33.94,0,0,0-12.34,3.7l-.4,4.64,0,.33c-.33.32-1.49-.37-2.58-1.55s2.55-6,3-6.52-1.09-1.33-6,1.15l-3.54-4.21-.42-.5a18,18,0,0,0-4.53,3.6c-.81,1-4.5-.49-5.22-.48s-2.38,1.25-3.59,2.21-5.82-.11-7.45,1.06l-2.09-.95-1.15-.53a8.44,8.44,0,0,1-3.9-2c-.67-.76-4.37,2.32-5.46,3.35s-7.52-2.84-8-1.91-4.34,1.67-7.92.33l-1.64,1.09-2.64,1.74c-.36-1.86-1.17-3.72-1.81-4.11s-3.65.36-6.48,1.38l-2.77-1.87c-3-2-5.65,2-9.12.92-2.76-.86-6.2,1-9.27,1.89l-1,.3c-1.14.26-5.46-.16-9.61-.93s-15.43-1.36-15.43,0,2.37,4.59,5.26,4.88,8.73,14.83,7.14,13.57l-.72-.76a43.67,43.67,0,0,1-3-3.48l-1.31-1.67c-1.7.51-3.28.14-3.5-.82s-4.22-.1-4.58.67-3,2.77-3.87.49l.22-.73c2.81-9.11,2-10.88-5.82-14.48-2.06-.95-3.5-3.85-5.57-4.63l-2.19-.83c-2.79.35-5.23,1.77-5.42,3.15s-1.13,4.79-1.64,4.24a2,2,0,0,0-2.95.6l.28.66,1.19,2.74c1.58,2.85,2.75,6.58,2.6,8.3l-.32,0-1.17.14a7.27,7.27,0,0,1-3.43-3.62c-.61-1.5-2.71-5.4-2.9-4s-2.15,5.17-4,5.17-7.53-2.9-8.56-6.45l4.92-.73,4.83-.71c-.2-5.13-1.06-8.51-1.91-7.52s-5.17,3.29-7.92,3.16l-2.34-.78-1.19-.39c-1.22-1.86-2.74-2.08-3.39-.49s-1,6.76,1.71,5.12l1.64-.52a2.85,2.85,0,0,1,2.73.89,3.84,3.84,0,0,1-.13,3.17c-.75,1.28-2.12,3.21-3,3.06l-5.19-.87c.49,5.36-.64,8.15-2.5,6.21l-.14.12-3.65,3.4c-1.73-3.48-4.34-7.12-5.8-8.09s-9,2.05-12.36,2.66L28,477.69l-.19-.23c-1.22.82-1.93,1.87-1.59,2.32s.94,2.78-.75,2.48-6-.31-6.17.61-1,4-1.36,3.9S17,485.3,16.77,484s-4.23-.3-5.39.65S7.6,498,7.51,500.93s-3.31,11-5.5,11.59l-1.84.8-.17.07c.34,1.72,1,2.92,1.4,2.66A2.19,2.19,0,0,1,4,517.91c.23,1.75,2.77,6.18,5.13,5.94s6.7,6.81,5.29,7.13-7.42-.46-8.07.68S4.47,536.47,4.63,537a2.36,2.36,0,0,0,2.88,1l.93-.83.4-.35c.07-1.29,1-1.86,2.08-1.26s2.68,3.59,1.05,5.21-.12,7.78.3,6.76,1.91-1.87,2.53.09,5.68.31,6.56,1.48,4.36,1.71,5.84-1.32l3.51,1.37.55.21a9.25,9.25,0,0,1-3.06,6.47l1.36,3,.33.74c-1.43,2.31-.3,4.41,2.51,4.65l2.24-.54,3.86-1c.56,3.43,2.25,4.44,3.76,2.26l0-1.95.09-7.19c3.48,2.27,5.72,4.9,5,5.83s-1.93,4-1.52,5.55,1.7,5.84,1.89,6a32.32,32.32,0,0,0,5.88.4c2.72,0,11.72,0,14,.13L69,576.15l1.66,2.65c2.38-1,5.71-1,7.4,0s8.21-1.14,10.58-.06,11.52,2,14.6,1.65l2.07,3.1c.23.35,1.41.16,2-.18,1.67-1,.1-5.67,3.4-4.51,1.11.38,1.38,3.41,2.56,4.22,1.63,1.13,3.84,1.07,5.65,1.94s4.73,3.52,4.94,3.23c1.91-2.66,3-.64,4.83.08l3.45,1.35c3.19-2.64,7.08-5.72,8.66-6.82s4.32,5.61,4.94,6.91,5.5.28,7.26,2,8.29-3.56,10.13-4.59,10.28,3.94,16.11,4.14l4.91-1.52,2.14-.66c2.17-.11,4.63.5,5.45,1.35s4.31-1.13,5.06-1.54,6.75-1,12.07-1.78,20,3,20.11,4,1.27,5.48,1.59,3.76,1.9-6.08,2.84-6.22,7.07.8,11.23,2l4.11-3.38,1.85-1.52c3.88,1.72,8.86,2.5,11.08,1.73l1.93,1,1.53.79c1.84-.18,5.79-.42,8.77-.52l2.78-.35,1.57-.19c1.77-1,3.73-.49,4.34,1.08s2.85,6.33,3.12,5.85,1.78-4.28,3.11-7.52l2.49,1.08,3.81,1.65a37.41,37.41,0,0,0-5.45,8c-.82,1.94,3.26,6.15,4.84,4.95s7.57-3.38,9.38-1.88,7.25,4,6.24,5-3.81,2.92-4.25,2.36l.93,2.13c1.3,3-.46,11.46,1.82,11.74s7.11,4.57,7.11,3.33.65-4.93,1.44-5.06a10.83,10.83,0,0,1,4.18.37c.8.41.85,3.58.67,4.22s.76,1.74,2.51,1l1.09-1.25.69-.79a8.44,8.44,0,0,0-2.62-5.21c-1.34-1.13-4.53-5.23-3.57-6.32s2-5.38,1.88-6.83a41.91,41.91,0,0,0-1.7-7.4c-.56-1.16-3.88-2-4.57-1.16s-3,2.65-3.58,2.28l-.25-.51-1.65-3.42c1.2-3.57,4.14-7.2,6.53-8.06l2.05,2.41c.57.68,1.94.37,2.89.72l2.66,1c2.61-1.29,5.35-2.55,6.09-2.82s3.23,1.12,4.63,2.3,9-1.5,10.79.27,9.64.75,11.84.26l1.86-1c1.48-.8,2.94-1.66,4.44-2.44l.29-.15c1,.07,3.12,1.5,4.81,3.18s-1.11,10.18.1,12.67,1.25,8.89,1.23,10.13,3.52.1,5.53-.81l2-.55,2.14-.6c2.34-1.81,4.25-5.05,4.25-7.21s1.67-8.11-.58-9-7.54-1.4-6.68.76l.52,1.56a31.94,31.94,0,0,1,1.54,5.4l.19,1.33c-.31,1.57-1.51,2.8-2.66,2.73l-.75-.58-5.14-4c.68-7,4.21-12.53,7.85-12.21l3.17,1.07,2.49.84a41.83,41.83,0,0,0,6.83-.27l.95-.23c2.8-.67,2.9-.53,2,2.58l-.7,2.47a5.9,5.9,0,0,1,3.31,5.14c0,2.11.89,7.28,2,6.6l.05-.71.22-3.19c-.07-3.74.71-6.8,1.73-6.8s3.47,1.54,3.13,3.42.78,7.7,2.79,8.65,7.89-2.11,8.62-2.75,2.7-3.73,2.7-5.46,1.5-6.68,3.34-7.36,6.56-1.54,7.24-.7v.31l0,6.1c0,6.7.67,10.82,1.5,9.15l1.09-1.08c.94-.93,2.66-.88,3.48-1.89l1.09-1.33a23.08,23.08,0,0,0,.82-7.93l.62-1.75c.71-2,2.16-4.25,3.75-5l2.36-1c.22,2.54.91,4.9,1.53,5.24s1.9,2.15.73,3-4.24,4.18-3,4.43,4.9,2.61,4.9,4.65,1,7.46,2.13,4.89,3.75-10.58,3-11.88-2.34-6.07-2.21-6.81,1.44-2.09,2.57-1.34l1,.77c.17.13-.12,1,0,1.16l2.26,2c-.09,3.17.44,7,1.18,8.61s-3.16,4.25-3.43,4.59v.33a6.07,6.07,0,0,0,.27,2.31c.11.27,1.17.45,1.39.19l3-3.47c4.09.82,8.18-2.33,9.08-7l1.17-4.36a7.48,7.48,0,0,1,2.76-3.51l.67-.51c1.18.21,1.93.8,1.67,1.32s-.64,3.93-1.06,6.72-.32,10.79,2,10.89,9,.12,8.85-1a10.34,10.34,0,0,0-2.69-4.31c-1-.95,2-4.43,2.78-2.17.31,1,3.16.88,6.7.31a5.8,5.8,0,0,1,3.2-7.05l-1.23-6.43a3.22,3.22,0,0,1,1.74-.74c2.28.09,3.92,4.79,7.09.8.78-1,4.61,1.07,6.9,2.11.54.24.72,2.07.71,3.17,0,.43-1,1.07-1.56,1.2a3.56,3.56,0,0,1-1.92-.39l-4.57-1.8a70.21,70.21,0,0,1-5.71,8.18,51.4,51.4,0,0,0,9-2.9l1.51-.42.19,0a4,4,0,0,1-1.73,4.45l-1.48.41a16.15,16.15,0,0,0-1.82.79l-7.87,3.26a13.46,13.46,0,0,1-1.26-1.66,23.83,23.83,0,0,1-2.12,2l.34.49c1.29,1.84,3.33,3.22,4,5.26l.71,2c.57,2.73,1.16,3.28,1.3,1.22s2.17-8.45,4.21-9.62,6.74-.51,8.39-.16,6.61,3.08,6.61,4.69.9,6.13,2,5.7l.22-.43.81-1.64c.74-1.91,3.83-6.29,6.88-9.72l1.77,2.94,2.19,3.62c3.29,1.67,6.28,2.77,6.64,2.45a17.07,17.07,0,0,1,2.64-2.38c1-.58,4,.35,3,1.92s-.73,6.3,3.09,6.91l.65,5.5c0,.34.41.92.57.9l.52-.08c.54-.3,3.16-1.52,5.81-2.71l-1.46-3.74c-.75-1.9-1.9-4.59-3.26-5-2.68-.73-2.23-2.64-2.14-4.49l0-1.07a2.34,2.34,0,0,1,3.23-.9l.87.9c.65.68.73,2.47,1.37,2.71l.75.29a2.88,2.88,0,0,0,1.28-3.26c-.4-1.14-2.28-5.45-3.6-6.94l-2,1.42c-.57.41-2.07-.48-2.87-1.2-.37-.33-.32-1.74-.08-2.5l1.16-3.73c3.32-1.22,5.09-2.94,3.93-3.82s-3.37-4.18-.74-4.18,8.33,1.62,7.58,3.59-2.52,7.3-2.29,7.49,1.26-.2,1.76-1.29,2.9-3.46,3.79-2a27.63,27.63,0,0,1,2.43,7.34c.14,1.52-3.61-.16-4.52.73l-.56,1a5.13,5.13,0,0,0-.81,3.17,2.66,2.66,0,0,0,2.37,1.43c1.58-.33,3-1.57,4.59-1.85,1.11-.2,3.35.55,3.35.88v2.54a5.85,5.85,0,0,0,4.76-.64c1-.81,2.47-4.9,3.56-7.75s4.75-10,5.9-9.48,4.71,1.24,4.21-.15,1-5.57,4.48-6.2l3.15,2L595,594c3.89-.21,8.07.08,9.3.64s3.88,3.21,2.37,4.19-.51,5.48,1,4.46,7.93,2.27,10.28,3.18l-.5,3.88c-.22,1.61.69,4.84,1.35,4.93,2.3.35,3.83,2.54,2.61,3.61l-2.12,1.86c-1.48,2.56-4.05,4.65-5.71,4.65s-3,4.4-.2,2.93l2-.37,2.39-.45c2.69.19,5.12,0,5.4-.43s.72-5.43,1.07-10.36,7.19-16.61,7.81-17.53,1.92-4,1.56-4.66-.72-3.31.92-2.36a35.76,35.76,0,0,0,5.35,1.94c-3,1.39-4.16,3.63-2.65,5.18s1.19,11.48,1.05,12.85l.3,1.1c.24.88,1.07,2.07,1.73,2.15a3.46,3.46,0,0,0,2.33-1.32l-1.06-4.71c2.83-2.58,2.75-6-.16-7.71l-.23-1.81c-.43-3.44-.61-4.9-.69-5.53,1.28.42,2.56.86,3.68,1.33,3.25,1.37,13.35-4.67,16.6-4.58s6.57,9.14,7.72,7.65l.89-.34,1.57-.61c1.85-.23,2.71-1.64,1.91-3.13l.32-.7,1.29-2.78c2.62,0,6.13-.17,7.81-.34s7.6,2.2,9.43,4.92.13,11.25-1.51,9.81-6.72-3.78-7.12-2.73v1l.07,7.22c5,.08,11,0,13.52-.18s8.52-3.44,7.89-6.91L701,607.91l-.57.61c-2.56-1.74-4-4.48-3.26-6.08s2-6,.94-6.25-3.8-1.61-3.61-2.53h.08l3.25.41a44.53,44.53,0,0,0,7.87-3.07c.87-.61,2.37,1.91,2.13,2.83s1.28,3.78,4,4.3,17.38-3.5,14.93,1.12l.65,5.29c.12,1-2.4,2.51-3.82,3.56l-.36.26a2.11,2.11,0,0,1-1.16-2.06l.24-.54c.32-.68,1.08-1.36,1-1.93-.12-1.06-.52-2.61-1.16-2.9s-2.68.64-2.66.8l.53,4.21c-2.78.51-4.43,1.68-3.68,2.62s2.11,3.82,1.72,4.81-.63,3.93.42,4.06l.29-.28c1.08-1,1.86-2.75,3.06-3.36,5.65-2.87,8.24-8.51,10-14.75,1.11-4,2.84-5.88,6.59-5.8l1.43,0c1.94-1.6,4.17-1.38,5,.48s3.71,5.12,4.88,3.36,5.92-6.16,7.27-4.84,4.45,5.22,3.66,5.54-2.25,1.32-1.74,1.61a9.28,9.28,0,0,1,2,2.77,33.71,33.71,0,0,1,.69,6.84,25.3,25.3,0,0,0,.78,5.13,66.43,66.43,0,0,0,3.17-10.61c.33-2.26-.81-9.14-.92-11.46s.67-6.63,1.26-4.37l1.08.54c2.67,1.33,6.83,3.53,8.33,2.21l4.4-3.85c5.29.68,9.64,2.59,9.67,4.23s-1.06,5.65-1.18,7.17l1.68.35c.48.11,1.29,1,1.22,1.35-.27,1.25-3.79,2.82.22,3.44l2.85.44c-.45-2.59-1.18-6-1.64-7.59s.25-5.94,2.8-5.72,7-5.94,7.36-6.41h0l2.83,3.11a41.54,41.54,0,0,0,12.84-4.28l3,2.58c2.49,2.12,4.51-1.87,5-1.31,2.09,2.5,5.13,3.16,6.46,1.39l2.1-2.76c1.41,1.44,5.9,2,10,1.28l3.67-.21,3.89-.23c2.31-1.23,2.78,1.92,1.06,7s-2,19.51-3.92,19.67-6-5.27-6.9-6.77l-.79,0c-2.77.12-1.83,2.93-1.7,4.63l.12,1.39c1,1.65,1,3.17-.06,3.39s-3.89,1.81-2.35,2.72,5.87,1.24,6.74-.91l1-1.41c.24-.34,2.12.23,2.64,1,.76,1.08-3.8,2.42-.24,3.75l2.35.88c.32-2.39,1.37-4.58,2.33-4.88s3.5,1.47,2.87,4.61,6.54,2.28,5.56-3.29l6.4-1c.87-.14-1.58-5.7-3.76-5.94L861.1,608c-3.26.13-5.21-2-4.32-4.63s5.66-6.76,4.25-7.61-1.9-7.51-1.87-9.48,2-7,4.37-7.08l0,3.22v1.22c.89,1.33,2.36,1.57,3.25.52l.9-.81.93-.83a6.77,6.77,0,0,1,4.65-.79c1.44.33,6.29,4,8.27,5.57l1.22-4.5c.79-2.88,4.59-2.58,6,.73,1.91,4.49,3.36,2.54,5.15.37l1.43-1.73c2.25-.64,5-.54,6.15.22s6.23.94,9.65-2.39l5.47,2.06,5.91,2.22c-.58,5.59-.17,9.44.9,8.57s3.29-3.56,2.41-3.92-2-2.28-.8-3.58,10,2,13.43.66l1.07-1.06,5.06-5c2.4,4.72,4.65,4.6,5-.26l5.58,5.19,2,1.89c4.25-1,8.16-2.22,8.7-2.79s2.8,3,4.36,4.61l2.1-2c1-.9,1.39-4.21,3.73-1.59l1.47,1.63c-.75,1.52-.94,3.39-.43,4.15s2.32,2.06,2.73,1l.26-.7c.92-2.48-2.46-7.55,2.64-7.31l3.56.17c-.29,4,.37,6.83,1.48,6.39l1-.84c2.06-1.8,9.81-3.3,12.52-2.29l4,1.48c4.38,1.58,8.32,1.69,8.75.26l0-.74c.05-.85-.06-7.11,0-7.08,4.1,1.5,1.33,5.43,2.08,8.12l.3,1.08c0,1.63.95,2.44,2.09,1.8s3.45-2.89,3-3.79.19-5.08,3.18-5.48l1.64.88,4.52,2.42c4.79-1.32,9.76-2.11,11-1.75l-1.45,1.82a2.75,2.75,0,0,0-.37,1.64,5.18,5.18,0,0,0,1.88.64l3.38.57a26.71,26.71,0,0,1,12.1-1.4l2.87.94,1,.32a2.73,2.73,0,0,1-.5,3.73l-.95.81-.43.36c-.58,1.05,1.55,3.3,4.74,5l1-6c.25-1.51,3-2.54,4.65-3.59.19-.12,1,1.11,1.52,1.67l.87.88c1,.94,2.29.58,2.93-.79l.42-1.31c.64-2-1.4-5,1.77-6.07,1.42-.48,3-1.91,4.13-1.55a11,11,0,0,1,4.67,3.58l1.27,1.52c1.14,2.45,2.34,3.64,2.67,2.63s3.37-1.77,6.15.2,12.21-1.31,13.35-1.35,4.2-1.14,4.2-2.43-1.26-4.82-2.8-4.87l-1-.21-.88-.18c-1.2-.54-.89-1.36.7-1.83s5.58-5.11,6.1-4.42a25.06,25.06,0,0,1,2.68,6.24c.46,2.08.33,7.69,1.43,7.78s5.58,1.59,8.2.9l1.6-1.53c2.42-2.32,4-2.74,6,.13l.31.44a75,75,0,0,1,7.91.36l2.78,2,.26.18a6.88,6.88,0,0,0,2.65-1.21l.62-.87,1.69-2.33c2.74.79,5.57.7,6.28-.21s3.58-2.05,3.87-.89l.36,1,.26.68c.25.36,1.75.12,3.33-.52l.36.46a10.55,10.55,0,0,1,2.28,5l.24,2.27c1.4.78,3.12,0,3.83-1.81l.28-1.78.07-.39c0-.73,2.41-1.47,5.29-1.63l2.58.38,2.15.32c2.56,1.11,3.54.73,2.19-.84s-3.07-6.46-1-7.62,7.46-2.77,7.5-1,1,7.38,1.77,8.36h1.41a8.08,8.08,0,0,0,.92-4.83c-.2-1.64,4.71-2.18,5.74-1.8s.39,4.17.24,4.64a2.1,2.1,0,0,0,1.62,2.12l.64-.53,1.42-1.17a3,3,0,0,1,4.91,0c1.39,1.72,13,.32,13.19,1.58l.31,1.07.39,1.35c.58,1.44,1.63,2.36,2.34,2.06s2.52-2.91,3-4.53l.79-1.12a2.85,2.85,0,0,1,2.67-1,3.28,3.28,0,0,1,1.31,2.67l-.21,2.13c-.78,2.95-.6,5,.41,4.52s3.76-3,6.09-4.71l1.8-2.1,1.22-1.41a16.86,16.86,0,0,1,5.07-2.61l.65.29c2.45,1.06,4.84,3.18,7.26,3.2l2.73,0c2.82-2.09,6.12-3.86,7.34-3.95s2.55,3.77,3.81,3.06,4.24-3.59,3.39-4.55-2.48-4.3-.43-3.88,7.14,4.18,10.68,6.34l3.76-1.61.24-.1a12.34,12.34,0,0,1,1.56,3.61c.57,1.78,2.26,6.4,2.55,6.36s1.19-1.61,1.37-3.4,1.43-6.72,2.31-6.52,2.4,2,3.33,3.4,7.08.23,9.73-.23,10.28-.1,10.28-1.72.81-6.1,1.81-5.4l.3.49.69,1.1c.65,1.31,1.74,1.72,2.42.9s3.62-2,4.19.2,2.87,8.52,3.66,8.69l1-.05,1-.06c1.19-.39,1.44-1.63.54-2.74l-.68-.85-.69-.85c-.9-1.12-.66-2.39.52-2.83l1,0,3.4,0c-.49-2.73-.9-5.34-.91-5.79s1.13-1.52,2.53-1.32l.2.63.84,2.69c.43,3.1-.33,7.3-1.68,9.33l2.06,1.15,1.08.6a20.7,20.7,0,0,0,5-6.24c.67-1.66,3.44-4.81,4.91-3.63l1.13-.1c1.81-.16,3.62-1.88,5.33-1.7.93.1,1.38,3.25,2.54,4.16l.93.72c2.36-.31,3.52-1.6,2.58-2.85s-1.5-2.68.68-.65,10.46,2,10.91,1.33l.88-.48,2.07-1.14c1.15-2.13,2.54-1.66,3.09,1l.4,2.62,0,.34a26.9,26.9,0,0,1-3.45,4.43c-1.7,1.9-4.46,8-1.29,10.33l.69-6.92c.07-.61,3.15-1.44,4.64-1.08l1.84.44c2,1.6,3.79,4.57,3.88,6.62s.9,4.9,1.61,1.59-1.86-15.48.9-17.08,10.12,3.59,9.64,4.74l-.42,1-.24.58a1.66,1.66,0,0,0,.78,1.9l.6,0,.61,0a52.67,52.67,0,0,0,4.45-5.13l2.43.7,1.64.46c-2,5.2-1.7,8.42.63,7.16l1.64-.38c2.44-.55,4.62-.44,1.6,3.1-.09.11.57,1.52.8,1.49l1-.12a4.18,4.18,0,0,0,1.81-3.53c0-1.51-.75-5.81-1.75-5.94s-3.3-2.26-2.79-4.46l.61-1.92.42-1.28a1.94,1.94,0,0,1,3.12-.69l.64,1.06,1.76,2.94c2.36,2.75,4.15,5.79,4,6.74s1.13,4.83,3.42,6,8.22-.89,6.44-2.43-6-6.83-6.16-7.58.82-2.94,2.41-3.16l.64.73,2.11,2.46c2.17,3.35,4.11,4.67,4.32,2.93a58.28,58.28,0,0,1,1.08-6.39,4.31,4.31,0,0,1,1,2.43c.23,1.36,1.73,4.36,2.71,3l.84-.7c1.6-1.34.43-7.09,4.26-4.39l2.69,1.89c-2.07,2.19-3.33,5.46-2.82,7.26l.69.09c2.5.31,3.18,2.1,2.19,4-1.18,2.25-2.9,1.22-4.28-.44a2.55,2.55,0,0,0-1.78-.85c-.6,0-1.63.38-1.73.82-.23,1-.4,2.73.09,3.2,1.23,1.19,2.87,1.79,4.29,2.73,4.65,3.07,8.35-2.1,12.7-2.11h.83c1.1-2.7,2.62-3.77,3.38-2.37s2.69,1.26,2.59-3.36l4.92,5.7,1.4,1.63c3.91-.76,7.25-.31,7.42,1s2,3.12,3.46-.24c.87-1.95,5.21-4.4,8.91-6.07a18.42,18.42,0,0,0-2.18-1l-3.95-1.37c1-3,2.94-4.17,4.34-2.52l.4-.06,2.57-.4c.6.72.86,2.37.84,4.46a12.39,12.39,0,0,1,3.44-1.06l-.73,1.5c-.86,1.76-1.1,2-2.79,1.33a39.58,39.58,0,0,1-1.42,7.73l3.4-3c3.55-3.08,5-1.07,6.66,1.47l1.11,1.69a17.2,17.2,0,0,1-5.19,3.47c-1.44.5,2.92,4.93,4.59,3.28s4-8.62,5.27-8.59,4.54,4,4.59,2.53,2.35-5.89,4.16-7.84,8.72.33,8.32-2-.09-7.39,1.35-7.41,10.79,7.07,11.4,7.48,2.61,1,3.1.37l0-.62c-.07-2.86,1.45-3.52,3.22-2.73.57.25.92,2.75.57,3.89l-.62,2.05a7,7,0,0,1-6.26,3.24c-2.22-.28-7,3.49-6.37,4.2s8,.68,15.8.26l5.51-6.39.34-.4a4.27,4.27,0,0,1,2,4.14l-.69,1-.46.68c-.84,0,.08,2.42,2.06,5.48s8,10.23,8.07,7.83,1.22-8.6,2.17-8.6,4,.94,4.19,2.09,1.61,3.74,2.73,2.33a31.65,31.65,0,0,0,3.55-8.43c.25-1.67,3.28-4.86,6.2-2.84l-2.73,4.18c-.91,1.38-.86,3.69-1,5.6,0,.49.84,1.55,1.26,1.53l.94-.06c1-.52,1.67-2.46,1.61-4.3s4.59-4.23,5.08-3.35,3.2,3.47,3.42,1.12,2.09-8.37,3.71-8.7l.85.73,1.76,1.52c1.29-1,1.13-.87-.37.36l-1.74.46-.32.08c-.56.2-1,1.56-1,3s2.64,7.75,5.87,9.47l2.86-.61c3-.64,5.56-4.05,8.26-6.31l3.54-3h0c1.44,4,6.29,14.09,7.55,13.37s6.08,2.46,6.77,2.85,3-.3,4.16-1,5.71-1.21,6.9,1.27l.24,2.39c.28,2.85,1.38,3.1,3.37,3.15,2.14,0,3.3-.54,3.15-3.32-.11-1.93-.42-4.51,2.29-4,.78.15,1.07,2.71,2,3.18l3.18,1.65c4.06,1.62,7.44,2,7.49.9a88.29,88.29,0,0,1,1.19-10.06c.72-3.59,9-6.94,9.11-5.29l-.28,1.32c-.23,1.1-2.78,2.4-.21,3,2.16.55,3,1.18,2.85,3.72l-.17,2.88a26.23,26.23,0,0,1,8.71-.85l0,4.73v1.47c.53,1.62,1.11,2.85,1.29,2.73s1.88.87,3.68,2.6,4.45-6.42,5.32-7.18,3.32,1.15,4.45-.38,3.72-6.44,4.84-5.06l.92.86,3.38,3.15c1.49-3.56,3.27-4,3.95-1l.83,2.37.34,1a3.41,3.41,0,0,0,3.86,0c1.14-.82-.75-6-.6-7.37s0-5.58-.82-5.73-3.52-1.07-3.37-1.58,1.92-.95,3.62-1,5.88,2.36,5.41,5.29-.68,10.83.51,11.54,4.46,1.54,4.62.27,1.13-4.82,1.62-3.67,2.45,3.06,3.25,1.62,3.7-5,4-3.41-1.41,6.92-2.74,10.66l.56,3.38.78,4.78c-3,.63-2.8,1.48.39,1.89s10.44-4.62,9.81-6-4.38-.8-5-2.29-1-2.72,2.37-1.61,10.61,9.18,10.08,5.87-1.46-10.7-1.15-10.79,1.64,1.74,2.28,4.24,3.12,9.2,3.77,8.17l1-.62a7.06,7.06,0,0,0,2.24-2.58l.5-.93c.21-1.28-.34-4.68-1.22-7.56s-6.87-7.5-5.92-7.94,2.3-2.45,1.49-3.77-.69-5.61,2.24-6.35,7.49-2.66,8.18-5.46,1-12,0-14.07,1.51-8.58,1-9.58l-.67-.65c-.44-.43-1.82-.23-1.85-.47-.16-1.37-.56-3.34,0-4.09Zm-135.55-89,3.85,3.47,1.85,1.67c3.49.13,6.29,1.95,6.2,4.06l-.16,1.9,0,.31c-.52.47-2.13-1.13-3.57-3.55l-.77.23L1635.7,492A6.65,6.65,0,0,1,1632.17,482.79Zm-57.36-61.25,2.09.16,1.74.14c2,2.22,3.69,2.66,3.7,1l.37-1,.44-1.21a2,2,0,0,1,3.26-.16l.42,1.18.47,1.33c.11,1.88,4.24,3.41,5.61,3.41s1,1.2-.7,2.66-6.86,1.28-7.37-2.71l-3.78,2.75c-3.35,2.43-6.16,4.37-7.41-2.33l-.17-.87C1571.32,425.15,1571.92,423.22,1574.81,421.54Zm162.64-127.35c.77-1.18,2.82-1.05,4.57.29s4.43,6,2.66,7.77l-1.53-.17-2.67-.29C1737.25,300,1736.69,295.37,1737.45,294.19ZM289.21,186.12c.32.64-1.2,3.8-4,5.78l-2-.59-2.63-.76c-3.09-3.45-5-7-4.23-7.77a49.58,49.58,0,0,1,8.39-6.34l3.25,1.23,4.48,1.69C290.32,182.44,288.89,185.48,289.21,186.12Zm13.52,2.56-1.17.12c-1.32-.4-2.57.12-2.78,1.16s-4.71-.6-5.44-1.6.58-3.65,2.93-5.9l2-.23c1.56-.19,3.45,2,4.94,3.41C303.56,186,303,188.66,302.73,188.68ZM131,387.67l2.24-1,3.09-1.37c3.74-.67,8.16-.57,9.81.22l0,.17C139.92,387.45,129.52,389.72,131,387.67ZM143.36,398l-1.42,2.07a2.75,2.75,0,0,1-2.66,1c-2.44-1.16.12-2,.24-3.11l.25-2.16a5.9,5.9,0,0,0-.16-1.4c.26-.05.75-.33,1.62-1.24a28.93,28.93,0,0,0,5-6.88c0,.06,0,.08,0,.14l.28,2.24A46.63,46.63,0,0,1,143.36,398ZM159,385.21c-.72.66-2.08,1.48-2.62,1.11-1.44-1-2.57-2.59-3.9-3.84l-.33-.32c.21.16-.53,1.07-1.64,2a20.56,20.56,0,0,1-4,1.39,3.32,3.32,0,0,0,.22-1c0-1.55,2.36-5.77,5.25-6l2.26.65c1.77.5,3.32,2.32,4.82,3.76A2.59,2.59,0,0,1,159,385.21Zm19.55,40.84-1.32-.53c-1.39-.57-2.16-3.53-3-5.56l-1.35-3.33c-2.19,1.31-4.4,1-4.9-.75s8.52.22,11.21,2.4S181.58,424,178.53,426.05Zm42.18-3.91c-2.15.54-4.07,0-4.28-1.28v-2.21c.19-1.2,2.25-2.27,4.59-2.4S222.85,421.6,220.71,422.14ZM21,510.52c-1.49,1.32-7.82-3.55-5.82-5.13l1.6-1.86c.73-.85-4.09-2.28-.26-3.65,2.38-.84,2.94,1.51,2.53,3.69l-.73,3.91C21.28,507.83,22.49,509.19,21,510.52ZM219.8,484.7a24.87,24.87,0,0,1-6.36,2.84c-1.9.39-4.31-6.6-5.3-7.88l.19-.39a12,12,0,0,1,3.17-4l.49-.37c1.15.74,2.44,8.5,4.92,8.55S220.68,484.05,219.8,484.7Zm46-4.12-.54,1.38a4.14,4.14,0,0,1-3.75,3l-1.39,0-1.79.05a4.47,4.47,0,0,1,.39-4.86l1.05,0,3.86-.09c-.93-2.76-1.77-5.28-1.87-5.6a2.38,2.38,0,0,1,1-1.94l.51.19C266.59,474,267.36,476.64,265.83,480.58Zm40.74,115.08a3.44,3.44,0,0,1-2.86,1.69l-2.9-.55c-4-1.31-6-3.34-4.27-4.5l1.09-.89c.57-.45.94-1.23,1.51-1.69l2.82-2.25c2.77,2.28,5.1,5.48,5.19,7.11Zm-3.31-131.48,2.15,2.75.32.41c-.64,1.49-2.44,1.82-4,.72L300,470.21c-1,1.23-3.29,2.59-4.16,2.05l-1.94-1.21a26,26,0,0,0,3-7.05l-1.27-1.66-.56-.75c-.09-1.38,3.36-4.7,2.68-6.52s-.12-3.9,1.25-4.62l1,.19.85.16c.8,1.19,3.3,1.88,5.56,1.53l.89,1.88.46,1A82.28,82.28,0,0,0,303.26,464.18ZM322.54,415l.44-.42c.88.16,3.45.82,5.71,1.46l.34-3.79c0-.48,1.85-1.33,2.58-1.06l2.55,1c-1.46,1.13-1.94,10.39.79,11.9s3.67,3.81,2.1,5.11-8.25-6.17-10.16-10.74l-4.35-1.23A3.32,3.32,0,0,1,322.54,415Zm12.68,66.24c-1.68-.71-9.91,3.59-10.83,4.06s-4,.9-4-.45-1.11-3.8-2.47-2.6-5.33-1.76-4.92-3.25,6.55-5.49,8.36-5.78a3.18,3.18,0,0,0,2.3-4.18c-.53-2-1.46-8.42-1.63-9.49s4.6-3.18,4.31-1.29-.15,6.74.85,6.93,3,1.68,2.69,3,.92,5.28,3.27,6.21l2.17.76,4.13,1.45C338.79,479.85,336.9,482,335.22,481.23Zm8.45-15.53c2.4,0,3.37,3.54,2.15,7.88l2.05,3.91a2.62,2.62,0,0,1-.64,2,1.89,1.89,0,0,1-1.86.47c-1.15-.79-3.14-2.11-3-2.89l.89-6.46C338.69,467.93,341.26,465.7,343.67,465.7Zm4.89,68.95c-.52.71-1.6,1.59-2.17,1.39l-1.54-.55c-1.47-1.12-3.47-6.15-3.46-8.18s1.61-2.73,3.57-1.57S349.11,533,349,534Zm14.75-52.12c-1.47-.46-2.43-2.38-2.12-4.27a29.78,29.78,0,0,1,4.46-9.12l1.55-1.32.25-.21c.8.6,1.21,1.49.9,2a3.25,3.25,0,0,0,1,3.31c1.15.85,4.65,5.37,3.19,6.65S364.79,483,363.31,482.53Zm25,9.21-3.8.55-7,1c2.78,3.71,4.33,6.48,3.46,6.17a26.07,26.07,0,0,1-6.08-3.94c-1.49-1.51-2.76-8.09-2.05-8.78s3.24-2.91,3.74-4.46,2.36-6.52,4-7.18,8.64.8,9.55,2,1.18,2.46.61,2.73-1.65,1.53-.92,2.09l.6.59.54.54C391.55,483.78,390.33,487.68,388.33,491.74Zm55.61-11.67c-1.92,0-7.35,1.06-7.88,2.36s-3.08,3.71-4.49,2.55-2.66-10.19-.53-10.07,3.43-1.76,2.88-4.2l2.62-.35c.78-.11,1.87,1.42,2.58,2.42l1.06,1.48c1,1.81,2.57,2.57,3.49,1.69s3.77-2.46,3.77-1.08S445.87,480.07,443.94,480.07Zm78.29,125.61c-.85.7-4.56,2.37-6.21,2.2s-1.89-6-1.12-7.07l.61.11,1.35.23c1.49.91,2.93-3,3-4.59s1.08-1.35,2.23.59S523.07,605,522.23,605.68Zm3-120.28c-2.87-3.76-4.17-7.76-2.88-8.9s5,3.49,4.93,6.37l3.38-.17c.57,0,2,2.49,1.72,3.2-1,2.78-1.79-.37-2.68-.39Zm13.62,120.93-.08,1.47c-.32,2.36-1.92,3.77-3.55,3.14s-5.48-5.1-7.66-7.66,1-11.71,3.27-11.71,8.07.16,8.09.37a47.61,47.61,0,0,1-6.82,3.45c-1.93.76-2,2-.13,2.81s6.94,4.79,7,6.56Zm11.4-235.66L549,372l-4.72,4.81c-4.29-3.34-7.16-8.61-6.36-11.72s8.44-1.16,9.29-1.52l0-.43c.46-6.78,3.8-3.25,6.48-2.65l1.17.26c1.48-.39,2.7,1.35,2.7,3.88S554.27,372.49,550.24,370.67Zm75.16-3.1-.43,2.07c-1.05,2.05-4.2,5.32-7,7.28l-2.1-.63-3.72-1.1c-3.77-2.81-7.59-3-8.5-.48l-1.77,1c-1.53.83-4.07-1-6.19-1.51-.67-.17-1.43.11-2.11,0l-2.68-.62c.56-2.35.69-4.65.31-5.1a2.12,2.12,0,0,0,2,.42l.44-.48,3.68-4.12c.93,4.46,3,7.07,4.54,5.82s1.82-6.23.64-5.14-5.6-1.74-6.66-1.52-4.3,1.28-4.68,1.73a4.77,4.77,0,0,0,0,3.29,9.41,9.41,0,0,0-2.63.5l.13.18c1.1,1.32-2.06,7.38-4.1,9.69l-1.24-4.86-.16-.65c-.74-.46-1.84.72,1.15-1.84l2.32-2c-6.52,1.74-18.06,5.12-20.51,5.37l-2.59-.87-1.47-.49c-1-2.6-1.12-6.09-.33-7.76s5.13-1.71,7.07-2.6,9.16,4.2,13.47,4.81l1.22-6.27c.18-.94,2.14-2.36,2.76-2.07,2.44,1.13-.18,2-.28,3.1l-.12,1.33a17.18,17.18,0,0,0,2.16,4.24c1.29-1.15,2.23-2,2.44-2.26a13.11,13.11,0,0,0,1.7-4.79l.52-1.37a6.67,6.67,0,0,1,2.21-2.59c.5-.38,1.81-.5,1.93-.24,1.49,3.32,3.67.11,5.4.86,2.14.93,6.15,1.69,6.17,2.62.13,5.76,4,3,6,4.24.45.3.66,1.3.8,2,.74,3.91,2.48,3,4.32,1.2l1.13-1.11c1.1-1.36,3.28-1.28,4.86.19Zm14.18,120.27-1.75,4.07c-.18.42-1.29.56-1.89.41l-.59-.14c-.56-.62.62-6.7,2.63-13.51l1.68-1a2.24,2.24,0,0,1,2.06,0l.51.29C642.52,478.82,641.32,483.26,639.58,487.84Zm25.22-.58-.76.12-2.58.42c-3.28.72-6.11-.55-6.28-2.83l.76-1.42,1-1.94a23.83,23.83,0,0,0,6.22.53l.8.49.92.57A4.07,4.07,0,0,1,664.8,487.26ZM705.93,378l-5.78.67-2,.24c-2.57.09-6.68.1-9.14,0l-2.25.05a18.59,18.59,0,0,1-5.86-1.31c-3.17-1-10.79-1.27-14.82-1.15l-5,.15c-4.62-2.55-8.43-1-8.44,3.36l-4.52-5.47-.38-.46c-2.39,1.85-5.33,3.27-6.53,3.17s-5.91-.46-8.37-3l-3.2-.16-1-.05c-1.57-.12-2.36-1.31-1.76-2.64s3-3.81,4.27-3,3.71-4.95,4.48-6.64l2,0,3.73-.05c-1.45,2-1.67,4.53-.5,5.62s4.76.88,7.59-.05l2.58-.73,2.23-.63c2.15-2,3.32-.55,2.58,3.25l4.24-.18.92,0c1.14-2.54,3-3.51,4.18-2.16s4.79,4.37,5.11,3.28a2.66,2.66,0,0,1,4.06-1.05c1.69,1.32,6.23,4,6.49,3.22s1.37-2.64,1.91-2.24a1.63,1.63,0,0,0,2.46-1c.21-1.41.31-1-.13,3.08l5.23-4.63c1.82-1.61,5.44-1,8.13-.54l1.35.23a33.78,33.78,0,0,1,3.51,7.11l1-.31c2.52-.83,4.62-3,7.63-2.6l.51.07c.94-2.79,2.25-4.11,2.91-2.93S712.56,375.4,705.93,378Zm32.47-4.16c-2.09,2.76-3.55,12.44-4.34,12.86l-.37-.29-3.76-2.94c-4.94-1.07-8.33-2.89-7.53-4.06s1.22-5.11-.72-6.36l-.21-1.27c-.52-3.19,1.93-2.45,3.52-2.54,1.41-.07,3-.51,4.18.11l1.52.81c1.4,1.69,3.78,2.46,5.3,1.71S740.49,371,738.4,373.81Zm59.52,6.55.87,7.25c-4.48,1.23-8.54,1.29-9,.13s-2.84-3.67-4.15-2.85l-1.07.81c-3.53,2.62-6.74,2.12-10.28-.42l-3.87-2.79c2-2.73,3.57-5.1,3.43-5.26s-3.68.57-7.14,2.49l-3.21,1.8c-.59.33-1.59.63-1.66,1.09-.28,2-.14,4-2.75,3.88l-2.24-.08c-.87-2-2.25-3.63-3.07-3.66l-.72.12-2.59.43c-3,.56-5.54-4.19-5.54-6s2.43-2,5.4-.23l2.82-3.6,2-2.55a30.22,30.22,0,0,1,5.76,4.72c.77,1,5.27-2.76,5.62-3.06a7.78,7.78,0,0,0,1.5-2.23c.45-1,4,1,5.16,3.3s7.51,1.88,7,1.26,0-2.27,2-2.53,6.32,5,8.43,6.76l2.35-.86,2.9-1.07c3.54-1.4,4.35-.62,1.82,1.73Zm16.34,4.26-1,2-.85,1.64c-1.36,1.69-3.11,1.63-3.9-.14l-.13-1.79c-.25-3.34-2.5-1.8-3.89-2.45l-1-.46c-.83-1.22-1.07-2.54-.52-2.94s6.42,3.38,8.31,1.81S814.5,381.77,814.26,384.62Zm65.62,2.68-1.72.37c-1.9.4-3.45,3.22-5.32,3.5-2.54.38-5.2.85-7.93-1.37l-1.69-1.38a49.38,49.38,0,0,0-9.45,1.77c-2.09.7-7-2.78-7.19-1.28s-3.19,3-6.16-.66l-4,.59-3,.45A32.87,32.87,0,0,1,824.1,391l-.83-1.17-1.83-2.6c-1.76-4.11-1.64-7.49.24-7.52s7.56-1,10.38,0l2.36,1.26.33.18c.62-.5,3.43.36,6.24,1.9l3.12-1.44a45.8,45.8,0,0,1,8.6-2.5,2,2,0,0,1,1.8.72c1.78,2.4,3,1.15,5.23.27,2.93-1.19,7.14-1.38,9.67.29,2.17,1.43,3.7-3.35,5.73.54.8,1.52,5.23.4,8,.65l.54,0a7.05,7.05,0,0,1,.59,3C884.26,385.79,882.29,388.47,879.88,387.3Zm28.49,3.1-.94.19c-1.32.28-2.95-.48-4.25-1.25l-1-.61a2.81,2.81,0,0,0-3.11-1.06c-1.11.37-5.27,3-7.93,4.35l-2.37-2.15-2.51-2.28c1-3.5,3.6-5.11,5.87-3.58s10.33-2.74,12.4-3.22l1.26.9,1.71,1.23C908.69,385.4,909.1,388.77,908.37,390.4Zm39.24,0c-.61,1.32-5.53,1.87-6.58.61l-2.88-3.44c-2.25,2-5.19,3.42-6.53,3.2s-5-3.93-7-2.49-6.08,7.31-7.51,6.56.39-5.29-.78-6.17.1-5.31,5.7-7.73l5.33,2c1.09.41,2.85.76,3.51.09,3.13-3.19,7.3-2.43,9.84-1.12s3.16,1.25,4.67-.69l.85-1.1c1,3.66,1.83,6.38,2.43,8Zm53.67-.44a52.14,52.14,0,0,1-6.53,5.23c-.48.33-1.49-.24-2.2-.56l-1.92-.86c-2-1-3.88-1.11-4.14-.24s-1.41,2.78-2.1,2.84l-.31-.13-5-2.15c-5.73-.3-10.77-1.35-11.19-2.34l-.54-.74c-.43-.59-1.18-1.42-1.66-1.31-1.59.34-3.77,2.11-4.56,1.45l-4.25-3.55a17,17,0,0,0-3.12-3,8.66,8.66,0,0,1,3.15-.49c3.95.2,8.35-2,11.86,2.21l.51.61c1.38-.33,6.08-.28,10.45.11l3.92.19,1.47.07a8.39,8.39,0,0,0,3.22-1.79c.5-.59,3.06,0,4.64,2.52s8,0,8.58,1.62Zm44.71,7.68-1.8.89c-2.21,1.1-1.86-2.5-2.73-3.35l-2.42-2.36c-3.26,1.28-6.46,1.95-7.11,1.49s-2.11-1.83-1.61-2.6a12.78,12.78,0,0,1,5.56-3.52l1.87.68,3.39,1.23C1045.41,391.68,1047.59,395.07,1046,397.68Zm15.47,11.6c-1.84-.43-3.91,6-5.09,6.88l-.22-.26a7.39,7.39,0,0,1-1.7-3.6l-.55-4.57c3.07-2.12,8.12-.9,9.1.24S1063.29,409.7,1061.46,409.28ZM1228,544.61c-.74,1.7-3.43,1.54-4.48-.38s-.66-4,.86-4.5S1228.7,542.9,1228,544.61Zm47.57,9-5.93-.62c0,5.15-.32,4.9-.66-.55l-3.49-.66-5.36-1a45.18,45.18,0,0,1,0-8.6c.27-1,1.22-1.17,1.65,1.52s11.07,9.78,12.36,7.42,3.16-1.12,4.16,2.77ZM1371,527.85c.84-1.33,2.94-1.65,3.65-3l.74-1.4c-.07-2.16,0-3.93.24-3.93a3.47,3.47,0,0,1,1.05,2.25c.18,1.24,3.62,5.16,4.78,5.38s1.36,1.67.41,3.22l-.72,0c-1.29.1-2.71-1.19-3.93-1l-1.89.36c-2,1.09-4.13.53-4.79-1.25Zm6.29,33.63-.5-.17c-1.87-.66-3.61-2-5.49-2.27-1.61-.22-4.27,1.66-4.84.93l-2.1-2.73c-2.37.91-4.69,1.15-5.16.52s.2-3.06,2.52-4,9.11,2.51,10.36,2.57,4.39-1.34,3.34-3.1,4.45-1.9,6.19-3.75,3.39-2.14,3.67-.64l.11.75.89,6.29C1382,558.49,1378,561,1377.25,561.48Zm26.31.44c-.86,2.11-7.41,2.1-8.8.51s-.66-3.24,1.61-3.67l.9-.66,2.61-2C1402.77,557.22,1404.42,559.81,1403.56,561.92Zm1.64-395.6c-1.1-2.09-1.29-5.13-.42-6.75s4.67-3.85,7.19-2.6S1406.29,168.4,1405.2,166.32Zm17.2,396.89-4-1.39c2.17-4.19,6-.64,6.92,2.1,0,.12.07.21.1.32Zm14.71-.06c-.49,1.55-2.22,5.72-2.48,5.68s-1.18-.24-2-.46l-.2-.51c-.78-1.9-1.9-4-1.79-5.9a24.51,24.51,0,0,1,2.21-7.49c.18-.43,2.33-.5,2.67,0l1.12,1.76A13.32,13.32,0,0,1,1437.11,563.15Zm3.77,12c-2.51-2.93,4-13.34,3.28-11.58s-.74,10.26,0,12.62S1443.39,578.11,1440.88,575.17Zm.5-36.58-.8-.9c-.62-.7-.37-2.51-1-3.1-.92-.86-2.06,4.49-3.21.26-.75-2.75,1.61-2.42,3.05-3.33l1.56-1c1-2.56,2.09-4.45,2.38-4.2a11.16,11.16,0,0,1,1,4.78C1444.38,533.23,1443,539.3,1441.38,538.59Zm3.41-20.44.38-.24c.82-.53,2.51-1.09,2.72-.74l2.17,3.63a25.62,25.62,0,0,1,10.1-.17c2.3.63,1.9,7.61-.17,6.88l-1.71-.64-1.63-.6c-2.08-.82-3.78,2.26-3.78,3.41s-.66-.22-1.46-3S1444.78,519.18,1444.79,518.15Zm10.39,44.29c-3.4-.7-8.34-7.82-5.14-7.48l2.57,1.12,2.27,1c3.56-1.6,6.48-1.5,6.48.22S1458.58,563.14,1455.18,562.44Zm11.72,9.12c-2.18,3.39-3.34.72-4.5-.86-2.05-2.79.09-4.92,1.7-5.67l2.32-1.1c3.26-.21,5.73,1.61,5.51,4s2.28,8.66,2.09,10l-.64.4c-.64.41-2,0-2.72-.65a7.09,7.09,0,0,1-2.05-3.38C1467.85,571.18,1467.46,570.69,1466.9,571.56Zm16,18c-2.29,1.42-4.65,2.67-7,3.87a22.25,22.25,0,0,1-5.49,2.34l-.8.15a5.27,5.27,0,0,1-1.28-4h.11l4.89-.1c4.36-3.12,8.53-5.42,9.26-5.12l.27.58C1483.11,587.84,1483.17,589.34,1482.9,589.51Zm-5.9-22.07c-.44-2-1.42-8.15-.33-9.49s3.7.39,4.18,2.28l-1.38,1.56a1.86,1.86,0,0,0,0,1.63l3.62,3.81C1480.18,569.33,1477.44,569.42,1477,567.44Zm2.33-17.49c.5-.49,1-1,1.65-1.68l-3.94-4.94c-.14-.18.32-1.17.65-1.64.14-.2.69-.11,1,0a85.71,85.71,0,0,1,8.61,2.52l2.14.85c2.2,1.47,2.29,2.22.21,1.67C1488.09,546.3,1482.46,548.28,1479.33,550Zm27.38,24c-1.85-.94-11.76-11.05-10.09-7l1.52,3.36.38.83c.76.71.68,1.54-.19,1.86a22.79,22.79,0,0,0-5.16,2.25c-1.78,1.21-5.48-3.12-6.1-2s-2.55,3.65-2.94,3.36-.83-3.23-.15-5.87l.4-2.45a33.54,33.54,0,0,0,.61-7l-.12-2.38c-.8-3.56,1.3-3.52,4.68.08l.77-.55,2.63-1.89c2.82.76,4.41,4.66,5.31,8s3.13,5.16,5,4.08,6.86-2.33,6.86-.21S1508.55,574.91,1506.71,574Zm9.83,1.48c-2.31-.06-2.67-9.15-2.84-11.23s1.46-1,3.6,2.31l1.71,2.65C1520,572.68,1518.86,575.5,1516.54,575.45Zm-8.24-24.87c7-9.77,11.49-.21,17.48,2.45C1519.12,556,1514,551.91,1508.3,550.58Zm30.9,23.87-2,4.07-2.32,4.65c-2.35-2.58-5.71-5.94-7.46-7.47s-4.56-8.64-4-9.93,2.75-1.34,4.82-.11,4.19,6,3.6,3.64,5.44-7.94,7.42-7.32,6.91,4,6.91,6.32S1543,575.17,1539.2,574.45Zm43.65,2.2,0,0C1583,576.75,1583.05,576.77,1582.85,576.65Zm-11.53-18.37c.56-.74,0-2.67-.13-4l-.07-.87c-.13-1,.86-1.71,2.21-1.7l.31.63,3.88,7.84a36.06,36.06,0,0,0-2.46,4.19l-3.67-2.49C1569.75,560.72,1570.19,559.78,1571.32,558.28Zm-1.58-10.68c-5.68,5.67-5.68,5.67-12.3-2.7C1562.14,542.35,1565.86,545.48,1569.74,547.6ZM1556,569.26l-1.58,1.77c-1.18,3.22-3.7,1.73-5.61-3.32l3.32-1.33,2.25-.9c2.57-.3,3.84.78,2.83,2.42Zm45.1,12.59-3.52,1.64-5,2.3c-4.92-2.69-10.15-2.92-11.63-.52l-3.47-1.55a1.51,1.51,0,0,0-1-.16l-4.34,1.28c-3-3.38-6.62-7.31-8-8.72s-6.66-1.55-7.11-2.92l.36-.74a2.77,2.77,0,0,1,2.61-1.12l1,.24c1.27,1.17,2.38.22,2.47-2.1s.59-8.13.9-8.18,1.62,1.57,2.19,3.72c.23.85,3.09,3,6.37,5.25-.41,2.46.08,4.23,1.6,4.73l3,1.47,5.49,2.7c2.15-3.36,4.4-6.38,5-6.7a2.17,2.17,0,0,1,2.65,1.67l-.12,1.37-.07.78c-1.56,2.07-.68,2.69,2,1.37S1602.19,576.6,1601.05,581.85Zm-.43-28c-3.4-.85-2.55,2.8-3.69,4.34s-4.49.21-3.79,4.24l.07.38c-1.8,1.1-3.42.88-3.6-.51s1.26-7.08,3.52-10.1l2.53-2.15a3.74,3.74,0,0,1,2.8-.89,6.17,6.17,0,0,1,3.19,1.87C1601.89,551.27,1600.81,553.89,1600.62,553.84Zm13.27,17.68c0,3.9-2.3,7.21-5.12,7.34l-2.38-.37-.92-.14a3.27,3.27,0,0,1,.28-4.11l1.06-.49.88-.41c1.29,0,2.63-2.77,3-6.09l-.85-2.32c-.69-1.88-2-3.18.12-4.34a16.39,16.39,0,0,1,5.69-1.43,11.17,11.17,0,0,1,.91,2.93c-3.37,1.66.55,4.81-1.23,7.36Zm16.84,22.24c-.81.44-.83,1.33,0,2l.07.64a13.88,13.88,0,0,1-.27,4.16,2.06,2.06,0,0,1-1.89.17,4.86,4.86,0,0,1-1.34-2.78l-.23-5.89c-1-6.34-1.6-12.34-1.25-13.32h.37l.94,0c1.06.43,2.92,2.5,4.16,4.6S1631.53,593.32,1630.73,593.76Zm3.67-9c-.85-1.44.58-5.48,1.13-4.51s2.4,2.64,3.11,1.89,4.42-.86,5.39.46.36,3.51-1.34,4.88S1635.25,586.24,1634.4,584.8Zm11.82,35.48c-.21.74-1.4,2.87-1.65,1.23s-4-9-5.76-9.63-.87-1.28,1.89-1.33l2.32.12,3.07.16A62,62,0,0,1,1646.22,620.28Zm8.32-35c-.09,1.58-5,3-6.18,1.75s-1.42-2.61-.44-3,2.17-3.54,1.78-5.3,3.91-1.42,4.27-.35A32.92,32.92,0,0,1,1654.54,585.32Zm1.14-23.51c-.19,1.52-3.42,5.66-6.46,5.86l1.24,4.82c0,.19-1,.85-1.61,1.17a2.06,2.06,0,0,1-1,0l-1-.09c-1.68-.17-2.65-2.92-2.16-6.11l1.33-1.67c1.13-1.43,3.67-1.3,5.55-2l2.08-.79C1654.93,560.83,1655.87,560.29,1655.68,561.81Zm32,41.34-1,0c-1-.42-3.24-7.11-5.45-7.17s-2.26-2.32-.1-5l2-2a2.43,2.43,0,0,1,2.71.17c.57.6.92,2.64.52,3.11-2,2.37-2.73,3.66,1.11,3.91.49,0,.92,3.38,1.14,5.23C1688.73,601.91,1688,603.14,1687.66,603.15Zm10.63,9.52c-1.34,0-5-2.31-5.41-5.12s-.7-10.5.13-11.83,3.65-3.58,4.74-2.49.2,6.34-1.19,7.39-1.48,3.47-.22,5.39S1699.62,612.67,1698.29,612.67Zm8-25c-.88,1.8-1.81,1.68-2.07-.25s8.65-6.71,9.55-3.88l.32,2.54.08.64C1712.7,587.61,1707.11,585.87,1706.24,587.67Zm21.33,17.38c-.86,3.11-2.64,4.35-4,2.74s.24-8.64.67-11.2S1728.43,601.93,1727.57,605.05Zm15.4,18.69c-.46.47-2.51.21-3.48-1.59l.26-.29c4.4-5,1.54-8.53-1.74-11.81l-2.31-2.31c.24-4.29,1.07-7,1.83-6a93.49,93.49,0,0,1,5.37,8.64C1744.44,613.35,1743.43,623.27,1743,623.74Zm13.67-25.89c-2.53-1.73-4.35-4.05-4.06-5.14s1.53-3,2.08-1.89,2.49-3.4,3-4.74,2.24-4.75,2.5-4.62.6,2,.2,4-.6,7.48.52,7.76S1759.16,599.58,1756.64,597.85Z"/><path d="M586.67,369.38l1.9-.5c-.17-.21-.35-.46-.52-.71Z"/><path d="M762.65,615.15c-.1-.32-.18-.64-.27-1l-.31.84Z"/><path d="M1493,596.86l.52.25,1.42.65c0-.62.08-1.21.08-1.77C1494.42,596.25,1493.74,596.54,1493,596.86Z"/><path d="M984.41,659.47c-.85-2.75-2.17-2.49-3.92-1.24-.63.45-1.75,1-2.17.65-1.15-.89-2.06-3.22-3.05-3.2-3.53.05-3.07-4.91-5.31-5.47-4.09-1-2,5.43-4.9,6.29-.95.28-2.17,1.24-2.77.85-2.25-1.46.25-2.16.53-3.28a1.94,1.94,0,0,0-1-1.47c-.61-.22-1.89-.12-2,.13-.9,3.87-1.77,7.76-2.3,11.72l-.1.71c1.26,1.07,4.67-1.91,7.58-6.62l5.68,1.24c2.39.53,4.4.68,6.53,2.69l2.34,2.21c4.39,1.68,6.83.29,5.43-3.08Z"/><path d="M233.5,615.55c-4.59-4.64-4.54-4.78-9.64-4.87-2.44,0-4.53,0-6.57-2.44L215,605.48c-3.68.67-4.83,2.32-2.56,3.66s6.89,4.53,5,4-5.62,1.7-3.72,3.37,10.44-2.65,11.44-2.82,4.31.65,3.67,2.32-.92,6.7.84,7.37l.89-.51,2.15-1.23c2,.91,3.29-.87,2.93-4Z"/><path d="M483.91,636.64l-3.12-.85-.39-.11a7.89,7.89,0,0,1-6.28,4.24c-2.3,0-8.4,2.18-7.55,4.84l-.26,1.83-.14.94c-2.79,1.16-3.63,2.1-1.87,2.1s6.25-.88,6.4-2,2-3.29,3.79-2.23,10.88-4.05,12.53-4.89S487.28,638,483.91,636.64Z"/><path d="M1066,620.38l-1.26-1.38c-1.51-1.66-2.83-1.56-4,.78l-1.15,2.31c-1.51,2.39-2.72,4.82-2.7,5.41s.77,1.75,1.57,1.22l.78-.22a7.31,7.31,0,0,1,2.82-.3l1,.12c1.07.44,1-1.91.62-3.13s.78-1.78,2.66-1.25,6.89.49,6.89-1.3-1.13-7-2.51-7.93S1066.63,619.25,1066,620.38Z"/><path d="M292.76,638.93c-1,1.09-2.3.46-2.9-1.4s-3.48-7.09-4.86-6.87l-.53.91-1.21,2c-1.92,1.56-2.44,3.44-1.14,4.17s5.24,5.19,8.07,6,8.4-5.41,7.85-6S293.75,637.84,292.76,638.93Z"/><path d="M441.82,615l-1.35.72-2.91,1.53c-2.62.44-5.59,1.52-6.59,2.38a2.8,2.8,0,0,0,.82-3.3l-.62-.71-.81-.92c-1-.86-2.95-2.67-4.34-4l-1.43-.83-1.4-.82c-1.72-.46-2.4,1.47-1.5,4.28l1.42,2,3,4.09c-2.55,2-.64,3.61.46,3.61a3.83,3.83,0,0,0,3-1.74c-.55,1,0,4,1.13,6.83l2.82-.23,2.42-.2c1-2.53,2.81-4.12,3.93-3.53s5.19,1.11,5.33-.89S444,615.31,441.82,615Z"/><path d="M347.5,636.29c-.93.13-1.84,1.85-2,3.82l-2.41.25-1.44.16c-1.84,1.7-3.64,2.1-4,.87s-1.85-1.84-2.65.82l-1,.22-2,.47c-.51,1.65.05,2.47,1.23,1.82l1.36.4c2.23.64,4.45,3.33,6.81.11a6.39,6.39,0,0,1,2.27,1.58l1.09,1.17c2.74-.73,5.66-4.62,6.5-8.65L348,636.71Z"/><path d="M409.75,620.39c-1.29,1.9-6.94-.6-8.44,1.39l-2.41-2.34a6.74,6.74,0,0,1-2.16-6.34c.33-2.13-.41-3.19-2.09-2.35-.93.47-1.46,2-2.17,3l2.59,6.71,2.67-.51a76.66,76.66,0,0,1,7.09,6.17c.77.84,2.27-.07,3.34-2S411,618.48,409.75,620.39Z"/><path d="M377.34,365.43l1.15-1.37,3.92-4.66c1.55,3.89,3.93,6.22,5.28,5.17s2.72-5.06-2.24-4.87l-3.37-.46-3.24-.45c-3.9-1.35-7.17-1.37-7.28,0S373.91,364.79,377.34,365.43Z"/><path d="M743.52,650l-2.37.15-2.26.15c-.42-2-1.58-4.09-2.56-4.7s-2.84,1.32-3.86,2-4.63,2.15-4,4.8l.21,0,2.92-.54a65.08,65.08,0,0,0,9.57.69l1,1.09,3.56,3.94C748.36,653.42,747.36,650,743.52,650Z"/><path d="M755.87,630.49c-1.73-2.29-5.94-4.57-9.37-5.06l3.41-5.26.74-1.14c-1.34-3.46-4.86-5.28-7.81-4l3.47,3.76c.23.24.52.79.43,1L743.29,627c4.94,2.08,11.21,5.11,12.23,6.67s1.93,1.2,2-.79l-.17-.25Z"/><path d="M272,635.43l-5.1-.39c-6.12.14-10,1.7-8.58,3.48s2,10.11,3.5,9.18l.92-1.1a9.85,9.85,0,0,0,2.2-4.94c.62-6.15,3.73-3.89,6.49-2.83l1.15.44c1.71,1,2.18-.7,1-3.72Z"/><path d="M667.49,605.18l-.84,1.1-1.89,2.51a40.41,40.41,0,0,0-5.41-5.45h-1.49a2.78,2.78,0,0,0-2.19,1.6,3.91,3.91,0,0,0,.9,3l1.25,1.13c1.63.72,7.11,1.79,7.17,3.44s1.21,1.73,2.56.16,4.57-6.31,4-6.88S668,603.76,667.49,605.18Z"/><path d="M804.52,648.49c-2.72-1.13-5-.14-5.17,2.22s4.32,5.77,4.5,4.5,2.22-2.79,4.17-.61l2.4-3.19c1.15-1.54,2.85-2.51,4.19-3.9l.16-.16C814.3,646.34,807.24,649.63,804.52,648.49Z"/><path d="M826.61,606.44l-3.5-.62-.6-.1a4.68,4.68,0,0,0-.16,4.54l.88.25,1.63.47c2.36-.18,4.42,1.21,4.58,3.09s1.53,5.07,2.68,3S830.28,607.39,826.61,606.44Z"/><path d="M913.26,636.15c0,.47,0,2.33,0,3.08s3.68-2.31,3.3-4.67-2.88-4.29-5.55-4.31l-2.24.63-1.09.31c-.93,1.64-1.39,3.74-1,4.67s.64,4,2,4.62l.28-.37c.79-1.07.86-2.86,1.66-3.92l.52-.7C912.31,635.38,913.29,635.68,913.26,636.15Z"/><path d="M722.37,648.29c1-.54,2.38-2.49-.17-2.49s-8.79,1.38-7.49,3.06l1.16,1c1.6,1.33,3.81,2,5,3.64l.9,1.31c-.14,1.69,2.1.65,3-.32s1-2.18.13-2.69S721.4,648.83,722.37,648.29Z"/><path d="M120.47,429.11c1.85-.08,5.89,3.23,6.23,2.31s-1.49-5.91-.35-7.37.54-2.65-1.32-2.65-5.62,1.23-4.93,2.73S118.61,429.2,120.47,429.11Z"/><path d="M430,367.09l1.71-.3,1.64-.28c2.9.12,4.16-1.66,2.79-4s-6.17-6.3-8-4.35S428.19,367.84,430,367.09Z"/><path d="M354.66,366.38c.21-1.55,5.71-.86,6.07-1.69l-.12-.63-.36-1.73c-1.46-.36-4.35-1-6.43-1.36s-8.1-.29-7.39,2l.41,1.3C350.94,367,354.46,367.93,354.66,366.38Z"/><path d="M918.85,652.12c-.28.69-1.67,1.77-2.06-.11L916,651l-.48-.69c-1.26-.07-2.09.72-1.84,1.76l-.27.7-.81,2.17c-1.17,2.41,0,2.14,2.61-.58l3,4,.57.78c0,.68.63.43,1.49-.56s2.56-4,2-4.63S919.13,651.44,918.85,652.12Z"/><path d="M1703.34,628.2l-1.73.95-2.08,1.14a3,3,0,0,0-4.51.17l.22.5c.76,1.71,2.36,2.92,3.14,4.63l.37.83c-.74,2.35-.38,4,.79,3.63s4.75-2.5,5.75-4.11S1705.57,628.2,1703.34,628.2Z"/><path d="M989.7,617.7c-1.3.34-6.8,4.38-7.51,2.52s-1.57-1-1.93,1.93-.15,11.06,1.21,11.9,4.1-6.82,5.18-8.58S991,617.36,989.7,617.7Z"/><path d="M1176,620l-1.64-2.4c-1.2,1.45-4.29,3.44-5.28,3.36s-1.45,1.32-1,3.13,4.23.2,5.11.8l-.06.18-.69,2.09c-1.13,2.72-.65,5,1.07,5s4.26-.34,2.09-.75,1.33-7.83,1.59-9.67Z"/><path d="M939.15,622.72c3.2,1.69,4.19,1.26,2.19-1s-5.05-10.86-6-10.86-3.46.38-3.71.84S936,621,939.15,622.72Z"/><path d="M579.06,624.2c0,.41-1.76,1.27-2.56,1.09-.63-.15-1.34-1.5-1.5-2.44l-.26-1.43c.11-1.67-.68-3-1-2.93s-.6,1.28-.6,2.78,1.73,6,3.84,6,8.67-2.56,8.65-5.68l-.89-.43C582.65,620.2,579.07,618.38,579.06,624.2Z"/><path d="M272,615.81c-1.91,1.1-6.54,5.47-5.46,6.93s4.88,4.49,5,2l.06-1.5.28-6.28c2,2.87,3.6,1.27,3.6-.31S273.87,614.71,272,615.81Z"/><path d="M456.46,358l-.59.44-3.13,2.33c.95,4.25,2.18,6.58,2.74,5.18s3.17-4,4.76-3,4.55,2.13,2.82.4c-1-1-1.05-3.15-.9-4.37C461.09,359.65,457.2,358,456.46,358Z"/><path d="M462.44,358.45c0-.72-.18-.32-.28.52A.58.58,0,0,0,462.44,358.45Z"/><path d="M892,650.38c-1.29,0-4.7.89-4.42,2h.17c2.84-.08,4.09,2.2,5.43,4.55l1.57,2.79c2,3,2.74,3.37,1.66.71S893.29,650.38,892,650.38Z"/><path d="M434.52,641.13c-1.1.94-3.35,5.3-1.31,6.65l1.56.83.64.34c.85,0,2.41-6.47,4.39-7.28s2.68-2.39,1.56-3.54S435.63,640.19,434.52,641.13Z"/><path d="M451.91,643.16c-.92-.44-1-5-2.48-5.46l-1.18.11-1.64.16c-1.77.56-1.73,1.46.09,2l.49,1.16,1.43,3.38c1.2,4.56,2.66,7.23,3.25,5.94s6.16-5.31,5.85-6.72S452.83,643.6,451.91,643.16Z"/><path d="M1099.8,639.55l-3.06-3c-2.18,2.09-5.13,3.75-6.65,3.76,4.2.7,12.1,2.86,14.16,2.2,2.48-.78,1.23-1.37-2.78-1.31Z"/><path d="M1090,640.31h.11a12.37,12.37,0,0,0-2-.21C1085.25,640.16,1088.49,640.26,1090,640.31Z"/><path d="M663.13,618.34c-.5-.39-1.75-.55-1.92-.25a21.7,21.7,0,0,1-5,6l-1.86,1.64c-.43,4.41-.51,8.58-.19,9.26l.53.25.58.28c.76-.18,2.57-2.51,4-5.17s4.54-10.76,4.33-11.63Z"/><path d="M1004.84,607.46l-1.15-.33a14.5,14.5,0,0,1-3.59-1.69l-.9-.54c-.82-.77-.43,2.3.86,6.83l2.2.67,2.7.82c3.67-2,6.51-5,6.32-6.63S1006.13,607.41,1004.84,607.46Z"/><path d="M1538,598.61c0-1.51-1.71-1.38-3.88.28s-8.39,6.13-8.51,7.11.56,4,1.82,3,4.06-4.54,3.81-6S1538,600.12,1538,598.61Z"/><path d="M588.32,647.44c-.29,3.71.38,7.2,1.49,7.75s4.12.58,4.34-1.11l-.48-.54-1.07-1.22a5.64,5.64,0,0,1-2.46-5.06c.19-1.89,4.37-5.26,4.78-5.91S588.62,643.73,588.32,647.44Z"/><path d="M222.07,639.79c2.05,2-.95,9.5-.43,10.14s2.12-1,2-5.57l3.11-3.58,1.8-2.07C222.93,637.3,220,637.79,222.07,639.79Z"/><path d="M807.23,608.07l-1.64.12c-2.62-1.2-3.5.09-2,2.87s6.48,8.38,6.82,5l-.08-2.19C810.29,611.35,811.66,607.73,807.23,608.07Z"/><path d="M494,650.48l.19-6c0-.24-1.28-.9-1.81-.73l-2.19.7c-2.8,1.17-2.42,4.35.84,7.08l3,.72,1.88.45C498.49,650.58,497.63,649.59,494,650.48Z"/><path d="M366.57,650.12H364.3a34.52,34.52,0,0,1-2.13-6.17c-.24-1.35-2.87,6.42-1.86,8.23s2.94,2.65,4.27,1.86,4-3.35,2.85-3.93Z"/><path d="M941.47,649.25l-.75,1c-2.09,2.7-4-6.1-5-.1-.61,3.88,2.94,1.89,4.65,2.38l1,.27c1,0,2.4,1.83,3.06,4.05s2.95,7.75,3.56,7.08,1.12-3.66.24-5.68S943.24,649.7,941.47,649.25Z"/><path d="M515.92,645.35l-.91-.19-1.53-.31a3,3,0,0,1,.08-4.36l1.51-.28.65-.13c1.42-.37,1.13-2.11-.64-3.87h-2.7a20.75,20.75,0,0,0-3.83,4.45c-.57,1.1.33,4.94,1.67,6.38l1.51.42,1.86.52c2.21-.22,4-1.13,4.07-1.4S516.89,645.76,515.92,645.35Z"/><path d="M529.72,640.45c-2.13-.54-7.38,1.21-7.45,4.95l3.86.88,3.22.73C531.68,643.94,531.84,641,529.72,640.45Z"/><path d="M359.47,595.82a3.64,3.64,0,0,0-2.92-1.2l-1.55.43c-1.52,1.07-2.13,5-1.34,8.66l.48,3.36c.16,1.12-4,2.43,0,3.42.55.14,2-1.74,2.14-2.85.34-2.39-.06-4.91.2-7.32a3,3,0,0,1,2-1.91C360.3,598.08,361.16,597.5,359.47,595.82Z"/><path d="M399.87,365.64l1.23-2.58c1-2.14,2.77-1.59,4.27,0l.3.31c.91-.39,1.4-2.07,1.08-3.74l-.35,0-2.33-.13c-2.41.28-6.28,2.23-8.6,4.33l-.56,2.19-.4,1.6C396.56,370.31,399,369.42,399.87,365.64Z"/><path d="M826.65,601.45a34.39,34.39,0,0,1-2-5.72L823,597.14c-.86.71-2.72,1-3.48.41-1.82-1.46-3.59-3.45-4.71.21l-.83,2.7c2.09.32,8.16,3.71,10.16,3.37S827.24,602.41,826.65,601.45Z"/></g></g></svg>