<?xml version="1.0" encoding="UTF-8" standalone="no"?><svg xmlns="http://www.w3.org/2000/svg" xmlns:xlink="http://www.w3.org/1999/xlink" contentScriptType="text/ecmascript" fill="#000000" width="741" zoomAndPan="magnify" contentStyleType="text/css" viewBox="-0.4 -0.5 741.3 728.8" height="729" data-name="Layer 2" preserveAspectRatio="xMidYMid meet" version="1"><g id="change1_1" data-name="Layer 1"><path d="m40.85,728.37h-2.89c-1.76-.3-2.89-1.45-2.89-3.19,0-1.46,1.45-2.91,2.89-2.91.28,0,.28.28.28.28h2.61c3.77,0,7.85-.28,11.9-.86,1.76-.3,3.2,1.16,3.2,2.61.28,1.46-.88,2.91-2.32,3.19-4.37.58-8.42.88-12.78.88Zm-26.11-4.65c-.31,0-.6,0-.88-.28-5.81-2.32-10.15-5.51-13.35-9.3v-.28c-.88-1.16-.6-2.91.57-3.77,1.16-1.16,3.2-.88,4.08.28,2.32,3.19,6.09,5.81,10.74,7.84.85.3,1.45.88,1.73,1.46.28.86.28,1.45,0,2.31-.57,1.16-1.73,1.74-2.89,1.74Zm61.54-1.16c-1.47,0-2.64-.86-2.92-2.32-.28-1.45.28-2.89,2.04-3.47h.28c4.65-1.74,9.01-3.49,13.63-5.23,1.16-.86,3.2,0,3.8,1.45.28.58.28,1.46,0,2.04-.31.86-.88,1.45-1.47,1.74-4.93,2.03-9.86,4.05-14.2,5.51h-.31c-.28,0-.57.28-.85.28Zm34.81-17.12c-1.16,0-2.01-.28-2.61-1.16-.28-.58-.57-1.45-.28-2.32.28-.58.57-1.16,1.16-1.74,0,0,.28,0,.28-.28,4.08-2.32,7.85-5.23,11.9-8.72,1.16-.86,2.89-.57,4.05.58.31.58.6,1.46.6,2.04,0,.86-.6,1.45-1.16,2.03-3.49,3.19-7.85,6.09-12.19,9h0v.3h-.28c-.31.28-.88.28-1.47.28Zm29.34-25.26c-.88,0-1.47-.28-2.04-.86-.6-.3-.88-1.16-.88-1.74,0-.88,0-1.74.6-2.32h.28c3.2-3.77,6.09-7.54,9.3-11.61.85-1.16,2.61-1.46,4.05-.58.57.58.88,1.16,1.16,2.03,0,.58-.28,1.46-.6,2.04-2.89,4.05-6.09,8.12-9.55,11.89h-.31v.3c-.57.58-1.16.86-2.01.86Zm22.05-31.63c-.28,0-.88-.3-1.45-.58-.6-.3-1.16-.86-1.47-1.74,0-.58,0-1.45.31-2.03h.28v-.3c2.32-4.35,4.37-8.7,6.38-13.35.6-1.45,2.32-2.03,3.77-1.45,1.47.58,2.04,2.32,1.47,3.77-2.04,4.65-4.08,9.28-6.41,13.65l-.28.28h0c-.57,1.16-1.45,1.74-2.61,1.74Zm14.8-36h-.88c-1.45-.58-2.32-2.03-2.01-3.47,0-.3.28-.3.28-.58,1.45-4.93,2.61-9.88,3.77-14.23.28-1.45,1.45-2.61,3.49-2.32,1.45.58,2.32,2.04,2.04,3.49-1.16,4.93-2.32,9.86-3.77,14.81h0v.28h0c-.6,1.16-1.76,2.03-2.92,2.03Zm7.85-38.01h-.31c-.85,0-1.45-.58-2.01-1.16-.31-.58-.6-1.46-.6-2.04,0,0,0-.28.28-.28h0c.6-4.65.88-9.58,1.47-14.81,0-1.45,1.16-2.61,2.89-2.61h0c1.73,0,2.89,1.45,2.61,3.19-.28,4.93-.57,9.88-1.16,14.81-.28,0-.28.28-.28.28h0c0,1.46-1.45,2.62-2.89,2.62Zm2.89-38.61h0c-.88,0-1.73-.58-2.04-1.16-.57-.58-.85-1.16-.85-2.04v-.28c.57-4.93.85-9.86,1.16-14.81.28-1.73,1.45-2.89,2.89-2.89h.28c.88.28,1.45.58,2.04,1.16.57.58.57,1.45.57,2.03-.28,4.93-.57,10.16-1.16,14.8v.58c-.28,1.46-1.45,2.62-2.89,2.62Zm3.77-38.9h-.57c-.6,0-1.16-.28-1.76-.86-.57-.58-.88-1.45-.57-2.32v-.28c.57-5.53,1.16-10.74,1.73-14.81.28-1.45,2.04-2.61,3.49-2.61.6.28,1.45.58,1.73,1.16.6.58.88,1.45.6,2.32-.6,4.93-1.16,9.86-1.73,14.51v.28h0v.3c-.31,1.45-1.47,2.31-2.92,2.31Zm5.53-38.31h-.6c-.57-.28-1.45-.58-1.73-1.16-.6-.86-.6-1.45-.6-2.32v-.28c0-.3.31-.3.31-.58.85-4.93,1.73-9.88,2.61-13.93.28-1.74,1.73-2.91,3.49-2.32.85,0,1.45.58,2.01,1.16.28.58.6,1.45.28,2.32-1.13,4.63-2.01,9.58-2.89,14.51v.28c-.28,1.46-1.45,2.32-2.89,2.32Zm244.67-21.19h-.28c-1.45,0-2.92-1.16-2.92-2.61,0-.88.31-1.46.88-2.04.28-.58,1.16-1.16,2.04-1.16,4.65-.28,9.27-1.16,13.63-2.61h.28c1.45-.58,3.2.3,3.77,1.74.6,1.45-.28,3.19-1.73,3.49q-.28.28-.6.28c-4.62,1.74-9.86,2.61-15.08,2.91h0Zm-23.5-2.61c-.31,0-.6,0-.88-.3h-.28c-4.93-1.45-9.58-3.19-14.23-5.51-.88-.28-1.45-.86-1.45-1.74-.31-.58-.31-1.45,0-2.03.57-1.46,2.32-2.04,3.77-1.46,4.65,2.04,8.99,3.78,13.35,5.23h.57c.6.3,1.16.58,1.76,1.45.28.58.28,1.46.28,2.32-.6,1.16-1.73,2.04-2.89,2.04Zm56.89-13.65c-.31,0-.88,0-1.16-.28-.88-.3-1.47-.88-1.47-1.74-.28-.58-.28-1.46,0-2.04.88-2.03,1.47-4.63,1.47-7.84,0-1.45-.31-3.19-.6-5.22h0v-.3c0-.86,0-1.45.6-2.03.28-.88,1.16-1.16,1.73-1.45,1.76-.3,3.2.86,3.49,2.61h0v.28c.28,2.62.57,4.37.57,6.09,0,3.78-.57,7.26-2.01,10.16-.28,1.16-1.45,1.74-2.61,1.74Zm-269.65-.58h-.88c-1.45-.28-2.32-2.03-2.04-3.49,0,0,0-.28.28-.28,1.16-4.65,2.64-9.28,4.08-14.51.57-1.46,2.04-2.32,3.77-1.74,1.45.28,2.32,2.03,1.73,3.49-1.16,4.05-2.61,8.7-4.05,13.93v.28q0,.3-.28.58c-.28,1.16-1.45,1.74-2.61,1.74Zm178.49-3.77c-.57,0-1.16-.3-1.73-.58h0l-.28-.3c-4.37-3.47-8.14-6.68-11.62-9.86-.88-1.16-1.16-2.91,0-4.07s3.2-1.16,4.05-.28c3.2,3.19,6.69,6.38,11.03,9.58,0,0,0,.28.31.28h0c1.16,1.16,1.45,2.91.57,4.07-.57.86-1.45,1.16-2.32,1.16Zm-26.98-27.86c-.88,0-1.76-.58-2.32-1.16v-.3h-.28c-2.92-4.35-5.53-8.7-7.85-13.05-.57-.58-.57-1.46-.28-2.04,0-.86.6-1.45,1.16-1.73,1.45-.88,3.2-.3,4.05,1.15,2.64,4.37,5.24,8.42,7.85,12.2h0v.28h.28c.88,1.46.6,3.19-.88,4.07-.28.28-1.16.58-1.73.58Zm110.89-4.65c-1.16,0-2.04-.58-2.64-1.45-2.3-4.35-4.93-8.42-7.82-12.19q0-.3-.28-.3v-.28c-.31-.58-.6-1.16-.6-2.04.28-.58.6-1.45,1.16-1.74,1.45-1.16,3.2-.86,4.08.58h.28v.3c2.89,4.07,5.81,8.42,8.14,12.77.85,1.45.28,3.19-.88,4.07-.6,0-1.16.28-1.45.28Zm-250.2-.28c-.31,0-.88-.3-1.16-.3-.6-.28-1.16-.86-1.76-1.45-.28-.88-.28-1.74,0-2.32h0c0-.3.31-.3.31-.58,1.73-4.07,3.46-8.7,5.78-13.65.88-1.45,2.64-2.03,4.08-1.45s2.01,2.32,1.45,3.77c-2.04,4.35-4.05,9-6.09,13.65v.28h0c-.6,1.16-1.45,2.04-2.61,2.04Zm121.91-29.61c-1.47,0-2.64-.88-2.92-2.04v-.28c-1.73-4.93-2.89-9.86-3.77-14.81,0-.86,0-1.74.57-2.31.31-.58.88-.88,1.76-1.16,1.73-.3,3.2.86,3.49,2.31.57,4.65,1.73,9.3,3.49,14.23v.28c.28.88.28,1.46-.31,2.32-.28.58-.85,1.16-1.45,1.16-.28.3-.85.3-.85.3Zm104.76-1.16c-.88,0-1.45-.3-2.04-.88-3.46-3.77-6.94-7.26-10.43-10.45,0,0-.28,0-.28-.28-.6-.3-.88-1.16-.88-1.74,0-.88.28-1.74.88-2.32.85-.88,2.89-1.16,4.05,0h0l.28.28c3.77,3.49,7.26,6.97,10.74,10.46.88,1.16.88,2.89-.28,4.05-.6.58-1.16.88-2.04.88Zm-209.55-4.07c-.6,0-1.16-.28-1.45-.58-.6-.28-1.16-.86-1.47-1.74,0-.86,0-1.45.6-2.03v-.58c3.2-4.65,5.81-8.72,8.7-12.49.88-1.16,2.92-1.45,4.08-.28,1.13.86,1.45,2.61.57,3.77-2.89,3.77-5.81,7.84-8.42,12.19v.3h0c-.57.86-1.73,1.45-2.61,1.45Zm180.53-21.77c-.57,0-1.16-.28-1.73-.58-4.08-3.19-8.14-5.81-11.9-8.12l-.28-.3c-.88-.58-1.47-1.16-1.47-2.03-.28-.58,0-1.46.6-2.04.57-1.15,2.61-1.73,3.77-.86h.28l.31.28h.28c3.77,2.62,7.54,5.23,11.9,8.42,1.45,1.16,1.73,2.91.57,4.07-.57.88-1.45,1.16-2.32,1.16Zm-156.15-8.42c-.57,0-1.45-.28-2.04-.86-.57-.58-.85-1.16-.85-2.04s.57-1.45,1.16-2.03v-.3c4.05-3.47,8.11-6.68,12.19-9.28,1.16-.86,3.17-.58,4.05.58.88,1.45.28,3.19-.88,4.07-3.77,2.61-7.82,5.8-11.31,9h-.28v.28c-.6.3-1.16.58-2.04.58Zm75.45-2.91h-.28c-1.45-.28-2.61-1.45-2.61-3.19v-.28c.6-5.23,1.45-10.16,2.89-15.09.31-1.74,2.04-2.62,3.49-2.04,1.76.3,2.61,2.04,2.04,3.49-1.16,4.65-2.04,9.28-2.61,14.23v.28c0,1.45-1.45,2.61-2.92,2.61Zm47.62-8.7c-.6,0-.88,0-1.16-.3-4.93-2.31-9.3-4.05-13.63-5.8h-.31c-1.73-.58-2.32-2.32-1.73-3.77.57-1.46,2.32-2.04,3.77-1.74l.28.28c4.37,1.46,9.3,3.49,13.95,5.81,1.45.58,2.01,2.32,1.45,3.77-.6,1.16-1.45,1.74-2.61,1.74Zm-90.28-8.42c-1.16,0-2.32-.86-2.61-2.03-.57-1.46.28-3.2,1.73-3.78h.31c4.93-1.73,9.86-3.19,14.8-4.05,1.73-.3,3.2.86,3.49,2.32.28,1.45-.88,3.19-2.32,3.47-4.65.88-9.3,2.04-13.95,3.78h-.28c-.28.28-.88.28-1.16.28Zm53.4-3.77h-.57c-4.93-.88-9.58-1.46-14.23-1.74h-.57c-.6,0-1.47-.58-1.76-1.16-.57-.58-.88-1.16-.88-2.03,0-1.46,1.16-2.62,2.92-2.62h.57c4.65.3,9.58.88,15.11,1.74,1.45.3,2.61,1.74,2.32,3.49-.31,1.45-1.45,2.32-2.92,2.32Zm1.47-15.67c-.6,0-1.16,0-1.47-.3-1.45-.86-1.73-2.61-1.16-4.05l.31-.3c2.89-4.35,5.78-8.42,9.27-12.47.88-.88,2.92-1.16,4.08-.3,1.16,1.16,1.16,2.91.28,4.35-3.2,3.49-6.09,7.55-8.7,11.61h0c-.6.88-1.76,1.46-2.61,1.46Zm26.39-28.16c-.85,0-1.73-.28-2.32-1.16-.85-1.16-.57-3.19.6-4.05h.28c0-.3.28-.3.6-.58,3.49-2.62,7.54-5.23,12.19-7.84,1.16-.88,3.17-.3,3.77.86.88,1.46.57,3.19-.88,4.07-4.65,2.91-8.7,5.51-12.19,8.12h-.28c-.6.58-1.16.58-1.76.58Zm33.67-18.86c-1.16,0-2.01-.58-2.61-1.74-.57-1.45,0-3.19,1.45-3.77l.28-.3c4.96-2.03,9.58-3.77,14.23-5.22,1.45-.58,3.2.28,3.77,1.74.31.58.31,1.45,0,2.03-.57.88-1.16,1.45-1.73,1.74-5.53,1.74-9.86,3.49-13.63,5.23h-.6c-.28.28-.57.28-1.16.28Zm37.16-12.19c-1.45,0-2.61-.88-2.89-2.03-.31-.88-.31-1.74.28-2.32.28-.58.85-1.16,1.73-1.46h.6c4.05-1.16,8.42-2.03,14.51-3.19,1.73-.28,3.17.58,3.49,2.32.28,1.45-.88,2.91-2.32,3.19-5.24,1.16-10.18,2.32-14.51,3.49h-.88Zm38.32-7.26h-.31c-1.45,0-2.61-1.16-2.89-2.61-.28-1.46.88-2.91,2.61-3.2h.28c3.49-.28,8.73-.86,15.11-1.45h.28c1.45,0,2.61,1.16,2.61,2.61.28.58,0,1.46-.57,2.04-.6.58-1.16.86-2.04,1.16-2.32.28-4.65.28-6.66.57-2.92.3-5.53.58-8.14.88h-.28Zm38.29-4.07c-1.16,0-2.61-.86-2.61-2.61-.28-.58,0-1.46.6-2.03.57-.58,1.16-.88,2.01-1.16h.31c2.61-.3,5.22-.58,7.82-.88,2.32-.28,4.65-.58,6.97-.86h.28c1.45,0,2.61,1.16,2.89,2.61,0,.58,0,1.45-.57,2.03-.6.58-1.16,1.16-2.04,1.16-3.77.58-7.82.88-11.59,1.46l-3.2.28s.28,0-.88,0Zm38.89-4.93c-1.45,0-2.61-1.16-2.89-2.61-.28-.58,0-1.46.28-2.04.6-.58,1.16-1.16,2.04-1.16h.28c5.24-.86,10.18-1.73,14.8-2.61,1.47-.28,2.92.88,3.2,2.32.28.86,0,1.45-.28,2.32-.6.58-1.16.86-2.04,1.16-5.5.86-10.15,1.74-14.51,2.32q-.57.28-.88.28Zm38.04-7.26c-1.16,0-2.32-.86-2.61-2.32-.31-1.45.57-3.19,2.01-3.49h.6c5.22-1.15,10.15-2.31,14.23-3.47,1.45-.3,3.17.58,3.49,2.03.57,1.74-.31,3.19-2.04,3.77-5.22,1.16-9.86,2.32-14.51,3.2l-.28.28h-.88Zm37.73-10.16c-1.16,0-2.32-.58-2.89-2.03,0-.58,0-1.46.28-2.03.28-.88.88-1.16,1.73-1.46h.31c4.62-1.74,9.27-3.19,13.92-4.93,1.45-.58,3.2.28,3.77,1.74.6,1.45-.28,2.91-1.73,3.49-4.08,1.73-8.7,3.19-14.23,5.22h-1.16Zm36-14.21c-.88,0-2.04-.58-2.32-1.46-.88-1.45-.28-3.19,1.16-4.05h.28c4.93-2.32,9.01-4.65,13.07-6.97,1.16-.86,3.2-.28,4.05.88.6,1.45.31,3.19-1.16,4.05-3.77,2.32-7.82,4.65-13.35,7.26h-.57c-.28.3-.6.3-1.16.3Zm33.08-20.61c-.88,0-1.73-.3-2.32-.88-.57-.58-.57-1.45-.57-2.03,0-.88.28-1.74.88-2.04q.28-.28.57-.28c4.05-3.49,7.54-6.97,10.46-9.86.85-1.16,2.89-1.46,4.05-.3s1.16,2.91,0,4.07c-3.2,3.77-6.97,7.26-11.03,10.45q0,.3-.28.3c-.6.58-1.16.58-1.76.58Zm24.69-29.61c-.6,0-.88,0-1.47-.3s-1.16-.86-1.45-1.74c-.28-.58,0-1.45.28-2.03v-.3h0c2.32-4.35,4.08-8.7,5.53-13.35.28-1.45,2.04-2.31,3.49-2.03.57.3,1.45.86,1.73,1.45.31.58.31,1.46.31,2.32-1.47,4.93-3.49,9.58-5.81,13.93v.58h0c-.6.88-1.76,1.46-2.61,1.46Zm8.7-37.16c-1.76,0-2.92-1.16-2.92-2.91v-.28c0-4.65-.28-9.28-1.16-14.51,0-.58,0-1.45.6-2.03.57-.58,1.16-1.16,1.73-1.16,1.47-.3,3.2.86,3.49,2.32.88,4.93,1.16,10.15,1.16,15.38v.58c0,1.45-1.45,2.61-2.89,2.61Zm-6.97-38.02c-1.16,0-2.32-.86-2.89-2.03h0v-.28c-1.47-4.37-3.2-9-5.53-13.65-.57-1.45,0-3.19,1.45-3.77,1.76-.58,3.2,0,4.08,1.45,2.01,5.23,4.05,9.86,5.5,13.93v.58c.6,1.46-.28,3.19-1.73,3.49-.28.28-.6.28-.88.28Zm-16.55-35.12c-.85,0-2.01-.58-2.32-1.45q-.28,0-.28-.3h0c-1.16-1.73-2.01-3.47-3.17-5.22l-.31-.58c-.57-.88-.57-1.46-.28-2.32,0-.58.6-1.45,1.16-1.74,1.45-.86,3.2-.28,4.05.88.88,1.73,1.76,3.19,2.92,4.63l.57,1.16v.3l.31.28c.28.58.57,1.45.28,2.03-.28.88-.6,1.46-1.45,2.04-.31,0-.88.28-1.47.28Z"/></g></svg>