<?xml version="1.0" encoding="UTF-8" standalone="no"?><svg xmlns="http://www.w3.org/2000/svg" xmlns:xlink="http://www.w3.org/1999/xlink" contentScriptType="text/ecmascript" fill="#000000" width="917" zoomAndPan="magnify" contentStyleType="text/css" viewBox="-0.1 0.0 916.5 176.7" height="177" preserveAspectRatio="xMidYMid meet" version="1"><g data-name="Layer 2"><g fill="#c9b8ff" id="change1_1" data-name="Layer 1"><path d="M253.5,0c.5,2.39,1.52,7.11,2.08,9.45,45.21,1.17,90.73-7.52,135.69.81,24.69,5.13,50,3.05,75.08,3.15.26-3.05.81-9.24,1.07-12.29.91,4,1.83,7.92,2.79,11.94,10.72.45,21.59,1,32.36-.36,8.84-7.11,20.37-4.47,30.84-4.62,16.41.4,32.82,1.47,49.28,1.32,3.5,7.52,8.83,13.92,14.32,20.22,8.89,7.87-16.86,14.83-17.17,6.14,1.12-2.33,3.35-7,4.47-9.24-4.32,7.21-12.5,7.82-19.91,9.29,14.63,4.63,30,4.22,45.11,2.95L601.18,36l7.31-6.51c-5.28-2.23-18.34-3.91-13.36-12.29,13.06-4.16,27.13.76,40.39,2.54,20.12,5.08,41.15,3.25,61.42,7.57,7.26-1.88,14.63-3.81,22-5.69,13,1.42,25.15-2.79,36.38-9.14,1.27,4.72,3.91,14.27,5.23,19-.36-6.25-.56-12.5-.61-18.65,30.07-1.52,60,2.9,90.07,1.48,0,5.89,0,11.78.3,17.72,6.3-2.54,6.46-9.44,7.62-15.08,15.14,2.44,30.38,4.67,45.62,6.91-1.67,1.67-5.08,5-6.75,6.7,1.62,2.54,4.87,7.57,6.5,10.11-8.53,2.24-17.43,4-25.86,6.2,10.82,2.34,21.8,4.32,32.87,6.25q2.9,5.17,6.1,10.51c-9.91,4.57-10.93,15.09-13.72,24.23,2.74.21,8.23.67,11,.87-13.1,2.54-22.81,10.46-22.35,24.69-11,.2-22.71-2.09-32.36,4.32-5.23,2-10.31,4.21-15.24,6.6-13.21,0-26.42-.56-39.52,0l1.78-6-10.57,1.83c.35,3.25,1.12,9.76,1.47,13-5.38-2.85-10.67-5.64-15.85-8.43,3-.06,9.15-.06,12.24-.06l.61-5.28c-10.1-1.47-20.16-3.5-30.07-5.59.51,1.83,1.42,5.59,1.88,7.42-1.63-3.2-4.93-9.65-6.55-12.85-8.84-1.22-14.63,1.32-17.48,7.77,1.58,1.17,4.62,3.56,6.2,4.72-3.46-.25-10.26-.71-13.72-.91L732,117.35c-7.72-6.81-20.63-.15-30.28-1.73C685,113.49,674.89,130.76,659,132.74c-.1,1.78-.2,5.39-.31,7.17-2.48-.16-7.51-.51-10-.66L648,128.93c-8.18,2.64-16.31,5.29-24.44,7.88-.36,5.38-.76,10.82-1.12,16.25-.25-4.42-.76-13.31-1.06-17.73-14.33,13.11-34.35,7.27-51.77,8.74l1.17-8.18c7.87-.2,16-.25,24-.86-22,1-43.39-3.91-65.08-6.55.51,2.38,1.47,7.16,2,9.55-1.78-3.2-5.33-9.66-7.11-12.86l.25,15.65-5.89-2.44c1.07-2.94,3.15-8.74,4.22-11.68-13.62-1.22-27.74-.71-39.58,6.75q-12,1.76-23.82,3.92c6.6,2.54,13.21,5.18,19.91,7.92-7.87-.25-17.42,2.54-21.44-6.55-26.41-.21-50.64,11.78-76.55,15.14-23.42,1.72-46.89,2.38-70.36,1.77l2.79-5.48c-4-.26-12.14-.71-16.15-1q8.22-4.65,16.76-8.94c-5.23-1.47-10.36-2.95-15.44-4.47a38.75,38.75,0,0,0-20.42,13.82c-21.8,1.62-44.15-1.47-65.49,3.81-11,2.08-23.11,2.34-31.65,10.72,4.22.4,12.65,1.22,16.87,1.67,5.44-9.7,14.43-3.45,21.54-.1-4.22.15-12.55.51-16.76.66-7.42,3.71-14.94,7-22.46,10.37l0-8c-2.94,1-8.79,3-11.73,4l3.66-8.38-8.08,2,1.93-8.33-8.43,4.47c.86-3.61,2.54-10.82,3.4-14.43-19.76,16.06-45.57,3.05-68.12,5.9,16.51,7.21,35.45,6.7,53,4.21-.25,3.31-.71,9.81-1,13.06-23.27-4.93-47-8-69.5-15.85,5.54-1,16.61-2.9,22.2-3.86a234.18,234.18,0,0,0-39.68-9.15l-.55,4.93,12.34,1.42-.3,5.29c-5.08-2.09-10.11-4.22-15-6.35-5.89-2.85-11.84-5.49-16.87-9.5,3.56,1.12,10.67,3.4,14.28,4.57,3.2-2,9.6-6.15,12.8-8.18l-12-.51c1.88-5,4-9.95,6-14.88-16.31-3.2-34.65-8.79-43.74-23.88-2.24-1.12-6.66-3.4-8.84-4.52.56-3.91,1.72-11.68,2.28-15.6-8-6.9-7.92-17.52-9.09-27.07l16.51-2.69A377.52,377.52,0,0,0,56.29,53.9c-16.06-8-38.87-7.42-47.55-25.45a181.38,181.38,0,0,1,26.77.4l-3.2-6.75A274.63,274.63,0,0,1,62.54,24c2.13-.81,6.45-2.39,8.58-3.2,4-7,11.63-13.21,20.22-11.94,42.62,4.27,85,13.72,128.12,10l3.61-5.79c10-.36,20-.77,30.07-1.22C253.24,8.89,253.39,3,253.5,0Zm7.92,132.59c-1.73,2.13-5.08,6.3-6.81,8.43,9.25-.1,18.44-.1,27.79-.56A132.15,132.15,0,0,0,261.42,132.59Z"/><path d="M20.12,114.91c9.19,1,18.39,2.49,27.53,4.42-.3,5-.61,10.11-.81,15.24-4.47.41-13.31,1.27-17.78,1.73,1.37-1.88,4.11-5.54,5.48-7.37Z"/><path d="M414,154.89c1.52-6.55,5.53-7.57,12-3.1C424.44,158.19,420.43,159.21,414,154.89Z"/></g></g></svg>