<?xml version="1.0" encoding="UTF-8" standalone="no"?><svg xmlns="http://www.w3.org/2000/svg" xmlns:xlink="http://www.w3.org/1999/xlink" contentScriptType="text/ecmascript" fill="#000000" width="780" zoomAndPan="magnify" contentStyleType="text/css" viewBox="-7.8 -0.0 779.7 780.6" height="781" preserveAspectRatio="xMidYMid meet" version="1"><g data-name="Layer 2"><g id="change1_1" data-name="Layer 1"><path fill="#ffffff" d="M752.07,573.47a61.62,61.62,0,0,1,1.54,88.46c-15.1,15-32,31.94-47.38,47.38A219.76,219.76,0,0,1,568.15,773c-102.09,7.54-274.4-6.85-420.3-152.68C.76,473.2-7.83,298.72,3.49,196.7A224.64,224.64,0,0,1,68,62.89C82.51,48.28,98.52,32.35,112.77,18a61.41,61.41,0,0,1,86.93,0C237.57,55.9,293,111.31,336.23,154.5a43.34,43.34,0,0,1-26.69,73.78h-.07a77.89,77.89,0,0,0-47.93,132.56C315.13,414.43,378,477.25,429.38,528.61a80.4,80.4,0,0,0,134.86-37.25l.07-.06A45.78,45.78,0,0,1,640,469c34.94,32.55,79.17,73.86,112.08,104.46Z" fill-rule="evenodd"/></g></g></svg>