<?xml version="1.0" encoding="UTF-8" standalone="no"?><svg xmlns="http://www.w3.org/2000/svg" xmlns:xlink="http://www.w3.org/1999/xlink" contentScriptType="text/ecmascript" fill="#000000" width="712" zoomAndPan="magnify" contentStyleType="text/css" viewBox="-1.2 -1.9 712.0 686.2" height="686" preserveAspectRatio="xMidYMid meet" version="1"><g data-name="Layer_1"><g><g id="change1_1"><path fill="#fff4d4" d="M163.17,673.81c12.46.48,25.42.72,39.64.72,27.17,0,54.74-.88,81.39-1.73,11.42-.36,22.82-.73,34.15-1.03,38.35-.7,77.71-.88,115.78-1.06,36.96-.17,75.18-.35,112.41-1,22.36-.72,45.62-2.27,71.1-4.76.15-.01.3-.04.45-.07,3.49-.66,7.36-.83,11.46-1,9.66-.42,20.61-.89,28.72-8.6.16-.15.3-.31.44-.47,21.02-25.8,20.29-89.05,19.76-135.24-.12-10.23-.22-19.07-.07-26.38,0-.09,0-.19,0-.28-.91-26.29-2.56-52.95-4.15-78.74-1.38-22.23-2.8-45.21-3.73-67.78-.71-22.12-1.02-45.04-1.32-67.2-.28-20.65-.57-42-1.18-62.48l-.36-11.46c-1.18-38.24-2.41-77.78-7.24-116.48l-.43-3.71c-1.91-16.56-3.88-33.68-8.69-50.18-1.69-6.97-5.73-11.65-11.39-13.17-.44-.12-.88-.17-1.32-.17-1.4,0-2.77.58-3.75,1.64-.26.28-.64.7-2.57.7-.92,0-1.85-.08-2.83-.16-1.24-.11-2.47-.2-3.65-.2-.3,0-.6,0-.9.02-11.95-.32-24.08-.4-35.81-.48-15.71-.11-31.95-.22-47.88-.91-43.55-1.67-87.81-4.25-130.62-6.75-33.49-1.96-68.13-3.98-102.37-5.56-4.64-.09-9.27-.15-13.9-.15-27.56,0-55.43,1.79-82.39,3.53-12.04.78-24.5,1.58-36.73,2.2-.11,0-.21.01-.32.03-4.98.57-10.05.69-15.4.83-9.25.23-18.82.47-28.05,3.16-.94.27-1.78.81-2.42,1.55-6.83,7.84-7.75,18.9-8.57,28.65-.28,3.35-.54,6.51-1.03,9.2-.03.15-.05.3-.06.46-2.16,24.68-1.18,49.58-.23,73.66.41,10.47.84,21.29,1,31.92,1,51.24-1.17,102.85-3.42,146.52-5.68,91.89-10.7,190.82-9.03,291.8.14,4.14.25,8.3.35,12.45.37,14.91.76,30.33,3,45.47.02.1.03.21.06.31.95,4.48,4.96,6.09,6.89,6.86l.46.19c.18.08.37.14.57.2,12.16,3.43,24.75,4.09,36.92,4.73,2.39.12,4.77.25,7.26.4ZM532.34,101.29c6.63.62,13.39.68,19.93.73,11.75.1,22.86.2,33.34,3.25,6.65,4.07,17.39,21.1,18.08,88.21.45,43.96-3.51,91.57-5.64,117.14-.29,3.44-.53,6.44-.72,8.83-2.47,24.92-5.52,50.21-8.48,74.66-2.73,22.6-5.56,45.98-7.91,69-.59,5.31-1.2,10.61-1.81,15.92-1.11,9.69-2.26,19.7-3.24,29.49-.11,1.02-.21,2.06-.3,3.11-.44,4.85-.85,9.44-3.31,12.53-8.85,8.59-21.9,9.88-35.72,11.25-5.41.54-11.01,1.09-16.27,2.14-48.1,6.66-96.53,10.07-143.87,10.13-7.45-.11-14.89-.21-22.34-.31-39.69-.52-80.74-1.05-120.93-3.92-3.39-.47-6.77-.74-10.04-1.01-16.74-1.38-25.62-2.79-28.55-17.7-3.98-16.91-4.31-34.91-4.63-52.31-.11-6.19-.23-12.58-.51-18.77-.85-33.73-.39-68.09.05-101.32.2-14.87.4-29.73.49-44.63v-22.49c-.02-38.94-.03-79.21-.7-117.86.02-12.1-.93-24.3-1.84-36.1-.91-11.76-1.85-23.92-1.8-35.71.78-2.37,3.85-4.74,6.28-4.74.88,0,1.45.32,1.98,1.11.95,1.42,2.54,2.26,4.24,2.26.04,0,.08,0,.13,0,18.5-.46,37.95-.69,57.83-.69,63.52,0,126.84,2.34,180.46,4.62,8.53.27,17.05.52,25.58.78,23.02.69,46.83,1.4,70.23,2.38Z"/></g><g id="change2_1"><path fill="#ffd2ab" d="M472.03,233.63c-2.43-2.6-5.73-3.98-9.53-3.98-4.08,0-7.83,1.57-10.32,2.92-15.21,8.57-19.55,25.22-23.38,39.92-1.01,3.88-1.97,7.55-3.09,10.99-.03.1-.06.19-.08.29-.36,1.37-1.92,2.18-3.22,2.18-1.38,0-1.72-.83-1.83-1.08-.99-2.57-1.37-5.53-1.77-8.67l-.21-1.58c-.93-9.66-6.4-57.86-22.78-57.86-7.58,0-12.05,8.99-15.09,16.82-.04.11-.08.23-.12.35-5,16.21-6.65,33.1-8.25,49.43-.24,2.48-.49,4.96-.74,7.45-.29,2.86-.87,3.67-1.61,4.18-.87.33-1.44.41-1.78.41-2.73,0-4.66-8.45-5.82-13.51-.88-3.87-1.72-7.53-3.07-10.33-1.24-3.49-2.42-7.04-3.6-10.61-5.09-15.36-10.36-31.25-21.28-43.94-.98-1.14-2.4-1.78-3.87-1.78-.43,0-.86.05-1.28.16-1.89.49-3.33,2-3.72,3.91-5.55,26.91-3.77,55.35-2.04,82.84.24,3.81.48,7.59.69,11.31-.03,3.3.54,6.81,1.09,10.2.95,5.86,1.94,11.92-.49,15.37-.33.33-.83.67-1.75.67-1.24,0-2.74-.61-3.92-1.59-.19-.16-.4-.31-.61-.44-2.66-1.62-5.95-4.27-9.44-7.08-9.39-7.56-20.03-16.13-30.99-16.13-3.47,0-6.72.88-9.68,2.6-.7.41-1.3.98-1.73,1.67-7.51,11.83,5.05,26.93,17.19,41.54,6.64,7.99,13.51,16.26,14.96,21.71.07.28.17.56.3.83,6,13.01,8.07,27.8,10.08,42.11l.52,3.66c3.31,23.24,6.73,47.27,9.21,70.96.02,2.8.5,6.6,1.05,10.97,1.02,8.07,2.42,19.13.77,25.45-.39,1.51-.07,3.12.87,4.37.94,1.25,2.41,1.99,3.97,2.02,15.51.31,29.48.46,42.7.46,28.3,0,53.57-.69,77.25-2.12,1.48-.09,2.84-.81,3.74-1.99.9-1.17,1.25-2.68.95-4.13-4.21-20.69-3.74-42.6-3.28-63.78.15-7.04.31-14.31.3-21.33.1-4.57.18-9.13.26-13.69.5-28.98,1.02-58.95,6.7-87.21,3.54-20.64,9.63-40.93,16.08-61.62.04-.14.08-.28.11-.42.65-2.97,1.53-6.11,2.46-9.44,3.85-13.78,8.21-29.41-.35-42.72-.17-.26-.36-.5-.57-.73Z"/></g><g id="change3_1"><path fill="#f2bc57" d="M309.38,541.98c18.48,3.6-7.62-136.69-12.19-151.87-5.42-24.37-64.67-63.2-23.55-80.37,17.71-5.73,45.28,30.88,46.83,12.6-1.35-30.21-11.24-103.75,8.34-112.13,13.63-.69,22.11,23.74,27.99,39.83,1.68,7.14,7.89,20.57,13.58,9.17,3.1-16.64,4.92-38.13,20.1-46.15,16.81-4.55,23.35,9.84,29.53,39.36.75,5.21,8.6,5.58,9.92.54,8.19-27.28,47.61-42.66,51.93-6.72,1.3,22.8-8.66,45.05-14.49,66.9-16.07,52.77-14.87,106.45-15.71,159.61,1.17,13.25-4.23,63.66,8.76,66.95,37.05-2.79,70.44-7.47,102.06-14.33,7.43-1.94,8.18-9.59,8.35-13.35,10.01-106.35,20.22-143.43,27.37-274.76-1.17-8.62-15.43-5.66-21.44-9.27-54.99-13.08-83.31-72.43-74.62-117.27.22-12.03-26.47-4.33-34.7-6.96-27.29-.73-55.5-1.49-83.23-2.98-37.12-1.69-76.81-2.51-121.35-2.51-5.37,2.34-75.7-5.45-72.67,6.04,9.75,124.31.92,239.71,4.25,364.99,2.55,20.75-3.31,48.43,11.06,65.07,34.38,8.26,69,5.55,103.87,7.61ZM540.13,253.6c1.16-4.36,4.51-9.06,6.61-4.5-2.37,8.3-6.93,16.76-9.54,25.02-3.52,5.53-9.47,34.33-14.81,33.5-3.78-6.01,6.11-19.38,7.27-26.68,3.35-9.04,6.61-17.9,10.48-27.34ZM421.76,141.14c1.02-5.83,31.09-1.11,36.73-.16,3.46,8.53-24.45.42-29.72,2.25-2.24-.11-7.22,1.11-7.01-2.09ZM470.4,194.07c-1.03-4.8,19.08-12.97,22.98-12.14,2.11,1.17.48,4.87-2.21,4.48-6.67.54-14.96,11.41-20.77,7.66Z"/></g><g id="change4_1"><path fill="#ff8456" d="M593.61,226.69c2.69.04,5.1-2.29,5.12-5,1.67-61.94-3.09-98.37-14.55-111.38-20.6-5.57-43.41-3-71.86-5.23-2.44,0-4.53,1.72-5.01,4.11-12.61,55.16,32.24,113.71,86.3,117.5Z"/></g><g id="change5_1"><path fill="#0a253a" d="M195.29,103.9c7.51,93.25,3.92,187.11,3.59,280.58-.35,28.49,0,56.94.66,84.46,1.4,20.11-.82,42.02,7.36,60.51,22.32,6.31,45.55,4.75,68.51,6.42,11.35.35,22.75.7,34.14.99,5.4.14,10.81.25,16.22.37,39.82.8,79.8.74,119.55-1.65,4.91-.29,9.82-.62,14.73-.99,34.08-2.56,67.95-6.99,101.37-14.23,3.96-1.2,4.09-5.45,4.35-8.85,1.55-16.05,3.49-32.08,5.3-48.11,3.38-31.56,7.1-63.13,11-94.63,2.76-22.51,8.81-77.9,11.04-131.74.21-5.2.39-10.36.52-15.49,1.32-49.18-1.24-94.21-13.27-107.87-22.65-1.69-45.32-2.72-68.02-3.49-5.07-.17-10.11-.33-15.18-.49-37.71-1.15-75.48-1.8-113.17-3.82-40.35-1.84-80.74-2.5-121.12-2.5-22.53,0-45.05.21-67.58.52ZM232.61,548.55c-18.69-2.6-38.45.7-43.03-22.63-5.53-23.54-4.21-48.11-5.28-72.12-1.22-48.67.25-97.41.54-146.08-.04-46.4.1-94.22-.7-140.36.04-24.2-3.82-48.46-3.63-72.47,1.55-7.26,12.67-13.16,17.6-5.8,79.55-1.96,159.1.54,238.58,3.94,32.02,1.01,64.01,1.82,95.99,3.16,18.19,1.71,37.36-.95,54.94,4.35,33.73,18.42,17.86,180.4,14.77,219.42-4.75,48.02-11.49,95.74-16.4,143.71-1.67,15.16-3.53,30.32-5.05,45.41-.7,6.31-.62,13.41-4.91,18.53-14.05,13.88-36.74,11.31-54.9,14.96-47.96,6.66-96.38,10.15-144.8,10.21-47.92-.72-95.91-.83-143.73-4.25Z"/></g><g id="change5_2"><path fill="#0a253a" d="M316.18,544.91c-4.04-.33-7.06-4.17-6.66-8.15.17-1.65.87-3.12,1.92-4.25-.33-23.66-3.96-47.16-6.87-70.62-3.78-23.37-4.93-47.47-12.21-70.1-7.28-20.86-27.15-33.79-35.5-54.03-6.54-13.43.37-31.38,16.21-33.09,16.21-1.8,30.14,8.91,42.31,18.19-3.3-32.9-4.75-66.28-.97-99.19,1.01-7.98,4.89-17.08,13.78-18.52,21.04-1.71,30.61,37.59,37.17,53.14,3.3-17.7,5.22-40.81,23.13-49.94,25.17-8.54,33.23,24.82,36.54,43.16,9.39-31.75,56.3-48.67,61.91-5.76,1.46,23.81-8.64,46.31-14.69,68.88-13.97,45.71-14.67,93.41-15.27,140.42.02,25.44-2.02,52.19,2.76,77.03,2.66,9.12-11.41,13.68-14.28,4.23-5.94-28.43-3.16-58.05-3.22-86.95.74-34.37.41-68.72,7.03-101.66,3.63-21.17,9.86-41.8,16.24-62.28,3.34-15.12,12.01-33.96,2.79-48.29-3.61-3.86-9.51-2.33-13.6-.1-16.96,9.55-18.69,31.32-24.12,48.03-1.75,6.7-11.94,8.54-14.75,1.65-1.42-3.69-1.77-7.69-2.29-11.59-1.34-13.88-11.68-81.73-28.02-39.69-5.59,18.13-6.87,37.13-8.79,55.89-.35,3.44-1.22,6.39-4.37,8.23-14.05,5.94-13.55-17.84-17.7-26.01-6.54-18.26-11.26-38.35-24.05-53.22-6.21,30.06-2.95,63.17-1.24,93-.14,8.99,5.22,21.31-.54,28.94-3.47,3.94-9.22,2.81-12.89-.25-11.68-7.14-30.45-28.98-44.87-20.55-9.16,14.44,28.41,42.77,32.78,59.19,6.7,14.52,8.66,30.53,10.87,46.21,3.44,24.1,6.87,48.19,9.39,72.39-.04,10.38,8.36,42.91-4.87,45.34-.82.21-1.59.35-2.41.35-.21,0-.41-.02-.64-.04Z"/></g><g id="change5_3"><path fill="#0a253a" d="M575.42,232.91c-28.24-8.71-55.84-27.19-68.2-54.83-8.91-22.96-15.7-49.45-8.77-73.77,1.2-4.68,5.16-9.63,10.5-8.15,5.67,1.34,8.19,9.22,3.55,13.08-5.51,26.05,2.43,59.31,19.29,79.88,17.37,17.89,41.34,31.62,66.59,32.82,4.06-.23,7.55,3.26,7.69,7.22-.68,6.13-4.97,8.02-10.31,8.02-6.87,0-15.49-3.12-20.34-4.27Z"/></g><g id="change5_4"><path fill="#0a253a" d="M456.02,149.98c-10.85-.58-20.18-1.9-30.33-1.59-9.86,2.04-12.85-12.85-2.93-14.65,11.57-1.05,23.21.87,34.76,1.42,4.06.25,7.08,4.23,6.68,8.15-.37,4-3.8,6.7-7.63,6.7-.17,0-.35,0-.54-.02Z"/></g><g id="change5_5"><path fill="#0a253a" d="M491.35,191.33c-.45-.06-.89-.16-1.38-.29.45.16.91.23,1.38.29ZM492.61,191.33c.39-.04.8-.1,1.18-.21-.39.06-.78.12-1.18.21ZM466.12,196.88c-2.1-3.47-.97-8.15,2.52-10.25,8.11-3.82,16.77-11.18,26.14-9.67,7.86,3.07,4.91,14.23-2.37,14.4-6.37,1.61-13.86,8.93-20.13,8.93-2.25,0-4.35-.93-6.17-3.42Z"/></g><g id="change5_6"><path fill="#0a253a" d="M520.52,312.37c-3.88-1.51-5.63-5.82-4.27-9.65,3.4-9.57,6.97-19.1,10.48-28.61,2.79-7.53,5.63-15.02,8.68-22.45,1.55-5.59,6.25-12.03,12.67-8.56,3.49,1.94,4.97,6.64,2.91,10.13-4.06,9.04-7.39,18.4-10.89,27.69-3.36,9.04-6.72,18.09-9.94,27.17-1.05,2.97-4.04,4.75-7.05,4.75-.87,0-1.77-.16-2.6-.48Z"/></g><g id="change5_7"><path fill="#0a253a" d="M175.46,20.52c-14.09,1.61-28.98-.16-42.6,3.82-7.9,9.06-6.5,24.74-8.42,35.4-3.07,35.07.27,70.1.8,105.03.95,49.02-.91,98.01-3.44,146.94-6,97-10.64,194.14-9.02,291.31.66,19.12.49,38.39,3.3,57.35.43,2.02,2.62,2.7,4.31,3.4,13.93,3.92,28.65,4.06,42.99,4.93,51.62,2,103.48-.7,154.89-2.04,75.65-1.38,152.76-.74,228.12-2.06,23.64-.76,47.24-2.45,70.76-4.74,12.38-2.35,27.85.99,37.61-8.29,24.38-29.93,17.72-118.68,18.55-158.5-1.69-48.89-5.86-97.64-7.88-146.53-1.38-42.85-1.24-87.37-2.5-129.68-1.36-42.56-2.29-85.2-7.57-127.51-2.08-17.86-3.92-35.85-8.99-53.16-1.01-4.25-3.24-8.33-7.78-9.55-2.54,2.76-6.09,2.45-9.59,2.15-1.4-.12-2.78-.23-4.06-.16-27.97-.76-55.99-.19-83.94-1.4-77.69-2.97-155.22-8.73-232.89-12.3-4.6-.1-9.2-.16-13.8-.16-39.69,0-79.24,3.69-118.85,5.73ZM177.25,684.09c-83.96-3.8-77.05.19-79.38-82.29,0-.54-.02-1.07-.02-1.61-9.37,0-18.75-.97-28.1-1.63-15.06-.91-30.16-2.33-45.26-2.04-1.59-.02-3.22.08-4.85.19-4.19.27-8.42.56-12.25-1.26-8.56-5.24-5.1-17.41-6.46-25.85-1.96-31.58-.7-63.13,2.68-94.52,7.39-102.16,20.03-204.71,54.65-301.6,14.4-46.4,31.29-91.97,48.71-137.29,2.27-5.67,4.6-11.31,6.75-17.02,1.28-4.99,4.44-11.04,10.58-9.55.91.19,1.75.56,2.46,1.05.74-.37,1.49-.7,2.29-.95,22.9-4.83,46.99-3.16,70.31-5.51,48.5-3.45,97.17-6.09,145.75-2.5,65.66,4.1,131.35,7.9,197.07,10.67,13.6.76,27.31.74,40.99.72,17.8,0,35.59-.02,53.18,1.67,5.45-5.51,13.41.33,17.86,4.54,7.28,8.48,8.33,20.49,10.81,30.99,2.78,14.96,4.39,30.18,6.06,45.32,8.03,78.12,6.99,156.83,8.71,235.26-.64,65.19,31.09,301.44-19.64,335.62-10.91,7.51-24.96,6-37.52,7.8-48.21,5.1-96.67,6.35-145.13,5.92-53.95-.48-107.87.7-161.78,1.86-45.72,1.01-91.45,2-137.17,2h-1.3Z"/></g></g></g></svg>