<?xml version="1.0" encoding="UTF-8" standalone="no"?><svg xmlns="http://www.w3.org/2000/svg" xmlns:xlink="http://www.w3.org/1999/xlink" contentScriptType="text/ecmascript" fill="#000000" width="1243" zoomAndPan="magnify" contentStyleType="text/css" viewBox="-1.7 -0.4 1243.1 1241.8" height="1242" preserveAspectRatio="xMidYMid meet" version="1"><g data-name="Layer_1"><g><g id="change1_1"><path fill="#244668" d="M1209,475.7c-6.76-26.7-14.33-50.87-22.53-71.92-.93-2.34-1.84-4.67-2.81-7.16-9.65-23.57-20.36-46.3-31.91-67.68-12.85-23-26.72-44.85-41.3-65.03-15.05-20.35-31.38-40.05-48.64-58.65-18.43-19.34-38.32-37.81-59.21-54.99-20.42-16.36-42.4-31.92-65.45-46.31-23.83-14.39-48.48-27.28-73.27-38.31-.2-.09-.85-.35-.99-.41-24.21-10.35-48.6-19.19-72.6-26.3-25.65-7.29-51.69-13.07-77.41-17.18-.11-.02-3.39-.46-3.39-.46-.63-.07-1.27-.15-1.9-.25-.25-.04-.5-.08-.75-.1-1-.09-2.01-.27-3.01-.44-.94-.16-1.88-.31-2.82-.44-3.41-.45-6.82-.88-10.24-1.27-6.36-.72-12.68-1.38-19.05-1.91-12.54-1.05-25.28-1.73-37.81-2.04-1.26-.04-2.52-.06-3.94-.08,0,0-5.12-.04-7.37-.04-20.06,0-41.31,1.06-64.95,3.26-.12,0-.92.06-1.17.09l-5.88.68c-26.03,3.14-52.34,7.97-78.29,14.37-23.91,6.13-48.41,13.99-72.95,23.41-23.83,9.52-46.92,20.28-68.73,32.03-23.13,12.77-45.63,27.01-66.94,42.39-21.4,15.75-40.67,31.7-57.28,47.39l-.37.35c-.45.42-.88.84-1.34,1.23-.18.16-1.81,1.75-1.81,1.75-19.34,18.62-36.11,36.68-51.32,55.29l-2.23,2.75c-16.42,20.55-31.49,41.82-44.81,63.3-14.16,23.26-26.86,47.35-37.94,72.07-.02.04-.2.46-.21.49-10.68,24.52-19.76,49.26-27.01,73.6-8.05,27.88-14.24,56.14-18.42,84.08-3.68,26.3-5.79,52.73-6.29,78.64-.28,26.63,1.15,53.9,4.22,80.58.03.5.09,1.03.16,1.53,0,.08.03.18.04.28,3.21,25.04,7.83,49.92,13.77,74.04,6.19,24.22,13.97,48.62,23.18,72.64,9.45,23.74,20.27,47.01,32.21,69.28,12.47,22.59,26.28,44.52,41.09,65.27,15.88,21.76,33.24,42.71,51.69,62.36,17.55,18.3,36.49,35.87,56.35,52.27,21.05,17.05,43.56,33.01,67,47.51,23.05,13.94,47.22,26.58,71.93,37.64,25.24,10.97,51.44,20.42,77.95,28.12,25.73,7.23,52.01,12.89,78.19,16.82,26.76,3.77,53.65,5.93,80.04,6.41l5.59.02c23.64,0,47.4-1.29,70.72-3.83,26.72-3.19,52.84-7.88,77.48-13.9.46-.1,1.55-.39,1.62-.41,25.02-6.37,49.73-14.27,73.51-23.5,24.48-9.7,48.23-20.8,70.63-33.03,21.26-11.79,42.62-25.3,63.61-40.24,21.81-16,42.69-33.33,62.16-51.59,18.3-17.64,35.78-36.46,52.02-56.05,17.5-21.71,33.7-44.58,48.21-68.07,13.54-22.49,25.92-46.2,36.86-70.56,11.09-25.52,20.63-51.89,28.39-78.48,6.89-24.56,12.43-50.13,16.51-76.1,3.95-27.44,6.21-55.39,6.71-83.2.14-26.54-1.25-52.77-4.14-78.06-3.05-24.48-7.56-49.33-13.44-73.96ZM957.78,887.37c-.61.72-1.21,1.43-1.53,1.82-15.65,18.78-33.41,36.73-52.8,53.34-9.01,7.73-18.64,15.29-28.72,22.58l-.96.69c-.32.23-.63.47-.92.74-.35.31-.72.6-1.11.84-.38.23-.74.48-1.09.76-1.05.85-2.25,1.59-3.4,2.33-.79.5-1.56,1-2.32,1.52-2.55,1.74-5.1,3.47-7.71,5.17-5.01,3.28-10.34,6.61-15.83,9.88-21.38,12.73-44.33,23.9-68.22,33.21-45.27,17.63-93.31,27.73-142.78,29.99-6.67.3-13.43.45-20.1.45-42.91,0-85.75-6.18-127.32-18.38-47.33-13.93-91.56-35.21-131.48-63.25-40.14-28.2-75.42-62.69-104.86-102.53-28.24-38.25-50.47-81.83-66.08-129.56-7.16-21.87-12.61-45.36-16.66-71.81-3.73-24.35-5.32-49.21-4.74-73.87,1.2-51.54,10.38-100.89,27.28-146.69,8.6-23.28,19.13-46.07,31.3-67.73,11.58-20.59,25.79-41.39,42.23-61.84,30.86-38.4,68.86-71.84,112.95-99.4,42.2-26.37,89.54-45.56,140.72-57.03,9.21-2.06,19.03-3.88,29.21-5.42l2.15-.34c.12-.01,2.54-.33,2.54-.33,6.82-.94,13.92-1.78,21.19-2.5.23.02.45.02.68.02.29,0,.58-.01.86-.04,13.84-1.22,27.71-1.84,41.21-1.84,3.55,0,7.11.04,10.65.13,47.8,1.21,94.74,9.94,139.5,25.95,48.53,17.35,92.53,41.88,130.78,72.91,20.02,16.23,38.59,33.87,55.18,52.43,16.24,18.16,31.43,38.4,45.13,60.17,26.64,42.36,45.96,89.02,57.43,138.68,11.17,48.3,14.15,98.54,8.86,149.32-5.06,48.66-18.72,97.19-40.58,144.25-15.62,33.64-35.97,65.65-60.65,95.35Z"/></g><g><g id="change2_1"><path fill="#f2bc57" d="M1044.75,496.66C955.09,113.32,438.77,28.64,231.48,363.37,8.72,724.47,368.37,1164.21,766.41,1017.63l-3.56-9.15,4.06,8.96c206.16-73.29,331.74-308.41,277.85-520.78ZM804.92,768.79c-26.19,57.16-114.35,54.1-136.68-4.26-9.74-22.75-7.1-49.39,6.37-69.74,2.29-3.54,2.07-8.15-.56-11.45-17.38-21.5-36.83-41.37-57.14-60.58-11.91-9.5-19.91,9.12-27.27,16.08-76.83,88.75-23.29,47.44-40.16,128.27-37.15,100.32-188.51,34.33-139.78-61.29,14.47-28.34,48.67-46.04,81.3-39.66,3.71.64,7.55-.95,9.71-4.1,16.1-28.07,46.02-52.4,61.81-81.91-3.88-9.52-37.54-36.98-48.13-32.47-103.39,53.96-171.48-114.16-58.85-147.03,51.25-15.63,107.04,31.17,100,84.75.79,12.8,18.48,17.82,25.94,26.43,11.61,5.82,21.91,27.23,35.55,18.2,9.63-12.65,40.61-28.23,41.42-42.2-13.01-72.28,82.36-120.62,132.92-67.3,51.86,47.86,9.43,142.11-61.58,134.02-16.32,2.02-30.95-16.35-45.36-10.27-7.63,9.65-36.61,20.56-25.65,36.03,31.43,26.16,46.59,60.86,72.86,80.33,56.29-6,99.78,58.44,73.3,108.15Z"/></g><g id="change3_1"><path fill="#fffbf2" d="M462.23,501.79c33.31,19.85,69.13,44.44,101.26,68.97,15.13,7.85,24.58-16.95,35.87-23.92,20.92-14.36-89.26-80.37-101.83-81.24-19.86-10.94-80.54,14.29-35.29,36.18Z"/></g><g id="change3_2"><path fill="#fffbf2" d="M636.93,580.14c34.05-37.72,81.6-61.09,115.42-98.53,6.49-42.83-59.21-10.16-82.04,9.03l5.95,7.81-6.5-7.39c-71.03,56.89-135.03,124.63-183.1,201.61-64.75,84.66-7.37,118.24,34.35,37.61,29.41-55.12,70.49-104.81,115.92-150.14Z"/></g><g id="change3_3"><path fill="#fffbf2" d="M754.47,727.05c-20.72-55.63-58.96-110.32-106.74-146.63-9.63,3.11-39.05,27.85-27.58,38.34,26.57,24.92,48.93,49.42,69.94,77.18,18.33,18.9,23.48,50.97,50.12,59.88,17.32,1.85,18.55-18.22,14.26-28.78Z"/></g><g id="change4_1"><path fill="#0a253a" d="M1196.96,390.33c-16.23-41.46-38.26-82.55-64.36-120.52-29.52-42.92-64.29-82.64-103.78-116.68-39.05-33.68-81.74-62.98-127.85-86.19-45.49-22.92-93.71-40.47-143.44-51.65-12.6-2.84-25.28-5.35-38.03-7.34-1.81-.28-3.6-.62-5.38-.8-.58-.14-1.18-.24-1.78-.3-.03,0-.06-.01-.09-.01-.36-.05-.71-.1-1.07-.15-.12-.02-.23-.04-.35-.06-.45-.06-.89-.13-1.34-.19-.23-.04-.45-.07-.68-.1-.92-.13-1.85-.27-2.78-.4-2.93-.4-5.87-.81-8.8-1.17-6.42-.79-12.85-1.53-19.29-2.11-24.01-2.17-48.12-3.07-72.21-2.47-12.54.29-25.01,1.06-37.48,2.09-.38-.01-.77,0-1.16.02-6.27.44-12.54,1.23-18.79,1.96-10.43,1.23-20.87,2.69-31.22,4.45-20.87,3.55-41.5,8.21-61.91,13.77-48.69,13.29-95.78,32.95-139.72,57.77-43.51,24.57-84.04,54.39-120.39,88.68l-.1.08s-.03.03-.05.04c-.41.34-.79.7-1.14,1.08-.48.45-.96.91-1.43,1.36-18.62,17.57-36.93,37.63-54.11,58.68,0,0,0,0,0-.01,0,0-.02.02-.02.03-.33.41-.66.81-.99,1.22-.82,1.03-1.91,2.4-3.01,3.76-30.86,38.61-56.69,81.24-77.42,126.08-21.12,45.65-36.5,94-45.89,143.4C1.45,554.16-1.73,604.66.88,655c2.57,49.98,11.58,99.88,26.33,147.71,15.13,49.14,36.17,96.72,63.12,140.56,26.52,43.17,57.82,83.12,93.86,118.77,36,35.65,76.41,66.76,119.98,92.61,42.83,25.41,88.68,45.47,136.3,60.01,49.27,15.05,100.55,23.74,152.01,26.08,9.58.44,19.17.66,28.77.66,41.73,0,83.56-4.16,124.35-12.72,49.37-10.36,97.62-26.2,143.05-48.14,46.24-22.32,89.81-50.04,129.25-82.95,40.26-33.6,75.89-72.19,106.71-114.57,14.96-20.6,28.58-42.33,40.72-64.71,12.37-22.84,23.59-46.41,33.01-70.65,18.72-48.27,31.89-98.66,38.19-150.07,3.16-25.93,4.87-52.01,4.78-78.15-.08-26.37-1.92-52.61-5.18-78.79-6.41-51.59-20.23-101.97-39.16-150.32ZM1210.15,709.53c-3.97,25.28-9.35,50.21-16.26,74.85-7.69,26.33-17,52.04-27.93,77.22-10.73,23.87-22.79,46.99-36.28,69.41-14.41,23.34-30.24,45.61-47.44,66.97-16.05,19.35-33.1,37.69-51.2,55.14-19.37,18.15-39.75,35.04-61.16,50.75-20.16,14.35-40.95,27.58-62.57,39.57-21.57,11.78-45.18,22.85-69.47,32.48-23.63,9.17-47.78,16.85-72.34,23.11l-.09.02c-.42.11-.85.22-1.27.32-24.71,6.04-50.45,10.62-76.47,13.73-24.95,2.72-49.98,3.95-75.08,3.73-26.38-.48-52.61-2.63-78.75-6.3-25.24-3.81-51.24-9.35-76.89-16.55-26.16-7.61-51.73-16.83-76.7-27.69-24.36-10.88-47.92-23.22-70.76-37.03-22.95-14.18-44.94-29.77-65.91-46.74-19.47-16.08-37.95-33.2-55.43-51.44-18.23-19.39-35.17-39.84-50.85-61.35-14.73-20.63-28.17-42.04-40.43-64.23-11.87-22.12-22.41-44.83-31.67-68.16-8.97-23.38-16.59-47.19-22.79-71.44-5.94-24.12-10.43-48.45-13.58-73.09v-.1c-.05-.29-.09-.58-.12-.87-2.99-26.1-4.47-52.91-4.2-79.83.51-25.93,2.61-51.7,6.19-77.38,4.08-27.21,10.17-55.15,18.12-82.72,7.05-23.63,16.08-48.28,26.58-72.41l.08-.19c.09-.21.18-.43.28-.64,10.76-23.95,23.23-47.65,37.17-70.54,13.1-21.13,27.99-42.13,44.09-62.27.06-.08,1.15-1.41,2.23-2.74,15.66-19.17,32.64-37.21,50.45-54.37.49-.46.97-.92,1.43-1.4.68-.59,1.34-1.23,2.02-1.87,16.98-16.03,36.31-31.86,56.38-46.63,21.11-15.22,43.07-29.11,65.86-41.69,21.34-11.52,44.17-22.15,67.62-31.51,23.49-9.03,47.38-16.77,71.75-23.02,25.39-6.27,51.06-11.01,77.01-14.13,1.84-.21,3.83-.45,5.82-.67.18,0,.36-.02.54-.04.1,0,.19-.02.29-.03,0,0,0,0,0,0,23.57-2.18,47.12-3.47,70.8-3.18.17,0,.46,0,.75,0h0c1.2.01,2.41.04,3.61.08,12.47.31,24.89.98,37.3,2.01,6.27.52,12.5,1.17,18.76,1.88,3.36.38,6.71.8,10.07,1.25,2.02.26,4.12.73,6.21.91,1.34.23,2.71.36,4.04.54l.2.03s.08.01.12.02c.04,0,.09.01.13.02.29.05.59.09.89.14,25.41,4.05,50.98,9.73,76.28,16.92,24.4,7.24,48.22,15.96,71.61,25.97l.06.03c.2.09.4.17.6.25,24.55,10.91,48.76,23.57,72.2,37.73,22.35,13.96,43.79,29.08,64.37,45.57,20.51,16.87,39.92,34.88,58.25,54.11,17.03,18.36,32.95,37.56,47.84,57.71,14.21,19.67,28.03,41.42,40.64,63.98,11.69,21.64,22.08,43.82,31.38,66.6.93,2.36,1.85,4.73,2.78,7.09,8.71,22.33,15.99,46.37,22.14,70.68,5.74,24.03,10.17,48.25,13.2,72.78,2.81,24.48,4.21,50.56,4.07,76.79-.49,27.45-2.7,54.71-6.61,81.86Z"/></g><g id="change4_2"><path fill="#0a253a" d="M1001.04,354.54c-13.65-21.69-29.02-42.37-46.12-61.49-17.32-19.37-36.13-37.15-56.31-53.51-39.74-32.24-85.54-57.33-133.66-74.53-45.68-16.34-94.07-25.3-142.56-26.52-17.66-.41-35.34.2-52.97,1.75-.52-.03-1.06-.03-1.59.02-7.23.7-14.44,1.55-21.64,2.55-.67.09-1.35.18-2.02.27-.2.02-.4.04-.61.07-.48.06-.96.13-1.44.21-.26.04-.52.09-.77.14-10.02,1.5-19.98,3.33-29.86,5.53-50.67,11.35-99.69,30.72-143.78,58.28-43.63,27.27-83.12,61.41-115.4,101.57-16,19.89-30.61,40.91-43.13,63.17-12.47,22.19-23.13,45.26-31.95,69.14-17.7,47.97-26.7,98.81-27.89,149.86-.59,25.2,1.04,50.65,4.85,75.58,3.8,24.82,9.21,49.48,17.03,73.38,15.48,47.33,37.9,92.23,67.51,132.33,29.86,40.41,65.99,75.85,107.11,104.74,40.83,28.69,86.5,50.56,134.35,64.63,42.18,12.38,86.12,18.78,130.08,18.78,6.85,0,13.71-.16,20.55-.47,49.86-2.28,99.38-12.52,145.91-30.65,24.11-9.4,47.45-20.69,69.68-33.93,5.47-3.26,10.86-6.62,16.19-10.11,2.65-1.73,5.25-3.49,7.86-5.27,2.03-1.39,4.36-2.73,6.34-4.32.93-.56,1.8-1.22,2.61-1.95.39-.28.78-.56,1.17-.84,10.07-7.27,19.83-14.92,29.25-23,19.43-16.64,37.57-34.84,53.95-54.5.43-.51,1.08-1.28,1.71-2.04,24.13-29.03,45.47-62.07,61.83-97.29,21.61-46.51,36.13-96.3,41.45-147.37,5.31-50.96,2.49-102.61-9.05-152.55-11.56-50.04-31.34-98.2-58.69-141.69ZM1046.78,609.97c-.61,19.76-2.39,39.36-5.43,58.89-3.12,18.6-7.33,36.98-12.6,55.15-5.96,19.46-13.06,38.45-21.41,57.02-7.92,16.97-16.76,33.42-26.55,49.38-10.52,16.61-21.92,32.67-34.5,47.8-.5.6-.61.74-.73.87-.03.03-.06.07-.09.1-.46.56-.98,1.19-1.51,1.82-11.13,13.08-24.04,26.6-37.77,39.42-13.28,12.07-27.15,23.38-41.67,33.91-.23.15-.45.32-.67.49-.32.23-.65.45-.97.67-.16.1-.31.21-.46.31-1.98,1.14-3.8,2.67-5.67,3.94-4.26,2.91-8.53,5.75-12.91,8.48-9.51,5.96-19.19,11.58-29.07,16.9-16.69,8.71-33.79,16.4-51.38,23.13l-.19.07c-.32.12-.64.25-.96.37-16.53,6.06-34.11,11.36-51.98,15.68-17.75,4.05-35.67,7.11-53.78,9.12-19.51,1.94-39.02,2.69-58.6,2.28-18.45-.59-38.34-2.46-58.15-5.57-18.5-3.14-36.71-7.37-54.71-12.63-19.11-5.84-37.77-12.86-56.01-21.05-17.46-8.07-34.36-17.21-50.72-27.34-16.5-10.49-32.3-21.92-47.38-34.37-13.98-11.71-28.31-25.33-41.84-39.84-12.74-14.02-24.61-28.72-35.61-44.15-10.39-14.93-19.9-30.39-28.54-46.4-8.51-16.21-16.05-32.83-22.65-49.9-6.56-17.62-12.06-35.5-16.55-53.74l-.04-.17c-.06-.24-.12-.48-.18-.72-4.01-17.54-7.1-35.69-9.22-54.05-1.93-19.28-2.74-38.59-2.35-57.96v-.03c0-.41.02-.82.03-1.24.63-18.03,2.39-37.02,5.27-55.94,3.25-19.54,7.65-38.79,13.28-57.78,5.78-18.65,12.65-36.84,20.63-54.67,7.93-17.11,16.84-33.66,26.71-49.76,10.62-16.75,22.18-32.77,34.76-48.11,12.53-14.85,25.84-28.88,40.06-42.14,13.89-12.59,28.42-24.27,43.61-35.25,15.4-10.69,31.26-20.51,47.77-29.37,16.19-8.42,32.76-15.84,49.76-22.48,17.69-6.53,35.63-12.1,53.95-16.56,12.37-2.87,24.82-5.23,37.36-7.09.65-.08,1.3-.18,1.95-.28,4.87-.7,9.76-1.33,14.66-1.89,19.46-2.03,39.06-2.84,58.65-2.32l1.53.04c18.24.56,37.96,2.51,57.56,5.62,17.32,2.9,35.96,7.22,54.37,12.6h.05c.21.07.42.14.63.2,18.81,5.8,37.71,13,56.25,21.34,17.15,8.07,33.74,17.03,49.89,26.99,16.19,10.32,32.41,22.07,47.92,34.87,13.96,11.87,27.21,24.41,39.74,37.76,12.6,13.81,24.37,28.25,35.37,43.39,11.44,16.3,21.85,33.18,31.23,50.76,8.34,16.2,15.71,32.75,22.25,49.73,6.3,17.31,11.68,34.83,16.05,52.71,4.02,17.45,7.02,35.04,9.1,52.82,1.98,19.34,2.82,38.71,2.47,58.16Z"/></g><g id="change4_3"><path fill="#0a253a" d="M728.89,564.34c2.3.17,4.64.27,6.96.27,13.83,0,27.64-3.11,40.01-9.4,18.66-9.53,33.77-25.49,41.75-44.92,4.45-10.78,6.96-22.57,6.81-34.27-.06-5.25-.54-10.38-1.44-15.53-.06-.4-.13-.82-.21-1.23-.96-5.02-2.42-9.99-4.28-14.77-4.49-11.51-11.41-22.42-20.31-31.01-11.93-11.47-26.27-19.5-42.35-23.32-.46-.11-.92-.21-1.38-.31-5.2-1.13-11.66-1.97-18.18-1.97-.42,0-.84.02-1.27.06-3.93.06-7.86.27-11.76.92-10.51,1.71-20.54,5.04-29.9,10.15-18.87,10.26-32.81,27.27-40.31,47.24-1.46,4.1-2.63,8.23-3.53,12.49-2.13,10.11-2.34,20.5-.77,30.63-6.18,5.04-11.91,9.92-17.05,14.23-7.19,6.31-14.31,12.73-21.35,19.27-3.28-2.82-6.56-5.62-9.84-8.4-10.64-8.32-22.52-18.26-35.21-27.87.06-.48.12-.98.15-1.48,1.82-20.27-3.82-41.43-15.4-58.15-9.09-13.12-21.63-23.92-36.17-30.57-6.64-3.05-13.54-5.26-20.66-6.66-.63-.21-1.28-.36-1.98-.44-.63-.08-1.25-.15-1.88-.23-2.47-.38-4.97-.67-7.48-.84-.13-.02-.27-.04-.4-.04h-.04c-.27-.02-.54-.02-.81-.02-.88-.04-1.76-.08-2.65-.08-8.46-.06-16.95.84-25.11,3.13-17.28,4.83-33.18,14.4-44.8,28.19-14.67,17.41-22.71,39.95-21.42,62.79,1.34,24.24,12.37,47.1,30.63,63.12,16.19,14.17,37.51,22.02,58.97,22.02,2.99,0,5.98-.15,8.98-.46,11.78-1.23,23.36-4.85,33.83-10.55,11.41,7.94,22.65,16.17,33.66,24.7-21.61,23.9-41.83,49.02-60.11,75.47-11.35-1.92-23.32-1.97-34.54.83-12.08,3.03-23.82,8.05-33.58,15.9-9.68,7.77-17.66,17.01-23.49,28.02-5.6,10.63-9.07,22.52-9.76,34.52-.69,11.99,1,23.67,4.93,35,7.71,22.19,25.32,40.56,46.76,49.9,10.85,4.74,22.71,7.14,34.54,7.14s24.53-2.57,35.71-7.77c21.15-9.82,37.67-27.56,45.53-49.61,6.71-18.87,6.62-39.66-.15-58.51-1.17-3.24-2.53-6.39-4.08-9.44,12.91-19.85,27.29-38.66,42.73-57.36,4.28-5.12,8.61-10.16,12.98-15.17,16.49,15.46,32.26,31.7,47.18,48.69,3.07,3.57,6.08,7.17,9,10.84-4.09,6.31-7.36,13.16-9.74,20.33-6.25,18.87-5.16,40.31,2.57,58.57,8.21,19.37,23.17,35.06,42.16,44.09,11.28,5.39,23.65,8.04,36.04,8.04,9.28,0,18.57-1.5,27.43-4.43,21.27-7.08,38.88-22.9,48.89-42.86,10.51-21,11.51-46.11,3.18-68.01-5.31-14-14.48-26.54-26.16-35.88-14.71-11.76-32.76-18.09-51.23-18.57-.59-.1-1.23-.15-1.84-.15-2.01,0-4.03.08-6.02.23-19.14-27.96-41.71-53.51-65.96-77.48,8.11-7.36,16.4-14.52,24.91-21.4,11.56,6.9,24.66,11.16,38.3,12.41ZM539.71,540.94c-2.22-1.59-4.45-3.17-6.67-4.7-4.01-2.82-8.02-5.6-12.06-8.34-.65-.44-1.3-.86-1.96-1.3-14.52-9.67-29.08-19.33-43.94-28.52-1.94-2.61-4.89-4.33-8.06-4.85-3.09-1.73-6.14-3.78-9.65-4.55-7.14-13.33,27.94-18.26,36.55-13.9,15.71,5.04,30.32,13.25,44.19,22.67.56.38,1.11.77,1.67,1.15,1.09.75,2.19,1.52,3.28,2.28,5.31,3.76,10.53,7.67,15.67,11.6,4.51,3.47,8.96,6.98,13.35,10.41,6.79,5.5,13.62,11.16,20.43,16.92-7.81,7.59-15.48,15.32-23.01,23.19-9.78-7.56-19.72-14.92-29.78-22.06ZM705.82,656.87s0,.02.02.02c1.25,1.71,2.47,3.43,3.68,5.16,2.49,3.55,4.91,7.14,7.27,10.76,1.09,1.67,2.17,3.36,3.22,5.04,3.22,5.14,6.29,10.34,9.19,15.57,6,11.41,11.89,22.88,15.59,35.25.86,5.12,3.68,11.49.9,16.28-1.44.79-3.28,1.04-4.99,1.05-4.97-.25-7.75-5.22-10.72-8.63-10.68-15.76-20.62-32.03-32.03-47.31-.92-1.23-1.86-2.45-2.8-3.68-2.4-3.13-4.83-6.23-7.33-9.32-1.46-1.84-2.93-3.66-4.45-5.49-.21-.27-.44-.54-.65-.8-17.28-20.94-36.04-40.64-55.87-59.19,6.79-7.27,13.75-14.38,20.87-21.35,3.85,3.84,7.63,7.69,11.35,11.56,16.34,16.8,32.47,35.37,46.74,55.06ZM677.67,530.79c-1.94,1.57-3.87,3.15-5.79,4.74-.25.21-.5.4-.75.61-7.9,6.54-15.65,13.25-23.23,20.16-2.44,2.19-4.85,4.43-7.25,6.67-1.76,1.63-3.51,3.3-5.24,4.95-1.8,1.73-3.61,3.47-5.39,5.24-7.31,7.12-14.46,14.44-21.4,21.92-.81.83-1.57,1.65-2.3,2.47-1.73,1.84-3.43,3.7-5.12,5.58-1.69,1.88-3.38,3.76-5.04,5.66-1.38,1.55-2.74,3.11-4.05,4.66-1.27,1.42-2.49,2.84-3.7,4.26-17.59,20.18-34.25,41.23-49.23,63.42-2.38,3.51-4.72,7.06-7,10.64-.94,1.44-1.86,2.9-2.76,4.37-.33.5-.63,1-.96,1.51-.94,1.53-1.9,3.09-2.82,4.64-.06.1-.11.17-.17.27-1.75,2.88-3.47,5.77-5.14,8.69-12.22,19.64-21.23,49.31-46.51,54.68-24.91-2.86,16.23-57.42,21.73-69.08,2.47-3.91,5.01-7.83,7.56-11.68,4.54-6.9,9.22-13.71,14.02-20.45,16.94-23.86,35.29-46.68,54.83-68.43,5.49-6.12,11.07-12.12,16.74-18.07,7.27-7.61,14.69-15.09,22.27-22.44.52-.5,1.06-1.02,1.59-1.52,2.42-2.34,4.83-4.66,7.29-6.96.06-.06.11-.1.15-.15,2.9-2.7,5.81-5.41,8.75-8.09.04-.04.06-.08.1-.1.23-.21.48-.44.71-.65,8.53-7.19,17.55-15.44,27.02-23.65.46-.4.92-.8,1.38-1.21,1.04-.9,2.09-1.82,3.16-2.72,1.71-1.44,3.41-2.9,5.14-4.32,1.52-1.25,3.03-2.49,4.56-3.72.56-.42,1.09-.86,1.65-1.3,1.09-.86,2.21-1.73,3.32-2.59.15-.12.33-.25.48-.36,18.8-14.33,39.24-26.03,61.37-28.08,3.01.61,5.83,1.94,7.04,5.1l-.44-.54c-.61,4.03-4.01,6.87-6.81,9.61-11.39,9.91-23.74,18.74-35.83,27.81-3.76,2.76-7.48,5.56-11.18,8.42-4.3,3.28-8.55,6.62-12.75,10.01Z"/></g></g></g></g></svg>