<?xml version="1.0" encoding="UTF-8" standalone="no"?><svg xmlns="http://www.w3.org/2000/svg" xmlns:xlink="http://www.w3.org/1999/xlink" contentScriptType="text/ecmascript" fill="#000000" width="694" zoomAndPan="magnify" contentStyleType="text/css" viewBox="-4.1 -4.5 693.6 896.7" height="897" preserveAspectRatio="xMidYMid meet" version="1"><g data-name="Layer_1"><g><g id="change1_1"><path fill="#ff8456" d="M372,52.76c-22.65-19.48-55.96-51.25-88.81-39.88,14.35,82.62-3.45,128.5-62.33,191.36-53.47,54.21-114.19,117.34-85.39,201.92,14.02,46.12,46.93,83.82,87.9,100.78,7.08,2.62,41.43,21.15,32.22,2.09-129.48-112.18,38.3-142.47,51.46-243.68.08-25.46,25.08,5.26,31.81,13.65,20.16,25.42,32.01,58.71,35.24,98.96,6.04,18.39,45.14-23.08,50.95-26.64,37,29.47,41.68,117.47,2.42,157.05-3.84,3.64.66,10.42,5.51,8.31,114.97-42.77,157.11-232.49,56.22-310.59-2.47-1.77-6.2-.8-7.49,1.94-7.27,13.39-27.1,38.75-41.01,23.31-5.74-71.35-14.92-130.07-68.71-178.58Z"/></g><g id="change1_2"><path fill="#ff8456" d="M243.05,586.72c-30.26-3.99-87.14-33.44-96.95,12.24-2.05,20.47,44.49,46.47,54.28,45.98,26.55-12.53,54.41-25.4,82.8-38.24,14.54-13.09-32.77-16.42-40.13-19.98Z"/></g><g id="change1_3"><path fill="#ff8456" d="M389.99,631.93c20.99-17.01,44.06-32.72,62.7-52.71,7.47-18.07-9.01-27.5-19.41-36.12-46.67,24.24-98.3,45.02-146.89,67.1-86.14,41.19-175.62,76.2-253.83,133.66-3.12,2.17-2.57,7.46,1.06,8.82,42.73,17.94,78.36,54.54,87.31,92.63,1.23,3.62,1.32,10.36,6.68,10.31,95.67-60.34,171.06-156.23,262.4-223.7Z"/></g><g id="change1_4"><path fill="#ff8456" d="M632.99,677.83c-34.29-16.91-94.69-26.31-131.23-33.32-34.66-6.84-69.66-8.48-103.52-10.05-2.41-.96-4.77.49-6.53,2.08-4.2,5.64-89.58,62.62-63.34,64.94,30.42,7.93,62.12,26.27,92.05,36.72,269.11,114.78,59.02,52.75,212.32-51.16,3.82-1.56,4.05-7.44.25-9.21Z"/></g><g id="change2_1"><path fill="#ff4d40" d="M426.1,358.54c-.14-.01-.29-.02-.43-.02-1.48,0-2.9.64-3.87,1.78-8.12,9.44-30.18,27.05-43.39,27.05h0c-2.52,0-8.42,0-9.41-13.03-3.78-44.87-21.14-83.49-48.91-108.73-.96-.87-2.19-1.33-3.44-1.33-.61,0-1.23.11-1.82.34-1.8.69-3.06,2.32-3.26,4.24-3.72,35.62-29.37,61.92-54.19,87.36-31.34,32.13-60.95,62.48-36.32,105.41,14.44,26.16,39.08,49.02,71.06,66.01,8.44,4.99,17.86,9.6,29.52,9.6,1.51,0,3.05-.07,4.61-.22,2.06.05,4.13.07,6.2.07,16.56,0,33.3-1.66,48.4-4.81.19-.04.38-.09.56-.15,29.88-9.88,51.28-30.24,61.89-58.86,12.76-34.42,7.68-77.43-13.26-112.25-.85-1.41-2.31-2.32-3.94-2.46Z"/></g><g id="change3_1"><path fill="#c79973" d="M389.99,631.93c13.6-10.54,27.67-21.44,41.05-32.75,1.89-1.65,3.84-3.26,5.8-4.86,5.51-4.53,11.21-9.22,15.85-15.1.22-.28.41-.58.57-.9,3.93-7.92-1.03-16.45-2.79-19.46-2.2-4.21-5.73-6.68-8.84-8.87-2.15-1.51-4.18-2.93-5.19-4.6-.71-1.15-1.85-1.98-3.16-2.3-.39-.09-.8-.14-1.19-.14-.93,0-1.86.26-2.67.75-27.32,16.72-58.23,29.69-88.13,42.24-18.27,7.67-37.16,15.6-54.9,24.25-18.68,8.93-37.89,17.74-56.47,26.26-67.16,30.8-136.6,62.65-197.36,107.4-1.48,1.09-2.26,2.89-2.04,4.72.22,1.83,1.4,3.39,3.1,4.1,4.13,1.73,8.53,3.65,12.81,6.02,37.23,20.06,63.98,50.12,73.33,82.28.29,1.21.71,2.69,1.17,4.34.54,1.94,1.16,4.13,1.71,6.42.4,1.62,1.56,2.94,3.11,3.55.6.23,1.22.35,1.85.35,1,0,1.99-.29,2.85-.87,17.43-11.7,35.6-25.37,55.55-41.83,32.83-27.43,64.36-57.08,94.85-85.76,19.37-18.21,39.4-37.05,59.5-55.08,15.89-14.01,33.05-27.31,49.64-40.16Z"/></g><g id="change3_2"><path fill="#c79973" d="M195.01,644.38c.19.08.34.17.5.27.82.51,1.76.77,2.7.77.74,0,1.49-.16,2.18-.49,26.55-12.53,54.41-25.39,82.8-38.23,1.91-.86,3.1-2.81,3-4.9-.1-2.09-1.47-3.91-3.46-4.59-12.82-4.36-26.47-7.48-39.67-10.49-6.73-1.54-13.09-2.99-19.27-4.58-.18-.05-.36-.08-.55-.11-4.48-.65-9.78-1.93-15.39-3.29-9.7-2.36-20.7-5.03-30.57-5.03-17.56,0-28.05,8.53-31.16,25.25-3.93,18.89,42.6,42.9,48.91,45.42Z"/></g><g id="change3_3"><path fill="#c79973" d="M632.99,677.83c-28.55-14.59-86.23-25.08-117.21-30.71-5.86-1.06-10.67-1.94-14.02-2.62-34.66-6.84-69.66-8.48-103.52-10.05-.05,0-.1-.02-.15-.04-.52-.17-1.05-.25-1.58-.25-1.12,0-2.22.37-3.13,1.07l-1.68,1.3c-11.91,9.22-24.23,18.76-36.05,28.61l-.04.03c-7.57,5.98-17.49,14.71-31.24,27.46-1.54,1.43-2.05,3.66-1.28,5.61.77,1.95,2.66,3.24,4.75,3.24h.51c6.31,0,17.03,5.02,24.85,8.68,4.62,2.16,8.63,4.04,11.64,4.94,18.41,8,37.29,15.68,55.55,23.1,25.36,10.31,51.58,20.97,76.82,32.63,6.55,3.02,13.18,6.2,19.58,9.29,15.09,7.26,30.69,14.76,46.27,20.5.08.03.17.06.26.08.57.21,1.16.31,1.75.31,1.14,0,2.27-.38,3.2-1.12,1.56-1.25,2.24-3.29,1.75-5.23-9.3-36.94,27.44-91.94,62.7-107.62,1.8-.8,2.98-2.56,3.03-4.53.05-1.97-1.03-3.79-2.78-4.69Z"/></g><g id="change4_1"><path fill="#0a253a" d="M287.36,15.84c18.36,84.29-7.32,130.42-62.69,191.81-24.26,27.09-51.97,51.64-70.41,83.34-48.19,72.31-6.48,179.11,71.21,211.29,8.79,3.96,17.8,7.37,26.86,10.67-27.54-22.92-55.76-57.1-49.12-95.27,8.83-36.8,41.92-60.42,65.99-87.37,13.97-16.21,26.28-34.76,31.54-55.7,2.87-7.59-1.44-18.57,6.4-23.52,13.16-4.79,28.1,15.9,35.73,24.75,22.96,28.96,33.42,65.37,36.33,101.72,9.9-2.56,19.91-9.9,27.46-15.95,5.63-4.08,8.77-10.64,14.3-14.63,14.94-5.36,23.42,19.58,28.18,30.02,16.85,43.96,16.13,99.41-17.99,134.92,43.61-16.71,78.72-52.69,92.65-97.39,24.03-67.03,27.5-159.36-37.52-204.23-7.8,15.8-33.48,44.52-49.86,23.89-3.32-5.98-2.5-12.98-2.78-19.29-1.63-28.68-5.65-57.56-15.62-84.64-9.8-28.22-27.68-53.49-49.41-73.67-20.86-18.42-45.63-41.13-74.7-41.13-2.17,0-4.35.12-6.56.39ZM225.53,459.13c15.47,28.02,41.22,49.22,69.19,64.08,10.38,6.13,19.45,9.88,31.34,8.66,18.01.47,36.6-1.05,53.74-4.62,70.84-23.43,80.76-105.62,45.86-163.63-12.85,14.92-58.81,49.97-61.76,11.12-3.28-39.01-17.8-78.6-47.26-105.38-8.71,83.57-132.26,118.02-91.12,189.77ZM304.71,546.49c-23.1-5.86-43.76-14.71-65.91-22.67-23.25-8.52-45.71-19.89-64.18-36.54-44.83-42.41-69.52-112.68-48.44-172.4,19.91-55.68,68.33-92.57,104.59-137.08,39.16-47.59,55.53-85.67,43.98-147.79-.82-6.62-3.9-13.57-1.28-20.11,7.47-14.42,27.21-9.74,40-6.58,19.83,5.61,36.87,17.93,52.52,30.97,60.77,47.67,81.75,117.34,83.14,191.96.66.04,1.32-.08,1.96-.21,31.6-14.92,17.56-55.64,61.74-12.79,63.7,63.6,47.24,182.26,2.06,252.22-40.64,57.89-116.27,80.64-184.28,81.34-2.45,2.06-5.36,2.76-8.44,2.76-5.78,0-12.19-2.45-17.45-3.09Z"/></g><g id="change4_2"><path fill="#0a253a" d="M151.1,600.01c-2.72,13.02,34.93,35.3,45.9,39.67.45.19.83.41,1.2.64,27.52-12.98,55.16-25.73,82.87-38.27-18.92-6.44-39.98-10.17-58.57-14.96-12.69-1.82-30.49-8.27-45.24-8.27-12.67,0-23.1,4.74-26.16,21.19ZM358.93,669.06l-.02.02c-8.27,6.52-18.83,15.95-31.05,27.29h.5c11.35,0,30.57,11.78,38.23,13.91,44.04,19.16,89.16,35.77,132.77,55.91,22.05,10.15,43.59,21.56,65.48,29.64.08.02.16.04.23.08-9.96-39.57,28.88-97.21,65.58-113.54-33.34-17.04-109.44-28.72-129.9-32.86-34.1-6.73-68.64-8.38-103.09-9.98-.41-.06-.8-.16-1.16-.27-12.63,9.78-25.29,19.54-37.57,29.79ZM288.58,614.82c-85.98,41.09-175.87,76.35-253,133.16,4.5,1.88,8.97,3.86,13.26,6.23,33.79,18.2,65.02,48.23,75.86,85.57.64,2.62,1.86,6.54,2.89,10.75,19.12-12.83,37.36-26.86,55.12-41.51,53.55-44.73,102.38-94.22,154.25-140.74,29.07-25.64,61.25-48.03,90.71-72.93,7.14-6.23,15.1-11.8,21-19.27,2.41-4.87-.23-10.52-2.74-14.83-3.11-5.92-10.56-7.76-13.86-13.16-44.5,27.23-96.88,44-143.5,66.74ZM59.14,891.34c-25.11-7.06-40.6-31.87-50.3-54.57-11.88-27.17-12.91-60.65,3.86-86.02,11.94-16.75,30.78-26.55,47.47-37.83,26.03-16.3,52.91-31.23,80.39-44.93,13.49-6.6,27.02-13.12,40.58-19.56-17.45-9.2-34.47-21.45-44.09-38.58-3.67-10.07,1.47-21.31,6.4-30.12,18.63-27.21,55.33-12.01,81.16-7.41,20.63,4.5,41.13,9.76,61.44,15.62,3.9.89,9.8,2.72,14.01,5.55,28.63-12.85,57.33-25.48,86.09-38,11.8-5.38,23.68-10.91,34.86-17.49,3.57-3.67,10.34-2.56,12.27,2.27,8.58-8.23,20.82,7.01,25.64,13.66,18.36,28.51-11.84,43.45-30.3,59.87-4.77,3.94-9.59,7.82-14.44,11.66,24.32,1.11,48.4,2.27,72.51,6.72,37.15,5.65,72.43,12.48,108.1,22.03,24.38,8.66,67.09,14.11,66.74,47.14-.06,32.35-10.71,64.72-32.49,89.04-14.56,16.01-36.91,31.69-59.25,22.8-30.88-9.84-59.16-26.12-88.85-38.93-50.27-21.39-100.75-42.6-151.46-62.84-5.32,1.86-9.92-2.6-9.96-7.32-52.56,49.24-130.42,126.31-191.92,164.71-1.07,1.71-2.76,2.89-5.3,3.24-20.98,12.52-39.84,20.16-54.87,20.16-2.91,0-5.69-.29-8.31-.89Z"/></g></g></g></svg>