<?xml version="1.0" encoding="UTF-8" standalone="no"?><svg xmlns="http://www.w3.org/2000/svg" xmlns:xlink="http://www.w3.org/1999/xlink" contentScriptType="text/ecmascript" fill="#000000" width="696" zoomAndPan="magnify" contentStyleType="text/css" viewBox="-3.7 -16.5 695.6 1979.8" height="1980" data-name="Layer 2" preserveAspectRatio="xMidYMid meet" version="1"><g data-name="Layer 1"><g><g id="change1_1"><path fill="#51233c" d="m386.44,241.56c.8.94,19.77-4.91,24.15-5.46,52.73-6.45,103.6,1.04,152.55,21.82,20.71,8.79,65.3,28.95,62.87,55.28-2.46,26.72-47.09,69.86-63.45,91.78l-1.34,12.66c34.61,99.66,67.72,200.4,95.05,302.42,11.37,42.45,27.66,97.35,31.58,140.37,4.05,44.4-9.47,56.69-47.74,73.09-4.25,1.82-16.11,3.81-16.77,4.37-.91.78-.49,19.93-.22,23.91,5.02,74.58,20.03,153.64,11.52,228.39-1.87,16.36-1.52,36.98-17.2,47.63-26.3,17.86-49.9-13.42-55.6-37.18-.69-2.88-.36-8.85-.66-9.21-.75-.89-17.75,6.55-21.89,7.7-8.62,2.4-53.01,10.22-54.24,13.92-4.37,13.12-1.59,28.31-2.97,41.61-.73,7.08-4.37,15.75-5.26,22.92-16.07,127.97-14.57,259.58-20,388.71-3,71.31,10.71,146.5,14.27,217.04,1.06,20.91,4.87,43.86-15.02,55.61-18.71,11.05-65.91,20.62-87.86,22.07-35.86,2.36-93.87-3.85-127.74-16.18-5.92-2.16-10.7-3.45-11.89-10.66-1.43-8.73-.77-29.98-.06-39.57,1.42-19.46,6.89-41.81,8.62-61.84,11.97-138.2,6.94-288.24-5.55-425.87-4.1-45.24-11.06-90.11-14.35-135.04-.35-4.94,1.05-25.93.1-26.87-1.03-1.04-23.8.39-29.41-.18-8.43-.87-21.69-4.17-30.41-6.23-33.03-7.8-103.99-35.26-118.37-67.65-7.65-17.24-3.77-30.64-2-48.34l47.73-227.08c-28.08-5.94-78.83-33.66-83.97-64.05-4.63-27.38,10.16-85.3,17-114.26,14.19-60.02,33.06-120.38,52.09-179.03,9.73-30,27.41-66.71,33.89-95.77,6.53-29.32,7.94-60.17,15.01-89.48-5.18-21.44-33.64-44.33-12.76-66.1,18.88-19.68,90.36-33.77,118.15-36.88,9-1.01,22.19-2.34,31.01-2.82,8.22-.45,50.33,1.87,52.24.09.4-.38.14-7.41-.15-9.72-1.91-15.04-15.9-26.14-22.94-39.07-22.91-42.13-26.37-108.25-7.31-152.12,17.75-40.83,56.29-62.76,95.03-31.44,48.18,38.96,54.9,142.36,25.06,193.8-2.41,4.15-12.94,16.45-13.21,17.75-.15.75,1.94,14.59,2.44,15.17h0Z"/></g><g id="change2_1"><path fill="#ffa476" d="m248.35,1927.08c-.81-.68-.38-17.49-.12-21.18,2.06-28.07,6.12-56.48,8.46-84.56,12.99-156.24,6.74-318.17-11.03-473.62-8.34-72.98-9.28-146.63-17.23-219.53-13.12-120.25-55.23-244.87-21.02-365.23,14.53-51.14,48.02-106.51,52.01-159.39,4.42-58.57-48.24-152.35-79.25-202.27-8.36-13.46-62.89-88.39-61.25-95.98,2.41-11.1,47.01-23.77,58.22-26.43,44.21-10.47,87.82-9.81,133.2-9.17,2.08,31.85,8.89,107.93,54.88,101.41,27.03-3.84,33.76-53.27,26.77-74.53,2.37-5.71-2.46-31.25-1.53-32.58,3.17-4.55,24.54-7.96,31.12-8.47,49.82-3.8,96.54,3.91,141.58,24.91,9.13,4.26,41.95,20.57,42.17,30.12.17,7.3-12.65,25.52-17.53,32.26-43.55,60.24-103.73,115.62-132.3,186.21-34.32,84.75-4.05,135.66,14.81,216.32,48.12,205.94-9.04,415.57-21.78,622.31-10.52,170.97-15.1,339.25-.18,510.19.93,10.66,6.64,27.71,1.52,37.98-3.8,7.64-23.7,13.2-32.31,15.59-37.18,10.35-76.08,11.39-114.1,6.75l-55.11-11.14h0Z"/></g><g id="change3_1"><path fill="#c9b8ff" d="m214.5,1225.28c-1.69,1.68-34.46-2.44-40.22-3.48-29.07-5.3-99.86-31.29-114.46-57.49-8.28-14.88-2.65-36.06.34-52.5,19.73-108.28,44.38-243.47,83.09-345.34,1.31-3.44,1.31-6.77,5.01-9.07l29.76,49.35c-14.41,131.68,28.43,260.51,36.56,391.67.26,4.28.87,25.93-.08,26.87h0Z"/></g><g id="change4_1"><path fill="#ffffff" d="m541.45,436.04c.4,9.74-.62,19.67.18,29.43,3.74,44.74,13.56,91.02,19.4,135.63,20.41,156.03,42.24,313.62,50.81,470.64,2.16,39.61,6.53,84.1,2.98,124.01-.66,7.48-5.02,24.78-13.03,26.59-12.15,2.73-22.46-34.72-23.51-43.75-10.14-87.95,5.54-178.42-12.23-266.82-7.56-37.61-20.95-74.09-29.45-111.49-17.43-76.67-26.45-155.25-31.87-233.09-1.3-18.72.91-43.43-3.22-61.59-.81-3.52-4.4-6.66-4.83-9.41-.58-3.73,36.18-56.22,44.77-60.15h0Z"/></g><g id="change3_2"><path fill="#c9b8ff" d="m558.39,1174.54c-.46.38-8.56.02-12.01.67-8.49,1.61-55.67,16.32-58.46,13.42-2.9-3,10.76-72.11,8.61-82.99,18.16-126.23,20.73-252.53-9.3-377.17-12.51-51.91-36.21-103.39-24.06-157.92,3.52-15.77,12.77-31.27,16.31-47.12l5.71,21.05c-3.55,120.54,27.67,232.18,55.59,347.48,22.49,92.85,8.76,172.38,14.7,264.34.25,3.95,4.84,16.62,2.92,18.23h0Z"/></g><g id="change5_1"><path fill="#f471a4" d="m84.84,615.03c1.2,13.04,7.45,33.62,12.68,46.51,9.73,23.96,25.37,45.31,35.31,69.19-14.04,48.37-32.8,95.4-42.37,145.04-29.59-8.42-72.37-27.37-70.58-63.55,1.08-21.89,9.91-55.72,15-78.03,12.86-56.33,30.64-111.27,47.93-166.29,1.42-4.53,2.58-8.64,2.04-13.47,4.54-.88,3.33,7.44,2.96,10.01-.56,3.84-2.97,7.87-2.97,8.31,0,13.47-1.2,29.25,0,42.28h0Z"/></g><g id="change4_2"><path fill="#ffffff" d="m323.54,22.22c37.6-10.89,60.08,37.91,67.24,67.01,8.53,34.73,6.56,94.01-19.73,121.44-34.25,35.75-68.65-14.08-78.45-45.8-10.54-34.12-10.88-77.73,3.53-110.87,4.25-9.78,17.15-28.79,27.42-31.78h0Z"/></g><g id="change4_3"><path fill="#ffffff" d="m183.47,774.28l-34.34-57.24c-29.44-53.18-47.42-81.1-41.91-144.45,5.81-66.67,17.87-132.54,28.36-198.55,3.61.15,4.49,4.19,6.21,6.46,16.95,22.4,31.4,48.93,44.43,73.82-8.06,24.74-17.21,49.55-23.91,74.7-4.65,17.41-11.47,40.08-12.77,57.69-3.89,53,25.13,89.25,40.27,137.56.99,3.16,4.69,5.24,5.1,9.21.87,8.48-10.69,30.61-11.44,40.8h0Z"/></g><g id="change5_2"><path fill="#f471a4" d="m620.39,918.05l-50.73-408.71,16.23,44.35c26.12,103.06,71.72,212.03,82.31,318.06,3.11,31.14-23.46,38.75-47.81,46.3h0Z"/></g><g id="change3_3"><path fill="#c9b8ff" d="m203.21,481.13l28.97,73.95c9.53,26.8,7.19,51.25.76,78.4-5.71,24.13-18.41,46.25-24.09,70.35-4.13-.31-4.38-4.24-5.68-6.99-10.16-21.66-31.59-62.21-33.85-84.53-2.44-24,6.05-52.1,12.11-75.44,4.32-16.64,9.9-35.99,15.56-52.16,1.36-3.87,4.01-7.39,6.23-3.57h0Z"/></g><g id="change4_4"><path fill="#ffffff" d="m327.25,241.57c2.53-2.15,14.02,2.98,18.31,3,5.57.02,20.44-6.67,21.14-5.83,1.15,1.36,2.55,30.16,2.99,35.08,1.69,18.44,4.58,37.68,2.74,56.62-2,20.65-13.64,29.52-26.77,9.69-13.86-20.95-13.23-66.31-15.67-91.45-.27-2.76-3.32-6.62-2.74-7.11h0Z"/></g><g id="change4_5"><path fill="#ffffff" d="m346.03,412.63c-18.35,0-33.33-10.89-44.62-32.45-17.9-34.18-20.11-84.71-15.83-89.39.38-.42,1.03-.44,1.45-.06.42.38.45,1.03.06,1.45-3.35,3.66-1.77,52.86,16.13,87.06,12.19,23.28,28.76,33.68,49.23,30.91,10.25-1.39,34.06-10.33,50.76-34.21,18.1-25.88,22.56-60.51,13.28-102.95-.12-.55.23-1.1.78-1.22.55-.12,1.1.23,1.22.78,9.42,43.01,4.84,78.19-13.6,104.55-17.07,24.41-40.82,33.53-52.16,35.07-2.28.31-4.51.46-6.69.46Z"/></g><g id="change4_6"><path fill="#ffffff" d="m351.22,445.08c-18.38,0-32.05-4.3-32.29-4.4-58.93-22.72-63.12-89.12-64.91-117.48-.37-5.79-.71-11.27-1.42-12.06-.37-.42-.33-1.07.09-1.44.42-.37,1.07-.33,1.44.09,1.12,1.27,1.39,4.78,1.92,13.29,1.77,27.97,5.9,93.45,63.61,115.7.46.17,48.82,15.35,85.61-12.44,32.8-24.78,46.04-75.02,39.35-149.32-.05-.56.36-1.06.93-1.11.54-.05,1.06.36,1.11.93,6.75,75.05-6.75,125.9-40.15,151.14-17.93,13.55-38.56,17.11-55.28,17.11Z"/></g></g></g></svg>