<?xml version="1.0" encoding="UTF-8" standalone="no"?><svg xmlns="http://www.w3.org/2000/svg" xmlns:xlink="http://www.w3.org/1999/xlink" contentScriptType="text/ecmascript" fill="#000000" width="889" zoomAndPan="magnify" contentStyleType="text/css" viewBox="-3.2 0.0 888.7 885.6" height="886" preserveAspectRatio="xMidYMid meet" version="1"><g data-name="Layer 2"><g fill="#c9b8ff" id="change1_1" data-name="Layer 1"><path d="M533.8,17.22C540.55,11.33,547.31,5.44,554.47,0c.41,8.53.66,17.12.81,25.71,1.83-1,5.49-3,7.32-4,5.74-3.2,11.43-6.65,16.92-10.26-7.52,11.58,6.35,12,12.09,16.31-1,2.69-3,8-4,10.67,1.93.1,5.85.25,7.78.35-1.07,9.86-.11,20-2.34,29.67,8.18,22.91-13.62,42.93-16.61,65.28a141.32,141.32,0,0,1-10.72,24c-4.27,13-8.38,27-19.46,36.07.81,12.29-5.84,22.25-14.22,30.48-4.68,11.63-12.25,22.35-13.26,35.15l-4.47-2.24c-.21,2.85-.61,8.59-.82,11.49-14.22,27.38-30.42,53.84-43.63,81.84-2.95-4.37-5.9-8.64-8.69-13-1.32,2.8-3.86,8.38-5.13,11.18,2.54,3.5,5,7.06,7.57,10.72-3.25,13.51-25.15,16-20.22,31.59-3.05-.71-9.14-2.13-12.19-2.89,14.93,15.24-7.88,29.51-11.74,44.5-7.72,14.58-15.75,29-25.5,42.27-2-2.8-6.1-8.44-8.08-11.28,9.4,20-8.12,35.71-16.2,52.63-4.27.35-12.85,1.12-17.17,1.52,4.32,2.29,8.73,4.57,13.15,6.81-10,19.36-16.66,41.25-33.07,56.54-3.1,6.66-6.35,13.31-9.9,19.76-1.88,5.08-3.66,10.21-5.39,15.34-1.17-3.35-3.45-10-4.62-13.41-7.72,12.3-6.55,26.62-5.79,40.44-3.3,5.84-6.71,11.63-9.81,17.63,5.64-8.79,12.2-16,23.52-12.19-.25-4.58-.76-13.77-1-18.34l6.55-.82c1.58-6.14,3.41-12.14,4.68-18.28,5-7.62,9.19-15.8,14.78-23,9.09-3.55,19.1-1.57,28.6-1.88a114.22,114.22,0,0,0-19.41-5c-.35-14.22,7.57-32.56,22.56-35.2,3.15-6.91,6.5-13.67,9.8-20.42l4.37,1.78c1.58-6,3.15-12,4.83-17.89l4.77,2.44c1.17-9.4,2.85-19.25,14.94-15.54L415,490.08c3.15-.21,9.4-.56,12.55-.77-2-4.52-3.91-8.94-5.79-13.31,6.76-4.31,13.46-8.89,21.28-11.22-.76-6.66-1.52-13.26-2.23-19.82l6.7,3c1.33-3.05,3.92-9.19,5.19-12.24,2-1.42,6-4.27,8.07-5.74,1.07-7.57,2-15.75,11.59-16.56,2.13-6.25,4.37-12.5,6.6-18.65,10.57-14.83,20.93-31,37.59-39.62,4.12-23.52,31.6-35.92,32.92-59.49.61,3.3,1.78,10,2.34,13.26,8.53-7.37,15.59-16.41,14.78-28.5l7.42,2.84a314,314,0,0,1,23.88-47.49c16.91-26.47,35.66-51.82,55-76.61a478,478,0,0,0,39.78-48.47c19.91-17.57,35.51-39.77,56.59-56.08-.91-1.07-2.64-3.15-3.5-4.17,7.72-1.77,15.44-4,23.11-6.19q6.78-6,13.87-11.54,4.11-8.44,8.43-16.76c2.44,2.9,7.42,8.69,9.91,11.58-3.46,9.25-12.85,16.82-6.5,28,11.43-9.5,14.58-24.89,14.78-39,2.74-3.35,5.59-6.6,8.48-9.8,4.52,9.24,10,20,22.36,17.78-5.85,5.74-8.18,13-7.07,21.59a264.39,264.39,0,0,0,23.83-11.59c-.86,4.58-2.69,13.77-3.61,18.34,2.39,1.48,7.27,4.42,9.65,5.9l-8.73.1c.3,4.16,1,12.49,1.32,16.71,2.13-.2,6.45-.51,8.58-.66-.61,5-1.17,10.16-1.67,15.29-1.58-.35-4.68-1-6.25-1.32-1,28.86-16,54.36-24.74,81.23a758.54,758.54,0,0,1-35.16,94.34,208.53,208.53,0,0,1-13.61,28.35c-10.92,35.3-30.48,67.05-46.38,100.17-10.82,26.88-29.82,49.43-40.39,76.51-11.73,18-19.91,38.1-32.46,55.68-1.63,4.62-3.2,9.24-4.72,13.92-8.79,16-20.43,29.82-32.21,43.58-3.36,10.93-9.4,20.73-13,31.6-10.21,14.89-18.79,30.79-27.78,46.38l-4.27-2c-8.18,30.33-28.09,55.88-40.29,84.64l-11.53-12.15,2,9.35,9.5,3.86A21.44,21.44,0,0,1,527,756.73c2.49,1.47,7.47,4.47,10,6-7.07,2.59-14.28,4.68-20.63,8.74l17.32-1.52c-2.79,4.62-5.58,9.24-8.38,13.82-3.45,6.4-4.57,15.64-13.21,17l-3.71.1c-.71-1.42-2.13-4.31-2.84-5.79a201.09,201.09,0,0,1-3.81,24.54c1.42-4.72,4.11-8,8.13-9.8,1,1,3.1,2.94,4.11,4-.45-2.85-1.37-8.59-1.83-11.43,6.66-.82,13.26-1.78,19.92-2.85,1.06,3.51,3.2,10.42,4.32,13.87l-8.08-2.69,1.17,4.27a73.32,73.32,0,0,0-21.9,18.18l12.6-2.38c-3,3.81-5.94,7.67-8.74,11.58-2.28-.56-6.86-1.78-9.09-2.39.86,3.51,2.64,10.47,3.5,13.92-2.84-.76-8.53-2.34-11.37-3.15-1.33,3.35-4,10-5.34,13.31l8.43,3.2c-3.45-.25-10.26-.71-13.66-1-.31,2.9-.86,8.64-1.12,11.54l-5.59-1.37c0,2.28-.1,6.9-.15,9.19q-10.14-4.42-8.94-15.54c-1.07.2-3.15.6-4.17.81l3.46,9.09c-20.12.86-41.2-11-49-29.77-1.58-15.64,4.21-30.83,7-46.07,9.34-38,17-77.22,35.91-111.87,5.29-21.13,13.51-41.76,25.86-59.79,18.8-44.76,41.4-87.58,66.35-129.19,2.84-10.77,4.62-22,10.82-31.54,12.54-19.36,16.86-43.44,33.63-60.1C616,374.05,634.74,336.71,652.11,299c-16.66,5.29-20.68,24.54-35,32.87-3.51,10.31-10.47,18.8-16.61,27.59-.15-4.42-.41-13.36-.51-17.78-12,13.41-23.83,27.12-33.27,42.57,3.14.25,9.39.81,12.49,1.06-8.28,8.39-13.21,25.35-25.86,26.42-4.21-6.55-12.09-8.48-18.44-12,11.94-1.42,18.29-12,27.39-18.24l.76-4L550,380.14c3.91-11.22,16.36-10.67,25.2-15.19l-12.6-1.72c7-9.25,14.63-18.09,20.27-28.3-14.12,12.45-24.59,28.35-35,43.94C536.64,391,527,404.48,515.81,416.67c8.49-2.29,29,.81,17.78-16.66l10.62,8.48c-.41,2.18-1.22,6.55-1.63,8.69-2.18.91-6.55,2.69-8.73,3.55.66,8.79.3,17.68-3.26,25.91-.66-3.2-1.93-9.6-2.54-12.85l-5.89.91c-4.16,6.25-9,11.94-13.71,17.83,4.82.66,9.7,1.43,14.58,2.29l-16.82-.76L514.39,465c-2.74-3-5.49-5.84-8.28-8.69-9.45,10.06-20.07,20.42-17.53,35.61-2.08-1.21-6.25-3.6-8.28-4.82-1.78,10.21-3.2,20.62-7,30.38-2-.26-6-.82-8-1.07-1.48,6.86-3.2,13.82-5.14,20.63-2.94-5.64-5.94-11.18-9-16.67,2.44-4.21,4.93-8.38,7.52-12.49-.81-2.24-2.44-6.81-3.25-9.05,2.39-1.32,7.16-4,9.6-5.28q8.76-5.26,17.53-10.67c-4.12-.81-12.24-2.44-16.31-3.3-10.41,16.15-22.66,31-33.17,47.14-4.57,8.39,12.6,15.9,2.64,25.66,3.86-1.73,11.53-5.13,15.34-6.86-4,3.15-8,6.25-12.09,9.3l-1.42,2.59-4.27-1.48c-2.28,6.76-4.72,13.47-7.26,20.17q-8.24-7-16.11-14.22c-22,.91-15.44,25.65-18.23,40.49-2-6.05-3.66-12.1-5-18.19-3.41,5.18-6.91,10.31-10.37,15.59,2.09,7.57,3.91,15.24,5.54,23-3.3-3.15-9.8-9.4-13.11-12.55q-5.33,6.63-10.51,13.41l11.17-1a52.15,52.15,0,0,1-6.85,18.9c1.52,2.64,3,5.34,4.57,8.18L365.49,651c-1.27,1-3.91,3.1-5.23,4.17-.81-3.61-2.54-10.92-3.35-14.53l-7.32,16.05a76.29,76.29,0,0,0-10.87,19.46L328.36,672c4.42-4.06,8.89-8.07,13.36-12,.2-3.81.61-11.37.81-15.19-14.07,7.68-17.37,24-26.31,36,.35,4.12,1,12.25,1.37,16.36-4.52-1.17-9-2.34-13.47-3.4-.05,1.17-.2,3.5-.3,4.67,2.29.86,6.91,2.59,9.19,3.46-4.52,9.65-9.8,18.89-13.76,28.8l-5.54-.15c.86,2.23,2.49,6.65,3.3,8.84-7.26.05-14.53.3-21.74.55-.25,7.83.91,16.62-6.25,22.1,1.27-4.62,3.71-13.81,5-18.39l-10.87.61c6.55-11.63,6.65-25.14,11.12-37.49,3.41-7.52-6.3-11.48-9.75-16.81.2,4,.61,11.83.81,15.8l8.44.2c-10.88,22.15-34.7,40.23-29.72,67.67l10.06-4.73c.15-2.59.45-7.82.61-10.46,1.88,4.11,3.75,8.28,5.79,12.44-7.57,1.43-15.14,3-22.66,4.37-2.34,6.81-4.42,13.77-6.15,20.83l-4.62-1.37c.61,3,1.88,9,2.49,12-2,0-6.1.2-8.13.3-3,4.37-6.2,8.59-9.5,12.8-6.45,2.19-17.17-2.74-18.85,7-6.35-4.57-13.81-7.87-17.93-14.88-1.83.15-5.43.51-7.21.66-4.52-15.54-4.17-31.85-3.71-47.8,5.79,2,11.63,4.11,17.32,6.55,3-1.27,8.79-3.76,11.74-5L179,767.45c1.22-5,3.71-15.14,5-20.17A78.8,78.8,0,0,0,176.82,767c-3.2-2.79-6.35-5.54-9.5-8.18,8.94-23.16,5.59-51.15,21.33-71.37,2.44-10,4.73-20,7.78-29.72,6.91-24,21.13-44.71,30.27-67.82,6.15-13.77,9.1-29.82,20.68-40.39,6.3-22.5,16.76-44,29.31-63.65a153.89,153.89,0,0,1,10.21-27.53c21.19-40.24,45.52-78.8,66.4-119.23,2.24-.06,6.71-.21,8.94-.31-9.45-3.66.31-13.77-.1-20.42-2.39,4-7.16,11.94-9.55,15.9a117.71,117.71,0,0,1-6.66-18.39c-5-4.22-10.05-8.43-16.51-10.11,4.07,10.77,9.66,20.83,14.79,31.19-4.37,1-13.21,2.85-17.58,3.81-.05,3.66-.2,11-.25,14.68-16.82,15.65-27.79,37.75-50.09,46.74-.31,6.1-1.88,11.94-5.8,16.82l-6.55.76.41,7.11-7.57-2.39c.91,2.64,2.79,7.93,3.71,10.57l-6.86-1.22.51,5c-1.37,1.93-4.22,5.79-5.59,7.72-5.54-.05-11.08-.1-16.56-.1l2.79,11.38-9.55-2.64c-1.07,11-10.77,17.67-16.76,26.11,3.3.45,9.85,1.42,13.15,1.88-6.14,1.27-12.24,2.38-18.39,3.4-5.48,6.45-11.07,12.95-16.3,19.66l-3.3,1.27c.2,3.45.6,10.31.76,13.77-9.81-1.48-13.67,2.59-11.48,12.19l-9.71-1.63c.1,2.29.21,6.76.31,9-9.4-.31-11.74,6.29-12.24,14.27-6.91,7.77-19.82,12.55-18.65,24.94l-6.5-2.79c.86,2.29,2.64,6.86,3.5,9.19-6.24,1.12-16.46.67-17.83,9-4.87,16.46-14.68,30.68-21.64,46.23-2.79,6-5.69,11.93-8.48,18l-2.29.41C76.54,663,71,668.74,68.1,671.64c-.71-4.68-2.08-14.12-2.79-18.8-2.9,2.44-5.74,5-8.59,7.52-.2,3.4-.71,10.16-1,13.56-14.58-6.35-28.91-13.46-40.64-24.38.05-3.25.25-9.7.35-12.95-6.4-10-4.42-21.85-2.79-32.87C19.94,555.1,42.86,511,62.41,466.4c25.46-49.17,49.54-99.06,72.85-149.3,4.12-5.39,8-11,11.89-16.46-1.22-16.92,15.24-26.42,20.83-41l-.61-11c-3.35,9.8-11.28,16.41-19.31,22.4-.55-4.47-1.67-13.51-2.18-18-4.62,4.42-9.19,8.84-13.77,13.26,3.2,1.83,9.55,5.43,12.75,7.21l-11,10.57C117.94,308.36,95.54,327.41,75,347.63c-2.49,1-7.47,3-10,4,.72,2.54,2.14,7.57,2.8,10.11-1.07-2.38-3.25-7.16-4.37-9.6l-7.57,4.68c-3.45-10.57-8-22.05.31-31.65-3.46,3.81-7.07,7.41-10.27,11.48a51.11,51.11,0,0,0,8.23,17.68c-8.28,2.69-16.56,5.38-24.89,7.77l12.29-14.78c-6.75,2.18-20.21,6.5-26.92,8.68.56-2.74,1.68-8.13,2.24-10.82-3.51-.05-10.47-.2-14-.3-6.05-6.66-.77-15.35.91-22.66,1.57-11.94,7.52-22.25,15.65-30.94,29.05-35,57.91-70.66,92.66-100.28,11.07-9.45,20.42-20.67,30.58-31.09,55.07-48.51,108.61-100,171.65-138.33.77,5.44,2.24,16.31,3,21.74,2.64-7.72,4.47-15.69,6.81-23.47,4.67,4.73,7.37,10.77,9.19,17.12,4.32,7.32,6.25,15.6,8.28,23.83l7.52-3.35c-.81,5.28-2.43,15.85-3.25,21.08-6.25,6.45-4.52,15.7-4.72,23.77l-5.9-2.13c1,3,3.05,9,4.07,11.94l-7.72-2c3.5,29.46-13.62,55.93-23.32,82.7-3.3-.86-9.86-2.59-13.16-3.4-1.93,6.85-3.76,13.81-5.28,20.87-2.8,4.37-5.59,8.74-8.33,13.21l3.15,1.22c2.13-3.15,6.45-9.45,8.63-12.6-3.76,19.36-8.94,39-21.08,55-.61-4.42-1.88-13.21-2.54-17.58-1.57,3.71-3.1,7.47-4.57,11.33l4.67,16.61c-3.76-1.37-11.17-4.06-14.88-5.43,3.4,2.18,10.26,6.5,13.66,8.69-4,2.43-12.09,7.36-16.1,9.8,2.34.91,7,2.79,9.3,3.71-8,18.13-20.68,34.14-27.39,52.63l-7.16-4.78,5.89,15c-14.12-12.5-15.59,7.62-11.22,14.88,2.94,8.54.61,17.63.76,26.42,3.66-6.25,7.26-12.5,10.92-18.69,2,4.42,6,13.26,8,17.67-1.48-5.63-3-11.32-4.42-16.91a179,179,0,0,0,2.49-21.95c14.43,6.05,9.09-11.28,10.87-19.61,10.77-12.34,22.91-23.47,32.82-36.57,2.33-8.54,8.23-12.4,17.17-10.72-1.43-2.59-4.32-7.77-5.79-10.37,1.62.21,4.82.56,6.4.77l.71,10.16c12.09-9.3-5.39-31.86,15.75-32.16-.51-1.88-1.43-5.69-1.88-7.57l4,1.42c7.77-18.79,23.06-33.17,35.05-49.33,17.88-20.47,37.49-39.37,55.83-59.43C436.87,103.89,474.41,71.53,502,31.29q7.1-2.82,14.28-5.64A58.06,58.06,0,0,0,533.8,17.22ZM501.79,267c-6.35-.05-11.18,12.09-2.69,12.7C504.94,279.71,509.06,267.77,501.79,267Zm112.27,37.74c.81,7.88,1.68,15.85,2.59,23.83,6.15-6.3,11-13.67,16.05-20.88-3.3.92-9.8,2.64-13.1,3.56C618.23,309.63,615.43,306.38,614.06,304.75ZM251.65,410.12c6.6-1.17,10.51-9.5,9.24-15.55C254.44,392,242.86,406.56,251.65,410.12Zm-11.48,6.8c-8.64,3.71-1.88,18.19,6.25,13.26C252.71,425.71,248.6,411.13,240.17,416.92Zm266.45,7.17c-4,12.29-13.41,21.53-20.83,31.85l14.12-.15-3-4.42c9.66.5,13.72-6.41,11.38-15.35,3.76-1.93,11.38-5.74,15.14-7.62A63.13,63.13,0,0,0,506.62,424.09ZM189.06,485.4c6.5,4.42,18.49-4.11,15.09-11.94C197.49,467.82,188.65,478.8,189.06,485.4Zm-4.67,5.44c-7.17,3.4-7.62,6.86-1.32,10.31C190.33,497.75,190.74,494.29,184.39,490.84Zm-28,28.4c3.86,7.46,8.12,7.62,12.7.45C165,512.28,160.82,512.12,156.35,519.24Z"/><path d="M843.68,398.63c7.42,1.12,13.82,5,20.17,8.79,1.37,6.35-3.46,11.13-5.89,16.51,2.18,2.59,6.65,7.78,8.89,10.37l4.62-.41-1.27,7.82c2.49-.66,7.47-2,10-2.59-2,19.81,5.33,41.46-4.48,60v7.72l-8.94-3.56,3,7.73c-3,5.89-5.89,11.78-8.74,17.78,10,12.34-2.94,25-7.21,36.83l-4.06,1.57A75.09,75.09,0,0,1,847,584.87c-18.74,34.7-33.32,71.68-53.9,105.41l.76,3.91c-15.34-4.16-17.47,11-15.59,22.36l-2.64-.06c-.41,8.74-2.75,16.21-12.91,16.41.61,3.61,1.78,10.77,2.39,14.33l-8.08-3,1.58,7.32-5.74-1.17c-1.07,7.21,0,15.14-4.22,21.59-4,7-5.59,15.9-12.6,20.62-.86,2.75-2.64,8.23-3.55,11l1.27,5-6.35-2.95c-2,7.06-4,14.17-5.74,21.39l-5.18-1,1.62,6.5-6.91-1.11,1.68,7.41-9.76-1c-2.23-2.85-6.65-8.54-8.83-11.38-.82,3.76-2.49,11.23-3.31,15,2.29,1.53,6.81,4.63,9.1,6.15-3.2-.25-9.6-.86-12.75-1.17l2.18-8.84L672,843.7c1.22-30,6.2-59.79,11.28-89.36a292.55,292.55,0,0,1,11.08-30.58c2.38,2,7.16,6.2,9.55,8.28-2.44-5-5-10.16-7-15.19,3.4-7,8.33-13.36,16-15.85-2.08-.35-6.25-1-8.33-1.32,9.9-26.26,25-51.16,28.6-79.4-2.29,4-4.52,8-6.66,12.09a105.5,105.5,0,0,0-20.17,17.22l1.12,2.85c-9,5.53-18,11.22-27.48,16.15l2.13-13.82c-5,5-10,10.16-14.83,15.34-3,6.3-6,12.6-8.89,19l10-1a128.42,128.42,0,0,0-18.24,15.39c.3-4.22.91-12.75,1.22-17-3.91-3.6-7.72-7.11-11.53-10.67.25,9.35.4,18.75.91,28.2-11.33,4.82-24.48,13.41-19.81,27.69-2.74-.26-8.18-.67-10.92-.92-.31-4.22-.92-12.7-1.22-16.92-11.79,6.76-7.27,20.43-8.23,31.35l-7.42,0c1.73,2.94,5.08,8.89,6.81,11.83l-9.86-2.33,1.43,9.95c-2.7-1.16-8.13-3.5-10.88-4.62,0,2.29-.1,6.86-.15,9.2-12.55,4.87-9.5,20.57-17.93,29.26-3.1-15-17.07-14.23-29.16-12.7l-.86-5.49,16.86-.2c-2.74-14.43,8.64-24.49,13.21-37-5.49,4-11,7.93-16.51,11.79,6-12,13.16-23.47,19.66-35.26l4.88-.3c0-1.88-.21-5.64-.26-7.52,5.18-7.92,10.26-18.8,19.26-6.4-.41-8.84-.56-17.68-.51-26.47,3.2,1.17,9.6,3.46,12.75,4.58-2.29,1.06-6.86,3.14-9.15,4.21l.41,1.83c3.51.41,10.57,1.17,14.12,1.52q-1.44-15.62-2.89-31.19l15.14-3.25c.76-6.65,1.83-13.16,3-19.66,21.85-27.84,40.65-58.42,67-82.35,6.86-7.52,12.55-16,19-23.87,1.07,2.13,3.15,6.45,4.16,8.58-5.13-10.67,3.81-19.45,9.2-27.84,12.29-18.08,28.7-32.56,43-49q9.53-10.67,20.06-20.32c5.95-3.81,11.79-7.72,17.63-11.73,13-11.54,30.08-30.79,47.55-13.67C848.4,412.3,845.26,403.21,843.68,398.63ZM551,783.65l9.85-4.47c0,3.71,0,11.18,0,14.89,12-5.59,7.52-20.37,8.54-30.38C557.87,763.94,554.17,774.31,551,783.65Z"/><path d="M382.92,605.6c6.45-3.15,11.33-1.73,14.73,4.26C395.72,618.45,376.21,614.64,382.92,605.6Z"/></g></g></svg>