<?xml version="1.0" encoding="UTF-8" standalone="no"?><svg xmlns="http://www.w3.org/2000/svg" xmlns:xlink="http://www.w3.org/1999/xlink" contentScriptType="text/ecmascript" fill="#000000" width="76.1" zoomAndPan="magnify" contentStyleType="text/css" viewBox="10.0 41.5 76.1 13.0" height="13" data-name="Layer 25" preserveAspectRatio="xMidYMid meet" version="1"><g fill="#51233c" id="change1_1" data-name="&lt;Group&gt;"><path d="M9.97 41.52L17.49 54.48 18.92 54.48 11.4 41.52 9.97 41.52z" data-name="&lt;Path&gt;"/><path d="M18.36 41.52L25.88 54.48 27.3 54.48 19.79 41.52 18.36 41.52z" data-name="&lt;Path&gt;"/><path d="M26.75 41.52L34.27 54.48 35.69 54.48 28.18 41.52 26.75 41.52z" data-name="&lt;Path&gt;"/><path d="M35.14 41.52L42.66 54.48 44.08 54.48 36.56 41.52 35.14 41.52z" data-name="&lt;Path&gt;"/><path d="M43.53 41.52L51.05 54.48 52.47 54.48 44.95 41.52 43.53 41.52z" data-name="&lt;Path&gt;"/><path d="M51.92 41.52L59.44 54.48 60.86 54.48 53.34 41.52 51.92 41.52z" data-name="&lt;Path&gt;"/><path d="M60.3 41.52L67.82 54.48 69.25 54.48 61.73 41.52 60.3 41.52z" data-name="&lt;Path&gt;"/><path d="M68.69 41.52L76.21 54.48 77.64 54.48 70.12 41.52 68.69 41.52z" data-name="&lt;Path&gt;"/><path d="M78.51 41.52L77.08 41.52 84.6 54.48 86.03 54.48 78.51 41.52z" data-name="&lt;Path&gt;"/></g></svg>