<?xml version="1.0" encoding="UTF-8" standalone="no"?><svg xmlns="http://www.w3.org/2000/svg" xmlns:xlink="http://www.w3.org/1999/xlink" contentScriptType="text/ecmascript" fill="#000000" width="831" zoomAndPan="magnify" contentStyleType="text/css" viewBox="-6.0 -18.8 831.5 728.7" height="729" data-name="Layer 2" preserveAspectRatio="xMidYMid meet" version="1"><g data-name="Layer 1"><g><g id="change1_1"><path fill="#51233c" d="m598.48,347.03c36.14,53.8,71.08,110.5,97.51,169.89,12.82,28.77,32.57,73.01,18.22,103.16-14.44,30.27-79.05,67.18-110.56,77.71-36.45,12.16-68.71,8.1-78.19-33.27-7.23-31.54-6.58-71.4-12.19-104.95-14.34-86.12-44.33-171.13-82.62-249.08-12.54-.89-25.29,5.33-37.77,4.45-7.81-.54-20.67-7.56-25.04-7.11-3.57.39-23.48,47.42-26.04,54.62-22.78,64.05-27.46,132.12-30.44,199.17-1.27,28.41,4.28,84.92-18.2,105.79-21.82,20.24-63.56,5.68-87.97-4.06-38.05-15.19-86.9-45.5-91.06-90.33-3.63-39.25,32.7-120.72,53.05-155.58,2.33-6.58,36.27-52.04,34.02-54.36-.91-.95-20.5,10.59-23.64,11.92-41.05,17.55-87.6,27.48-130.17,9.89-37.28-15.38-53.41-50.07-45.36-88.98,6.58-31.77,30.44-60.37,33.73-92.56,2.9-28.51-8.05-54.89-11.19-82.65C19.29,73.78,30.73,18.91,81.8,3.75c75.71-22.51,175.35,61.78,227.39,110.17,6.76,6.29,43.69,47.12,47.01,47.12.77,0,7.1-7.53,9.19-9.16,20.73-16.32,52.01-20.42,73.13-1.98,3.12,2.68,5.08,7.84,7.45,8.59,4.52,1.38,14.45,1.03,18.23-1.91,13.59-13.11,26.21-27.53,40.02-40.35,47.34-43.81,113.79-100.39,178.51-113.05,86.82-16.96,142.71,50.84,110.35,133.26-7.66,19.64-22.44,36.95-29.78,55.18-17.03,42.32,18.77,69.44,23.31,108.49,9.16,79.77-61.69,96.79-124.48,73.93l-63.65-26.99h0Z"/></g><g id="change2_1"><path fill="#f471a4" d="m343.57,190.88c-.59.56-13.18-3.24-15.55-3.95-31.71-9.46-62.84-21.45-94.04-32.43-20.5,1.62-21.28,17.83-4.56,27.7l109.64,37.33c4.16,4.09,3.77,25.11,4.66,32.07.46,3.45,4.49,16.08,3.49,17.42-2.59,3.47-38.62,11.12-46.18,13.63-49.31,16.45-88.53,47.12-134.94,67.12-36.48,15.72-85.76,27.79-120.89,2.9-40.67-28.79-2.98-77.92,8.56-110.64,4.26-12.05,8.81-28.08,9.78-40.73,3.65-48-28.15-102.23-1.95-148.9,15.4-27.44,43.44-27.73,71.35-21.66,64.39,14.02,162.39,102.42,206.06,152.12,1.28,1.45,6.85,5.93,4.59,8.02h0Z"/></g><g id="change2_2"><path fill="#f471a4" d="m483.61,216.14c9.37-8.8,22.43-16.04,33.76-22.55,19.96-11.55,42.61-20.64,62.03-32.11,16.6-9.88,22.64-24.45.1-29.92l-105.06,53.6c17.27-16.31,33.11-34.38,50.48-50.58,47.24-43.98,136.14-121,205.06-103.9,37.97,9.44,51.23,44.62,42.28,80.37-10.91,43.81-48.86,68.99-40.12,119.54,2.9,16.98,15.41,35.81,21.23,52.14,12.3,33.87,10.04,68.53-32.25,73.31-48.21,5.47-133.21-48.49-178.5-69.17-20.28-9.26-41.31-17.05-62.24-25.04-5.62-2.52-5.4-16.31.1-17.87,6.47-1.87,19.53.31,27.3-.2,13.15-.86,28.26-2.89,41.41-4.53,10.8-1.34,24.06,1.35,24.16-15.06.11-12.33-14.77-13.32-24.16-12.47-13.15,1.21-28.37,3.72-41.41,4.52-7.99.49-16.18-.47-24.16-.08h0Z"/></g><g id="change2_3"><path fill="#f471a4" d="m557.59,672.59c-6.57-6.44-6.47-28.36-7.54-37.28-12.95-108.24-32.68-201.08-77.44-301.36-3.78-8.31-17.59-30.44-18.66-36.63-.64-3.99,10.46-10.32,14.56-10.04,2.69.18,6.15,1.95,8.84,2.89,12.4,4.25,46.38,15.96,55.34,22.69,4.42,3.25,22.22,23.06,26.75,28.41,42.28,50.03,115.41,174.44,130.31,237.08,4.52,19.12,3.56,28.85-10.91,43.14-21.13,20.94-79.49,56.34-109.15,55.17-2.05-.07-11.01-2.97-12.09-4.07h0Z"/></g><g id="change2_4"><path fill="#f471a4" d="m158.21,603.56c-2.96-3.04-9.97-12.92-11.8-16.89-7.49-16.45-3.66-32.62.26-49.66,12.23-52.95,46.67-116.08,79.8-159,7.75-10.06,30.92-32.26,33.96-41.89.71-2.25-.13-5.86.78-7.16,1.34-1.9,37.21-16.25,42.7-18.16,10.81-3.77,21.96-6.07,32.75-9.71,2.48,2.86-8.44,20.78-10.31,25.26-19.85,47.9-32.89,100.9-37.97,152.61-4.46,45.56-1.52,92.54-6.68,137.97-2.19,19.33.89,35.36-24.31,33.21-26.82-2.27-80.36-27.23-99.19-46.59h0Z"/></g><g id="change3_1"><path fill="#ffa476" d="m441.97,191.22c1.19,1.65,6.89,35.12,7.32,39.78,2.48,31.97-3.33,43.6-34.52,52.92-16.11,4.81-27.99,7.7-36.24-9.76-9.46-20.07-12.22-57.86-6.89-79.3,4.87-19.67,18.11-32.9,39.66-29.21,11.69,2.01,13.75,14.65,20.53,20.74,3.01,2.61,9.81,4.31,10.14,4.83h0Z"/></g><g id="change1_2"><path fill="#51233c" d="m228.19,230.49c10.75-.78,29.86-4,34.01,8.49,3.6,10.85-6.36,17.13-16.32,18.37-14.45,1.8-34.02,4.12-48.09,4.87-17.94.95-24.55-19.4-9.71-25.94l40.12-5.79h0Z"/></g></g></g></svg>