<?xml version="1.0" encoding="UTF-8" standalone="no"?><svg xmlns="http://www.w3.org/2000/svg" xmlns:xlink="http://www.w3.org/1999/xlink" contentScriptType="text/ecmascript" fill="#000000" width="613" zoomAndPan="magnify" contentStyleType="text/css" viewBox="-6.7 -14.7 612.8 779.3" height="779" preserveAspectRatio="xMidYMid meet" version="1"><g data-name="Layer_1"><g><g id="change1_1"><path fill="#f2bc57" d="M493.87,115.88c-29.61-23.54-68.07-27.48-104.4-24.19-24.32-3.42-49.75-.09-74.5-1.07-76.86,1.88-220.49-9.52-225.59,93.83.23,34.39-10.92,68.96,13.94,94.36,8.22,8.24,76.89,57.23,77.85,39.32-.68-10.15,1.81-25.17-3.33-36.18-1.72-4.69.32-11.44,5.43-13.45,12.44-4.71,32.45-2.47,44,3.75,13.7,13.12-3.63,63.49,16.91,57.4,40.59.12,81.03-3.2,121.53-4.88,10.78-1.43,1.31-32.49,3.83-42.23,8.57-15.26,64.67-25.13,58.49,5.28,1.66,14.93-10.76,48.92,16.71,33.81,47.8-13.22,63.4-40.3,72.23-87.18,14.27-43.34,12.55-83.81-23.09-118.57Z"/></g><g id="change1_2"><path fill="#f2bc57" d="M458.25,555.68c-63.04,10.93-114.99,13.07-172.71,10.57-45.32-.49-91.75-5.68-133.35-20.57-21.48,128.25,37.58,123.35,146.75,131.57,111.83,5.34,185.34,9.87,159.31-121.58Z"/></g><g id="change2_1"><path fill="#ff8456" d="M229.39,326.31c-1.26-38.06,6.94-62.86-43.54-53.78-2.58.87-4.02,3.62-3.26,6.24,5.44,19.25,2.92,40.86,2.51,60.89-2.11,35.85-.38,56.7,41.31,39.06,10.23-14.72,1.94-35.84,2.99-52.41Z"/></g><g id="change2_2"><path fill="#ff8456" d="M422.59,308.35c-.85-9.89,4.9-25.39-2.93-32.95-13.25-5.71-33.13-.08-43.08,5.6-6.39,7.14-.31,20.14-1.43,29.28,1.22,22.03,2.48,44.81,2.95,67.2,3.57,9.4,19.31,9.21,26.83,9.76,31.26,2.92,12.16-58.81,17.66-78.9Z"/></g><g id="change3_1"><path fill="#244668" d="M514.22,315.03c-.72-7.54-1.44-15.07-2.2-22.6-.22-2.17-1.79-3.95-3.9-4.46-.39-.09-.79-.14-1.18-.14-1.72,0-3.36.87-4.31,2.37-5.3,8.36-11.71,14.62-19.6,19.14-12.26,7.07-26.39,13.33-44.38,19.67l-.33.11c-1.96.66-3.98,1.34-5.58,1.34-.12,0-.64-.03-.77-.03-1.28,0-2.52.48-3.47,1.36-1.05.97-1.64,2.33-1.64,3.76.02,8.8.26,16.9.73,24.75-1.3,24.81-1.75,31.55-26.62,31.62-5.87-.59-18.99-2-24.64-8.11-.43-.47-.95-.85-1.53-1.13-1.23-.59-1.43-2.43-1.45-6.58,0-.86,0-1.7-.04-2.44-.08-2.76-.15-5.45-.21-8.11-.11-4.36-.21-8.62-.37-12.95-.28-6.03-.64-12.08-1.01-18.15v-.26c-.1-1.4-.75-2.7-1.82-3.6-.93-.78-2.09-1.2-3.29-1.2-.19,0-.38,0-.57.03-1.23.14-2.65.15-4,.15h-.9c-1.28,0-2.49,0-3.54.05-8.6.36-17.27,1-25.66,1.62-6.71.5-13.65,1.01-20.46,1.37-13.29.72-26.88.94-40.02,1.15-9.46.15-19.24.31-28.8.65-1.04.02-2.1.11-3.15.2-2.76.23-4.83,2.63-4.67,5.4.17,2.86.38,5.72.63,8.56,1.41,17.31,0,26.96-4.72,32.25-4.8,5.39-14.32,7.84-32.85,8.48-4.8-.18-8.44-1.7-11.14-4.64-8.16-8.87-7.11-29.19-6.34-44.02.12-2.25.23-4.4.3-6.39.1-2.61-1.79-4.87-4.37-5.25-.11-.01-.3-.06-.55-.16-4.3-2.24-8.68-4.45-13.08-6.67-18.07-9.12-36.75-18.56-52.29-31.01-.92-.74-2.05-1.12-3.2-1.12-.67,0-1.35.13-1.98.4-1.73.73-2.92,2.35-3.1,4.21-.07.7-.11,1.36-.12,1.98-2.81,31.11-6.72,62.66-10.51,93.17l-.22,1.8c-.01.11-.02.23-.03.35-.14,2.46-.32,5.04-.57,7.74-.07.7.01,1.41.23,2.08.03.09.08.3,0,.68-.05.33-.14.62-.27.89-.27.55-.43,1.15-.49,1.75-1.73,16.18-5.03,36.31-8.52,57.63-14.28,87.18-32.06,195.67,16.72,233.24.14.1.28.2.42.29,34.23,21.24,65.53,39.55,102.02,48.47.13.03.26.06.39.08,39.85,6.48,82.07,9.77,125.5,9.77,5.57,0,11.14-.05,16.82-.16,26.5-1.09,54.54-4.06,85.62-9.04,55.48-7.95,88.35-30.99,97.7-68.52,6.07-25.09,6.39-51.06,6.7-76.18.11-9.18.23-18.67.64-28.12.02-58.81-4.28-122.62-13.16-195.15-2.85-20.69-4.88-41.89-6.84-62.39ZM144.42,599.17c-.93-28.8.19-56.47,3.33-82.23.05-.4.05-.8,0-1.19-.89-7.86.16-15.8,1.28-24.19.48-3.6.97-7.33,1.3-11.04.01-.16.02-.33.02-.49-.07-8.23,1.87-14.39,5.75-18.3,4.08-4.11,10.71-6.2,19.71-6.2.48,0,.97,0,1.65.02,18.35-.21,37.01-.63,55.05-1.03,26.23-.58,53.35-1.18,80-1.18,9.98,0,19.22.08,28.1.24,6.95.34,14.06.5,20.94.67,22.82.54,46.41,1.1,68.08,7.91,21.98,6.71,25.69,31.32,28.97,53.03l.44,2.88,1.32,8.21c3.52,21.79,7.17,44.32,7.26,66.52-1.03,20.36-2.21,43.4-11.86,62.1-18.07,25.48-62.95,28.76-100.08,28.76-6.49,0-12.81-.09-18.77-.19-5.81-.09-11.31-.18-16.32-.18h-.53c-9.54-1.03-21.16-1.65-33.45-2.29-46.89-2.48-111.11-5.87-131.14-36.88-8.74-12.77-10.47-29.16-11.05-44.94Z"/></g><g id="change3_2"><path fill="#244668" d="M270.42,561.03c14.01.87,28.88,1.29,45.44,1.29,18.93,0,38.03-.56,55.94-1.17,29.78-1.49,56.59-3.37,83.05-11.32,2.54-.76,4.08-3.35,3.53-5.95-1.41-6.66-2.33-13.74-3.21-20.58-2.02-15.65-4.11-31.83-12.2-46.14-.2-.35-.44-.68-.72-.97-14.53-15.53-45.79-16.28-70.92-16.88-7.22-.17-14.03-.33-19.5-.84-.11,0-.22-.02-.33-.02-11.37-.31-23.27-.46-36.39-.46-26.56,0-53.53.66-79.62,1.29l-4.31.1c-5.6.08-11.25.13-16.9.18-11.72.1-23.83.21-35.56.6-.16,0-.33.02-.49.04-1.12.14-2.49.18-3.93.22-5.26.15-12.46.36-16.57,6.53-1.12,1.68-1.14,3.87-.05,5.58.52.82,1.29,2.34.57,3.35-.55.77-.87,1.68-.93,2.62-.35,5.38-1.11,10.92-1.84,16.27-1.91,13.99-3.88,28.45.63,43.14.4,1.32,1.32,2.41,2.55,3.04,29.2,15.01,61.9,16.98,93.53,18.89,6.09.37,12.16.73,18.24,1.2Z"/></g><g id="change1_3"><path fill="#f2bc57" d="M179.2,548.4c-2.18-23.03-1.58-46.26-2.68-69.37-.19-4.49-.18-8.98-.27-13.47-.14-1.56.26-3.2,1.2-4.48,2.14-2.9,6.03-3.26,8.93-1.34,3.3,2.2,2.64,6.78,2.68,10.2.04,3.15.14,6.3.25,9.46,1.15,22.31.47,44.76,2.51,67,1.1,8.26-11.11,10.27-12.62,1.99Z"/></g><g id="change1_4"><path fill="#f2bc57" d="M400.83,558.7c-7.55-1.02-5.42-9.14-5.2-14.51.22-12.57-.69-25.12-1.17-37.68-.62-13.46-1.48-26.91-2.59-40.34-.17-2.36-.65-4.78.54-6.98,1.65-3.28,6.14-4.21,9.16-2.31,2.73,1.53,3.95,4.84,2.95,7.72.07.75.15,1.5.22,2.24,1.58,18.32,2.46,36.7,3.2,55.06.5,10.36.89,20.76-.09,31.1-.27,3.48-3.62,6.06-7,5.71Z"/></g><g id="change4_1"><path fill="#0a253a" d="M231.23,464.48c-17.37.25-35.13.21-52.36.78-5.55.72-13.39-.76-16.9,4.52,1.8,2.83,2.43,6.23.43,9.04-1.26,19.37-7.28,38.47-1.42,57.58,33.77,17.35,72.82,16.71,109.75,19.52,33.56,2.08,67.21,1.26,100.8.12,28.14-1.4,55.29-3.12,81.84-11.1-4.62-21.81-3.78-45.67-14.87-65.27-17.04-18.22-63.02-13.9-87.16-16.13-12.07-.33-24.16-.47-36.25-.47-27.95,0-55.91.72-83.86,1.4ZM154.09,596.52c.89,15.45,1.28,32.27,11.49,44.87,25.66,29.89,96.22,26.28,133.97,30.8,46.13,1.65,96.61,7.67,139.25-13.57,22.4-14.67,19.95-74.64,16.59-98.71-58.42,14.77-119.88,12.5-179.68,11.24-41.03-3.16-83.55-2.19-120.95-21.06-.66,15.47-1.14,30.96-.68,46.42ZM336.83,688.57c-6.09-.1-11.84-.19-17.04-.17-46.37-5.08-141.7.16-168.54-41.4-9.53-13.93-11.33-31.23-11.94-47.67-.89-27.66.02-55.53,3.36-83.01-1.38-12.11,1.51-24.22,2.56-36.25-.17-21.33,11.74-30.12,32.16-29.64,54.46-.64,108.97-2.97,163.45-1.96,30.04,1.46,61.31-.31,90.27,8.79,26.1,7.98,29.42,36.86,32.95,59.99,4,25.04,8.56,50.23,8.66,75.65-1.11,21.76-2.43,45.16-12.6,64.65-19.35,27.73-65.4,31.21-104.45,31.21-6.52,0-12.87-.1-18.84-.19Z"/></g><g id="change4_2"><path fill="#0a253a" d="M277.48,80.98c18.96-.1,37.94-.1,56.9-.17-.93-2.43-1.61-5.12-2.5-7.26-6.23-13.37-20.42-23.1-34.9-25.11-17.31-1.01-34.66,13.04-38.35,29.79.43.89.64,1.75.7,2.58,2.12-.04,4.25-.06,6.37-.06,3.92,0,7.86.06,11.78.23ZM217.24,263.29c4.85.91,10.83,1.88,14.11,5.9,6.09,8.11,6.73,19.12,7.32,28.92.08,8.97.21,17.82.52,26.63,1.61-.14,3.26-.12,4.85-.19,18.5-.5,37.5-.62,55.64-1.16,21.93-.85,43.98-3.63,66.01-3.71-.76-12.77-1.38-25.56-1.26-38.21,5.88-14.65,27.35-16.34,40.81-18.44,8.95.23,21.7,1.44,26.3,10.23,1.61,4.6,1.49,9.8,1.59,14.63-.41,10.81-.83,21.64-1.05,32.45.37,0,.78.04,1.16.12,20.22-7.78,43.88-14.23,58.4-31.25,13.72-20.98,17.72-46.83,23.99-70.63,2.58-11.94,5.65-23.93,5.47-36.2-1.94-23.64-14.3-46.27-30.86-62.9-13.8-12.5-32.82-16.9-50.34-21.13-14.26-3.77-28.78-3.05-43.26-1.88-4.35.08-10.6,1.22-14.19-1.26-5.45.1-10.95.21-16.4.33-39.55.29-79.34.08-118.79.54-30.9,2.29-61.87,6.79-91.95,13.92-35.38,12.38-59.87,35.52-60.82,74.72-1.32,16.69-2.04,33.59-1.48,50.32.35,14.5,1.48,30.12,13.64,39.9,20.22,18.5,44.97,31.01,69.4,43.1.19-10.79,0-21.6-1.59-32.26-2.08-1.82-2.89-5.01-2.08-7.53-.43-6.21,3.07-11.98,8.77-14.4,4.93-2.23,10.17-3.01,15.51-3.01,6.89,0,13.93,1.3,20.57,2.45ZM202.82,379.62c7.34-.8,14.75-2.08,21.23-5.43,4.7-15.43.06-32.18.23-47.94-1.11-15.97,1.61-31.89-3.96-46.91-11.06-2.37-22.26-5.57-32.84-1.98,5.61,19.52,3.14,40.54,2.81,60.65-.76,13.24-1.86,27.05,3.22,39.55,1.15,2.08,3.92,2.02,6.46,1.98.39,0,.76-.02,1.13-.02.6,0,1.18.02,1.71.1ZM378.93,285.53c1.55,30.64,3.63,61.21,4.27,91.84,6.75,3.05,14.03,5.1,21.52,4.77,3.69-.16,7.36-1.07,10.77-2.5,4.42-19.58.83-38.95,1.32-58.59.41-13.61,2.25-27.25,1.03-40.87-3.84-1.46-7.86-2.08-11.96-2.08-9.34,0-18.94,3.28-26.96,7.43ZM107.16,296.91c-2.87,31.87-6.83,63.6-10.77,95.35-.14,2.52-.33,5.16-.58,7.94.31.97.39,2.04.19,3.11-.14.85-.39,1.61-.72,2.29v.02c-8.42,78.85-52.25,241.3,6.23,286.32,32.12,19.93,63.99,38.91,100.55,47.86,46.52,7.57,94.17,10.44,141.29,9.55,28.47-1.18,57.06-4.5,85.1-9.01,40.1-5.74,82.66-21.33,93.47-64.67,8.13-33.65,5.71-68.74,7.2-103.09.02-65.04-5.22-129.92-13.12-194.45-3.9-28.28-6.19-56.77-9.06-85.18-5.3,8.34-12.15,15.55-21.37,20.82-14.34,8.27-29.71,14.59-45.3,20.09-2.58.87-5.51,1.9-8.31,1.69.02,8.27.23,16.52.74,24.74-1.36,25.93-2.37,36.72-31.98,36.74-9.3-.93-21.68-2.76-28.14-9.74-5.1-2.46-4.17-8.75-4.37-13.47-.21-7.28-.33-14.11-.58-20.98-.27-6.09-.64-12.21-1.01-18.34-1.79.19-3.69.17-5.47.17-1.18,0-2.31,0-3.32.06-15.39.64-30.68,2.17-46.05,2.99-22.96,1.24-46.02.99-68.99,1.8-.93.02-1.88.1-2.83.17.17,2.81.37,5.63.62,8.46,3.01,36.89-5.84,45.03-42.66,46.25-27.95-.89-23.08-39.22-22.28-60.34-.62-.1-1.28-.29-1.96-.58-22.36-11.63-46.6-22.46-66.41-38.33-.06.62-.1,1.2-.1,1.75ZM286.97,763.2c-47.7-2.76-97.31-4.33-139.99-28.34-35.57-19.45-73.38-32.7-83.38-76.51-1.09.7-2.43,1.11-4.02,1.09-4.48.27-9.01.33-13.41-.66C-6.69,643.2-.96,580.07,1.49,536.15c.93-19.8,2-39.98,3.88-59.68,2.52-21.66,3.28-46.52,19.99-62.63,11.92-11.28,28.04-17.85,44.33-19.17,3.86-.39,7.74-.45,11.61-.29,4.48-35.83,8.5-71.69,11.94-107.54-1.01-1.8-1.11-3.67-.56-5.36-2.23-2.46-4.35-5.05-6.35-7.74-8.35-12.89-7.57-29.03-8.36-43.8.87-31.3-1.77-65.81,15.39-93.43,20.59-29.64,56.4-43.71,91.2-47.53,7.3-1.24,14.61-2.43,21.95-3.47-4.62-32.29,21.31-60.94,48.36-75.65,45.39-24.53,112.8-1.53,126.42,50.17.72,5.09,4.19,13.8,3.75,20.24.29,0,.6-.02.89-.02,2.79-1.24,6-.47,8.29,1.4.58-.02,1.15-.02,1.69-.02,36.23-3.71,85.08,4.97,110.41,32.99,27.44,32.33,36.2,65.93,23.97,106.74-4.15,14.69-7.14,31.32-12.17,46.79.83,1.01,1.42,2.35,1.61,4.04,3.22,28.24,5.41,56.59,8.68,84.81,1.77,13.41,3.44,26.84,4.95,40.27.99.6,1.96,1.49,2.83,2.72,19.25,2.08,43.03,1.53,53.45,21.17,16.42,31.36,13.95,68.84,13.6,103.25-2.31,34.18,1.47,70.74-7.06,103.93-9.2,20.82-33.54,40.39-56.57,41.8-.27-.02-.54-.04-.82-.08-11.02,52.85-50.3,77.07-108.02,84.99-35.57,5.76-71.36,9.55-107.15,9.55-12.23,0-24.43-.45-36.62-1.4Z"/></g></g></g></svg>