<?xml version="1.0" encoding="UTF-8" standalone="no"?><svg xmlns="http://www.w3.org/2000/svg" xmlns:xlink="http://www.w3.org/1999/xlink" contentScriptType="text/ecmascript" fill="#000000" width="841" zoomAndPan="magnify" contentStyleType="text/css" viewBox="-0.2 -0.0 840.6 802.0" height="802" data-name="Layer 2" preserveAspectRatio="xMidYMid meet" version="1"><g id="change1_1" data-name="Layer 1"><path d="m3.03,801.96h-.6c-.57-.28-1.45-.6-1.73-1.16-.6-.6-.88-1.45-.6-2.32.6-5.22,1.47-10.46,2.32-14.8.31-1.45,2.04-2.32,3.2-2.32.88.28,1.45.57,2.04,1.16.28.57.57,1.45.28,2.32-.6,4.34-1.45,9.27-2.04,14.51-.28,1.45-1.45,2.61-2.89,2.61Zm6.38-38.04h-.57c-.88-.28-1.47-.57-2.04-1.45-.28-.57-.57-1.16-.28-2.01h0v-.31h0c.85-4.65,1.73-8.99,2.61-13.35l.28-1.16c.28-1.73,2.04-2.61,3.2-2.61,1.73.6,2.89,2.04,2.61,3.49-1.16,4.93-2.04,10.15-2.89,14.8l-.31.28c-.28,1.47-1.45,2.32-2.61,2.32Zm7.85-38.01c-.31,0-.6,0-.88-.28-.6,0-1.45-.6-1.76-1.16-.28-.6-.57-1.45-.28-2.04h0v-.57c.6-2.92,1.45-6.09,2.04-9.3.57-1.76.88-3.49,1.45-5.22.28-1.47,2.04-2.64,3.49-2.04,1.45.28,2.32,1.73,2.04,3.49l-.88,3.49c-.88,3.77-1.73,7.26-2.32,10.74v.28l-.28.28h0c-.28,1.16-1.45,2.32-2.61,2.32Zm8.99-37.73c-.28,0-.57-.28-.88-.28-.57,0-1.16-.6-1.73-1.16-.28-.88-.28-1.47-.28-2.32h0l.28-.31h0c1.16-4.93,2.61-9.86,3.77-14.51.28-1.45,1.73-2.61,3.49-2.01,1.45.28,2.32,2.01,2.04,3.49l-.6,2.32c-.88,3.77-2.04,8.11-3.2,12.19h0v.28h0c-.28,1.45-1.45,2.32-2.89,2.32Zm10.46-37.73h-.88c-.88-.31-1.45-.6-1.73-1.47-.31-.57-.6-1.45-.31-2.01v-.6c.6-2.01,1.47-4.05,2.04-6.38.57-2.61,1.45-5.22,2.32-7.85.28-1.45,2.04-2.61,3.49-2.01.88.28,1.45.85,1.73,1.45.6.57.6,1.45.28,2.32-1.45,4.65-2.89,9.58-4.05,14.23l-.28.28c-.28,1.16-1.45,2.04-2.61,2.04Zm11.31-37.16h-.88c-.85-.28-1.45-.88-1.73-1.45-.28-.88-.6-1.76-.28-2.32l.28-.31h0v-.28c1.45-4.05,2.89-8.42,4.05-12.19l.6-1.73c.28-1.45,2.01-2.32,3.49-1.76,1.73.31,2.32,2.04,2.01,3.49l-1.16,3.2c-1.16,3.49-2.32,7.26-3.49,10.74v.57q-.28,0-.28.28c-.28,1.16-1.45,1.76-2.61,1.76Zm12.47-36.88h-1.16c-1.16-.57-2.01-2.01-1.73-3.49,0-.28,0-.57.28-.57.6-1.73,1.16-3.49,1.76-5.22,1.16-2.92,2.01-5.81,3.17-9.01.6-1.45,2.32-2.01,3.77-1.45.6,0,1.16.6,1.76,1.45.28.6.28,1.45,0,2.04-1.76,4.65-3.49,9.3-4.93,13.92v.31h-.28v.57c-.6.88-1.76,1.45-2.64,1.45Zm13.35-36.28c-.28,0-.57,0-1.16-.28-.57-.28-1.13-.88-1.45-1.45-.28-.88-.28-1.45,0-2.32l1.45-4.05c1.47-3.2,2.64-6.69,4.08-10.18.57-1.45,2.32-2.32,3.77-1.45,1.45.6,2.04,2.04,1.45,3.77-1.73,4.37-3.49,9.01-5.22,13.63h0l-.28.31c-.31,1.16-1.47,2.01-2.64,2.01Zm14.23-36.28h-.88c-.85-.28-1.45-.85-1.73-1.73-.28-.6-.28-1.45,0-2.04v-.28s.28,0,.28-.28v-.28l1.45-3.2c1.16-3.2,2.64-6.69,4.08-10.18.57-1.45,2.61-2.01,3.77-1.45.88,0,1.45.6,1.73,1.45.31.6.31,1.47,0,2.32-2.01,4.37-3.77,9.01-5.78,13.66v.28l-.31.28c-.28.88-1.45,1.45-2.61,1.45Zm15.39-35.69c-.28,0-.88,0-1.16-.28-.88-.31-1.16-.88-1.45-1.47-.28-.85-.28-1.73,0-2.32h0v-.28h0c2.01-4.34,4.05-8.99,6.38-13.63.6-1.45,2.32-2.04,3.77-1.45,1.45.57,2.04,2.32,1.45,3.77-2.01,4.65-4.05,8.99-6.09,13.63l-.28.28h0c-.28,1.16-1.45,1.76-2.61,1.76Zm16.24-35.4c-.57,0-.85,0-1.16-.31-.85-.28-1.45-.85-1.73-1.73-.28-.6,0-1.45.28-2.04v-.28c2.04-4.05,3.77-7.85,5.53-11.62l1.16-2.01c.57-1.47,2.32-2.04,3.77-1.16.57.28,1.16.57,1.45,1.45.28.57.28,1.45,0,2.32-2.04,3.77-3.77,7.54-5.53,11.31l-1.13,2.32c-.6,1.16-1.47,1.76-2.64,1.76Zm16.84-34.84c-.28,0-.85-.28-1.16-.6-1.45-.57-2.01-2.32-1.16-3.77v-.28c.88-2.04,2.04-3.77,2.92-5.53,1.16-2.61,2.61-5.22,3.77-7.82.88-1.45,2.61-2.04,4.05-1.16.6.28,1.16.88,1.45,1.45.31.88.31,1.76-.28,2.32-2.01,4.05-4.34,8.7-6.66,13.35v.28h-.31c-.28.88-1.45,1.76-2.61,1.76Zm18-34.55c-.28,0-.88-.28-1.16-.28-1.45-.88-2.01-2.61-1.45-4.05l.28-.31c2.32-4.34,4.65-8.7,6.97-13.04.88-1.47,2.61-2.04,4.05-1.16,1.47.57,2.04,2.32,1.16,3.77-2.61,4.65-4.93,9.27-6.94,13.07l-.31.28c-.57,1.16-1.45,1.73-2.61,1.73Zm18.88-34.24c-.6,0-.88,0-1.45-.28-.6-.31-1.16-.88-1.47-1.76,0-.88,0-1.45.31-2.32h.28v-.28c2.32-4.05,4.93-8.42,7.54-12.78.6-1.45,2.61-2.01,3.77-1.13.88.28,1.16,1.13,1.45,1.73.31.88,0,1.73-.28,2.32-1.73,2.89-3.49,6.09-5.22,8.99l-2.32,3.77h0v.31h0c0,.28-.28.28-.28.28-.6.88-1.47,1.16-2.32,1.16Zm19.73-33.39c-.57,0-1.16-.28-1.45-.57-.88-.28-1.16-.88-1.45-1.76,0-.57,0-1.45.57-2.01v-.31h0c0-.28.28-.28.28-.57,1.16-1.73,2.32-3.49,3.2-5.22,1.45-2.32,2.89-4.65,4.37-6.97.85-1.45,2.61-1.76,4.05-.88s1.73,2.61.88,3.77c-2.61,4.37-5.24,8.42-7.85,12.78v.28c-.57.88-1.73,1.45-2.61,1.45Zm20.61-33.08c-.57,0-1.16,0-1.45-.28-.88-.6-1.16-1.16-1.45-2.04,0-.57,0-1.45.57-2.04v-.28h.28c2.64-4.05,5.24-8.42,8.14-12.47.88-1.16,2.61-1.76,4.08-.88,1.13.88,1.45,2.61.85,4.05-2.89,4.08-5.5,8.42-8.42,12.5v.28c-.57.88-1.73,1.16-2.61,1.16Zm21.77-32.23c-.57,0-1.16,0-1.73-.57-.6-.28-.88-.88-1.16-1.76,0-.85,0-1.45.57-2.32l4.08-5.78c1.45-2.32,3.17-4.37,4.62-6.69.88-1.16,2.92-1.45,4.08-.57.57.57,1.16,1.16,1.16,1.73.28.88,0,1.76-.6,2.32-1.16,1.45-2.01,3.2-3.17,4.93-1.76,2.32-3.49,4.65-5.24,7.26h-.28v.28c-.57.88-1.45,1.16-2.32,1.16Zm407.52-30.47h0c-1.73,0-2.89-1.16-2.89-2.61-.31-.88,0-1.45.57-2.04.6-.57,1.16-1.16,2.04-1.16,4.93,0,9.3-1.16,13.35-2.89.28,0,.28-.28.28-.28,1.45-.6,3.2,0,4.05,1.45.6,1.45,0,3.17-1.45,3.77l-.28.28c-.28,0-.57.28-.88.28-4.65,2.04-9.58,3.2-14.8,3.2h0Zm-384.87-.88c-.6,0-1.16-.28-1.76-.57-.57-.6-.85-1.45-1.16-2.04,0-.88.31-1.45.6-2.01l1.45-1.76c2.61-3.49,5.22-6.97,7.85-10.74.85-1.16,2.89-1.45,4.05-.28,1.45.88,1.73,2.89.57,4.05-2.89,3.77-5.78,7.57-8.7,11.34l-.57.85h0c-.6.6-1.45,1.16-2.32,1.16Zm361.94-4.34c-.28,0-.88,0-1.16-.28q-.28,0-.57-.31c-4.65-2.32-8.73-5.5-12.19-9.58-.6-.57-.88-1.45-.88-2.01,0-.88.28-1.47.88-2.04,1.16-.88,3.17-.88,4.05,0,3.2,3.49,6.97,6.38,11.03,8.7h.28c1.47.88,2.04,2.61,1.16,4.08-.57.85-1.45,1.45-2.61,1.45Zm54.28-14.23c-.28,0-.88,0-1.16-.28-.88-.28-1.45-.88-1.45-1.76-.28-.57-.28-1.45,0-2.01,2.04-4.08,3.49-8.42,4.05-13.35h0v-.31c.28-1.45,1.45-2.61,3.2-2.61.88.28,1.73.6,2.04,1.16.57.6.85,1.45.57,2.04v.28h0v.28c-.88,5.53-2.32,10.46-4.65,15.11-.57.88-1.45,1.45-2.61,1.45Zm-392.12-12.19c-.88,0-1.45-.28-1.76-.6-.85-.57-1.16-1.16-1.16-2.01-.28-.6,0-1.45.6-2.04l.28-.28c3.49-4.37,6.38-8.14,9.58-11.62.88-1.16,2.89-1.45,4.05-.28,1.16.88,1.16,2.61.31,4.05h0c-3.2,3.77-6.41,7.57-9.58,11.34v.28h-.31c-.57.88-1.16,1.16-2.01,1.16Zm314.63-3.2c-1.16,0-2.32-.85-2.89-2.32h0v-.28c-.6-2.61-1.16-4.93-1.47-6.97-.57-2.89-.85-5.5-.85-7.82v-.6c.28-1.73,1.45-2.89,3.17-2.89,1.45,0,2.61,1.16,2.61,2.89v.6c0,2.04.31,4.34.88,6.97.28,2.01.6,4.34,1.16,6.38.28,0,.28.28.28.57.31,1.47-.57,2.92-2.01,3.2-.31.28-.6.28-.88.28Zm80.39-22.62c-1.45,0-2.61-.88-2.89-2.04-1.16-4.65-2.32-9.3-4.05-13.95q-.31,0-.31-.28h0c-.28-.88-.28-1.45,0-2.32.31-.57.88-1.16,1.76-1.45,1.45-.57,3.17.28,3.77,1.73v.31l.28.28c1.76,4.65,3.2,9.58,4.37,14.23,0,.85,0,1.45-.6,2.32-.28.57-.85,1.16-1.73,1.16h-.6Zm-370.07-3.8c-.57,0-1.16-.28-1.73-.85-1.16-.88-1.45-2.92-.28-4.08h0l.28-.28c3.2-3.77,6.66-7.54,10.15-11.03.88-1.16,2.92-1.16,4.08,0,1.16.88,1.16,2.89,0,4.05h0c-3.2,3.49-6.69,7.26-9.86,10.74,0,.28-.31.28-.31.28h0v.31c-.57.57-1.45.85-2.32.85Zm478.63-6.38h-.28c-4.65-.57-9.86-1.45-15.11-2.61h-.57c-1.45-.57-2.32-2.04-2.04-3.49.31-1.73,2.04-2.61,3.49-2.32.6.28.28.28.6.28,5.22,1.16,9.86,2.04,14.2,2.32,1.47,0,2.64,1.16,2.64,2.92-.31,1.45-1.47,2.89-2.92,2.89Zm23.21-3.17c-1.16,0-2.32-.6-2.89-1.76-.28-.57-.28-1.45,0-2.04.28-.85.88-1.45,1.73-1.73h.31c4.34-1.73,8.11-4.37,11.31-7.54,1.16-1.16,3.2-1.16,4.05,0,1.16,1.16,1.16,2.89,0,4.05-3.77,3.77-8.11,6.69-13.04,8.7q-.31,0-.31.31h-1.16Zm-208.68-1.76c-.28,0-.88-.28-1.16-.28-.88-.6-1.45-1.16-1.45-1.76-.31-.85-.31-1.45,0-2.32l.28-.28c2.32-4.34,5.22-8.7,8.7-12.76,1.16-1.16,2.89-1.47,4.05-.31,1.16.88,1.47,2.92.31,4.08-2.92,3.49-5.81,7.54-7.85,11.59,0,.31-.28.31-.28.31h0c-.6,1.16-1.45,1.73-2.61,1.73Zm148.02-5.22c-.28,0-.88,0-1.16-.28-4.65-1.76-8.99-3.8-13.63-6.12h-.28v-.28c-.88-.28-1.16-.85-1.45-1.45-.31-.88-.31-1.45,0-2.32.57-1.45,2.61-2.04,3.77-1.45q.28.28.57.28c4.65,2.32,9.01,4.37,13.35,6.09,1.45.6,2.04,2.32,1.45,3.77-.28,1.16-1.45,1.76-2.61,1.76Zm-414.49-11.9c-.85,0-1.45-.28-2.01-.88-1.16-1.16-1.16-2.89,0-4.05l.28-.28c3.2-3.2,6.97-6.97,10.46-10.46,1.16-1.16,3.17-1.16,4.34,0,1.16,1.16,1.16,2.89,0,4.05-3.49,3.2-7.26,6.97-10.74,10.46v.28h-.28c-.57.6-1.16.88-2.04.88Zm328.86-3.49c-1.16,0-2.01-.57-2.61-1.73-2.32-4.37-4.93-8.73-7.26-12.78v-.28h0c-.57-.6-.57-1.45-.57-2.32.28-.6.85-1.16,1.45-1.76,1.16-.57,3.2-.28,4.05,1.16h0v.31c2.32,4.05,4.93,8.42,7.57,13.04.57,1.47,0,3.2-1.16,3.8-.6.28-1.16.57-1.47.57Zm50.79-2.04c-.28,0-.85-.28-1.45-.57-3.77-2.04-7.82-4.65-11.9-7.26q-.28,0-.28-.28h-.28c-.28,0-.28-.31-.6-.31-.57-.28-1.16-1.16-1.16-2.01-.28-.6,0-1.45.31-2.04.85-1.16,2.61-1.45,4.05-.88h0s.28,0,.28.31c0,0,.31,0,.31.28h.28c3.77,2.32,7.82,4.93,12.19,7.26.57.57.88,1.16,1.16,1.73.28.88,0,1.76-.28,2.32-.6.88-1.47,1.45-2.64,1.45Zm119.59-4.05h-.85c-1.47-.57-2.32-2.32-1.76-3.77h0q0-.28.28-.28c1.16-4.65,2.32-9.3,2.92-13.95,0-1.73,1.45-2.89,3.17-2.61,1.47.28,2.64,1.73,2.64,3.2-.88,5.78-2.04,10.43-3.2,15.08-.28,0-.28.28-.28.28h0c-.31,1.16-1.47,2.04-2.92,2.04Zm-206.35-1.16c-.88,0-1.76-.57-2.32-1.45-.88-1.16-.6-2.92.85-3.77,0,0,0-.31.31-.31h0c4.34-2.61,8.99-4.93,13.92-6.94,1.45-.6,3.2.28,3.77,1.73,0,.88,0,1.45-.28,2.32-.28.6-.88,1.16-1.45,1.45-4.65,1.76-9.01,3.77-12.78,6.41q-.28,0-.28.28c-.57.28-1.16.28-1.73.28Zm51.96-11.03h-.6c-4.34-.88-9.58-.88-14.23-.88h-.28c-1.73,0-2.89-1.16-2.89-2.61-.31-.88,0-1.45.57-2.04.6-.57,1.16-1.16,2.04-1.16h.28c5.22,0,10.74,0,15.67,1.16.6,0,1.16.31,1.76.88.57.88.57,1.45.57,2.32-.28,1.45-1.45,2.32-2.89,2.32Zm-316.67-4.93c-.88,0-1.45-.28-2.04-.88s-.88-1.45-.88-2.32.6-1.45,1.16-2.01h.31c3.46-3.49,7.26-6.69,11.31-9.89,1.16-1.16,2.89-.85,4.05.31.88,1.16.88,3.17-.28,4.05-4.05,3.49-7.82,6.38-11.31,9.86h-.31c-.57.6-1.16.88-2.01.88Zm280.39-9.86c-1.16,0-2.04-.6-2.32-1.16-3.49-4.65-6.41-8.42-9.01-11.62-.28-.28-.57-.57-.57-.88-.6-1.16-.6-2.61.57-3.77,1.45-.85,3.2-.57,4.08.6.28,0,.28.28.28.28,2.89,3.49,5.5,6.97,9.3,11.9.28.57.57,1.45.57,2.04-.28.85-.57,1.45-1.16,2.01-.57.28-1.16.6-1.73.6Zm195.04-11.34h-.28c-1.47,0-2.64-1.16-2.64-2.61,0-.28-.28-.28-.28-.57h0c0-4.93-.57-9.86-1.16-14.51-.28-.88,0-1.76.6-2.32.28-.6,1.16-.88,1.73-1.16h.6c1.45,0,2.61,1.16,2.89,2.61.6,5.22,1.16,10.15,1.16,14.8h.28v.6h0v.28h-.28c0,1.45-1.16,2.61-2.61,2.89h0Zm-445.24-3.49c-.88,0-1.76-.28-2.32-1.16-.88-1.13-.88-2.89.57-3.77q0-.28.31-.57c3.77-2.61,7.54-5.53,12.19-8.7,1.16-.88,3.17-.6,4.05.85.28.6.57,1.16.28,2.04,0,.88-.57,1.45-1.16,1.76-4.34,3.17-8.42,6.09-11.9,8.7l-.28.28c-.57.28-1.16.57-1.73.57Zm224.63-14.51c-.57,0-1.45-.28-1.73-.85-4.05-3.77-7.82-6.97-11.03-9.58l-.6-.28c-.28-.6-.85-1.16-.85-2.04,0-.6,0-1.45.57-2.04.88-1.16,2.92-1.45,4.08-.57h0l.28.28h0c4.34,3.49,8.14,6.66,11.31,9.86,1.16,1.16,1.16,3.2.28,4.37-.57.57-1.45.85-2.32.85Zm-192.43-7.26c-1.16,0-2.01-.57-2.61-1.45-.28-.57-.57-1.45-.28-2.01.28-.88.57-1.47,1.45-1.76h0q0-.28.28-.28c3.49-2.04,8.14-4.93,13.07-7.26,1.16-.88,3.2-.28,3.77,1.16.88,1.45.31,3.17-1.16,3.77-3.77,2.04-8.11,4.37-12.76,7.26l-.28.28c-.6.28-.88.28-1.47.28Zm161.4-15.96c-.28,0-.88-.28-1.16-.28-4.37-2.61-9.01-4.65-13.07-6.38q-.28,0-.57-.31c-.6-.28-1.16-.85-1.47-1.45-.28-.85-.28-1.45,0-2.32.6-1.16,2.32-2.01,3.77-1.45h.31c4.34,1.76,8.7,4.08,13.63,6.69,1.45.85,2.04,2.61,1.16,4.05-.6.88-1.45,1.45-2.61,1.45Zm-126.84-1.45c-1.16,0-2.32-.88-2.61-1.73-.28-.88-.6-1.47-.28-2.32.28-.6.85-1.16,1.73-1.76h.28c4.93-2.01,9.86-3.77,14.23-5.22,1.16-.6,3.2.28,3.49,1.73.57,1.47-.28,3.2-1.76,3.77-4.93,1.47-9.27,3.2-13.63,4.96,0,.28-.28.28-.28.28-.28.28-.88.28-1.16.28Zm36.85-11.62c-1.45,0-2.61-.85-2.89-2.3,0-.6,0-1.47.57-2.04.31-.6,1.16-1.16,1.76-1.45h.57c4.93-.88,9.89-1.76,14.82-2.04,1.73,0,3.17.88,3.17,2.61,0,1.45-1.16,2.92-2.61,3.2-4.93.28-9.86,1.16-14.23,2.01h-1.16Zm53.71-.28h-.6c-4.05-.88-8.7-1.73-14.2-2.01h-.6c-1.45-.31-2.61-1.76-2.61-3.2.28-1.76,1.45-2.61,3.2-2.61h.28c4.65.28,9.58.85,15.08,2.01.88,0,1.45.6,2.04,1.16.28.6.57,1.47.28,2.32-.28,1.16-1.45,2.32-2.89,2.32Z"/></g></svg>