<?xml version="1.0" encoding="UTF-8" standalone="no"?><svg xmlns="http://www.w3.org/2000/svg" xmlns:xlink="http://www.w3.org/1999/xlink" contentScriptType="text/ecmascript" fill="#000000" width="722" zoomAndPan="magnify" contentStyleType="text/css" viewBox="-13.8 -8.5 722.3 1984.5" height="1985" data-name="Layer 2" preserveAspectRatio="xMidYMid meet" version="1"><g data-name="Layer 1"><g><g id="change1_1"><path fill="#51233c" d="m586.41,725.11c-.83.87-.35,20.13-.08,24.05,4.67,68.76,28.69,208.89-5.02,268.21-15.7,27.6-45.11,28.51-58.34-1.9-14.42-33.16,6.71-72.38,9.71-105.91,2.28-25.39-.19-53.28-2.84-78.53l-8.23-32.62c-.92,19.16,1.16,38.72.07,57.86-7.01,122.7-37.38,252.72-56.26,375-26.92,174.38-43.95,349.78-62.31,523.97-1.03,9.81,1.99,22.52-5.36,31.29-4.25,5.06-10.64,3.4-11.46,4.05-1.03.83,7.26,8.28,7.39,12.59.54,18.14-2.4,39.88-1.87,59.4.17,6.35,2.84,11.3,3.03,16.7,1.12,30.73,2.32,96.76-46.08,85.54-21.48-4.98-32.38-40.86-35.56-60.25-.81-4.93,1.08-15.46-.58-17.77-.33-.46-6.43-2.66-9.59-5.9-15.94-16.31-36.77-63.65-40.58-86.26-7.18-42.56-1.92-97.25,7.77-138.44,3.15-13.42-6.06-45.97-7.76-61.68-7.76-71.37-6.26-142.84-11.36-214.14-11.03-154.07-51.52-307.52-59.36-462.08-2.33-45.81,1.91-93.59.07-139.61l-7.76,21.83c-5.52,44.94-31.07,103.92-25.88,148.52,3.22,27.76,37.06,79.92,5.33,101.53-26.47,18.03-57.03-25.37-65.29-47.21-29.39-77.71,14.28-173.27,22.94-251.64.3-2.68.74-11.94.2-12.5-2.34-2.43-46.85,7.92-54.88,8.56-15.79,1.23-44.69,2.47-56.56-8.45-23.72-21.83,1.43-89.36,10.61-116.43,28.54-84.28,95.98-242.45,161.42-300.84,35.29-31.5,100.87-54.54,121.31-95.73,2.53-5.09,10.17-25.41,9.37-29.36-.29-1.47-15.4-17.59-18.84-23.39-6.79-11.44-12.21-26.01-14.43-39.13-5.78-34.17.3-83.7,23.72-111.24,26.94-31.68,62.8-30.68,88.86,1.47,32.35,39.89,30.41,123,0,163.48-4.17,5.54-13.16,10.08-14.17,16.92-.83,5.59,2.03,18.64,3.6,24.64,12.82,49.19,66.27,53.76,105.53,72.04,76.25,35.52,100.42,107.43,133.89,178.99,24,51.3,59.17,120.33,74.86,173.17,11.75,39.53,12.89,74.15-37.22,76.94l-72.02-5.76h0Z"/></g><g id="change2_1"><path fill="#ffa476" d="m678.87,704.83c-5.1,5.11-49.83,3.99-60.13,3.47-66.15-3.37-117.82-17.03-179.8,20.14-26.29,15.77-64.5,61.81-93.52,61.74-31.61-.08-70.12-38.67-98.11-54.32-69.38-38.79-113.29-15.43-183.94-8.11-43.25,4.49-48.62-4.38-40.07-45.71,15.17-73.34,76.02-205.58,115.44-270.7,4.84-7.99,38.44-58.26,43.19-58.25,1.39,0,16.1,16.69,19.73,19.72,19.15,16,49.91,32.34,73.99,38.75,76.24,20.29,172.02,3.69,233.26-47.21,2.83-2.35,13.09-14.08,14.08-14.08,4.82,0,29.08,36.45,32.94,43.14,34.12,59.18,68.9,141.86,95.86,205.74,9.72,23.02,32.82,73.23,30.33,96.28-.23,2.24-1.9,8.05-3.26,9.41h0Z"/></g><g id="change3_1"><path fill="#f471a4" d="m487.51,730.98c.98.71,10.58,19.41,11,21.45,13.24,64.66-4.16,161.51-13.4,227.95-21.72,156.08-51.32,311.25-70.47,467.89-11.83,96.71-24.27,199.01-31.25,295.71-.36,4.94,1.04,25.93.09,26.87-3.04,3.06-55.68-2.9-64.71-2.95-12.41-52.73-26.67-105.35-33.79-159.29-11.06-83.88-9.77-169.31-17.17-253.42-17.32-196.6-74.85-402.9-53.34-600.35.38-3.5,1.66-11.15,6.58-9.69,22.53,6.69,54.62,37.22,76.95,49.95,83.68,47.64,106.76-33.6,172.87-60.1,3.57-1.43,14.08-5.88,16.64-4.02h0Z"/></g><g id="change4_1"><path fill="#ffffff" d="m334.06,204.1c.85-.06,3.34,2.06,5.79,2.23,5.19.37,14.34-1.28,17,2.82,2.27,3.51.86,10.22,1.91,15,16.25,73.39,68.69,71.23,124.4,98.27,3.65,1.77,24.31,13.72,24.3,15.14-.02,1.83-16.6,14.26-19.92,16.7-71.59,52.55-189.41,63.39-263.34,10.09-5.01-3.61-29.02-22.48-25.53-28.21,2.94-4.83,16.16-14.29,21.52-18.09,40.48-28.73,86.4-42.54,106.26-93.87,1.88-4.86,3.69-19.81,7.6-20.07h0Z"/></g><g id="change4_2"><path fill="#ffffff" d="m340.31,20.99c17.71-3.96,33.68,10.63,41.53,25.05,18.74,34.43,18.54,97.54-5.61,129.25-9.45,12.4-14.98,13.08-30.64,11.28-52.85-6.1-53.86-91.38-39.66-129.5,5.02-13.48,19.87-32.84,34.37-36.09h0Z"/></g><g id="change4_3"><path fill="#ffffff" d="m180.54,736.42l-27.51,106.37c-6.38,36.09-18.82,74.88-14.61,111.87,2.47,21.7,22.79,54.75,16.42,75.98-3.29,10.97-19.41-4.93-23.46-9.75-33.27-39.59-20.72-113.98-12.19-161.18,7.44-41.07,18.84-81.75,24.84-123.14,13.18-.18,23.52-6.07,36.49-.14h0Z"/></g><g id="change4_4"><path fill="#ffffff" d="m532.85,722.29c1.26-1.24,32.34-1.76,33.51,4.56l3.05,67.41c3.98,50.64,21.93,174.96-7.09,215.41-7.07,9.86-12.59,11.56-19.48,0-13.24-22.24,5.82-66.9,9.57-91.65,3.65-24,2.85-51.79-.02-75.75-1.91-15.98-23.88-115.7-19.56-119.99h0Z"/></g><g id="change4_5"><path fill="#ffffff" d="m380.66,1790.58c.67.57-7.5,9.54-8.39,15.57-2.96,20.04-.96,60.02-.16,81.75.24,6.37,3.33,11.85,3.1,19.71-.24,8-3.41,28.59-8.56,33.85-19.42,19.86-31.65-29.63-33.74-42.54-.58-3.5-3-18.55-3-19.56v-88.79c7.29,1.29,48.69-1.71,50.74,0h0Z"/></g><g id="change4_6"><path fill="#ffffff" d="m310.19,1852.59l-8.98-12.15c-18.49-32.34-23.26-70.58-21.85-107.46l5.46-21.31,14.64,65.7c8.2,7.46,10.74,15.63,10.74,25.9v49.33h0Z"/></g><g id="change4_7"><path fill="#ffffff" d="m332.03,742.29c-27.3,0-46.75-23.29-55.04-66.23-1.6-8.3-2.16-17.66-2.23-26.15-12.03,16.99-27.46,23.66-36.08,26.17-23.86,6.97-49.24-.19-61.72-17.41-3.05-4.21-6.42-10.62-7.3-19.14-13.07,10.53-28.33,19.79-43.58,25.86-13.37,5.32-32.24,10.31-46.15,3.85-6.3-2.93-10.3-7.78-11.87-14.42-7.2-30.34,37.28-89.54,51.08-106.96.35-.44,1-.52,1.44-.17.44.35.52.99.17,1.44-9.72,12.27-57.86,75.02-50.69,105.22,1.42,6,5.04,10.39,10.74,13.04,10.34,4.81,26.15,3.42,44.54-3.89,15.51-6.17,31.02-15.67,44.16-26.42-.44-9.96,2.56-22.54,12.88-37.61,6.52-9.51,15.69-15.17,20.45-12.64,1.71.91,4.12,3.63.98,11.55-5.06,12.74-17.02,26.99-32.22,39.6.46,7.07,2.8,13.64,7.04,19.5,11.98,16.53,36.44,23.37,59.49,16.65,8.76-2.56,24.77-9.54,36.66-27.88.06-7.97.51-14.86.84-18.89,1.08-13.43,3.1-16.24,7.97-23.02,1.64-2.28,3.68-5.12,6.11-9.01.25-.4.73-.57,1.18-.43.45.14.74.57.71,1.03-1.33,22.67-7.2,39.09-14.77,50.96-.05,9.15.43,19.64,2.2,28.8,10.94,56.68,37.33,66.29,57.61,64.35,34.61-3.3,72.76-41.29,91.11-83.76-2.08-7.29-3.19-16.83-2.73-29.29.56-15.46,6.78-27.36,11.78-27.36h.06c1.5.03,4,1.13,4,8.17-.01,15.73-4.07,32.43-10.96,48.53,3.29,11.06,9.32,17.84,17.94,19.97,23.14,5.73,58.22-23.81,71.84-52.08,1.33-2.76,2.71-6.03,3.86-9.61-17.08-17.19-25.66-33.91-25.68-42.48,0-3.5,1.46-4.96,2.69-5.57,3.01-1.49,7.85.3,14.38,5.31,12.39,9.52,16.17,24.47,10.97,42.04,11.76,11.68,27.43,23.55,46.85,33.03,23.56,11.49,40.09,12.29,47.79,2.32,12.15-15.72-.45-56.62-26.96-87.53-.37-.43-.32-1.07.11-1.44.43-.37,1.07-.32,1.44.11,27.56,32.13,39.93,73.4,27.02,90.11-5.84,7.56-19.3,13.39-50.3-1.73-19.35-9.43-34.92-21.05-46.69-32.56-.97,2.9-2.19,5.87-3.64,8.89-14.23,29.56-49.71,59.21-74.17,53.17-6.8-1.68-14.31-6.62-18.69-19.14-19.02,42.26-57.16,79.63-91.82,82.94-1.62.15-3.21.23-4.78.23Zm104.73-140.63c-3.04,0-9.16,9.83-9.73,25.38-.37,10.2.3,18.93,1.99,26.11,6.15-15.1,9.74-30.67,9.75-45.37,0-4.49-1.07-6.1-1.99-6.12h-.03Zm-147.52-1.9c-1.53,2.3-2.87,4.16-4.01,5.75-4.77,6.65-6.55,9.13-7.6,22-.28,3.41-.64,8.87-.78,15.3,6.1-10.6,10.82-24.59,12.39-43.05Zm-89.02-11.48c-3.63,0-10.28,3.74-16.18,12.34-8.36,12.2-12.57,24.02-12.56,34.78,14.35-12.12,25.59-25.66,30.4-37.79,1.84-4.64,1.83-8-.04-8.99-.43-.23-.98-.35-1.63-.35Zm302.6-20.2c-.68,0-1.13.14-1.41.28-1.29.64-1.55,2.38-1.55,3.73.02,7.88,8.28,23.69,24.35,40.13,3.47-12.42,3.61-27.87-10.57-38.76-5.76-4.42-9.05-5.38-10.81-5.38Z"/></g></g></g></svg>