<?xml version="1.0" encoding="UTF-8" standalone="no"?><svg xmlns="http://www.w3.org/2000/svg" xmlns:xlink="http://www.w3.org/1999/xlink" contentScriptType="text/ecmascript" fill="#000000" width="633" zoomAndPan="magnify" contentStyleType="text/css" viewBox="0.0 -0.7 633.3 552.5" height="552" preserveAspectRatio="xMidYMid meet" version="1"><g data-name="Layer_1"><g><g id="change1_1"><path fill="#fff4d4" d="M511.12,119.32c-26.96-2.55-54.38-3.19-80.91-3.8-5.31-.12-10.62-.25-15.93-.38-35.26-2.96-71.06-3.76-105.67-4.53-8.7-.19-17.4-.39-25.88-.61-9.39-.65-18.73-1.38-28.04-2.11-25.81-2.02-52.5-4.12-78.92-4.12-10.81,0-20.83.34-30.89,1.05-4.26.51-9.1.98-14.33,1.5-2.49.24-5.06.5-7.69.77-1.55.16-2.95,1.01-3.79,2.33s-1.03,2.94-.52,4.42c.53,1.54.77,3.47,1.01,5.51.19,1.57.39,3.2.74,4.82,1.27,8.87,2.32,17.97,3.32,26.78.34,3,.69,6,1.05,9.1,9.85,71.05,7.52,144.06,5.27,214.66-.27,8.51-.54,17.02-.79,25.51-.17,5.23-.38,10.47-.59,15.7l-.12,3.07c-.08,1.94.95,3.75,2.65,4.68.77.42,1.61.63,2.45.63,1.02,0,2.05-.31,2.92-.92.71-.5,1.43-.98,2.15-1.47,1.91-1.29,3.89-2.63,5.76-4.16l4.46-3.24c19.93-14.48,40.53-29.45,62.73-40.51.15-.07.29-.15.43-.24,2.96-1.86,5.67-2.8,8.05-2.8,4.96,0,9.73,4.38,14.62,13.47,10.46,18.55,21.24,38.43,28.03,59.54.03.09.06.18.1.27,1.74,4.53,2.11,7.94,1.09,10.13-1.6,3.45-7.49,5.48-13.72,7.63-2.38.82-4.85,1.68-7.16,2.62-21.57,7.92-42.23,16.47-61.42,25.43-1.63.61-3.2,1.35-4.71,2.06-2.88,1.36-5.61,2.65-7.98,2.65-.39,0-.76-.03-1.12-.1-4.96-2.27-8.24-7.73-11.71-13.51-1.06-1.77-2.16-3.59-3.31-5.31l-.34-.67c-5.8-11.25-11.79-22.89-14.76-34.76-.57-2.29-2.63-3.87-4.95-3.87-.18,0-.36,0-.54.03-2.53.27-4.48,2.36-4.57,4.9-.61,17.92-1.08,39.17.08,61.06.42,6.08,1.13,12.14,1.83,18,.33,2.82.67,5.64.97,8.45.05.56-.06,1.13-.34,1.6-.9,1.55-.92,3.47-.05,5.03.87,1.57,2.5,2.57,4.29,2.63,22.64.76,45.27.9,62.46.93l4.73-.02c25.57,0,51.61.76,76.78,1.49,20.11.59,40.9,1.19,61.37,1.41h.07c50.91-.11,102.63-2.49,146.58-4.8,5.53-.37,11.05-.78,16.57-1.21,1.66-.13,3.14-1.05,3.99-2.48s.95-3.18.27-4.69c-.16-.35-.21-.69-.14-1.16l.54-4.1c1.34-10.15,2.72-20.65,3.46-30.85.52-19.15.95-39.47,1.4-65.87.02-1.42-.55-2.79-1.57-3.77-.95-.92-2.22-1.42-3.54-1.42-.1,0-.19,0-.29,0-2.86.16-5.7.25-8.43.25-35.18,0-60.9-13.85-78.72-42.48-26-39.03-12.76-89.7,13.76-119.58,12.57-14.15,32.22-23.77,55.25-27.09,4.22-.56,8.34-1.05,12.32-1.05,1.7,0,3.24.09,4.7.27.21.03.42.04.63.04,1.29,0,2.54-.49,3.49-1.38,1.11-1.04,1.7-2.52,1.6-4.03-2.05-33.83-3.34-66.89,3.27-99.28.11-.27.22-.54.33-.78.7-1.5.63-3.26-.19-4.7-.83-1.44-2.3-2.39-3.95-2.55ZM229.47,257.01c.28-2.06.57-4.19.74-6.26.48-3.34,1.03-6.69,1.58-10.04,1.27-7.73,2.59-15.72,3.07-23.89.04-1.49.24-1.88.26-1.92,1.63-1.92,1.62-4.75-.03-6.65-.78-.9-.95-1.79-.51-2.74.43-.95,1.38-1.66,2.19-1.66.46,0,.96.23,1.49.7.84.74,1.9,1.19,3.01,1.27,9.64.7,19.18,1.26,28.41,1.81,18.26,1.08,35.5,2.09,53.59,4.1.14.02.27.02.41.03,4.05.12,7.45,1.47,8.87,3.52.35.5,1.4,2.01.24,5.42-.06.18-.11.36-.15.55-2.48,11.35-5.15,22.87-7.73,34.02l-2.3,9.94c-2.34,11.79-6.08,14.21-10.97,14.21-1.07,0-2.3-.14-3.67-.42-.3-.06-.6-.09-.9-.1-5.72-.14-11.45-.25-17.18-.35-13.14-.24-26.73-.49-40.02-1.22-2.18-.27-4.44-.34-6.63-.41-5.23-.16-10.17-.32-12.98-3.06-2.49-4.45-1.66-10.46-.8-16.82Z"/></g><g id="change2_1"><path fill="#f2bc57" d="M513.38,363.22c.28-40.72,2.44-80.3-.76-121.15-.63-5.78-7.39-5.31-12.1-5.58-62.09-1.36-107.79,68.64-83.52,126.7,14.44,38.69,55.44,61.09,94.13,52.24,4.26-16.25.78-35.11,2.24-52.2Z"/></g><g id="change2_2"><path fill="#f2bc57" d="M114.55,118.32c-.71-4.08-1.07-10.2-6.64-9.56-30.96,3.91-67.92,11.65-79.02,37.14-17.73,41.94-18.74,88.34-18.22,135.94-1.36,78.72,1.35,146.57,13.65,221.43,7.9,28.5,37.22,30.57,60.78,32.23,8.22-1.47,44.96,9.27,40.91-5.11-11.59-143.25,15.54-262.48-11.46-412.07Z"/></g><g id="change2_3"><path fill="#f2bc57" d="M609.89,331.29c-9.36-59.06,7.48-145.4-26.42-192.23-11.52-12.96-29.88-29.62-48-21.03-2.74,4.43-15.52.35-14.21,8.88-13.32,39.86-3.41,84.3-3.3,125.47.88,88.99,1.8,177.38-4.9,265.81.58,6.53-5.47,15.4,3.46,16.71,20.14-1.75,37.16-3.86,52.92-6.39,63.83-7.81,37.4-149.98,40.46-197.22Z"/></g><g id="change3_1"><path fill="#ff8456" d="M270.68,273.39c10.17-1.63,40.65,5.29,45.33-2.53,1.03-9.21,18.44-53.5,7.1-54.46-26.15-2.67-52.37-4.08-78.15-5.59-1.37-.08-2.72.4-3.74,1.33-8.5,62.97-21.95,60.62,29.46,61.25Z"/></g><g id="change4_1"><path fill="#244668" d="M224.29,377.88c-.98-1.38-2.55-2.15-4.16-2.15-.72,0-1.45.15-2.14.47-23.52,10.86-44.61,26.23-65.02,41.1-4.71,3.43-9.42,6.86-14.16,10.24-1.52,1.08-2.33,2.91-2.11,4.76.22,1.85,1.44,3.44,3.17,4.13,1.47.59,2.21,2.73,3.26,6.2.62,2.04,1.25,4.14,2.3,6.12,4.88,12.67,10.79,26.11,20.82,38.75.99,1.25,2.48,1.93,4,1.93.72,0,1.45-.15,2.14-.47,24.53-11.35,51.06-22.23,83.51-34.23,2.55-.95,3.92-3.73,3.1-6.33-8.04-25.51-20.04-49.9-34.71-70.52Z"/></g><g id="change5_1"><path fill="#0a253a" d="M238.59,266.68c13.37,1.3,26.84,1.42,40.29,1.82,10.75.33,21.52.16,32.26.81,4.91-15.6,7.53-31.93,11.45-47.84-25.95-2.66-51.95-4.06-77.92-5.57-.56,17.08-5.61,33.69-6.07,50.77ZM306.96,283.97c-19.18-.49-38.39-.54-57.54-1.59-7.67-.99-17.56.85-23.25-5.45-4.85-7.84-1.69-18.11-1.03-26.74,1.59-11.12,3.96-22.32,4.62-33.52.06-1.79.29-3.69,1.48-5.09-6.17-7.12,3.32-17.16,10.42-10.87,28.1,2.04,54.52,2.85,82.19,5.92,9.12.27,17.21,5.63,13.8,15.68-3.2,14.65-6.64,29.25-10.01,43.86-2.04,10.31-5.98,18.32-15.97,18.32-1.44,0-3.01-.17-4.7-.52Z"/></g><g id="change5_2"><path fill="#0a253a" d="M325.31,56.91c-29.54,1.44-59.43,1.26-88.77,5.14-3.51,9.9-1.96,20.73-2.25,31.03-.02,1.07,0,2.19-.04,3.36,13.78,1.01,27.54,2.19,41.28,3.34,31.54,1.92,63.15.72,94.69,2.74,13.64.85,27.15,1.82,40.66,2.54,1.28-14.32,2.79-27.4.82-41.44-22.53-5.82-45.08-6.87-67.81-6.87-6.19,0-12.36.08-18.57.16ZM485.31,243.34c-29.19,4.7-51.33,24.3-61.95,51.51-20.79,41.79,1.34,97.37,45.14,113.3,12.6,4.29,25.99,3.36,39.09,3.61.54-35.46.93-70.94,1.51-106.37.83-20.92-.29-41.96-1.57-63-2.31-.58-4.64-.8-7.01-.8-5.08,0-10.25,1.03-15.22,1.75ZM141.77,431.69c5.74,2.31,5.61,10.05,8.31,14.92,5.38,13.99,11.02,26.18,20.16,37.71,27.48-12.71,55.53-23.89,83.88-34.39-7.67-24.34-19.21-48.31-34-69.09-28.37,13.1-53.02,32.8-78.35,50.85ZM523.45,133.1c-7.04,39.42-1.81,79.42-.39,119.09,1.9,47.96.47,95.99-.49,143.95-1.44,37.77.89,75.73-3.3,113.36-1.61,5.18-.6,14.38-2.76,20.3,17.51-1.57,34.97-3.55,52.32-6.37,20.15-1.46,29.95-20.3,33.32-38.16,8.11-50.64,3.92-102.57,2.64-153.61-2.99-40.43-4.52-80.89-5.78-121.41-2.56-23.23-3.05-49.35-19.33-67.75-10.38-11.41-23.68-24.61-40.47-21-3.4,3.69-8.07,4.58-12.94,4.5.39,2.13-.35,4.62-2.83,7.1ZM33.59,147.89c-17.8,42.13-18.3,89.18-17.82,134.13-1.53,43.88-.56,87.61,3.94,131.29,2.74,29.5,2.15,59.78,9.53,88.6,7.82,28.24,40.89,27.02,64.63,29.15,9.18.64,18.36,1.16,27.54,1.57-.35-.72-.6-1.49-.68-2.33-8.64-71.94,1.47-144.59.8-216.82,2.79-62.47-2.23-124.73-10.73-186.61-.43-4.41-1.63-8.71-2.25-13.04-30.9,3.9-65.17,11.63-74.95,34.06ZM339.75,536.94c48.77-.12,97.68-2.23,146.26-4.79,5.51-.37,11-.78,16.52-1.2-.54-1.2-.76-2.54-.54-3.9,1.47-11.3,3.14-23.27,3.96-34.43.6-21.93,1.03-43.86,1.4-65.81-39.11,2.25-70.31-10.15-91.68-44.5-26.08-39.16-15.91-91.9,14.19-125.8,14.81-16.67,36.66-25.64,58.4-28.76,5.9-.78,12.27-1.55,18.32-.8-2.06-33.91-3.42-67.73,3.45-101.02.19-.54.41-1.05.62-1.51-32.12-3.05-64.41-3.34-96.63-4.17-43.84-3.69-87.7-4-131.62-5.14-46.07-3.16-90.96-8.44-136.9-5.2-6.31.76-13.9,1.44-22.13,2.27,1.2,3.47,1.16,7.57,1.96,11.08,1.73,11.99,2.99,24.07,4.41,36.1,11.08,79.94,6.89,160.68,4.52,241.04-.21,6.27-.47,12.54-.72,18.81,2.6-1.82,5.32-3.51,7.71-5.49,21.93-15.89,43.76-32.18,68.04-44.27,14.09-8.83,23.09-.02,29.83,12.5,10.93,19.37,21.62,39.24,28.45,60.47,7.7,20.03-8.42,21.17-22.8,27.02-20.73,7.61-41.18,15.99-61.21,25.35-5.57,2.04-11.2,6.33-17.37,4.77-8.68-3.63-12.81-13.66-17.84-21.1-6.02-11.68-12.46-24.01-15.66-36.8-.68,20.18-.99,40.37.08,60.53.6,8.81,1.84,17.51,2.78,26.28.17,1.67-.19,3.3-.99,4.68,20.75.7,41.49.89,62.28.93,1.57,0,3.14-.02,4.74-.02,46.07,0,92.13,2.41,138.2,2.89ZM294.75,550.85c-64.49-2.72-129.1-.47-193.53-4.41-51.88-2.6-87.04-5.74-91.25-67.17-3.92-48.01-8.56-96.11-9.96-144.28.91-31.75.58-63.46.95-95.19,2.43-34.51,5.36-70.72,21.17-102.03,19.31-33.54,64.05-34.66,98.26-40.39,15.88-2.12,31.73-3.11,47.57-3.34.02-1.96.87-3.92,2.76-5.38.82-30.97,1.84-56.71,35.34-68.9C248.32,5.55,293.91,3.3,338.12.26c27.42-.99,55.45.66,81.69,9.18,17.45,5.45,27.11,22.2,31.93,38.82,3.05,7.36,10.5,40.48,7.74,58.07,19.85.64,38.78,2.02,58.61,3.84,12.81-2.48,24.63-5.69,37.46-3.03,17.1,5.16,30.63,18.84,41.03,32.88,8.79,12.38,12.09,27.52,14.27,42.31,5.47,34.2,3.36,68.98,5.96,103.42,3.96,55.58,6,111.38,4.13,167.08-3.49,51.84-10.89,85.67-70.35,88.29-19.45,2.29-38.89,4.29-58.42,5.55-49.22,2.66-98.51,5.1-147.79,5.1-16.55,0-33.09-.27-49.63-.91Z"/></g></g></g></svg>