<?xml version="1.0" encoding="UTF-8" standalone="no"?><svg xmlns="http://www.w3.org/2000/svg" xmlns:xlink="http://www.w3.org/1999/xlink" contentScriptType="text/ecmascript" fill="#000000" width="840" zoomAndPan="magnify" contentStyleType="text/css" viewBox="-29.9 -10.0 839.7 819.8" height="820" preserveAspectRatio="xMidYMid meet" version="1"><g data-name="Layer 2"><g data-name="Layer 2"><g id="change1_1"><path fill="#51233c" d="M404.88,809.75A405,405,0,0,1,247.27,31.83,406.56,406.56,0,0,1,522,17.2a19.5,19.5,0,1,1-11.26,37.33A366.43,366.43,0,0,0,404.88,39C203.13,39,39,203.13,39,404.88S203.13,770.75,404.88,770.75a367.14,367.14,0,0,0,89.32-11,19.5,19.5,0,0,1,9.49,37.83A406.53,406.53,0,0,1,404.88,809.75Z"/></g><g id="change1_2"><path fill="#51233c" d="M736.88,620.14a19.5,19.5,0,0,1-16.77-29.42,365.48,365.48,0,0,0,50.64-185.84,19.5,19.5,0,0,1,39,0,404.61,404.61,0,0,1-56.06,205.68A19.49,19.49,0,0,1,736.88,620.14Z"/></g><g id="change1_3"><path fill="#51233c" d="M631.85,112.91a19.42,19.42,0,0,1-11.48-3.75A369.88,369.88,0,0,0,588.61,88.4a19.5,19.5,0,1,1,19.61-33.71,406,406,0,0,1,35.14,23,19.5,19.5,0,0,1-11.51,35.25Z"/></g><g id="change1_4"><path fill="#51233c" d="M598.39,91.05a19.38,19.38,0,0,1-9.79-2.65c-3.33-1.94-6.75-3.86-10.16-5.7A19.5,19.5,0,1,1,597,48.38c3.77,2,7.56,4.17,11.25,6.31a19.5,19.5,0,0,1-9.83,36.36Z"/></g><g id="change2_1"><circle fill="#51233c" r="324.26" cx="404.88" cy="404.88"/></g><g id="change3_1"><path fill="#ffffff" d="M491,518.65H388.75a14.55,14.55,0,0,1-11.1-24C388.47,481.84,405.18,467.06,430,449c60-43.59,80.61-65.28,80.61-113.33,0-47.71-28.56-96.56-108.6-96.56-53.19,0-86.86,24.59-102.85,60a28.79,28.79,0,0,0-2.59,11.87,29.17,29.17,0,0,0,56.66,9.6c7.53-20.61,21.89-32.71,48.78-32.71,31.41,0,46.34,18.88,46.34,48.62,0,31-14,43-62.09,78.71-34.67,25.59-58.85,50.13-74.35,75a143.09,143.09,0,0,0-20,50.56c-.12.6-.22,1.2-.32,1.81a23.6,23.6,0,0,0-.25,3.49,24.7,24.7,0,0,0,23.46,24.69H494.37a24,24,0,0,0,23.75-20.4A27.48,27.48,0,0,0,491,518.65Z"/></g></g></g></svg>