<?xml version="1.0" encoding="UTF-8" standalone="no"?><svg xmlns="http://www.w3.org/2000/svg" xmlns:xlink="http://www.w3.org/1999/xlink" contentScriptType="text/ecmascript" fill="#000000" width="1130" zoomAndPan="magnify" contentStyleType="text/css" viewBox="-11.8 -3.3 1130.2 647.0" height="647" data-name="Layer 2" preserveAspectRatio="xMidYMid meet" version="1"><g data-name="Layer 1"><g><g id="change1_1"><path fill="#51233c" d="m613.75.27c55-3.54,142.15,27.98,172.43,76.69,22.64,36.39,25.44,103.85,30.05,146.74,1.17,10.85.99,23.45,2.39,34.35.25,2.02.5,3.38,2.27,4.62,4.91,3.37,35.32,10.48,43.11,12,73.8,14.42,210.41,7.17,231.84,101.07,22.5,98.56-92.77,166.49-169.25,196.83-158.27,62.8-338.85,71.19-506.36,54.02-114.91-11.77-317.34-49.99-393.7-143.57-27.66-33.91-38.35-85.32-9.18-121.7,35.92-44.78,143.01-50.66,197.98-63.76,11.33-2.71,82.32-21.72,85.67-26.82,3.21-4.88.34-77.32.99-90.86.15-3.47,2.04-6.44,2.22-9.26,5.16-81.14,10.24-115.88,94.24-139.96C466.39,11.21,543.55,4.8,613.75.27h0Z"/></g><g id="change2_1"><path fill="#c9b8ff" d="m302.06,302.77c.4.43-.24,7.48.17,10.18,4.34,29.79,17.1,49.74,42.72,65.18,56.45,34.06,148.12,42.38,212.98,46.46,94.47,5.97,241.48,13.04,260.59-109.34.75-4.73.04-20.99,2.47-23.96.66-.82,16.14,5.34,20.13,6.26,52.86,12.18,109.55,11.28,161.27,26.99,50.55,15.36,83.36,48.69,63.13,104.53-32.1,88.62-190.13,136.75-273.89,155.49-150.17,33.56-318.57,28.19-469.44.03-81.53-15.23-203.02-47.31-263.56-106.11-28.57-27.76-46.48-78.28-11.48-108.03,32.4-27.53,126-34.83,170.48-45.35,24.41-5.76,51.5-17.24,74.6-21.84,2.16-.43,9.35-1.05,9.83-.49h0Z"/></g><g id="change2_2"><path fill="#c9b8ff" d="m777.34,128.28c.45,10.2,3.53,20.91,4.67,30.92,2.15,18.79,2.82,38.28,4.65,57.34,5.52,57.63,22.33,130.63-42.13,162.49-61.4,30.32-161.41,22.9-227.88,15.66-44.22-4.81-138.8-18.4-171.07-49.35-17.09-16.39-14.31-32.3-15.9-52.98-3.28-42.6-2.43-101.88,2.15-144.65.56-5.16,5.47-36.17,6.97-37.81,1.3-1.42,29.71,15.09,34.44,17.21,90.83,40.86,268.84,49.31,362.8,18.43l41.29-17.27h0Z"/></g><g id="change3_1"><path fill="#f471a4" d="m765.79,102.95c-.38.36-4.17.6-6.12,1.84-68.64,43.35-233.26,35.53-311.16,18.27-27.55-6.09-59.48-16.81-83.73-31.09-2.15-1.27-12.19-7.41-12.18-8.45.07-5.91,29.92-19.1,36.1-21.3,56.37-20.13,137.31-29.04,196.86-32.74,54.52-3.39,112.36,2.71,156.21,39.1,4.97,4.13,29.79,28.87,24.03,34.37h0Z"/></g><g id="change4_1"><path fill="#ffffff" d="m577.69,561.32c-121.11,0-249.69-21.22-348.5-58.61-86.25-32.63-135.12-72.06-134.09-108.19.02-.82.62-1.37,1.54-1.45.83.02,1.48.71,1.45,1.54-1,34.77,47.18,73.15,132.16,105.31,116.69,44.15,275.09,65.69,413.39,56.21,121.15-8.3,286.66-43.51,387.16-164.11.53-.63,1.47-.72,2.11-.19.63.53.72,1.47.19,2.11-101.19,121.41-267.53,156.84-389.26,165.18-21.64,1.48-43.77,2.21-66.16,2.21Z"/></g></g></g></svg>