<?xml version="1.0" encoding="UTF-8" standalone="no"?><svg xmlns="http://www.w3.org/2000/svg" xmlns:xlink="http://www.w3.org/1999/xlink" contentScriptType="text/ecmascript" fill="#000000" width="589" zoomAndPan="magnify" contentStyleType="text/css" viewBox="-4.8 -1.8 588.6 614.2" height="614" preserveAspectRatio="xMidYMid meet" version="1"><g data-name="Layer_1"><g><g id="change1_1"><path fill="#244668" d="M239.95,298.05c4.39-98.62,6.3-204.98-26.96-218.71-.62-.26-1.49-.38-2.18-.38-.05,0-.09,0-.14,0-.83,0-1.59-.12-2.26-.35-.53-.18-1.09-.28-1.66-.28-.14,0-.28,0-.42.02-.2.02-.4.02-.61.02-.26,0-.52-.01-.8-.04-.16-.02-.33-.02-.49-.02-.04,0-.08,0-.12,0-10.73.25-21.46.55-32.18.85-7.38.21-14.76.41-22.29.61-1.72.1-3.48.15-5.27.2-6.09.18-12.38.36-18.39,2.19-.52.16-1,.4-1.44.71-.41.29-.92.48-1.4.54-.57.06-1.13.23-1.65.47-3.26,1.57-6.1,3.71-8.54,6.48-13.62,16.52-19.4,37.14-24.99,57.08l-1.22,4.36c-7.62,31.17-13.41,62.42-19.16,94.38-8.59,48.66-14.89,98.92-20.98,147.53-1.49,11.85-2.97,23.67-4.48,35.49l-.04.36c-1.84,15.67-3.75,31.87-5.02,47.92-.11,1.45.4,2.89,1.41,3.94.96,1,2.29,1.57,3.68,1.57.06,0,.13,0,.2,0,14.59-.56,29.19-1.21,43.78-1.85,39.24-1.74,79.81-3.54,119.67-3.54,9.27,0,18.35.1,27.01.29.22.02.44.03.69.03,2.82,0,5.11-2.29,5.11-5.11,0-.81.03-1.6.05-2.35.03-.79.05-1.54.05-2.3-.08-7.03-.3-14.09-.51-20.92-.22-7.1-.43-13.81-.49-20.36l-.03-5.75c-.16-29.37-.33-59.75.89-89.75.03-7.32.54-18.8,1.19-33.33Z"/></g><g id="change1_2"><path fill="#244668" d="M329.46,306.82c.81.48,1.71.72,2.61.72s1.73-.22,2.51-.66c1.6-.9,2.59-2.59,2.59-4.42.17-41.49.87-90.55,4.83-139.85.11-1.35-.29-2.69-1.17-3.72-.88-1.03-2.1-1.67-3.45-1.78-15.35-3.93-31.17-3.97-46.48-4.02-3.11,0-6.2-.02-9.26-.06-.02,0-.2,0-.26,0-2.45.09-4.94.11-7.43.13-7.13.06-14.5.12-21.6,1.75-.14.03-.29.04-.43.04-.18,0-.37-.02-.56-.06-.37-.08-.74-.12-1.11-.12-1.21,0-2.39.43-3.33,1.24-1.22,1.05-1.88,2.62-1.76,4.23,3.11,44.47,1.7,88.44-.32,137.19-.07,1.63.65,3.19,1.92,4.21.92.73,2.04,1.11,3.18,1.11.45,0,.91-.06,1.35-.18,7.26-1.99,17.4-2.53,24.11-2.88,1.99-.11,3.68-.2,4.89-.3,1.51-.04,3.05-.06,4.58-.06,15.99,0,30.76,2.43,43.99,7.26.34.12.52.21.58.25Z"/></g><g id="change1_3"><path fill="#244668" d="M343.01,469.04c.11,1.35.75,2.61,1.79,3.49.93.78,2.09,1.21,3.3,1.21.14,0,.29,0,.43-.02,6.38-.54,12.81-.76,19.37-.95,6.94-.17,13.4-.25,19.76-.25,36.67,0,76.15,2.43,124.26,7.65,8.3.9,16.59,1.8,24.87,2.74.19.02.38.03.57.03,1.23,0,2.43-.45,3.37-1.27,1.08-.95,1.71-2.31,1.74-3.75.42-25.67,0-50.12-1.32-76.99-4.55-84.18-11.87-152.8-23.03-215.96-.02-.09-.03-.18-.06-.27-.95-4.09-1.96-9.34-3.12-15.41-6.46-33.8-16.21-84.83-45.1-89.79-8.24-2.24-21.91-3.58-36.68-3.58-16.93,0-72.71,2.09-79.56,28.93-.02.09-.04.18-.06.27-6.25,31.57-7.59,63.59-8.89,94.56-.29,6.97-.58,13.95-.93,20.96-2.49,54.94-2.16,110.91-1.83,165.05l.1,17.5c.27,19.48.56,38.98.86,58.48-.23,2.51-.02,5.09.16,7.38Z"/></g><g id="change1_4"><path fill="#244668" d="M376.85,77.34c.84.55,1.81.83,2.79.83.44,0,.88-.06,1.32-.17,1.89-.5,3.78-.98,5.79-1.44,14.24-3.59,29.05-5.4,44.01-5.4h3.14c10.38.01,17.97.4,24.62,1.27.22.03.44.04.66.04,1.18,0,2.33-.41,3.25-1.17,1.09-.9,1.76-2.21,1.85-3.62.47-7.47.68-13.71.63-19.29-.1-2.14-.14-4.31-.18-6.49-.17-8.46-.34-17.21-3.58-25.56-.39-1.01-1.09-1.87-2-2.45-5.4-3.47-12.01-3.73-17.83-3.96-1.18-.05-2.34-.09-3.45-.16-.11,0-.23-.01-.34-.01-.13,0-.27,0-.4.02l-3.76.28c-19.44,1.4-55.62,4.01-61.31,24.45-.08.3-.14.6-.17.91-1.21,13.28.87,26.65,2.71,38.45.22,1.43,1.04,2.7,2.26,3.49Z"/></g><g id="change1_5"><path fill="#244668" d="M203.09,53.74c-.08-1.82-.14-3.66-.2-5.5-.27-8.61-.55-17.51-3.12-26.1-.5-1.69-1.84-2.96-3.48-3.44-9.12-2.87-19.2-4.26-30.82-4.26-5.81,0-11.98.34-19.4,1.06-.23.02-.46.06-.69.12-1.37.33-2.85.57-4.36.83-5.57.94-11.87,2-16.32,6.64-.88.92-1.39,2.14-1.42,3.42-.38,17.39.03,31.78,1.28,45.27.13,1.41.84,2.7,1.95,3.56.9.7,2,1.07,3.13,1.07.27,0,.53-.02.8-.06,5.17-.82,10.74-.97,16.13-1.12,2.04-.06,4.06-.11,5.94-.2,9.95-.22,19.91-.5,29.85-.78,5.65-.16,11.29-.32,16.93-.47,1.84-.05,3.5-1.08,4.37-2.7.87-1.62.8-3.58-.18-5.13-.91-1.44-.68-5.32-.52-7.89.09-1.5.17-2.93.13-4.33Z"/></g><g id="change1_6"><path fill="#244668" d="M256.94,485.59c-12.84-2.53-26.72-3.71-43.66-3.71-9.1,0-18.32.33-27.23.65-7.88.28-16.03.57-24.06.63-23,.24-46.36,1.35-68.95,2.41-24.69,1.17-50.22,2.37-75.21,2.44-2.47,0-4.59,1.79-5.01,4.22-5.2,29.58-3.1,60.77,5.87,87.73.57,1.83,1.26,3.52,2.06,5.02.75,1.4,2.1,2.37,3.66,2.64.28.05.57.07.85.07,1.28,0,2.52-.48,3.47-1.36,4.89-4.53,15.62-8.18,23.45-10.84,3.38-1.15,6.31-2.15,8.39-3.08,25.75-8.86,53.21-13.36,81.61-13.36,20.97,0,42.23,2.47,62.98,7.28,4.51,1.26,9.29,2.31,13.92,3.33,11.85,2.61,24.11,5.3,33.34,11.69.87.6,1.88.91,2.9.91.63,0,1.26-.12,1.87-.35,1.59-.62,2.76-1.99,3.12-3.66,5.31-24.16,5.48-78.73.27-89.83-.69-1.47-2.04-2.53-3.64-2.84Z"/></g><g id="change1_7"><path fill="#244668" d="M330.4,572.57c.26,1.45,1.13,2.71,2.39,3.47.81.48,1.72.73,2.64.73.52,0,1.04-.08,1.55-.24,34.06-10.81,69.54-16.3,105.45-16.3,27.25,0,53.94,3.21,79.33,9.55,1.2.38,2.76.82,4.55,1.32,6.86,1.93,18.34,5.16,24.15,9.55.9.68,1.98,1.03,3.08,1.03.37,0,.73-.04,1.1-.12,1.46-.32,2.7-1.26,3.41-2.58,11.46-21.45,13.24-70.73,8.76-83.41-.45-1.27-1.42-2.33-2.63-2.91-2.77-1.35-6.56-3.19-10.36-3.19l-4.9-.54c-30.22-3.41-61.48-6.93-92.51-9.17-6.83-.31-13.71-.68-20.63-1.06-16.58-.9-33.73-1.84-50.63-1.84-20.2,0-37.54,1.38-53,4.21-1.81.33-3.31,1.61-3.91,3.36-9.14,26.47-3.75,55.85,1.01,81.78l1.15,6.34Z"/></g><g id="change2_1"><path fill="#0a253a" d="M146.57,20.57c-5.94,1.42-13.82,1.49-18.19,6.04-.33,15.14-.12,29.83,1.26,44.7,7.47-1.18,15.33-1.05,22.75-1.38,15.6-.35,31.19-.83,46.77-1.24-2.45-3.88-1.05-10.64-1.18-14.71-.45-10.07-.19-20.63-3.11-30.37h-.02c-9.53-3.01-19.47-4.06-29.38-4.06-6.35,0-12.67.43-18.9,1.03ZM376.96,35.86c-1.15,12.56.8,25.11,2.68,37.2,1.94-.52,3.9-1.01,5.86-1.46,15.49-3.9,31.44-5.73,47.39-5.55,9.3-.02,18.11.23,26.28,1.3.41-6.54.66-12.96.62-18.73-.47-10.09.29-20.86-3.42-30.45-5.22-3.36-12.73-2.91-18.86-3.32-16.11,1.26-55.45,2.72-60.55,21ZM330.52,301.73c.56.19,1.09.43,1.55.7.19-46.81,1.11-93.64,4.85-140.24-.25-.02-.52-.08-.8-.14-17.82-4.56-36.8-3.67-54.54-3.92-9.34.35-19.08-.31-28.2,1.79-1.03.21-2.1.19-3.12-.04,3.2,45.82,1.59,91.84-.31,137.76,10.09-2.78,24.9-2.89,30.06-3.36,1.61-.04,3.24-.08,4.87-.08,15.47,0,31.09,2.23,45.63,7.53ZM512.46,475.1c8.31.89,16.61,1.81,24.9,2.74.43-26.1-.04-50.73-1.32-76.62-3.9-72.14-10.38-144.18-22.96-215.35-6.05-25.91-13.84-96.48-44.35-101.37-23.31-6.5-103.09-6.17-110.2,21.62-7.55,38.12-7.82,76.23-9.72,114.76-2.76,60.63-2.06,121.67-1.73,182.24.27,19.58.56,39.16.87,58.77-.23,2.1-.06,4.41.14,6.75,6.54-.56,13.14-.78,19.68-.97,6.64-.16,13.26-.25,19.87-.25,41.73,0,83.36,3.18,124.81,7.69ZM150.12,84.88c-7.28.41-15.39.02-22.46,2.17-1.11.78-2.43,1.28-3.77,1.44-2.5,1.2-4.81,2.85-6.81,5.12-13.88,16.83-19.37,38.8-25.19,59.41-7.61,31.07-13.43,62.55-19.1,94.05-10.64,60.26-17.66,122.25-25.42,182.72-1.88,16.03-3.77,32.02-5.05,48.09,63.64-2.45,127.35-6.54,191.03-5.1.12.02.21.02.33.02,0-1.65.1-3.22.1-4.58-.16-14.09-.87-28.18-.99-41.32-.17-31.89-.45-63.7.85-95.54.17-43.12,16.92-230.97-22.61-247.29-1.53.04-2.99-.17-4.29-.62-.72.06-1.49.06-2.33-.02-18.11.43-36.21.99-54.3,1.46ZM523.14,564.88c6.04,1.92,22.22,5.55,30.39,11.72,10.69-20.01,12.54-67.73,8.44-79.3-2.54-1.24-5.76-2.81-8.46-2.7-32.41-3.65-64.82-7.37-97.35-9.72-40.68-1.82-83.28-6.06-123.1,1.24-9.41,27.27-2.62,57.84,2.37,85.55,34.24-10.87,70.66-16.54,107-16.54,27.27,0,54.5,3.18,80.72,9.74ZM162.04,488.27c-48.07.5-96.24,4.72-144.2,4.85-4.93,28.04-3.28,58.28,5.73,85.34.47,1.51,1.03,2.89,1.69,4.13,8-7.41,27.02-11.97,33.42-14.92,47.53-16.42,99.04-17.58,147.85-6.25,15.91,4.44,34.93,6.15,48.79,15.74,5.51-25.04,4.79-77.71.64-86.56-14.28-2.81-28.47-3.61-42.68-3.61-17.04,0-34.06,1.15-51.24,1.28ZM138.79,610.89c-23.87-1.03-47.74-2.25-71.65-2.08-23.19.68-48.97,1.05-57.58-25.33-9.35-26.16-14.36-76.18-3.01-101.72,3.82-5.14,13.29-7.92,18.3-3.24.83-.02,1.65-.06,2.48-.08,1.42-17.97,3.51-35.52,5.57-52.83,8.21-63.54,15.2-127.28,26.88-190.29,9.94-43.94,17.72-129.43,53.29-157.79.64-.45,1.3-.87,1.96-1.26-1.96-11.96-.76-24.74-1.69-36.74-.19-9.68-1.42-21.66,8.58-27.05,20.59-10.36,61.43-11.12,82.02-.74,10.4,10.17,7.55,27.17,8.91,40.5-.21,4.93.89,12.65-2.14,16.71,30.39,2.12,35.71,51.59,38.39,76.66,5.65-2.23,12.32-1.32,18.32-2.06,2.37.1,7.26-.04,13.47-.17,17.21-.39,44.62-.78,57.31,4.11,1.16-12.42,2.54-24.82,4.19-37.2,1.32-16.21,10.58-25.89,22.94-31.96-3.07-10.25-2.56-26.57-3.59-32.66-3.14-23.04,14.28-35.67,34.7-40.15,18.03-4.15,36.89-7.28,55.33-4.42,10.75.87,19.16,7.45,20.69,18.44,2.99,16.79,2.46,34.02,1.42,50.96,15.7,5.01,27.85,15.49,34.74,37.05,14.52,38.95,20.32,81.69,26.53,122.39,7.32,50.83,11.7,101.89,14.81,153.09,2.04,32.1,2.91,64.28,2.27,96.42,8.52.82,17.99,2.87,22.82,10.46,8.79,29.25,2.68,69.34-9.9,96.86-8.97,17.66-32.74,14.09-48.89,14.96-15.56.14-31.15-.23-46.71-.39-12.89-.45-25.81-.33-38.76-.23-27.23.23-54.48.47-81.24-4.39-29.52-4.87-29.36-21.02-33.01-46.37-2.45-24.2-7.8-52.69,5.63-74.45,2.7-3.2,7.01-4.43,11.08-5.24-.52-31.63-1.05-63.25-1.18-94.9,0-20.13-.06-40.29-.02-60.46-1.61,1.01-3.69,1.38-6.07.6-23.33-8.48-49.92-8.25-73.67-3.53-.91.7-1.96,1.16-3.03,1.38-.35,8.44-.68,16.88-.99,25.33-1.05,28.72-.72,58.51-.62,86.93.19,15.97,1.13,31.95.99,47.92,13.16,1.34,23.13,5.05,24.18,23.85,2.21,23.25,1.86,46.83-1.34,69.98-2.08,10.07-1.4,21.8-7.84,30.28-14.56,11.8-42.58,14.38-70.02,14.38-20.57,0-40.81-1.46-54.85-1.53Z"/></g></g></g></svg>