<?xml version="1.0" encoding="UTF-8" standalone="no"?><svg xmlns="http://www.w3.org/2000/svg" xmlns:xlink="http://www.w3.org/1999/xlink" contentScriptType="text/ecmascript" fill="#000000" width="840" zoomAndPan="magnify" contentStyleType="text/css" viewBox="-29.9 -10.0 839.7 819.8" height="820" preserveAspectRatio="xMidYMid meet" version="1"><g data-name="Layer 2"><g data-name="Layer 2"><g id="change1_1"><path fill="#51233c" d="M404.88,809.75A405,405,0,0,1,247.27,31.83,406.56,406.56,0,0,1,522,17.2a19.5,19.5,0,1,1-11.26,37.33A366.43,366.43,0,0,0,404.88,39C203.13,39,39,203.13,39,404.88S203.13,770.75,404.88,770.75a367.14,367.14,0,0,0,89.32-11,19.5,19.5,0,0,1,9.49,37.83A406.53,406.53,0,0,1,404.88,809.75Z"/></g><g id="change1_2"><path fill="#51233c" d="M736.88,620.14a19.5,19.5,0,0,1-16.77-29.42,365.48,365.48,0,0,0,50.64-185.84,19.5,19.5,0,0,1,39,0,404.61,404.61,0,0,1-56.06,205.68A19.49,19.49,0,0,1,736.88,620.14Z"/></g><g id="change1_3"><path fill="#51233c" d="M631.85,112.91a19.42,19.42,0,0,1-11.48-3.75A369.88,369.88,0,0,0,588.61,88.4a19.5,19.5,0,1,1,19.61-33.71,406,406,0,0,1,35.14,23,19.5,19.5,0,0,1-11.51,35.25Z"/></g><g id="change1_4"><path fill="#51233c" d="M598.39,91.05a19.38,19.38,0,0,1-9.79-2.65c-3.33-1.94-6.75-3.86-10.16-5.7A19.5,19.5,0,1,1,597,48.38c3.77,2,7.56,4.17,11.25,6.31a19.5,19.5,0,0,1-9.83,36.36Z"/></g><g id="change2_1"><circle fill="#51233c" r="324.26" cx="404.88" cy="404.88"/></g><g id="change3_1"><path fill="#ffffff" d="M404.52,544.65V348.53a23.43,23.43,0,0,0-30.26-22.38l-1.5.44a23.42,23.42,0,0,1-30-22.46h0a23.5,23.5,0,0,1,16-22.19,171.49,171.49,0,0,0,57.86-34.12,23.46,23.46,0,0,1,15.8-6.13h11.28A23.41,23.41,0,0,1,467,265.1V544.65a23.42,23.42,0,0,1-23.41,23.42H427.93A23.42,23.42,0,0,1,404.52,544.65Z"/></g></g></g></svg>