<?xml version="1.0" encoding="UTF-8" standalone="no"?><svg xmlns="http://www.w3.org/2000/svg" xmlns:xlink="http://www.w3.org/1999/xlink" contentScriptType="text/ecmascript" fill="#000000" width="829" zoomAndPan="magnify" contentStyleType="text/css" viewBox="0.0 -0.4 828.7 849.0" height="849" data-name="Layer 2" preserveAspectRatio="xMidYMid meet" version="1"><g id="change1_1" data-name="Layer 1"><path d="m2.91,848.55c-1.46,0-2.62-1.16-2.91-2.61,0-1.76,1.16-3.2,2.61-3.2,4.93-.57,9.58-1.73,13.93-3.17,1.16-.6,3.19.28,3.49,1.73.28.88.28,1.73,0,2.32-.3.57-.88,1.16-1.74,1.45-4.65,1.45-9.58,2.61-15.09,3.49h-.28Zm34.82-14.8c-.86,0-1.45-.28-2.03-1.16-1.16-1.16-.88-2.92.28-4.08h0c.3,0,.3-.28.3-.28,3.49-2.89,6.96-6.38,9.86-10.15.88-1.45,2.91-1.45,4.07-.6,1.16.88,1.45,2.64.58,4.08-3.49,4.34-6.97,7.82-10.74,11.31h-.28c-.58.6-1.16.88-2.04.88Zm22.35-31.63h-1.16c-.58-.31-1.16-.88-1.45-1.76-.3-.57-.3-1.45,0-2.01v-.6c1.74-4.05,3.49-8.7,4.65-13.63.57-1.45,2.03-2.32,3.77-2.04,1.45.6,2.32,2.04,1.74,3.49-1.16,5.22-2.91,9.86-4.65,14.51l-.3.28v.28c-.57.88-1.45,1.47-2.61,1.47Zm8.14-33.67h-.58c-.58,0-1.46-.28-2.04-.88-.58-.57-.86-1.16-.58-2.04,0-1.16.58-2.32,1.46-2.61,0-.57-.3-.85,0-1.45v-.57c.58-5.24.58-9.89.58-14.51,0-1.47,1.45-2.92,2.89-2.92,1.74,0,3.2,1.45,3.2,2.92-.3,5.5-.58,10.43-.88,15.36v.31c0,.28-.28.28-.28.57,3.49-.28,6.96-.57,10.45-1.16,1.46-.28,3.19.88,3.49,2.32.28,1.45-.88,2.89-2.32,3.2-5.23.85-10.16,1.45-15.38,1.45Zm-23.51-4.37c-.3,0-.88,0-1.16-.28-5.23-2.32-9.88-5.53-13.07-8.99l-.28-.31h0c-.58-.57-.88-1.45-.88-2.01,0-.88.58-1.76,1.16-2.04,1.16-1.16,2.91-.88,4.07,0q0,.28.28.28v.28c2.91,3.2,6.68,5.53,11.04,7.57,1.45.57,2.03,2.32,1.45,3.77-.28.85-1.45,1.73-2.61,1.73Zm60.96-3.77c-1.16,0-2.32-.88-2.91-1.73-.58-1.47,0-3.2,1.45-4.08h.58c4.65-2.01,8.7-4.34,12.49-6.66,1.45-.88,3.19-.6,4.05.57.3.88.58,1.45.3,2.32,0,.6-.58,1.45-1.16,1.76-4.07,2.89-8.7,5.22-13.35,7.26l-.58.28c-.3,0-.58.28-.86.28Zm31.63-22.05c-.88,0-1.46-.6-2.04-.88-.57-.57-.86-1.45-.86-2.04-.28-.85,0-1.45.58-2.01l.28-.28c3.49-3.8,6.69-7.57,9.3-11.34.86-1.16,2.61-1.45,4.07-.57.58.28.86,1.16,1.15,1.73,0,.88,0,1.76-.57,2.32-2.91,4.05-6.11,8.14-9.58,11.9q-.3,0-.58.28c-.3.28-1.16.88-1.74.88Zm-112.61-4.65h0c-1.46,0-2.91-1.45-2.91-2.89.28-4.93,1.16-10.18,3.19-15.39v-.6h0c.58-1.45,2.32-2.01,3.77-1.73,1.46.57,2.32,2.32,1.74,3.77v.28h0c-1.74,4.93-2.61,9.58-2.91,13.95,0,1.45-1.16,2.61-2.89,2.61Zm43.82-7.82c-1.45,0-2.61-.88-2.91-2.32v-.31h-.28c-.58-5.22-1.74-10.15-3.19-14.2-.3-.6,0-1.47.28-2.04.28-.88.86-1.45,1.74-1.45,1.16-.6,3.19.28,3.49,1.73,1.45,4.37,2.61,9.01,3.47,15.11h0l.3.28c0,1.45-.88,2.89-2.61,3.2h-.3Zm95.78-15.11h-.28c-4.93-.57-10.16-1.73-15.09-4.05-.28,0-.28-.31-.58-.31-1.45-.57-2.03-2.3-1.45-3.77.86-1.45,2.61-2.01,4.05-1.45h0c.3.28.3,0,.3.28h.28c1.16.6,2.32.88,3.49,1.47,0-.31,0-.88.3-1.16v-.31c1.73-4.62,3.19-9.27,4.35-13.92.28-1.45,2.03-2.61,3.49-2.04.86,0,1.45.6,1.73,1.16.58.6.58,1.45.3,2.32-1.16,4.93-2.61,9.86-4.35,14.51v.28h0q-.3.31-.3.6c1.16.28,2.62.57,4.07.57.86,0,1.45.28,2.03,1.16.58.6.58,1.16.58,2.04-.28,1.45-1.45,2.61-2.91,2.61Zm22.65-4.65c-1.16,0-2.03-.88-2.61-1.73-.3-.6-.3-1.45-.3-2.04.3-.88.88-1.45,1.46-1.73q.28-.31.57-.31c3.78-2.01,7.55-4.93,11.04-8.42,1.16-.85,3.19-.85,4.35.31.86,1.16.86,2.89-.3,4.05-4.05,3.77-8.4,6.97-12.47,9.3h-.3c-.58.28-.86.57-1.45.57Zm-148.32-7.82c-.58,0-1.16-.31-1.74-.88s-.88-1.16-.88-2.04c-.28-.57,0-1.45.58-2.01,4.07-4.93,8.14-7.26,12.49-7.26,1.16,0,2.32.28,3.19.57h.58c.58.28,1.16.88,1.74,1.45.3.88.3,1.47,0,2.32-.58,1.45-2.03,2.32-3.49,1.76h-.28c-.88-.31-1.16-.31-1.74-.31-1.74,0-4.35.88-8.14,5.24-.57.57-1.45,1.16-2.31,1.16Zm91.71-4.65c-.86,0-1.45-.28-2.03-.88-3.77-3.17-7.26-6.97-10.74-10.74h0l-.28-.28c-1.16-1.16-.88-2.89.28-4.05,1.16-1.16,2.91-.88,4.07.28h.28v.28c3.2,3.49,6.68,6.97,10.16,10.18.58.57.88,1.16,1.16,2.01,0,.88-.28,1.45-.86,2.04-.58.57-1.16,1.16-2.04,1.16Zm83.89-14.8c-.58,0-1.16-.31-1.45-.6-1.46-.88-1.74-2.61-.88-4.05h0v-.28c.3,0,.3-.31.58-.31,2.61-4.05,4.93-8.11,6.97-12.19.86-1.45,2.61-2.01,4.05-1.16,1.46.88,2.04,2.32,1.16,4.08-2.32,4.05-4.63,8.42-7.84,12.76v.28h0c0,.31-.28.31-.28.31-.58.85-1.46,1.16-2.32,1.16Zm218.27-2.92h-.28c-5.23-.28-10.46-1.16-15.09-2.01h0s-.3,0-.3-.31h0c-1.74-.28-2.61-1.73-2.32-3.49.3-1.45,1.74-2.61,3.49-2.01h.28c5.23,1.16,9.88,1.73,14.51,2.01.58,0,1.46.6,1.74,1.16.58.6.88,1.16.88,2.04,0,1.45-1.46,2.61-2.91,2.61Zm23.8-.85h-.28c-1.46,0-2.91-1.16-2.91-2.64-.28-.57,0-1.45.3-2.01.58-.6,1.15-1.16,2.03-1.16h.28c4.95-.88,9.58-1.76,14.23-3.2,1.74-.57,3.19.6,3.49,2.04.58,1.45-.3,3.17-1.74,3.49-5.23,1.45-10.16,2.61-14.81,3.17q-.28.31-.58.31Zm-290.83-7.26h0c-1.73,0-2.89-1.47-2.89-2.92v-4.65c0-3.17,0-6.66-.3-10.43,0-.6.3-1.47.58-2.04.58-.6,1.16-.88,2.03-1.16,1.46,0,2.91,1.16,3.2,2.89.28,3.49.28,6.97.28,10.74v4.65c0,1.76-1.45,2.92-2.91,2.92Zm229.89-2.04c-.58,0-.88-.28-1.46-.28-4.35-2.32-8.7-4.93-13.05-8.14h-.3c-.58-.6-1.16-1.16-1.16-2.04s0-1.45.58-2.01c.88-1.47,2.61-1.76,4.07-.88,0,0,0,.28.28.28l.3.28c3.77,2.61,7.84,4.93,11.89,7.26.88.31,1.16.88,1.46,1.76.28.57.28,1.45,0,2.01-.58,1.16-1.74,1.76-2.61,1.76Zm-290.55-1.45c-.86,0-1.74-.6-2.32-1.47-1.45-2.01-3.19-4.62-5.22-7.54-1.16-1.73-2.32-3.49-3.2-5.22h0v-.28c-.86-1.47-.28-2.92,1.16-3.77,1.16-.88,3.2-.31,3.77,1.13h.3v.31c.86,1.73,1.74,3.17,2.91,4.65,2.03,3.17,3.49,5.5,5.22,7.54.88,1.16.58,2.89-.86,4.05-.58.28-1.16.6-1.74.6Zm388.07-.31c-1.16,0-2.04-.85-2.61-2.01-.58-1.45,0-2.92,1.45-3.77h.58c4.07-1.76,8.12-4.08,13.05-6.41,1.46-.85,3.2-.28,3.78,1.16.86,1.45.28,3.2-1.16,3.77-4.35,2.32-8.72,4.65-13.35,6.69l-.58.28c-.3,0-.58.28-1.16.28Zm33.96-18.85c-.86,0-1.74-.6-2.32-1.16-.86-1.45-.58-3.2.88-4.08h0l.28-.28q.3-.28.58-.28c4.07-2.89,7.84-5.53,11.61-8.14,1.16-.85,3.2-.57,4.07.6.28.57.58,1.45.58,2.01-.3.88-.58,1.47-1.16,2.04-3.77,2.92-7.84,5.53-12.19,8.42-.3,0-.3.28-.3.28h-.28c-.58.31-1.16.6-1.74.6Zm-294.6-.88c-.3,0-.88,0-1.16-.28-.58-.28-1.16-.88-1.46-1.45-.28-.88-.28-1.47,0-2.32h0v-.31c2.04-4.93,3.78-9.55,5.23-13.63.58-1.73,2.32-2.32,3.77-2.01,1.46.57,2.32,2.3,1.74,3.77-1.74,5.22-3.49,9.86-5.22,13.92v.28c-.3,0-.3.31-.3.31-.58,1.16-1.45,1.73-2.61,1.73Zm132.06-2.04c-.58,0-1.45-.28-2.03-.85-3.49-3.77-6.97-7.57-9.86-11.34h0c-.3,0-.3-.28-.3-.28-.58-.57-.58-1.45-.58-2.04,0-.85.3-1.45,1.16-2.01,1.16-.88,2.91-.6,4.07.57h0l.28.28c3.19,4.08,6.39,7.57,9.58,10.74.58.6.86,1.47.58,2.32,0,.6-.28,1.45-.86,1.76-.3.57-1.16.85-2.04.85Zm-202.6-13.04c-1.16,0-2.32-.88-2.61-2.32l-.3-.31c-.28-2.01-.86-3.77-1.16-5.5-.86-2.92-1.45-5.81-2.61-8.7,0-.6,0-1.47.3-2.04.28-.88.86-1.45,1.73-1.45,1.46-.6,3.2.28,3.49,1.73.88,2.61,1.74,5.53,2.62,9.01.58,1.45.86,2.89,1.15,4.34l.3,1.16v.6h0c.28.57,0,1.45-.3,2.32-.57.57-1.15.85-2.03,1.16h-.58Zm-71.68-.31h-.3c-1.45,0-2.91-1.16-2.91-2.61s-.28-2.89-.28-4.65c0-3.77.58-7.54,1.16-11.03v-.28h0c.58-1.45,2.03-2.61,3.49-2.32.86.28,1.45.6,1.73,1.16.58.88.58,1.45.58,2.32v.28c-.86,3.2-1.16,6.38-1.16,9.86,0,1.16,0,2.64.3,4.37,0,1.45-1.16,2.89-2.61,2.89h0Zm468.17-6.94c-.88,0-1.74-.31-2.32-1.16-.86-1.16-.86-2.92.28-4.08h.3s0-.28.28-.28c3.49-2.89,6.97-5.81,10.46-8.99l.58-.6c1.16-1.16,2.89-.88,4.05.28s.88,2.92-.28,4.08c-4.07,3.77-7.84,6.94-11.03,9.58,0,.28-.3.28-.3.28l-.28.28c-.58.28-1.16.6-1.74.6Zm-217.41-10.46c-.86,0-2.03-.28-2.32-1.16-1.73-2.61-3.19-5.22-4.93-8.42-.58-1.16-1.45-2.04-2.03-3.2-.3-.28-.58-.85-.86-1.16h0v-.28c-1.16-1.45-.58-3.17.57-4.05,1.46-.88,3.2-.6,4.07.88,0,0,.3,0,.3.28,1.16,1.73,2.03,3.17,2.89,4.65,1.46,2.89,3.2,5.5,4.95,8.11.58,1.47.28,3.2-1.16,4.08-.3.28-.88.28-1.46.28Zm-96.08-4.05h-.58c-.86-.31-1.45-.88-2.03-1.47-.28-.85-.28-1.45,0-2.01v-.6h0v-.28h0v-.28c1.46-4.93,3.19-9.58,5.51-13.66.58-1.45,2.62-2.3,3.77-1.45,1.46.88,2.04,2.61,1.46,4.08-2.03,3.49-3.77,7.82-4.93,12.76l-.3.28v.6c-.28,1.16-1.45,2.04-2.91,2.04Zm342.21-11.62c-.86,0-1.45-.28-2.03-.88-1.16-1.16-1.16-2.89,0-4.05,0,0,0-.28.28-.28,3.2-3.2,6.69-6.97,10.46-10.74.86-1.16,2.91-1.16,4.05,0,1.16,1.16,1.16,2.89,0,4.05-3.19,3.2-6.38,6.69-10.45,10.74h-.28v.28c-.58.6-1.16.88-2.04.88Zm-439.73-2.32c-.86,0-1.74-.28-2.32-1.16h0c-3.19-4.05-6.68-6.97-10.45-8.99-.58-.31-1.16-.88-1.45-1.47-.3-.85-.3-1.73,0-2.3.86-1.47,2.61-2.04,4.05-1.47,4.37,2.32,8.42,5.81,12.2,10.46h.28v.28c.58.6.58,1.16.58,2.04s-.58,1.45-1.16,2.04c-.28.28-1.16.57-1.74.57Zm-46.15-.57c-.88,0-1.46-.31-2.04-.88-.57-.28-.86-1.16-.86-2.04-.28-.57,0-1.45.58-2.01,3.77-4.08,8.12-7.57,12.49-9.58l.58-.31c1.16-.57,3.19,0,3.77,1.47.28.57.28,1.45,0,2.3-.3.6-.58,1.16-1.46,1.47l-.28.28c-3.77,1.73-7.55,4.65-10.74,8.14-.58.85-1.16,1.16-2.03,1.16Zm215.65-11.34c-.57,0-1.15-.28-1.73-.57-3.78-2.92-8.14-5.24-12.2-6.97h-.58v-.28c-1.45-.6-2.03-2.04-1.45-3.49s2.32-2.04,3.77-1.76c0,0,.3,0,.3.31,4.63,1.73,9.28,4.34,13.63,7.54,1.16.88,1.46,2.61.58,4.05-.58.6-1.45,1.16-2.32,1.16Zm-50.79-5.5c-1.15,0-2.03-.6-2.31-1.47-.58-.57-.58-1.45-.58-2.3.28-.6.86-1.16,1.45-1.76h.3c4.63-2.89,9.86-4.34,15.09-5.22,1.73,0,3.19.88,3.19,2.61.28,1.45-.88,2.89-2.32,3.2-4.93.57-9.28,2.01-13.07,4.34h0l-.28.28c-.3.31-.88.31-1.46.31Zm347.74-8.42c-.58,0-1.46-.31-1.74-.88-1.16-1.16-1.46-2.89-.3-4.05v-.31h.3v-.28h.28c2.91-3.17,6.09-6.97,9.28-10.74,1.16-1.45,2.91-1.45,4.07-.57,1.46,1.16,1.46,2.89.58,4.05-3.49,4.08-6.68,7.85-9.86,11.34h-.3v.28h0c-.58.57-1.45,1.16-2.31,1.16Zm25.24-29.9c-.86,0-1.45-.28-1.74-.57-1.45-.88-1.45-2.64-.58-4.08h0c0-.28.3-.28.3-.28,3.49-4.37,6.38-8.14,9-11.62,1.16-1.16,2.91-1.45,4.35-.57,1.16.88,1.45,2.89.28,4.05-2.31,2.92-4.63,6.09-6.96,9.01l-2.03,2.61-.3.28h0c-.58.88-1.45,1.16-2.32,1.16Zm23.51-30.75c-.58,0-1.16-.31-1.45-.6-.88-.57-1.16-1.16-1.16-2.04-.3-.57,0-1.45.28-2.01h.3v-.31c3.19-4.34,5.8-8.11,8.7-12.19.88-1.16,2.91-1.45,4.07-.57.58.28,1.16,1.16,1.16,1.73,0,.88,0,1.76-.58,2.32-2.91,4.08-5.81,8.14-8.72,12.19v.31h-.28c-.58.57-1.45,1.16-2.32,1.16Zm22.35-31.94c-.58,0-1.16-.28-1.45-.57-.58-.31-1.16-1.16-1.16-1.76-.3-.85,0-1.45.28-2.32l.3-.28c2.91-4.37,5.8-8.7,8.12-12.19.88-1.45,2.62-1.73,4.07-.88,1.16.88,1.74,2.61.86,4.08-1.45,2.01-2.89,4.34-4.35,6.38-1.45,2.04-2.61,4.05-4.07,6.09h0v.28c-.58.6-1.45,1.16-2.61,1.16Zm21.19-32.8c-.58,0-1.16,0-1.45-.28-1.46-.88-1.74-2.61-1.16-4.08h0l.28-.28c2.62-4.05,4.93-8.14,7.84-12.76.58-1.16,2.62-1.76,3.78-.88,1.45.57,2.03,2.32,1.15,3.77-2.61,4.37-5.22,8.7-7.84,12.78q0,.28-.28.57c-.28.6-1.45,1.16-2.32,1.16Zm19.74-33.39c-.58,0-.88-.28-1.46-.57-1.45-.88-1.73-2.32-1.16-3.77,0-.28.3-.28.3-.28h0c2.32-4.37,4.65-8.42,7.26-13.07.58-1.45,2.32-2.04,3.77-1.16.88.28,1.16.88,1.46,1.73.28.6.28,1.45-.3,2.04-2.03,4.05-4.35,8.14-6.96,13.35h-.3v.28c-.58.88-1.45,1.45-2.61,1.45Zm18.28-34.24c-.28,0-.86-.28-1.16-.57-1.45-.6-2.03-2.32-1.16-3.77v-.31h0c1.74-3.77,4.35-8.42,6.68-13.35.58-1.45,2.32-2.01,3.77-1.45.88.6,1.46,1.16,1.46,1.73.28.88.28,1.47,0,2.32-2.03,3.8-4.07,8.14-6.68,13.35,0,0,0,.31-.3.31-.28.85-1.45,1.73-2.61,1.73Zm16.84-35.4h-1.16c-.58-.6-1.16-1.16-1.45-1.76-.3-.85-.3-1.45,0-2.32v-.28c2.03-3.77,3.77-8.11,6.09-13.63.58-1.45,2.31-2.04,3.77-1.45.58.28,1.16.85,1.45,1.45.3.88.3,1.45,0,2.32-1.74,4.34-3.77,8.7-5.8,13.63v.28l-.3.31h0c-.58.85-1.45,1.45-2.61,1.45Zm14.51-36c-.3,0-.58,0-.88-.28-.86-.28-1.45-.6-1.73-1.45-.3-.6-.3-1.47,0-2.04v-.6c2.03-5.22,3.47-9.86,4.63-13.92.58-1.45,2.04-2.32,3.77-2.04,1.46.6,2.32,2.04,1.74,3.77-1.45,4.65-2.89,9.58-4.63,14.23v.6c-.58.85-1.74,1.73-2.91,1.73Zm10.45-37.44h-.58c-.58-.28-1.45-.57-1.74-1.16-.58-.88-.58-1.45-.58-2.32,0,0,0-.28.3-.28,0-1.73.28-3.49.58-5.22v-.6c.28-2.89.58-6.09.86-8.7,0-1.45,1.16-2.89,2.91-2.89h0c1.74.28,2.91,1.73,2.91,3.17-.3,2.61-.58,5.24-.88,8.14v.88c-.28,1.73-.28,3.77-.86,6.09v.28h0c-.3,1.45-1.45,2.61-2.91,2.61Zm1.46-38.89h0c-1.74,0-2.91-1.16-2.91-2.61h0v-.28c-.58-4.65-1.16-9.58-2.04-14.51-.28-1.47.58-2.92,2.04-3.2,1.74-.6,3.19.57,3.49,2.04,1.15,4.93,1.73,9.86,2.31,15.08v.6c0,1.45-1.16,2.89-2.61,2.89h-.28Zm-54.86-16.84c-5.23,0-10.45-1.16-15.39-3.49h-.58c-.58-.57-1.15-1.16-1.45-1.73-.28-.88-.28-1.45.3-2.32.57-1.45,2.31-2.04,3.77-1.16h.28c4.07,2.04,8.42,2.89,12.77,2.89h.3c1.74,0,2.91,1.45,2.91,2.92,0,1.73-1.16,2.89-2.91,2.89Zm22.35-6.66c-.88,0-2.04-.31-2.62-1.47-.57-1.16-.28-2.89,1.16-3.77h0c0-.28.3-.28.3-.28,3.77-2.04,7.54-4.93,11.61-8.42,1.16-1.16,2.91-.88,4.07.28,1.16,1.16.86,2.92-.3,4.08-4.35,3.77-8.12,6.66-12.19,8.99q-.28.28-.58.28c-.28.31-.86.31-1.45.31Zm-54.86-11.9c-.86,0-1.74-.31-2.32-.88-2.91-4.37-5.51-8.42-8.12-12.78v-.28h0s-.3,0-.3-.28h0c-.86-1.45-.28-3.2,1.16-4.05,1.46-.6,3.2,0,4.07,1.16v.28h0c2.61,4.65,5.23,8.7,7.84,12.19,1.16,1.16.86,3.17-.3,4.05-.58.28-1.15.6-2.03.6Zm78.37-2.04c-1.16,0-2.32-.88-2.62-2.04h0q-.28,0-.28-.28c-1.74-4.37-3.77-8.7-6.39-12.76-.86-1.47-.28-3.2.88-4.08,1.45-.88,3.19-.28,4.05,1.16,2.32,4.05,4.65,8.42,6.97,13.35v.6h0c.58,1.45,0,3.17-1.45,3.77-.58,0-.88.28-1.16.28Zm4.93-12.19c-.88,0-1.46-.28-2.04-.88-1.15-.88-1.45-2.61-.28-3.77v-.28q.28-.28.28-.6c2.91-3.49,5.81-7.54,8.14-11.59,1.16-1.16,2.91-1.76,4.07-.88.86.6,1.16,1.16,1.45,2.04,0,.57,0,1.45-.58,2.01-2.32,4.08-5.23,8.14-8.7,12.5h0v.28c-.58.57-1.46,1.16-2.32,1.16Zm-26.12-20.32c-.88,0-1.46-.28-2.04-.57q0-.31-.28-.31h0c0-.28-.3-.28-.3-.57-3.47-3.2-6.96-6.38-10.73-9.01-1.16-.85-1.46-2.61-.58-4.05.86-1.16,2.89-1.45,4.05-.57,4.07,2.89,7.84,6.09,11.62,9.86q0,.28.28.28h0c1.16,1.45,1.16,3.2,0,4.37-.58.28-1.16.57-2.03.57Zm-72.56-.28h0c-1.74,0-2.91-1.16-2.91-2.92,0-.28-.3-.57-.3-.85v-.88c0-5.53,1.74-10.46,4.37-14.23h.28v-.28c1.16-1.16,2.91-1.45,4.07-.57,1.45,1.16,1.74,2.89.58,4.05v.28h-.3c-2.03,2.92-3.19,6.38-3.19,10.74v1.45c.28.88,0,1.45-.58,2.04-.58.57-1.16.88-2.03,1.16h0Zm118.99-12.47c-.58,0-.86-.31-1.45-.31-1.16-.85-1.74-2.61-1.16-4.05h0c2.32-4.65,4.35-8.99,6.39-13.63.58-1.47,2.32-2.04,3.77-1.47,1.45.6,2.03,2.32,1.45,3.8-2.03,4.62-4.05,9.27-6.09,13.63h0q-.28.28-.28.57c-.58.88-1.46,1.47-2.62,1.47Zm-78.94-7.57c-.3,0-.58-.28-.88-.28h-.28c-4.93-1.45-9.58-2.32-13.93-2.32-1.45-.28-2.91-1.45-2.91-3.17,0-1.47,1.46-2.64,2.91-2.64h.28c4.65,0,9.88.88,15.39,2.32,0,.31.28.31.58.31,1.16.57,2.03,2.01,1.45,3.77-.28,1.16-1.45,2.01-2.61,2.01Zm93.17-28.71h-.86c-1.16-.31-2.32-2.04-1.74-3.49v-.6c1.45-4.65,2.61-9.27,3.77-14.23.28-1.45,2.03-2.61,3.49-2.01.86,0,1.45.57,1.74,1.16.57.57.57,1.45.28,2.32-.86,4.93-2.32,9.86-3.77,14.51h0c0,.28,0,.57-.3.57-.28,1.16-1.45,1.76-2.61,1.76Zm7.54-38.04h-.28c-1.45,0-2.61-1.45-2.61-3.2v-.28c.28-3.77.58-6.66.58-9.58,0-1.73-.3-3.49-.3-4.93,0-.85.3-1.45.88-2.01.28-.6,1.15-.88,2.03-.88h0c1.74,0,2.91,1.16,2.91,2.61.28,1.73.28,3.49.28,5.22,0,3.49-.28,6.69-.58,10.18h0v.28c0,1.45-1.45,2.61-2.91,2.61Zm-4.05-38.32c-1.16,0-2.32-.57-2.62-1.73q-.28-.28-.28-.57v-.31c-1.74-4.34-4.07-8.42-6.97-11.59-.86-1.16-.86-2.92.3-4.08,1.16-.85,3.19-.85,4.07.31,3.47,4.05,6.09,8.7,8.12,13.63v.28h0c.3.88.3,1.76,0,2.32-.28.88-.86,1.16-1.74,1.45-.28.28-.58.28-.86.28Zm-27.58-25.23h-1.16c-.58-.31-1.16-.31-1.74-.31-1.74-.57-2.89-2.01-2.61-3.49.28-1.73,1.74-2.89,3.49-2.3.58,0,1.45.28,2.03.28l.58.28h.3c.58,0,1.45.57,1.73,1.16.3.57.58,1.45.3,2.32-.3,1.16-1.45,2.04-2.91,2.04Z"/></g></svg>