<?xml version="1.0" encoding="UTF-8" standalone="no"?><svg xmlns="http://www.w3.org/2000/svg" xmlns:xlink="http://www.w3.org/1999/xlink" contentScriptType="text/ecmascript" fill="#000000" width="722" zoomAndPan="magnify" contentStyleType="text/css" viewBox="0.0 0.0 721.8 770.8" height="771" preserveAspectRatio="xMidYMid meet" version="1"><g data-name="Layer 2"><g fill="#ffffff" id="change1_1" data-name="Layer 1" fill-rule="evenodd"><path d="M540.07,469.49c108.52,27.81,181.68,80.08,181.68,140,0,89-161.69,161.27-360.84,161.27S0,698.48,0,609.46c0-59.89,73.16-112.16,181.68-140,30.81,53.81,63.8,104.82,89.3,142.62l.07.07,17.47,20.06,21.52,15,24.46,9.44,26.41,3.28,26.34-3.28,24.46-9.44,21.52-15,17.47-20.06.07-.07c25.51-37.8,58.49-88.81,89.3-142.62Zm-58.69-12.08c-27.25,46.46-55.48,89.86-77.78,122.91a51.63,51.63,0,0,1-85.45,0c-22.29-33.05-50.52-76.45-77.78-122.91a791.26,791.26,0,0,1,241,0Z"/><path d="M403.6,580.32a51.63,51.63,0,0,1-85.45,0c-63.38-93.84-174.76-271.75-174.76-362.79C143.39,97.48,240.86,0,360.91,0S578.36,97.48,578.36,217.53c0,91-111.38,269-174.76,362.79ZM360.91,125.71a80.64,80.64,0,1,0,80.57,80.63,80.67,80.67,0,0,0-80.57-80.63Z"/></g></g></svg>