<?xml version="1.0" encoding="UTF-8" standalone="no"?><svg xmlns="http://www.w3.org/2000/svg" xmlns:xlink="http://www.w3.org/1999/xlink" contentScriptType="text/ecmascript" fill="#000000" width="1756" zoomAndPan="magnify" contentStyleType="text/css" viewBox="0.0 -0.7 1755.9 989.0" height="989" preserveAspectRatio="xMidYMid meet" version="1"><g data-name="Layer 2"><g fill="#c9b8ff" id="change1_1" data-name="Layer 1"><path d="M1021.73,529.58c0-.37,0-.76,0-1.16C1021.58,529,1021.59,529.39,1021.73,529.58Z"/><path d="M1735.05,196.4c2.67-8.94,11.39-9.31,14.58-18.88-3.34-3.66-6.18-7.93-7-13.45l-4.75-1.09c0-2.06,0-3.55,0-5.19l3.54-5.6c-2-5-7.65,2.67-10.3-5.39l7.94-7.44c-.4-5,1.5-9.59-1.31-11.58l-6.54,1.32c-1.39,1.91-2.68,3.67-4,5.54l-9.67,2-4.88,7.24c-.52,2.72-.94,4.89-1.33,6.92-3.53.82-7.06,4.52-9.64-1.16l4.12-9.68-5.07-.64-7.35,15.34c-2.34-1.68.47-10.12-4.95-7.76-3.45,3.38-6.52,6.9-7,13.2-.06.9-2.72,2.24-4.09,3.31l-3.74-4.29-11.06,2.24c.45,6.27-2.81,10.67-6.57,14.63-2.3-1.73.45-10.12-4-8.17L1641.21,184c-3.45.7-5.29.37-6.74,1.5-4.87,3.78-9.59,8.07-14.27,12.09l-5-3-2.62,3.9c-3.55,1.89-7.82.54-10.41,7l-7.73,2.29-2,7.25-8.18,7.76-3-3.26-9.92,2-4.42,5.65-8.73,1.77c-5.56,6-11.47,8.66-14.27,16.35L1528,248.49l-30.37,26.82c-.79,3.06-1.35,5.21-2.22,8.59l-2.87-9.18-19,17.24L1462,294.32c-3.23,6.24-8,5.58-12,8.24-.48.32-.85,1.22-1.28,1.85l-1.36,2-6.59,1.35-4,5.57-10,2.06-3.86,5.4a18.14,18.14,0,0,1-3.5.69c-4.54-.07-7.38,9.75-12.42,7.36-.5-.24-1.77,1.89-2.76,2.6-5,3.59-9.29,10-15.16,10.43-1.15.07-2.65,3.16-4.22,5.15l-13.19,2.72c-2.31,5.68-7.13,5.33-9.9,10.05-2.54,4.33-6.29.8-9.41,5.09-2.81,3.86-6.58,6.36-10,9.56l-8.16,1.69-12.73,11.9-5.52,1.15-7.46,10.53-3.5-3.42c-3.11,8.63-10.45,3.13-13.37,11.39-4.47.68-7.51,6.86-12.33,8.2-4.36,1.21-8.75,7.07-14.26,11.88l-6.78,1.41c-4.34,3.28-7.58,4.45-9.15,7.21-2.52,4.44-6.42,4-8.72,8.16s-5.39,2.25-8,3.85c-2.84,1.74-4.67,9.42-8.58,4.82,0-.52-.12-1.27.1-1.59,3.38-5.13,6.81-10.21,10.23-15.29.07-1.56.14-3.12.2-4.68,8.69-5.2,13.27-17.06,20.2-25.09l3.31-1.12c2.45-5.29,2.87-13.1,8.16-15,6.64-2.38,6.53-10.73,9.79-16.1l3.12-.64c5.31-5.88,8.29-14.79,15.17-18.16,3-1.47,7.49-11.88,10.34-19.25l4.67-2.24c.66-2.93,1.16-5.12,1.66-7.35,4.2-2.74,8.65-5.25,10-12.48s5.38-10.2,7.87-11.56l28.44-42.3a63.13,63.13,0,0,0-.35-7.8c-.12-.81-1.77-.78-2.22-1.5a51.73,51.73,0,0,1-2.7,5c-2.12-3.63.5-3.82,2.7-5,0-5.06,3.65-7.75,6-11.29,2.25-3.29,5.29-5.56,8.1-8.4.15-3.19.29-6.21.41-8.9,4.9-7.3,9.56-14.22,14.22-21.14.14-3.11.28-6.22.42-9.37l21.65-32.07-3.16-4.44,7-5.74c.24-5.12.45-9.76.65-14.15l-3-4.39c-.41-3.82,1.53-8.36-.84-10.69l-5.6-.5c1.34-2.48,2.25-4.15,3.26-6,1.38-14.84,1.38-14.84-.8-17l-7.27,15-4.56-5.15c.15-3.4.3-6.51.36-8L1387,86.63,1383,92.06c-2.19-.82-5.25,2.57-7.33.24-1.59-2.57.71-8.93-3.92-7.51-.77,3.15,1.32,6.95-2.41,9.42-1.21-5.95-1.21-5.95,2.41-9.42-.35-5.91,1.75-12.6-.28-18.69l-4.23,5.34-6.69,1.32-3.27-3.63-3.87,5.3-6.59,1.3-4.1,5.62L1329.44,84l-3.76,4.77-3.62-3.33-2.71,9.26-3.78,1.23-3.46-3.83q-1.84,2.55-3.87,5.31l-8,1.58c-7.17,5-11.43,11.09-16.08,16-4.88,5.22-10.58,11.65-16.06,13.09-5.8,1.52-10,10.61-15.93,8.55-4.37,7.29-11.34,8.34-15.78,14.87-3.16,4.65-6.67,1.65-10.27,5.84-3.58,9.1-12.68,10.76-16.74,20.57-4.39-.17-7.58,3.58-11.21,6.54-4,3.23-7.68,7.13-11.77,10.05-3.53,2.53-6.77,6.46-10.35,8.56s-6.3,7.05-10.86,7.55c-3.21.35-7.43,4.61-10.12,8.51a57.05,57.05,0,0,1-11.35,12c-3.48,2.84-6.87,5.93-10.13,8.77l-5.75,1.16c-2.88,7.73-8.72,11.08-13.59,15.56s-9.76,9.34-15.67,9.76l-9.6,14.93c-5.58,1.76-9.46,9.81-14.69,8.31-3.56,5-6.69,9.54-11.29,12.91-5,3.66-10.81,7.35-14.59,12.82-5.7,8.26-12.91,11.62-18.88,18.4-.06,1.58-.12,3.15-.19,4.83-2.44,2.11-5.25,3.76-7.29,6.5-2.75,3.69-6.46,1.36-8,3.83-3.29,5.17-10.19,5.05-10.68,14.49-.13,2.52-2.77,5.5-3.38,6.63-4,1.14-6.79.8-8.49,2.62-8.54,9.14-19.09,14.58-24.77,28l-7.41,1.53c-2.23,3.29-4.1,7.25-6.62,9.57-5.81,5.35-11.94,9.91-19.69,16.21-4.89,9.75-13.72,16.72-22.41,24.32-9.45,8.25-19.79,14.64-27.62,26.7-5.65.12-7.1,8.77-11.44,11.95-5.13,3.77-10.25,7.51-14.77,13.62-4.24,5.7-10.11,9-13.66,16.29l-5-1.61c6.39-9.46,11.74-20.11,18.76-27.07,7.79-7.72,13.82-17.11,20.24-26.31,6.2-8.88,12.19-18,18.29-27.05l3.66-.75c1.23-3.4,2.48-6.88,3.67-10.16l4.33-1.17,44.06-65.3,3.5-1c.77-2.71,1.59-5.6,2.42-8.5a7.43,7.43,0,0,1,1.45-1.38c1.1-.53,2.23-.85,4.08-1.52l17.3-26.46c4.44,0,6.18-5.38,8.87-8.68l-3.11-4.38c2.37-4.4,5.44-2.6,8.2-3.9a58.23,58.23,0,0,0,11.91-20.77l4.87-2.76c-.06-7,3.33-10.86,6.93-14.1s7.68-6.09,11.76-9.27l-2.8-3.44c1.32-4.05,2.13-8.59,4.08-12.05,3.08-5.45,6.92-10.18,10-14.59.92-6.35-.8-11.63,2.15-17.28l12.2-3.31c0-11.44,9.28-15.48,11.79-24.85-.26-1.34-.51-2.69-.83-4.38-2.62.1-5.35.27-8.06.23-.45,0-.78-.89-.66-.75-1.43-5.61,1.22-11.81-1.2-16.56l-8,.41c-1.06-4-1.68-8.15-3.6-10.49,2.37-5.77,4.69-11.36,6.94-17,.27-.66.1-1.57.21-4.33-5.83-1.24-5.74-10.94-9.59-16.16l3.94-6.35c-.55-1.81-.74-4.29-1.77-5.44-1.9-2.13-1.55-5.11-1.59-8.17a35.64,35.64,0,0,0-1-5.93l-9.21,1.8c0,.78-.32,1.95,0,2.28a56.68,56.68,0,0,0,4,4.12l-6,16.51-5.06,3.28c-.8,2.86-1.6,5.71-2.47,8.84l-5.42.3c0-3.34-.05-6.29-.09-10.79.06.8.21-.2-.09-.58-3-3.86-6.1-7.63-9.36-11.65.14-3.43.28-7.14.42-10.63,4.12-4.07,8.08-2.72,12-4.06l3.49,4.06,8.63-1.68c-1-6.76-7-3.89-9.8-8.07l-9.42,1.84-2.61-3.23-15.11,1.38c-2.58-6.61-10.53,1.87-12.9-6.41l-19.62,3.81-7.54-3.57-4.6,6.38c-8.53,1.66-17.22,3.39-25.91,5-1,.19-2-.37-3.06-.58L919.53,84l-5.6,5.35c-.39-3-.45-5.43-3.24-2.08l2.88,2.91c-.38,1.2-.78,2.45-1.26,4l-11.06,2.15-3.85-3.47c-1,3.69-1.87,6.57-2.56,9-3.37,3-7.33-.4-9.77,5.49.47,3.54-1.53,8.09.92,10.8l11.65-10.6,3.08,3.46,3.83-5.43,12.21-2.38c.16-4.73,3.72-6.6,5.24-10l12-2.33c-.33,4.89-3.37,6.79-4.94,9.89l-12.3,2.39c0,.79.15,2.06-.11,2.3-5.35,5.08-10.76,10-17,11.63-2.16,3.21-4.33,6.41-6.53,9.67l-14,2.73L871.07,141c-.5-2.44-.92-4.44-1.26-6.09,2.72-6.74,7-9.71,11.41-13-.22-2.05-.44-4.16-.79-7.49l-8.92,6-5.91-7.24-3.94,5.46c-2.75,1.37-5.76-.55-8.3,3.37.83,1.94,1.66,3.86,2.54,5.9l-6.47,4.2c-.54,3-.94,5.22-1.21,6.74-2.55,3.12-6.89,1.18-6.93,6.95a22.39,22.39,0,0,1,3.29,2.84c-3.22,3.86-2.82.1-3.29-2.84A36.76,36.76,0,0,1,833.8,148c-4,3.53-7,6.14-10,8.79-.39,2.14-.81,4.39-1.32,7.23l-10.55,2.84-10.32,9c-.06,1.65-.12,3.23-.18,4.8l-10.17,8.84-11.17,2.9c1,3,1.75,5,2.48,7.16-4,3.56-8.11,2.21-11.57,3.8-7.13,9-16.9,11.45-21.5,22.38-3.33,3.5-7.47-1.23-9.24,4.94,1.24,2.77,2.27,5.09,3.13,7-1.67,3.55-2.8,5.94-3.63,7.72l3.15,5.84c-.94,2.12-1.67,3.79-2.41,5.48-4-2.84-4.44-8.42-6.68-13-3.69,2.22-7.72.26-12.52,4.74-1.7,3.85-3.84,8.71-6,13.68l-6.76,1.35c-1.59,2-2.85,4.56-4.39,5.36-2.26,1.19-4.13,1-5.15,5.6-1.33,6-5.29,11.46-4.13,18a17.23,17.23,0,0,1-2.4,1.95c-.7-2.81-1.35-5.44-2.09-8.45l-4.29,5.74-8,1.6-6.15,11-11.27,2.26c-3.7,5.45-7.22,10.66-10.9,16.09L643.07,324c-4.43,4.43-6.68,10.15-8.5,16.31l-7,1.41-10.64,15.71c-5.15,1.33-8.84,10.39-14.74,8.36a51.79,51.79,0,0,1-4,5.47c-4.16,4.36-4.9,12.48-8.4,15.68-3.83,3.5-7.67,8-12.13,10.25-.13.07-.07,1.51-.28,1.68a22.18,22.18,0,0,1,3.36,2.82c-3.25,3.89-2.87.12-3.36-2.82-4.3,2.45-5.85,10.56-9.56,11.75-4.34,1.38-6.45,8.57-10.92,7.94-1.61,3.48-5.27,5.33-5.47,9.47a21.6,21.6,0,0,1,3.36,2.81c-3.25,3.9-2.87.13-3.36-2.81-1.62,1-3.42,1.36-7.14,2.12-1.33,2.71-3.48,7.1-5.34,10.93l-7.44,1.51c-4.58,5.81-8,12.27-11.35,16.24-4.72,1.42-5.35-1.07-5.24-3.3l15.83-23.29,2.88-1.9c.15-2.31.25-3.89.35-5.47,8.43-7,8.43-7,13.1-19.23l5.2-1.06,5.36-11.22,3.72,4.4c4.94-6.1,9.43-12.54,11.65-21l4.2,4.25c1.92-8.82,8-10.37,12.16-15.37.09-1.14.18-2.26.21-2.6l13.22-21.43,10.58-2.12,4-5c2.26,2.72,4.06,5.74,7.92,1.51.6-4.14,1.26-8.66,1.88-12.94l8.56-2.61,3.33-4.91c2.8-1.54,5.87.39,8.44-3.3,2.11-4.28-1.12-9.34,3.1-13.3,1,2.87,2,5.72,3.35,9.51l2.86-10,2.28-1.24-.16.08c6.17-9.07,10.52-15.47,15.17-22.33,0-.39.12-2.79-.49-3.07-2.93-1.36-6.08-2-8.67-4.44-.72-.69-3.1,1.47-4.43,2.17-1.13,4.63.63,8.5-2,12.63-2.89,2.76-6.41.56-9.82,4.78-2.82,3.49-7.17,4.6-9.89,6.2-1.72,5.28.34,9.26-2.84,13.12l-4.53.9c-4.74.4-4.85-4.6-8-3.05-.08,2.25-.15,4.5-.23,6.75-2,4.53-4.32,4.74-6.78,2.45,1.68-4,3.51-7.79,7-9.2,1.22-7.16,6.43-10.53,9.41-16.05a80.51,80.51,0,0,1,6.59-9.79c2-2.61,2.35-5.52,3.23-8.62,1-3.6,4.27-6.45,6.1-10,1.34-2.59,1.88-5.79,2.91-8.66,1.29-3.6,2.71-7.15,4-10.63,3.77-2.68,5.08,1.5,7.4,3.07,2.72-3.74,1.38-7.7,1.94-11.39l7.48-10.48c.16-4.75.27-7.95.37-11l3.88-6.18c.21-6.38.43-12.76.64-18.94l7.44-11c.2-6.14.44-13.16.65-19.32l7.34-10.83c.11-3.13.22-6.33.36-10.36,7.41-5.71,7.86-18.48,14.63-25.59.37-.39.41-1.44.6-2.19.55-7.11.66-7.51,4.22-15.9-.06-2.79-.11-5.81-.15-7.87l-3-3.71c-.42-5.27,1.46-11.3-.65-16L703,61.16c.36-10.38.69-20,1-29.42,1.26-2.12,2.39-4,3.5-5.84-2.45-3.4-5.73-.24-8.51-.54l-3.63-4-4.28,5.86-5-1.05,4.24-6.83c-1.16-3,1.54-7.8-1-10.63l-4.89-.81c-.67-2.67-1.34-5.33-2-7.82-2.41-.07-4.67-.8-5.7,3.32L680.29,9c-6.72,3-12.7,1.41-18.31,5.39,1.19,5.48,6.24,6,6.44,12,1-.72,2.54-1.18,2.94-2.23a88.09,88.09,0,0,0,2.51-9c3,3.76,5.77,7.09,8.44,10.52a8.35,8.35,0,0,1-.59,2.06c-4.37,3.06-8.94,2-13.4,3.49-.2,2.93-.46,5.87-.69,8.45-3.9,2.32-7.11,4-10.91.6l7.2-8.22,4.4-.83c0-1.61,0-3.23.1-4.85-8.31,1.59-16.63,3.22-24.95,4.69-1,.18-2.05-.5-3.07-.79L638,27.34l-9.87,1.88a83.19,83.19,0,0,1-6.67,6c-4.09,2.93-7.32,6.34-7.54,13,0,.84-1.41,1.94-2.17,2.93-2.63-5.57-6.82-3.26-10.89-1.54a12.9,12.9,0,0,1-1.57,3.72,22.43,22.43,0,0,1,3.37,2.89c-3.26,3.9-2.87.09-3.37-2.89A15.08,15.08,0,0,1,594.14,55l-3.9,5.32-3.65-3.58c-3.77,5.55-7.32,10.79-10.88,16-4.79-2-6.34,9.07-11.31,7.56-.74-.22-2.6,3.49-4,5.46l-11.93,2.28c-6.89,4.06-7.58,10-9.54,16.21l-12.28,2.36c-.55,3-1,5.32-1.4,7.82l-10.15,8.77-9.4,1.81c-2.73,3.87-5.42,7.67-8.16,11.53L492,137.65l-10.14,8.21L468,166.35l-5.85,1.14-40,34.21c-.58,2.12-1.38,5.08-2,7.3l-5.4,2.54c-.94,3.7-1.67,6.59-2.36,9.33l-14,2.74c-2.76,4.07-6.69,9.89-11.19,16.56L377.8,242c-2.83,5.05-6.37,11.37-8.3,14.83l-7.91,4.49,3.58,4.88c-16.33,10.29-16.33,10.29-30.23,30.74L306.1,321c-.41,1.93-.9,4.21-1.4,6.49-13,9.74-13,9.74-26.25,29.28l-14,11.26c-.49,2.25-1,4.53-1.47,6.81l-6.16,4.09c-.52,2.9-.93,5.19-1.44,8L243,390.13l-7,10.29-5,2.42c-.9,3.27-1.72,6.24-2.49,9a12.41,12.41,0,0,1-2.19.66c-3.8.32-5.42,8-9.63,6.88-3.63,4.75-6.22,11.41-11.77,12.64l-17.87,26.31-6,3.56c-.17,2.21-.29,3.81-.42,5.56l3.56,4.52c-2.55,2.17-5.65,3.78-7.58,6.69-3.18,4.77-7.71.94-10.07,5.44-2.23,4.23-5.59,3.63-7.09,5.43l-8.75,12.87c1.31,3,2.59,5.86,3.77,8.51l-10.13,14.9c-5.87,0-7.5,8.58-12.07,12-.71-2.68-1.42-5.33-2.17-8.15-2.94-.52-5.88-1.06-6.55,4.68a22.72,22.72,0,0,1,3.48,2.83c-3.32,4-3,.14-3.48-2.83a32,32,0,0,1-7.36,6.91c-3.47,2.08-5.65,5.19-7,9.57,2,2.58,4.59.18,6.28.65a55.1,55.1,0,0,1,2.82-5.25c2.41,3.74-.45,4-2.82,5.25.58,4.5-3.33,6.28-4.93,10.3-1.34-1.27-2.57-2.42-3.89-3.68l-4,5.41-1.72.35-9.76,2c-1.41,2.23-4,4.78-4.62,7.65C85.5,578.51,85,583,80,583c-2.74,6.65-7.4,5.63-11.38,7.34-3.53,7.69-8.82,5.43-13.4,7.26-1.06.43-2,1.83-3.09,2.84l3.52,4.39c-.06,2.36-.11,4.77,2.73,1.19-5.19,7.07-7.81,5.5-10.39,10.1-.17,7-.27,15-.63,23-.06,1.25-1.29,2.7-2.22,4.52-2.52-1.32-6,2.86-8.38-.34-.35-3.83-.19-7.89-1.16-11.16-1.11-3.78-3.22-6.85-4.8-10-3-.31-4.53,2.68-6.5,5-2.2,2.62-4.5,2.31-6.2-.16,0-2.42.11-4.84.16-7.26l-3.72.77-4,9.27c-.06,2.32-.13,5.52-.17,7.16-2.8,6.93-5.06,12.48-7.32,18,3.13,3.79,6,7.37,7.84,13.15,1.57,5.1,6.4,7.83,9.69,11.48a65.31,65.31,0,0,1-.37,6.86,22.51,22.51,0,0,1,3.51,2.81c-3.33,4-3,.15-3.51-2.81-6-.36-8-8.64-13.72-11.26l-4.65,3.26L5.68,683c0,1.73.05,3.29.1,6.73l7.31,5.53c-.1,4.7-.17,7.81-.22,9.78l5,6.74,11.28-2.36,3,3c3.82,1.43,7.27-2.34,8.94.14,1.45,3.13-.37,7.47,3,7.48,3.46-3.66,4.82-11,11.49-11.28,1.54,2.4,3.68,5.71,5.34,8.28l8.46-1.77,3.91,4.06,12.7-2.67c.47,3.1.54,5.61,3.45,2.13l-3.26-3c.18-3.9,2.59-4.41,5.52-5.19,2.23,1.33,3.93,7.38,8.41,1.86.81-3,1.63-5.92,2.42-8.8l7.66-1.6,3.92-5.34,5.35,4.05,5.81-5.64c3.77.95,4.63,6.48,9,6.75l41.27-35.21c.12-2,.23-3.55.33-5.16a95.1,95.1,0,0,0,7.68-6.75c2.93-3.14,4.54-9,9.09-8.61,2-3.55,4.33-6.48,7.59-6.53l14.88-21.91a5.07,5.07,0,0,0,1.77-.59c3.66-2.9,7.32-5.82,10.92-8.87a23.45,23.45,0,0,0,2.57-3.08l4.35,4c5.22-14.38,16.67-19.32,23.5-31.27,2.43-4.25,6.82-6.95,10.52-9.72,1.11-.83,2.89.5,4.64.9-4.05,5.95-7.62,11.22-11.19,16.48-.49,2.27-1,4.54-1.56,7.2L250,597.17c1.73,2.28,2.83,3.72,4.08,5.35-2.2,3.15-4.76,6.14-6.61,9.68-1.34,2.55-1.74,5.83-2.54,8.72l-8,1.65c-3.67,9.53-12.26,11.75-16.8,20.33l3.46,4.48-22,18.13c-.43,3.78-.87,7.65-1.41,12.37l-8.8,2.67L186.39,688c-.48,2.73-.87,5-1.2,6.88l-6.83,4.5c-.1,3.84-.18,7-.26,10.18l-17.24,14.84-3.3-3.32c-4.25,11.85-4.25,11.85-13.21,19.75-.08,3.15-.16,6.34-.2,8l-13,25.42-5.32-3.67c-8,3.39-7,12.92-11,18.14-1.07,1.37-.88,2.45.2,3l6.26.37c-.51,3.32-.94,6.14-1.34,8.75l-10.09,2.15c.18,6,5.43,6.24,6.79,11l-10,8.32c-.84-3.51-1.48-6.13-2.07-8.59l-7.74,1.65-4,5.5-2.95-3c-7.3,3.11-4.92,13.26-10.23,17.85-.08,3.14-.15,6.29-.21,8.7L83,852c3.69-.58,5.3-7.87,9.5-7.12.09,0,.72-2.19,1.1-3.36l-6.62-1.63c.26-2.57.47-4.76.84-8.51,4.79.31,9.12-1.83,12.87-6.48a12.93,12.93,0,0,1,1.25,1.39c0,1.51-.08,3.08-.12,4.77-1.2,1.86-2.48,3.83-3.76,5.79-.73,3.83,1,7.59-1.49,11.45l-6.23,4c-.12,4.6-.21,8.56-.5,11.89A22.1,22.1,0,0,1,93.27,867c-3.3,4-2.94.18-3.47-2.76-.86,1.41-2.74,2.21-2.85,3-.61,4.46-2.65,9.67.9,12,4,2.05,5.11-3.93,7.75-5.6l5.24,5.89c-.34,2-.71,4.27-1.09,6.53l-10.6,3.74c2.52,8.31-5.24,11.35-7,17.92,1,1.45,1.87,2.81,2.71,4.06-5.66,9.06-6.9-3.2-11.11-.31-3.88,4.44-4.49,5.8-2.34,8.9,2,2.84,3.87,5,1.28,9.53-4.44,4.2-9.79-.32-13.34,5.66,4,9.88,7.86,19.51,11.73,29.11l5.52-1.2c.75-3.23-1.6-7,2.38-9.67,1.47,6,1.47,6-2.38,9.67.53,3.76-2.88,5.23-3.61,8.28l4.72,5.28c5.55.54,11.16-3.44,15.45-2.33l3.43,3.49c1.31-3.57,2.58-7.07,4-10.89l5.47,1-4.25,6.78c.24,1.79.52,3.9.72,5.47,4.68,2.27,10.22-4.37,13.75.61l-3.86,6.5,5.61.58c1.79-2.9,3.46-5.62,5.72-9.27,1.53-4.67-1.69-10.7,2.49-16.57l7,7.82c4.24-.93,9-1.84,13.86-3.16.92-.25,1.82-2.07,2.73-3.16.72-3.84-1.1-7.68,2-11.9l4.53-.47c.8,3.11,1.48,5.72,2.23,8.62l4.36-6,10.8-2.36,4.19-5.79,44.4-9.69c1.61-8.54,7-4.53,10.67-7.49,3.55-5.26,7.11-10.51,10.78-15.92l7.1-1.55,7.94-11.26c8.84-.84,14.89-11.45,22.68-15.36l10.65-15.73,10.35-2.25L311,851.08l2.79,3.19,7.09-6.73c5.44-5.48,10.28-12.07,12-20.84l9.62-2.07,5.65-12.53,7.3,5.07c3.57-10,12.92-12.06,17.51-21.68.27-.57,1-.82,1.31-1l6.58-1.81c4.39-4.57,5.09-10.43,7.5-15.42l8.11-1.74c2.9-4.6,5.84-10.73,9.77-15.09,4.11-4.57,9.18-7.44,13.68-10.94.06-2.22.11-3.8.15-5.33l9.34-13.79,8.92-1.9c2.88-4.62,6.61-10.62,10.22-16.44l3.81-.8c.6-.13,1.31,0,1.78-.43,3.45-3.16,6.85-6.44,10.21-9.63.15-1.69.29-3.25.43-4.81,2.21-3.26,4.77-6.27,6.53-9.84,2.35-4.75,6.65-3.63,9.15-8.39,1.59-3,5.07-3.38,7.6-6.46,2.39-2.91,6.4-3.33,9.58-4.79l.18-5.68c3.55-3.12,6.94-7.23,10.64-9,4.72-2.32,6.18-10.07,9.88-11.43,5-1.85,7.14-7,10-11.21,2.67-3.91,6.12-5.75,8.76-8.81s6-3.17,7.64-6.35c4.53-8.7,12.38-11.47,17-20.11,4.43-8.29,12.37-11.32,16.8-20.25,2.48-5,6.05-9.19,8.28-12.49,4-3.52,7-6.29,10-8.78,3.56-2.9,7.31-5.3,10.77-8.42,3.07-2.76,4.29-8.62,8.47-9.9,4.61-1.41,5.73-9.89,9.86-11.23,4.3-1.4,6-6,8.57-9.56,3.17-4.35,6-9.19,8.64-13.34l5.73-1.18c-2-6.4,2-10.85,5.31-14.06,6.28-6.08,13.17-10.79,19.84-16.1,4.36-6.43,8.16-14.55,13.31-18.91,4.42-3.74,7.39-9.53,11.39-12.49s8.1-6.69,12.2-9.8c5.25-4,10.4-8.65,13.43-14.83,3.2-1.12,6.27-.94,7.65-2.9,3.51-5,8.64-6.17,11.66-12.13,1.78-3.51,4.35-8.6,6.53-9.14,4.44-1.11,5.91-6.07,8.78-9.06,2.36-2.44,5-4.35,7.1-6.19.5-2.68.92-4.92,1.31-7,3.64-.65,7.31-4.77,9.62.13-6,4.74-1.61,13.7-6.75,19.51-1.61,1.82-1.17,7.34-1.65,11-1.89,2.69-3.65,5.18-5.17,7.33-3.12,1.49-6.22-.32-9.28,5.07,1.08,3.18,2.31,6.8,3.55,10.43l8.82-1.81c3.13-11.2,8.69-19.48,16.75-24.75.06-1.58.12-3.17.17-4.75l5.24-7.74,8.82-2.94c.45-5.82.86-11.2,1.26-16.52l5.23-7.73,3.56,3.85c1.93-5.09,3.83-10,5.65-15s3.18-10.22,5.43-14.83,5.64-8.31,7-14.44c.74-3.42,6.42-3.39,8.4-8.39,4.92,1.25,8.78-3.88,12.73-7.43,3.34-3,6.27-7,10-11.29.14,2.81.94,6,.22,6.9-2.88,3.75-4,8.2-4.51,12.68l-8.09,1.63c-2.11,9.75-8,16.27-12.9,23.79-1,11.06-9.3,15.6-12.8,24l-4.24,1.16c-5.17,13-8.42,28.34-20.47,34.56-.07,2-.13,3.56-.18,5.16-2.32,4.47-5.43,2.82-8.24,4-3.28,2.75-8.15,11.35-12.06,21.37L766,422.94c-.75,2.73-1.54,5.63-2.33,8.52L751.1,441c-.52-3.2-.85-5.25-1.22-7.59l7.58-6.18c.09-2.63.17-5,.26-7.37l-11.55,2.36-10,9.55c-.13,3.9-.27,7.72-.58,10.91a20.94,20.94,0,0,1,3.3,2.79c-3.21,3.87-2.82.13-3.3-2.79a16.24,16.24,0,0,1-5.51,1.8c-3.19,8.74-10,11.66-15.33,17.19-5.14,5.33-5.36,4.75-8.32,11.94a110.3,110.3,0,0,1-5.27,10l-4.31.89c-.76,2.76-1.17,6-2.49,8.51-1.48,2.83-3.44,5.14-2.85,9l3.28,4.35-5.45,7.49-7.69,1.6L678.72,512c-3.34,5.88-8.86,9.88-9.77,17.56l4.56,7.61c-2.11,4-3.92,6.42-7.17,4.84L664,532.49c-1.08,3.61-2.08,5.59-2.12,7.34-.07,4.09-.42,7.82-3.27,11a18.2,18.2,0,0,0,1,2.9c2.72.27,6-2.91,8.28,0,.14.71.54,1.5.35,2.05-1.83,5.38-3.75,10.72-5.75,16.37-3-3.41-.93-8-1.48-11.78l-7-3.21-7.41,5.62c3.75,6.25,8.93,8.26,10.13,14.55-.83,1.36-2.54,2-2.74,2.86-1,4.35-1.52,8.75-1.93,11.28-4.17,3.54-7.11,6-9.54,8.14a52.81,52.81,0,0,1-2.76,5.14c-2.28-3.65.47-3.88,2.76-5.14-1.75-3.23-3-6.85-5.05-12.81,6.42-.05,9.9-4,11.8-10.54l-4.76-5.25c-3,1.43-6.14-.35-8.33,3.56-.49,2.67-.9,4.92-1.4,7.66-7.08,1.43-9.84,9.78-14.2,16.07-.1,3-.2,6.14-.24,7.28l-8.6,14.68c-3.83,1.81-7,0-9.13,3.94-.49,2.73-.9,5-1.26,7L590,636.53l4.26,9.87L588,650.63c-.5,2.23-1,4.47-1.55,7-2,3-5.49,1.82-7.59,6.21-2.28,4.78-6.67.77-9.78,5.37-1.93,2.87-4.92,4.51-7.49,6.75-.05,1.57-.1,3.14-.15,4.63l-6.79,10.48c-1.71,5.25.36,9.14-2.79,13l-3.6-3.74c-4.19,6.14-4.14,6.19-5.8,12.83l9.51,4.44c1.7-2.62,3.38-5.22,4.82-7.46.78-4.3-.93-8.2,2.14-12l3.56,3.68,3.85-5.23c1.71,2,3.33,3.89,5,5.81,0,1.54-.1,3.11-.15,4.73-3.15,4.7-8.89,5.12-10.61,12.1l2.77,4.22c-4.48,5.45-9.64,1.43-13.74,6.63-.2,1.55-.4,3.08-.65,4.93l3.36,4.67c-2.46,3.64-5,7.48-7.61,11.16-.6.85-1.63,1.16-3,2.06.19-5.8.36-11.12.53-16.47l2.61-3.86c.59-4.51,2.53-9.54-.75-12.38-2.76-.34-4.41,2.08-6.4,4.54-1.67,2.08-4.13,3-5.89,4.15-.53,2.92-.94,5.16-1.32,7.22l-10.18,4.7c-.11,3.27-.18,5.65-.26,8l5-1.07c3,1.85,2.73,4.94.53,8.76-2.7-1.46-5.17-3.2-5.56-7.68l-5.92,1.26c-2.81,5.91-6.05,12.31-8.86,18.94-.78,1.85-.24,4.43-.31,6.67,3.58,2,3.58,2,1.81,8.66-3.78-.95-1.25-5.75-1.82-8.66-3.87,1.7-6.46,5.75-7.31,10.4-1.4,7.59-5.14,10.8-7.13,11.68l-14.26,21.1,2.07,2.39-10.94,14.42c-.13,4.22-.18,5.78-.23,7.28l-5.41,8-3.87-3.89-2.48,7.93,5.8,5.72c3.12-3.68,4.67-8.51,8.21-10.38l2.48,2.85c6.06-6.12-.16-8-.53-12,3.88-4.09,8-2.7,12.14-4.24l8.95-13.44-3-6.71c-1.75.55-3.32.42-2.75-2.53.16-.81,1.89-1.49,2.9-2.22q.1-3.51.22-7c5.51-4.56,10.63-10.62,16.31-11.59l5.73-7.2c.11-3.78.21-6.87.31-9.87l5.08-7.51,8.18-1.76,4.34,5.6L524.46,781l-5.32,1.14c-.43-3-.48-5.51-3.32-2.08l3.09,2.94c-.59,5.9.8,11.59-1.33,17.43L511,804.74l4.15,5.72a14.12,14.12,0,0,0-9.82,7.67c-1.88,3.58-4.19,6.39-7.51,6.76-.22,0-.62,2.15-1,3.55l10.22.06c-.45,3.15-.76,5.35-1.09,7.66a78.41,78.41,0,0,0-8.87,3.53c-.59.31-.91,2.45-1.33,3.9-2.43,1.24-4.38,1.8-2.33,5l2.69-4.54c3.68,1.87,3.61,2.13.8,9l-7,1.52-5.31,7.85-.82,10.27c-1.61,2.39-2.48,3.68-3.55,5.25l7.24,2.88-5.57,8.24-7.19,1.57c-2.45-.87-3.81-7.8-8.37-1.19,1,2.78,2.07,5.58,3.17,8.52l-5.76,9.08c-3.72,1.83-6.86.06-8.88,3.74l3.81,6.84,8.35-1.25,5.14,6.42c-3.43,1.78-4,7.43-7.6,7.92-.07-2.8-.14-5.55-.23-9.29l-6.83,2.09c1.85,4.26,3.47,7.22,7,7.22h0c.12,5.37,4.88,5.51,5.79,9.42,1.17,5,2.88,8.91,6.11,11.49L483.8,950c1,3.11,4.49,3.42,4.84,7.92,1.19,4.81-7.85,8.89-2.29,15,2.85.27,7.06-2.84,10.33,1.42,2.17,2.83,8.22-2.75,10.53,2.84,0,0,.8-.61.29-.21l4.93-5.53,8.71,3.87,4.46-6.28,7-1.56,4.44,4.42,6.83-6.31,2.39,2.76c1.85-1.74,3.6-4.08,5.55-5.08,2.73-1.41,5.84-.32,8-4.75,1.86-3.71,5.68-2,7.53-6.55,1.55-3.74,4.35-2,6.55-3.12-.05-2.27.37-4.43,2.48-4.26.58,0,.73,2.25,1.08,3.47a24.69,24.69,0,0,1,5.21-1c.54,0,.93,1.71,1.11,2.79a3,3,0,0,1-1.24,1.71c-1.74.56-3.49.84-5.24,1.23.38,1.25.75,2.5,1.13,3.77,4.34-.36,8.72,0,13.14-4.19l-3.54-4.83c.9-5.59-1.39-10.81,2.26-16.29l3.77-.83,3.06,8.75c3.8-2.82,4.91,1.77,6.68,2.3l9.45-8.35c.05-1.59.11-3.16.16-4.72,2.36-4.3,5.58-2.52,8.19-4.28s4.8-4.65,7.17-7l1.28,1.84c3.45-6.21,6.89-12.43,9.8-17.67,7.44,0,11.89-6.77,17.06-10.55a10.27,10.27,0,0,1,.11-2.36c.37-1.45.92-2.86,1.49-4.56,5.32.65,9.39-6.21,14.25-8.49l3.84,4c2.6-6.23,8.49-6,11.43-12.15,2.73-5.73,7.66-8.61,11.67-11.06,4.57-2.8,7-7.6,9.51-12,3.26-5.84,8.75-5.92,11.62-12.2,2.65-5.8,8.28-6.52,11.36-12.37a117.69,117.69,0,0,1,6.92-11.15l23.07-20.09c.07-1.76.12-3.31.17-4.74,4.58-8.44,12.46-11.19,16.77-19.89.2-.41,1.12-.31,1.71-.42,4.68-.87,2.24-6.67,4.44-9.26l5.09-2.84c4.56-6.87,9.3-14,13.94-21,2.9-1.51,5.92.32,8.41-3.51,1.93-4.14-1.38-9,3-12.66,2.47,2,3.69,6.25,7.08,6.61,5.16-5.45,4.94-15.16,10.66-20,1.91,2.18,3.43,5.57,7.08,2.62,3.46-5.13,6.93-10.28,10.33-15.34l4.94-2.49c.76-4.71,1.49-9.14,2.35-14.41,3,4.71,2.85,11.5,6.79,12.63l9.35-8.25c.06-1.6.12-3.16.18-4.73,2.19-4.46,6.84-2.8,8.78-8.43,1.69-4.89,5.58-6,8.78-8.56.43-3.72.87-7.49,1.37-11.8l7.8-3.79,4.06-9.37,11.59-2.47c4-10.24,13.32-12.06,17.3-22.09l7.17-1.52c2.71-6.55,7.09-5.66,10.88-7.35,4.67-9.29,13.11-12.58,17.61-21.91L977,571.8c3.39-5.06,6.36-12,10.39-14.88,4.64-3.35,7.71-8,11.83-13.71l10.77-2.27,2.59-9.33c3.32-.7,6.21-1.3,9.18-3.19a97.57,97.57,0,0,1,11.47-11l2.53,2.79c.51,3.49-1.38,5.77-2.83,8.53-1.28,2.45-1.68,5.62-2.45,8.38l-4.24.9c-.52-2.27-1.25-4.7-1.63-7.31-.26-1.74-2.41-.41-2.9-1.11-.13,2.92-.21,4.86-.26,6.08a61.27,61.27,0,0,1-4,8.27,20.2,20.2,0,0,1,3.21,2.74c-3.16,3.82-2.76.13-3.21-2.74a15,15,0,0,1-5,1.71c-4.29,4.2-5.61,10.6-7.92,16.23-2,4.91-3.44,9.9-6.51,14.48s-3.82,11.83-8.11,16l-5,1.07c-.39-3-.42-5.45-3.21-2.08.83.81,1.68,1.64,3,3,0,3.13,2.81,3.37,3.11,5.88.23,1.89-.65,4.31-1.06,6.6l-7.79,1.66c-1.66-1.39-3-5.11-6.91-2.7-1.56,4.13-3.28,8.72-5,13.23.9,1.08,1.68,2,2.05,2.47,3,7.37-2.19,13.7-3.84,20-1.93,7.39-8.11,10.41-13,13.89l-2.62-3.13c-4.52,1-9.13,1.91-13.75,3-.43.1-.89,1.1-1.68,2.13-.3,8-.62,16.34-.94,24.6l2.92,1c.41,3,.41,5.56,3.22,2.15l-2.95-2.88c.25-2.75-.65-5.65,2.58-9.57,1.56,3.22,3.21,6.6,3.59,7.38,7.26,1.59,12.68-3,17.74-.86-.39,10.11-.78,20-1.15,29.56l-2.74,4.07c2.13,5.88,4.24,11.69,6.2,17.08l-4.12,6.61c4,6.47,11.75,5.69,15.36,12.7.17.32,1.11-.19,1.69-.32,5.57-5.39,5.57-5.39,12.42-8,2.61-2.9,4-7.9,7.55-9.4.68,2.95,1.27,5.51,1.79,7.75,3.06.53,6.21-2.61,8.51-.07.57,2.56,1.13,5.1,1.92,8.66l19.6-17c.07-1.72.13-3.27.2-4.84,5.52-3.42,10.18-12.28,15.42-9.9l6.14,12.11,14.37-3.12,4.12-5.65,13.65-3c2-4,4.45-6.27,7.48-6,3.38.31,4.71-4.69,7.36-6.37s4.94-4,7.5-6.15l7.46-1.61,49-42.92,5.17-1.12,4-5.53,10-2.17,4.1-5.63,6.58-1.41,5-7.38c.5-2.68.9-4.87,1.44-7.77l11.26-2.42,7-10.47c3.18-1.42,6.12-1.66,9.54-4.88,5.58-5.24,10.62-10.22,13.58-18.67-3.37-2-3.37-2-1.6-8.49,3.57.95,1.11,5.64,1.6,8.49l5-1.07,3.35,3.64,3.64-4.73,3.41,3.11,6.85-10.2,12.13-2.59,12.74-21.71,10.06-2.14,4.27-5.09,9.27-2,4-5.34,6.51-1.38,4-5.59,7.86-1.67c1.69-3.13,3.89-7.22,5.78-10.71l10.67-2.27c2.36-3.51,4.21-7.7,6.68-9.56s5.3-2.94,7.12-6.87c6.77-1.43,13.52-2.83,20.27-4.35.42-.09.88-1.08,1.32-1.65.78-2.82,1.57-5.64,2.43-8.74l4.55.44c1,2.87-.37,6.81,2.34,7.38l4.76-7.1c.5-2.65.91-4.83,1.46-7.72l16.37-3.46c7.69-6.83,13.45-11.93,19.33-17.14l3,3.29c5.92,0,10.33-6.29,15-9.84.46-2.41.87-4.59,1.15-6.09,3.44-3.63,7.29-.18,9.7-5.91,0-1.5,0-3,0-4.64l-5.51-2.63c1.85-8.92,8.4-8.13,11.39-13.35l8.15,4.19-3.82,6c.3,1.89.61,3.87,1.06,6.64l6-7.94c.07-4.94.1-7.89.13-9.84-1.2-2.11-1.93-3.42-2.77-4.9,4.6-3.66,9.35-2.1,12.86-8.64.86-1.61,4.14-1.09,5.8-1.43l2.69,3.38c5-2.82,4.89-10,7.79-14.72l6.62-1.38c1.33-1.85,2.61-3.66,4.17-5.84,2.21,1.13,5.43-2.7,8.17,1.56l-8.2,9.19c3.31,4.38,6.57,2,10,.17.67-4.2,1.35-8.55,2.31-14.64,2,6.33,3.21,11.4,6.79,13.56,1.31-1.76,2.6-3.52,4-5.39l9.73-2,6.73-10.05,6.92-1.44c1.78.5,2.59,5.46,7,2.37,2.48-8.07,9.5-9.7,14.38-16.77,6.92,2.83,13-8.37,20-9,2.92-6.47,7-4.66,10.71-6.06a27.93,27.93,0,0,0,3.07-1.66l5.93-8.85c6.74-3,11.71-10.63,17.88-14.1,1.92-1.08,3.5-4.49,5.14-6.72l-3.45-5.17,4.88-2.8,3.57,4.15,7.62-1.58,5.8-10.55c6.55.19,10.71-6.63,15.71-10.19.39-7.63.76-15.32,1.23-23,0-.55.79-1.24.88-1.38l5.48,7.26,16.87-15c.88-3.71-.68-7.42,1.72-11.13l5.73,3.12c4.7-3.86,6.43-12,11.74-12.1,2-3.87,5.91-6.38,5.6-12.08,0-.59,1.34-1.75,2-2.63l2.43,3.11,7.34-1.5,4.72-7.4c.2-3.71.35-6.72.48-9.2l-4.39-6.1c-5.63,1.15-11.15,2.31-16.65,3.33-.4.07-.73-.87-1.43-1.75C1728.35,196.46,1731.77,198.89,1735.05,196.4ZM988,113c.37.45,1.12.95,1,1.35a22.67,22.67,0,0,1-1.22,3.43l-1.18-1.46Zm-35.41,1.48-1.19-1.45a13.35,13.35,0,0,1,2.42-2c.29-.15.73.81,1.1,1.27Zm20.64-24.78c-.06,1.63-.12,3.19-.18,4.76-2.88,5.08-6.2,3.34-9.92,3.61-.21-1.89-.45-4-.67-5.94C966.29,87.08,969.8,86.5,973.18,89.74Zm-26.6,3.16,8-2.06c1.08,1.59,2.74,4,4.39,6.49l-5.54,8.21-4,.77-2.53,9.22-4.41,1.68c-3.57-4.32.14-11-1.69-15.39C942.86,98.64,944.54,96.06,946.58,92.9ZM935.79,109c.37.46,1.12,1,1,1.36a22.67,22.67,0,0,1-1.22,3.43c-.37-.45-.75-.91-1.19-1.46C934.86,111.22,935.33,110.09,935.79,109ZM592,339.18c.38.45,1.15.95,1.07,1.36a22.37,22.37,0,0,1-1.23,3.46l-1.22-1.46C591.07,341.45,591.53,340.31,592,339.18ZM583.87,92.31c-.08,2.48-.13,4-.19,5.69l-10.3,8.88c-.28-2.27-.53-4.35-.77-6.31C575.87,96.88,577.44,89.55,583.87,92.31ZM23.18,647.72l-1.28-1.46,1.39-3.41c.4.46,1.21.95,1.13,1.36A21.61,21.61,0,0,1,23.18,647.72Zm41.13-18.19a14.17,14.17,0,0,1-1.08-3c-.06-.38.77-1.21,1.2-1.84a14.74,14.74,0,0,1,1.08,3C65.57,628.07,64.74,628.9,64.31,629.53ZM70,613.37l-13,2.69c-4.4-3.94,1.29-4.27,1.78-6.43a22.45,22.45,0,0,0,.79-4C68.36,602.39,71.21,605.44,70,613.37Zm50.71-33.91-4.76-.17c.68-4.69,3.57-6.73,5.24-9.82C123.69,572.18,123.59,575.41,120.66,579.46Zm30.53-35.53c-.4-.46-1.19-.95-1.12-1.36a22.14,22.14,0,0,1,1.24-3.5l1.27,1.46Zm15.15-17.61c-.42-1-.83-1.93-1.24-2.86.51-.75.94-1.37,1.36-2a13.8,13.8,0,0,1,1.07,3C167.59,524.88,166.76,525.7,166.34,526.32Zm.13-30c-.31.15-.78-.82-1.18-1.28a14.68,14.68,0,0,1,2.52-2c.31-.15.78.81,1.18,1.27A14.38,14.38,0,0,1,166.47,496.36Zm6.86,23-1.27-1.46a14.68,14.68,0,0,1,2.52-2c.31-.15.78.81,1.18,1.27Zm-39.27,269,1.24,2.83-1.36,2a14.45,14.45,0,0,1-1.07-3C132.81,789.8,133.64,789,134.06,788.35Zm-22.85,182c-1.49-3.92-3-7.86-4.74-12.39L112,955.4c1-2.95,2.18-6.43,3.42-10.06,3.72,3.94,1,10.25,1.59,15.24l3.08,6C117.22,970.52,114.16,968.86,111.21,970.34Zm16.16-144.27-14.16,11.6c-.38,3.46-.79,7.28-1.2,11.07-3.32,3.73-6.62,3.86-9.91,2.59,2.29-7.1,4-14.58,9.26-19.76l3.94-1.16c.74-2.72,1.54-5.64,2.33-8.55,8-5.88,8-5.88,11.68-17.21,1.12-.54,2.32-1.52,3.35-1.49s1.89,1.08,3,1.78C134.75,814.61,126.44,817.78,127.37,826.07ZM426.22,696.82c-.3.15-.76-.8-1.14-1.24.8-.75,1.6-1.49,2.38-2.2l1.23,1.43A14.43,14.43,0,0,1,426.22,696.82Zm9.95-145.53c-3.25-.82-3.25-.82-1.47-7.51,3.82,1,1.27,5.82,1.85,8.76a7.8,7.8,0,0,1,3.2,2.17C436.48,558.63,436.86,554.85,436.17,551.29Zm16.65-15.66-4.12-8.48,5.08-2.08C455.8,528.24,455.87,530.87,452.82,535.63Zm24.44-37.29,7.25-6.07c0,.47.26,3.05.45,5.2C482.16,500.86,480.16,501.46,477.26,498.34Zm9,15.29c-.38-.45-1.16-.94-1.08-1.35a21,21,0,0,1,1.23-3.46c.38.46.77.91,1.23,1.45C487.17,511.36,486.71,512.5,486.24,513.63Zm7.3-24.18c-.44-3.54-.75-6.11-1-8.2,2.67-3.78,4.66-4,6.7-2.32C498.71,483,495.77,485,493.54,489.45Zm10.43-17c.13-4.49.2-6.61.29-9.33l5.9-2.7c.33,2.91.63,5.52,1,8.75Zm125.58,6c-.29.15-.74-.81-1.12-1.26a14.66,14.66,0,0,1,2.45-2c.29-.14.74.81,1.12,1.26A13.72,13.72,0,0,1,629.55,478.49Zm15.19-74-5.82,11.93-5.11-1.78,9.12-13.47C646.21,401.09,644.77,404.83,644.74,404.46Zm59.6-126c-.38-.46-1.14-.95-1.06-1.36a21.9,21.9,0,0,1,1.23-3.45l1.21,1.46C705.27,276.23,704.81,277.36,704.34,278.49Zm7.68-2.22L709.78,275c.41-.62.93-1.77,1.22-1.74a7.49,7.49,0,0,1,2.35,1Zm51.32-42c-1.86-2.13-3.07-3.33-4.1-4.77a14.84,14.84,0,0,1-1.19-3c1-.73,2-1.56,3-2.17.53-.32,1.14-.26,3.89-.81C764.27,227.91,763.87,230.62,763.34,234.23Zm19.29,128.43a13.55,13.55,0,0,1-1-3c0-.38.75-1.19,1.16-1.8l1.15,2.83ZM796,348.31c0-.47-.24-3-.42-5.17,2.77-3.35,4.73-3.94,7.55-.82ZM835.45,166.7l-1.2-1.46,1.37-3.34c.38.45,1.13.95,1,1.36A22.1,22.1,0,0,1,835.45,166.7ZM474.59,909.14c-3.84-1.11-2.7-4.35-.24-9.17C476.58,903.35,476.62,905.94,474.59,909.14Zm5.9,3.09c-.3.16-.76-.78-1.14-1.22a14.87,14.87,0,0,1,2.46-2c.29-.15.75.79,1.13,1.23A14.25,14.25,0,0,1,480.49,912.23Zm22,27.87-5.95-3.7c-.41-7.74,2.24-8.86,6.52-9.3C503.41,932.77,504.86,936.92,502.5,940.1Zm17.23-125.05q-3.71-3.93.3-9.52Q523.74,809.46,519.73,815.05Zm3.69-20.36-1.22-1.42a14.73,14.73,0,0,1,2.45-2c.3-.15.75.79,1.13,1.23Zm15.08-26.85-1.22-1.41a14.33,14.33,0,0,1,2.45-2c.3-.15.75.79,1.13,1.24ZM569,687.08c-.18-3.48-.32-6-.48-9,3.83,1.24,4.53,1.51,6.35,3.67C573.25,684.78,571.46,685.74,569,687.08Zm5.37,31.27a20,20,0,0,1-2.26,4.77c-2.29-3.64.46-3.88,3.27-5.52,1.26-4.57,1.26-4.57,5.92-3.49C579.8,719.47,576.68,717,574.36,718.35Zm13.69-40.71-11.92,2.53c.53-5.23,3.66-6.75,4.34-9.79L593,667.73C592.71,672.58,589.63,674.53,588.05,677.64Zm2,18.08c-.26-2.35-.5-4.41-.85-7.5l6.74-3.09c.35,3,.58,5.09,1,9.11Zm10-40.08c-3.81-1.15-2.68-4.4-.22-9.21C602,649.83,602,652.44,600,655.64Zm4.08,271.64c-.29.15-.74-.78-1.12-1.22.8-.73,1.59-1.47,2.35-2.18l1.21,1.4A14.2,14.2,0,0,1,604.07,927.28Zm1.72-288.12c1.49-6.64,4.18-1.5,6-2.84C609.74,640.69,607.76,641.27,605.79,639.16ZM628,645.58c-1.13,3.26-2.32,6.71-3.49,10.11l-4,.85c-.51-1.52-1.11-3.27-2.26-6.64l9-8.48c.26,0,3.24-2.11,5.93-.55C630.59,644.76,630.59,644.76,628,645.58Zm4.41-20c-4.73-2.18-6.36,9.88-12.8,5.94l3.85-6.35c.09-2.91.2-6.07.31-9.55l5.64-7.72c1.68,4.4,3.41,8.92,5.06,13.26C633.63,623,632.52,625.6,632.42,625.55Zm49.14-95.26c.39,1,.79,1.89,1.16,2.81l-1.32,2a13.66,13.66,0,0,1-1-3C680.34,531.71,681.15,530.9,681.56,530.29Zm-7.93,25.31,1.21,1.43-1.37,3.34c-.38-.45-1.14-.93-1.06-1.34A21.63,21.63,0,0,1,673.63,555.6Zm8.29,7c-.15,4.43-.22,6.54-.32,9.23l-5.83,2.69c-.31-2.88-.59-5.46-.94-8.66Zm-12.5,12.75c.4.94.79,1.89,1.17,2.8l-1.33,2a13.94,13.94,0,0,1-1-3C668.21,576.82,669,576,669.42,575.4Zm-12.64,2a21.07,21.07,0,0,1,3.32,2.76C656.88,584,657.26,580.29,656.78,577.39Zm20.51,283.19-6.94,1.52-3.91,5.54-5.57,1.22a11.11,11.11,0,0,1-1.89,4.66c-2.26-3.59.47-3.85,3.25-5.49,2.58-12.1,13.3-12.62,18.88-22C683.63,851.35,683.75,851.46,677.29,860.58Zm-1.43-309.49c.15-4.44.22-6.55.31-9.24l5.83-2.69c.32,2.88.6,5.46,1,8.67Zm25.48-39.79c-.16,4.44-.23,6.55-.32,9.25l-5.83,2.68c-.31-2.88-.6-5.47-.94-8.67Zm-4.49,17.37a21.63,21.63,0,0,1-1.22,3.43c-.38-.45-.75-.9-1.21-1.43l1.37-3.34C696.17,527.78,696.93,528.26,696.85,528.67Zm-6.53,312.78c2-2.57,3.25-6.32,6.57-7.89.23,2.08.45,4.09.65,5.89C694.93,843.72,692.6,844.22,690.32,841.45Zm7.6-294.65c-.34-3.43-.6-6-.81-8.07,2.71-3.61,4.67-4,6.61-2.12C703,540.59,700.34,542.63,697.92,546.8Zm8.56-36.13c-.41-1.54-.9-3.39-1.74-6.53l7.37-7,3.74,4.45Zm24.89-42.76c-.2,5.51-.39,11-.6,17.09a65.59,65.59,0,0,0-6,4.07,33.92,33.92,0,0,0-3.68,4.47c-.46-2.15-1.34-3.89-.93-4.73,3.43-7.2,4-16.91,11.21-21.06.75-3-1.46-6.85,2.39-9.4C735.1,464.34,735.1,464.34,731.37,467.91Zm87.79,240.3a14.41,14.41,0,0,1-1-2.93c0-.37.75-1.18,1.16-1.78.38.93.76,1.86,1.14,2.76ZM868.91,654c2-4.33,3.93-4.9,5.85-2.82C873.27,657.73,870.65,652.65,868.91,654Zm83.83-81.73a13.89,13.89,0,0,1-1-2.94c0-.37.75-1.17,1.15-1.78a13.89,13.89,0,0,1,1,2.94C953.94,570.84,953.15,571.64,952.74,572.25Zm-8.25,100c-.32-3-.53-5-1-9l6.76-1.44c.25,2.31.46,4.34.79,7.39ZM978,647c.29-.14.72.79,1.08,1.23a14.09,14.09,0,0,1-2.39,2c-.29.15-.72-.78-1.08-1.22A13.71,13.71,0,0,1,978,647ZM968.67,708l-2.18-1.18c.41-.61.92-1.74,1.2-1.72a7.1,7.1,0,0,1,2.28,1Zm16-26.36-10.62,2.29c-3.72,2.32-5.56,9.7-9.65,5.73.4-4.05,3.27-6.05,5-9.11l7.24-1.56,2.48-8.8c3.53-1.49,3.22,4.54,5.85,4.06C984.9,676.47,984.84,678,984.7,681.59Zm1.82-49.06c0,.66-1.43,1.65-2.26,2.14-.27.16-1.08-.74-1-1.26.14-2.11.52-4.26.8-6.39l2.21-.6A40.09,40.09,0,0,1,986.52,632.53Zm4.8-4c-1.52-3.77-1.36-7.89.75-13,3.57,2.2,5.58,6.7,8.74,9.37C997.58,629.65,994.44,628.63,991.32,628.5Zm30-34.15-2.16-1.19c.4-.61.91-1.74,1.19-1.71a7.05,7.05,0,0,1,2.27,1Zm17.56-21.66c-2.36-2.62-2.23-5.75.38-9.42C1041.64,565.89,1041.52,569,1038.9,572.69Zm14.89,140.69a13.88,13.88,0,0,1-1-2.9c0-.37.74-1.17,1.14-1.77.38.93.75,1.85,1.11,2.75Zm127-88.36a7.1,7.1,0,0,1-2.24-1c.41-.6.81-1.2,1.29-1.92l2.14,1.18C1181.54,623.92,1181,625,1180.75,625Zm37-164.36a14.21,14.21,0,0,1-.93-2.92c0-.37.73-1.16,1.13-1.76.37.93.74,1.86,1.09,2.76C1218.59,459.46,1218.19,460.06,1217.78,460.66Zm45.91,110.76-4.81-7,6.38-5.85C1267,561.27,1266.75,565.86,1263.69,571.42Zm7.7-20.3a13.84,13.84,0,0,1-.93-2.9c0-.37.74-1.16,1.14-1.76.36.93.73,1.85,1.08,2.75Zm61.8-36.84c-.43-.52-.78-1-1.13-1.4a14.07,14.07,0,0,1,2.34-1.94c.28-.14.7.79,1,1.22Zm21.85-14a6.8,6.8,0,0,1-2.2-1l1.28-1.91,2.11,1.19C1355.83,499.15,1355.32,500.27,1355,500.24Zm37.16-30.87c-.28.14-.69-.78-1-1.22l2.26-2.11,1.13,1.4A14,14,0,0,1,1392.2,469.37Zm31.38-14.95c-.36-.93-.72-1.85-1.06-2.74l1.28-1.91a14.62,14.62,0,0,1,.91,2.9C1424.75,453,1424,453.82,1423.58,454.42Zm6.43-6.82c-.28.15-.69-.78-1-1.21l2.25-2.12,1.12,1.4A13.1,13.1,0,0,1,1430,447.6Zm106.78-62.87a13.88,13.88,0,0,1-.9-2.89c0-.37.72-1.15,1.12-1.75a13.39,13.39,0,0,1,.9,2.9C1538,383.36,1537.19,384.14,1536.79,384.73Zm48.34-141q3.6-5.7,6.71-1.37Q1588.23,248.07,1585.13,243.74Zm13.8-12c3.59-4.59,6.93-5.27,10.14-2.07C1605.48,234.23,1602.13,234.91,1598.93,231.72ZM1627.62,219l-4,.82c-.2-2.35-.41-4.86-.59-7.05,3.72-3.62,6.66-4.13,9.55-2.49C1631.88,214.1,1629.28,216.09,1627.62,219Zm14.29-15.71c5.19-6.78,5.19-6.8,16.28-7.09C1652.1,202,1648.18,199.92,1641.91,203.24Zm64-19.44a6.88,6.88,0,0,1-2.16-1c.4-.59.79-1.19,1.27-1.89l2.06,1.21C1706.67,182.72,1706.17,183.83,1705.9,183.8Zm-2.85-12.8c-3.54,1.72-7.7.49-10.44,7.18-3.15.63-6.41,1.34-9.66,1.9-.43.08-.83-.54-1.24-.84-.14-.51-.43-1.44-.4-1.47,2.81-2.54,5.64-5,9.52-8.4l5.29-1.07,3.8-5.39,8.23-1.66h0C1707.94,165.8,1704.6,167.6,1703.05,171Zm5.1-9.75c2.19-5.15,2.19-5.15,6.49-4C1713.15,162.45,1710.32,160,1708.15,161.25Zm3,54.39c-.36.27-1-.06-1.35-.34a8.05,8.05,0,0,1-1.22-1.52,100.75,100.75,0,0,1,6.31-7.93c2-2.08,4.35-3.48,7-5.52.19,2.1.36,4.08.58,6.51C1718.64,209.86,1714.94,212.81,1711.2,215.64Zm12.49-58.4a6.65,6.65,0,0,1-2.15-1l1.27-1.89,2,1.22C1724.47,156.16,1724,157.27,1723.69,157.24Zm16.23,12c.18,2,.36,4,.72,8l-13.06,2.65c-.21-2.28-.39-4.31-.58-6.41C1731.25,169,1735.36,169.62,1739.92,169.24Z"/><path d="M17.09,616.05c.61.06.79,2.34,1.17,3.61,4.68-1.63,9.43-.67,14.5-4.19.16-6.92.32-13.84.48-20.72l4.26-5.51c.06-2.73.12-5,.17-7.32,2.48-1.22,4.44-1.8,2.31-5.09l-3,5-5.08,1-3.22-9-4.38.9-2,7.35L11.46,593.36c-.1,4.19-.17,7.41-.24,10.63-2.22,2.57-3.37,6.82-6.64,7.77C4,601.33,3,596.93.65,595.11c-.24,10.68-.49,21-.65,31.25,0,.57.79,1,1.23,1.46l3.7-.55L9,621.56l5.52-1.13C14.46,618.08,14.88,615.85,17.09,616.05ZM28,598.24l1.28,1.47c-.45,1.11-.93,2.26-1.4,3.41-.4-.46-1.2-1-1.13-1.36A22.77,22.77,0,0,1,28,598.24Zm-4.43-4.49c-.54-1.1.36-2.61,1.26-4.11,2.42,3.74-.45,4-3.36,5.65.53,1.09-.37,2.6-1.26,4.11C17.81,595.66,20.68,595.42,23.6,593.75Z"/><path d="M719.85,222c4.89,2.43,8.65-2.87,12.66-6.45l9.15-1.8,4-5.31L756,205.63c-3.33-4.27-7.38-7.23-1.4-14.24L760,201.62l5.63-4.18-3.26-4.65c1.89-2.84,3.63-5.44,5.33-8l3.59,3.87c2.88-4.81,2.22-9.07,1.15-13.29-4.07-3.52-6,3.76-10.12,6.08l-6.8,1.34c-8.57,6.35-15.4,10.87-16.25,21.89l-7.66,1.51c-2.57,6.55-8.72,6-11.6,12.31C719.16,220.48,718.41,221.2,719.85,222Z"/><path d="M59.89,894.11c-2-4.33-3.67-8-5.58-12.12-1.19,4-2.05,6.85-2.87,9.61l-5.91,3.76c1.61,3.94,3,7.49,4.59,11.27l9.52-2C59.77,899.33,59.84,896.21,59.89,894.11Z"/><path d="M1054.55,155.05a85.94,85.94,0,0,0,9.91,4.44c.43.17,1.09-.34,1.65-.54,1.62-4.21,3.25-8.42,5.21-13.48-5.09-2.91-8.75,2.29-12.67,4.81-3.87-3.59-3.87-3.59-7.61.58C1052.19,152.29,1053.14,154.25,1054.55,155.05Z"/><path d="M832.1,139.11l6.79-3.22L835,130.82c.11-3.21.23-6.32.34-9.48-3.36-3.28-6.89-2.54-11,2.44l6.64,6.95C831.45,134.12,831.72,136.17,832.1,139.11Z"/><path d="M705.23,231.52l3.59,8.27,6-2.83c-.62-4.79,1.23-9.18-1.19-12.43l-4.27.84Z"/><path d="M70,850c-1.23,3.39-2.11,7.22-3.86,10.28-2.33,4.09-2.67,7-1.72,8.09l10.87-11.33C76.17,848.74,73.37,849,70,850Z"/><path d="M844.2,131c1.77-2.61,3.46-5.1,5.14-7.6-3.27-1.7-2.83-6.91-4.68-11.13l-6.5,2.87,4,4.31C843.68,123.35,839.43,129.67,844.2,131Z"/><path d="M860.48,112.12c-.11-4.06-3.41-2.58-4.25-5.2S854,102.35,852,98.46c-1.32,5.6-1.83,7.8-2,8.29l4.87,9.36Z"/><path d="M1509.68,399.36l-4.78,9.37c1.72,2.48,5-.24,9.95-2.07-.66-3.27-.79-5.44-1.54-6.92C1512.94,399,1511.44,399.48,1509.68,399.36Z"/><path d="M698,256.06c2.26-4.7,7.57-7.57,4.79-15.21l-9.47,8.71C695.12,252.09,696.52,254.05,698,256.06Z"/><path d="M892.35,89.93c-4.55-.72-8.85-.2-16.85,4.89C889.23,94.4,889.23,94.37,892.35,89.93Z"/><path d="M867.14,97.74l-6.43,3.61c-.13,3.45-.22,5.73-.31,8.19l7.17-2.14C867.41,103.93,867.3,101.35,867.14,97.74Z"/><path d="M1487.1,415.51c.14,2.07.31,4.57.42,6.33l6.83-7C1491.63,411.67,1489.76,412.25,1487.1,415.51Z"/><path d="M98.83,801.66c.19,3.07.35,5.62.57,9.14l7.32-3.92C103.67,803.2,103.59,803.15,98.83,801.66Z"/><path d="M47.62,607.86c-.47-4.46-3.3-5.33-5.5-8.78l-2,12.09Z"/><path d="M80.57,861.73c4-2.64,1.64-6.46,2.39-9.69C79.11,855.7,79.11,855.7,80.57,861.73Z"/><path d="M471.16,960.59c2,2.07,4,1.47,6-2.89C475.36,959.05,472.64,954,471.16,960.59Z"/><path d="M58.14,577.5q-4.11,5.71-.23,9.77Q62,581.56,58.14,577.5Z"/><path d="M799.7,149.84l8.12-1.58,4-5.55c3.94-1.4,8,.09,10.9-2.93-1.33-2.39-2.78-5-4.51-8.14-4.52-1.69-8,4.94-12.21,7.54-3.28,2-5.86,5.59-6.91,10.59-2.38,1.16-4.24,1.71-2.26,5Z"/><path d="M1055.57,102.87c-.37-.92-.74-1.88-1.12-2.83-.41.6-1.2,1.4-1.16,1.78a14.52,14.52,0,0,0,1,3Z"/><path d="M791.69,158.58a7.66,7.66,0,0,0-2.33-1c-.29,0-.81,1.12-1.23,1.73l2.23,1.27Z"/><path d="M1069.33,109.39l-3-3c-.31-2.65-.56-4.42-3.1-1.36l3,3C1066.54,110.68,1066.79,112.45,1069.33,109.39Z"/><path d="M1075.92,113.07c-.36-.92-.74-1.87-1.12-2.83-.4.61-1.2,1.41-1.15,1.79a14.82,14.82,0,0,0,1,3Z"/><path d="M1393.13,59.54,1391,58.29l-1.29,1.92a7.17,7.17,0,0,0,2.22,1C1392.22,61.26,1392.72,60.13,1393.13,59.54Z"/><path d="M1395.21,73.94a14.46,14.46,0,0,0-.92-3c-.4.6-1.18,1.38-1.14,1.76a14.46,14.46,0,0,0,.92,3C1394.48,75.11,1395.26,74.32,1395.21,73.94Z"/><path d="M1747.74,145.57c.08-.39-.62-.87-1-1.31l-1.33,3.22,1.09,1.41A22,22,0,0,0,1747.74,145.57Z"/><path d="M1755,174.69c-.39.59-1.15,1.36-1.11,1.73a14.09,14.09,0,0,0,.87,2.9c.39-.59,1.15-1.37,1.11-1.73A13.17,13.17,0,0,0,1755,174.69Z"/><path d="M145.84,509.55a14,14,0,0,0-1.07-3c-.43.62-.85,1.24-1.36,2l1.24,2.86C145.07,510.76,145.9,509.94,145.84,509.55Z"/><path d="M81.92,566.07c-.41-.93-.83-1.9-1.25-2.87-.42.63-1.26,1.45-1.2,1.84a14.2,14.2,0,0,0,1.09,3Z"/><path d="M42.67,633.09c.3,0,.83-1.14,1.26-1.77l-2.36-1.24-1.36,2A7.88,7.88,0,0,0,42.67,633.09Z"/><path d="M108.7,799.54c-2.19-.18-2.61,2-2.54,4.35l3.7-.79C109.48,801.85,109.3,799.59,108.7,799.54Z"/><path d="M73.26,873.3c.47-1.14.93-2.28,1.39-3.39l-1.28-1.43A22.33,22.33,0,0,0,72.14,872C72.06,872.38,72.86,872.85,73.26,873.3Z"/><path d="M506.42,804.64a14.33,14.33,0,0,0-2.45,2l1.22,1.41,2.37-2.19C507.18,805.43,506.72,804.49,506.42,804.64Z"/><path d="M492.29,814.66c.58-2.95-1-3.08-2.75-2.53l-.15,4.75C490.4,816.14,492.13,815.47,492.29,814.66Z"/><path d="M64.83,918.25l1.36-2c-.4-.92-.82-1.87-1.24-2.82-.42.63-1.25,1.45-1.19,1.83A13.62,13.62,0,0,0,64.83,918.25Z"/><path d="M447.73,917.14a14,14,0,0,0,1,2.94l1.33-2c-.39-.9-.79-1.84-1.19-2.78C448.49,916,447.68,916.76,447.73,917.14Z"/><path d="M574,948.86c-.2,3.28.94,4.59,3.4,3.93.06-1.57.11-3.15.16-4.72Z"/><path d="M1021.83,108a14.14,14.14,0,0,0,1,3l1.31-1.94c-.36-.92-.74-1.88-1.12-2.83C1022.58,106.79,1021.78,107.59,1021.83,108Z"/></g></g></svg>