<?xml version="1.0" encoding="UTF-8" standalone="no"?><svg xmlns="http://www.w3.org/2000/svg" xmlns:xlink="http://www.w3.org/1999/xlink" contentScriptType="text/ecmascript" fill="#000000" width="858" zoomAndPan="magnify" contentStyleType="text/css" viewBox="-0.4 -0.5 858.0 254.3" height="254" data-name="Layer 2" preserveAspectRatio="xMidYMid meet" version="1"><g id="change1_1" data-name="Layer 1"><path d="m228.93,253.8h-.28c-5.23-.58-10.16-2.03-14.81-4.07h-.58c-1.45-.86-2.03-2.31-1.45-4.05.58-1.16,2.32-2.04,3.77-1.46.3,0,.3.3.58.3h.3c4.05,2.03,8.42,2.91,12.77,3.49.86,0,1.45.28,2.03.86s.88,1.45.88,2.32c-.3,1.45-1.46,2.61-3.2,2.61Zm23.51-3.19c-1.45,0-2.61-.88-2.91-2.04-.28-.57-.28-1.45,0-2.03.58-.86,1.16-1.45,1.74-1.45l.3-.3h.58c.58-.28,1.16-.58,1.74-.86l1.16-.3c3.47-1.45,6.68-2.89,9.86-4.63,1.45-.58,3.19,0,4.07,1.16.58,1.45,0,3.19-1.46,4.05-3.19,1.74-6.68,3.2-10.45,4.93-1.16.3-2.32.88-3.49,1.16h-.28c-.3.3-.58.3-.88.3Zm158.77-7.84h-.58c-4.93-.58-9.86-1.74-14.81-3.49h-.28c0-.28-.3-.28-.3-.28-1.45-.58-2.31-2.32-1.73-3.78.57-1.45,2.31-2.31,3.77-1.73l.28.28c4.93,1.45,9.3,2.61,13.93,3.19.88,0,1.46.58,2.04,1.16.28.58.58,1.16.58,2.04-.3,1.45-1.46,2.61-2.91,2.61Zm23.21-1.46c-1.16,0-2.61-.86-2.61-2.31-.58-1.46.58-2.91,2.03-3.2v-.28h.3c4.63-1.16,9.28-2.61,13.63-4.65,1.46-.86,3.2,0,3.78,1.46.57,1.45,0,3.19-1.46,3.77-4.65,2.32-9.58,3.77-14.51,5.22h-1.16Zm-238.88-5.22c-.58,0-1.45-.3-2.03-.88-3.19-3.47-6.39-7.26-9.58-11.89h-.3v-.3c-.86-1.16-.57-2.91.58-4.05,1.16-.88,3.2-.58,4.07.86h0q.3,0,.3.28c2.89,4.07,6.09,7.84,9.28,11.04.28.58.58,1.16.58,2.03s-.3,1.45-.86,2.03c-.3.58-1.16.88-2.04.88Zm90.26-4.65c-.86,0-1.45-.28-2.03-.86s-.86-1.46-.58-2.32c0-.58.3-1.16.88-1.74l.28-.28c3.77-2.91,7.26-6.11,11.03-9.88.88-1.16,2.91-1.16,4.07,0s1.16,3.19,0,4.07c-3.77,3.77-7.54,7.26-11.32,10.16l-.28.28h0c-.58.58-1.16.58-2.04.58Zm89.7-3.19c-.58,0-1.16-.3-1.74-.58-3.77-2.61-7.84-5.81-11.9-9.58v-.28h-.28c-.58-.58-.88-1.16-.88-2.04s.3-1.45.88-2.03c.86-1.16,2.91-1.16,4.05,0h.3c3.49,3.49,7.26,6.38,11.32,9.28,1.16.88,1.45,2.62.58,4.07-.58.86-1.46,1.16-2.32,1.16Zm93.45-4.35c-.86,0-1.74-.3-2.32-1.16-1.15-1.16-.86-2.91.3-4.07h.28v-.28c3.78-2.62,7.26-6.11,11.04-9.58,1.16-1.16,2.89-1.16,4.05,0,1.16,1.16,1.16,2.91,0,4.05-3.77,3.78-7.54,6.97-11.31,10.16h0c-.3,0-.3.3-.3.3-.58.28-1.16.58-1.74.58Zm-295.18-19.74c-1.16,0-2.03-.58-2.61-1.45-2.61-4.65-4.65-9-6.68-13.65h-.3v-.28c-.28-.88-.28-1.46,0-2.32.3-.58.88-1.16,1.46-1.46,1.45-.58,3.19,0,3.77,1.46l.28.28c2.04,4.65,4.37,9,6.39,13.07.58.86.58,1.45.28,2.32-.28.86-.57,1.45-1.45,1.74-.28.28-.86.28-1.16.28Zm139.03-.58c-.58,0-1.16-.28-1.74-.58-.58-.58-1.16-1.16-1.16-2.03-.28-.58,0-1.46.58-2.04h0q0-.28.3-.28h0c2.61-3.77,5.51-7.84,8.42-12.19.58-1.16,2.61-1.46,3.77-.58.86.28,1.16.86,1.45,1.74,0,.58,0,1.45-.58,2.03-2.32,3.77-4.93,7.55-8.42,12.49h-.28v.28h0c-.58.88-1.45,1.16-2.32,1.16Zm35.12-2.61c-.86,0-1.74-.3-2.32-1.16-2.89-3.77-5.8-8.14-8.7-12.19v-.58c-.88-1.16-.58-2.91.86-3.78,1.16-.86,3.2-.57,4.07.88h0v.28c2.61,4.07,5.51,8.14,8.42,11.9.86,1.45.58,3.19-.58,4.07-.58.58-1.16.58-1.74.58Zm147.73-4.93c-.57,0-1.15-.3-1.73-.58-1.16-1.16-1.46-2.91-.58-4.07l.28-.3c2.91-3.77,5.81-7.84,8.72-11.89.86-1.46,2.61-1.74,4.05-.88,1.16.88,1.46,2.62.58,4.07-2.61,3.77-5.51,7.84-8.7,12.19h0l-.3.3h0c-.58.86-1.45,1.16-2.32,1.16Zm-162.53-25.55c-.58,0-.88,0-1.16-.28-.88-.3-1.46-.88-1.46-1.74-.28-.86-.28-1.45,0-2.03l.3-.3c2.32-4.65,4.35-9,6.09-13.35.86-1.45,2.61-2.32,4.07-1.45,1.45.58,2.03,2.32,1.45,3.77-2.03,4.35-4.07,8.7-6.39,13.63h-.28v.3c-.58.86-1.45,1.45-2.61,1.45Zm-175.61-1.74c-1.16,0-2.32-.57-2.91-1.73-2.03-5.23-4.05-9.58-5.51-13.93h-.28v-.3c-.3-.58-.3-1.45,0-2.03.58-.88,1.16-1.46,1.74-1.74,1.16-.58,3.19.28,3.77,1.74v.28c1.74,4.07,3.77,9,5.81,13.93.58,1.46-.3,2.91-1.74,3.77h-.88Zm170.68-1.15c-1.16,0-2.32-.58-2.62-1.46-2.32-4.65-4.07-9.28-6.09-13.93v-.28h0v-.3c-.58-1.45,0-2.91,1.74-3.77,1.45-.3,3.19.28,3.77,1.74v.58c2.04,4.93,3.77,9.28,5.81,13.35.58,1.45,0,3.19-1.46,4.07h-1.15Zm188.95-4.07c-.58,0-1.16,0-1.45-.3-.58-.58-1.16-1.16-1.46-1.74,0-.86,0-1.73.3-2.31l.28-.3h0c1.16-2.03,2.32-3.77,3.49-5.51,1.45-2.61,2.91-4.93,4.35-7.26.58-1.16,2.61-1.74,4.07-.86,1.16.86,1.74,2.61.86,4.05l-.86,1.16c-2.32,3.77-4.65,7.55-6.97,11.32v.28h-.28c-.3.88-1.46,1.46-2.32,1.46Zm247.58-10.45c-1.45,0-2.89-1.16-2.89-2.62-.3-1.74.86-3.19,2.61-3.19h.28c4.65-.58,9.58-1.45,13.93-2.91,1.46-.28,3.2.58,3.49,2.04.58,1.45-.28,3.19-1.74,3.77-4.93,1.45-10.15,2.32-15.09,2.91h-.58Zm-23.5-1.46c-.3,0-.58,0-.58-.28-4.95-.88-9.88-2.32-14.81-4.37h-.28c-1.46-.57-2.32-2.31-1.74-3.77.58-1.45,2.32-2.32,3.77-1.74,0,.3.28.3.28.3,4.65,1.74,9.3,3.19,13.95,4.07.57,0,1.45.58,1.73,1.15.58.58.58,1.46.58,2.32-.58,1.16-1.74,2.32-2.89,2.32Zm59.5-11.61c-.86,0-2.03-.58-2.32-1.45-.58-.58-.58-1.46-.58-2.04.3-.86.58-1.45,1.16-2.03h.58c3.49-2.61,7.26-5.51,11.03-9,1.16-1.16,3.2-.86,4.07,0,1.16,1.45,1.16,3.19,0,4.35-3.77,3.49-7.84,6.68-11.9,9.3l-.28.28h-.3c-.28.28-.86.58-1.45.58Zm-95.2-3.49c-.58,0-1.16,0-1.46-.28-4.07-2.62-8.42-5.51-12.49-8.72-.28,0-.28-.28-.57-.28-.58-.3-.88-1.16-.88-1.74-.28-.86,0-1.45.58-2.03.86-1.46,2.61-1.74,4.07-.58h.28c4.35,3.47,8.14,6.09,11.9,8.42,1.45.86,1.74,2.61.86,3.77-.28.86-1.45,1.45-2.31,1.45Zm-357.3-1.74c-.3,0-.58,0-.88-.28-1.45-.58-2.32-2.04-1.74-3.49v-.58c1.46-4.07,2.91-8.7,4.65-13.93.28-1.45,2.03-2.32,3.49-2.03,1.45.58,2.32,2.03,2.03,3.47-1.45,4.65-2.91,9.58-4.65,14.51h0v.3c-.58,1.16-1.73,2.03-2.89,2.03Zm-205.22-2.03h0c-1.45,0-2.32-.86-2.91-2.03-.57-1.74-1.45-3.49-2.03-5.23-1.16-2.91-2.32-5.81-3.49-8.42,0,0,0-.28-.28-.28,0-.88-.3-1.46,0-2.32.28-.58.86-1.16,1.74-1.46,1.45-.58,3.19,0,3.77,1.46v.28h0l.28.3c1.16,3.19,2.62,6.38,3.78,9.58.58,1.45,1.16,2.61,1.74,4.05.58,1.46-.3,3.2-1.74,3.77-.3.3-.58.3-.88.3Zm172.12-1.74c-1.45,0-2.61-.86-2.91-2.03-1.16-4.65-2.03-9.58-2.91-14.81h0l-.28-.28h0c-.3-1.74.86-3.2,2.61-3.49,1.46-.28,2.91.86,3.19,2.32v.58c.88,4.63,2.04,9.58,3.2,14.21.28,1.46-.58,3.2-2.04,3.49h-.86Zm222.62-.28c-.58,0-1.16-.3-1.74-.58-1.16-.88-1.45-2.62-.58-4.07h0v-.3c3.2-4.93,6.09-8.7,8.72-12.47.86-1.16,2.61-1.46,4.05-.58,1.16.86,1.46,2.91.58,4.07-2.89,4.05-5.8,8.12-8.42,12.19h0c0,.28-.28.28-.28.28-.58.88-1.45,1.46-2.32,1.46Zm137.01-17.72c-.58,0-1.46-.28-1.74-.86-4.07-3.49-7.84-6.39-11.61-9.28l-.3-.3h0c-.58-.28-.86-1.16-1.16-2.03,0-.58.3-1.46.58-2.04,1.16-1.16,2.91-1.45,4.07-.58.28,0,.28.3.28.3h.3c3.19,2.61,7.26,5.8,11.61,9.58.58.58.86,1.16.86,2.03,0,.58-.28,1.45-.58,2.03-.57.58-1.45,1.16-2.31,1.16Zm153.54-.28c-.58,0-1.16,0-1.74-.58-1.46-.88-1.74-2.61-.58-4.07h0v-.28c2.91-3.78,5.51-7.84,8.12-12.19.58-1.46,2.32-1.74,3.77-1.16,1.46.86,1.74,2.61,1.16,4.05-2.61,4.37-5.22,8.72-8.12,12.77q-.3,0-.3.3h0c-.58.86-1.45,1.16-2.31,1.16ZM2.82,102.88c-.58,0-1.15,0-1.73-.58-1.16-.88-1.46-2.62-.58-4.07,3.19-3.77,6.09-7.55,9.57-11.61.88-1.16,2.91-1.46,4.07-.3,1.16.88,1.16,2.91.3,4.07-3.2,3.77-6.39,7.54-9.3,11.61-.58.58-1.45.88-2.32.88Zm558.15-3.2c-.57,0-1.45-.28-1.73-.86-1.16-.88-1.46-2.91-.3-4.07h0l.3-.28c3.77-4.07,7.54-7.55,11.03-10.46,1.16-1.16,2.91-.86,4.07.3.58.58.58,1.45.58,2.03,0,.88-.3,1.46-.88,2.04-3.49,2.61-6.68,6.09-10.45,10.15h-.3q0,.3-.28.3c-.58.58-1.16.86-2.04.86Zm-202.3-2.32h-.58c-.86-.28-1.45-.58-1.74-1.45-.58-.58-.58-1.45-.58-2.03,0,0,0-.3.3-.3v-.28c.86-4.37,1.73-9,2.61-14.51.28-1.46,1.74-2.62,3.49-2.32,1.45.28,2.61,1.74,2.32,3.49-.88,4.35-1.74,9.28-2.91,14.51v.58c-.3,1.45-1.46,2.31-2.91,2.31Zm-231.04-.58c-1.16,0-2.32-.58-2.61-1.45-2.62-4.93-4.65-9.28-6.69-13.07q-.28,0-.28-.28h0c-.86-1.45-.28-3.19,1.16-4.07,1.45-.86,3.19-.28,3.77,1.16l.3.3s.28.28.28.58c2.32,4.35,4.65,8.42,6.68,12.77.3.58.3,1.45,0,2.32-.28.58-.58,1.15-1.45,1.45-.3.28-.88.28-1.16.28Zm181.99-4.05c-1.46,0-2.91-1.16-2.91-2.91h0c-.28-2.32-.28-4.35-.28-6.39,0-2.89.28-5.8.28-8.7h0v-.3c.28-1.73,1.74-2.61,3.19-2.89,1.46.28,2.62,1.45,2.62,3.19v.28c0,2.91-.3,5.53-.3,8.42,0,2.04,0,4.07.3,6.39,0,1.45-1.16,2.91-2.91,2.91h0Zm334.07-3.2c-.58,0-1.16,0-1.45-.28-4.65-2.61-8.72-4.93-12.77-6.97h-.58c-.58-.28-1.16-.86-1.46-1.73-.28-.58-.28-1.46.3-2.04.58-1.45,2.32-2.03,3.77-1.74q0,.3.3.3h0c4.05,2.03,8.7,4.35,13.35,7.26.58.28,1.16,1.16,1.45,1.74,0,.86,0,1.45-.58,2.32-.28.86-1.45,1.15-2.32,1.15Zm202.89-11.03h-1.16c-1.46-.58-2.32-2.32-1.74-3.77h0q0-.3.28-.3c1.74-4.93,3.2-9.57,4.37-13.93.28-1.45,2.03-2.61,3.47-2.03.88,0,1.46.58,1.74,1.16.58.58.58,1.45.3,2.32-1.16,4.65-2.62,9.58-4.35,14.51-.3,0-.3.28-.3.28-.28,1.16-1.45,1.74-2.61,1.74Zm-253.97-.86c-1.46,0-2.62-.88-2.91-2.04-.28-.86,0-1.45.28-2.31.3-.58.88-1.16,1.74-1.16h0c.3,0,.3-.3.3-.3,5.22-1.16,10.45-1.74,15.67-1.45.86,0,1.74.28,2.03,1.16.58.58.88,1.16.88,2.03-.3,1.45-1.74,2.61-3.2,2.61h0c-5.22-.28-9.28,0-13.63,1.46h-1.16Zm-564.55-3.49c-.58,0-1.45-.28-2.03-.86-1.16-1.16-1.16-3.2,0-4.07l.28-.3c3.78-3.77,7.26-6.96,11.32-10.15,1.16-1.16,3.19-.88,4.07.28.86,1.16.86,3.19-.3,4.07-3.47,2.91-7.26,6.09-11.03,9.86h0l-.28.3c-.58.58-1.16.86-2.04.86Zm79.24-10.16c-.86,0-1.74-.58-2.32-1.16-3.19-3.77-6.68-6.96-10.45-9.58h-.28c-1.16-1.15-1.46-2.89-.58-4.05.86-1.46,2.61-1.74,4.05-.88l.3.3c4.07,2.61,7.54,6.09,11.32,10.45,1.16,1.16,1.16,3.19-.3,4.07-.28.58-1.16.86-1.74.86Zm257.17-5.22c-.88,0-1.74-.3-2.32-.88s-.58-1.45-.58-2.03v-.58c.28-4.93.58-9.88.58-14.51,0-1.74,1.16-2.91,2.89-2.91s2.91,1.16,2.91,2.91c0,5.51-.28,10.45-.58,15.09v.28c-.28,1.46-1.45,2.62-2.89,2.62Zm-51.38-4.65h-.88c-.58-.3-1.45-.88-1.74-1.46-.28-.57-.58-1.45-.28-2.03,1.16-5.51,2.61-10.45,4.35-14.51v-.28h.28c-.28,0,0-.3,0-.3.3-1.45,2.32-2.03,3.78-1.74.58.3,1.16.88,1.45,1.74.3.58.3,1.46,0,2.04v.57c-1.74,4.37-3.19,9-4.35,13.65-.3,1.45-1.46,2.32-2.61,2.32Zm-253.69-2.91c-1.16,0-2.32-.58-2.91-1.74-.58-1.45.3-3.19,1.74-3.77,0,0,0-.3.3-.3,5.22-2.03,10.15-3.47,15.38-3.77h0c1.45,0,2.91,1.16,2.91,2.62,0,.86,0,1.45-.58,2.03-.58.58-1.46,1.16-2.03,1.16-4.37.28-8.72,1.45-13.36,3.49h-.58c-.28.28-.57.28-.86.28Zm795.01-10.45h0c-1.46,0-2.91-1.46-2.91-2.91v-1.16c0-5.23-.58-9.58-1.74-13.07-.58-1.45.3-3.19,1.74-3.77,1.45-.28,3.49.58,3.77,2.04,1.46,4.05,2.32,9.28,2.32,14.8,0,.3,0,.58-.28.88v.28c0,1.45-1.16,2.91-2.91,2.91Zm-491.4-20.61c-1.16,0-2.32-.88-2.61-2.32,0,0,0-.3-.3-.3-.86-5.51-2.61-10.15-4.63-13.05-.88-1.16-.58-2.91.86-4.07,1.16-.86,3.19-.28,4.07.88,2.32,3.47,4.07,8.4,5.51,15.08h0v.3c.28,1.45-.58,3.19-2.32,3.49h-.58Zm-34.54-1.46c-.58,0-1.16,0-1.74-.58-.58-.28-1.16-1.16-1.16-1.74,0-.86,0-1.45.58-2.31,3.19-4.95,6.39-8.72,9.58-11.9h.28v-.3c1.16-.86,3.2-.86,4.07,0,1.16,1.46,1.16,3.2,0,4.37h0s-.28,0-.28.28c-2.91,2.61-5.81,6.39-9,11.03-.58.88-1.46,1.16-2.32,1.16Z"/></g></svg>