<?xml version="1.0" encoding="UTF-8" standalone="no"?><svg xmlns="http://www.w3.org/2000/svg" xmlns:xlink="http://www.w3.org/1999/xlink" contentScriptType="text/ecmascript" fill="#000000" width="753" zoomAndPan="magnify" contentStyleType="text/css" viewBox="-13.1 -2.2 753.4 619.4" height="619" preserveAspectRatio="xMidYMid meet" version="1"><g data-name="Layer_1"><g><g id="change1_1"><path fill="#fff4d4" d="M654.66,28.58c-17.94-6.94-41.6-10.47-70.32-10.5-77.6,0-172.05,25.91-215.01,59-1.02.79-1.71,1.93-1.92,3.2-6.44,38.46-7.86,77.75-9.24,115.75-.94,25.84-1.91,52.56-4.46,78.84-.88,13.28-1.79,26.57-2.7,39.85-1.26,18.52-2.53,37.03-3.73,55.6l-.21,3.65c-2.04,35.84-4.16,72.9,5.3,107.97.23.84.66,1.6,1.26,2.22l.48.49c1.91,1.98,3.83,3.96,5.79,5.88.95.94,2.24,1.46,3.58,1.46h.05c1.36-.01,2.65-.57,3.6-1.53,19.61-20.03,46.27-44.67,78.68-57.53,33.27-13.52,71.5-20.38,113.64-20.38,24.74,0,51.43,2.37,79.3,7.04.28.05.57.07.85.07,2.1,0,4.03-1.3,4.78-3.32,2.27-6.06,2.8-13.19,3.28-19.49.11-1.39.21-2.73.34-4.23,1.23-26.54,4.37-53.46,7.4-79.49.65-5.61,1.31-11.22,1.94-16.79,11.46-94.83,19.4-180.16.46-264.15-.38-1.66-1.55-3.02-3.14-3.64ZM607.86,129.76c-.01.09-.33,2.18-2.03,2.18-.26,0-.56-.04-.99-.15-17.77-4.27-37.64-6.44-59.08-6.44-37,0-76.11,6.43-110.13,18.09-.08.03-2.5.99-2.5.99-6.43,2.55-13.09,5.19-19.04,9.51-.33.24-.62.51-.89.82-.41.48-1.06.75-1.79.75-.36,0-1-.07-1.56-.54-.84-1.16-.66-1.72-.56-2.03,1.72-5.34,15.98-11.9,42.39-19.5,2.13-.61,3.88-1.12,5.11-1.51,33.73-7.65,63.36-11.37,90.56-11.37,20.99,0,40.87,2.29,58.88,6.74.51.15,1.88.55,1.61,2.45ZM528.96,86.08c-.16,0-.34-.01-.51-.03-.16-.02-.31-.03-.47-.04-5.41-.2-10.44-.3-15.36-.3-28.24,0-51.89,3.49-72.31,10.68-.39.14-.76.32-1.1.54-1.15.75-2.39,1.2-3.32,1.2-.49,0-.81-.1-1.13-.39-.97-1.47-.7-2.01-.56-2.28,4.4-8.59,47.29-14.57,83.03-14.57,6.59,0,10.44.26,11.93.51.51.08,2.07.32,1.91,2.43-.04.53-.31,2.25-2.1,2.25ZM411,214.1l-.87.47c-2.29,1.24-5.42,2.94-7.33,2.94-.46,0-.85,0-1.47-1.07-.34-.62-.25-.82-.1-1.13,2.06-4.37,14.32-11.43,61.06-20.32,2.21-.42,3.97-.76,4.97-.97,7.41-1.31,16.03-2.79,24.55-3.8.08,0,.16-.01.23-.01,1.11,0,2.18.97,2.3,2.08.14,1.24-.83,2.45-2.16,2.6-15.34,2.01-28.97,4.36-44.26,7.65-10.27,2.34-23.7,5.75-36.57,11.38-.13.05-.25.11-.37.18ZM544.3,186.78c.45-.83,1.33-1.21,2.05-1.21.1,0,.2,0,.51.05,8.93,1.06,18.02,2.54,26.81,3.97,2.84.46,5.67.92,8.49,1.37l6.96,1.11c5.98.95,12.17,1.93,18.42,3.06,2.07.3,8.37,1.2,9.67,3.14.08.12.33.49.06,1.55-.26.93-1.34,1.74-2.3,1.74-.11,0-.21-.01-.3-.04-.17-.06-.34-.11-.51-.15-11.22-2.59-22.69-4.3-33.79-5.96-6.13-.92-12.46-1.87-18.63-2.94-2.12-.52-4.54-.76-7.1-1.01-3.3-.33-9.43-.95-10.47-2.5-.17-.26-.2-1.03.11-2.19Z"/></g><g id="change1_2"><path fill="#fff4d4" d="M346.33,313.93c1.79-21.99,3.65-44.74,4.64-66.93,1.63-20.26,2.35-40.87,3.05-60.8,1.25-35.56,2.54-72.32,9.03-107.82.38-2.07-.55-4.17-2.35-5.27-17.37-10.66-36.57-17.25-55.14-23.63-3.84-1.32-7.68-2.63-11.33-3.92C230.98,20.77,181.93,9.72,135.19,9.72c-6.97,0-13.94.26-20.93.81-2.58.31-5.24.49-8.06.68-8.74.6-17.78,1.22-25.88,5.68-.37.2-.71.45-1.02.74-4.63,4.31-6.03,10.34-7.15,15.18l-.37,1.56c-.03.11-.05.22-.07.33-9.19,53.56-6.4,107.74-3.7,160.12,1.16,22.61,2.37,46,2.58,68.91-.03,27.32-2.04,55.11-3.99,81.98-1.6,22.13-3.26,45.02-3.82,67.63-.03,1.36.48,2.68,1.43,3.67.95.98,2.25,1.55,3.61,1.56h.95c8.57,0,16.95-1.53,25.05-3,5.14-.94,9.99-1.83,15.07-2.38,18.06-2.48,36.72-3.68,57.04-3.68,2.42,0,4.86.02,7.32.04,70.49.88,123.24,19.17,161.26,55.93.97.94,2.25,1.44,3.55,1.44.75,0,1.51-.17,2.22-.51,1.93-.93,3.07-2.97,2.86-5.1-4.85-48.87-.76-98.95,3.19-147.37ZM188.5,104.26c6.62-2.36,14.04-3.61,21.47-3.61,22.22,0,41.38,10.37,49.93,26.93,16.25,33.87-.7,72.26-15.65,106.14l-.57,1.3c-1.54,2.57-3.71,7.39-6.66,13.95-5.41,12.04-21.89,48.68-29.61,48.68-.21,0-.7-.35-1.16-.92-.07-.11-.15-.21-.2-.31-.87-1.78-2.68-2.87-4.6-2.87-.36,0-.72.04-1.08.12-.18.04-.35.06-.53.06-1.65,0-3.95-1.6-5.97-3.01l-1.15-.79c-9.82-7.48-17.79-16.92-25-26.08-22.74-27.82-32.26-71.88-23.16-107.15,4.58-17.73,15.95-41.23,43.94-52.42Z"/></g><g id="change1_3"><path fill="#fff4d4" d="M199.96,170.69c1.74,1.34,3.88,2.07,6.02,2.07.16,0,.73-.03.88-.04.54-.05,1.04-.18,1.51-.38,4.3-1.28,8.22-4.64,10.64-9.16,2.64-4.94,3.11-10.36,1.28-14.87-.79-1.95-2.68-3.19-4.73-3.19-.27,0-.55.02-.82.07-.12.02-.24.03-.36.03-.41,0-.84-.1-1.23-.3-.72-.36-1.51-.55-2.31-.55-.35,0-.7.03-1.04.11-6.41,1.33-12.29,6.74-13.99,12.86-1.34,4.83,0,9.57,3.56,12.86.17.17.38.35.59.51Z"/></g><g id="change2_1"><path fill="#244668" d="M166.28,562.7c.07.17.15.34.24.5,6.66,12.15,14.21,25.91,26.86,34.85.88.62,1.91.94,2.95.94.94,0,1.88-.26,2.71-.78,1.75-1.09,2.66-3.12,2.33-5.15-.21-1.3-.56-3.34-1.01-6-3.64-21.42-13.29-78.32-16.87-122.82l-.33-4.36c-.08-1.08-.14-2.16-.21-3.3-.18-2.49-.31-4.89-.42-7.24-.6-12.75-.41-22.56.59-29.16.22-1.44-.19-2.91-1.13-4.03-.94-1.12-2.31-1.79-3.77-1.83-3.88-.11-7.84-.17-11.78-.17-14.67,0-29.87.81-45.17,2.41-1.62.17-3.05,1.1-3.88,2.5-.82,1.4-.92,3.11-.28,4.6.28.65.27,1.36-.01,1.95-.35.72-.52,1.51-.5,2.31.13,7.02-.2,14.12-.59,21.37-.01.1-.02.19-.02.29l-.48,9.21c-.09,1.98-.18,3.96-.24,5.94-.22,6.27-.23,11.46,0,16.58,3.22,36.51,6.82,72.16,15.33,106.94.5,2.06,2.23,3.59,4.33,3.85.21.03.42.04.63.04,1.87,0,3.61-1.03,4.51-2.71,4.33-8.15,7.95-16.71,11.44-24.99,1.24-2.94,2.48-5.89,3.76-8.81.61-.89,1.77-2.35,2.8-2.35,2.05,0,6,4.02,8.23,9.4Z"/></g><g id="change2_2"><path fill="#244668" d="M209.6,105.3c-1.09,0-2.18.02-3.18.08-24.3,1.06-46.54,18.98-54.14,43.6-18.3,49.83,4.04,112.21,50.9,142.06.83.53,1.78.8,2.74.8.38,0,.75-.04,1.13-.12,1.33-.3,2.48-1.12,3.2-2.28,16.84-26.95,29.2-54.88,42.57-88.54.03-.08.06-.16.09-.24,6.44-18.97,12.22-41.25,6.27-62.56-6.15-22.66-29.34-32.8-49.59-32.8ZM191.74,166.89c-1.76-4.76-1.56-10.03.53-14.03,3.5-6.55,11.53-13.33,18.9-13.33,1.88,0,3.57.44,5.18,1.35.77.44,1.64.67,2.52.67.3,0,.61-.03.91-.08.2-.03.39-.05.57-.05,2.14,0,4.46,4.12,5.61,9.78.95,6.14-1.4,13.38-6.13,18.9-3.99,4.65-9.09,7.32-13.99,7.32-1.82,0-3.62-.35-5.35-1.03-3.9-1.56-7.08-5.01-8.74-9.48Z"/></g><g id="change3_1"><path fill="#0a253a" d="M206.66,110.48c-23.1,1.01-42.87,18.4-49.53,40.14-18.24,49.49,5.3,108.41,48.81,136.13,17.45-27.93,30.08-57.35,42.15-87.72,6.42-18.92,11.7-39.79,6.17-59.58-5.28-19.49-25.75-29.03-44.66-29.03-.99,0-1.98.02-2.95.08ZM202.1,299.68c-.25-.35-.47-.7-.64-1.05-4.43.97-8.33-2.29-11.74-4.6-10-7.59-18.22-17.16-25.95-26.98-38.78-47.43-41.9-141.68,23.02-167.61,27.4-9.8,63.72-1.22,77.73,25.91,17.54,36.56-1.22,77.84-16.3,112.02-5.51,8.77-26.16,65.37-40.8,65.37-1.88,0-3.67-.95-5.32-3.07Z"/></g><g id="change3_2"><path fill="#0a253a" d="M202.97,166.56s.06.04.08.06c.97.76,2.15,1.13,3.34,1.01h-.23c6.91-1.44,12.07-10.81,9.39-17.41-1.59.25-3.26-.02-4.72-.76-7.39,1.53-14.34,11.1-7.86,17.1ZM198.58,181.12c-11.51-4.6-16.44-19.89-10.81-30.66,5.43-10.17,19.68-20.49,31.09-14.01,7.63-1.38,10.93,8,12.13,13.97,2.27,14.67-10.23,32.1-25.17,32.1-2.37,0-4.79-.43-7.24-1.4Z"/></g><g id="change3_3"><path fill="#0a253a" d="M430.82,101.03c-17-23.66,86.36-26.84,99.12-24.67,9.59,1.49,7.55,16.01-2.15,14.75-28.9-1.09-58.44.47-85.78,10.09-1.84,1.2-4.02,2.04-6.11,2.04-1.82,0-3.59-.62-5.07-2.21Z"/></g><g id="change3_4"><path fill="#0a253a" d="M406.04,158.38c-12.5-15.82,39.22-28.1,49.41-31.38,49.49-11.24,102.43-16.92,152.22-4.6,9.3,2.7,5.45,16.86-4.02,14.34-51.31-12.32-116.68-5.51-166.36,11.53-6.95,2.77-14.11,5.38-20.2,9.8-1.44,1.69-3.55,2.54-5.67,2.54-1.96,0-3.92-.74-5.38-2.23Z"/></g><g id="change3_5"><path fill="#0a253a" d="M396.86,218.89c-9.24-16.79,58.22-27.52,69.52-29.91,8.25-1.46,16.5-2.85,24.82-3.84,4.02-.48,7.78,2.56,8.23,6.58.45,4.06-2.54,7.76-6.58,8.23-15.49,2.02-29.01,4.39-43.78,7.57-12.15,2.78-24.2,6.07-35.65,11.08-3.12,1.67-7.1,4.02-10.62,4.02-2.29,0-4.37-.97-5.94-3.73Z"/></g><g id="change3_6"><path fill="#0a253a" d="M613.03,206.37c-17.25-3.98-34.91-5.84-52.32-8.89-7.76-1.98-25,.25-21.21-12.48,1.4-3.32,4.89-4.95,7.98-4.44,11.88,1.4,23.7,3.49,35.52,5.38,8.44,1.36,16.87,2.62,25.29,4.15,6.21.89,16.07,2.6,13.93,11.12-.89,3.18-4,5.47-7.22,5.47-.66,0-1.32-.1-1.96-.31Z"/></g><g id="change3_7"><path fill="#0a253a" d="M173.31,404.44c60.84.76,119.75,13.86,164.75,57.37-7.1-71.61,4.62-143.62,7.82-215.21,4.52-56.38,1.94-113.32,12.15-169.14-20.4-12.52-43.42-19.27-65.68-27.15C236.09,28.26,175.77,10.91,114.87,15.61c-10.62,1.26-22.53.5-32.08,5.76-3.9,3.63-4.83,9.22-6.04,14.19-13.04,76.04-1.77,152-1.05,228.18-.06,50.03-6.58,99.79-7.8,149.73,13.57.17,26.84-3.88,40.29-5.34,19.54-2.68,38.45-3.73,57.74-3.73,2.45,0,4.91.02,7.37.04ZM372.45,81.13c-10.75,64.24-7.36,129.43-13.64,194.1-2.12,31.79-4.37,63.58-6.42,95.39-2.08,36.6-4.64,74.54,4.93,110,2.04,2.12,4.08,4.23,6.17,6.29,23.17-23.68,49.43-46.4,80.41-58.69,61.7-25.07,130.93-24.49,195.71-13.64,2.48-6.68,2.68-15.49,3.3-22.16,1.49-32.35,5.73-64.49,9.37-96.65,10.48-86.75,19.95-176.4.54-262.41-18.11-7.01-42.02-10.13-68.47-10.15-74.35,0-168.87,24.8-211.89,57.93ZM171,560.75c6.7,12.21,13.7,24.92,25.33,33.13-1.86-11.37-13.88-78.76-17.93-129.26-.12-1.47-.23-2.95-.33-4.39-.08-1.11-.16-2.21-.21-3.3-.17-2.52-.31-4.97-.43-7.36-.58-12.19-.49-22.69.64-30.16-18.75-.56-37.59.25-56.26,2.21.85,1.98.83,4.25-.1,6.19.14,7.28-.21,14.54-.6,21.81,0,.08,0,.14-.02.21-.12,2.27-.23,4.54-.35,6.81-.02.31-.04.6-.06.91-.12,2.45-.23,4.89-.31,7.34-.19,5.32-.25,10.64-.02,15.95,3.14,35.57,6.72,71.46,15.2,106.18,5.8-10.93,10.27-22.53,15.22-33.85,2.31-3.59,4.81-5.01,7.3-5.01,5.36,0,10.54,6.73,12.95,12.56ZM199.49,611.87c-19.08-6.04-30.78-24.41-39.96-41.09-5.96,10.6-15.1,46.46-31.96,34.72-8.62-12.17-9.14-28.61-12.42-42.85-4.35-31.27-9.82-62.69-9.84-94.32.02-.35.04-.68.04-1.03-16.42,3.03-32.64,7.22-48.91,11.55-13.57,2.41-28.74,8.99-42.19,3.9-4.64-2.76-5.69-8.46-6.58-13.37C-1.93,397.78,3.1,325.14,1.47,253.12c2.78-36.64-14.59-179.66,25-189.28,10.48-2.91,21.41-4.35,32.22-5.51.12-1.24.23-2.48.35-3.73,1.88-13.47,2.19-28.26,9.88-39.92C81.53-1.14,105.28,2.33,123.39.37c48.46-2.56,96.28,8.42,141.81,24.18,34.35,13.6,70.99,21.76,102.41,41.49,62.34-42.7,167.39-61.04,242.21-56.94,16.15,1.36,32.61,3.67,47.63,9.96,7.92,2.64,10.62,10.77,12.05,18.26,1.81,9.47,3.3,18.94,4.52,28.43,2.97-1.9,6.17-.64,9.41.54.7-.33,1.46-.54,2.25-.62,9.8-.64,20.49-1.13,29.71,2.62,11.08,5.49,9.74,61.74,12.27,75.94,12.62,82.21,2.74,165.28-15.12,245.9-2.54,15.95-4.81,31.96-6.17,48.07-.95,11.04-1.63,22.24-4.15,33.09-.99,4-3.01,8.36-6.77,10.44-4.75,2.66-10.36,1.49-15.49.8-7.67-1.05-15.27-2.37-22.86-3.78-23.74-4.27-47.34-9.12-71.34-11.57-33.3-2.08-121.14,4.54-143.71,28.35-5.14,4.68-4.58,11.76-6.29,17.95-7.61,25.91-33.85,43.86-60.8,40.66-30.53-.39-66.45-13.94-71.91-47.65-22.18-9.68-45.28-21.81-67.67-29.64-13.74-4.25-27.68-7.65-41.77-10.05,2.08,24.86,6.19,49.59,9.18,74.43,2.29,16.13,4.77,32.24,7.84,48.23,2.43,8.97,4.17,23-6.79,23-1.26,0-2.72-.19-4.35-.6Z"/></g></g></g></svg>