<?xml version="1.0" encoding="UTF-8" standalone="no"?><svg xmlns="http://www.w3.org/2000/svg" xmlns:xlink="http://www.w3.org/1999/xlink" contentScriptType="text/ecmascript" fill="#000000" width="1159" zoomAndPan="magnify" contentStyleType="text/css" viewBox="-16.9 -35.4 1159.2 967.4" height="967" data-name="Layer 2" preserveAspectRatio="xMidYMid meet" version="1"><g data-name="Layer 1"><g><g id="change1_1"><path fill="#51233c" d="m587.63,148.66c108.76-7.21,218.34-41.9,285.51,72.83,22.96,39.21,31.3,81.89,34.75,126.9-10.54,4.07-19.58,5.5-31.02,4.8-80.04-4.9-162.96-5.94-243.19-7.06-80.25-1.13-160.57,1.27-240.81-.29-7.11-2.06-10.46-24.69-13.5-32.39-30.03-76.31-158.8-111-225.23-149.04-9.08-5.2-43.73-26.45-42.5-37.09,1.21-11.3,26.29-22.68,36.31-25.66,80.68-24.2,184.41,22.81,263.57,39.54,58.44,12.41,116.83,11.42,176.11,7.46h0Zm547.8,347.78c-2.46-31.51-8.54-99.23-33.42-120.38-16.78-14.28-41.12-18.9-62.17-22.82l-35.43-2.46c-.49-11.83.64-23.85.1-35.67-5.69-118.23-61.58-216.41-176.27-257.69-125.09-45.05-243.21,10.06-369.23-2.75C340.36,42.61,184.54-35.42,72.43,19.2,17.61,45.9-16.89,108.07,8.49,167.75c29.29,68.95,121.69,78.85,183.13,103.83,35.62,14.46,62.47,33.41,75.77,71.19l-44.16,6.29c-68.01,17.67-67.72,104.96-72.88,161.34-5.48,60.47-8.97,120.57-11.48,181.43-1.71,43.13-7.17,89.35,3.29,131.99,21.45,87.4,127.98,96.34,202.23,100.9,50.69,3.1,100.79,3.45,151.34,2.25,150.31-3.51,303.07,5.01,452.35.06,45.64-1.52,96.33,4.52,134.27-26.5,34.36-28.12,41.71-98.24,46.17-139.75,9.42-87.15,13.74-176.77,6.92-264.35h0Z"/></g><g id="change2_1"><path fill="#c9b8ff" d="m763.32,702.07c-2.19-2.16,3.47-24.44,2.32-31.02-2.78-15.66-32.04-9.61-44.86-10.24-48-2.36-96.59-5.69-144.49-9.32-7.99-.6-27.03,1.72-33.28,5.9-16.61,11.15-11.34,45.58-16.21,63.02l-53.86-6.93c-47.08-.77-93.75-6.07-140.25-11.27-41.99-4.7-113.69-7.37-135.41-50.58-9.15-18.2-8.15-37.63-14.71-54.16-2.4-6.05-8.57-8.38-9.33-13.63-2.01-13.71,1.58-28.33,2.39-41.27,1.78-28.34,2.76-56.69,6.97-84.86,5.05-33.71,12.75-75.85,51.99-83.48,35.9-7,94.47-3.33,132.76-2.86,169.81,2.13,340.12,4.02,509.54,9.37,18.65.57,31.55,1,48.75-4.28,14.71-4.51,109.05,2.86,127.64,6.97,23.38,5.16,34.83,12.68,42.42,35.65,4.02,12.14,12.71,52.31,12.06,63.56-.28,4.63-4.06,10.07-4.67,16.15-4.1,40.05,5.71,63.59-9.65,105.17-15.71,42.57-34.41,66.92-79.73,78.68-50.84,13.18-105.7,14.14-157.31,19.49l-93.07-.07h0Z"/></g><g id="change3_1"><path fill="#f471a4" d="m166.37,658.45c3.47-3.88,3.99,1.26,5.02,2.99,39.92,66.1,115.1,63.44,184.47,70.41,56.56,8.01,114,7.2,170.85,16.28.99,16.67,9.9,27.63,26.68,29.56,29.93,3.45,76.44.95,107.84.24,3.9-.1,7.42-2.33,11.32-2.44,21.22-.63,60.11,4.11,77.68-4.99,3.99-2.08,10.73-8.98,12.08-13.17,2.29-7.11-1.39-24.83,7.11-27.34,28.15-1.55,56.52.82,84.65-.29,15.83-.61,34.41-3.4,50.38-4.73,60.63-5.01,146.06-8.08,187.2-58.49l18.34-28.69c2.06,9.78-1.93,19.96-2.36,28.64-2.62,54.64-3.42,116.11-19.4,168.86-6.23,20.57-14.67,39.95-34.05,50.9-29.32,16.57-66.74,12.34-99.23,13.28-149.47,4.34-301.92-3.1-452.35-.03-62.57,1.27-125.94,2.25-188.31-4.35-47.01-4.98-120.17-13.88-140.55-63.8-16.1-39.42-9.58-99.61-7.34-141.76.26-5.17-1.12-29.91-.07-31.06h0Z"/></g><g id="change3_2"><path fill="#f471a4" d="m976.86,348.47h-41.33c-.53,0-1.99-8.98-2.18-10.46-8.08-70.59-22.19-134.16-79.33-182.41-61.05-51.55-122.15-48.81-197.33-41.19-61.54,6.24-121.52,15.27-183.9,9.12-104.26-10.28-207.79-69.87-314.33-52.73-31.89,5.12-93.02,33.42-69.88,74.18,24.9,43.84,138.56,80.5,184.97,106.62,36.43,20.49,79.49,47.34,85.66,92.27h-60.83c-9.14-15.05-14.63-34.06-25.41-48.07-46.5-60.34-135.89-60.68-197.74-96.15C-7.12,152.44,24.89,60.08,106.63,35.05c98.84-30.3,245.01,36.2,350.11,47.16,126.62,13.22,258.28-47.44,380.06,7.98,48.69,22.16,89.86,61.22,113.5,109.22,23.09,46.88,27.97,97.35,26.57,149.07h0Z"/></g><g id="change4_1"><path fill="#ffffff" d="m735.79,688.29c1.01,1.02-.32,23.89-.08,28.78.29,6.03,2.79,10.89,2.48,18.38-.11,2.57-1.34,11.44-2.61,12.34-1.92,1.37-39.85-.14-46.94.13-3.93.15-7.42,2.33-11.34,2.44-34.87.99-80.91,2.75-114.98.03-3.18-.25-6.58-.01-7.69-3.81-1.35-4.73-.65-21.29-.32-27.37.22-3.86,2.04-7.34,2.46-11.33.59-5.82-.78-26.6,5.9-28.52l173.11,8.93h0Z"/></g><g id="change4_2"><path fill="#ffffff" d="m660.77,522.09c-32.05,0-70.26-25.51-116.54-77.76-12.95,21.16-53.83,80.52-102.67,77.22-33.46-2.31-63.57-33.75-89.5-93.46-8.41,16.05-32.43,55.61-67.09,61.07-20.36,3.19-41.06-5.78-61.53-26.7-.58-.59-.57-1.54.02-2.12.59-.58,1.54-.57,2.12.02,19.76,20.18,39.57,28.89,58.93,25.83,35.52-5.59,59.75-49.08,66.33-62.28.26-.52.82-.82,1.39-.84.58.02,1.11.37,1.34.9,25.74,60.49,55.42,92.31,88.21,94.57,48.5,3.38,89.54-58.48,100.95-77.52.25-.41.67-.68,1.15-.72.46-.04.94.14,1.26.5,48.15,54.71,88.76,80.94,120.73,78.04,32.16-2.95,50.5-33.62,65.24-58.26l1.79-2.99c.23-.39.63-.65,1.07-.71.44-.06.9.08,1.23.38,41.96,38.89,73.55,61.92,101.29,56.76,21.61-4.05,41.29-25.65,61.93-68.01.22-.45.65-.76,1.15-.83.51-.07.99.12,1.32.49.07.08.31.39.69.92,10.97,15.13,49.65,63.59,86.52,51.87,18.87-6.01,46.88-32.97,47.82-61.53.03-.83.77-1.35,1.54-1.45.83.03,1.47.72,1.45,1.55-.98,29.85-30.21,58.01-49.9,64.28-37.85,12.02-76.65-35.05-88.98-51.78-20.7,41.81-40.75,63.26-62.98,67.42-28.66,5.36-60.54-17.49-102.52-56.25l-.84,1.41c-14.29,23.89-33.86,56.62-67.53,59.71-1.77.16-3.56.24-5.36.24Z"/></g></g></g></svg>