<?xml version="1.0" encoding="UTF-8" standalone="no"?><svg xmlns="http://www.w3.org/2000/svg" xmlns:xlink="http://www.w3.org/1999/xlink" contentScriptType="text/ecmascript" fill="#51233c" width="2458" zoomAndPan="magnify" contentStyleType="text/css" viewBox="0.0 -0.0 2458.4 425.3" height="425" preserveAspectRatio="xMidYMid meet" version="1"><g data-name="Layer 2"><g data-name="Layer 1"><g id="change1_1"><path fill="#51233c" d="M2458.42,33.78V391.5a33.78,33.78,0,0,1-33.8,33.77H33.81A33.79,33.79,0,0,1,0,391.5V33.78A33.79,33.79,0,0,1,33.81,0H2424.62A33.78,33.78,0,0,1,2458.42,33.78Z"/></g><g id="change2_1"><path fill="#51233c" d="M84.22,425.27H33.81A33.79,33.79,0,0,1,0,391.5V341.08A84.21,84.21,0,0,1,84.22,425.27Z"/></g><g id="change3_1"><path d="M2418.78,410h-33.34v-2.77h33.34Zm-66.67,0h-33.33v-2.77h33.33Zm-66.67,0h-33.33v-2.77h33.33Zm-66.66,0h-33.34v-2.77h33.34Zm-66.67,0h-33.33v-2.77h33.33Zm-66.66,0h-33.34v-2.77h33.34Zm-66.67,0h-33.33v-2.77h33.33Zm-66.67,0h-33.33v-2.77h33.33Zm-66.66,0h-33.34v-2.77h33.34Zm-66.67,0h-33.33v-2.77h33.33Zm-66.67,0h-33.33v-2.77h33.33Zm-66.66,0h-33.33v-2.77h33.33Zm-66.67,0h-33.33v-2.77h33.33Zm-66.66,0h-33.34v-2.77h33.34Zm-66.67,0h-33.33v-2.77h33.33Zm-66.67,0h-33.33v-2.77h33.33Zm-66.66,0h-33.34v-2.77h33.34Zm-66.67,0h-33.33v-2.77h33.33Zm-66.66,0h-33.34v-2.77h33.34Zm-66.67,0h-33.33v-2.77h33.33Zm-66.67,0h-33.33v-2.77h33.33Zm-66.66,0H985.45v-2.77h33.34Zm-66.67,0H918.79v-2.77h33.33Zm-66.66,0H852.12v-2.77h33.34Zm-66.67,0H785.46v-2.77h33.33Zm-66.67,0H718.79v-2.77h33.33Zm-66.66,0H652.12v-2.77h33.34Zm-66.67,0H585.46v-2.77h33.33Zm-66.67,0H518.79v-2.77h33.33Zm-66.66,0H452.13v-2.77h33.33Zm-66.67,0H385.46v-2.77h33.33Zm-66.66,0H318.79v-2.77h33.34Zm-66.67,0H252.13v-2.77h33.33Zm-66.67,0H185.46v-2.77h33.33Zm-66.66,0H118.8v-2.77h33.33Zm-66.67,0H52.13v-2.77H85.46Zm-64.9-9.56a23.66,23.66,0,0,1-4.73-14.25V367.27h2.78v18.94a20.84,20.84,0,0,0,4.18,12.59ZM2441,394.87l-2.59-1a21,21,0,0,0,1.44-7.65v-25h2.77v25A23.68,23.68,0,0,1,2441,394.87ZM18.61,333.93H15.83V300.6h2.78Zm2424-6h-2.77V294.56h2.77Zm-2424-60.62H15.83V233.94h2.78Zm2424-6h-2.77V227.89h2.77ZM18.61,200.6H15.83V167.27h2.78Zm2424-6h-2.77V161.22h2.77Zm-2424-60.62H15.83V100.6h2.78Zm2424-6h-2.77V94.56h2.77ZM18.61,67.27H15.83V39.07a24.43,24.43,0,0,1,.61-5.4l2.71.63a21.14,21.14,0,0,0-.54,4.77Zm2424-6h-2.77V39.07a21.13,21.13,0,0,0-2.55-10l2.43-1.33a23.84,23.84,0,0,1,2.89,11.38ZM2409.51,18h-33.33V15.25h33.33Zm-66.66,0h-33.34V15.25h33.34Zm-66.67,0h-33.33V15.25h33.33Zm-66.67,0h-33.33V15.25h33.33Zm-66.66,0h-33.34V15.25h33.34Zm-66.67,0h-33.33V15.25h33.33Zm-66.66,0h-33.34V15.25h33.34Zm-66.67,0h-33.33V15.25h33.33Zm-66.67,0h-33.33V15.25h33.33Zm-66.66,0h-33.34V15.25h33.34Zm-66.67,0h-33.33V15.25h33.33Zm-66.67,0h-33.33V15.25h33.33Zm-66.66,0h-33.33V15.25h33.33Zm-66.67,0h-33.33V15.25h33.33Zm-66.66,0h-33.34V15.25h33.34Zm-66.67,0h-33.33V15.25h33.33Zm-66.67,0h-33.33V15.25h33.33Zm-66.66,0h-33.33V15.25h33.33Zm-66.67,0h-33.33V15.25h33.33Zm-66.66,0h-33.34V15.25h33.34Zm-66.67,0h-33.33V15.25h33.33Zm-66.67,0H976.19V15.25h33.33Zm-66.66,0H909.52V15.25h33.34Zm-66.67,0H842.86V15.25h33.33Zm-66.66,0H776.19V15.25h33.34Zm-66.67,0H709.53V15.25h33.33Zm-66.67,0H642.86V15.25h33.33Zm-66.66,0H576.19V15.25h33.34Zm-66.67,0H509.53V15.25h33.33Zm-66.67,0H442.86V15.25h33.33Zm-66.66,0H376.2V15.25h33.33Zm-66.67,0H309.53V15.25h33.33ZM276.2,18H242.86V15.25H276.2Zm-66.67,0H176.2V15.25h33.33Zm-66.67,0H109.53V15.25h33.33ZM76.2,18H42.87V15.25H76.2Z"/></g><g id="change2_2"><circle fill="#51233c" r="6.97" cx="2381.59" cy="37.13"/></g><g id="change2_3"><circle fill="#51233c" r="6.97" cx="2418.74" cy="73.47"/></g><g id="change2_4"><circle fill="#51233c" r="18.11" cx="2411.78" cy="44.1"/></g></g></g></svg>