<?xml version="1.0" encoding="UTF-8" standalone="no"?><svg xmlns="http://www.w3.org/2000/svg" xmlns:xlink="http://www.w3.org/1999/xlink" contentScriptType="text/ecmascript" fill="#000000" width="655" zoomAndPan="magnify" contentStyleType="text/css" viewBox="-1.8 0.0 655.3 1327.0" height="1327" preserveAspectRatio="xMidYMid meet" version="1"><g data-name="Layer_1"><g><g id="change1_1"><path fill="#244668" d="M39.97,241.37c.91,0,1.83-.13,2.73-.39,2.79-.81,5.68-1.87,9.08-3.38,18-8.54,34.43-23.39,50.44-45.71,12.21-18.57,20.92-38.67,25.87-59.75,1.54-4.62,1.83-9.54,2.08-13.9.1-1.74.2-3.48.39-5.14.31-2.71-.52-5.43-2.29-7.51-1.77-2.08-4.33-3.32-7.06-3.43l-6.86-.27c-7.66-.35-15.32-.82-22.98-1.28-8.07-.49-16.15-.98-24.33-1.34-.72-.17-1.45-.24-2.17-.24-4.03,0-7.75,2.49-9.2,6.4-5.6,15.05-10.5,28.7-13.92,43.58-5.01,24.8-8.79,51.51-11.56,81.65-.3,3.23,1.02,6.4,3.52,8.47,1.78,1.47,4,2.25,6.25,2.25Z"/></g><g id="change1_2"><path fill="#244668" d="M319.44,305.89c.1-15.82.2-32.18-.23-47.96-.03-19.48-.63-39.21-1.21-58.29-.73-24.03-1.48-48.88-1.1-73.04.01-.42.14-.82.39-1.18,2.01-2.97,2.24-6.8.6-9.99-1.64-3.19-4.89-5.23-8.48-5.33-39-1.01-78.68-2.91-117.05-4.74-15.47-.74-30.93-1.47-46.4-2.16-.14,0-.29,0-.43,0-2.65,0-5.19,1.07-7.04,2.98-1.95,2.01-2.96,4.76-2.75,7.55,1.17,16.17-11.52,47.95-17.86,60.83-10.85,22.15-26.1,41.23-43.85,54.98-6.53,4.72-23.86,17.27-35.18,17.29-.3-.03-.59-.04-.89-.04-2.32,0-4.57.82-6.36,2.34-2.01,1.71-3.25,4.15-3.44,6.78-1.63,22.63-2.74,45.66-3.83,67.92-.87,18.03-1.78,36.68-2.96,55.16-2.64,49.64-5.46,108.17-6.34,165.82-2.23,88.18,1.99,177.46,6.08,263.8,2.6,54.86,5.28,111.6,6.27,167.38.35,19.68.75,39.35,1.15,59.02.72,35.26,1.46,71.73,1.86,107.64.28,16.24.29,32.97.3,49.15.02,32.01.05,65.11,2.1,97.03.21,3.2,1.96,6.1,4.7,7.76,12.32,7.49,34.85,10.98,70.89,10.98,29.16,0,60.71-2.39,81.58-3.97,4.63-.35,8.76-.67,12.25-.91,4.74-.33,8.56-3.99,9.09-8.72,3.99-36.08,6.45-72.8,8.82-108.32,3.54-52.95,7.2-107.7,16.07-161.06,12.48-88.45,23.86-168.13,36.78-247.41,5.9-35.24,12.26-71.04,18.4-105.66,12.41-69.86,25.24-142.1,34.98-213.58l.95-6.3c.76-4.96,1.52-9.91,2.21-14.87.29-2.1-.12-4.26-1.14-6.12-9.46-40.32-9.2-83.25-8.95-124.77Z"/></g><g id="change1_3"><path fill="#244668" d="M345.28,392.2c13.42-22.45,27.3-45.66,39.03-69.15.53-1.06.86-2.21.98-3.39,3.84-37.6,3.64-75.95,3.45-113.03-.11-20.99-.22-42.69.41-63.86.13-1.68.19-3.45.25-5.26.15-4.5.33-9.61,1.9-11.88,2.09-3.02,2.33-6.96.6-10.2-1.7-3.21-5.04-5.21-8.67-5.21h-.12c-14.29.17-28.61.27-43,.27-3.43,0-10.34-.02-10.36-.02-3.56,0-6.85,1.93-8.58,5.05-1.74,3.14-1.63,6.97.28,10.01.24.39.36.79.35,1.21-.51,17.84.04,35.84.58,53.24l.31,10.4c1.34,28.73,1.34,58.12,1.34,86.55,0,36.48,0,74.2,2.8,111.35.32,4.27,3.48,7.65,7.65,8.63.71.17,1.43.25,2.14.25,3.47,0,6.83-1.91,8.66-4.96Z"/></g><g id="change1_4"><path fill="#244668" d="M636.92,569.43c-.04-73.4-.08-149.29-2.62-223.89-.85-37.47-3.05-70.97-6.72-102.43-.56-4.82-4.56-8.51-9.41-8.68-.22,0-.43-.02-.81-.07-23.92-2.89-46.66-19.97-69.57-52.32-15.37-21.25-25.34-40.97-30.48-60.28-.12-.45.08-.95.21-1.2,1.6-3.12,1.41-6.86-.5-9.81-1.81-2.81-4.92-4.49-8.24-4.49-.17,0-.33,0-.5.01-34.48,1.74-69.53,2.95-104.18,3.6-3.59.07-6.8,2.17-8.47,5.35-1.66,3.18-1.41,7.1.58,10.08.39.72.34,1.8-.13,2.57-.87,1.41-1.36,3.03-1.44,4.68-1.21,26.55-1.17,53.45-1.12,79.48.05,29.71.11,60.43-1.73,90.45-.02.31-.02.63-.01.94.42,11.97-2.25,22.51-7.94,31.34-.15.23-.28.46-.41.7-7.87,14.76-16.47,30-25.5,45.16-7.43,12.04-15.18,25.15-21.49,39.45-1.31,2.96-1.07,6.38.64,9.14,1.71,2.75,4.67,4.49,7.9,4.64,1.67.07,3.24.99,3.66,1.8.32.62-.32,2-.96,3-1.09,1.69-1.63,3.68-1.56,5.68,7.32,195.52,29.38,393,50.72,583.98l6.5,58.34c1.67,15.01,3.3,30.02,4.92,45.04,3.94,36.43,8.01,74.09,12.78,111.35.63,4.03,1.17,8.09,1.72,12.16,1.84,13.73,3.74,27.92,8.91,41.59,1.28,3.38,4.3,5.78,7.88,6.26,9.94,1.34,20.62,1.99,32.65,1.99,13.58,0,27.28-.82,40.52-1.63,11.6-.7,23.59-1.42,35.67-1.58,4.54-.27,9.12-.5,13.73-.74,15.51-.8,31.54-1.63,46.93-3.72,4.06-.55,7.36-3.57,8.26-7.57,10.68-47.44,11.68-96.62,12.65-144.17.38-18.53.76-37.7,1.74-56.42,6.24-150.76,8.01-310.49,5.26-474.6-.03-15.07-.04-30.13-.05-45.2Z"/></g><g id="change1_5"><path fill="#244668" d="M525.41,130.56c1.4,4.73,2.85,9.61,5.41,13.8,16.35,31,35.85,61.98,67.65,79.08,4.15,2.01,8.7,4.03,13.84,5.19.71.16,1.44.24,2.16.24,2.45,0,4.84-.92,6.68-2.62,2.37-2.2,3.51-5.43,3.04-8.64-5.31-35.91-12.61-68.64-22.42-100.38-.68-1.98-1.27-3.97-1.86-5.96-.72-2.44-1.45-4.87-2.3-7.27-.94-2.66-2.98-4.79-5.61-5.84-1.17-.47-2.41-.7-3.65-.7-1.53,0-3.05.35-4.44,1.06-2.3,1.17-5.84,1.69-9.26,2.2l-1.13.17c-12.34,1.73-25.03,3.03-38.74,3.97-1.85.11-3.68.21-5.51.3-3.51.18-6.66,2.22-8.25,5.36-1.59,3.13-1.39,6.88.53,9.82,1.51,2.3,2.7,6.33,3.85,10.22Z"/></g><g id="change2_1"><path fill="#443a39" d="M179.32,18.75c-.14,0-17.67.78-17.67.78-26.81,1.22-54.53,2.47-81.75,2.9-3.33.05-6.42,1.8-8.18,4.63-.17.27-.29.39-.38.45-1.72,1.31-2.96,3.15-3.52,5.24-3.52,12.98-5.06,26.18-6.55,38.94-.46,3.9-.91,7.79-1.42,11.68-.36,2.72.44,5.47,2.2,7.57,1.76,2.11,4.32,3.38,7.06,3.51,5.24.26,10.48.59,15.71.93,4.98.32,9.96.64,14.95.89,23.84,1.17,47.68,2.18,71.52,3.19,0,0,7.41.31,7.55.31,2.95,0,5.76-1.33,7.62-3.63,1.96-2.41,2.66-5.6,1.89-8.61-.93-3.66-.54-9.51-.19-14.66.31-4.55.6-8.86.22-12.87.07-4.3.21-8.6.35-12.9.2-6.18.41-12.36.41-18.54,0-2.68-1.1-5.24-3.03-7.09-1.83-1.75-4.26-2.73-6.79-2.73Z"/></g><g id="change2_2"><path fill="#443a39" d="M458.72,20.32c-1.82-2.4-4.64-3.84-7.65-3.89-15.16-.29-30.33-.57-45.53-1.07-17.05-.45-34.51-.67-53.36-.67-47.63,0-93.49,1.36-148.5,3.14-2.61.08-5.08,1.21-6.87,3.12-1.78,1.91-2.73,4.46-2.63,7.07.1,2.64-.05,5.58-.19,8.41-.1,1.93-.19,3.78-.21,5.35l-.14,5.34c-.36,13.42-.74,27.29-.54,41.16-.83,2.89-.28,6,1.47,8.43,1.75,2.44,4.53,3.94,7.53,4.07l10.16.45c45.11,2.77,93.09,4.18,142.6,4.18,28.47,0,58.02-.47,87.83-1.38,5.26-.16,9.46-4.44,9.52-9.71.26-23.86,3.01-45.93,8.17-65.6.76-2.91.15-6.01-1.67-8.42Z"/></g><g id="change2_3"><path fill="#443a39" d="M595.02,74.84c-.18-2.3-.36-4.53-.71-6.76-2.47-14-6.52-27.11-12.02-38.98-1.41-3.05-4.29-5.16-7.62-5.6-34.06-4.49-68.08-5.81-99.78-6.56-.08,0-.16,0-.23,0-2.94,0-5.73,1.32-7.59,3.6-1.92,2.34-2.65,5.43-1.99,8.38.13.58.04,1.24-.24,1.77-.46.86-.79,1.78-.98,2.73-1.32,6.62-2.28,13.27-3.26,20.04-1.78,12.51-3.46,26-3.68,39.83-.05,2.7,1.02,5.3,2.95,7.18,1.84,1.8,4.3,2.8,6.86,2.8.13,0,22.93-.93,22.93-.93,28.71-1.18,58.4-2.39,87.51-7.03,1.52-.24,2.97-.84,4.22-1.75.48-.35,1.04-.54,1.58-.54.19,0,.38.02.56.07.87.24,1.75.36,2.63.36,2.44,0,4.82-.91,6.66-2.6,2.5-2.31,3.62-5.74,2.98-9.08-.4-2.04-.59-4.52-.78-6.91Z"/></g><g id="change3_1"><path fill="#0a253a" d="M625.01,145.8c-3.24-13.25-7.15-26.29-11.18-39.32-1.93-5.21-2.87-11.5-6.46-15.85,1.85-2.06,3.04-4.66,2.99-7.55-1.28-23.3-6.37-48.22-19.73-67.7-3.63-4.35-9.28-5.73-14.6-6.58-23.03-3.66-46.51-4.51-69.77-5.39-52.34-1.98-104.72-3.11-157.13-3.41-79.4.13-158.78,3.47-238.09,7.04-13.12.44-29.78.52-43.98.86-5.87-.08-11.68,2.44-14.1,8.11-2.02,4.1-1.25,8.42,1.01,11.75-5.87,22.26-7.66,45.29-10.64,68.03-6.92,19.77-14.5,39.43-18.12,60.16-13.85,76.68-14.17,155.06-19.1,232.66-6.9,117.87-7.92,235.75-3.22,353.75,7.33,121.82,10.76,243.86,12.39,366.05,1.11,57.56-.1,114.57,2.19,172.19-2.22,46.41,59.22,39.14,90.72,41.35,1.63,0,3.24.02,4.87.02,28.9,0,57.82-1.76,86.61-4.28,21.56-.15,25.26-9.3,27.29-28.33,4.1-33.45,5.04-67.22,7.38-100.82,5.12-95.85,20.5-191.1,34.31-286.15,18.28-131.8,44.78-262.24,65.21-393.67,3.42,70.91,11.15,141.83,16.33,212.54,8.65,106.17,21.38,211.98,32.95,317.85,5.89,51.51,11.33,103.07,17.15,154.58,2.9,25.93,5.81,51.9,10.03,77.65,5.35,28.21,5.85,47.45,40.18,48.08,51.86-.09,104.05-1.92,155.68-7.15,1.82,1.21,3.8,1.76,5.84,1.76,8.11,0,17.01-8.52,18.91-17.11,13.48-55.98,11.83-114.4,14.54-171.65,1.07-52.7,3.66-105.41,5.54-158.11,1.15-78.61,1.53-157.25,2.13-235.88-2.59-133.5.35-267.1-4.66-400.57-1.59-62.27-8.29-124.45-23.46-184.94ZM614.46,219.01c-4.08-.92-7.96-2.58-11.71-4.4-29.52-15.88-48.2-46.26-63.4-75.12-4.07-6.47-5.14-17.75-9.58-24.55,1.87-.11,3.72-.18,5.6-.28,13.21-.9,26.41-2.21,39.51-4.05,4.42-.68,9.37-1.31,13.45-3.37,1.54,4.37,2.63,8.84,4.16,13.23,9.98,32.28,17.04,65.24,21.98,98.55ZM573.38,33.24c5.37,11.56,9.03,23.97,11.26,36.54.64,4.17.63,9.35,1.52,13.93-3.66-1.01-7.55-.3-10.54,1.88-31.18,4.97-62.89,5.93-94.38,7.25-4.79.2-9.61.36-14.42.54.21-12.9,1.68-25.76,3.5-38.54.94-6.5,1.88-13.04,3.16-19.5,1.4-2.6,1.76-5.66,1.12-8.56,33.04.79,66.04,2.16,98.77,6.47ZM405.28,25.18c15.19.5,30.42.78,45.65,1.08-5.74,21.92-8.28,45.16-8.54,67.96-76.06,2.31-153.68,1.89-229.54-2.78-3.45-.16-6.9-.3-10.35-.45.26-.95.44-1.94.42-2.97-.23-15.32.27-30.65.67-45.97.06-4.22.59-9.47.39-14.42,66.93-2.15,134.31-4.24,201.29-2.45ZM375.51,318.66c-11.62,23.28-25.49,46.45-38.89,68.87-4.97-65.71-1.06-131.82-4.12-197.62-.59-20.96-1.48-41.94-.88-62.91.07-2.45-.63-4.77-1.85-6.74,3.45,0,6.9.02,10.35.02,14.47,0,28.86-.12,43.24-.3-4.22,6.01-3.44,15.05-4.02,22.25-1.76,58.69,2.15,118.05-3.82,176.43ZM179.29,28.58c0,10.63-.58,21.24-.73,31.87.93,7.94-1.97,20.65.29,29.52-26.21-1.12-52.41-2.23-78.6-3.51-10.22-.52-20.44-1.3-30.68-1.81,2.15-16.5,3.35-33.2,7.72-49.32,1.14-.88,2.01-1.97,2.72-3.15,33.12-.51,66.2-2.13,99.29-3.6ZM51.37,150.95c3.32-14.43,8.39-28.29,13.52-42.14.59.12,1.19.23,1.81.26,15.75.71,31.45,1.9,47.2,2.63,2.31.09,4.62.19,6.93.28-.68,5.8-.36,12.38-2.19,17.46-4.72,20.31-13.18,39.66-24.63,57.08-12.26,17.07-27.21,33.08-46.45,42.21-2.46,1.1-4.99,2.04-7.57,2.8,2.47-26.86,5.95-53.69,11.38-80.57ZM263.29,775.57c-13.43,82.37-25.16,165.01-36.82,247.66-14.84,89.28-15,179.92-24.93,269.67-34.56,2.38-131.76,11.83-158.95-4.7-3.07-47.76-1.55-97.43-2.38-145.72-.61-55.56-2.03-111.1-3.01-166.66-2.55-143.65-16-286.93-12.35-430.76.84-55.23,3.39-110.39,6.33-165.55,2.63-41.21,3.85-82.12,6.77-122.93.22,0,.43.06.66.06,14.08,0,31.17-11.91,41.18-19.16,19.87-15.38,35.9-36.11,46.91-58.59,4.85-9.86,20.3-45.53,18.81-65.87,54.56,2.41,109.09,5.44,163.68,6.87-1.25,1.85-2.04,4.04-2.11,6.4-.69,43.88,2.22,87.76,2.3,131.66,1.59,58.65-4.03,118.97,9.78,176.39.17.34.43.57.62.88-.99,7.1-2.07,14.19-3.13,21.28-14.56,106.88-35.56,212.73-53.36,319.08ZM621.89,1088.82c-3.43,66.18.42,133.94-14.19,198.85-19.46,2.65-40.09,3.24-59.87,4.4-35.56.42-71.61,6.04-106.96,1.29-6.25-16.53-7.4-34.5-10.11-51.8-6.64-51.88-11.85-103.97-17.64-155.96-23.69-213.42-49.14-426.88-57.17-641.61,7.1-11.02-1.56-19.42-10.44-19.88,5.88-13.3,13.11-25.9,20.79-38.32,8.96-15.04,17.59-30.26,25.81-45.7,7.21-11.2,9.95-23.8,9.49-37,3.47-56.65.27-113.44,2.86-170.08,2.24-3.66,2.51-8.48.38-12.39-.2-.36-.46-.66-.68-1,34.82-.65,69.62-1.86,104.74-3.62-1.31,2.51-1.83,5.43-1.07,8.3,6.14,23.09,18.07,44.25,32.01,63.52,18.32,25.85,43.31,52.32,76.35,56.31.54.07,1.08.11,1.62.12,3.93,33.68,5.91,67.63,6.68,101.51,3.05,89.62,2.49,179.26,2.67,268.91,2.65,158.07,1.28,316.22-5.26,474.16Z"/></g></g></g></svg>