<?xml version="1.0" encoding="UTF-8" standalone="no"?><svg xmlns="http://www.w3.org/2000/svg" xmlns:xlink="http://www.w3.org/1999/xlink" contentScriptType="text/ecmascript" fill="#000000" width="955" zoomAndPan="magnify" contentStyleType="text/css" viewBox="-26.8 -20.2 955.1 1146.3" height="1146" data-name="Layer 2" preserveAspectRatio="xMidYMid meet" version="1"><g data-name="Layer 1"><g><g id="change1_1"><path fill="#51233c" d="m568.07,381.61l35.5-41.38c36.56-39.39,108.51-104.49,163.2-109.98,118.65-11.94,159.53,117.64,73.34,190.41-57.59,48.71-152.3,47.02-203.22,104.46-2.8,3.21-16.5,20.97-13.7,24.12.64.85,16.18-10.36,18.98-11.93,74.97-40.97,188.77-55,247.33,19.96,38.83,49.82,30.2,115.51-33.87,136.05-60.41,19.33-114.88-6.79-173.99-1.8-20.49,1.72-55.86,16.08-65.91,35.16-1.62,3.06-9.92,32.53-8.62,33.73.43.45,9.16,3.01,12.19,4.99,38.5,24.83,29.01,75.57-1.95,102.98-4.52,4.05-30.84,19.89-30.84,21.77,0,.84,6.68,11.77,7.87,14.95,56.09,143.96-37.53,221.03-178.51,192.29-114.56-23.36-138.06-97.44-89.42-198.47,2.48-5.1,15-23.52,14.24-26.92-.54-2.08-19.1-12.93-22.97-16.21-23.31-19.65-39.49-55.08-24.7-84.54,6.15-12.34,24.59-23.44,37.86-26.38,9.61-2.12,11.33,3.46,9.71-10.68-1.94-16.93-14.34-42.04-28.9-51.45-25.36-16.45-66.23-2.32-93.96,1.78-52.64,7.76-105.49,9.08-150.04-24.09-65.47-48.61-52.31-135.97,35.39-143.42,65.68-5.59,124.91,18.06,181.43,48.26l1.19-19.56c-11.76-54.54-34.94-127.64-92.98-148.12-47.79-16.86-97.61-10.15-141.09-44.83-60.62-48.33-78.42-143.32,5.08-178.25,56.95-23.8,132.23-15.83,181.86,21.1,54.15,40.28,73.13,103.33,104.84,159.19,6.58,11.47,14.56,25.65,24.93,33.69-2.16-30.41,0-56.65,9.71-85.59,10.89-32.77,27.92-62.03,33.76-97.12,10.78-65.43-19.42-153.21,52.21-193.44,57.93-32.54,135.58,3.66,167.94,56.26,57.93,94.24-11.86,191.53-50.58,276.97-5.08,11.22-10.8,23.98-13.28,36.02h0Z"/></g><g id="change2_1"><path fill="#ffa476" d="m444.02,792.6c-1.07,1.2-26.21-6.61-27.17-12.97-.77-34.95-6.81-69.03-20.6-101.13-15.97-37.19-39.06-67.44-71.74-91.21-2.48-1.8-10.68-5.72-11.01-6.24-1.73-2.34.32-32.58-.43-39.72-4.85-41.66-35.92-115.61-67.62-143.64-59.11-52.32-146.92-21.98-197.29-87.4-17.48-22.68-29.45-62-11.55-87,24.59-34.47,87.37-39.35,125.56-31.68,116.05,23.25,123.29,146.64,188.86,222.22,22.87,26.4,52.86,45.01,70.44,76.41,22.77,40.53,22.22,77.67,24.81,122.2.43,8.45,4.2,20.8,3.99,29.35-.22,9.86-4.97,24.44-6.15,35.01-3.44,33.77-4.1,71.93-.21,105.62.21,2.18.53,9.74.1,10.18h0Z"/></g><g id="change3_1"><path fill="#f471a4" d="m473.9,558.41c-6.68-4.3-5.5-17.76-7.43-25.83-8.84-36.07-22.87-64.71-47.58-92.48-2.69-3-6.89-3.19-8.84-7.2-3.88-7.55-11.97-36.88-13.7-46.07-11.86-63.83,33.66-117.04,42.93-178.71,6.7-44.15-7.34-111.98,14.35-148.75,34.4-58.44,120.38-27.59,152.19,19.28,54.04,79.55-11.33,173.1-45.08,246.28-11.23,24.34-38.83,84.4-40.88,108.56-.54,6.37,3.77,11.41,1.83,17.74-2.48,8.64-16.5,28.53-21.24,38.48-10.36,21.76-20.6,45.45-26.54,68.7h0Z"/></g><g id="change3_2"><path fill="#f471a4" d="m501.31,787.83c-1.19,1.53-28.26,6.3-29.67,4.78-.43-.46.21-9.48-.21-12.5-21.9-174.96,81.87-380.33,220.68-484.46,36.68-27.44,96.98-57.95,138.83-24.26,54.04,43.5,22.65,111.88-27.94,141.95-66.66,39.53-137.2,33.45-193.62,102.58-39.8,48.79-8.52,94.61-34.84,139.65-22.97,39.29-67.62,55.97-72.91,108.48-.54,4.92.75,22.16-.32,23.77h0Z"/></g><g id="change4_1"><path fill="#c9b8ff" d="m367.33,884.52c1.94-.43,30.85,11.37,37.1,13.08,15.11,4.09,34.41,8.23,49.84,9.88,20.17,2.15,48.75,2.12,68.82-.22,7.43-.86,34.08-8.52,38.18-5.71,4.32,3,15.43,35.44,17.16,42.49,29.12,114.76-64.51,147.05-160.18,125.75-68.49-15.27-104.95-51.09-81.54-123.93,2.8-8.68,24.7-59.97,30.63-61.33h0Z"/></g><g id="change2_2"><path fill="#ffa476" d="m529.03,776.53c-.75-.78.11-9.53.54-12.08,6.04-40.91,56.09-65.56,73.34-103.43,5.08-11.05,10.25-29.7,11.12-41.69.53-6.63-1.73-24.9.96-28.87,1.19-1.76,4.97-2.69,7.02-4.48,57.17-51.12,176.57-81.92,237.74-21.94,33.44,32.82,38.5,87.79-13.81,103.46-64.83,19.4-133.32-19.78-198.15,3.93-20.6,7.52-48.97,24.69-57.93,45.38-6.57,14.87-3.65,32.96-18.33,43.73-6.58,1.73-39.27,19.38-42.5,16h0Z"/></g><g id="change3_3"><path fill="#f471a4" d="m386.64,753.58c-2.69-1.09-15.2-4.32-15.75-4.91-1.3-1.32-5.72-30.6-7.77-37-33.87-108.02-136.65-43.81-214.22-49.85-34.51-2.69-79.7-22.68-91.78-57.45-20.6-59.35,51.55-63.17,91.78-59.57,45.21,4.06,147.56,49.73,180.36,81.32,32.04,30.74,55.24,83.34,57.38,127.48h0Z"/></g><g id="change4_2"><path fill="#c9b8ff" d="m320.73,779.48c2.92-2.92,12.41-6.85,16.61-7.41,9.93-1.28,29.56,2.2,37.76,8.01,6.79,4.87,12.83,13.87,19.53,19.42,41.96,34.8,101.71,21.24,148.09,3.45,20.6-7.88,60.51-33.78,72.38-1.19,10.78,29.47-23.08,55.28-47.03,65.47-62.56,26.56-198.25,13.91-242.15-42.63-8.95-11.65-17.27-33.3-5.19-45.12h0Z"/></g><g id="change5_1"><path fill="#ffffff" d="m493.79,740.17c-.06,0-.13,0-.19-.01-.82-.11-1.4-.85-1.3-1.67,17.32-135.88,68.45-242.95,151.96-318.24,67.52-60.87,137.29-83.63,167.09-93.34.79-.25,1.63.18,1.89.96.26.79-.17,1.63-.96,1.89-183.37,59.8-290.02,197.45-317,409.12-.1.75-.74,1.31-1.48,1.31Z"/></g><g id="change5_2"><path fill="#ffffff" d="m663.84,632.13c-.44,0-.88-.19-1.17-.56-.51-.65-.41-1.59.24-2.1,43.44-34.64,133.95-24.63,160.66-20.73.82.12,1.38.88,1.26,1.7s-.88,1.37-1.7,1.27c-26.4-3.85-115.87-13.77-158.37,20.11-.27.22-.61.33-.93.33Z"/></g><g id="change5_3"><path fill="#ffffff" d="m478.52,428.24c-.82,0-1.49-.66-1.5-1.48-.74-98.91,60.77-259.4,79.64-306.23.31-.77,1.18-1.13,1.95-.83.77.31,1.14,1.18.83,1.95-18.82,46.7-80.16,206.72-79.43,305.09,0,.83-.66,1.5-1.48,1.51h-.01Z"/></g><g id="change5_4"><path fill="#ffffff" d="m784.4,401.63c-.07,0-.14,0-.22-.01-15.28-2.24-25.39-4.17-33.5-5.72-16.13-3.08-25.86-4.94-56.65-5.71-.83-.02-1.48-.71-1.46-1.53.02-.82.67-1.43,1.53-1.46,31.03.78,40.86,2.65,57.13,5.76,8.09,1.54,18.16,3.47,33.38,5.7.82.12,1.38.88,1.26,1.7-.11.75-.75,1.28-1.48,1.28Z"/></g><g id="change5_5"><path fill="#ffffff" d="m587.48,483.35c-.14,0-.29-.02-.43-.06-.79-.24-1.24-1.07-1.01-1.86l21.91-73.61c.23-.79,1.07-1.24,1.86-1.01.79.24,1.24,1.07,1.01,1.86l-21.91,73.61c-.19.65-.79,1.07-1.43,1.07Z"/></g><g id="change5_6"><path fill="#ffffff" d="m518.5,230.62c-.46,0-.92-.21-1.21-.62-.49-.67-.34-1.6.33-2.09l62.59-45.4c.67-.49,1.61-.34,2.09.33.49.67.34,1.6-.33,2.09l-62.59,45.4c-.26.19-.57.29-.88.29Z"/></g><g id="change5_7"><path fill="#ffffff" d="m485.31,355.98c-.47,0-.93-.22-1.22-.63-13.14-18.33-26.28-36.66-39.41-54.98-.48-.67-.33-1.61.35-2.09.67-.49,1.61-.33,2.09.34,13.12,18.33,26.26,36.66,39.4,54.98.48.67.33,1.6-.34,2.09-.26.19-.57.28-.87.28Z"/></g><g id="change5_8"><path fill="#ffffff" d="m401.53,651.04c-.69,0-1.31-.48-1.46-1.18-35.93-168.1-85.65-268.41-271.05-383.89-.7-.44-.92-1.36-.48-2.06.44-.7,1.36-.91,2.06-.48,186.31,116.05,236.28,216.87,272.39,385.81.17.81-.34,1.6-1.15,1.78-.11.02-.21.03-.31.03Z"/></g><g id="change5_9"><path fill="#ffffff" d="m258.35,625.74c-.24,0-.48-.06-.71-.18-28.16-15.21-88.43-17.36-117.4-18.39-5.84-.21-10.45-.37-13.5-.59-.83-.06-1.45-.77-1.39-1.6.06-.83.78-1.47,1.6-1.39,3,.21,7.59.38,13.4.58,29.19,1.04,89.94,3.2,118.72,18.75.73.39,1,1.3.61,2.03-.27.5-.79.79-1.32.79Z"/></g></g></g></svg>