<?xml version="1.0" encoding="UTF-8" standalone="no"?><svg xmlns="http://www.w3.org/2000/svg" xmlns:xlink="http://www.w3.org/1999/xlink" contentScriptType="text/ecmascript" fill="#000000" width="1114" zoomAndPan="magnify" contentStyleType="text/css" viewBox="-39.5 -51.7 1113.5 707.9" height="708" data-name="Layer 2" preserveAspectRatio="xMidYMid meet" version="1"><g data-name="Layer 1"><g><g id="change1_1"><path fill="#51233c" d="m774.1,250.56c.34.32,6.47.39,9.18,1.14,65.68,18.62,191.14,59.06,234.06,112.61,56.63,70.69-10.03,144.59-70.43,182.14-92.77,57.66-202.03,80.05-309.36,92.37-136.99,15.72-283.89,17.32-419.7-9.92-85.76-17.18-257.38-66.81-209.59-187.66,37.65-95.23,152.53-141.94,244.32-167.83,2.92-26.45,3.33-51.89,10.46-77.89C306.72,37.67,496.88-51.74,642.4,32.12c71.74,41.38,107.77,109.72,126.32,188.19,1.19,4.99,4.31,29.17,5.38,30.26h0Z"/></g><g id="change2_1"><path fill="#f471a4" d="m252.79,303.47c.43.6,2.16,12.62,2.37,14.87,1.94,24.91-.53,52.82,2.37,77.99.54,4.77,3.35,15.34,6.58,18.62,3.35,3.4,7.54,3.03,10.57,5.5,2.69,2.09,4.64,7.29,7.87,10.52,32.47,31.79,95.46,39.28,138.83,42.56,83.82,6.36,228.9,6.63,302.78-37.27,58.36-34.63,62.35-93.68,54.36-155.72,37.22,10.45,74.43,21.08,110.25,35.57,67.73,27.44,167.73,76.14,98.69,160.74-70.65,86.68-250.57,124.98-357.14,136.46-141.84,15.3-312.7,15.47-451.09-21.63-82.41-22.09-202.57-69.55-127.17-173.21,37.54-51.6,103.87-85.49,163.41-105.23,4.87-1.62,36.14-11.4,37.33-9.75h0Z"/></g><g id="change2_2"><path fill="#f471a4" d="m282.98,321.45c-1.28-1.02-2.58-7.59-2.69-9.86-1.83-21.36,0-52.07,2.48-73.41,22.54-190.65,268.8-287.41,400.62-136.82,42.92,49.1,65.15,127.36,70.01,191.71.32,5.09,1.07,15.18-2.39,18.49-4.95,4.77-39.36,15.72-48.21,18.36-96.87,29.05-270.74,39.45-367.39,11.48l-52.43-19.95h0Z"/></g><g id="change3_1"><path fill="#c9b8ff" d="m753.29,342.51c-3.46,69.95-77.12,89.72-134.51,98.56-65.91,10.17-133.43,10.45-199.45,4.69-34.84-3.05-74.75-7.06-105.27-25.59-17.16-10.36-14.56-16.31-24.61-30.18-1.28-1.91-4.31-1.14-4.63-2.93-1.19-6.95-1.41-18.86-2.27-27.26-.42-3.59-1.6-9.14,3.35-7.94,5.72,1.4,11.87,5.82,17.37,7.87,101.29,38.08,279.26,28.76,384,2.89,22.44-5.55,43.69-14.45,66.02-20.1h0Z"/></g><g id="change4_1"><path fill="#ffffff" d="m388.48,241.24c-.37,0-.74-.13-1.02-.4-16.83-15.77-27.96-26.37-35.54-33.58-14.95-14.23-15.84-15.08-19.27-16.49-.76-.32-1.13-1.19-.82-1.95s1.19-1.13,1.95-.82c3.95,1.63,4.87,2.5,20.2,17.09,7.42,7.07,18.26,17.38,34.51,32.63,23.94-21.65,44.16-39.01,60.11-51.61.47-.37,1.21-.5,1.73-.21,11.21,6.08,19.45,10.69,26.07,14.4,18.51,10.37,26.27,14.71,57.87,28.39l55.5-49.28c.48-.43,1.19-.5,1.75-.17,32.02,18.82,35.83,20.81,60.65,33.82l11.6,6.09c17.4-29.54,26.22-43.86,30.56-50.68.45-.69,1.37-.9,2.07-.46.7.44.9,1.37.46,2.07-4.35,6.82-13.19,21.18-30.68,50.87l-.56.95c-.4.68-1.28.94-1.98.56l-12.86-6.75c-24.63-12.91-28.62-15-59.84-33.34l-55.4,49.18c-.43.39-1.06.49-1.59.25-32.47-14.04-40.24-18.39-59.02-28.9-6.44-3.61-14.42-8.07-25.17-13.91-16.1,12.76-36.35,30.18-60.3,51.87-.29.26-.64.39-1,.39Z"/></g></g></g></svg>