<?xml version="1.0" encoding="UTF-8" standalone="no"?><svg xmlns="http://www.w3.org/2000/svg" xmlns:xlink="http://www.w3.org/1999/xlink" contentScriptType="text/ecmascript" fill="#000000" width="480" zoomAndPan="magnify" contentStyleType="text/css" viewBox="16.0 16.0 480.0 480.0" height="480" preserveAspectRatio="xMidYMid meet" version="1"><g><g><g><g id="change1_1"><circle fill="#51233c" r="220" cx="256" cy="256"/></g><g id="change2_1"><path fill="#ffffff" d="M370.142,241.858l-95.46-95.46c-7.81-7.811-20.474-7.811-28.284,0 c-7.811,7.811-7.811,20.474,0,28.284L307.716,236H156c-11.046,0-20,8.954-20,20s8.954,20,20,20h151.716l-61.318,61.317 c-7.811,7.81-7.811,20.475,0,28.285c7.813,7.811,20.473,7.809,28.284,0l95.46-95.46 C377.874,262.41,377.992,249.708,370.142,241.858z"/></g><g id="change2_2"><path fill="#ffffff" d="M256,16C123.362,16,16,123.344,16,256c0,132.638,107.343,240,240,240 c132.638,0,240-107.343,240-240C496,123.362,388.656,16,256,16z M256,456c-110.28,0-200-89.72-200-200S145.72,56,256,56 s200,89.72,200,200S366.28,456,256,456z"/></g></g></g></g></svg>