<?xml version="1.0" encoding="UTF-8" standalone="no"?><svg xmlns="http://www.w3.org/2000/svg" xmlns:xlink="http://www.w3.org/1999/xlink" contentScriptType="text/ecmascript" fill="#000000" width="606" zoomAndPan="magnify" contentStyleType="text/css" viewBox="0.0 0.0 606.3 606.3" height="606" data-name="Layer 2" preserveAspectRatio="xMidYMid meet" version="1"><g data-name="Layer 2"><g><g id="change1_1"><circle fill="#51233c" r="297.66" cx="299.52" cy="303.44"/></g><g><g id="change2_1"><path fill="#51233c" d="m303.16,606.32c-80.98,0-157.11-31.53-214.37-88.79C31.53,460.27,0,384.14,0,303.16S31.53,146.05,88.79,88.79C146.05,31.53,222.18,0,303.16,0s157.11,31.53,214.37,88.79c57.26,57.26,88.79,133.39,88.79,214.37s-31.53,157.11-88.79,214.37c-57.26,57.26-133.39,88.79-214.37,88.79Zm0-595.32C142.06,11,11,142.06,11,303.16s131.06,292.16,292.16,292.16,292.16-131.06,292.16-292.16S464.26,11,303.16,11Z"/></g><g id="change3_1"><path fill="#51233c" d="m567.51,367.44c-22.33,57.68-59.36,109.08-106.67,148.87-4.93,4.15,2.17,11.19,7.07,7.07,48.68-40.94,86.29-94,109.24-153.29,2.32-6.01-7.34-8.61-9.64-2.66h0Z"/></g><g id="change3_2"><path fill="#51233c" d="m444.58,524.47h-.79c-6.43,0-6.45,10,0,10h.79c6.43,0,6.45-10,0-10h-.79c-6.43,0-6.45,10,0,10h.79c6.43,0,6.45-10,0-10h0Z"/></g><g id="change2_2"><path fill="#51233c" d="m269.85,41.7c18.01,5.01,36.01,10.02,54.02,15.03,6.21,1.73,8.86-7.92,2.66-9.64-18.01-5.01-36.01-10.02-54.02-15.03-6.21-1.73-8.86,7.92-2.66,9.64h0Z"/></g><g id="change2_3"><path fill="#51233c" d="m275.09,67.02c7.7,2.14,15.4,4.28,23.11,6.42,6.21,1.73,8.86-7.92,2.66-9.64-7.7-2.14-15.4-4.28-23.11-6.42-6.21-1.73-8.86,7.92-2.66,9.64h0Z"/></g><g id="change2_4"><path fill="#51233c" d="m321.86,246.72c-25.33-6.72-52.18-2.34-72.86,14.02-19.54,15.46-28.93,41.56-24.04,65.86,4.47,22.2,24.22,42.27,46.71,45.92,25.88,4.2,49.82-9.36,63.7-30.92,16.08-24.99,13.54-57.17,5.6-84.44-2.79-9.6-12.1-15.65-21.94-14.33-10.22,1.37-16.64,9.59-17.34,19.64-3.1,44.61,46.25,77.95,87.08,63.96,19.46-6.67,36.65-20.95,45.75-39.56,9.84-20.12,11.32-43.26,4.94-64.72-10.91-36.73-41.41-64.04-76.73-76.82-30.55-11.06-65.46-10.08-96.42-1.22-31.48,9.01-61.66,26.6-83.23,51.46-26.2,30.19-41.25,68.97-42.25,108.96-.96,38.11,11.97,74.61,36.4,103.73,21.77,25.95,52.75,44.24,85.11,53.56,33.39,9.61,70.71,10.11,103.71-1.35,36.02-12.51,68.12-37.15,87.07-70.56,4.78-8.42,8.64-17.46,11.68-26.65,3.29-9.94-3.81-22.29-13.97-24.6-11.02-2.51-21.08,3.33-24.6,13.97-.61,1.84-1.24,3.68-1.94,5.5-.21.55-1.13,2.29-1.07,2.7-.07-.4,1.94-4.22.29-.78-1.67,3.49-3.36,6.95-5.29,10.31-1.93,3.35-4.01,6.6-6.23,9.76-.56.79-1.13,1.56-1.7,2.35-1.78,2.46-.03-.69.48-.6-.46-.08-3.34,4.04-3.71,4.47-5.09,5.86-10.68,11.28-16.68,16.2-.72.59-1.49,1.31-2.28,1.83,3.7-2.44,1.39-1.07.56-.47-1.58,1.14-3.16,2.28-4.77,3.37-3.23,2.18-6.55,4.24-9.95,6.15-3.4,1.91-6.88,3.69-10.42,5.33-.4.18-2.62,1.02-2.67,1.2.06-.22,4.48-1.77.73-.32-1.82.7-3.64,1.41-5.48,2.06-7.35,2.59-14.91,4.58-22.59,5.9-.88.15-1.76.28-2.64.43-3.51.59.88-.15,1.34-.16-1.77.06-3.56.41-5.32.57-3.56.32-7.13.51-10.71.58-7.43.15-14.75-.42-22.14-1.1-2.29-.21,2.03.29,1.98.28-.87-.17-1.78-.26-2.67-.39-1.78-.28-3.55-.58-5.31-.92-3.75-.71-7.48-1.55-11.18-2.52-6.98-1.83-13.72-4.22-20.45-6.79-2.09-.8,1.68.73,1.67.72-.77-.41-1.66-.72-2.46-1.08-1.64-.73-3.26-1.49-4.87-2.28-3.42-1.67-6.77-3.46-10.06-5.37-2.9-1.68-5.74-3.45-8.52-5.31-1.48-.99-2.94-2.01-4.39-3.05-.72-.52-1.43-1.05-2.15-1.58-2.96-2.17,2.22,1.89.35.28-5.4-4.65-10.75-9.2-15.63-14.42-2.27-2.43-4.4-4.97-6.53-7.52-2.31-2.77.41.74.67.91-.48-.3-1.2-1.6-1.59-2.14-1.17-1.62-2.31-3.26-3.41-4.92-3.96-6-7.23-12.31-10.27-18.81-1.15-2.47,1.39,3.58.44,1.03-.32-.85-.67-1.69-.99-2.54-.56-1.49-1.1-3-1.6-4.51-1.35-4.04-2.5-8.15-3.45-12.31-.82-3.55-1.99-7.54-2.09-11.2.15,5.25-.04-.78-.17-2.22-.2-2.27-.35-4.54-.45-6.82-.34-8.13.13-16.19.98-24.28.31-2.9-.62,3.67-.09.79.18-1,.32-2.01.49-3.01.3-1.75.64-3.5,1-5.24.89-4.23,1.95-8.41,3.19-12.55,1.09-3.65,2.32-7.26,3.68-10.82.31-.82.65-2.05,1.12-2.84-2.09,3.5-.71,1.62-.24.57.94-2.09,1.89-4.16,2.9-6.21,3.6-7.28,7.79-14.27,12.54-20.86.59-.82,1.21-1.63,1.8-2.45,1.67-2.31-2.18,2.6-.32.44,1.32-1.54,2.58-3.14,3.92-4.67,2.4-2.74,4.91-5.39,7.53-7.93,2.4-2.33,4.88-4.57,7.43-6.73.58-.49,3.42-2.24,3.41-2.79.01.66-3.38,2.52-1.05.81,1.02-.75,2.03-1.51,3.07-2.25,5.54-3.95,11.34-7.53,17.34-10.74,2.83-1.51,5.71-2.94,8.62-4.28.53-.25,3.83-1.23,4.11-1.83-.47,1-3.81,1.53-1.21.54,1.2-.46,2.4-.94,3.6-1.39,6.43-2.4,13.01-4.4,19.69-5.97,3.12-.74,6.26-1.38,9.42-1.92,1.28-.22,3.21-.18,4.42-.7-3.12,1.34-3.5.42-1.52.22,1.27-.13,2.53-.28,3.8-.4,6.73-.62,13.5-.79,20.25-.47,3.14.15,6.25.52,9.39.78,2.68.22-4.24-.69-1.59-.22.82.15,1.65.25,2.47.39,1.85.31,3.68.66,5.51,1.05,6.51,1.4,12.79,3.41,19.02,5.76,2.25.85-.02.96-1.34-.57.29.34,1.99.9,2.27,1.03,1.32.61,2.62,1.26,3.92,1.92,3.16,1.63,6.23,3.41,9.21,5.34,1.41.92,2.81,1.87,4.17,2.85.51.37,1.01.78,1.54,1.13,2.19,1.42-2.98-2.53-1.02-.78,2.74,2.44,5.58,4.73,8.2,7.32,2.35,2.34,4.6,4.78,6.73,7.32.58.69,1.14,1.39,1.71,2.09,1.64,1.99-1.81-2.76-.31-.33,1.25,2.04,2.7,3.96,3.93,6.02,1.09,1.83,2.11,3.71,3.06,5.63.47.95.89,1.95,1.37,2.9-.1-.19-1.22-3.23-.46-1.09,1.52,4.28,2.98,8.51,3.92,12.97.22,1.04.4,2.08.6,3.12.28,1.5,1.26,2.72-.06-.6.61,1.53.32,3.87.37,5.52.06,2.11.03,4.21-.1,6.31-.06,1.05-.19,2.1-.27,3.14-.18,2.46.87-3.61-.1.15-.53,2.05-.91,4.13-1.52,6.16-.28.92-.61,1.82-.9,2.73-.8,2.49-.94.06.41-.77-.8.49-1.81,3.73-2.25,4.51-1.05,1.91-2.27,3.67-3.42,5.51-.74,1.18-1.01,2.79.53-.59-.31.68-1.43,1.72-1.86,2.2-1.27,1.44-2.62,2.82-4.02,4.13-.57.54-4.62,3.89-2.36,2.15s-.29.16-.87.55c-.98.67-1.98,1.31-3.01,1.92-.61.36-4.85,2.12-5.03,2.66.1-.31,4.52-1.61.85-.38-.9.3-1.77.63-2.68.92-1.58.49-3.18.9-4.79,1.23-.78.16-3.82.46-.84.22,3.27-.26-.9,0-1.59.03-1.06.04-4.82-.59-5.67-.13.4-.22,4.81.99,1.15.13-.91-.21-1.83-.38-2.74-.61-1.59-.41-3.12-1-4.68-1.48-2.6-.81,3.26,1.71.9.36-1.02-.58-2.1-1.05-3.12-1.63-.75-.43-3.97-3.12-4.73-3.07.47-.03,3.44,3.06.75.49-.68-.65-1.39-1.25-2.07-1.91-1.18-1.14-2.21-2.41-3.34-3.6-1.86-1.95,1.97,3.03.57.73-.6-.99-1.3-1.92-1.89-2.91-.47-.79-.87-1.63-1.34-2.42-1.97-3.29.19.92.3,1.02-.96-.91-1.37-3.94-1.69-5.23-.15-.61-.28-2.29-.57-2.69.09.12.3,4.1.28,1.9-.02-2.11-.14-4.14.01-6.26-13.1,1.77-26.19,3.54-39.29,5.32,1.27,4.36,2.42,8.76,3.32,13.22.24,1.19.47,2.38.67,3.58.1.57.66,4.36.32,1.84-.31-2.32.06.67.08.95.13,1.5.26,3,.35,4.51.25,4.52.02,8.95-.29,13.46.3-4.32-.54,2.46-.78,3.49-.55,2.34-1.31,4.6-2.05,6.88-1.27,3.88.11-.76.35-.73-.03,0-1.13,2.3-1.31,2.62-.93,1.74-1.99,3.37-3.05,5.03-.24.38-1.73,2.43-.18.35,1.63-2.2-.31.31-.76.82-1.47,1.66-3.05,3.15-4.66,4.66-.33.31-2.26,1.95-.23.28s-.32.18-.91.57c-1.41.94-2.87,1.72-4.33,2.56-3.22,1.85.35-.39.88-.25-.31-.08-2.18.79-2.68.94-.9.28-1.82.48-2.73.75-3.62,1.05,2.87-.01.42.08-1.67.06-3.33.09-5,.11-4.3.07,1.29,0,1.12.24-.09.12-2.84-.63-2.7-.6-.89-.23-1.76-.53-2.63-.81-.95-.3-1.94-1.33-.16-.03,2.24,1.64.03-.09-.71-.5-1.01-.56-1.95-1.22-2.95-1.8-2.34-1.37.52-.76.73.62-.04-.29-1.33-1.17-1.56-1.38-1.38-1.28-2.57-2.66-3.83-4.05-1.49-1.64,1.04,1.17,1.01,1.27.04-.12-1.32-2-1.53-2.34-.48-.79-.88-1.65-1.37-2.44-1.93-3.09.73,2.54.03.31-.49-1.56-1.06-3.07-1.44-4.66-.04-.15-.71-2.38-.56-2.73-.48,1.08.16,3.75.24.93.01-.47.24-5.95.11-6.01.13.06-.75,3.9-.22,1.6.28-1.22.48-2.46.79-3.67.22-.85,1.09-5.3,1.89-5.73.15-.08-1.76,3.41-.47,1.33.53-.85.92-1.8,1.42-2.68.24-.42,2.21-4.44,2.85-4.48-.53.03-2.31,2.65-.32.46.85-.94,1.68-1.89,2.58-2.79.71-.72,1.45-1.42,2.2-2.09,1.87-1.67,1.46-2.07.09-.2,1.13-1.55,4.4-2.85,6.07-3.73.7-.37,1.46-.68,2.14-1.08-3.81,2.19.05,0,1.15-.37,2.02-.69,4.08-1.26,6.16-1.72.58-.13,2.42-.73,3.15-.62-.71.09-1.42.17-2.14.26.8-.1,1.6-.17,2.4-.23,2.41-.19,4.83-.25,7.25-.18.81.03,1.61.07,2.42.12.81.05,1.61.11,2.41.2-.71-.1-1.41-.2-2.12-.3,2.09-.35,5.92,1.17,7.87,1.69,10.1,2.68,22.19-3.37,24.6-13.97,2.39-10.49-3.15-21.73-13.97-24.6h0Z"/></g></g></g></g></svg>