<?xml version="1.0" encoding="UTF-8" standalone="no"?><svg xmlns="http://www.w3.org/2000/svg" xmlns:xlink="http://www.w3.org/1999/xlink" contentScriptType="text/ecmascript" fill="#000000" width="860" zoomAndPan="magnify" contentStyleType="text/css" viewBox="-29.2 -29.2 860.2 860.2" height="860" preserveAspectRatio="xMidYMid meet" version="1"><g data-name="Layer 2"><g fill="#ffffff" id="change1_1" data-name="Layer 1" fill-rule="evenodd"><path d="M409,594.91A77.89,77.89,0,0,1,519.16,705.1l-9.22,9.23C393.25,831,204.16,831,87.47,714.33s-116.63-305.79,0-422.41l9.29-9.22A77.87,77.87,0,0,1,206.88,392.83l-9.22,9.22A142.92,142.92,0,0,0,399.74,604.2l9.3-9.29Z"/><path d="M705.1,519.16A77.89,77.89,0,1,1,594.91,409l9.29-9.3A142.92,142.92,0,0,0,402.05,197.66l-9.22,9.23A77.87,77.87,0,0,1,282.7,96.76l9.22-9.3c116.63-116.61,305.78-116.61,422.4,0s116.7,305.86,0,422.48l-9.22,9.22Z"/><path d="M367,536.84A71.27,71.27,0,1,1,265.93,436.36L435.45,265.65A71.3,71.3,0,0,1,536.63,366.13L367,536.84Z"/></g></g></svg>