<?xml version="1.0" encoding="UTF-8" standalone="no"?><svg xmlns="http://www.w3.org/2000/svg" xmlns:xlink="http://www.w3.org/1999/xlink" contentScriptType="text/ecmascript" fill="#000000" width="861" zoomAndPan="magnify" contentStyleType="text/css" viewBox="0.0 0.0 861.4 861.4" height="861" data-name="Layer 2" preserveAspectRatio="xMidYMid meet" version="1"><g data-name="Layer 1"><g><g id="change1_1"><circle fill="#ffffff" r="430.69" cx="430.69" cy="430.69"/></g><g id="change2_1"><path fill="#51233c" d="m769.1,373.53c-3.3,0-6.24-2.34-6.87-5.71-29.98-159.06-169.41-274.51-331.53-274.51-41.29,0-81.62,7.37-119.87,21.91-3.62,1.38-7.66-.44-9.03-4.06-1.37-3.61.44-7.66,4.06-9.03,39.84-15.15,81.84-22.83,124.84-22.83,168.85,0,314.07,120.24,345.29,285.91.72,3.8-1.78,7.46-5.58,8.18-.44.08-.88.12-1.3.12Z"/></g><g id="change2_2"><path fill="#51233c" d="m122.13,294.57c-2.54,0-5.12-.57-7.56-1.78-8.41-4.18-11.83-14.38-7.65-22.79,17.1-34.38,39.49-65.72,66.55-93.14,27.05-27.41,58.08-50.2,92.21-67.75,8.35-4.29,18.6-1,22.89,7.35,4.29,8.35,1,18.6-7.35,22.89-61.83,31.78-112.92,83.56-143.87,145.79-2.97,5.97-8.99,9.43-15.24,9.43Z"/></g><g id="change2_3"><path fill="#51233c" d="m92.29,373.53c-.43,0-.87-.04-1.3-.12-3.8-.72-6.3-4.38-5.58-8.17,1.63-8.65,3.61-17.35,5.89-25.85,1-3.73,4.84-5.95,8.58-4.95,3.73,1,5.95,4.84,4.95,8.58-2.19,8.16-4.09,16.51-5.66,24.81-.63,3.36-3.57,5.71-6.87,5.71Z"/></g><g id="change2_4"><path fill="#51233c" d="m430.69,792.07c-48.78,0-96.11-9.56-140.67-28.41-43.04-18.2-81.68-44.26-114.86-77.44-33.18-33.18-59.24-71.83-77.44-114.86-18.85-44.56-28.41-91.89-28.41-140.67,0-9.22.35-18.54,1.05-27.7.71-9.36,8.87-16.38,18.24-15.67,9.36.71,16.38,8.88,15.67,18.24-.63,8.31-.95,16.76-.95,25.13,0,180.52,146.86,327.38,327.38,327.38,150.39,0,280.97-101.73,317.54-247.39,2.29-9.11,11.52-14.63,20.63-12.35,9.11,2.29,14.63,11.52,12.35,20.63-19.26,76.7-64.22,146.09-126.6,195.4-31.22,24.67-65.99,43.89-103.34,57.1-38.65,13.68-79.22,20.61-120.58,20.61Z"/></g><g id="change2_5"><circle fill="#51233c" r="26.41" cx="775.91" cy="436.7"/></g><g id="change3_1"><path fill="#51233c" d="m372.77,344.7c0-13.69-12.34-24.02-25.84-21.72-5.33.91-10.27,1.36-14.82,1.36-5.49,0-8.24-3.01-8.24-9.03v-10.63c0-4.07.8-7.13,2.39-9.17,1.59-2.03,5.58-4.29,11.96-6.78,8.5-3.54,20.1-10.72,34.81-21.52,14.7-10.8,29.05-25.24,43.04-43.31,10.8-13.99,17.18-21.56,19.13-22.72,1.95-1.15,5.31-1.73,10.1-1.73h0c12.18,0,22.05,9.87,22.05,22.05v362.43c0,3.9,3.01,7.35,9.03,10.36,5.14,2.48,8.28,5.09,9.43,7.84,1.15,2.75,1.73,9.96,1.73,21.66,0,4.61-3.1,6.91-9.3,6.91h-121.69c-5.14,0-8.28-.8-9.43-2.39-1.15-1.59-1.73-5.49-1.73-11.69,0-8.86.49-14.35,1.46-16.47.97-2.12,4.65-4.16,11.03-6.11,9.92-3.01,14.88-7.35,14.88-13.02v-236.32Z"/></g></g></g></svg>