<?xml version="1.0" encoding="UTF-8" standalone="no"?><svg xmlns="http://www.w3.org/2000/svg" xmlns:xlink="http://www.w3.org/1999/xlink" contentScriptType="text/ecmascript" fill="#000000" width="667" zoomAndPan="magnify" contentStyleType="text/css" viewBox="-18.5 -9.5 666.6 786.0" height="786" preserveAspectRatio="xMidYMid meet" version="1"><g data-name="Layer_1"><g><g id="change1_1"><path fill="#244668" d="M582.57,516.29c-28.74-85.35-56.67-152.46-87.9-211.2-.1-.19-.21-.38-.33-.57-20.81-33.5-59.47-49.79-118.21-49.79-7.95,0-16.23.29-25.2.88-34.56,1.86-69.37,5.72-103.05,9.45l-19.41,2.13c-.85,0-1.7-.45-2.21-1.17-1.84-2.61-4.84-4.16-8.02-4.16-.13,0-1.81.08-1.81.08-2.84.12-5.49,1.45-7.27,3.67-.46.58-.95.87-1.45.87-.45,0-1.05-.19-1.75-.63-1.84-1.78-4.29-2.77-6.84-2.77-.22,0-.44,0-.66.02-15.52,1.05-30.84,2.33-45.55,3.81-.19.02-.38.04-.56.07-3.78.6-7.87.94-12.2,1.29-14.82,1.22-31.61,2.6-43.84,15.6-.13.14-.26.28-.38.43-27.55,32.93-38.42,74.94-48.02,118.83-10.29,50.34-18.59,102.27-24.7,154.78-.77,10.86-2.21,22.14-3.74,34.08-5.02,39.11-10.7,83.44,9.23,120.11.13.24.27.47.42.7,28.27,43.09,107.6,48.07,164.81,48.07,19.91,0,38.91-.66,55.66-1.25,10.48-.37,19.98-.7,28.53-.82,30.5-1.8,298.56-19.85,318.89-96.86,14.59-48.87-.75-100.01-14.29-145.14-.03-.1-.12-.4-.16-.5ZM244.68,626.57c-29.61-1.41-60.56-6.44-92-14.94-.2-.06-.4-.1-.6-.14-18.94-3.85-36.25-18.96-47.52-41.51-14.9-29.31-18.26-66.38-10.27-113.24,2.44-13.58,5.33-25.51,8.86-36.52.27-.85.82-1.55,1.52-1.91,3.17-1.66,5.19-4.9,5.27-8.48.05-2.3,5.07-2.37,5.12-2.37.57,0,1.13.04,1.68.13.2.03.41.06.62.08,4.02.37,8.03.78,12.04,1.18,8.28.83,16.85,1.69,25.52,2.28,18.82.99,37.57,1.49,55.72,1.49,69.01,0,134.78-7.27,195.6-21.63,5.49-1.37,10.49-2.8,15.09-4.12,9.28-2.66,16.6-4.76,22.51-4.76s13.62,1.69,26.27,21.74c19.17,31.07,29.04,68.28,36.74,100.55.41,1.88.85,3.78,1.29,5.69,3.74,16.22,7.27,31.54.29,44-35.95,57.51-170.62,72.85-244.53,72.85-6.76,0-13.25-.12-19.22-.36Z"/></g><g id="change1_2"><path fill="#244668" d="M216.95,257.12c.2,0,.41,0,.61-.02,8.12-.5,16.25-1.04,24.37-1.7.91-.07,1.81-.28,2.67-.6.19-.07.41-.11.64-.11.76,0,1.55.37,2.02.96,1.87,2.3,4.67,3.62,7.61,3.62.22,0,.45,0,.68-.02,13.64-.94,27.71-2.47,42.59-4.09,13.28-1.44,27.02-2.94,40.68-4.01,2.63-.21,5.07-1.46,6.76-3.49,1.69-2.03,2.5-4.65,2.24-7.28l-.17-1.72c-.03-.29-.07-.58-.12-.86-2.81-14.75-8.79-28.35-17.29-39.35-5.22-7.8-13.55-8.33-18.56-8.64l-1.86-.13c-5.61-.38-11.57-.57-17.73-.57-4.83,0-9.8.12-14.79.35-.26.01-.52.04-.77.07-2.27.29-5.78.53-10.02.82-33.63,2.36-59.64,5.47-63.38,21.95-.11.46-.18.92-.21,1.39-1.05,13.14,2.03,25.78,4.51,35.95,1.08,4.42,5.04,7.49,9.53,7.49Z"/></g><g><g id="change2_1"><path fill="#f2bc57" d="M450.4,388.86c-75.35,9.42-155.16,32.89-236.94,28.77-21.61,4.96-98.5-13.88-105.11,2.06-50.16,176.49,40.34,208.04,182.14,201.88,67.92-5.59,200.45-15.93,217.19-84.17-3.69-28.36-20.49-116.4-57.28-148.54Z"/></g><g id="change2_2"><path fill="#f2bc57" d="M337.99,146.07c-54.53-11.46-118.56-6.69-168.93,6.97-23.79,15.8,20.92,29.61,29.67,41.46,10.71,7.11,37.31-10.41,54.91-8.05,20.78-6.59,63.64,6.27,71.48-8.19,9.9-8.77,31.97-23.08,12.87-32.19Z"/></g><g id="change2_3"><path fill="#f2bc57" d="M353.72,145.07c35.33-11.15,35.27-126.8-6.12-124.2-48.98-.57-193.06-21.58-215.53,12.03.88,23.52-5.76,118.64,25.66,118.54,64.21-19.32,132.28-23.06,195.99-6.37Z"/></g><g id="change3_1"><path fill="#0a253a" d="M500.57,287.68c-34.49-41.51-85.25-49.43-137.5-47.75-1.43-14.89-10.4-34.09-14.81-41.24-2.6-4.52-5.73-8.93-9.42-12.68,1.6-1.34,3.1-2.76,4.45-4.11,17.82-15.86,34.27-34,44.44-55.83,11.95-24.43,5.51-81.57-8.51-105.1-5.54-9.74-16.33-14.17-27.14-14.42-17.48-1.55-34.96-2.83-52.47-3.87-35.17-.74-163.07-12.19-179.84,18.77-5.34,16.56-2.34,37.19-2.44,54.64,1.48,25.37,4.6,51.09,13.16,75.14,5.32,16.73,20.55,26.23,33.99,36.04,8.34,6.08,17.08,11.86,24.94,18.59.03.04.06.07.09.11-1.91,5.82-2.47,12.82-1.1,21.44.37,7.31,1.92,14.4,3.65,21.46-12.51.82-25.01,1.73-37.48,3.07-57.43,2.99-73.3,15.18-96.91,67.41-21,48.44-28.25,101.4-37.34,153.05-6.36,38.6-11.22,77.45-15.46,116.36-23.34,155.7,37.25,183.09,181.09,186.46,79.04,1.26,158.18-4.35,235.99-18.49,37.81-6.76,75.8-14.34,111.91-27.75,19.46-7.88,40.04-15.31,55.87-29.55,58.37-58.19,11.92-172.66-11.18-239.31-23.31-58.36-44.27-119.21-77.98-172.44ZM141.89,33.2c14.89-6.24,31.54-6.12,47.41-7.51,45.85-2.2,91.84,0,137.6,3.39,3.84.29,9.26.71,14.67,1.15,5.25,1.17,12.8-.82,16.61,3.41,7.68,14.13,9.67,30.55,10.51,46.38,3.99,20.89-3.28,39.22-15.05,55.28-9.49-3.24-19.39-5.27-29.27-6.81-37.75-5.5-76.41-4.09-114.15.86-12.6,1.77-25.12,4.32-37.46,7.38-5.19,1.5-12.57,3.01-18.84,5.65-13.05-34.33-13.12-72.78-12.03-109.18ZM171.84,162.53c41.15-11.52,84.7-14.42,127.7-12.16,12.46,1.17,24.21,2.33,36.09,5.23-5.52,5.35-11.25,10.41-16.85,15.15-1.48,1.27-2.45,2.9-3.05,4.67-21-2.04-42.14-.89-63.08,1.24-16.33,1.72-34.18,3.79-47.05,10.81-3.78-3.7-8.48-6.95-12.12-9.44-6.8-5.54-14.46-10.28-21.65-15.51ZM212.7,214.46c2.99-13.18,52.45-13.62,65.05-15.2,9.42-.45,20.41-.55,31.4.2,4.82.41,10.18.07,13.08,4.68,8.05,10.3,13.2,22.69,15.64,35.48.05.58.12,1.15.18,1.73-28.81,2.27-57.36,6.29-83.18,8.08-3.3-4.04-8.94-5.64-13.73-3.84-8.06.64-16.12,1.17-24.19,1.68-2.62-10.78-5.16-21.61-4.26-32.83ZM587.61,659.11c-17.06,64.65-248.43,86.23-310.07,89.87-61.45.81-203.37,14.56-240.2-41.56-24.02-44.19-7.68-101.05-4.31-148.82,5.99-51.46,14.15-102.74,24.52-153.5,8.77-40.06,19.06-82.36,45.93-114.49,12.76-13.55,33.44-11.21,50.43-13.93,15.12-1.51,30.28-2.68,45.44-3.71.62.57,1.21,1.17,1.98,1.62,6.2,3.38,11.99,1.47,15.46-2.78.49-.03.98-.07,1.47-.1,2.52,3.58,6.9,5.73,11.49,5.24,40.51-4.41,80.99-9.34,121.71-11.53,46.47-3.04,106.95-.15,134.55,44.3,35.55,66.86,63.11,138,87.25,209.71,13.38,44.55,28.13,93.59,14.35,139.7Z"/></g><g id="change3_2"><path fill="#0a253a" d="M478.46,398.67c-24.07-38.13-38.08-26.34-74.61-17.22-80.87,19.1-164.25,24.28-248.41,19.88-12.42-.85-24.78-2.29-37.18-3.44-8.17-1.29-17.92,2.38-18.14,11.72-2.93,1.53-5.25,4.25-6.33,7.65-3.95,12.31-6.89,25.03-9.17,37.74-6.76,39.62-7.43,82.8,11.18,119.43,10.98,21.98,29.45,41.63,54.32,46.68,30.72,8.31,62.29,13.76,94.09,15.27,73.23,2.9,230.76-10.23,272.55-77.1,10.08-17.94,3.82-38.3-.33-57.02-8.53-35.73-18.54-72.09-37.97-103.59ZM427.03,588.91c-44.17,14.69-90.66,20.7-137,22.85l1.55-.1c-36.28,1.93-72.7-.45-108.32-7.77-14.52-3.99-34.89-5.44-47.5-16.51-43.36-42.66-33.4-111.82-17.97-164.94,109.19,11.42,220.29,3.6,326.28-26.09,30.27,25.62,47.45,100.31,53.83,140.22-2.49,29.54-47.18,43.2-70.86,52.34Z"/></g></g></g></g></svg>