<?xml version="1.0" encoding="UTF-8" standalone="no"?><svg xmlns="http://www.w3.org/2000/svg" xmlns:xlink="http://www.w3.org/1999/xlink" contentScriptType="text/ecmascript" fill="#000000" width="738" zoomAndPan="magnify" contentStyleType="text/css" viewBox="-0.0 -0.0 738.0 927.8" height="928" preserveAspectRatio="xMidYMid meet" version="1"><g data-name="Layer 2"><g fill="#c9b8ff" id="change1_1" data-name="Layer 1"><path d="M428.81,1c5.69,1,11.48,1.82,17.37,2.54,1.48,1.67,4.37,5,5.85,6.7-.46,3.61-1.38,10.77-1.78,14.38A172.76,172.76,0,0,0,471.08,0c.61,5.64,1.32,11.28,2,17,6-4.12,12.24-7.83,18.64-11.38l13.16,8.53c.71,6.3,1.52,12.6,2.49,18.9,2.64-1.88,8-5.59,10.62-7.42-2.65,25.15,3.91,49.79,3.25,74.88-.51,13.92,7.11,28,.76,41.51.81,2.18,2.44,6.55,3.25,8.79-.56,8.79-.36,17.62-.86,26.41,1,4.07,3,12.2,4,16.26-1.63,1-4.88,3-6.45,3.91.71,16.71-15.9,35.61-1.22,49.84-9.09,53.85-18.29,108.15-13.82,163,9.7-10.11,19.76-19.92,29.16-30.33l8.69,10.36-2.9-13c9.35-10.06,22.71-11.69,35.16-15.45-5,.31-15.14,1-20.22,1.32,11.48-9.75,24-18.08,36.22-26.92l4.11,2.95c2.54-4.83,5.19-9.66,7.83-14.48,2.44,1.17,7.31,3.45,9.75,4.62,2.59-11.43,12.55-16.31,22.71-20,7,18.44-14.84,22.5-21.49,36-2.18,1.58-6.5,4.73-8.69,6.3-4.16,5.74-7.77,12.75-15.9,12.8l1.73,1.78c-13.56,9.71-27.94,19.21-33.83,35.92l-2.54-12.19c-.51,8.28-7.37,12.24-14.69,13.76.26,7.73,1,19.51-10.82,19,2.09,11.08-11.58,15.24-16.61,23.17,15.7-10.77,28.6-25,40.8-39.27,9.29-4.42,12.34-14.88,18-22.71q6.78-4.72,13.87-9l.61-3.86c1.67-.05,5.08-.15,6.75-.25,6.66-5.54,13.67-10.77,20.38-16.36,20.52-18.19,42.57-34.9,60.86-55.48,21.53-10.82,35.45-32.71,58.11-41,1.22,9.19,2.08,18.54,4,27.68-4.67,4.22-9.29,8.54-13.86,12.8,8.78,8.64,7.36,20.12-3.87,25.4-8.22,12.45-11.37,26.93-15.64,40.95.3-4.93.86-14.78,1.17-19.71-5.85,14.48-30.43,27.84-20.12,45.21,2.69-5.28,5.33-10.56,8.13-15.8-.05,6.81,0,13.67.1,20.53l-6.55-5c.25,2.54.76,7.57,1,10.11-4.82-1-14.48-3-19.25-4,3.61,3.86,10.87,11.54,14.53,15.4.45,4,1,8.07,1.57,12.19l-5.59-.92c-2.69,7-5.63,13.92-8.23,21-2.08-.61-6.19-1.78-8.23-2.39q-.6,10-1.06,20c-4.57,4.32-9,8.84-10.52,15.19-6.4,7.11-15.7,12.91-16.3,23.62-2.14-2.84-4.17-5.74-6.15-8.58,1.78-2.79,5.33-8.43,7.11-11.28q-10,4.2-8.84,14.33l-13,7.67c4.31-.81,12.9-2.39,17.22-3.15C620.84,514,610.52,529.6,596.6,541.79c-1.47,0-4.31,0-5.74,0-1.93-8.48,6.56-14.48,8.89-22-17,18.09-31.14,38.87-45,59.44,11.12-9,19.55-25.65,30.68-30.84,1.63,5.59,1.57,11.49,1.93,17.33l-7.92-1.48c-13.62,22.61-28.45,46.44-51.67,60.25q5.56-12.25,11.23-24.53c-6.45,8.13-19.1,16-11.28,28.85l-7.62-9.45-3,4.68c-5.23-4.22-11-1.07-16.1,1.42,4.37,2.08,13,6.25,17.37,8.33-2.89,2.29-8.63,6.86-11.48,9.15l-10.67-8.49,5.9,14.28-7.47-3.66c.05,2.84.2,8.53.3,11.38l-5.48-12-10.62,5.33c3,2.24,8.94,6.71,11.94,8.89l-12.14-3.2.05,4.07C467.42,672,462.39,688.1,457.61,703.9c-2,6.65-3.81,13.41-6.19,20-11.64,29.62-14,61.62-18.95,92.81-4,27.34,1.06,59.7-19,81.85.86,2.23,2.64,6.8,3.55,9.09L405.64,903l-.66,7.83c-3.35.05-10.11.05-13.46.05-3.45,4.22-10.31,12.7-13.77,16.92.11-4.12.31-12.3.36-16.41-3.3.35-10,1-13.36,1.37-.2-17.88-.05-35.92-9.14-51.87l-5.08-1.12c1.27-2.69,3.75-8.18,5-10.87l-9.95,3.35c1.22-3.35,3.71-10.1,4.92-13.46l-8.94,7.06c-6.35-17.37.16-37.64-11.73-53-12.55-16.05-6.1-38.15-16.21-55.22-.5-9.55-1.11-19.1-1.37-28.6-3.45-5.9-5.33-12.4-4.62-19.21,0-17.42-4.17-34.49-3.2-51.91-3.76-14.58,1.17-30-4.17-44.3-8.23-37.8,6.81-74.37,9.3-111.71l4.62-8-11.48-3.05c1.37-2.89,4.12-8.63,5.49-11.53-6.15-1-12.3-1.73-18.44-2.18-1.58,6.24-3.15,12.54-4.63,18.84l-7.87-8.48,1.42,8.38c-2.54.2-7.57.61-10.11.76q7.7,4.42,15.55,8.84,1.14-12.65,12-18.13c-12.91,31.54-32,60-47,90.57-2.9,11.38-15.95,6.86-22.2,15,2.64,2.08,8,6.35,10.61,8.49-7,22.09-20.82,41.19-27.43,63.45-4.11-2.34-8.08-4.83-11.89-7.42-1,5.69-2.13,11.33-3.2,17,3.2-2.44,9.66-7.32,12.86-9.81.71,16.77-10.06,22.71-22.56,12.35l-2.59,1.17c5.74,2.48,11.38,4.87,17.17,7.46-10,26.37-28,49.53-31.85,78.19-3.35-10.88-14.33-8.23-20.22-16.11-2.44,6.2-4.93,12.3-7.31,18.54,2-2.59,6.09-7.72,8.12-10.26,3.66,6,7.06,12.3,11,18.29-19.15,35.05-34.34,72.44-56.44,105.72l-1.73,1.06c-.51,9.55-3.1,19.66-12.75,23.73q4-10.29,8.23-20.42l-6.5-1c0,8.84-6.1,15.14-11.54,21.39-.4-11.08-.4-22.15-.61-33.18C73.92,859.75,70.51,868.44,67,877,61.16,888.4,56,901.92,42,905.68c2.24-9,3.86-18.24,8.13-26.57l-4.27,1.57c-.15-3.45-.4-10.31-.56-13.71-1.62,8.28-2.89,16.71-5.08,25L28,902.48c-2.18-8.89-3.86-17.78-5.33-26.78-3.66.06-11,.16-14.63.16.86-10,1.72-20,2.23-30-2.54-.4-7.72-1.16-10.31-1.57L10,844c-.66-1.78-2-5.34-2.59-7.12l8,6.61-2.18-20.42L5.54,824.4a214.71,214.71,0,0,0,19.3-12.3c-1.78-2.28-5.28-6.91-7-9.24a72.28,72.28,0,0,0,5.74-29.42c6.25-1.83,12.7-3.35,18.9-5.64,5.23-9.09,8.23-19.2,12-28.9L44.6,732c-.66,7.21-1.32,14.43-1.57,21.74-3.86,4.73-7.62,9.55-11.43,14.33,1.22-5.54,2.54-11,3.91-16.41,3.4-17.43,15.85-32.82,13.31-51.21,2.13,1.22,6.45,3.76,8.64,5,1-7.92,4-15.8,1.47-23.67l-7.88,10.67c2-7.47,4.17-14.84,6.35-22.2,3.71,3.65,7.37,7.36,11,11.22,2.28-13.31,8.18-25.5,12.49-38.2C88.55,628.56,94.39,613,103,598.79c-2.79,1.17-8.28,3.5-11.07,4.72-1-4-1.88-8-2.79-12l4.52.46c6.3-9.9,12.65-19.71,18.79-29.72.26,3.15.82,9.35,1.12,12.45,4.67-7.21,9.3-14.48,14.07-21.69,16,9.5-2.23,22.66-4.57,34.75a197.55,197.55,0,0,0,17.78-28.55c-6-3.36-11.43-7.88-16.46-12.35,3-.1,9.15-.35,12.24-.46l-2.13-10.92,14.83,10.77c-4.31-4.72-8.89-9.14-13.46-13.46,5.18-7,10.16-14.07,15.6-20.88-3.76-3.1-7.52-6.15-11.18-9.19a146.77,146.77,0,0,0,12.4-16.57c-6.61,9,.61,18,5.64,25.25.91-7.82,2.23-15.49,2.59-23.32,2.13-4.06,4.37-8.07,6.6-12.09a108.35,108.35,0,0,0,10.62-21.84c2.08.36,6.3,1,8.38,1.27l-2.79-8.54,6.35,3c2-8.63,4.87-17.12,5.38-26.06,14.89-2.08,23.78-22.76,20.22-36.78,13.16,6.15,12.34-8.94,8.43-16.76,4.42,1.47,8.89,2.94,13.36,4.47L236,369.17c8.33-2.74,13.82-7.82,11.73-17.32l3.05.61c10.72-13.77,20.37-28.4,27.84-44.2,2.69-4.37,5.39-8.74,8.18-13.06,13.77-18.59,22.86-40,34.09-60l7.06-1.42c-1.07-7.37-.61-14.74,2.59-21.54,2.18-2.39,6.6-7.27,8.84-9.66-.46-2.08-1.37-6.3-1.83-8.38l6.86,2.59-.51-17.22c-1.52.2-4.67.66-6.25.86,3.86-5.63,7.72-11.37,11.53-17.06-.15,1.62-.4,4.92-.55,6.55l18.23,1.78-3.5-8.28c2,1.62,6,4.92,8.07,6.55-1-3.91-2.89-11.79-3.81-15.75,3.1-.46,9.25-1.37,12.35-1.78-6.2-23,14-44.35,6.65-67.87,2.54-7.72,5-15.49,7.32-23.31-.05-8.59.1-17.17,0-25.76l2.29-.36c5.74,16-1.07,31.55-1.22,47.66,5.13-4.32,7-10.22,5.64-17.78,4.42-7.57,5.23-16.16,5.28-24.69,2.13-5.24,4.32-10.42,6.5-15.6l9.15,5.08c-1-4.78-2.9-14.38-3.86-19.2l8.68,3.25L425.25,3.1c3.51,2.84,10.62,8.58,14.18,11.43A59.92,59.92,0,0,0,428.81,1ZM108.71,576c-1.93,3-5.74,9.09-7.67,12.14,2.19,11.63,13.57-5.79,10.11-11.38Zm65.94,100.94c-7.21,5.08-6.8,17.17-1.47,23.62,7.52,7.37,10.21-7.26,4.32-10.66C173.18,686.37,179.63,679,174.65,676.92Zm-5.18,29.41c-4.47,3-9.09,15-1.52,16.62C172.57,720.15,176.08,708,169.47,706.33Z"/><path d="M651.88,304.75c9.19-12.9,21.79-26.62,39.16-25.7a64.31,64.31,0,0,1-17.32,9.3l.31,3.35-6.81-.61,2.64,7.47C663.87,300.64,657.87,302.72,651.88,304.75Z"/><path d="M638.82,307.75c1.63-1.27,4.93-3.91,6.55-5.23,1.53,1.62,4.53,4.83,6,6.45C646.64,315.83,642.48,315.42,638.82,307.75Z"/><path d="M67.51,662.85q-10.67-6.09,1.07-12.4Q79.4,656.17,67.51,662.85Z"/><path d="M78.79,912.18C77,904,80.72,887,90.73,887.29,92.56,895.77,85.65,908.47,78.79,912.18Z"/></g></g></svg>