<?xml version="1.0" encoding="UTF-8" standalone="no"?><svg xmlns="http://www.w3.org/2000/svg" xmlns:xlink="http://www.w3.org/1999/xlink" contentScriptType="text/ecmascript" fill="#000000" width="833" zoomAndPan="magnify" contentStyleType="text/css" viewBox="-0.0 -0.5 833.3 793.8" height="794" data-name="Layer 2" preserveAspectRatio="xMidYMid meet" version="1"><g id="change1_1" data-name="Layer 1"><path d="m113.49,793.31c-2.64,0-4.65,0-6.69-.28l-.28.28s0-.28-.28-.28h0c-.88,0-1.76-.28-2.04-.88-.6-.57-.88-1.45-.6-2.01,0-1.76,1.47-2.92,2.92-2.92h.57c4.65.31,8.7.31,14.23,0,1.73-.28,2.89,1.16,3.2,2.64,0,1.73-1.16,3.17-2.61,3.17-2.64.28-5.53.28-8.42.28Zm-30.5-3.46q-.28,0-.57-.31c-5.22-1.16-10.18-2.32-14.51-4.05h-.6c-1.45-.6-2.32-2.32-1.73-3.77.28-1.45,2.04-2.32,3.77-1.76h.28c4.65,1.47,9.3,2.92,13.95,4.08,1.73.28,2.61,1.73,2.32,3.49-.28,1.16-1.45,2.32-2.92,2.32Zm61.54-1.76c-1.16,0-2.32-.57-2.61-1.73-.57-1.47.28-3.2,1.45-3.77q.31,0,.6-.31c4.93-1.73,8.99-3.77,12.47-6.38,1.16-.88,3.2-.57,4.05.6.88,1.45.6,3.17-.57,4.05-4.05,2.89-8.7,5.22-13.95,7.26l-.28.28h-1.16Zm-98.1-11.59c-.28,0-.88,0-1.16-.31-4.65-2.01-8.99-4.34-13.07-6.94h-.28c0-.31-.28-.31-.28-.31-1.45-.85-1.76-2.61-.88-4.05.6-1.16,2.61-1.76,3.77-.88h.31l.28.28c3.77,2.32,8.11,4.65,12.76,6.97,1.16.6,2.04,2.32,1.16,3.77-.28.88-1.45,1.47-2.61,1.47Zm127.13-12.78c-.28,0-.85,0-1.16-.28-1.45-.88-2.01-2.32-1.45-3.77,0-.31.28-.31.28-.6,2.04-3.77,3.77-8.14,4.93-13.07.31-1.73,1.76-2.89,3.49-2.32.6.31,1.45.6,1.76,1.16.57.88.57,1.47.28,2.32-1.16,5.53-2.89,10.46-5.22,14.82,0,0-.31,0-.31.28h0c-.57.85-1.45,1.45-2.61,1.45Zm-159.64-8.14c-.57,0-1.16,0-1.73-.57-4.08-3.2-7.85-6.69-11.34-10.18h0c-.57-.57-.85-1.45-.85-2.32,0-.57.28-1.45.85-1.73,1.16-1.16,2.92-1.16,4.08,0,3.49,3.49,7.26,6.69,10.74,9.86,1.16.88,1.45,2.61.57,4.08-.57.57-1.45.85-2.32.85Zm166.9-29.59h0c-1.73,0-2.89-1.16-3.17-2.61v-3.49c-.31-2.92-.88-6.69-1.76-11.34-.28-.85,0-1.45.28-2.01.31-.88,1.16-1.16,1.76-1.47,1.73-.28,3.17.88,3.49,2.32.85,4.08,1.73,8.42,2.01,11.9v3.2h0v.57c.31,1.47-1.16,2.92-2.61,2.92h0Zm-6.66-38.32c-1.45,0-2.61-.88-2.92-2.32v-.57c-.85-4.65-1.73-9.86-2.61-14.51,0-.88,0-1.47.6-2.32.57-.6,1.16-.88,2.01-1.16,1.47-.28,2.92.88,3.2,2.61.88,5.22,1.73,10.15,2.32,14.51q.28.28.28.57c.28,1.47-.88,2.92-2.32,3.2h-.57Zm-4.93-38.61h-.31c-1.45,0-2.61-1.16-2.89-2.61v-.28c-.28-4.08-.28-8.14-.28-12.78v-2.32c0-1.73,1.16-2.89,2.61-2.89h.28c1.45,0,2.92,1.45,2.92,2.89v2.32c0,3.49,0,7.26.28,12.19h0v.6h0v.28c0,1.45-1.16,2.61-2.61,2.61h0Zm1.73-38.61h-.57c-1.47-.28-2.64-2.01-2.32-3.49.28,0,.28-.28.28-.28,1.16-5.5,2.89-10.46,4.93-14.8.57-1.45,2.32-2.04,3.77-1.45,1.45.85,2.32,2.61,1.45,4.05-2.01,4.05-3.49,8.7-4.65,13.35v.28h0c-.28,1.47-1.45,2.32-2.89,2.32Zm185.77-13.07h-.31c-4.34-.28-9.27-.57-14.8-1.16h-.57c-1.45-.28-2.61-1.73-2.61-3.46.28-1.47,1.45-2.32,3.46-2.32h.31c4.65.57,9.27.85,14.51,1.16,1.73,0,2.89,1.45,2.89,3.17,0,1.45-1.45,2.61-2.89,2.61Zm23.5-.85c-1.45,0-2.61-1.16-2.89-2.61-.31-1.47.85-2.92,2.32-3.2,0,0,.28-.28.57-.28,4.93-.6,9.58-1.76,13.63-3.49,1.47-.6,3.2.28,3.8,1.73.57,1.45-.31,3.2-1.76,3.77-4.65,1.76-9.3,2.92-14.8,3.77-.28.31-.28,0-.6,0q-.28,0-.28.31Zm-62.1-4.37h-.6c-4.34-.88-8.99-2.04-14.51-3.49h-.28c-.88-.28-1.45-.57-2.04-1.45-.28-.57-.28-1.45,0-2.04.31-1.45,2.04-2.61,3.49-2.01h.28c5.53,1.45,10.18,2.61,14.23,3.17.88.31,1.45.6,2.04,1.47.28.57.57,1.45.28,2.01-.28,1.45-1.45,2.32-2.89,2.32Zm-37.44-9.58c-.28,0-.6,0-.88-.28-4.37-1.16-8.42-2.61-12.76-4.05-.31,0-.88-.31-1.47-.31,0,0-.28,0-.57-.28-.6-.28-1.16-.57-1.45-1.45-.6-.6-.6-1.45-.31-2.04.6-1.45,2.04-2.32,3.8-2.01.28.28.28,0,.28.28.57,0,1.16.28,1.73.57,4.08,1.16,8.14,2.61,12.5,3.77,1.45.6,2.3,2.04,1.73,3.49-.28,1.45-1.45,2.32-2.61,2.32Zm133.79-2.89c-.85,0-1.45-.28-2.01-.6-.6-.57-.88-1.16-.88-2.01s.28-1.47.88-2.04v-.28c3.17-3.49,5.5-7.26,7.82-11.62.6-1.45,2.32-2.04,3.77-1.45,1.47.57,2.04,2.32,1.47,3.77-2.32,4.93-5.24,9.3-8.42,13.07h-.31c0,.28-.28.57-.57.57-.28.31-1.16.6-1.76.6Zm-223.47-1.45c-1.16,0-2.04-.6-2.64-1.47-.28-.57-.57-1.16-.28-2.01,0-.88.6-1.45,1.16-1.76l.28-.28.31-.28c4.05-2.61,8.99-4.65,14.2-6.09,1.16-.6,3.2.57,3.49,2.01.31,1.47-.57,3.2-2.01,3.49-4.93,1.47-9.01,3.2-12.78,5.53v.28h-.28c-.6.28-.88.6-1.45.6Zm52.24-6.09c-.28,0-.28-.31-.6-.31-4.93-.85-9.58-1.45-14.51-1.73.31,0,0,0-.28,0-.88-.28-1.45-.6-2.04-1.16-.28-.6-.57-1.16-.57-2.04,0-1.45,1.73-2.61,2.89-2.61h.6c4.65.28,9.86.88,15.08,2.04,1.47.28,2.61,1.73,2.32,3.17-.28,1.47-1.45,2.64-2.89,2.64Zm185.74-27.58h-.28c-.88-.28-1.45-.6-2.01-1.16-.31-.6-.6-1.45-.6-2.04,0-.28.28-.28.28-.28v-.28c.6-4.93.88-9.58.88-14.51,0-1.47,1.45-2.92,2.89-2.92h.31c.57,0,1.45.28,2.01.88.31.57.6,1.45.6,2.32,0,5.22-.6,10.46-.88,15.08h-.28v.31h0c-.28,1.45-1.45,2.61-2.92,2.61Zm.6-38.89h0c-1.76,0-2.89-1.16-3.2-2.64v-.85h0c-.28-3.77-.57-7.57-1.16-11.62v-2.61c-.28-.88,0-1.45.6-2.04.28-.85,1.16-1.16,1.73-1.16,1.45,0,3.2.88,3.49,2.61.6,5.24.88,10.46,1.45,14.82v.28c0,1.73-1.16,3.2-2.89,3.2h0Zm-4.65-38.61c-1.45,0-2.61-1.16-2.89-2.61h0v-.31l-.31-2.01c-.57-4.08-1.16-8.42-1.73-12.78,0-.88.28-1.45.57-2.04.6-.57,1.16-1.16,2.04-1.16h.6c1.16,0,2.61,1.16,2.61,2.64l.57,4.62c.6,3.2.88,6.69,1.45,9.89v.57c.31,1.45-.85,2.89-2.3,3.2h-.6Zm-4.37-38.61h-.28c-1.45,0-2.89-1.16-2.89-2.61v-.31c-.6-6.09-.88-10.74-1.16-15.08,0-.6.28-1.45.57-2.04.6-.57,1.47-.88,2.32-.88,1.45,0,2.92,1.16,2.92,2.64.28,5.22.57,10.74,1.16,14.8v.28c0,1.76-1.16,2.92-2.64,3.2h0Zm-1.45-38.9h-.28c-1.45,0-2.61-1.45-2.61-2.91v-.58c.57-5.51,1.16-10.45,2.04-15.08.57-1.46,2.01-2.32,3.46-2.04.88,0,1.47.58,1.76,1.16.57.58.57,1.45.57,2.32-.85,3.77-1.45,8.7-2.01,14.21v.58c-.31,1.46-1.47,2.32-2.92,2.32Zm196.52-14.21h-2.92c-.85-.3-1.73-.58-2.01-1.16-.6-.58-.88-1.16-.88-2.04,0-1.45,1.45-2.89,2.89-2.89h.31l.28.28h2.32c4.34,0,8.11-.58,11.59-1.16,1.76-.28,3.2.58,3.49,2.32.28,1.45-.57,2.91-2.32,3.19-3.77.88-7.82,1.46-12.76,1.46Zm-26.13-3.2c-.28,0-.57-.28-.57-.28-4.65-.86-9.58-2.03-14.82-3.49h-.28v-.28c-.88,0-1.45-.58-1.73-1.16-.6-.88-.6-1.46-.28-2.32.28-1.45,2.01-2.32,3.46-2.03.31.28.31,0,.6.28,4.05,1.16,8.7,2.32,14.23,3.49,1.45.28,2.32,1.74,2.01,3.49-.28,1.16-1.45,2.31-2.61,2.31Zm58.05-10.45c-.88,0-1.45,0-1.73-.28-1.45-1.16-1.76-2.91-.88-4.07l.28-.3c0-.28.28-.28.28-.57,2.04-3.2,3.8-7.26,4.65-12.2.31-1.45,2.04-2.61,3.49-2.31,1.45.28,2.61,1.73,2.32,3.47-1.16,5.81-3.2,10.74-5.81,14.81q-.28,0-.28.28h0c-.57.88-1.45,1.16-2.32,1.16Zm-95.49-.28h-.88c-4.05-1.46-8.39-2.91-14.2-4.93h0c-.31,0-.6,0-.6-.3-1.45-.58-2.01-2.03-1.73-3.49.57-1.45,2.32-2.32,3.77-1.74h.28l1.76.58c4.05,1.46,8.42,2.91,12.47,4.07,1.45.58,2.32,2.32,1.73,3.77-.28,1.16-1.45,2.04-2.61,2.04Zm-121.91-8.42c-.57,0-1.16-.3-1.73-.58-1.16-.88-1.73-2.62-.88-3.77,0-.3.28-.58.28-.58,2.92-4.37,6.69-8.14,11.05-11.32,1.16-.88,3.17-.88,4.05.58.88,1.16.57,3.19-.6,4.07-3.77,2.89-6.94,6.09-9.55,9.86q-.31,0-.31.28h0c-.57.88-1.45,1.46-2.32,1.46Zm85.06-4.07q-.6,0-.88-.28c-5.22-1.74-9.86-3.2-14.23-4.37h0l-.28-.28h-.28c-1.45-.58-2.04-2.03-1.76-3.49.6-1.45,2.04-2.61,3.77-2.03l.31.28h-.31l.31-.28h0c4.65,1.74,9.58,3.19,14.2,4.63,1.47.58,2.32,2.32,1.76,3.78-.28,1.16-1.45,2.03-2.61,2.03Zm-37.44-11.03h-.6c-5.22-1.16-10.15-1.74-14.2-2.04h-.31c-1.73,0-2.89-1.45-2.89-2.89.28-1.74,1.73-2.91,3.2-2.91h.57c4.37.28,9.3,1.16,14.8,2.32,1.76.28,2.61,1.74,2.32,3.47-.28,1.16-1.45,2.04-2.89,2.04Zm175.88-13.65c-1.45,0-2.61-1.16-2.61-2.61l-.28-.3c-.28-2.61-.6-5.8-1.16-8.99-.28.28-.6.28-.88.58-4.93.86-10.15,1.15-15.39.86h-.57c-.6,0-1.45-.3-2.04-.86-.28-.58-.57-1.46-.57-2.04,0-1.74,1.16-2.91,2.89-2.91h2.92c4.05,0,7.82-.28,11.59-.86h1.16v-.3c-.28-1.73.88-3.19,2.32-3.47,1.45-.3,3.2.86,3.49,2.32.88,5.8,1.73,10.73,2.04,15.08v.3c.28,1.74-.88,2.91-2.64,3.19h-.28Zm-43.54-15.38c-.57,0-.88,0-1.16-.3-4.34-1.45-8.99-3.77-13.63-6.68q-.28,0-.6-.28c-.57-.3-1.13-.88-1.13-1.74-.31-.88,0-1.45.28-2.03.85-1.46,2.61-1.74,4.05-1.16l.28.28c4.37,2.61,8.73,4.65,12.78,6.39,1.45.58,2.32,2.32,1.73,3.77-.28,1.16-1.45,1.74-2.61,1.74Zm60.37-3.49c-1.16,0-2.32-.58-2.61-1.74-.28-.58-.6-1.45-.28-2.03.28-.88.85-1.46,1.45-1.74h.28c4.37-2.32,8.42-4.93,12.47-7.55,1.16-.86,3.2-.58,4.08.58.88,1.46.57,3.2-.6,4.07-4.62,3.19-8.99,5.81-13.04,7.84h-.31v.3c-.57.28-1.16.28-1.45.28Zm-92.57-17.7c-.88,0-1.47-.3-2.04-.88-3.49-3.47-6.97-6.96-10.18-11.03h-.28v-.28c-.28,0-.28-.3-.28-.3h0c-.88-1.16-.57-2.91.57-3.77.88-1.16,2.92-.88,4.08.28h0v.3c3.17,3.77,6.66,7.26,10.15,10.74,1.16.86,1.16,2.89,0,4.05-.57.58-1.45.88-2.01.88Zm67.91-1.16c-1.45,0-2.32-.88-2.92-2.04v-.28h0c-2.01-4.93-3.77-9.28-6.09-13.35-.28-.58-.28-1.45,0-2.32.31-.58.6-1.16,1.45-1.45,1.16-.88,3.2-.3,3.8,1.16,2.61,4.63,4.62,9.28,6.09,13.93,0,0,.28,0,.28.28.57,1.46-.28,3.19-1.76,3.77-.28,0-.57.3-.85.3Zm55.44-4.65c-.88,0-1.47-.28-2.04-.86-.6-.3-.88-1.16-.88-1.74,0-.88.28-1.74.6-2.04l.28-.28v-.28c3.2-3.2,6.09-6.69,9.58-11.04.88-1.16,2.61-1.45,4.05-.58,1.16,1.16,1.45,2.91.6,4.07-3.49,4.35-6.69,8.12-9.89,11.32v.28l-.28.3h0c-.57.58-1.16.86-2.01.86Zm-147.76-24.38c-.85,0-2.01-.58-2.32-1.46h-.28v-.28h-.28c-2.89-5.23-5.22-9.28-6.97-13.07v-.58c-.57-1.45,0-3.19,1.45-3.77,1.47-.58,3.2.3,3.8,1.74h.28v.3c1.45,3.77,3.77,7.54,6.66,12.19v.28c.88,1.46.6,3.19-.85,4.07-.31.28-.88.58-1.47.58Zm72.87-4.65c-.88,0-1.76-.28-2.04-1.16h-.28v-.28c-3.2-3.77-6.69-7.26-10.18-10.46-1.16-1.15-1.16-2.89,0-4.05.88-1.16,2.92-1.16,4.08-.3,3.49,3.2,6.94,6.97,10.43,11.32h.31v.28c.85,1.16.85,2.91-.31,4.07-.57.3-1.45.58-2.01.58Zm97.51-2.32c-.57,0-1.16-.28-1.45-.28-.57-.58-1.16-1.16-1.45-1.74-.28-.86,0-1.74.28-2.32v-.28h.28c2.32-4.95,4.65-9,6.41-13.07.57-1.45,2.32-2.32,3.77-1.74,1.45.88,2.01,2.32,1.45,4.07-2.04,4.35-4.05,9-6.69,13.35q0,.28-.28.58c-.28.86-1.45,1.45-2.32,1.45Zm-126.84-22.93c-.28,0-.85-.28-1.45-.58h-.28c-4.05-2.61-8.14-4.63-12.78-6.38-.85-.3-1.45-.88-1.73-1.74-.28-.58-.28-1.45,0-2.03.57-1.46,2.32-2.32,3.77-1.74,4.37,1.74,9.01,4.05,13.63,6.96h.6v.3c1.16.58,1.73,2.32.88,3.77-.6.86-1.47,1.45-2.64,1.45Zm-50.2-6.09c-.88,0-1.45-.28-2.04-.58-.57-.58-.88-1.16-.88-2.03-.28-.86,0-1.45.6-2.03,3.49-4.07,8.7-6.09,15.39-6.68.28,0,.57,0,.57.28q0-.28.28-.28c1.47,0,2.64,1.45,2.64,2.89,0,.88-.31,1.46-.6,2.04-.57.58-1.45.86-2.04.86-.28,0-.28.3-.57.3-5.22.28-9.01,1.74-11.31,4.35-.6.58-1.16.86-2.04.86Zm191.56-6.96h-.57c-.88-.3-1.45-.88-1.76-1.46-.57-.58-.57-1.45-.28-2.03v-.58c1.45-4.65,2.61-9.58,3.49-14.21.28-1.46,1.73-2.62,3.2-2.32.85.28,1.45.58,2.01,1.16.31.86.6,1.45.31,2.31-.88,4.65-2.04,9.58-3.2,14.51v.3c-.28,0-.28.28-.28.58-.6,1.16-1.76,1.74-2.92,1.74Zm6.41-38.32h0c-.88,0-1.76-.28-2.04-.86-.6-.58-.88-1.45-.88-2.03v-.58c0-2.04.28-4.07.28-6.09,0-3.2-.28-5.81-.28-8.42,0-.58.28-1.46.6-2.04.57-.58,1.45-.86,2.01-.86,1.76,0,2.92,1.16,3.2,2.61,0,3.49.28,6.09.28,8.72,0,2.31,0,4.35-.28,6.38h0v.58c0,1.46-1.45,2.61-2.89,2.61Zm-3.49-38.59c-1.16,0-2.32-.88-2.61-2.04h-.31v-.58c-.85-4.05-2.32-8.7-4.05-13.93-.28-.58-.28-1.45,0-2.03.28-.88.88-1.16,1.73-1.46,1.16-.57,2.92,0,3.77,1.74,1.47,4.65,3.2,9.58,4.37,14.51h0v.3c.28,1.74-.57,3.19-2.32,3.49h-.57Zm-42.69-29.9c-1.45,0-2.89-1.16-2.89-2.61-.28-.88,0-1.74.57-2.32.6-.58,1.16-.86,2.04-.86h.28c4.65-.58,9.01-1.74,13.95-3.49,1.16-.58,3.2.28,3.49,1.74.28.86.28,1.74,0,2.32-.28.57-.88,1.15-1.76,1.45-4.93,1.74-9.86,2.91-14.8,3.49q-.57.28-.88.28h0Zm-23.5-1.45c-.28,0-.6,0-.6-.3-4.93-.86-9.55-2.61-14.51-4.93l-.57-.28c-.57-.3-1.16-.88-1.45-1.74-.28-.58-.28-1.46.28-2.04.6-1.45,2.32-2.03,3.77-1.45h0q.28,0,.28.28c4.37,2.04,8.73,3.49,13.35,4.65,1.76.3,2.64,2.04,2.32,3.49-.28,1.45-1.45,2.32-2.89,2.32Zm51.67-4.35c-1.16,0-2.04-.58-2.61-1.46h0v-.28c-2.92-4.37-5.53-8.14-8.42-11.9-.6-.58-.88-1.16-.88-2.03.28-.88.57-1.46,1.16-2.04,1.16-.86,3.17-.58,4.05.58,2.92,3.49,5.81,7.55,9.01,12.49v.28c.85,1.16.57,2.91-.88,4.07-.6.3-.88.3-1.45.3Zm7.54-8.72c-1.16,0-2.04-.28-2.61-1.16-.88-1.45-.6-3.19.85-4.05h0l.31-.3c3.77-2.61,7.54-5.23,11.59-8.7,1.16-.88,3.2-.88,4.08.28,1.16,1.46.85,3.19-.31,4.07-3.77,3.19-7.82,6.38-12.19,9.28h0c-.57.3-1.16.58-1.73.58Zm-92.89-5.51h-.28c-.6,0-1.16,0-1.76-.58-4.05-3.49-7.54-7.54-10.43-11.61h0l-.28-.3c-.31-.58-.6-1.45-.31-2.03,0-.86.6-1.45,1.16-2.03,1.16-.88,3.2-.58,4.08.58v.28h0c2.89,4.07,6.09,7.55,9.58,10.74.57.58.85,1.16,1.16,2.03,0,.88-.31,1.46-.88,2.04-.6.58-1.45.86-2.04.86Zm59.81-15.09c-.6,0-1.16,0-1.76-.58l-.28-.28c-3.49-2.91-7.26-5.51-11.62-8.72-.85-.28-1.16-.86-1.45-1.74,0-.86,0-1.45.6-2.03.85-1.45,2.61-1.74,4.05-.86,4.05,2.61,8.14,5.51,12.19,8.99h.28v.3h0c1.16,1.16,1.16,2.91.28,4.07-.57.58-1.45.86-2.3.86Zm61.82-4.93c-.6,0-1.16-.3-1.76-.88-.57-.57-1.16-1.15-1.16-2.03,0-.58.31-1.45.88-2.03h0c0-.3.28-.3.28-.3,2.92-3.47,5.53-6.96,8.14-10.45l.88-1.16c.57-1.16,2.61-1.45,3.77-.58,1.45.88,1.73,2.61.88,4.07-2.64,3.49-5.81,7.54-9.3,11.9h0l-.28.28h0c-.6.58-1.47,1.16-2.32,1.16Zm-140.48-12.77h0c-.88,0-1.47-.3-2.04-.88-.6-.58-.88-1.45-.88-2.03,0-6.97,4.05-12.19,10.46-13.93h.28c1.45-.58,3.2.58,3.49,2.03.57,1.46-.6,2.91-2.04,3.49h0c-4.34,1.45-6.09,3.77-6.38,8.42,0,1.74-1.16,2.91-2.89,2.91Zm45.83-2.62c-.28,0-.85,0-1.16-.28h-.28c-3.49-1.74-7.54-3.19-12.76-5.23-.31,0-.6-.28-.88-.28-.88-.3-1.45-.88-1.73-1.46-.31-.86-.31-1.45,0-2.31.28-1.46,2.01-2.32,3.77-1.74.28,0,.57.28.85.28,4.65,1.74,8.73,3.49,13.07,5.23v.28h.28c.88.3,1.16.88,1.47,1.46.28.86.28,1.74,0,2.32-.31,1.16-1.47,1.73-2.64,1.73Zm118.43-15.38c-.85,0-1.45-.28-2.01-.86-.6-.58-.88-1.16-.88-2.04-.28-.58,0-1.45.57-2.03l.31-.3h0c3.49-3.77,6.94-7.26,10.74-10.73,1.16-.88,3.17-.88,4.34.28.28.88.6,1.46.6,2.32s-.6,1.45-1.16,2.03c-3.49,2.91-6.97,6.39-10.18,9.88v.28h-.28c-.57.88-1.16,1.16-2.04,1.16Zm30.19-24.09c-1.16,0-2.01-.58-2.61-1.45-.28-.58-.57-1.46-.28-2.32.28-.58.57-1.16,1.45-1.74h.28c4.65-2.91,9.01-4.93,13.35-6.96,1.47-.88,3.2,0,3.8,1.15.28.88.28,1.46.28,2.32-.28.58-.88,1.16-1.45,1.74-5.53,2.62-9.58,4.65-13.07,6.68h0q-.28,0-.28.3c-.6.28-1.16.28-1.47.28Z"/></g></svg>