<?xml version="1.0" encoding="UTF-8" standalone="no"?><svg xmlns="http://www.w3.org/2000/svg" xmlns:xlink="http://www.w3.org/1999/xlink" contentScriptType="text/ecmascript" fill="#000000" width="1581" zoomAndPan="magnify" contentStyleType="text/css" viewBox="0.0 0.0 1580.8 1507.9" height="1508" preserveAspectRatio="xMidYMid meet" version="1"><g data-name="Layer 2"><g fill="#c9b8ff" id="change1_1" data-name="Layer 1"><path d="M525.81,1007.69l-.21-.11c-.13.07-.25.12-.34.18Z"/><path d="M1561.8,1339.11l13-16-16.38-11.79c-.15-3.62-4.52-8.75,3.41-8.4.19,2,.38,3.94.63,6.61l8.36,1.43-6.67-9.19-2.18,1.06v-4.19l-15.47-11.89c-2.76-9-4.85-16.43-7.43-23.83-.51-1.47-2.66-3.45-4.5-4.32-3.19-1.51-6.72-2.33-10.56-3.59-3.07-9.34-11.8-17.11-18.84-25.57-6.67-8-12.15-16-23.87-21.18-.67-3.44-1.27-6.52-2-10.1l-15.39-10.58c-.56-3-1.13-6.09-1.82-9.77-15-6.31-20.8-17.59-28.53-27.93-3-4-6-9.31-10.27-11.22-6.77-3-9.29-6.37-11.6-11.41-1.38-3-5.57-7.57-8.5-8.14-10-1.95-8.58-10.88-16.77-14-6.65-2.51-6.6-10.64-14.44-13.29-2.71-10.08-15.8-15.35-21.22-24.94-10.44-.39-15.33-6.6-21.4-14l8.6-2.29-22.61-15.4c2.24-4.64,4-8.21,6.74-13.92,4.29,6.54,7.18,10.93,10.77,16.39l29.9,10.35,2,6.19,29.51,1.07-6.14,4.45,3.34,3.19-4.23,5.63c5,2.44,10.07,4.17,13.82,7,3.47,2.66,5.48,6.54,11.13,8.72v-21.58l12.31,6.16,1.72,7.59,25.64-9.79c7.09,6.17,13.39,6.94,20.12,1.42l-10.35-6.56c2.46-3.51,4.09-5.85,5.73-8.18l-3.51-1.7a15.08,15.08,0,0,1,3.86-1.24,43.07,43.07,0,0,0-1.85-6.49c-.84-2.22-1.89-4.44-3.3-7.7,13.13,2.78,8.88,9.86,15.69,14.77-4.87-.14-6.8-.2-10.54-.58a7.72,7.72,0,0,0-.35,2.94l14.88,11.65c3.73-1.61,8.28-3.2,11.64,1.7l18.48-12.18,6.92-13.08-9-4.78-2.87,1.42-1.95-4.55,13.72-6.35,18.69,3.27,2.27-1.3-12.1-10.24-16.32-2.84-8.5-10.78-12-2.07c-3.49-3.8-7.29-7.94-9.18-12.92-4.8,1.09-8.24,2.08-13.41,3.57-.45-3.51-.71-5.61-1.06-8.34,5.35,1.29,9,2.17,14.47,4.77,4.68,3.09,7.84.3,11.44-2.51-1.48-2.5-2.83-4.76-4.13-6.94,6.51-2.38,11.17,2.42,16.41,4.93l1.41-2.45,2.88,3.17-4.29-.72-9.64,4.2c4.19,1,7.51,1.41,10.59,2.55,2.19.8,4,2.52,7.64,4.87V990.5l17.65-1c-1.63-6.79-3.17-13.17-4.7-19.55l.37.34,3.53-1.68-1.36-1.25-3,2.16.18.17-13.48-10.09c1.25-3.19,2.45-6.28,3.92-10a29.66,29.66,0,0,0-4.17-4.9,34.44,34.44,0,0,1-5.34-3.7l-6.76,3.08c.54-3.87.73-5.28.94-6.79l11.51.52c.73-3.47,1.3-6.21,2.21-10.52l10.91,7.66c-1.41,2.45-1.92,5.1-4,6.4-2.36,1.49-6.07,1.79-9.51,3.35,7.75.93,12.31,3.56,14,9l11.15,1.81c4.62-4.2,13.34-5.61,15.81-13.37l-21.49-3.44-.88-2.08,12.13-3.17c6.26,2,13.41,8.66,22.35,5.46-.19-1.38-.39-2.89-.62-4.53L1555,935.5c-.84-1.83-2-3.12-1.66-3.81,1.91-4,4.18-7.84,6.3-11.67h5.74c-1.59-8.16-3.11-16-4.8-24.7-2.39-3.32-6.11-7.64-8.65-12.17-5.79-10.36-15.18-16.41-29-17.88,0,1.62,0,3.24,0,5l8.88,4.45c-9.66,1.54,6,9.36-2.68,11-11.82-1-8.68-12.18-17.77-15.07-6.79,6.2-6.36,6.15-3.71,11.77,2.53,5.34,9.52,10.54,4.87,17.41-5.94-2.09-12.13-4.43-18.42-6.37-1.7-.53-3.74.13-6.23.28v10.71l-10.41-9.57L1458.92,887v-14c-10.92-3.48-21-6.74-21-17.08l.38.34,3.42-1.73-1.32-1.2-2.92,2.18.32.29c-6.85-3.43-5.81-8.47-8.59-12.5l12.13,1.77,2.41,5.56,13.91-1.71,2.1,2.77-7.89,4.92c8.69,7,11.89,8.5,22.79,10.45l4-6.75c7.77,4.49,11.32,12.6,20.88,10.54,3.28-3.37,6.88-7.08,10.71-10.9a4.85,4.85,0,0,1-.61.4l-3.51-2.78,1.35-.82a24.33,24.33,0,0,1,2.77,3.2c4.07,1.83,8.38,3.54,12.69,5.26V853.42l9.47-1c-5.31-2.8-9.55-5-14-7.46.09.06.37.31.65.56l-3,2.22-1.36-1.22a21,21,0,0,1,3.71-1.56c.2-.87.8-2.33.09-3-2.59-2.28-6.07-4.06-8.36-6.45-2.05-2.13-3-4.82-4.43-7.24-1.79-2.94-3.66-5.85-5.7-9.09l-22.24,3.09-9.61-4.69c0-3,0-6.6,0-11.84l14.23-2.33L1464,773.37l-8.34-1.11c-1.66,3.8-3.39,7.78-5.12,11.77l6.32.85c1.78,2.88,3.55,5.77,5.59,9.08-3.19,6.57-12.31,1.79-20.31,2.45a57.13,57.13,0,0,1-.22,5.81,4.89,4.89,0,0,1,.59-.4l3.43,2.71-1.32.83a23.27,23.27,0,0,1-2.7-3.14c-2,.56-4.18,1.24-6.39,1.92l-6-5.46,8.65-1.9c-6.48-4.57-11.69-3.59-16.59,1.14l-10.42-10.61,17.17-3.92,3.91-6.35c-1-3.52-2.27-7.86-4-13.82l-19.94-22.72c3.26-3.51,6.07-6.5,8.77-9.56.21-.23-.37-.94-.74-1.77-7,2.38-14.66.73-23.14-.79L1379,709.67c7.34,3.62,19.25,2.79,17.32,13.05l11.34-2.91c-5.44-5.29-9.82-12.26-16.6-15.49-8.73-4.16-8.72-12.24-18.34-15.67-.61,3.67-1.29,7.74-2.13,12.8L1360,691.1l3.78-2.8c-5.74-3.12-15.41-2.13-16.68-11.32l7.92-1.59c0-2.35,0-4.82,0-8.41l-15.34-1.79c-.07-.51-.15-1-.22-1.53l16.62-2.88c-3.6-3.8-6.67-6.4-8.68-9.34-2.14-3.16-3.28-6.64-5.43-11.18a38.59,38.59,0,0,1-25.77-9.63c-1.69-5.18-3.22-10.57-5.31-15.87-.74-1.87-2.73-4.83-4.34-5.09-7.45-1.2-10.28-7.48-10.32-10-.12-6.38-12.56-5.37-10.12-12l-21.95-2.29c-.54,2.82-1.07,5.63-1.65,8.71l-14.38-15.85,5.76-1c1.38-10.93-2.48-17.89-13.7-23.57-.14-1.7-.3-3.67-.5-6.27-12.43-3.65-12.92-15.68-23.11-20.81a20.6,20.6,0,0,0-11.41-19.1c-5.63-3-8.35-7.57-13.86-10.59-4.84-2.67-6.15-9.47-10-14-3.32-4-8.26-7.07-11.82-10.91-1.72-1.85-1.93-4.55-2.43-6.37-8.18-4.49-15.65-8.82-20.12-11.42-4.09-6.52-6.75-10.74-9.56-15.21l5.65-.52,6.64-14.07,5.47,4.59-4.94,5c4.29,3.87,10.86,4.47,13.3,10.21,2.29,5.36,4.26,9.52,1.1,12.87,1.06,3.37,1.79,5.7,2.46,8.59a83.47,83.47,0,0,1,11,.46l-.34.25c.88.91,1.77,1.81,2.66,2.72l1.2-.86-3.12-2.39-.37.26-8.19-10.86c1.36-1,2.07-1.64,2.21-1.56,4,2.13,8,4.34,12.07,6.59l2.88-2.06,10.14,4.77v6.3l8.67,4-4.39,5.88,6.43,5.68c-.07-7.46,4-12.06,13-16.11-1.87,4.75-3.14,7.95-4.69,11.88,4.88,1.79,9.74,3.88,14.82,5.25,1.13.31,2.81-1.18,4.48-2.22l-3.13-2.38,1.23-.87a20.56,20.56,0,0,1,2.51,2.88c2.86,1.61,5.92,3.09,9.78,5,3.58-5.85-.6-13.27,4.48-19l-6.53-1.56c.11-.65.23-1.31.34-2a17.69,17.69,0,0,1,7.41,2.31v0l0,0c2.37,1.4,4.8,1.61,10.89,2.12l-14.35-9.3c-1.82-3-3.14-8.34-10.52-12.87a53.63,53.63,0,0,0-1.65,6.45,51.18,51.18,0,0,0-.06,5.78l-5.84,4.14c-10.78-10.41-18.11,3.21-29,.14,5.65-6.8,10.41-13.59,7.36-21.16,6.27-7.43,14.65-3.5,22.23-3.58l2.58,6,9.73.78-4-8-20.69-7.22,12.32-2.69,12.22,7-3.82-17,18.1,14.86-10.41,3.18,8.33,10c-5.77,2.63-2.84,7.76-3.28,13.16l15.65,1.28L1263,468l11.36-2.46,10.21,12.82,16.53-14.52c3.15,4.59,11.52,6.57,9.26,14.22l-6.52-5.19c-.34,3.53-.61,6.33-.85,8.77l20.71,7.28v7.84l2,.43c.51-1.46.54-3.25,1.67-4.29s3.21-1,5.29-1.61l4.25,7,3.53-2,22.92,8.17c.85-12.23-8.31-21.82-12.12-30.92l-13.5-8.81,5.47-5.46-6.63-2.25c-1.76-4.32-3.5-8.59-5.7-14l12.34-6.14c2.3-5.68-10-2.88-8.47-9,.57-2.34-4.09-5.83-6.9-9.49l-16.77,8.94c1.58-5.42-4.43-8-7.65-11.19l3.66-4.73-7.65-.56c.76-2.67,1.44-5.07,2.36-8.33-1.78-2.36-6.66-6,1.77-8.21-5.79-4-10.65-3.42-14.83.67-.84-2.13-1.87-3.43-1.45-3.95,2.62-3.27,4.65-6.49,4-10.84-.53-3.56,2.14-5.39,5.82-6.35,2.61,5.3,4.35,8.84,6.25,12.68,6.7-3.29,12.18-5,18.7,1.91.52-4.75.92-8.44,1.3-11.91L1311,371c-2.57.89-5.19,2-8,2.68-.86.23-1.94,0-4-.17l.14,0-4.85-7.64,11.72-6.18a2.23,2.23,0,0,0-1-1.41c-5.47-2.51-11-4.85-16.55-7.27-2.77-1.22-5.49-2.5-8.1-3.69,1.26-3.85,2.38-7.26,3.59-11l-16.15-8.86c0-3.5,0-7.35,0-11.24l-9.63-1.4c-11.38-13.6-31.78-20.29-39.08-35.64l-10.76-.54L1196,265.48l-8.91-.42c-.49-1.41-1-2.79-1.84-5.32-9.78-1.46-19.28-5.16-25.68-12.83l4.07-3.08-18.87-9.65c-8.33-15.84-13.56-19.32-32.83-21.14-5.11-10.09-15.24-16.18-26.82-22l-11.61,4.24c0,1.62,0,3.11,0,5.35,1.49-.4,2.73-1.9,4.5-2.58s4-.48,6-.67c-3.07,2.71-4.34,8.67-10.49,3.25a40.79,40.79,0,0,0-7.23-5l2.79-2.92c-2.44-5.42-5.06-11.27-8-17.84l-12.22,2.47-2-1.79-7.54,2.92c-4.15-5.77-11.32-8.8-16.89-13.47-4.89-4.08-11.88-6.43-17.89-9.52l-11.15,6.84c-1.35-1.3-2.71-2.13-2.56-2.53,1.28-3.46,2.84-6.83,3.87-9.22L976,134.83l-16.19-4.36c.51-10.59-16.13-5.71-19.43-14.21l-18.77-.42-2.7-5.62-5.21-.11,3.65,7.58-6.65,1.16c-.52-3.91-1-7.51-1.55-11.61l-20.59-9.3-8.49-.16-6.68,8.52L859.05,91.61l-7.18-.8c.13-1.75.24-3.38.44-6.14l18.2,7.63,2-4.65-7.13-3.12L869,81.16l-12.15-6.81L852.1,77.9l-14.83-13-7.46,8.34-8.75-.13,3.36-3.41L808.24,53.23l4.53-6.87c-5.16-1.6-9.4-3.91-13.68-4-7.87-.22-14.19-2.2-20.05-6.73-2.22-1.72-6.26-1.69-10.09-.77l6.68,2.84c-5.14,7.95-10.23,15.85-15.4,23.85l-4.59-.06c-.59,4.69-1.18,9.39-2.06,16.36-.27-.44.88,1.45,1.86,3.47a5,5,0,0,1,.46-.41l2.66,2-1,.87a16.8,16.8,0,0,1-2.09-2.46c-8.68-.94-15.24-6.42-23.92-9.59l-3.78,7.45c-.73-3.76-1.18-6.07-1.46-7.54l-7.21-6c6.52-3.39,9.67-.72,13.63,2,3.25,2.26,8,2.9,12.57,4.41,0-3.84,0-7.91,0-12.56L740,57.86c-.39-2.38-.82-5-1.41-8.54l-8,3c-.31-1.12-.71-2.59-1.13-4.12l6.27-2c.26-2.13.54-4.33.85-6.8l12.1-3L759,27.36c-3.83-2.52-8.39-5.52-13.12-8.65L730.33,23c-.31,1.74-.75,4.3-1.23,7.07-1.08-.5-2.42-.83-2.43-1.18-.14-4.18-.08-8.36-.08-12.54-7.4,1.06-9.31-5.14-15-8.53L708.8,14c-10.31-3.1-6.68-9.19-8.38-14h-8.1c-2.56,6.57-.15,12.38,5.65,17.92l-5.92,1.7c0,2.38,0,4.88,0,9.11l11.08-6.6c3.86,4.92,9.6,9.45,10.59,16.39l-7.29.44,6.06,10.36c.73-4.83,1.14-7.54,1.54-10.25C718,45,717.84,45.15,713,51.82l-20.42,2.45-11.75-5.39c-1.3,2.29-2.34,4.12-3.76,6.65l-15.6-16.85-11.19-1c-1.2-2.93-2.51-6.11-4-9.86l-14.3-3.54c-1.86,5.05,4.19,6.51,6.15,10.57l-6.53.62c-5.78-2.47-8.59-9.73-17.07-9.31-1.75.08-3.81-4.55-6-7.29-4.81,8.4,6.85,11.2,6.26,17.32a58.08,58.08,0,0,1-2.37,10.94,60.29,60.29,0,0,0,5.18-3.3c4,1.78,8,3.25,11.55,5.24,1.43.8,2,2.76,3.83,5.33-8-2.31-14-4-20.56-7.27.09-.74-.78-.43-2.47.17,1.23,2.63,2.46,5.25,4.41,9.43-5.11-1.88-10.39-1.78-12.05.94-2.46,4-4.47,7.42-9.29,7.89.77,3.26,1.49,6.35,2.52,10.78l-19.79-3.68C577.9,79,580,83.33,585.49,85.53l-8.85,3.65c0,2.24,0,4.48,0,7.48-1.69.18-3.53.71-5.27.47s-3.42-1.22-5.27-1.93L553.55,99,551,96.87l-3.08,2.51-2.68-2.47-5,7.53c2,.19,6.6,2,10.94-2.39l4.35,5.22,15.44.34c-1.4-1.6-2.21-2.52-3.58-4.06l4-.92c2.27,3.88,3.68,7.61,6.32,10.42s1.45,5.86,1.9,8.8l-8.31,1.71-2.11-5.47c-1.19,2.55-1.9,4.09-2.67,5.75-8.76,2.39-11.63-6.76-19.2-7.38-.24.66-.8,2.17-1.36,3.67l-5.56,1.79,4.91,5,4.36-7.29,7.2,6.6-4.21,2.94.1-.09-2.09-2.26-.94.83,2.44,1.95.24-.21-2.26,4.25,10.26,11.49L558,147.64l11.27,1.41L573.52,161c-1,1-2,1.89-3,2.82,5.07,2.42,10.07,4.81,15.22,7.35-.06,0-.26-.22-.46-.4l2.13-2.15,1,.89a16,16,0,0,1-2.63,1.66c-.62,2.72-.09,5.93,3.1,6.75,5.45,1.39,6.09,5.66,8.44,9l-5.21,1.67c2.41,7.18,10.23,3.47,16,6.35l-6.81,8.78c0,2.48,0,6.44,0,11.34l6.83.62a33.45,33.45,0,0,0,.32-14.43c9.66,4.25,14,11.46,17.65,19.57,6.85,1.72,10.41,5.95,8,14.47l9-4.28c1.35,1.86,2.72,3.73,4,5.6.5-.43,1.05-.87,1.6-1.3,1.43,2,2.86,4,4.74,6.72l-6,.06c-.18-2.21-.31-3.85-.39-5.48l-9.91-.48,4.15,5.07c-1.09,1.83-2.32,3.9-3.54,6l4.86,2.26,9.77-3.81c3.45,1.4,6.89,2.84,10.3,4.27,0,.92,0,1.83,0,3l-5.5,1.38,13.24,13.85c1.34-.92,2.41-1.67,6.06-4.22-2.18,4.95-3.27,7.41-4.12,10,11.88,6.36,19.57,12.55,17.86,14.09l-12.27-.71c0-2.84,0-5,0-7.47l-5.37,2.08c0-2.84,0-5.47-.23-8l-11.25-5.64-8.29,3.31c6,3,8.89,8.86,13.82,11.69,5.9,3.39,9.91,7.92,14.88,11.74l-3.62,3.51,12.39.73c.33-1.81.78-4.28,1.25-6.89,5-.48,9-5.69,15.38-1.48l-6.24,5.37,3.79,3.85L699.25,306l-3.73-3.16c-4.92,5.74,5.44,7.07,5,11.42l-.29-.27c-.87.59-1.74,1.18-2.6,1.78l1,.94,2.22-2.14-.26-.24c6.81,2.41,11.14,7.44,17.08,12.67l-7.55,3.35c6.12,4.72,10.15-1.23,15.36-1.18l-3.76-8.46,10.51,5.12-6.16,9.35c3.35,3.76,5.6,8.16,9.38,10.08,5.38,2.72,8.21,7,10.74,10.93,2.69,4.21,7.26,6,11.29,10.2.56-3.08,1-5.52,1.61-9,2.94.2,6,.42,9.31.8-.07-.05-.28-.24-.49-.44l2.28-2.15,1,1a16.6,16.6,0,0,1-2.82,1.63c3,3.49,6.07,7.15,10.06,11.83l-18.79-1.35C770.12,377,774,388.22,789.1,388.4c-2.11,3.84-3.53,6.43-6.08,11.05l10.46-2.12c.36,1,1,2.65,1.94,5.26,3.86.3,8.09.63,11.94,2.25.45-4.2.88-7,1.46-10.79L816,397.7a68,68,0,0,1-8.68,7.14c-.62.13-1.64,1.54-2.67,3l2.57,2.41-2.93,4.45,13.39,1.08c-1.54-3.67-5.93-7.15-2.14-11.16,11.72,4,11.72,4,19.44,13.73l-7.28,3.95c0,2.35.36,4.8-.16,7-.27,1.16-2.09,1.93-1.65,4.53l11.24-3c.46-2.46.94-5,1.64-8.7l8.26,4.88-9.91,7.34,4,6.2,4.93.42c1.56,5.42,7.08,7.22,11.94,9.64.29-2.82.57-5.64.79-7.77,3.72,1.15,6.56,2,9.56,3.05-.07,0-.29-.25-.51-.45l2.38-2.16,1.07,1a16.94,16.94,0,0,1-2.94,1.6c-.14,3.69,3.45,2.48,5.75,3.33,1.62.59,2.89,2.07,4.13,3.27,0-.05.27-.22.49-.39l2.79,2.26-1.08.81a19.35,19.35,0,0,1-2.2-2.68c-1.06.36-2.3.83-3.68,1.35.65,5.27,9.24,7.36,7.25,12.87-.39,1.06-1,2.06-1.42,3l-7.26-9.8-7.28,2.39c-1.51-1.52-2.93-2.93-4.46-4.45l9-2.84L858,450.63c-.38,1.94-.76,3.88-1.43,7.22l-18.07-13.6,2.63-3.68-9.89.76-34-24.31-3.82-.45L751.58,385.2l-4.81-.73c-8.54-7.84-16.12-16.76-29.06-19-9.19-10.68-23.78-15.07-34.38-24-3.25-2.74-7.43-4.69-11.34-6.72-9.82-5.08-19.35-10.39-26.64-18.63-12.92,2.11-18.53-8-26.28-14-11.41-8.77-23.1-16.81-36-23.41-4.71-2.4-7.91-2.56-12,.54-2.38-6.8-9.38-9.73-14.37-14.32-1-.95-3.83-.33-5.89-.45-7.72-7.51-15.22-15.26-27.9-18.72-7.28-7-16.12-14.26-26.59-16.69l-26.73-16.8c-.14-.18-1.71-4.38-4.5-5.38-13.9-5-24.27-17-39.82-18.1-1.13,2.08-2,3.69-3.75,6.92,0-5.58,0-9.39,0-12.87l-11.2-10.47-7.42,1.69-11-12.36-8.89-.3-15.79-15.72-26.83-4.87-3-2.92c0-2.49,0-5.05,0-7.09L318,120.33l-3.29,1.85c-6.93-.39-11-6-17.05-10-1.07,1.45-2.25,3-3.13,4.2q1.27,6.44,2.54,12.85l-2,1.16-.81-6.63-3,2.55c0-3.4,0-6.8,0-10.55l-9.89-4.53c-1.43-4.1-2.87-8.23-4.39-12.57l-3.7,3.2-10.36-6.12-15.68,12.64L242,104c2.24,5,3.27,7.29,4.18,9.34l10,.78c-1.72,4.21-3.26,8-5.09,12.51l-4.69-3.14c-2.7,1.21-5.58,2.52-8.74,4,1.11,4.29,2.19,8.49,3.34,12.93-10,3.78-16.48-7.24-25.47-4.56-.7-1.92-1.24-3.39-2-5.32l-3.24,2.32-5.59-8.46c-.3,3-.52,5.2-.81,8.18l15.74,7.29c0,1.9,0,5.14,0,8.39l7.14.23c.78-2.25,1.25-3.61,1.77-5.08l2.64,2.24,5.86-2.7c-2.62,5.12-4,7.88-5.22,10.22l-12.21,2.65-7.16,5.14-10.56-5.69-10,2.92,6.92,6.95c4.33-3.27,9.41-2.2,13.75-1.92,2.75,5.19,4.43,10.89,8.17,14.76,4.16,4.3,3.73,9.72,7.24,14.58l-6.44,4.16,3.46,3.81c-1.56,4.69-6.14,9.53-.76,14.62l-8.75,5.44-6.43-3.5c0-1.67,0-3.34,0-5.88l-8-.78-6.74,6.37c.87,1.72,2.24,4.39,4.05,8-1.91,1-4.43,2.3-7,3.6.34.67.68,1.34,1,2l-8.92-2.59c0,1.86,0,3.82,0,4.42l15,15.18c0,.84,0,2.49,0,4.22,9,3.4,8.13,15.65,17.86,18.43,1.08,4.68-1.39,9.93,2.92,14.06,3.36,3.23,6.5,6.5,7.61,10.47-1.11,3.28-2.09,6.14-3.35,9.85,5.36,1.06,10.29.4,14.08,4-.05,0-.22-.21-.39-.39l1.84-1.95.82.86a13,13,0,0,1-2.27,1.48c1.32,1.93,2.76,4,4.94,7.17,0,2.41,0,6.08,0,9.25l4.55,4.82c.52-2.65,1-4.93,1.51-7.57l8.93.63c.92,2.74,1.93,5.76,3.15,9.38l-6.93,13c2.66-.42,6-.06,7.67-1.46,1.89-1.56,2.29-4.73,4.13-9.06.61,3.2,1.1,5.82,1.59,8.44l4.1-1.81,4.8-9.61c8.62,3.59,8.62,3.59,18.75,14-3.53-1.05-5.28-1.56-7-2.09-2-.63-4.07-1.29-6.18-1.95l-4,6.81,11.9,4.52c1.39,2.86,2.82,5.79,4,8.24-1.67,4.27-7.86-1.28-8.34,4.06-3.78.38-3.62,2.75-1.45,4.64,1.41,1.23,4.05,1.13,4.13-1.87.76.36,2.12.68,2.18,1.07.41,2.86.56,5.72.87,9.42,2.61.22,5.15.42,7.82.78-.05,0-.23-.22-.4-.4l1.88-1.95c.29.29.57.59.85.88a13.51,13.51,0,0,1-2.33,1.47,38.66,38.66,0,0,0-2.77,4l10.39,7.45c.24,2.26.46,4.29.66,6.21l8.34,4.38a31.2,31.2,0,0,1,4-2.35,21,21,0,0,1,4.29-.69c-1.28-2.64-2.33-4.83-3.24-7.12a5.24,5.24,0,0,1-.4.35l-2.22-2,.86-.74A16.35,16.35,0,0,1,320.5,391c3.17,0,7.17,2.19,9-1.54l6.89,4.17c.91,5.43,1.79,10.86,2.53,16.29,0,.2-1.43.45-2.2.67,0,2.81,6,5.7.39,8.6,1.18,2.38,2.36,4.79,3.58,7.27l6.23.56c.38,2.28.77,4.65,1.16,7,7.18,3,13.15,9.1,23.09,8l-6.71,6,9.71,7.05c2.18-3,6.07-1.39,9.57-1.2,0-1.3,0-2.61,0-5l7.65,2.39,2.49-1.78,5.58,8.33L411.68,459c0,4.55,0,8.68,0,14.06l19.23-.68,5.7,6.9L434,483.15l5.17,5.69,4.6-7.59c1.43,3.53,2.35,4.69,2.15,5.52-.73,3.13-2.18,6.07-2.7,9.23a35.66,35.66,0,0,0,0,9.23c.07.73,1.55,1.49,2.53,2.24l-.2,0,3.6,6.09c-1,1.29-2,2.49-3.13,4l5,1.71c.26-3.58.49-6.79.77-10.59l-5.84-1.11,3-8.22c2.06,1.83,3,2.69,4.12,3.66l5.89-4.49,3.13,3.21c-.73,2.78-1.49,5.66-2.27,8.61,4,4,7.57,7.94,11.59,11.44,1.58,1.37,4.15,1.77,6.27,2.61l1-2.11,1.95,2.43,7.62-4.21c-.21,6.28,11.37,5.8,9.7,13.28-3.64.78-3.77-3.46-6.11-4.22-2.6-.84-5.28-1.36-8.3-2.1,1.29,5.15,2.28,9.08,3.82,15.2l-5.13-4.07-11,4.94c3.28,1.82,5.89,3.25,9.16,4.75.35-1.57.7-3.15,1-4.73l1.89.45a8.07,8.07,0,0,1-1.62,4.87h0l0,0h0a53.31,53.31,0,0,0,7.63,9.25c2.92,3,6.2,5.67,9,8.73,2.54,2.77,4.65,5.87,7,8.89l3.62-2.87c.87,10.18,10,14.63,16.78,20.8l8.15-2.37c-.94-3.25-2-6.85-3.38-11.67l5.21-2.34c.33.89.92,2.52,1.67,4.58l7.26,1.42c1.38,5.21,2.79,10.48,4.54,17l-7.16-4.56-6.79,4.65a8.1,8.1,0,0,0,4.64,2.3c1.66-.22,3.21-.38,3.3.19h0c1.53.73.93,1.66.49,1.55a13,13,0,0,1-1.78-.62c-2.4,1.88-2.42,3.06-2.42,4.39,4.86,2.9,9.52,2.84,16.06-.42l-4.22,9c5.78,5.3,11.05,11.23,18.18,15.38,1.16-2.53-2.79-7.24,3.56-7.37-2.3-7.26-13.82-9.3-14.65-18.75l14.2,6c-1.06.94-2,1.77-2.85,2.5l6.43,7.36a9.22,9.22,0,0,1-3.13,2.94c-1.68,2.13,2.28,6.85-3.56,7.37.35.81.69,1.63,1.37,3.21l10.15-2.44-2.76-6.54,1.57-1.18,31.29,24.42c1.52,3.51,3.07,7.12,4.76,11l4.23-2.64,4.33,8.61-7-.46,5.86,11c.72-4.8,1.11-7.44,1.52-10.13l8.6,6.78,5.1-1.79,4.25,7.11-4,3-6.74-4c-.94,2.22-1.59,3.72-2.23,5.23-16.79-7.31-29-19.7-42.47-31.27l6-1.35c.15-.92.72-1.94.33-2.57a40.43,40.43,0,0,0-3.57-4.47l-15-1.95,9.3,4c-.07,1.34-.16,2.88-.25,4.31-1.76-.06-3.1.28-3.65-.18-18.72-15.64-39-29-58.75-42.77-6.34-4.43-12.14-9.54-18.06-14.42-6.57-5.42-13.23-10.63-20.93-14.45a10.41,10.41,0,0,1-3.32-2.66c-6.4-7.86-15.08-12.53-24-17-3.68-1.86-6.74-5-10-7.61-.76-.6-1.24-1.64-2.06-2.05a151.59,151.59,0,0,1-27.58-18c-1.2-1-3.67-.52-5.52-.73-4.05-7.38-4.05-7.38-11.66-9.48l-11.07-11.54c-10.57.66-14.78-11.47-24.59-13.54-8.53-6.59-17.37-13.51-26.33-20.22-.93-.7-2.68-.36-3.55-.45-16.85-15.11-37-25.33-52.52-41.28-1.6-.15-4.14.34-5-.58-9-9.63-20.73-15.46-31.19-22.86-10.28-7.28-21.19-13.72-31.25-21-7.19-5.17-14-10.39-22-14a11,11,0,0,1-3.14-1.69c-6.59-6.35-6.57-6.37-15.47-6.53,2.32,2.13,5.13,3.05,6.1,6.38.45,1.54,5,2.05,7.44,3.44s6.44,3.19,6.71,5c1,6.54,6.77,7.48,10.78,9.23A48.59,48.59,0,0,1,219,401.78c.42.43.05,1.6.05,2.07,13.49,6.59,24.67,16.42,37.11,24.42,1.51,1,2,3.49,3.25,5.71l16.24,7.94,17.24,14.43,4.65-3,10,13.6,6.11,1.14,3.8,7.89c-7.77-2.18-14-7.4-19.76-12.26-7.74-6.56-18.41-8.83-24.34-17.48-8.89-.78-13.48-8.81-20.54-12.7-3.35-1.84-5.27-6.32-9.53-7.65l-1.87,1.62c-5.36-9.92-17-11.92-25.18-20.92,1.34,5.59,2.23,9.3,3.11,13l-2,1.16c-.65-1.92-1.3-3.85-1.94-5.77l-1.55,1.32c0-3.34,0-6.69,0-9.86l-9.38-6.95-4.12,2.62c-4.65-6-11.63-9.3-15.85-16.4l-12.8-4.32c-1.78-2.89-3.44-5.57-5.17-8.36l-2.76,2.47-11.27-4.32-10.74-12.71c-5.39-1.93-6.86,5.51-12.65,7.1-1.37-1.37-2.88-3.48-4.88-4.7s-4.46-1.54-6.73-2.26c-.23-2.09-.45-4-.86-7.64l-4.13,6.94,2.56,3c-.94,1.78-2,3.72-3.37,6.42l9.85,8.68-1,1.17c-.43,7.77,8.23,14.2,5.69,23.18-2.57-5.1-4.73-9.36-6.94-13.73L110,385.8c0-4,0-7.56,0-10.84-4.07-3.38-7.17-2.36-9.38.64l-8.45-4.87,3.13,8.07,9,4.87c0,2.36,0,5.09,0,7.45l-6.48,5.58-9.64-13.48-5,2.6c-.36-5.12-2.38-9.66-7.65-12.6l-10.69,2.63c1,3.39,2,6.7,3.06,10.31l-15-6.16-5.09,4.68,9.81,5c0,1.53,0,3.73,0,7.17l-14.08-10c.47,3.6.84,6.4,1.32,10-.37,1.26-1.09,3.68-1.81,6.1L54,411.8l-2.59,3.76,13,18.38L59,435.33c-.65-1.93-1.14-3.39-1.64-4.85-10.18-2.94-18.88-8.83-28.1-15.45-4.47-.66-10.06.34-14.67-4l-4.4,2.59-3.86-2.76-3.84,3.23,5.78,3.75-2.44,3c1.3,2.23,2.89,4.63,4.1,7.19.47,1,.07,2.32.07,4l5.36.53L19.27,438l1.62-1.75.75.83a10.92,10.92,0,0,1-2.06,1.35c.68,4,1.46,8.16,2.25,12.31s1.57,8.3,2.6,13.73l-5.05,2.33c0,3.94,0,6.63,0,9.7l-9.62-1.05c-.62-1-1.9-3-3.33-5.24-3,4.95-.48,7.81,2.81,10.77l4.22-1.57,7.44,4.52,2.85-2.28L29,486.18l-3.24,3.2c6.39.05,10.07,3.08,11.46,8.83l5.44.62c.31,3,.63,6,.94,9L48.11,510c-2.35,3.32-4.59,6.46-6.87,9.67l2.58,2.92L53,519.78c-2,4.32-3.43,5.7-7.31,7.33l3.49,3.94,9.79,1.19,5.27,6.85-6.46.41.21-.19-1.68-2.2-.77.68,2,1.94.23-.21c3.38,9.06,11.48,13.52,18.35,19.24l3.23-5.89c-.51-.63-1.26-1.58-2-2.54l5.48-2.12,5.77,4.19-6.34,6.05,2.47,3-5.5,1.21,5.36,4.6c-1.06,5.24,4,7,6.26,11.14,3.06-5.47-3.85-7.09-3.81-10.82l-2.45-.32.81-1.92c.55.74,1.1,1.49,1.64,2.24,5.17.2.38-6,3.79-6.86l2.42.31c.41.72,1.25,1.58,1.11,2.07a27.7,27.7,0,0,1-2,4.46l4.18,3.18c-1,3.1-1.74,5.33-2.63,8.08,4.48,4.37,6,11.25,12.77,13.43.83-1.63,2.13-3,2.48-4.76.45-2.17.12-4.59.13-9l4.47,5-3,9.26-4-.54c6.63,8.68,12.25,18.11,21.17,25l3-2.35c1.81,1.12,3.83,2.38,6,3.78a5.06,5.06,0,0,1-.37-.41c.58-.59,1.17-1.18,1.75-1.78l.8.89a12.19,12.19,0,0,1-2.18,1.3,15.49,15.49,0,0,0-.12,2.33l6.76,2.74,2.63-5.34c0,4,0,6.42,0,8.87l-6.86-1c.28,1.57.06,3.5.95,4.64,3,3.84,6.4,7.4,10.09,11.56l8.92,1.27c0,3.5,0,6.57,0,9.94l9.91,1.44c0-2.7,0-5.47,0-7.83,1.11-.73,1.66-1.45,2.33-1.47,3.89-.14,7.83-.12,12.66-.15l1.93,1.83,8.63-4.89c0,5.36,0,9.29,0,13.34-.17.1-.54.49-.76.39s-.59-.65-.93-1c-.57-.53-1.18-1-1.91-1.66-2.37,4.24-.69,8.44,1.63,12.66,1.89-.31,3.8-.6,5.68-.93,1.5-.26,3-.59,5.1-1l-5.67-3.48c.18-1.13.36-2.25.64-4l3,2.73c1.42-1.5,2.9-3,4.48-4.7,4.67,4.95,1.79,7.42-.3,10.08,1.29,3.8,2.58,7.61,3.89,11.49l9.07-1.66,11.58,13.72-11.17-2.84,11.5,15.45-8.93.23c0,2.74,0,5.54,0,8.72l3.39,3.82,2.74-2,10.22,8.54-3.58,4,4.07,4.59,6.82-2,6.77,6.65c.44-2.57.82-4.84,1.2-7.1,15.29,6,25.19,16.19,28.71,29.61l7.35,3.07,4.36-2.37c2.07,5.28,3.82,9.74,6,15.27l11.23.24c1.84,5.35,4,11.63,6,18l.39-.32,2.23,2.18-.86.67a17.6,17.6,0,0,1-1.76-2.53c-.74-.24-2-.1-2.44-.59-1.54-1.81-2.57-4-4.24-5.71-1.5-1.48-3.68-3.3-5.39-3.41-4.08-.26-3.11-3.76-4.63-5-2.89-2.38-6.72-3.63-10.15-5.34l.25-.2L288.1,768l-.85.67c.74.71,1.47,1.43,2.2,2.15l.25-.2L296.56,785l6.38-2.08-1.71,7.24c2.21,5.76,9.69,9.35,14,15.32.73,1,3.41.85,5.49,1.3,1.74,3.62,3.57,7.44,5.39,11.21l6.85,1.2-.25.19,1.91,2.45.86-.66L333.3,819l-.25.19c0-3.31,0-6.62,0-10.4,7.12,1.48,11.09,5.83,15,10.4l2.88-2c.29.33.88.73.89,1.05.15,7,2.18,14.52-1.85,21.3L373.93,863c1.51.27,3.81.69,6.24,1.27a4.19,4.19,0,0,1-.42-.45L381.7,862l.88,1a11.92,11.92,0,0,1-2.41,1.24c.91,3.36,1.95,6.87,3.18,11l13.5,5,.93-2,1.89,2.52c4.78,2.54,3.08,4.4-.21,6.68,3.85,3.76,7.66,7.49,11.61,11.39-.05,0-.24-.25-.42-.46l2-1.78.89,1a12.51,12.51,0,0,1-2.45,1.24c3.93,4.57,8,9.31,13.36,15.6,1,.18,3.7.7,6.41.93,0-1.9,0-4.1,0-6.29l2.45,2.64,1.56-6.18,1.08,1.22c0,4.13,0,8.26,0,12.83a60.84,60.84,0,0,0-5.07-4.22c.19,9.12,7.84,10.81,14.31,13.65-1-1.95-1.91-3.9-2.72-5.95a3.06,3.06,0,0,1-.41.32l-2.34-2.3.91-.66a19.81,19.81,0,0,1,1.84,2.64c2-1.93,4.2-4,7.05-6.62,4.56,6.82,13.09,10.53,16,19.48l-2.86,3.48,3.68,12.15,3.55.7c5.07-2.79-4.79-9.7,2.35-12,8.53,3,9.66,12.43,17.47,17.79-6.65-1.38-6.65-1.38-13.7-7.44l-4.61,6.52,11,11.73,6.59,1.32-3.73,3.41,8.56,2.89c3.31,5.89,7.18,11.92,15.11,15.75l1.08-4.77,1.91.62c-.17,1.68-.33,3.35-1.64,4.76l-.06,0,.06,0c-1.15,1.52-1.16,3.32-1.16,5.11,11.39,2,11.46,1.95,12-8.44a5.2,5.2,0,0,1-.43.32l-2.42-2.37.94-.66a21,21,0,0,1,1.91,2.71c3.54.85,7.25,1.6,11.74,2.51a39.51,39.51,0,0,1-.66,8.69,48.49,48.49,0,0,0,5.35-2.26c.57,4.56,7.61,9.4,3.13,13.49a78.29,78.29,0,0,1-8.48-11.23c-1.81-1.08-4.26-1.59-8.21-2.4l-7.5,6.46L509.13,998c-6.37-3.58-11.84-9.47-19.81-9.1-.84-10.17-11.85-10.92-16.79-17.12-5.74.32-8.39-4.57-12.09-7.74-4.48-3.84-8.41-8.2-12.82-12s-9.51-6.15-13.88-10.19c-8.43-7.81-17.46-15-26.51-22-7-5.45-14.39-10.44-21.8-15.24-1.87-1.22-4.58-1-7-1.47a77.36,77.36,0,0,0-20.05-17.94c-4.55-2.81-7.32-7.85-13.36-10-4-1.45-7.85-6.71-11.18-10.26-4.26-4.52-9.44-5.86-13.91-8.74-4.06-2.61-6.49-8.92-12.48-7.83-8.15-6.55-16.29-13.06-24.34-19.61-1.09-.89-2-3-2.84-3.06-9.93-.52-15.57-8.26-22.23-14.33-1.58-1.45-3.73-3.27-5.46-3.4-5.77-.45-10.36-4.74-15.7-6.28-.88-6.24-7.45-6.31-10.71-9.84-4.47-4.83-9.24-8.06-15.54-9.25-2.57-.48-5.28-2.68-7.61-4.52-7.78-6.15-15.88-10.9-25.49-10.79l-4.37-8-5.63,1.7c.61,3,1.21,5.94,2.15,10.5l-18-9.3c0-2.4,0-4.77,0-6.8L145,744.5a10.46,10.46,0,0,1-1.35-.73c-7-4.45-13.93-9-20.94-13.31-2.43-1.5-5.26-3.55-7.64-3.58-8.84-.12-17-8.54-26.69-5.65l5,2.48c0,2.7,0,5.73,0,8.81-4,1.57-8.36-7.86-12.47-.7l21.16,10.93L95.88,751l4,10.63,18.11-.44,4.52,10.15-18.79,1.46a34.77,34.77,0,0,0,.16,3.83c4.39.55,7,2.86,7.38,8.23L104,783.53c0-2.38,0-4.64-.14-6.95l-3.84-.66c-1.77-4-3-8.68-8.63-8.88l.22-.18-1.71-2.31-.78.64,2,2.06.21-.18c-.48,4.95-6.06-.87-7.25,2.76l4.69,2.42-4.08,4.61-4.54-4.31c-1.36,1.13-2.8,2.3-4.58,3.77l-8.84-1.08c.93,3.06,3.9,4.51,5.14,8.18.49,2.86-.9,6.4-4.87,6-4.89-.44-8.12,2.34-12.36,2.88l.2-.17c-.56-.76-1.12-1.53-1.69-2.29l-.76.63,2,2,.22-.18c0,2.8,0,5.61,0,8.28l12.55,15.16c-1-3.77-1.19-5.48-1.86-7.07-2-4.76-4.19-9.48-6.49-14.63,6.34,1.5,10.91,5.07,15.29,9.07.07-2.86,2.48-2.71,3.77-1.41,2,2,2.13,4.29-1.33,4.31.81,3,.8,6.64,2.62,8.87,2.7,3.31,2.11,6.09,2.1,9.26l.36-.3,2,2.08-.78.63a17.54,17.54,0,0,1-1.58-2.41c-1.15.43-2.44.94-3.68,1.43l-3.07-3.16c0,4.48,0,8.32,0,14,2.56-3.34,4.16-5.43,6.18-8,.4,2.69.74,4.91,1.07,7.13l8.66,5.61,3.9,13.88c8.34,8.37,16.19,16.57,24.42,24.43,8.78,8.39,17.86,16.53,27,24.64a20.78,20.78,0,0,0,5.21,2.88c5.24,5.64,9.14,11,14.1,14.85,5.11,3.94,9,8.72,13.49,12.93,4.66,4.42,8.81,9.77,14.52,13.68,5.26,3.61,8.63,10.43,13.34,12.11l17.07,18.33c-5.7.57-8.47-4.49-14.05-7.31l-6-1.26c-6.47-9.64-18.59-9.34-25.89-18.21-7.79-.2-14.76-5.1-21.73-9.49-8.6-5.41-16.74-11.84-25.48-16.59-6.56-3.57-13.56-6-19.94-10.17a48.12,48.12,0,0,1-3.87-3.23c-5.25-.28-11.31-3.16-17.75-1.51-6,1.53-5.51,9.32-11.55,9.84l-3.06-3c0,2.68,0,4.59,0,6.74l5.5,3.82-8-.47c2.62,7.51,8.78,11.55,15.12,16.85l-5.22,10.94,4.83,2.89-7.68,3.78c-.52,4-1.06,9.22,2.75,14.55-2.68,1.86-2.91-1.17-4.11-1.64s-2.5-.38-3.61-1a31.94,31.94,0,0,1-4-3c-2.55,2.93-.64,4.48,2.9,5.53.84,3.5,1.32,7.08,2.65,10.48,1.2,3.05,3.48,5.85,5,8.85s2.72,6,4.4,9.75c.8.6,3.15,1.6,4,3.2,3.36,6.08,6.21,11.84,13.72,14.52,3.61,1.28,3.56,4.44.61,10.53,7.8,6.18,12.15,15.24,18.1,22l7.39,1.75-7.74-6.64c0-2.83,0-5.59,0-7.92-5.87-7.24-5.87-7.24-7.35-12.49,9.62,3.74,15.58,10.52,17.51,20.68a39.73,39.73,0,0,1,7.59,2.4l-.68-.8c.11-1.43.22-2.87.38-4.82l4.81,1.44c-1.54,2-2.7,3.46-4.48,4.19h0c.05.07,0,.06,0,0a7.75,7.75,0,0,0,.92,2.83c-2.72,2.46-4.33,3-9.15,2.95.31,10.12,10.78,6.57,14,11.75l5.18-1.71,5.71,14-5.47.69c1.63,2.83,3,5.3,4.76,8.24l4.9-1.61,3.9,8.37-3.14,3.8,2.55,4c6.34-3.61,5.46-10.41,5.5-17.85l7,5.17c-.89,3.47-1.69,6.56-2.54,9.88L183,1114.91l-1.22,1.15,6,1.49c1.65-5.1,9.35-5.07,8.68-11.88-.59-6,1.94-11.67-2.06-18.13l3.1-2.27,14.15,3.38c1.27,2.29,2.76,5,4.64,8.42l13.2,3.18c1.24,5.88,5.67,8.34,10,9.78,3.63,1.22,6.86,2.06,9,5.86.44.77,1.35,1.94,1.91,2,9.55,1,15.35,12,24.6,13.75,5.67,7,13.92,8.11,20.39,12.84l1.67-1.18,6.89,8.28,7.62,1.89,8.46,9.79,2.2-1.53c2.86,5,3.88,6,14,13.34l7.21-4.26c2.42,4.08,4.26,7.18,6.32,10.67l5.39-4L343.27,1164c-4.7-1-9.46-1.79-11-7.91-11.53-4-21-11.83-30-20.3-2-.89-5.18,0-5.26-4,0,0-.21.16-.38.29l-2.2-2.33.85-.61a20.77,20.77,0,0,1,1.73,2.65c1.91,1,5,.06,5.26,4l11.06,2.71c4.66,4,8.29,8,12.57,10.62,3.23,1.94,5.36,3.69,6.32,7,4.68,1,8.2,3.82,11,7.91l15.07.92,6.21,9.23c3.8,1.33,8.93,2.85,9.33,10.54l-11.39-4.31-8.23,2.7c3.38,6.9,9.69,9.63,15.72,13.15a30.15,30.15,0,0,1,3.87-.94l-.41-.48,1.95-1.64.88,1a11.48,11.48,0,0,1-2.42,1.07c1.09,1.84,2.3,3.85,3.67,6.13l8.81-5.44-9.81-10.2c8.3-7.75,17.74-8.1,29-1l4.35-1.6c.19,1.91.31,3.12.49,4.85l-9.5-1c2.89,2.7,4.76,4.45,6.77,6.36-1.37,2.52-2.61,5.21-4,8.14l6.92,4-2.25,5.29c.25.53.89,1.9,1.55,3.29l-5.47.41L421.09,1225c1-1,2.6-2.64,4.82-4.89l16.41,17.08c4.83-3.82-1.15-12.64,6.81-14.77,3.05,3.88,7.7,7.23,7.69,13.46,10.16-3,9.45-12.74,14.37-18.77l4.6,4c1-.18,2.25-.37,3.45-.62s2.37-.54,4.17-1l9.34,14.45,6.2-5.55,8.8,8.56c2.4-3,4.93-6.1,7.85-9.69l-7.33-6.8c3.26-2.9,4-7.45,10.36-6.29-3.45-6.58-8.17-12.6-9.13-18.25s-12.09-10.32-4.39-16.35l8.56,7.43a10.06,10.06,0,0,0,1-2.86,7.82,7.82,0,0,0-.56-3.93,46.52,46.52,0,0,0-3.58-5.41l-5.92,1.48L497.64,1162c2,.48,5.3.39,6.44,1.72,2.69,3.14,7.62,4,8.91,9.22.51,2.06,7.15,4.27,11.64,6.76l-4.19,2.75c2.6,2,5,3.91,7.48,5.72,2.85,2.07,5.78,4,9.83,6.86l8.27-1.79c.18.15,1.36.85,1.36,1.25,0,5.19,4.7,6.91,8.5,9.59,5.93,4.19,12.27,8.34,13.51,16.14l2.94-1.42c6.18,4.79,12.12,9.67,18.34,14.16,11.93,8.6,12,8.51,18.26,18.39,7-2.59,14,1,17.26,7.81,1.83,3.8,10.28,4.18,7.12,10.25-.79,1.52,4,6.5,7.22,11.33l-7.63-.69.27-.17L631,1277.1l-1,.62,2.53,2.57.3-.19,7.56,10.32,9.08,2c-2.11-2.52-3.15-3.78-4.68-5.62,1.13-1.73,2.37-3.6,3.77-5.57a2.76,2.76,0,0,1-.44.3L645.6,1279l1-.62a22.43,22.43,0,0,1,2,2.9c4,.22,6.69,3,8.76,6.21,2.2,3.36,3.92,6.89,6,10.55l-5.86.87c1.81,7.86,8.94,10,17.12,15.57-3.67-6-5.8-9.46-9.45-15.44l8.42,5.48c0-1.38,0-2.76,0-5.14l15.34,10c.27,2.13.55,4.39.82,6.62.4.46.95,1.27,1.12,1.24,2.6-.38,5.15-.87,7.93-1.38l15.8,15.9L712,1333l1,1.15,2.24-1.7-.27-.31a74.58,74.58,0,0,1,7,3.84c2.24,1.54,4.61,5,6.24,5,7.15.29,10.59,5.88,15.05,9.9,9.41,8.47,21,14,30.53,22.36,3.14,2.78,5.4,6.39,8.1,9.67,11.2-3.29,19.67,11.39,30.36,11.9.73,2.61,1.11,4,1.7,6.12l6.65,2.08,12.23,14.43-2.74,1.24,1.06,1.2,2.35-1.71c-.1-.11-.2-.23-.31-.34l16.21,4.44,30.71,21.56,4.68,10.28,8.19,5.89c4-3.23,9.55.49,16.13,2.15-2.14,1.5-3.17,2.21-4.59,3.19,7.12,1.88,7.13,7.73,10.68,11.71,3.43,3.82,6.08,8.08,9.73,13,.27-2.51.5-4.71.83-7.88l7.54-2.76c-2.42-2.56-4.11-4.33-6-6.31l-4.43,1.93c-.37-3.22-.68-5.85-.93-8,3.6-2,10.91,1.57,22.55,10.94l-7.66,1.51,23.34,17.17,10.94.25-.3.16,2.47,3.11,1.12-.62-2.9-2.87-.32.18q0-5.57,0-11.13l2.33-.46,3.21,7.11,1.56-.86c0,2.88,0,5.76,0,9l13.66,7.38c1.11-1.06,2.64-2.54,4.36-4.09a4.91,4.91,0,0,1-.51.3l-2.92-2.89,1.12-.61a27,27,0,0,1,2.31,3.2c2,.36,5.16,1.53,6.29.75,4.67-3.26,8.74-7.12,14.48-12,6.17,2.69,14.49-4.64,26,8,0-7.14,1.94-13-.5-18.71-2.65-6.14,1.88-9,.47-14.22l-8.31-5.48,6.37-5.85c1.43,2.89,2.57,5.2,4.4,8.93l22.06-6.2-13-5.26c-.14-1.47-.27-2.86-.52-5.36l16.55,4.44-13.47-11,7.91-.94c0-1.14,0-2.13,0-3.52l-7.25-4,9-6.66-8.64-5.49c2.15-2.62,4.3-5.24,6.53-7.94l-7.42-8,5.06-18.73c4,4.95,7.35,8.67,10,12.61a71.82,71.82,0,0,1,7.27,12.93c1.32,3.26,4.07,6.62.76,10-1.72,1.75,2.71,8.32,4.3,12.56,4.52-2.15,9.16-4.37,14.54-6.92l-4.81-7.44,4.9-6.72-7.7-4.16c0-2,0-4.33,0-6.11l-8.56-9.55c11.47-9.52-3.85-24.24-3.17-36.89l-5.16-2.46-9.27-18.39c0-.8,0-5.16,0-9l-7.42-7.88c-.16-3.15-.34-6.55-.5-9.75l-10.83-6.47c-11.58-15.24-22-29-32.37-42.66-1.67-2.22-2.33-5-4.31-6.9-9.48-9.22-11.4-11.45-14.88-18.91-5.21-2.72-12.26-1.07-16.29-9.09-.14-2.16-.35-5.52-.54-8.45l-10.92-8.45,16.06,1.82,8.64-6.14c0,5.07,0,7.36,0,10.4l-6.61,4.29c2.37,1.24,4.51,2.21,6.48,3.44a14.48,14.48,0,0,1,2.55,2.63l12-6.73c0,4.43,0,7.75,0,12.14l13.52,3.7,6.24,7.3-11.89,4.57,10.44,3.88c8.78,1.72,4.09-9.93,14.88-4.83l-4.27,3.81,3.73,6.36-7.4.7,4.83,8.51,12.72-2.39,2.82,5.68-5.81.59,11.94,10c11.23,3.12,11.23,3.12,24.25,12.48a46.74,46.74,0,0,0,1-5.22c.17-1.9,0-3.88,0-7.53a73.92,73.92,0,0,0,5.91,5c1.74,1.15,3.75,1.94,8.94,4.54l-11.12,2.41,3.8,4.39-6.79.32a14.36,14.36,0,0,0,.93,2.28c2.6,4.35,7.23,4.35,11.24,6.11,3.75,1.65,7,5,10.58,7.68l9.45-.89v-6.37l6-3.45,5.31,9.53-9.71,3.1,12.74,12.73-9,.57,16.19,5.44c1.68,3.24,3.45,6.63,5.21,10l18.07-.75c.2.58.69,2,1.26,3.76l-7.44,1,4.75,8.88c8.47-3.94,16.31,2.35,24.48,7.68l-2.79,3.44,5.4,2.18,8.61-11.66c5.14,7.55,17.55,5.85,20.36,15.54l6.31-.81,20.31,15c.42,2.22,1,5.21,1.65,8.75l5.16-2.37,7,9-11,1.52,12.53,4.67,14.89,15.82c7.57,1.92,9-2.3,10.41-4.94,5.45.67,10.24.47,14.75,2,5.37,1.86,10.52,5.24,16.22,8.2v6.55l-12.06,2.76,5.23,5.7c3.75.16,7.1-.08,10.56.52,8.25,1.45,16.3,4.33,24.79,3.62,5.28-.43,14.2,4.1,20.15,8.06,7,4.65,13.81,6.56,21,8.2,23.14,5.28,23.14,5.2,39.62,17,13.62-2.61,27.74-5.39,39.32-11.58,1.4-.75.19-4.08.19-6.56l-7.55-3.89v-12.37c2.87,1.23,5.6,1.77,6.44,2.87,2.61,3.43,4.5,7.08,7.7,12.34,2.5-5.23,4.21-9.08,6.16-12.8,3.39-6.46,6.48-6.3,20.81,2,1-.94,2.51-2.28,4-3.66a14.43,14.43,0,0,0,1.27-1.81l-4-6,27.59-3.9,4.19,3.71,2.71-3.93-21.94-13.65c18.08-1.84,36.49-.76,39-17.22l-9.71-11.17a20.07,20.07,0,0,1,6.26-5.63c-6.85-1.41-12.78-4.17-17-.81-.51.41-3.71-1.27-5.6-2v-8l16.35.5a66.66,66.66,0,0,1,6.21,10.27c4.09,1.18,10.15,1.12,14.06,6.5l6.27-3.21c-3.24-3.37-6.47-6.74-8.78-9.16l16.13-8.31c2.74-7.43-1.18-13.81,7.4-16Zm-77.47-326.77,4.26.74v1.07l-4.26-.74ZM1473,1028.63l1.42.25v3.22l-1.42-.25Zm67.91-127.57,7.21,1.1-.24,2.76-7.26-2.3C1540.71,902.1,1540.8,901.58,1540.9,901.06Zm-12.23,13.83,1.44.22v3.25l-1.44-.22Zm-17.24-9.17,1.43.22v3.24l-1.43-.22Zm-5.66-64.07-1.27,12.28c-7.69-5.85-8.93-7.8-10.22-13.94ZM1403.14,1064l-1.38-.26c0-1.06,0-2.12,0-3.18l1.38.25C1403.14,1061.9,1403.14,1063,1403.14,1064Zm3.53-8.59c-2-3.5-3.76-6.68-6.39-11.33l15.19,4.43Zm-2.05-279.75,4.14.56v1.06l-4.14-.56Zm2.18,34.51,12,1.69,19.44,15.76-4.19-19.26,25,16.42c-.28,2.78-.56,5.64-.84,8.43l-20.1-2.89c-.25,2-.49,3.94-1,8.51l-10.22-9.35-11.64,3.42-11.7-10c-5-9.94-8.43-16.61-11.81-23.27C1398,802.92,1405.64,804,1406.8,810.2Zm-112.43-356-6.77-1c-.2-2.07-.38-3.95-.42-5.63l-15.77-7.93,15.77,2.27a47.24,47.24,0,0,1-.16,5.33l8.17,1.15C1294.87,450.61,1294.63,452.3,1294.37,454.16Zm13.05-24.35c.32,3.36.32,6.29.32,9.07l7.37,2.46v3.49l-12.34,8.66c0-3.2,0-7,0-10.77l-10.93-1.66-5.63-14.4,5.49,4.37C1297.46,430.46,1302.19,430,1307.42,429.81Zm-38.06-14.56,6.83,4.29c3.35-1.88,6.18-3.46,7.45-7l-.77.55-3.24-2.4,1.25-.89c.92.91,1.84,1.82,5.9,3.78l9.65.71-22.13,9.38,11.22,7.34-13.6-1c-1.57-4.51-3.13-8.74-4.39-13C1267.37,416.44,1268.85,415.71,1269.36,415.25ZM727.6,55.53h1.08c0,.93,0,1.86,0,2.8l-1.07,0ZM599.18,66.34c1.91,2.76,3.08,4.46,4,5.82C598.58,73,598.58,73,599.18,66.34Zm-29.62,80.72c-2.53-1.93-4.19-3.19-7.83-6l9.14.26C570.42,143.29,570.15,144.48,569.56,147.06Zm4-15.4-3-.08c0-.31,0-.61,0-.91l3,.08Zm19.46-4c.45.31.11.17-.59-.25-4-1.76-4.37-1.09-4.69-.38l-2-2.31c-2.3-.46-5.81,1.2-6.06-2.87,2.3.47,5.81-1.2,6.06,2.87.94,0,1.91.08,6.17,2.33a19.2,19.2,0,0,1-3-2.37c-.93-.94-.15-3.24-.14-5.06l8.55.21C597.29,123.46,597.28,126.82,593,127.66Zm10.41-30-9-.18c.53-2.38.79-3.6,1.17-5.31l8.85.79Zm2.47,115.07-1,0c0-.91,0-1.82,0-2.73l1,0C605.89,210.88,605.89,211.79,605.88,212.7ZM635,43.31l6.58,5.77C637.37,48.82,635.22,46.16,635,43.31Zm14.42,14.12-1,0c0-.91,0-1.83,0-2.75h1C649.45,55.59,649.45,56.51,649.45,57.43Zm2.63,188c-.36,0-.2,0,0,0Zm7.3-192.12c0,4.38,0,6.82,0,9.92L652.12,62C654.62,59,656.38,56.91,659.38,53.32Zm-7.62,161.37,12.08,7.86C651.7,222.61,650.86,221.9,651.76,214.69Zm56.42,99.62c.14-2.82.28-5.35.5-9.5,2.13,2.47,3.2,4.07,4.66,5.33,1.82,1.57,3.95,2.86,6.88,4.92Zm18,.66-3.21-.2v-.93l3.21.19Zm26.93,22.33,1.08.07v2.81l-1.09-.07C753.05,339.17,753.06,338.23,753.06,337.3Zm-11.11-8a5.94,5.94,0,0,1-3.15,1.07l2.13-2Zm-5.08-9.9,1.08.07v2.8l-1.08-.06Zm9,27c-5.62-4.48-10.55-8.4-14.61-14.48a17.87,17.87,0,0,1,5.69-1l8.74,4.28c.42-.25.7-.71,1.15-.84.25-.07.72.33,1.41.67C748.26,338.54,750.46,342.61,745.88,346.38Zm12,7.69-5.65-.4c0-1.69,0-2.92,0-3.52l6.59,2.74Zm-535.63-189-2.6-.09v-.84l2.6.09Zm5.24-4.86-2.61-.09v-.84l2.61.09Zm-21.49,75-4.29-.22c.09-.72.17-1.44.26-2.16l4.23,1.2C206.13,234.5,206.06,234.9,206,235.29Zm11.86,1.11L216,231.35l-3.86,2.1c-1.3-5.89.06-9.31,5.74-9.85l8.26,12.62Zm12.1-18-2.61-.13v-.84l2.62.12C230,217.88,230,218.16,230,218.44Zm1.57,71.69-.87-.05v-2.53l.87.05C231.53,288.45,231.53,289.29,231.52,290.13Zm5.42-68-.88,0v-2.53l.87,0ZM237,189l-1.29-.23c0-1.4,0-2.79,0-4.19l2.24.23Zm11.14,116.53-2.64-.17v-.85l2.64.18Zm-1.15-141-5.5,10.37-10.1-3.86c6.61-4.24,2-10.27,4.88-14.51l5.64.2,10.44,6.82ZM256.77,314c-1.19-1.24-2.09-2.16-4.89-5L266,310.83Zm5.45-159.6c0-2.93,0-5.76,0-9.75l-8.08-7.43c4.78-1.48,8.6-.28,10.15,4.47,1.33,4,1.64,8.35,2.45,12.86Zm14.54,31.36-.89,0v-2.55l.89,0C276.76,184.09,276.76,184.94,276.76,185.79Zm21.9,187.83c.22-1.86.38-3.25.57-4.79l4.59.73a14.36,14.36,0,0,1-.19,4.83Zm5.55.86-.15,0,8.47-3.3-2.32,8.24,5.13,2.08C307.62,382.25,307.62,382.25,304.21,374.48Zm29.4-209.65-.91,0v-2.58l.92,0Zm2.69,228.48c-.23-.29-.09-.19,0,0Zm21.3,31.91c-.64-.77-1.28-1.53-2.77-3.05l-11-1,7.05-5.36a75.8,75.8,0,0,0,4.76,7.1l.54-.46,2.26,2C358.18,424.72,357.89,425,357.6,425.22Zm9.2-231.8c-4.05-8.45-6.66-11.66-13.87-17.66l-6.58,5.05L344.62,176l-8.11-1.66c4.86-5.74,12.36-6.73,20.88-3.86l6.93-6.56c0,4.66,0,7,0,9.22l-5.83,1.61,11.75,7.75c-1,1.41-2.15,2.51-2.56,3.84C367.12,188.12,367.16,190.1,366.8,193.42Zm6.37,247.25-5.09-6.15,3-2.32,9.15,5.89Zm21.62-223.88-4.69-1.17c.06-.43.13-.85.19-1.28l4.66.21C394.89,215.3,394.84,216,394.79,216.79Zm2.06,228-.94-.09V442l.94.09Zm1.36-223.9,2.8-2.46-2.7-2.84,4.92-4.36c2.37,5.47,4.53,10.47,7.3,16.88C402.77,227.64,401.69,223.06,398.21,220.84Zm30,36.7a4.37,4.37,0,0,1-1.39-2.71l-.55.49-2.32-2,.89-.78a4.34,4.34,0,0,1,1.39,2.7l.55-.48,2.33,2Zm8.45,159.22-1-.09c0-.88,0-1.76,0-2.64l.95.08ZM458,261.17c0-.3,0-.59,0-.89l2.88.16v.88Zm5.72,29.52-2.89-.17v-.89l2.9.18C463.76,290.1,463.75,290.4,463.75,290.69Zm11.19,156.12-8.26-3.28,8.77.8Zm21.85-166.6,1,.06v2.67l-1-.05Zm-.73,16.67c-.35,1.83-.58,3-1.32,6.76-1.8-3.69-2.73-5.57-3.45-7.05ZM483.88,455.43c1.16.54,3.21,1.52,6.84,3.25l-7.37-.7C483.83,455.7,484.07,454.54,483.88,455.43Zm8.91,15.35-1.12,5-6.75-7.56L500,464l5.6,10.32Zm10.47,8.07v2.68l-1-.1v-2.68Zm5.51,83.49a9.06,9.06,0,0,1-1.74-2.63l0,0,.29-.23,2.4,2.15Zm-4.68-5.65a20.14,20.14,0,0,0-6.51.29l.63.28c-1.13.16-2.25.32-2,0-1.43.26-3.14.61-5.25,1.08,2.12-1.85,2.72-2.78,3.15-2.67a16.09,16.09,0,0,1,2.82,1.06c.32-.18.73-.4,1.29-.68-1.81-4.13-8.37-5.94-8.09-10.91l3.6-2.88L500.55,553l5.19-15.2,5.28,2.15Zm15,14.89,2.42,2.16-.93.74a8.88,8.88,0,0,0-2.77-2.39c-1.42-2.79-2.85-5.62-4.29-8.44l1.7-.94,6.65,5.1a20.93,20.93,0,0,0-3.36,4.23Zm8-285.52c-1.85-2.8-3-4.53-3.89-5.91C527.69,279.56,527.69,279.56,527.1,286.06Zm-2.8,9.19-1-.06V292.5l1,.06Zm3.46,257.87-3-.34c0-.3,0-.6,0-.9l3,.34C527.77,552.52,527.76,552.82,527.76,553.12Zm2.1-58.17-1-.1v-2.69l1,.1Zm9.34,75.62-6.63-3.77C541.2,564.7,539.69,568,539.2,570.57Zm14.62,35.18-1.5-.19c0-1.8,0-3.61,0-5.41l1.5.18C553.83,602.14,553.82,603.94,553.82,605.75Zm6.8-16.34-3-.36v-.91l3,.36Zm8,10-1-.12c0-.91,0-1.81,0-2.72l1,.12C568.66,597.62,568.65,598.53,568.65,599.43Zm13.12-50.09-8.64-3.54,9.18,1C582.05,548,581.87,548.89,581.77,549.34Zm6.4,66.37-2.13,2-1-1a4.48,4.48,0,0,1,3-1l-.59-.61,2.13-2,1,1a4.53,4.53,0,0,1-3,1Zm-3.71-60.31c5.31-.44,7.3,2.18,10,5.82C589.17,561.65,587.19,559,584.46,555.4Zm21.45,75.85-9.52-5.43,2.12-4C603.12,623.6,606.78,625.51,605.91,631.25Zm.38-66.48-3.07-.35v-.91l3.07.35Zm11,10.16a4.83,4.83,0,0,1-1.5-2.91l-.6.46-2.51-2.2,1-.75a4.83,4.83,0,0,1,1.5,2.91l.6-.47,2.51,2.21Zm3.3,11.62-1-.12v-2.75l1,.12Zm13.41.67-3.1-.37v-.92l3.1.37ZM14.19,423.35l-4-1.26c0-.39.11-.78.16-1.17l3.94.38C14.28,422,14.23,422.67,14.19,423.35Zm13.2,10.32c-1.12-2.57-2.31-5.31-3.49-8.05,4.41,2.57,11.67.3,12.55,8.95Zm29.54,88.69-.81-.09v-2.44l.81.1Zm6-124.39v-.81l2.43.22v.81Zm.93,135.89c-2.77-7.38.39-5.78,2.72-5.1C65.77,530.28,65,531.81,63.87,533.86Zm6-1.82,2.44.29v.82l-2.44-.3Zm3.67,14.28c-.16,1.6,0,3.26,0,5.1l-4.56-1.56c1.36-3.27,2.54-6.07,3.71-8.87l1.83.76A44,44,0,0,0,73.55,546.32Zm1.63-166.79-2.44-.21v-.81l2.44.21ZM84.4,393.2l-6-.53-.93-1.3,7.88-2.72C84.89,391,84.66,392,84.4,393.2Zm18.95,191.27-.83-.11c0-.82,0-1.64,0-2.46l.82.11Zm15.79-171.15-2.23-.34c.32-2.15.63-4.3,1-6.45l1.3.24Zm7.46-41c-1.69-.88-3-2.55-6.55-5.72,5,.83,7,.77,8.72,1.58,1.37.66,2.3,2.36,4.52,4.81C129.68,372.68,127.91,373,126.6,372.31Zm7.21,17.76c-6.1-3.47-3.84-7.82-4-12.22l4.94.42C134.35,382.33,135.38,386.39,133.81,390.07Zm18.74,236.54c.1-.26.21-.53.3-.8C153.23,627.16,153.59,628.5,152.55,626.61Zm-3.17-2.75.8-.67a12.36,12.36,0,0,1,1.48,2.5l-.22.19Zm2.37,5.29a9.1,9.1,0,0,1,.6-2c.56,1.2,1.28,2.79,2.23,5C152.65,630.12,151.7,629.5,151.75,629.15Zm15,17.41-4.39,3.66c-1.06-6-1.46-10.35,4.81-13.11l-2.32,7.07Zm10.68-253.17c.32-1.62.54-2.7,1-4.78l6.31,6.91Zm50.15,311.24,8.25,2.81,4.85-1.75c1.53,3,2.37,5.95,4.23,8.06,2,2.28,5,3.82,7.52,5.69C244.13,715.59,232.88,717.55,227.62,704.63Zm34.47-35.8a4.67,4.67,0,0,1-1.29-2.73l-.52.42-2.16-2.09.84-.68a4.63,4.63,0,0,1,1.28,2.73l.52-.42c.73.69,1.45,1.39,2.17,2.09Zm19.76,9.08,2.68.39v.86l-2.68-.4ZM286,746.17c-2.27-3-3.47-4.61-4.67-6.22l1.78-1.4,4.16,1.43C286.89,741.69,286.6,743.08,286,746.17ZM289.24,691l-4.49-1.6.18-1.23,4.46.66Zm19.32,99.85-2.71-.47v-.85l2.71.46ZM112.82,758.41l-.83-.14c0-.82,0-1.64,0-2.47l.83.15C112.83,756.77,112.82,757.59,112.82,758.41ZM78.15,786.8l-.81-.15v-2.44l.82.14C78.16,785.17,78.16,786,78.15,786.8ZM97,807.37l.83.15c0,.82,0,1.64,0,2.46l-.82-.15Zm-6.7-23.1.77.91c-.35.24-.71.47-1.77.08Zm-2.58,1.81c.59.66,1.19,1.35,1.9,2.16l-5.74-.56C84,785.94,84.09,784.94,87.69,786.08Zm-4.75,28.08c-.58-3-1.06-5.52-1.62-8.45l5.36-3.64c1.65,2.42,2.84,4.15,3.95,5.79l-6.2,2.25,7.77,5.75ZM97.07,838c-2.38-2.37-4.08-4.22-5.94-5.87-1.69-1.49-3.55-2.76-7.36-5.68l7.26-1.8,3.9,4.41,3.68-3-4.9-3.17c-.73-4.29.4-7.41,4.5-7.85,3.36-.36,6,1.74,7.59,5.46C99.26,823.54,100.26,831.65,97.07,838Zm53.57-50.75a21.18,21.18,0,0,1,2.66,3,13,13,0,0,1-4.07-1.37Zm-24.51-26,7.53,1.28v1.24l-7.52-1.29Zm-13.48,35.78,5.32-9.32c.43,3.92.65,5.9.93,8.44l7.79-1.2C122.67,801.05,118.18,799.26,112.65,797.08ZM126.09,778l.26.3L124.6,780l-.79-.92a5.86,5.86,0,0,1,2.28-1.07Zm10.55,9c-.4-2.61-.75-4.91-1.23-8.1l-5.71,1.83c-.94-.7-2.18-1.63-3.61-2.81a10.36,10.36,0,0,0-.83-3.42c-.11.29-.23.57-.33.85-.33-1.21-.65-2.42.16-1.33-.42-1.23-1-2.85-1.9-5.09,2,2.13,2.89,2.79,2.83,3.14a9.48,9.48,0,0,1-.7,2.27c.21.3.46.69.78,1.22l9.74-1.88q.43-2.92.95-6.4l9.67,7.7c-4,3-4,6.35-.34,10.35l-3.4,2.74Zm6.86,5.44a13,13,0,0,1,5.22-3l0,0c1,2.89,1.91,5.38,3.64,10.27Zm11.78.41a9.15,9.15,0,0,1-1.5-2.52h0l.26-.21,2.07,2.1Zm-4.34-17.39a69.41,69.41,0,0,1,18.11,3.08c0,2.48,0,4.13,0,5l-6.79,5.19C158.48,785.33,152.19,783.05,150.94,775.43Zm16.82,29.34c-6-3.86-3.25-8.07-3.82-12.19l2.81-.65,8.53,10ZM181,807.6l-.86-.15c0-.83,0-1.67,0-2.5l.85.15ZM89.88,995.06l-1.22-.44c0-1.36,0-2.72,0-4.07l2.12.6C90.48,992.46,90.18,993.76,89.88,995.06Zm1-44.64-2.47-.53c0-.27,0-.54,0-.82l2.46.53Zm10.66,20.36.83.18c0,.82,0,1.64,0,2.46l-.83-.18C101.49,972.42,101.49,971.6,101.49,970.78Zm-1,36,4.6-4.22c.22,3.29.36,5.48.54,8.12Zm7.63-35.39-2.48-.54V970l2.48.54Zm6.5,54.16-.84-.2c0-.82,0-1.64,0-2.47l.83.2Zm0-7.42-.84-.19c0-.82,0-1.64,0-2.47l.83.19Zm5,6.09-.83-.19c0-.82,0-1.65,0-2.47l.83.19C119.61,1022.58,119.6,1023.41,119.6,1024.23Zm18.3,40.65-2.51-.59v-.83l2.51.6Zm29.58,7.87-.85-.2v-2.5l.85.2C167.49,1071.08,167.48,1071.92,167.48,1072.75Zm3.4,1.64,2.56.61v.84l-2.56-.61Zm6.06,16.16c-1.41-2.75-2.67-5.2-3.92-7.65C176.36,1084.62,180.74,1087,176.94,1090.55Zm14.53-28-2.58-.6v-.84l2.58.61Zm7.13-1.25-9-5.71c-.75-5.83-1.35-10.47-2-15.65.49-.34,1.64-1.1,2.4-1.61l11.89,8.62c0,.66,0,1.32,0,3.41l-8.9-.68,6.42,4C199.13,1055.72,198.92,1057.91,198.6,1061.27Zm4.94,4.92-.87-.2c0-.84,0-1.68,0-2.52l.86.2Zm3.19-12a7.15,7.15,0,0,1-4.79-3.69l5,2.12C206.88,1053.12,206.8,1053.65,206.73,1054.17Zm4.6,13.85-.87-.2c0-.84,0-1.69,0-2.53l.86.21Zm16.5,18.45-5.23-1.24V1084l5.23,1.24ZM246.47,1099l-.18.12c0-.06,0-.13,0-.19Zm-9.73-8.55,3.46,6.19C236.22,1096.48,236.22,1096.48,236.74,1090.44Zm7.93,6a6.08,6.08,0,0,1,1.23,2.79l-2.06-2.19Zm6.54,6.27a6.68,6.68,0,0,1-4.66-3.69l4.9,2.1Zm2,13.39-.88-.21v-2.55l.89.21C253.26,1114.4,253.25,1115.25,253.25,1116.1Zm14.14-.76c.19-1,.32-1.74.86-4.61,3.47,7.84,13,3.46,14.78,12C276.86,1123.4,272.1,1119.4,267.39,1115.34Zm28.9-5.09,12.48,7.77C302.74,1118.88,299.51,1116.89,296.29,1110.25Zm27.85,17.24-5.46-1.32v-1.29l5.46,1.32Zm7.28,7.59-.91-.22v-2.59l.92.22C331.43,1133.36,331.42,1134.22,331.42,1135.08Zm24.78,16.45-.92-.23v-2.6l.93.23Zm13.88,8.63-.93-.23v-2.61l.93.23Zm8.37,4.68-.93-.23V1162l.93.23Zm6,5.33,11.43-.39c1.08,1.89,2.42,4.21,4,7C393.36,1178.55,389.59,1172.67,384.45,1170.17Zm23.17,23.09h0a5.56,5.56,0,0,1-.43-.48l2-1.66.89,1.06A11,11,0,0,1,407.62,1193.26Zm19,17.88-1.43-.36v-5.29l1.43.36Zm2.61,6-1-.24v-2.65l.95.24Zm6.29-17.89c-8.35-1.35-8.39-1.31-11.33-11.26l11.86,8.4C435.84,1197.67,435.7,1198.44,435.55,1199.21Zm28,26.4c-.67-.9-1.34-1.8-.59-1.84l-9.16-4.94-2.24,1.24-3.75-8.1,6.23-3.22c3.12,5.25,5.67,9.55,7.5,14.17l.56-.38,2.37,2.46Zm20.49-149c-3.14-7.71-.11-6.69,3.74-4.63ZM494.31,1045l-2.93-.63v-.9l2.94.64C494.31,1044.38,494.31,1044.67,494.31,1045Zm1.78,92.52-1-.23v-2.68l1,.23Zm12,3.49-7.27-8.53,8.37,3.56C508.8,1137.7,508.54,1138.82,508.07,1141Zm14.67-134.74a19.42,19.42,0,0,1,2.86,1.34c.32-.16.74-.34,1.3-.57.33-.68.66-1.35,1-2a11,11,0,0,1,1.58,2.57,13.8,13.8,0,0,0-3.65.14l1.09.58c-1.4.07-2.78.14-1.64-.51-1.38.18-3.21.46-5.71.88C521.7,1007,522.3,1006.09,522.74,1006.24Zm-2.88,55.94-1-.22c0-.9,0-1.8,0-2.7l1,.22C519.86,1060.38,519.86,1061.28,519.86,1062.18Zm.36,93.24c.68-4.42,1.06-6.88,1.66-10.8l8.48,7.91Zm11.42-145a10.11,10.11,0,0,1-1.76-2.82h0l.32-.22,2.43,2.39Zm7.17,6.24-3-.62v-.9l3,.62Zm81-323.12-1.37-.19v-.23Zm-36.62-31,4.62,7-5.81-.44c-.17-2.21-.3-3.83-.33-5.45l-.08,0C582.12,663.31,582.65,662.93,583.19,662.56Zm1.42,59.74v.91l-3-.45v-.91Zm-32.78-81.06,8.3,1.08a49,49,0,0,0,.38,7.68l7.89,1,7.21,9.13c2.29.71,5.8-.57,6,3.51-2.31-.65-5.72.53-6-3.51l-7.91-1.06c-2.18-2.76-4.69-5.94-7.59-9.36C558.82,646.22,550.08,648.5,551.83,641.24ZM578,1036.73l-.34-.38c.71-.59,1.42-1.18,2.12-1.78l1,1.06a7.08,7.08,0,0,1-2.76,1Zm-3-6.11-.32-.36,2.12-1.78,1,1.06a7.08,7.08,0,0,1-2.76,1A.06.06,0,0,1,574.94,1030.62ZM312.58,705a9.23,9.23,0,0,1,1.61,2.59l0,0-.27.21-2.22-2.13Zm-14.69-.2c.22-1.84.39-3.22.57-4.75l4.6,1.06a21.94,21.94,0,0,1,0,4.86Zm7,3.72a7.48,7.48,0,0,1-1.48-2.46l-.24-.06.37-.29,2.21,2.13ZM298,693.32c4.75-2,5.78,1.9,8.07,4.24C301.29,699.58,300.25,695.66,298,693.32Zm11.16,18.29,7.75,3.57c0-2,0-3.32,0-4.61l6.41,1c2.71,4.31,4.86,7.72,6.73,11.28l-7.68-2.74c.13,1.32.25,2.5.36,3.56l5.55,2.69c-.65,1.52-1.2,2.79-1.81,4.2C310.85,718.65,310.85,718.65,309.14,711.61Zm20.52,92.17-6.11-3.3,6.13-6.3C329.67,797.9,329.66,800.48,329.66,803.78Zm2.48-78.18a9.31,9.31,0,0,1-1.62-2.6h0l.28-.22,2.24,2.15Zm5.86,4.9c-.61-1.26-1.39-2.93-2.42-5.22,2.09,2.08,3.13,2.76,3.07,3.12A9.12,9.12,0,0,1,338,730.5Zm-.21.52c-.12.28-.23.55-.33.83C337.05,730.44,336.65,729,337.79,731Zm2.57,3.64a13.24,13.24,0,0,1-1.61-2.66l.23-.19,2.25,2.16ZM344.21,745l-2.75-.44v-.87l2.75.44Zm2.27-7c4.81,3.62,8.33,5.85,11.27,8.65,1.6,1.53,2.21,4,4.14,7.76C354.43,749.59,348.13,746.74,346.48,738Zm12.2-178.86,1.77-1.39,5.95,4.89L362.29,567a23.24,23.24,0,0,0-1.14-4A35.93,35.93,0,0,0,358.68,559.17Zm2.47,26.21v.87l-2.78-.34c0-.29,0-.58,0-.87Zm-9.52-30.66c-.18,0-.63-.57-1.82-1.69l10.81-5.13c.32,1.83.47,2.63.74,4.2C358.26,553,355,553.87,351.63,554.72Zm8,287.4-.93-.17v-2.6l.92.16Zm3.71-5.24-5.89-1,1-4.54,4.87,1.81C363.37,834.57,363.37,835.41,363.37,836.88Zm1.31-82.28a3.72,3.72,0,0,0,2.34,1.74l8.56,6.6c-6.45,1.14-7.65-2.55-9-5.9l-.55.42-2.26-2.18Zm3-174.49V577.5l.92.12v2.6Zm11.72,194.48L375.1,777c-3-3.28-5.5-6-10.29-11.21Zm-4.57,78a22.83,22.83,0,0,1,0-5.42l-.55.41L372,845.38l.88-.66a7.38,7.38,0,0,1,1.55,2.66l1.49-1c1.27,2.09,2.55,4.17,4.23,6.92Zm7.78-83.55c2.2,2.25,3.24,2.95,3.18,3.32a8.1,8.1,0,0,1-.49,1.68C384.55,772.8,383.67,771.18,382.57,769.07Zm2.4,5.72c-.16.36-.31.71-.44,1.07C384.13,774.47,383.73,773.08,385,774.79Zm6,89.28c-5.94-2.48-9.14-4.85-7.26-10.22C388.51,855.77,391.69,857.85,391,864.07Zm2.93-81.57a7.74,7.74,0,0,1-5.24-3.27,2.83,2.83,0,0,0,0-.29l5.47,1.9Zm14.16,101.69c-3.22-4.41-5.44-7.45-7.65-10.5l3.65-2.72c2.57,3.29,5.11,6.56,7.92,10.17Zm19.75,18.07-8-7.74,6.88-3.43C431.9,898.73,432.32,901.39,427.83,902.26ZM431,819.64l-2.86-.49v-.89l2.86.49Zm-4.57-207.76c0-3.39,0-6,0-9.73l6.37,8.12ZM442.55,835c.08-.56.17-1.11.25-1.67a8,8,0,0,1,5.36,3.37l0,.29Zm16.2,22.23-1-.17v-2.66l1,.17C458.75,855.43,458.75,856.32,458.75,857.2Zm-7.66-17.3a11.59,11.59,0,0,1-1.33-1.68,4.08,4.08,0,0,0,2,.79l8.88,6.88C454,846.93,452.75,843.14,451.09,839.9Zm3.31-212.82c0-.29,0-.59,0-.88l2.88.37v.89Zm10.38,7.32a4.71,4.71,0,0,1-1.41-2.84l-.57.44-2.36-2.16.92-.72a4.75,4.75,0,0,1,1.4,2.84l.57-.45,2.36,2.17Zm5.56,224.87-1-.17v-2.67l1,.18Zm5.79,14.39-1-.18v-2.67l1,.18C476.13,871.88,476.13,872.77,476.13,873.66Zm.93-229.88-2.5-.44,1.08-4.35,1.43.37Zm11.43,10-1.46-.2c0-1.78,0-3.56,0-5.34l1.46.19C488.5,650.26,488.49,652,488.49,653.82ZM508,978.65a25.58,25.58,0,0,1-1.74-2.39L492,969.4l7-7.91,7.2,7.54a52.67,52.67,0,0,1-.32,7l.58-.41L508.9,978Zm-16.42-17.36c0-.3,0-.6,0-.89l2.93.58v.89Zm4.51-301.09v-2.68l1,.14v2.67Zm12.84,234.52c-6.46-2.18-6.48-2.16-10-9C504.66,886.73,505.68,891.68,508.89,894.72Zm-7.95-232.06v-.9l2.94.4v.9Zm19,245.63a5.07,5.07,0,0,1-1.44-2.95l-.58.41-2.42-2.32.93-.68a5.09,5.09,0,0,1,1.44,3l.58-.42,2.42,2.33Zm4.46-271.87,3.43-3.69c-1.36-3.24-2.55-6.07-3.6-9.3-6.08-.17-8.81-4.67-11.4-9.32L508.17,616c-5.66-5.07-14-7.66-17.18-15.17-17.7-13-34.69-26.76-53.31-36.91-.52-1.83-.87-3-1.22-4.31l-7-.82c-2.23-2.82-4.88-6.17-6.79-8.57-10.53-3.06-21.71-10-32.48-19.67l-7,8.34c-2.13-4.66-5.19-8.31-4.93-11.34.74-8.44-6.77-9.47-11.68-12.6-3.28-2.08-7.22-3.12-11.18-4.76,0-2.41,0-4.45,0-5.4-11.46-7.7-22-14.79-32.54-21.84v-3.86c-2.07-.6-5.22.74-5.44-3.14,2.06.6,5.21-.75,5.44,3.14l10.54,1.08a87.29,87.29,0,0,0,27.49,22c1.1,3.73,2.48,6.83,7.7,7.84,4.15.79,10.15,2.43,11.76,5.23,3.18,5.55,7.16,7.21,13.75,7.78l6.94,8.78,8.21.92c7.1,7.5,14,14,22,19,7.65,4.73,13.17,12.47,20.78,16,8.86,4.08,15.25,12.59,25.52,13.22-.55,7.25,9.22,7.87,10,13.76l8.65,1.48,16.53,15.41v2.53c6.49.42,9.23,4.93,11.4,9.32,7.31,4.21,14.2,8.19,20.89,12.07,0,2.21,0,4.31,0,5.56Zm19.11,533.91-1-.24c0-.9,0-1.81,0-2.71l1,.24C543.52,1168.52,543.52,1169.43,543.51,1170.33Zm12.16-73.17-1-.22v-2.72l1,.23Zm7-4.77-3-.67c0-.3,0-.6,0-.91l3,.68Zm1.9-58.78a10.61,10.61,0,0,1-1.79-2.85h0l.32-.22,2.46,2.42Zm-8.47-13.95,6.7,4.18a56.16,56.16,0,0,1-.31,6.86l-4.36-.92c-.93-2-1.88-4-3-6.43-1.47.2-2.79.33-4,.58-1.61.32-3.16.73-5.57,1.3-.83-5.36-2.38-9.89,2.13-12.45a7.15,7.15,0,0,1,1.62-.52l4.93,3.54,5.33-2.93,6.47,3.14ZM567.76,1089l-1-.23V1086l1,.23Zm33.43-17.52L568,1037.76l3.34-3.82c-.82-1.5-1.48-2.72-2.52-4.65a44.94,44.94,0,0,1,6.18,1.55c.26,2.09-1.3,4.62,3.08,6.11,2.12,6.9,5.56,1,9.91,2.86,1.06,4,2.3,8.65,3.53,13.27,3.55,3,7.56,5.69,10.43,9.08,2.6,3.07,4,6.91,6.08,10.77Zm-3.38-337.2c0-.91,0-1.82,0-2.73l1,.15c0,.91,0,1.82,0,2.73ZM602.6,917.6v-.92l3.07.57c0,.31,0,.61,0,.91ZM596,673.06c7.08,5.88,14.17,11.81,20.52,20.05l-5.77-.81C607.5,684.91,597.56,681.81,596,673.06Zm18.38,557.33-3.08-.77v-.91l3.08.76Zm.27-156.68-3.08-.66c0-.31,0-.61,0-.92l3.08.67C614.63,1073.1,614.62,1073.41,614.62,1073.71Zm2,6.86-1-.22c0-.92,0-1.83,0-2.75l1,.23Zm7.52-383.8c-1.92-.41-3.81-.84-3.4-2.89l3.67,1.15ZM1031,1442.16l-1.2-.32v-3l1.21.32Zm-19.91-37.66,5.25,1.17c1.06,2.3,2,4.33,3.11,6.71l3.26-1.83,12.19,10.36-3.51,4.51,15.59,10.59-11.34,1.56-10.58-7.23,3.4-2.7-6.7-3.78c-.32-2.69-.61-5.1-.91-7.6l-9.77-3.88C1011,1409.41,1011.05,1407.09,1011.05,1404.5Zm-24.54,49.1,6.94,3-9.08,4.83Zm356-663.23-14-4.23-15.85-14.55c2.4.41,5.56.79,8.66,1.55a57.37,57.37,0,0,1,6.52,2.38l.61-1.27,18.06,13.59Zm23.36,239.93-5.38-7.64C1366.68,1022.77,1366.68,1022.77,1365.89,1030.3Zm-6.46-240.71v-1.06l4.07.57v1Zm14.68-22.52a11.23,11.23,0,0,1-2.42-3.2l-.17.06.54-.34,3.34,2.65ZM1371.7,727l4.1.52v1.06l-4.1-.53Zm-39.26-65.71,1.35.15v3.14l-1.35-.15Zm-9.51-15.86c-.11.66-.23,1.32-.35,2-2.53-.46-5.07-.92-7.09-4Zm-7.56-2-.27.18c0-.08,0-.16,0-.24Zm-2.73-2.92a6.37,6.37,0,0,1,1.88,3.3l-3.14-2.45ZM1331.8,715c-1.19-6.42-2.12-11.48-3.07-16.58l19.37,7.13,13.35,22.25-19.68-4.25L1362.45,756l9.24,2.57a29.71,29.71,0,0,1-.42,5.48c-6.07,2.54-12.48,2.43-15.8,1.08l-28.31-25.76v-8c-6.3-6-16.9-8.92-16.24-16.88C1315.88,707.2,1322.74,709.48,1331.8,715Zm-13.88,38.87v9.49l-8.51-2.49Zm-7.73-7c0,.92,0,1.84,0,2.77L1299.41,747l.17-1.61Zm-3.25,15.71v1l-4-.54v-1ZM1305.21,699l-5.88-1.6v-5.57C1308.25,692.6,1308.31,695.19,1305.21,699Zm-8.57-32.22a5.37,5.37,0,0,1,1.94,3.35l.78-.52,3.26,2.57-1.26.83a5.42,5.42,0,0,1-1.94-3.35l-.78.52-3.26-2.56Zm2.08,256.92c-.08.68-.15,1.36-.23,2.05-3.86-.78-7.72-1.56-11.52-4.8,0-.12,0-.25,0-.38Zm-14.35-180.8c0-1,0-2.07,0-3.11l1.32.17V743ZM1295,687.44l-2.87.95-8.36-7.64-12.6-2.39c0-4.12,0-7.16,0-13.13l18.67,7.25C1291.91,678.34,1293.48,682.89,1295,687.44Zm-20,222.19-.08.06-7.8-1.72c.19-2.15.33-3.8.51-5.84,3.69,2.47,6.49,4.35,7.33,7.46Zm9.34-250.86v-3.11l1.32.16v3.11Zm-15.52-64.41c9.75,3.26,11.72,7.66,9.47,13.63l-11.58-5.59C1267.51,599.64,1268.17,597.13,1268.9,594.36Zm8.23,36.16,9.08,4.63c6.19,9.14-9.29,9.05-11,16.29l-8.42-17.92Zm-28.83,3.9,9.06,10.76-9.07.33C1248.29,642,1248.29,639.31,1248.3,634.42Zm1.93,38.92v3.1l-1.31-.16v-3.1Zm-3.3,219.38c-13.85-2.3-16.43-10.13-22.54-15.76C1235,879.85,1238.11,886.66,1246.93,892.72Zm-.5,61.13c.59,2.58.93,4,1.46,6.31l-19.55-3.36Zm-17.59-397.46c9.08,2,12.15,6,10.8,13.4l-10.8-5Zm-20.49-26.71c0,4,0,6.82.06,9.92l.75-.53,3.16,2.45-1.22.85c-.9-.92-1.8-1.85-2.76-1.79l-9.55-9.58Zm-51.45,19.85,5,3.86,8.81-2.57c0,4.52,0,8.29,0,11.87l10.82,1.11c.3-5.19.58-10,.94-16.13,4.23,5.68,7.25,9.73,9.75,13.1l-2.66,4.23-.36-.33-3.13,1.81,1.2,1.09,2.68-2.22-.35-.31c9.07.88,14.91,6.66,21.09,10.67l9.1-4.34,12.25,8.65v9.22l-7.14,5.22,9.46,12.19,7.47.81L1247,616c-4.12,4.74-8.6,9.91-13.19,15.21l-4-.46-11-10.68,1.52-1c-3.54-2.22-9.94-4.61-10.1-6.63-.74-9.26-9.84-14.88-15.45-22.35-1.79,1.92-3.5,3.76-.72,13.65-3-2.55-4.43-3.32-4.35-3.76a10.8,10.8,0,0,1,1.06-2.83c-.32-.37-.7-.84-1.19-1.47L1184,589.5l-9.77,2.64c0-3.93.72-6.42-.18-8.66-1.09-2.73-3.53-5.24-5.58-8.11l-8.06-1.6-7.67-13.56Zm58.55,102.52-7.06,9.3-9.8-5.32Zm-22.11-6c0,.34,0,.68,0,1l-3.83-.45v-1ZM1176,628.28l9.4,1.07v7.83Zm2,34.33v1l-3.81-.46v-1Zm-16.3-77.08c-.46,6.75-.46,6.75-8.41,8.22Zm-14-45,3.78.37v1l-3.78-.37Zm6.09,283.4c2.06,3.57,3.6,6.26,5,9a30.63,30.63,0,0,1,19.86,8.5c13.23,12.24,30.23,20.36,45.39,30.68,0,1.25,0,2.5-2.33,3.4-18.92-9.58-34.64-23-53.47-32.36-4-2-6.34-6.74-9.31-10.2l-5.48-.83-14.63-14.14Zm27.64,266.34,0,.33L1174,1088c.11-.64.22-1.27.34-1.91C1176.72,1086.68,1179.13,1087.33,1181.44,1090.25Zm-3.79-84c.46-1.62.93-3.24,1.39-4.86l1.89.55c0,1.69,0,3.38,0,5.08Zm11.88,91.49,3.13,2.76-1.21.73a12,12,0,0,1-2.27-3.24l0,0Zm-.45-178.29c.49-2.6,1-5.2,1.46-7.79l2,.48v8.14Zm-3.66,174.79-.08-.07-.06-.07.06.07Zm-19.51-20.43-1.2.73a5.76,5.76,0,0,1-1.85-3.41l-.75.45-3.1-2.73,1.2-.73a5.83,5.83,0,0,1,1.85,3.41l.74-.45Zm-25.68-610.09v1.52l-7.53-.64c0-.5,0-1,0-1.51Zm-25.1,60.94c0-4.58,0-8.56,0-14.08,5.48,4.24,12.52,4.24,13.66,11.4Zm9.93,116.48v1l-3.75-.44v-1ZM1106.5,515.35l3.72.36v1l-3.73-.35C1106.49,516,1106.49,515.69,1106.5,515.35Zm-3.7-20.42v-1l3.71.34v1Zm6.78-11.55c-1.66.63-3.84.49-9.6,1.07,4.2-3,5.46-4.44,7.21-5.1s3.84-.49,9.62-1.08C1112.6,481.33,1111.34,482.72,1109.58,483.38Zm-25.14-166.14-3.69,2.78c-1.44.91-2.75,2.49-4.35,2.6-3.38.25-6.89-.27-10.34-.48v-4.37c3.37-1.34,6.61-3,10.21-3.81,1-.23,3,2,4.49,3.06,1.23.08,2.45.15,2.74-.54l9.76-4.39c-6.12-7.71-18.91-4.68-24.18-14.64,8.42,3.17,14.83,6.82,21.65,7.86,9.18,1.39,6.59,11.77,15.17,11.24,0,4.09,0,7.41,0,12.78-2.27-4-3.4-6-4-7.12C1095.51,320.23,1090.05,318.53,1084.44,317.24Zm13.68,223.4v6l-1.85-.19v-6Zm-6.35-152.89v1l-3.7-.27v-1ZM1050,354.21l9.27.61c-.59,2.56-.89,3.86-.66,2.85Zm1.4,66.44v1l-3.65-.29v-1Zm.7-82v-4.94l3.16.49-1.43,4.79Zm2.08-13.41c-2.67-1.83-5.93-3-8.64-4.82-1.88-1.25-3.28-3-7.42-6.93,12.31,2.89,18.59,10,28,8.65h0c.93,1.05,1.88,3,2.79,3,6,.29,4.34,3.56,4.17,6.38l-12.65-.78A60.17,60.17,0,0,0,1054.13,325.24Zm-61.09-40,14.2-10.2c.47,4.74.72,7.37.77,7.85l-9.32,8.46Zm4.2,122.3v1l-3.57-.27v-1ZM987,249.08c9.73-3.66,11.71.62,13.85,4.31.31.54-.71,1.55-1.79,3.66Zm1.7,140.71L984,383.24C989.41,382.69,989.41,382.69,988.72,389.79Zm11.93-128,.69.61-2.5,2.29-1.12-1Zm0,0,.05,0c3.15-4.89,7.48-7,14.7-3.63-.24,1.44-.45,2.73-.72,4.32C1009.89,262.25,1005.43,262,1000.66,261.84Zm17.9,32.2c-.51-.6-1-1.21-1.52-1.82l13,2-9.4,5.06,10.05,4.68c-9.73,2.33-14.17-2.25-21.83-5.91Zm5.56,129.54c5.81,1.61,11.31,1.85,14.21,4.25,4,3.31,2.77,7.94.47,12.13l-24.09-9.39Zm6-78.83c-.2-3.82-.35-6.51-.49-9.21,5.78.17,7-2.71,8.71-5.51.38-.61,3.76.14,4.29.17-.38,3.65-.66,6.38-1.15,11Zm14.16-101.3v0l.38.33-2.54,2.31-1.14-1A10.47,10.47,0,0,1,1044.24,243.45Zm-1,31.78,18.63,11.67c0,2.84,0,5.15,0,8.57-10.74-1.61-9.54-9.84-15-12.65l-10.83,2.88Zm8.21-8.6c0-.33,0-.66,0-1l3.64.18v1Zm.38,35-1.06,1.26-6.32-.36v-3.72Zm-15,24v-1.49l7.26.44v1.49Zm38.66,8.8a9.47,9.47,0,0,1-2.17-2.85h-.06l.39-.29,3,2.27Zm.24,36.23v3l-1.23-.09v-3Zm-5.8,6.11,10.37.72v4.95l-10.37-.73Zm34.25-88.89-2.56-5.27-12.63-2.29,11.43-8.88,8.13,11,4.2-2.86,1.66,4.44C1110.91,285.31,1107.59,286.58,1104.25,287.86Zm9.8,110.53c0,.34,0,.67,0,1l-3.72-.27v-1Zm10.37,27.38c-5.1-1.91-9-6.33-14.94-10.77,4.93,1.12,9.59,1.07,12.07,3,6,4.6,16.34,7.38,14.24,16.7C1126.19,437,1129.82,427.8,1124.42,425.77Zm-6.52-53.14.33-1.93c2.36.33,4.72.66,6.6,3.5Zm7,1.6.25-.19c0,.08,0,.16,0,.24Zm.79-.4,2.94,2.22-1.19.87A5.82,5.82,0,0,1,1125.74,373.83Zm2.47-40,7.68-5,6.59,12.17Zm28.92,43.88-13.61-10,2-10.75C1150.77,363.5,1162.91,367.25,1157.13,377.75Zm2.67-33.13.8-1.74,10,1.26c0,1.95,0,2.93,0,6-3.16-1.85-4.87-2.94-6.7-3.88C1162.61,345.6,1161.17,345.16,1159.8,344.62Zm8.44,86.69-6-10.24,13.77-8.89,4.75,13.34Zm24,2.37-1.27-.1v-3.06l1.28.1C1192.21,431.64,1192.21,432.66,1192.2,433.68Zm7.61,6.4-1.83-.38v-5.08l3.33.57Zm55.8-27.22-3.92-.29v-1l3.92.29Zm6.32-37.64-15,13.84,3.9,3.66c-3.66,2.69-7.33,5.26-10.79,8-2.08,1.65-4.31,5.36-5.68,5-8.36-1.92-12,3.73-17.81,6.1l-10.31-8-12.8-.93-11.56-8.1,5.29-3.85c4.78,2.75,9.27,5.49,14,8,6.66,3.56,13,4.1,18.25-.73.69-.65.81-1.7,1.28-2.74-1.37-2-2.81-4.19-4.12-6.16,2.12-3.08,4-5.87,6.1-8.86l5.37,1.2-4.85,6.78,7.15,2.26,4.37-6.74,7.86,3.62L1249,373ZM1192,372c2.28-4.57,4.08-8.18,6-12l13.35,13.27Zm20.77,24.42v1l-3.86-.27v-1Zm36.35-51,1.31.08c0,1,0,2.06,0,3.09l-1.3-.08Zm-28.9-43-1.22.91a2.62,2.62,0,0,1-1.06-2.57Zm-3.09-2.26-.46.35h-.14l.52-.39Zm-7.6-6.33c3.54,2,6.22,3.55,6.72,6.64l-7.21-.81C1209.22,297.5,1209.36,295.85,1209.53,293.81Zm-19.78-12.2,3.84.2v1l-3.84-.2Zm-29.32-3.67,9.87,7-11.51-.59Zm-15.28-27.27,6.86,1.43-1.39,5.26-5.47-.25Zm1.42,23-8.17-3.61C1147.56,270,1147.56,270,1146.57,273.71Zm-6.07,24c1.48-.61,3.09-1,5.3-1.74l6,6.54,17.32.95,7.21-5,20.76,5.27c.23,2.43.47,4.84.69,7l7.14,2.37c-1.33,1.73-2.47,3.24-3.62,4.74l-7.24,0c-.19,1.83-.33,3.15-.55,5.17l7.24,1.06c.24-2.43.42-4.23.6-6.13a30.44,30.44,0,0,1,18.85,8.7c.81.79-.16,2.69-.32,4.18-5.23-1.64-9.69-6.07-15.07-1.54l1.29,4,14.75,1.53c0,5.14,0,10,0,15.24l7.89-3.08,12.92,13.6,2.36-1.71,9.31,4.49-12.47.65c-.9,2.07-1.66,3.8-2.38,5.42l-9.37-.62c1.55-8.9-12.74-9.24-15.23-16.78-.72-2.17-4.17-4-6.62-5.8-.79-.56-2.39-.43-3.62-.55s-2.56-.17-4.17-.27c-7-5.22-12.49-12.76-23.45-13.56-5.29,7.82-5.29,7.82-16,7.4,0-2.74,0-5.47,0-7.28l7.9-3.23-11.81-10.35-8.22-.48c.08-3.27.79-6.64-5.8-6.67-1.75,0-3.66-2-5.49-3.06,1.25,3.09,2.5,6.2,3.75,9.3l7.54.43-2.85,2.87-4.69-3.3-19.12-6.28,15.37-3C1136.82,304.37,1135,300,1140.5,297.71Zm-8-2.36-18-1c0-1.82,0-3.16,0-5.72C1121.11,289.91,1128.54,287.1,1132.46,295.35ZM1104.4,215.5c7,7,16.36,12.26,22.07,20.8l-6.2,2.11c-7-7-16.35-12.29-22-20.79Zm8.88,25.83s2.44,2.07,2.31,2l-8.34,11.17-12.77-11.89C1101,236.05,1107.62,245.31,1113.28,241.33Zm-32.81-30.47L1070,206.29C1080.1,205.77,1081.94,207.37,1080.47,210.86ZM963.22,146l1.18,0c0,1,0,2,0,2.93l-1.17,0ZM936.9,169.29c.33,2.38.64,4.68,1,7l9.62,3.92c.46-6.17.88-11.67,1.42-18.92l10.4,7-8.14,2,8.51,7.37,12.14.41,2.56-6.06,9,4,9.52-3.37c.62,2.4,1,3.75,1.49,5.79,2.68.51,6.26.58,9.07,1.88,3.39,1.55,6.11,4.15,10.42,7.22,1.12-4.5,1.87-7.52,2.46-9.94l9.12.31c.89,2.17,1.57,3.84,2.33,5.71l3.87-3a53.66,53.66,0,0,0,5.5,4.61c2.42,1.56,5.19,2.77,8.52,4.5l-4.41,3.61c-6.43-1.41-9.91-12.24-19.41-4.11,5.45,7,19.08,9.61,18.52,20.55l-19.52-5.5,9,11.88,6,.25c-1.06,4.16-1.9,7.48-2.9,11.38l17.66,7.82c.71-3.92,1.21-6.63,1.86-10.21l32.47,18.85c-1.69,3.66-3,6.39-4.4,9.56l10.25.48c.9-2,1.66-3.74,2.54-5.74l5.68,4.65c0,4.18,0,8.52,0,12.68l-4.54,3.25-13.57-4.25v-3.08c-4.17-1.62-8.16-3.77-12.44-4.68-5.15-1.08-10.55-1.12-15.57-1.58-1.81-1.68-3.33-3.1-4.25-3.94l4.14-7.69a72.52,72.52,0,0,1-8.49-.66v-6.35l-13.58,2.12-2.75-5.7c-6.16,2.56-12.62,3-14.26,8.94l-4.87-8.24,6.39-5-3.09-3,7.56-4.86c2.79-4.68,9.52,1,10.13-5-1.8-.07-4.45.45-5.25-.31-4.08-3.9-8.71-5.75-14.83-7.11-5.6-1.25-10.27-5.77-15.47-8.67-.61-.34-2,.38-3.38.67l4.79,8.2,7.23.28,6,5.23-11.82,4.42-.59-1-16.06,10.07c.88,1,1.68,2,5.06,5.92l-19.35-6.22c0-3.23,0-5.52,0-8.89l8.35,3.38,11.8-5.51c0-4.62,0-7.44,0-10l-13.74-5.69v-4.67c-8.33,2.91-1.14,7.27-.89,11.29l-4.72.15c-3.14-10.84-3.14-10.84-14.82-11.61-.48,2.63-1,5.28-1.49,8.13l-6.59-.78c0-4.79,0-9.37,0-15.17l-10,3.61.28-.21-2.43-2.47-1.1.88,2.84,2.13.26-.2c-.7,1-1.41,2-2.75,4L910.88,183c4.58-.28,6.21-.26,7.77-.51,1.81-.29,3.54-.82,4.82-1.12.66-6.79-10.65-4-9.11-10.48C921.82,170.43,929.68,172.74,936.9,169.29Zm25.23,100.26,13.48.69c.1,1.65.19,2.95.28,4.5C969.73,276.55,965.24,275.31,962.13,269.55ZM975.54,432.4l-.24,1.42-5.87-.48c.07-.83.14-1.66.2-2.49Zm-86.94-230c.69-4,1.15-6.71,1.62-9.42,2.33.38,3.64.27,4.36.77a64.58,64.58,0,0,1,5.09,4.38,33.59,33.59,0,0,0-4.6,1C893.39,199.77,891.88,200.71,888.6,202.38Zm2.93,260.29v4.8l-2.95-.37,1.26-4.77Zm12.18,8.79c-1.92,3.81-3,5.89-4.92,9.8l7.25,3.86-5.43,4.05-7.87-14.23ZM901.61,437c0,1.93,0,3.86,0,5.79l-1.72-.14c0-1.93,0-3.87,0-5.8Zm-1.45-223.24c0-1.93,0-3.86,0-5.8l1.72.07c0,1.93,0,3.87,0,5.8Zm1.13-37.91,8.1-6.17c0,4.26,0,6.48,0,11.72Zm28,67.74c-.24.31-.49.62-.73.94l-19.1-8.67,6-4.19Zm-7.07-45.74L918.42,204C914.56,195.54,918.66,196.72,922.17,197.86Zm-6.32,286.91c.2,2.34.35,4.07.38,5.8h.1l-1.83,1.28-5.25-7.33Zm-8.49-291,1.16,0c0,1,0,1.94,0,2.9l-1.15,0Zm4,299.36a20.48,20.48,0,0,1,3.34,1.12c.37-.21.86-.45,1.51-.76a25.57,25.57,0,0,1,.12-2.9c9,.66,11.52,6,15,14.21-6.63-5-10.86-8.15-23.47-8.74C910.19,494,910.88,493,911.37,493.12Zm8.45-275.29,4.85-8,19.14,8.87c0,4.52,0,7.74,0,11.22l-7,0Zm15.5-12.89,4.59,6.33C934.64,212,934.64,212,935.32,204.94Zm2.37,42.23-.26.21a2.28,2.28,0,0,1,0-.26Zm-2.37-2.54a5.38,5.38,0,0,1,1.63,2.94l-2.73-2.07ZM937.08,511l3.49.34v1l-3.49-.34Zm.72-263.82,6.48,1.37c-.11.62-.21,1.24-.31,1.87C941.76,250.17,939.56,249.89,937.8,247.19Zm3.87,96.64,5.72,1.52-.27,1.37-5.8-.38C941.43,345.5,941.55,344.67,941.67,343.83Zm4.23-113.08,23.68,1-12.15,6.51ZM969,242.28c0-1.64,0-2.59,0-3.62l9.37-3.6,4,7.83Zm-61.36-91.74a4,4,0,0,0,2.9,1.61l10.66,6.12c-8,2.18-9.51-1.75-11.15-5.29l-.68.54-2.81-2.1Zm-8.3,8.9,6.89.21c0,.49,0,1,0,1.45l-6.88-.21Zm-9.64-26.53,5.69.15c-.13.83-.25,1.66-.38,2.49l-5.58-1.27Zm-1,9.86-1.08.88c-.7-.71-1.4-1.42-.74-2.24ZM886.42,141l-.78-.06.34-.28ZM876.84,118a6.74,6.74,0,0,1,1.9,2.67l1.81-1.4,5.2,6.91-6.52.21a23,23,0,0,1,0-6l-.66.54-2.79-2.07Zm-21.16-13.88c-11.36,6.72-13.58,6.12-16.94-3.94C845.11,97.7,849.36,102.5,855.68,104.07ZM857.17,122l-11.26.94c-.38-1.71-.34-3.15-1-4.27-1-1.51-2.4-2.8-2.87-4.71A22.49,22.49,0,0,1,857.17,122Zm-17.57-10.6c.77.79,1.55,1.59.9,2.35l-2-1.47Zm2.18,2.53-.5.41-.76-.58Zm-9.67-19.65,2.9.34c-.43,1.55-.87,3.11-1.31,4.66L832.1,99C832.11,97.42,832.11,95.84,832.11,94.26Zm-2.93-2c-8.62,3.34-12.59-1.79-17.66-2.85,0-1.55-.18-2.1,0-2.46a27.79,27.79,0,0,1,2.32-2.74ZM799.41,47.8h1.1v2.83h-1.1Zm-2.35,4.13c3.75,6,11,9.23,6.74,15.3l-12.53-5.45Zm-13,10.32c1.39,2.81,3.07,6.21,4.76,9.61l-2.06,1.27L776,62.15ZM762.31,75.6c2.33.2,3.69.32,3.29,4.21l-2.68,2.38C762.68,79.55,762.51,77.74,762.31,75.6Zm11,19.66-4.68-4c0-2.44,0-4.77,0-7.1a3.18,3.18,0,0,1-.91-1.13,3,3,0,0,0,.91.3l9.48,7.25,10.34.19c-.3,1.91-.49,3.18-.72,4.72Zm29.89,298.89c-.64,1.29-2.48,2.07-3.84,3.12-4.69-9.28-12.48-15.12-21.35-20.68l15.78-1.31c2.34,4,3.34,10.05,11,12.51C804.3,389.91,804.17,392.21,803.21,394.15ZM805,84.38l-6.07-12.55c.78-.11,9.7,5.12,13.62,8.75Zm16.24,239.35-3.34-.21v-.95l3.34.21Zm14-153.76c-1.37-3.35-2.65-6.48-4.18-10.2l11.62.36c3.26,4,5.89,7.23,8.22,10.08l-3.33,3.46ZM853.32,441.4l-8.57-5,4.82-3.69C851.76,435.42,857.56,437.38,853.32,441.4Zm7.79-303.95-12-.32-6.67,8.94c-7.15-4.23-13.4,5.32-22.07,0l7.74-8.83-9.05-5c-.91-2.51-1.47-5.2-2.87-7.55s-3.62-4.32-6.16-7.23c9.72-3,9.81,8.84,20.42,6.06.13-.25,1.46-2.9,4.37-8.72l5.15,10.53-8.37,4.32c0,1.9,0,3.78,0,5.66l2.59,2.22c1.92-2.14,4.39-6.34,5.67-6.07,6.73,1.45,4-4,5.75-5.12l16.27,7.41C861.65,134.68,861.48,135.57,861.11,137.45Zm-1.86-25.31,10,.22-4,3.72,6.81,2.83-2.71,2.52c5.79,6.34,11.4,12.5,15.76,19.48-11.12-1.47-13.37-12.24-23.21-13l3.46-4.22C864.74,118.63,856,117.88,859.25,112.14ZM862,154.4a11,11,0,0,1,1.65-5.32l-1.08-.18,1.14.09c.16-.26.34-.52.54-.8l8.17-5.34c3.66,3.07,8.94,4.75,4.79,9.73a75.63,75.63,0,0,0-11.77-3.2c-.42,1.77-.83,3.55-1.25,5.32Zm4.76,25.75,6-7.58L890.54,181Zm-1.17,354.32,6.18,1.69c-.5,2-.89,3.51-1.25,4.93l-4.93-.51ZM848.2,601.62l21.43,16.49c-10.7.68-16.2-4.35-21.44-8.39C848.19,607,848.2,604.72,848.2,601.62ZM764.72,536.7l3.27.35c0,.31,0,.62,0,.94l-3.27-.35C764.71,537.33,764.72,537,764.72,536.7Zm0,7.54c1.62.17,3.74-.18,4.81.61,5.49,4,10.59,8.51,16.11,12.56,9.17,6.72,18.58,13.23,28.54,20.28a12.83,12.83,0,0,1-.35,3c-11.25-4.75-20.81-12-29.43-19.39-6.57-5.65-16.43-8.67-19.68-17.1-5-.09-8.37-2-9.37-6.66C760.16,537.77,763.47,539.77,764.71,544.24ZM786.1,728.46c15.61,2,19,13.27,27.86,20.36l-7.89-1.15Zm4.3,13.37-1,.75a5.12,5.12,0,0,1-1.61-3.07l-.64.46-2.69-2.36,1-.75a5.11,5.11,0,0,1,1.6,3.07l.65-.47Zm-10.66-14.56v2.83l-1.1-.15v-2.84Zm-2.45,179.24v1l-3.29-.59v-.94Zm-4.1-194.33V715l-1.1-.15c0-1,0-1.89,0-2.83ZM753,534.79a9.55,9.55,0,0,1,1.93,2.76H755l-.35.26L752,535.57ZM741.7,694.66v.94l-3.24-.45v-.93ZM739.55,685c0-.94,0-1.88,0-2.81l1.08.14c0,.94,0,1.88,0,2.81Zm-3.48-160.18,5.37.55-.33,2.4-5.29-1.64C735.91,525.68,736,525.24,736.07,524.81Zm-22.48-24.7,5.32.53-.33,2.39-5.24-1.62C713.42,501,713.51,500.54,713.59,500.11Zm1.3,159.16c0,.93,0,1.86,0,2.8l-1.07-.14c0-.94,0-1.87,0-2.8Zm-8.53-3,3.19.42v.93l-3.19-.42Zm-5.07-9.7a4.92,4.92,0,0,1,1.55,3l.62-.46,2.61,2.28-1,.75a4.94,4.94,0,0,1-1.55-3l-.62.47-2.61-2.28ZM702,719v2.8l-1.07-.16c0-.93,0-1.86,0-2.79Zm-2.14,6.21,3.19.46v.93l-3.19-.46Zm2.68,8.31c-.12.79-.24,1.58-.35,2.37L697,734.07c.08-.43.17-.86.25-1.29Zm-14.33-96.91,9.67,5.8-3.64,3.87C689.83,643,685.49,641.08,688.21,636.63Zm7.69,76v5.57l-1.59-.22c0-1.86,0-3.72,0-5.58ZM692.44,726c0,.93,0,1.86,0,2.79l-1.06-.15c0-.93,0-1.86,0-2.79Zm-5.27-16.54,3.17.45v.93l-3.17-.45Zm-.3,9.72c0,.75,0,2.93,0,5.11-3.51-6-15.63-5.57-15.56-14.92l6.4.66Zm-9.81,165.6,2.2-1.88,1,1.05a7.49,7.49,0,0,1-2.87,1.14l8.71,8.21c-6.43-2.51-10.79-4.22-17.75-9.65.18-1.11.39-2.33.64-3.83,3.58,2.25,6,3.76,8.68,5.62Zm8.76-140.5a5.07,5.07,0,0,1-1.54-3l-.62.45-2.58-2.32,1-.73a5,5,0,0,1,1.54,3l.62-.45,2.58,2.32Zm-16.18-124a4.87,4.87,0,0,1,1.53,3l.62-.47,2.57,2.26-1,.75a4.88,4.88,0,0,1-1.54-3l-.61.46-2.57-2.25Zm-20.26,96.71a11.28,11.28,0,0,1-1.37-1.62s0-.09-.07-.24c7.87,5.66,16.82,6.39,19.7,14.6C661.53,725.54,652.85,724.48,649.38,717.05ZM662.07,621l-3.14-.39v-.92l3.14.39ZM658,607l7.32,5.57-5.18,3.92C659.17,613.34,652.66,611.4,658,607Zm-4.67,83.37,8.13,4.61c0,2.45,0,4.57,0,8.27C653.59,699.42,651,695.81,653.34,690.33Zm-6.9-80.48,3.12.38v.92l-3.12-.38Zm-2.21,76.09,1,.15v2.76l-1-.15Zm2,27.89-1.47,1.41c-4.51-6.6-15.37-7.18-17.76-19C634.94,702.82,641,707.87,646.25,713.83ZM626.83,982.76l1.15-5.13,7.65,8.52ZM642,1096.92l-4.48-1c1-1.72,2-3.4,3-5.07l1.48,1.3C642,1093.68,642,1095.2,642,1096.92ZM638.7,867.21c-7.13-4.63-8.42-11.28-10.64-17.78l14.41,2.46.88,3.76,16.72,8.86-4.47,4.34C648.64,866.26,645.83,866,638.7,867.21Zm12.09,139.18-4.11-6.66C651.4,999.8,651.4,999.8,650.79,1006.39Zm9.52,42.08-1-.22v-2.77l1.05.22C660.32,1046.62,660.31,1047.55,660.31,1048.47Zm-12-169.81c4.29-.45,7.7-.79,17,5.63a13.23,13.23,0,0,1,1.7,6.47Zm24,244.79-4.89-1.92c.42-1.83.75-3.31,1.49-6.61l5.49,7.17Zm20.33-212.94c-3.36-1.42-7.17-2.12-9.21-4.15s-2.46-5.5-3.58-8.33C685,901.51,694.69,901.8,692.55,910.51Zm.38,168.07v.93l-3.18-.68v-.93Zm-9.62,113.26c.09-.58.18-1.16.28-1.73,1.17.36,2.33.74,1.66,2.52Zm6.34.16c-.06.79-.11,1.58-.17,2.37l-.64-.26C689.07,1193.45,689.33,1192.76,689.65,1192Zm2.67,11.44c-3.16-1.08-5.58-1.93-4-7.57l4.65-2C692.65,1198.29,692.5,1200.68,692.32,1203.44Zm2.59-455.06a36.54,36.54,0,0,1,4.87,2.49,23.88,23.88,0,0,1,3.27,3.32l-1.73,1.48-8.17-5.34Zm13.38,551.74c-8.45-6.12-8.51-6.13-9.24-12.07-.08-.68,1-1.17,1.24-1.45l8,5.67C708.3,1294.22,708.29,1296.37,708.29,1300.12Zm-8.45-56v-5.59l1.6.39v5.6Zm11.43-31.88c-.89,1.34-2.81,2-4.29,2.91l-2-2c1.55-2,3.1-4.11,6.43-8.5C711.42,1209.29,712,1211.2,711.27,1212.26Zm-.45-287.71-7.26-1.33c-.48-2.61-1-5.25-1.43-7.81l-6-3.26,4.66-11.47,6.11,1.09,8.62,11.81C714,917.21,712.35,921,710.82,924.55Zm10.33,296.84-5.46-1.69c0-3,0-5.38,0-10.58C719,1214.79,720.78,1217.88,721.15,1221.39ZM719.39,1204v-2.8l1.08.25c0,.94,0,1.87,0,2.81Zm2,17.42.44-.28.62.61Zm2,3c-.66-.84-1.32-1.68-.56-2.2l1.58,1.55Zm.35-482.17L712.31,746l-8.55-6.68c8.09,1.18,13.29,1.94,18.78,2.57l-.62-.64,2.24-2,1,1C724.3,740.83,723.42,741.35,723.76,742.24Zm4.8,86.35-3.22-.53v-.93l3.22.52Zm2.66-149.27-9.91-6.93c7.45-1.36,8.84,2.59,10.37,6.17l.63-.46,2.64,2.31-1,.75A4.2,4.2,0,0,0,731.22,679.32Zm15.11,206.53-9.19-14C747.64,878.61,747.64,878.61,746.33,885.85Zm-9.69-101.19-1.79-7.32L747,779.2Zm13-10.47-8.33-5.43,1.8-2a39.15,39.15,0,0,1,5,2.53,24.12,24.12,0,0,1,3.33,3.37Zm8,186.29-3.26-.61v-.94l3.26.61Zm.28-189.25-3.26-.5v-.94l3.26.5Zm2.26-58.05L759,713c0-.94,0-1.88,0-2.82l1.08.15ZM747.46,696c8.32.11,8.32.11,13.73,7.06ZM764.17,967.5c.1-.59.19-1.18.29-1.78,2.06.55,4.13,1.1,6.1,3.76,0,.1,0,.2,0,.3Zm7.08,2.15c4.74.63,8,2.92,9.23,7.45C776,976.65,772.76,974.79,771.25,969.65Zm3,112.21,7.31,4.71C772.05,1087.81,773.7,1084.47,774.24,1081.86Zm9.53-101.29-1.65-1.73,1.65,1.73c5.11.52,8.6,2.85,9.89,7.59C788.53,987.63,785.05,985.3,783.77,980.57Zm15.16,14a10.71,10.71,0,0,1-2-3l0,0,.32-.22,2.71,2.51Zm7.8-99.71c-2.74-3-4.54-4.91-7.37-8l13.43,2.31ZM816.91,1006l-3.34-.66c0-.31,0-.63,0-1l3.33.65Zm-2.74-425.09c14.1,4.82,19.27,8.32,26.54,18.69C830.24,593.14,819.36,590.4,814.17,580.89Zm8.75,796.26c.39-1.59.77-3.18,1.16-4.77l2.17.82C826.09,1374.7,825.93,1376.18,822.92,1377.15Zm-3.16-9.58v-1.44l10,2.66v1.44Zm1.6-356.91v-2.86l1.12.22v2.86Zm3-163v-4.75l2.87.63L826,848.07Zm5.13,512.08-2.74-2.72,1.06-.63a5.89,5.89,0,0,1,1.63,3.29l.66-.38,2.74,2.72-1.06.63a5.92,5.92,0,0,1-1.63-3.3Zm1.08-343.19,1.06-.69a5.44,5.44,0,0,1,1.63,3.18l.66-.43,2.74,2.54-1.06.7a5.46,5.46,0,0,1-1.63-3.19l-.66.43Zm3.29-179.3v-1l3.36.55v1Zm-4.12,561.49-3.35-.9v-1l3.35.91Zm10.09,8.49-3.37-.92v-1l3.37.92Zm9.77-2.56-10.41-2.82-19.51-21.93c.2-.4.57-1,2.4-1.27l13.75,10.32c1.21,1.93,3.19,5.08,4.71,7.52l9.07-.37C849.63,1399.73,849.63,1402,849.63,1404.62ZM853,1170.39l-12.95-8.09c.28-1.43.44-2.29.7-3.64l8.85,2c.81,2.26,1.42,4,1.74,4.89l8.64,0,.61,1.6Zm4.48-371.2,6.48.63c.2,2.34.34,4.06.37,5.78l0,0-1.74,1.12Zm12.21,620-5.27-1.43c0-2.89,0-5.78,0-9l6.09,2.7C870.24,1414.22,870,1416.72,869.71,1419.14Zm-1.57-32.25V1384l1.14.3v2.9Zm1.62-574.95a10.34,10.34,0,0,1-2-2.93l0,0,.34-.23,2.78,2.45Zm7.07,7.15-1.14-.18V816l1.14.18Zm-2.21-9.34c.16-2,.29-3.53.44-5.44,2.67,1.87,4.78,3.39,5.77,6.79Zm22.08,23.79c-9.56-.77-11.17-6.32-15.29-9.25l2.83-2.21C887.84,825.39,891.45,828.7,896.7,833.54Zm-.45-8.5v-2.9l1.15.18v2.9Zm-.15,239.35c-9.93,1.3-8.21-2.11-7.64-4.78Zm-8.25-249.54c-1.85-.42-3.68-.86-4.44-3.34l4.74,1.52Zm-6.38-3.7a2.28,2.28,0,0,1,0-.26l.23.08Zm.55,614.51c.62.79,1.23,1.58.89,2.58l-2-2Zm1.62,3.31.35,0-.26.15ZM893.3,1439c-4.28-3.88-6.82-6.19-8.8-10.18l9.71-1.32C893.88,1431.7,893.66,1434.5,893.3,1439Zm11.41-14-10.77-2.92c.51-2,.82-3.18,1.32-5.11l9.92,4.68C905,1422.77,904.87,1423.88,904.71,1425Zm-6.47-353.78v-1l3.45.71v1Zm5,206.53c-3.79-8.57-.12-7.22,4.4-4.86Zm7.79,137.6-3-1.12c.45-1.46.89-2.92,1.34-4.38l1.65.67Zm2.38-761.28c-4.58-2.1-8.76-3.08-11.34-5.35-9.38-8.27-18.18-17-29-23.82-1.05-.67-1.23-2.52-1.65-3.85-.1-.32.44-.71.69-1.08,20.06,9.3,26.76,17,40.43,33.07l3.42,3.31A19.94,19.94,0,0,0,913.44,654.07Zm7.44,784.85-1.16-.32v-2.92l1.16.32Zm3.73-13.5-5.66-2.67.27-1.32L925,1423C924.86,1423.8,924.73,1424.61,924.61,1425.42Zm-1.16-199.14v-2.92l1.17.27c0,1,0,1.95,0,2.92Zm9.53,45.1v-5.24l3.29,1.3c-.44,1.08-1.26,3.1-2.09,5.12Zm-2.84-14.56c0-4.6,0-6.55,0-8.86l7.41,3Zm17.12-471.59-3.5-.52v-1l3.5.52Zm5.33,403.47-1.68-.61v-4.86l3,1C953.5,1185.72,953,1187.21,952.59,1188.7Zm19.68-70.61c-1,2-1.53,3.09-2.53,5.13l-16-8.56c.33-1.76.49-2.62.63-3.38Zm-.13-224,1.12-.74a5.5,5.5,0,0,1,1.73,3.23l.69-.46,2.89,2.55-1.11.74a5.42,5.42,0,0,1-1.73-3.24l-.7.46ZM968,1178.72v1l-3.54-.78c0-.33,0-.66,0-1Zm-10.6,1.57v-1l3.53.78v1Zm15.85,24.12c-4.29,3-4.48-4.39-9.19-2.62-4.91,1.84-2.22-2.25-3.36-4.4,5.86.64,11.45,1.34,15.15-2.11.84-.78,3.69.09,6.93.28Zm16.11-67.27-3.56-.76v-1l3.56.76Zm-3.1-425.73v-5l-9.16-1.22a87.64,87.64,0,0,0-7.13-7c-2.51-2-5.58-3.49-8.36-5.25-3.41-2.16-4.18-4.9-3.65-7.91l-3.52-3.38c-1.73-.23-4.18.08-5.08-.75-9.58-8.91-23.86-11.43-33.3-20.78,0-.92,0-2.35,0-3.79h0l41,21.89-2.63,3.43,3.52,3.38c5.44,3.64,10.51,8.11,16.48,10.72a23.84,23.84,0,0,1,11.82,10.64c4.63,3.7,12.44,4.32,14.27,10.76Zm7,428.75,1.13-.69a3,3,0,0,1,1,2.63Zm2.85,2.63.42-.27.13,0-.48.3Zm7,7.22c-3.28-2.46-5.76-4.34-6.22-7.39l6.68,1.84C1003.39,1146.5,1003.26,1148.07,1003.1,1150Zm4.2,2.94c.11-.61.21-1.23.32-1.84,2.26.64,4.53,1.3,6.7,4.16,0,.11,0,.22,0,.32Zm7.11-13.43-3.6-.77v-1l3.6.77Zm5.72,22.75a11.76,11.76,0,0,1-2.14-3.16l0,0,.35-.21,2.94,2.71Zm5.5-418.91-3.61-.5v-1l3.61.5Zm-1-5.85-20.57-12.9v-4c1.19.16,2.63,0,3.53.54,5.77,3.47,10.62,8.16,17.83,9.82,1.46.33,2.56,3.22,3.83,4.93Zm4.53,431.18,1.14-.69a11.81,11.81,0,0,1,2.14,3.17l0,0-.38.22Zm10.54,7c-2.69-1-6.74-.1-6.87-4.44,2.74.83,6.57.12,6.87,4.44h0Zm5.78,7a11.89,11.89,0,0,1-2.15-3.18l0,0,.36-.21,3,2.73Zm4.32-417.08-1.21-.18v-3l1.21.17Zm6.63,425.47a5.83,5.83,0,0,1-1.78-3.38l-.72.43-3-2.74,1.15-.69a5.83,5.83,0,0,1,1.78,3.38l.72-.43,3,2.74Zm-14.24-444.16-13-2.8c0-3.42,0-5.81,0-8.2h0l9.78,1.34c6.15,6.56,12.71,13.57,19.3,20.59l.05,0-.05,0C1050.41,756.87,1045.52,752.61,1042.19,746.93Zm26.59,21.44c-3.43-2.3-6-4-6.8-7l0,0,.07-.06,7.24,1.46C1069.08,764.79,1069,766.39,1068.78,768.37Zm3.59-290.1-6.13-1.63c.09-.49.17-1,.25-1.45l6.09.53Zm3.64-5.76-1.84-.16v-6l1.84.16Zm6.13,6.8,12.64,1.11c0,3.63,0,5.94,0,9.84l-18.47-6.72Zm-3.42,729-1.23-.28v-3l1.23.27ZM1077,773.7l1.16-.78a10.56,10.56,0,0,1,2.18,3h.05l-.38.25Zm16.5,447-1.23-.28v-3l1.23.28Zm7.42,4.68-1.24-.28v-3l1.24.28Zm14.91,12.44-1.25-.28v-3l1.25.28ZM1111,803.67c-5.54-5.26-10.73-10.17-15.84-15.12-.31-.29,0-.95,0-1.45-8-.71-11.41-5.67-14.23-11.05,7.69.89,11.06,5.88,14.23,11.05,8.41,3.16,25.14,14.59,32.64,22.7Zm12.19,244.58a5.74,5.74,0,0,1-1.82-3.37l-.73.45-3.06-2.69,1.18-.73a5.76,5.76,0,0,1,1.83,3.37l.73-.46,3.06,2.7Zm5.44-238.13.38-.25,3.06,2.57-1.18.78a11,11,0,0,1-2.22-3.08Zm2.33,245.69-1.85-.55v-5l3.22.79C1131.87,1052.61,1131.42,1054.21,1131,1055.81Zm1.67-529.93.37-.26,3.06,2.41-1.18.84a10.17,10.17,0,0,1-2.23-3Zm32.16,811.6-1.27-.31c0-1,0-2,0-3.05l1.27.31C1164.79,1335.45,1164.79,1336.46,1164.79,1337.48Zm20.42-53.31c-2.91-1.13-7.33-.18-7.66-4.84-2.89-1.13-7.31-.17-7.63-4.82-2.89-1.13-7.29-.18-7.61-4.82-2.88-1.12-7.27-.16-7.59-4.8-2.88-1.12-7.26-.16-8.51-3.84l-11.61-8.74c8.72-.55,10.35,3.91,12.55,7.8,2.86,1.11,7.25.15,7.57,4.78,2.87,1.12,7.27.16,7.59,4.8,2.88,1.13,7.29.17,7.61,4.82,2.89,1.13,7.31.17,7.63,4.82,2.9,1.14,7.34.18,7.66,4.84l3.83,4Zm10,11.25a12.61,12.61,0,0,1-2.28-3.32l0,0,.37-.21,3.14,2.87Zm5.1-11.9c-8.71-1.62-8.71-1.62-14.88-8l14.88,3.43Zm10.64,20.12c8.42-.44,10.42,3.54,12.41,9.27-.16-.1-.31-.18-.47-.29Zm20.24,12.66a28.89,28.89,0,0,1-7.37-3.11c0-.59.09-1.17.14-1.76l7.57,3C1231.37,1315,1231.25,1315.67,1231.14,1316.3Zm31.15,19.31c-8.72,0-14-4.88-21.72-10.63l11.25-2.78c-1.67-3.19-2.76-5.26-4-7.65l14.5,3.41C1262.3,1324.12,1262.29,1329.94,1262.29,1335.61Zm-5.7-351.47V981l1.31.23v3.1Zm4-80V901l1.31.21v3.1Zm-12.2-198.54,4.78-7,4.93.44,14.28,10.31-9.86,11.69Zm32.42,707-18-9.2.55-2.94,19.52,4.88,3.39,3.51Zm12.29-400.72-9.62-1.73c-.39-3-.7-5.49-.84-6.57L1266,989.87l12-2.74c.74,4.21,1.25,7.14,1.79,10.22l7.72,1.36c8.84,7.13,17.26,13.87,25.62,20.71.62.5.61,1.48.89,2.25l-3.06-2.66-6.09,9Zm15,128.44c-.77-11.16.2-11.81,10-9Zm66.24,32.41-1.37-.28v-3.17l1.37.28Zm20.55,23-2-.63c0-1.76,0-3.52,0-5.28l3.53.91Zm19.33,42.63,1.39.3v3.19l-1.39-.3Zm-9.83,194.3c.22-2.59.45-5.35.84-10,8.13,7,16.56,10.82,22.27,21.29Zm59.74-38.23v-16.88l6.37,2.44Zm-.88-98.18c.12-.67.24-1.33.37-2,2.66.77,5.33,1.55,7.9,4.72l0,.35Zm20.61,11.83c-2.69-.78-5.37-1.57-7.94-4.75l0-.34,8.28,3.08C1484,1306.77,1483.91,1307.44,1483.79,1308.11Zm9-5.34-4.27-1v-1.08l4.27,1Zm3.87,10.85c.51-2.12.84-3.48,1.9-7.85,2.65,4.92,4,7.44,5.07,9.42Zm.56-19.19v-5.62c-7-6.11-11.49-10-15.86-14-.42-.39.2-1.41.58-3.5l13.21,9.87,8.43-1.66c1.85,6.42,3.43,11.89,5,17.49Zm21.32-14.89-8.61-1.88V1276l8.61,1.87Zm31.06,41.3c-3.53-3.31-7.06-6.61-12.12-11.33l9-.74,6,10.63Z"/><path d="M19.58,438.41l-.31-.43,0,0A4,4,0,0,0,19.58,438.41Z"/><path d="M543.29,602.87a19.26,19.26,0,0,1-3.3-.19l-.4.05c.81.34,1.6.73,2.41,1.07.37-.3.79-.6,1.29-.93Z"/><path d="M916.22,494.83l-1.51-.59C912.72,495.34,914.46,495.09,916.22,494.83Z"/><path d="M592.41,127.41l.59.25-1.15-.61Z"/><path d="M745.43,335.35l.29-.15h0A2.2,2.2,0,0,1,745.43,335.35Z"/><path d="M138.56,1054.06h0l0,0v0Z"/><path d="M865.49,149.14l-1.78-.15-.06.09,1.79.3Z"/><path d="M508.88,992.48l1.35.34c-.44-.19-.87-.39-1.29-.59Z"/><path d="M1191.32,595.82c-.19.43-.39.85-.6,1.28C1192.42,599,1191.87,597.44,1191.32,595.82Z"/><path d="M1250.47,469.27l1.09.26c0-.61.09-1.21.12-1.43A12.28,12.28,0,0,0,1250.47,469.27Z"/><path d="M125.09,774l.17.48.06-.16Z"/><path d="M496.2,557.22l1.38-.24-.66-.29A2.71,2.71,0,0,0,496.2,557.22Z"/><path d="M1236.21,483.26c-.2.11-.41.24-.61.37l.06,0A4.71,4.71,0,0,0,1236.21,483.26Z"/><path d="M480.41,548.58l1.35.22c-.45-.19-.85-.38-1.27-.58Z"/><path d="M745.43,335.35c-.92.48-.54.31,0,0Z"/><path d="M64.38,757.49,68.61,764l4.61-2.49,1.32,4.26c4.8,3.93,7.77-.5,11.77-.58,0-1.68,0-3.29,0-5.18-1.47-1-3.14-2-4.83-3.14l2.24-2.1L74.59,747l-7.74-1.31C70.65,753.36,70.58,753.72,64.38,757.49Z"/><path d="M153.53,359.29c3.57,2.83,8.44,5.43,13.78,3.22-1.68-3-3.36-6-5.27-9.48-10.53.41-16.3-11.23-27.91-12.28C141.23,347.66,146.91,354.06,153.53,359.29Z"/><path d="M199.07,186.5c3.28,1.36,6.81,2.4,9.88,4.22,2.67,1.58,4.81,4.05,7.26,6.2.18-.23.33-.46.5-.69.59.7,1.19,1.4,1.78,2.11l.82-.76-2.12-1.85-.37.34c3.11-4.29,3.62-8.18,1.81-13.18L213.5,185l-4.7-2.84,3.53-3.28-7.55-1.21Z"/><path d="M1307.23,495.72,1293,494.47l-7.72-6.73-7,4.95c9.17,13.56,27.74,11.56,40,19.58C1322.25,502.9,1305.79,504.38,1307.23,495.72Z"/><path d="M217.85,697.21,202.4,680.72l-2,.22,2.26,4.32-5.08-.31C199.74,693,204.81,696.05,217.85,697.21Z"/><path d="M577.55,88.75c-5.72-4.82-2.45-16.79-16.62-12.24l4.17,12Z"/><path d="M186.26,210.45l3.51-3,2.67,2.42,4.12-3.81-14.62-5.88c-1,1.59-2.19,3.65-3.52,5.89a45.65,45.65,0,0,1,4.39,1.76A28.83,28.83,0,0,1,186.26,210.45Z"/><path d="M456.06,941.7c.28-4,.56-7.84.88-12.35l-9.09-6.07c1.63,4,2.51,6.19,4,9.91l-6.69-4.27C444.11,935.74,450.69,937.79,456.06,941.7Z"/><path d="M188,161.55c3.77,6.14,5.28,11.75,11.38,13.72C202.56,167.65,202.24,167.23,188,161.55Z"/><path d="M197.58,684.83c.31-2.94-1.14-6.61,2.27-8.18-2.45-2.54-4.93-5.1-7.39-7.66-.72,3.54-1.43,7.08-2.24,11.11C191.62,682.53,193.76,685,197.58,684.83Z"/><path d="M576.73,53.83,583.92,57c.9-.8,1.64-1.23,1.56-1.41-1.23-3.1-2.56-6.17-4.23-10.09l-10.18,3.67c0,2,0,4.11,0,6.42C573.73,57.91,573.27,53.28,576.73,53.83Z"/><path d="M266.84,754.17c4.59-4.54-2.44-8.62-1.08-13.4l-5.78.14c1.29,1.61,2.09,2.62,2.93,3.68l-6.58,2C260,750.19,262.86,753,266.84,754.17Z"/><path d="M349.45,831.26c0-1.63,0-3.34,0-5.46l-7.86-8.1c0,4.87,0,8.63,0,12.06,1.35,1.69,2.53,3.18,3.72,4.66Z"/><path d="M274.46,350c-1.69-1.77-2.6-4.21-3.84-6.36l-1.81,1c1.39,4.89,2.77,9.78,4.5,15.88l8.4-6C278.37,352.47,276,351.58,274.46,350Z"/><path d="M384.86,452.75l-3.46,8L398,464.81C395.58,458.14,388.8,457,384.86,452.75Z"/><path d="M.33,453.66c.28,1.7.5,3.1.78,4.81l3-2.43c2,3.06,2.05,8,8,7.79A44.21,44.21,0,0,1,10,458.66a17.25,17.25,0,0,1-.05-4Z"/><path d="M117.93,328.66c-.32,3.2-.55,5.38-.82,8l15.5,1.17Z"/><path d="M586.77,1235.4l.28-.18c-.7-.93-1.41-1.85-2.12-2.77l-1,.62,2.46,2.51-5.8,3.74c2.39,6.08,10.51,5.85,13.34,11.73l3.5-4.28-4.72-1.19C587.19,1242.18,593.11,1237.53,586.77,1235.4Z"/><path d="M716.44,1338.7l-8.58,1.53,10.23,8.25v4l-.29-.33-2.63,1.25,1,1.16,2.24-1.69c0-.07-.11-.13-.17-.2l5.59,1.07c.32-1.37,1-2.32.61-3C721.81,1346.61,719,1342.47,716.44,1338.7Z"/><path d="M283.51,766.55c-.61-5.66-1.09-11.33-10.18-14.68C274.14,759.62,280.24,762.22,283.51,766.55Z"/><path d="M209,286.58l-5.88-14.44-4.26,5C203,278.57,202.34,285,209,286.58Z"/><path d="M871.28,1457.42c.08.92-.15,1.91.24,2.21,4.37,3.49,8.84,6.87,13.3,10.29l2.91-.5-4.06-8.53Z"/><path d="M579.72,170.15l-14.89,4.76L579,180.15C579.24,176.5,579.42,174.1,579.72,170.15Z"/><path d="M754.94,61.53l3.46-7.83-8.46-5.14c-.37,4.94-.63,8.38-.94,12.43Z"/><path d="M1448.9,793.67c.76-3.15,1.52-6.31,2.24-9.26l-12.09-6.09C1436.61,785.27,1443.06,789,1448.9,793.67Z"/><path d="M1283.18,506.14l-11.87-1.07-3.39,4.45,15.25,6C1283.18,512.62,1283.18,509.76,1283.18,506.14Z"/><path d="M817.72,415.75v5.7l10,.82c-.28-2.91-.56-5.82-.94-9.74Z"/><path d="M397.91,475.17l3.44,3.56c1.91,1.51,2-1.69,3.47-1.7a39.07,39.07,0,0,1,4.14.38l-.25.21c.65.79,1.31,1.57,2,2.35l.9-.74-2.31-2.06-.26.21c0-2.13,0-3,0-3.86C406.44,470.74,403.84,471.13,397.91,475.17Z"/><path d="M76.89,719.25,69,722.49l7.1,8.29C76.36,726.94,76.57,723.92,76.89,719.25Z"/><path d="M217.12,122.43l-5.6,4.32,9.7,4.21C223.84,126.12,220.25,124.8,217.12,122.43Z"/><path d="M233.39,128.27l-10.6.43,8.64,9.38C232.24,134.05,232.66,131.93,233.39,128.27Z"/><path d="M329.66,412.06l7.95-2.23-7.73-4.36-6.95,2.5Z"/><path d="M1533.65,1003.47c3.9,4.68,8.88,5.83,14.87,4.8v-4.89l-16.52-2.81A21.2,21.2,0,0,0,1533.65,1003.47Z"/><path d="M520.64,1189.14l.28-.18-2.07-2.71-.93.62c.8.83,1.61,1.65,2.42,2.47l.28-.19q2.93,4.69,5.83,9.4l-.18-.22-2.44,1.29.94,1.08,2.08-1.7c-.09-.1-.18-.21-.28-.31,2.57.41,6.29,2.78,5.84-3.09Z"/><path d="M1486,818.53l9.24-8.25-17-2.36Z"/><path d="M575.19,1237.66l5,1.63c0-2.62,0-5.16,0-7.87l-5-1.67C575.2,1232.34,575.2,1234.7,575.19,1237.66Z"/><path d="M1279.44,500.88,1264.35,496C1266.94,503.75,1264,505.8,1279.44,500.88Z"/><path d="M219.66,155.78q0-3.78,0-7.56l-9.61,2.59Z"/><path d="M616.61,226.66c0,3.09,0,5.5,0,9.84l7.15-8.34Z"/><path d="M1307.68,411.23l5.25,3.09,10.11-3.08C1320.17,408.07,1315.68,408.15,1307.68,411.23Z"/><path d="M547,1211.93l-8.67-10C538.69,1207.69,541.56,1210.28,547,1211.93Z"/><path d="M235.39,320.94l6.07-.69-6.05-8.38C235.4,315.87,235.39,318.1,235.39,320.94Z"/><path d="M466.59,522.15c-7.84-5.46-5.41,3.63-9.91,4.12C465.89,530.72,460.91,520.53,466.59,522.15Z"/><path d="M607.89,1264.48c0-4.86,0-7,0-10.26l-7.7-.43Z"/><path d="M131.59,620.38c1.6,4.26,4,6,7.46,6l-2.51-5.31Z"/><path d="M1048.09,1275.36l-10.9-9.2C1040,1273.08,1040,1273.08,1048.09,1275.36Z"/><path d="M864.65,1451.6l-10.18-9.24C857.06,1449.14,857.06,1449.14,864.65,1451.6Z"/><path d="M560.46,1219.83l-9-8.27C553.73,1217.83,553.73,1217.83,560.46,1219.83Z"/><path d="M1299.1,521.33c3.37,2.74,4.91,7.46,11.94,4.79C1307.66,523.37,1306.11,518.66,1299.1,521.33Z"/><path d="M109.44,325.52c1.21,2.2,2.43,4.4,3.8,6.87C116.93,328.24,112.68,326.66,109.44,325.52Z"/><path d="M656.37,266.21c-2.64-2.28-3.84-6.39-9.32-3.74C649.68,264.76,650.88,268.86,656.37,266.21Z"/><path d="M1061.69,1399.17c0,2.59,0,3.91,0,5.74l12.6,3.27Z"/><path d="M0,491.38l7.16.81-6.74-3C.34,489.55.2,490.33,0,491.38Z"/><path d="M.42,489.15h0c0-.06,0-.1,0-.14A1.06,1.06,0,0,0,.42,489.15Z"/><path d="M33,506.42,29.8,501C29.33,506.76,29.33,506.76,33,506.42Z"/><path d="M755.4,43.16l-6.31,3.55,6.31,1.07Z"/><path d="M174.5,659.46l-7.66-1.12c0,.42,0,.84,0,1.25l7.67,1.12Z"/><path d="M1523.16,962.44l2.89.67c.55-3.1,1.11-6.2,1.66-9.31l-4-.74Z"/><path d="M68.66,360c-.32,1.45-.6,2.77-1.48,6.8l6.22-5.51Z"/><path d="M61.82,747.91c1.72-1,2.41-1.37,3.06-1.8s1.35-1,2.53-1.86l-4.92-2.07C62.28,744,62.13,745.25,61.82,747.91Z"/><path d="M1380.46,503.47l-8.34-2.78c0,.1,0,1.48,0,3.42l7.06.62Z"/><path d="M1021.12,1260l10.27,4.19-8.92-9.66C1021.88,1256.93,1021.58,1258.16,1021.12,1260Z"/><path d="M138.16,1077.44c2.24.85,4.5,1.69,6.75,2.53,0-.73,0-1.46.05-2.19l-6.7-1.61C138.23,1076.6,138.19,1077,138.16,1077.44Z"/><path d="M138,1085.48h0C138,1085.14,138,1085.11,138,1085.48Z"/><path d="M137.49,1087.79l6.44,1.56-6-3.87Z"/><path d="M1259.49,1424.77l10.34,3.81c.12-.89.23-1.78.35-2.67l-10.48-2.67Z"/><path d="M190.79,222.76c0-2.29,0-3.39,0-6.31-1.34,3-2.1,4.77-2.52,5.74Z"/><path d="M598,644.32c-.41,1.44-.81,2.88-1.21,4.32l2.65.62c0-1.51,0-3,0-4.53Z"/><path d="M1258.56,491.61c.07-.87.14-1.75.22-2.63l-6.51-.57-.27,1.5Z"/><path d="M601.49,226.1l-.18,2.33,5.08.23.21-1.33Z"/><path d="M179.59,670.22v1.25l5.13.77c0-.42,0-.84,0-1.26Z"/><path d="M187.57,667.42l4.89,1.57v-2.51l-4.71-.69Z"/><path d="M1331.36,395.21l-3.48-.56v5.2l1.92.38C1330.31,398.55,1330.84,396.88,1331.36,395.21Z"/><path d="M62.67,960.27l6-.41a26.1,26.1,0,0,0-3.42-1.8C64.94,957.93,64.44,958.73,62.67,960.27Z"/><path d="M1517.86,1010.07v-5.38l-2-.6c-.56,1.66-1.12,3.33-1.67,5Z"/><path d="M59.59,756l4.73,1.74c0-.69.09-1.39.13-2.08l-4.64-1.2C59.73,754.92,59.66,755.44,59.59,756Z"/><path d="M1268,477.38c-.09.5-.17,1-.26,1.5l6.59,1.69c.07-.88.15-1.76.22-2.64Z"/><path d="M1196.3,477l.39-2.62-6.37-.54-.3,1.43Z"/><path d="M474.6,535.54,469.75,534c-.05.75-.11,1.51-.16,2.26l4.81.54Z"/><path d="M123.07,1061.35l4.18,1.9c0-.7.1-1.4.14-2.09l-4.15-1C123.18,1060.56,123.12,1061,123.07,1061.35Z"/><path d="M1557.45,1409.06l3.77,1.26v-5.43l-2.08-.75Z"/><path d="M479.72,529.61l1-5-2.91-.32c0,1.62,0,3.25,0,4.87Z"/><path d="M1116.73,1322.51l-.07-.06-3.05,1.37,1.18,1.24,2.6-1.84c-.12-.14-.25-.28-.38-.41l2.9.82q.3-2.82.62-5.64l-2.42-.85Z"/><path d="M1548.72,1439.66l3.77,1.28v-5.42l-2.07-.76C1549.85,1436.39,1549.29,1438,1548.72,1439.66Z"/><path d="M1228.62,1387l2,.48v-6.18l-2-.48Z"/><path d="M565.58,1228.45c-.06.38,1.08,1.2,3.39,3.63-1-3.57-1.56-5.35-2.07-7.12A16.71,16.71,0,0,0,565.58,1228.45Z"/><path d="M429.36,503.67c-.07.41-.15.82-.22,1.23l4.67,1.53c.09-.76.19-1.51.29-2.26Z"/><path d="M393.82,1205l1.39.53c.34-1.38.69-2.76,1-4.13l-2.41-.76C393.83,1202.11,393.82,1203.57,393.82,1205Z"/><path d="M1299,1447.24l6.51,2.89c.14-.87.29-1.73.43-2.6l-6.63-1.7Z"/><path d="M673.45,1306.61l6,2c.1-.58.19-1.15.28-1.73l-6.15-2.66C673.57,1305,673.51,1305.82,673.45,1306.61Z"/><path d="M783.69,1398.08l5.47,1.49c.09-.43.17-.86.26-1.28l-5.37-2.57Z"/><path d="M57.37,361.78l-.81-.06c0,.81,0,1.62,0,2.43l.81.07Z"/><path d="M115.49,376.42v2.47l.83.07v-2.47Z"/><path d="M320.32,403.17l2.73.24v-.86l-2.72-.23Z"/><path d="M40.4,379.78l-.8-.07v2.42l.8.07Z"/><path d="M1332.51,510.57l1.34.13c0-1.05,0-2.1,0-3.14l-1.35-.12Z"/><path d="M1287.08,516l7.46.22c.2-1.85.34-3.19.57-5.25l-7.49-1.32c-.25,2.47-.43,4.29-.62,6.22l-3.83-.35,2.66,2.82C1286.25,517.51,1286.67,516.73,1287.08,516Z"/><path d="M225.19,737.06l-.87-.14v2.53l.87.14Z"/><path d="M1575.13,965.83l-4.39-.72v1.09l4.39.72Z"/><path d="M1436.54,753.35l-1.4-.19v3.2l1.4.18Z"/><path d="M584.76,637.76v.91l3,.39c0-.3,0-.6,0-.91Z"/><path d="M1537.32,974.85v3.26l1.44.24v-3.26Z"/><path d="M84,744.51l-2.46-.41v.82l2.45.41Z"/><path d="M94.63,760.23c0,.82,0,1.64,0,2.46l.83.14v-2.46Z"/><path d="M335.8,815.38v.86l2.74.48c0-.29,0-.58,0-.86Z"/><path d="M64.35,771.32l2.43.43v-.82l-2.43-.42Z"/><path d="M57.05,769.23V770l2.43.43v-.81Z"/><path d="M1349.82,1057.31v-3.16l-1.35-.25v3.15Z"/><path d="M398.74,882.82l.93-2-2.82-.52Z"/><path d="M1359.47,676l4.08.48v-1.05l-4.08-.49Z"/><path d="M70.93,957.76l-.77-.94-1.7,1.63.47.58Z"/><path d="M67.06,968.15l.81.18c0-.82,0-1.63,0-2.45l-.81-.18C67.06,966.52,67.06,967.33,67.06,968.15Z"/><path d="M101.33,1029.9l.83.19v-2.47l-.82-.19C101.34,1028.25,101.33,1029.08,101.33,1029.9Z"/><path d="M108.73,1048.9l.83.19c0-.82,0-1.64,0-2.47l-.83-.19C108.74,1047.25,108.73,1048.07,108.73,1048.9Z"/><path d="M214.41,174.06l-2.6-.1v.84l2.59.1C214.4,174.62,214.41,174.34,214.41,174.06Z"/><path d="M589.61,195.65v2.73l1,0v-2.73Z"/><path d="M1085.75,1306l1.16-.67-3-2.82-.41.23.18-2.31-7.05-2.19-.33,1.87,7,2.78-.06,0Z"/><path d="M1143.26,1344.42l-.36.2,2.64,3.13,1.19-.67-3.09-2.88-.34.2v-3l-3.13,1.27Z"/><path d="M177.34,211.76l-.85,0c0,.83,0,1.67,0,2.5l.86,0Z"/><path d="M1152.12,1352.7l1.26.31c0-1,0-2,0-3l-1.27-.31Z"/><path d="M1200.53,1369.74l3.86,1v-1l-3.86-1Z"/><path d="M1211.77,1373.22l-3.16,1.37,1.22,1.27,2.7-1.85C1212.27,1373.75,1212,1373.49,1211.77,1373.22Z"/><path d="M182.55,1119.25l-1.78,1.59-2.08,1.21.8,1,1.78-1.59,2.09-1.22Z"/><path d="M634.94,246.7l-2.16-2.35-1,.82,2.53,2,.3-.25,2.06,2.36c.34-.74.68-1.49,1-2.23l-3.06-.15Z"/><path d="M1179.05,1368.8l-1.21.67,3.1,2.89,2.64,3.13,1.21-.66-3.11-2.9Z"/><path d="M563.7,1221.7l-1,.62,2.47,2.51.59-.38C565.11,1223.53,564.41,1222.61,563.7,1221.7Z"/><path d="M641.85,255.56c0,.92,0,1.83,0,2.75l1,.06v-2.76Z"/><path d="M184.07,254.6v2.5l.86,0v-2.5Z"/><path d="M474.44,1234l1,.25v-2.67l-1-.25Z"/><path d="M1072.39,1416.21l3.68,1v-1l-3.68-1Z"/><path d="M693.83,1326.77l-1,.62,2.58,2.61,2.2,2.85,1-.62-2.57-2.61Z"/><path d="M703.15,1337.37l1.06.29c0-.94,0-1.87,0-2.8l-1.07-.29Z"/><path d="M99.11,318.56l-.82-.06c0,.82,0,1.64,0,2.45l.82.06C99.11,320.2,99.11,319.38,99.11,318.56Z"/><path d="M92.52,321.36l-2.46-.18V322l2.46.18Z"/><path d="M750.44,1363.1l3.25.87V1363l-3.25-.87Z"/><path d="M741.76,1364.54l1.08.29c0-.94,0-1.88,0-2.82l-1.08-.29C741.76,1362.66,741.76,1363.6,741.76,1364.54Z"/><path d="M278.19,336.51v2.56l.89.06c0-.85,0-1.7,0-2.55Z"/><path d="M747.17,1367.88l3.26.87v-.94l-3.26-.87Z"/><path d="M131.23,340.42l.79-.72-2-1.88-.49.45Z"/><path d="M283.5,357.36c0,.85,0,1.7,0,2.56l.89.07c0-.86,0-1.71,0-2.56Z"/><path d="M108.94,348.8l-.83-.07v2.46l.83.07Z"/><path d="M871.47,1451.46c0,1,0,1.93,0,2.9l1.14.32c0-1,0-1.93,0-2.9Z"/><path d="M62.26,350l-.81-.07c0,.82,0,1.63,0,2.44l.81.06C62.25,351.63,62.25,350.82,62.26,350Z"/><path d="M894.3,1471.39l3.45,1v-1l-3.45-1Z"/><path d="M65.48,358.39l-2.43-.2V359l2.44.2Z"/><path d="M930.1,1500l1.16.33c0-1,0-2,0-2.92l-1.17-.33Z"/><path d="M982.51,196c.3-1.29.51-2.18.71-3.08l-21.16-9.79c.42,2.92-.07,5.11,1,6.07C968.35,193.82,974.18,197.87,982.51,196Z"/><path d="M1015.93,204.51l-6.13-10.12-5,.66C1004.07,200.83,1008.13,202.68,1015.93,204.51Z"/><path d="M984,181.46c-.3,2.18-.51,3.76-1.05,7.7l8.2-6Z"/><path d="M990.73,190.9l6.8-.14c-2.15-2.84-3.79-5-5.42-7.13L990.22,185C990.37,186.79,990.53,188.53,990.73,190.9Z"/><path d="M1235.93,610.66l-11.67-1.28v1.54l11.67,1.28Z"/><path d="M1197.23,578.16c0,1.76,0,3.53,0,6l7.65.81-.35.24,2.69,2.79,1.21-.84-3.15-2.47-.35.24c0-1.78,0-3.56,0-6.1l-7.59-.79h0c-.17-1.82-.33-3.65-.56-6.12l-7.32-.37,5.83,7.81Z"/><path d="M1219.67,602.48l-6.42-.7-.26,1.49,6.46,1.82C1219.53,604.22,1219.6,603.35,1219.67,602.48Z"/><path d="M1162.84,563.32l-3.79-.39v1l3.79.39Z"/><path d="M1173.79,310.74l-2-.24-1.38,8.08,3.37.25Z"/><path d="M1184.63,313.93l-1.28-.07v3.05l1.27.08C1184.62,316,1184.63,315,1184.63,313.93Z"/><path d="M1482.14,883.71l13.57-6-15.94-2.39C1480.5,877.86,1481.08,879.93,1482.14,883.71Z"/><path d="M1438.36,830.1c-1-1-1.95-2-2.92-3l-1.32.82,3.42,2.73Z"/><path d="M844.58,131.54l2.34,2.4,1.07-.88L845.24,131Z"/><path d="M831.48,141.42l3.35.09v-.95l-3.35-.09Z"/><path d="M240.58,163.24l2.64.1v-.85l-2.63-.09Z"/><path d="M1080.75,320v-3l-3.06,1.83Z"/></g></g></svg>