<?xml version="1.0" encoding="UTF-8" standalone="no"?><svg xmlns="http://www.w3.org/2000/svg" xmlns:xlink="http://www.w3.org/1999/xlink" contentScriptType="text/ecmascript" fill="#000000" width="1092" zoomAndPan="magnify" contentStyleType="text/css" viewBox="-1.6 -3.2 1092.2 572.6" height="573" data-name="Layer 2" preserveAspectRatio="xMidYMid meet" version="1"><g data-name="Layer 1"><g><g id="change1_1"><path fill="#51233c" d="m463.59,144.09c3.93.29,7.02,5.3,11.03,7.46,21.31,11.58,59.67,19.47,84.24,26,2.69.74,7.45-.1,6.9,3.39-12.08-1.03-26.1,1.42-37.9,0-7.1-.84-20.9-5.75-28.69-7.99-19.44-5.65-37.84-14.48-57.37-19.58-3.97-3.1.64-4.03,3.24-4.71,4.66-1.23,14.73-4.9,18.55-4.56h0Zm608.49,34.54c-6.68-15.6-9.49-14.03-19.63-24.03-2.71-2.71-3.89-7.17-7.98-10.46-17.16-13.88-69.05-16.68-91.26-23.41-20.7-6.24-41.22-15.75-63.2-21.83-87.28-24.19-176.25-33.76-265.57-46.62-1.73-.25-7.13-1.77-7.77-2.61-1.3-1.62-2.48-11.98-3.78-15.69-14.02-37.21-75.5-36.17-107.78-31.95-124.66,16.15-250.33,59.52-368.69,99.7-15.46,14.54-26.95,13.07-46.42,17.87C37.74,132.42,5.59,165.69.88,221.03c-1.95,23.11-2.44,45.69,18.51,59.73,6.37,4.21,27.77,8.3,29.93,11.83,4.02,6.61,1.38,17.46,2.05,25.02,10.85,114.14,45.75,203.26,167.2,227.74,119.29,24.05,227.7,1.83,277.17-118.74,6.18-15.06,19.92-76.9,34.73-80.15,11.34-2.5,22.35,27.78,25.58,35.93,17.16,43.38,31.93,106.97,71.84,134.74,61.81,43,199.02,40.94,268.59,18.61,51.97-16.74,92.65-45.93,113.58-97.65,14.13-34.98,12.95-72.57,17.05-109.19,1.19-9.71.74-20.07,5.27-29.25,5.83-12.01,26-17.23,35.16-26.8,23.08-23.99,16.4-66.1,4.53-94.22h0Z"/></g><g id="change2_1"><path fill="#f471a4" d="m1029.05,167.7c1.3,1.21,1.6,4.34,3.88,6.42,2.69,2.55,6.26,3.12,9.16,6.88,9.71,12.22,14.9,43.24,12.62,58.43-2.48,17.58-19.53,19.83-30.95,28.72-22.22,17.37-21.79,37.23-24.17,63.05-5.4,58.58-5.4,116.53-59.64,153.85-64.07,44.09-197.82,49.85-269.23,23.7-72.59-26.61-68.39-108.84-103.01-165.53-22.65-37.03-56.88-29.31-75.11,6.77-21.9,43.35-19.25,79.42-55.39,121.41-58.32,67.73-178.3,65.58-255.49,35.05-72.43-28.65-94.81-115.69-102.76-186.53-1.35-12.02.95-23.03-3.31-35.74-8.62-25.81-38.92-18.09-46.64-33.7-5.05-10.18-.49-31.23,2.37-42.57,11.42-45.26,41.79-60.13,85.67-65.85,70.93-9.26,180.91,3.45,251.79,18.84,44.8,9.75,83.04,27.45,125.73,39.59,54.59,15.52,92.45,5.52,145.41-6.18,3.99-.86,6.7-4.63,10.14-5.96,88.88-34.17,183.91-55.15,279.47-44.02,15.97,1.87,90.51,15,99.47,23.38h0Z"/></g><g id="change2_2"><path fill="#f471a4" d="m832.08,112.05c-.98,4.3-4.31,4.32-7.87,4.7-34.96,3.63-66.68,9.61-100.54,18.86-22.43,6.14-81.54,30.6-99.45,29.32-16.82-1.24-43.9-9.99-61.26-14.48-17.05-4.37-62.95-14.95-75.15-23.59-13.52-9.57-17.24-28.92-9-43.24,7.17-12.44,28.27-8.83,40.03-12.78,55.77,1.48,111.96,8.19,167.3,16.07,48.97,6.96,97.29,16.98,145.94,25.14h0Z"/></g><g id="change2_3"><path fill="#f471a4" d="m586.48,47.75c-.75.77-7.45-2.19-10.25-2.4-29.67-2.09-72.16-5.3-99.29,6.56-19.36,8.45-28.68,24.52-30.53,45.43-.57,6.54,5.17,16.19,1.27,21.74-1.1,1.56-30.83,9.76-36.36,11.84-4.77,1.8-13.53,7.83-16.92,8.22-4.38.5-29.03-7.14-36.64-8.49-41.52-7.42-84.26-12.97-125.98-16.37-11.87-.98-23.87.88-35.65-2.23-.53-3.25,3.86-3.11,6.32-4,74.86-27.16,151.61-47.94,229.65-64.25,36.88-7.68,96.48-23.01,131.95-13.82,5.4,1.39,15.11,4.83,18.98,8.54,2.27,2.19,5.4,7.28,3.46,9.25h0Z"/></g><g id="change1_2"><path fill="#51233c" d="m186.37,188.38c24.44-2.89,53.01,1.94,77.41,4.1,53.09,4.7,107.98,11.51,159.68,26.29,11.33,3.25,32.44,8.8,39.07,18.33,2.05,2.96,2.34,6.47,4.42,9.33,6.01,8.29,12.07,9.85,13.75,23,4.81,37.48-13.82,108.9-31.59,142.68-27.04,51.34-66.03,63.84-120.85,69.72-65.54,7.04-133.79.19-178.07-54.08-46.53-57.04-61.58-227.79,36.17-239.37h0Z"/></g><g id="change1_3"><path fill="#51233c" d="m815.47,195.27c34.3-1.94,68.71-.6,102.69,1.8,10.25.73,26.2-2.54,34.62,4.38,2.05,1.67,12.08,15.8,13.49,18.68,9.6,19.83,5.16,38.12,3.56,58.3-5.29,65.14-15.09,171.75-84.9,199.83-60.17,24.19-189.07,13.32-228.34-44.87-31.5-46.66-53.6-152.65-7-195.06,33-30.09,122.09-40.56,165.89-43.06h0Z"/></g><g id="change3_1"><path fill="#ffffff" d="m186.27,215.86c16.65-2.85,33.73.85,49.96,1.87,48.42,3.05,96.59,8.54,144.07,18.94,10.34,2.25,35.88,7.18,43.87,11.23,3.96,2.01,4.62,6.83,8.48,9.89,6.05,4.8,19,6.42,20.63,16.11,4.39,25.93-9.54,77.44-18.91,102.81-15.8,42.81-36.04,64.53-81.54,74.57-47.24,10.45-117.98,9.22-158.93-19.03-45.1-31.09-59.92-111.74-50.06-162.4,4.46-22.93,16.84-49.61,42.43-53.99h0Z"/></g><g id="change3_2"><path fill="#ffffff" d="m813.21,222.83c27.38-1.84,73.66-3.47,100.3-.43,12.96,1.48,29.66,7.1,31.17,21.58,2.16,21.06-3.77,60.45-7.13,82.59-6.89,44.41-18.43,107.72-64.16,126.43-43.8,17.94-130.52,9.96-171.4-14.49-40.13-23.96-55.22-100.44-51.34-143.99,3.99-44.44,54.47-56.13,91.04-62.84,22-4.06,49.07-7.37,71.52-8.84h0Z"/></g></g></g></svg>