<?xml version="1.0" encoding="UTF-8" standalone="no"?><svg xmlns="http://www.w3.org/2000/svg" xmlns:xlink="http://www.w3.org/1999/xlink" contentScriptType="text/ecmascript" fill="#000000" width="1166" zoomAndPan="magnify" contentStyleType="text/css" viewBox="-28.5 -2.8 1165.5 1256.7" height="1257" preserveAspectRatio="xMidYMid meet" version="1"><g data-name="Layer_1"><g><g id="change1_1"><path fill="#244668" d="M1098.97,951.8c-5.08-40.29-10.35-80.55-15.62-120.8-4.99-38.08-9.98-76.15-14.81-114.33-6.89-51.18-12.03-104.1-15.71-161.94-1.01-12.86-1.92-26.25-2.87-40.02-8.71-127.22-19.56-285.56-122.47-367.61-43.1-31.03-126.09-65.92-180.92-68.37-.15,0-.3,0-.44,0-3.27,0-6.34,1.63-8.17,4.37-.28.42-.88.76-1.57.88-3.48.63-6.36,3.08-7.52,6.42-12.15,34.76-56.95,63.78-94.93,74.48-23.76,6.76-48.57,10.19-73.74,10.19-23.47,0-46.74-2.99-69.4-8.94-22.07-5.2-61.98-19.67-81.36-58.26-4.79-9.22-7.71-19.79-8.47-30.57-.24-3.39-2.21-6.42-5.22-8-1.43-.76-3.01-1.13-4.58-1.13-1.72,0-3.44.45-4.97,1.35-2.93,1.72-5.9,3.38-8.85,5.04l-3.84,2.16c-16.84,8.96-35.46,15.85-53.47,22.51-27.62,10.22-56.19,20.78-81.14,39.63-57.57,47.05-92.73,121.87-112.15,176.51-20.15,60.08-26.53,123.58-32.71,184.99-.7,7.02-1.41,14.03-2.11,20.83-4.39,35.38-7.72,71.41-10.95,106.25-3.56,38.48-7.24,78.27-12.33,117.01-7.46,51.67-18.33,103.79-28.84,154.18-6.54,31.33-13.29,63.73-19.23,96.03-6.04,38.24-10.39,75.45,2.45,110.26.08.21.16.42.25.63l.52,1.15c1.28,2.85,3.84,4.91,6.89,5.57.69.15,1.38.22,2.07.22,2.37,0,4.69-.86,6.5-2.46.51-.45,1.26-.74,1.91-.74.28,0,.52.05.9.28,4.09,2.29,8.33,3.71,12.06,4.97.17.06.34.11.51.16,26.4,7.28,48.07,10.77,68.26,10.98.88,0,2.52,0,2.57,2.46.04,2.34-1.48,2.4-1.96,2.43-22.66-.06-45.19-4.81-62.33-8.98-1.53-.47-3.25-.93-5.06-1.42-4.54-1.23-9.68-2.63-13.49-4.56-1.4-.7-2.92-1.06-4.44-1.06s-2.97.34-4.34,1.01c-2.77,1.36-4.74,3.95-5.31,6.99-.13.66-.38,1.33-.79,2.02-.16.27-.3.55-.43.83-.74,1.63-1.62,3.27-2.5,4.95-3.49,6.62-7.84,14.86-6.74,24.34.15,1.36.59,2.67,1.28,3.85,12.32,20.97,37.08,24.83,56.98,27.94,2.15.34,4.27.66,6.31,1.01.35.06.69.1,1.04.12,4.86.3,9.85.79,14.91,1.29,8.73.86,17.75,1.75,26.81,1.75,16.64,0,29.58-3.08,41.1-9.93,20.01-13.14,18.06-25.58,12.81-41.62-1.05-6.09.9-12.86,2.97-20.01.56-1.95,1.12-3.89,1.56-5.6l2.15-7.42c3.16-10.91,5.89-20.33,8.56-31.05,12.57-51.79,20.33-103.82,27.81-156.98,4.53-31.64,6.19-63.81,7.79-94.91.78-15.11,1.58-30.73,2.69-45.89,3.49-40.31,7.44-86,7.42-131.03-.65-36.09-1.85-72.76-3.01-108.22-3.15-96.3-6.41-195.88,1.19-293.37.06-.71.2-2.39,2.64-2.39.74,0,1.45.23,1.79.58.38.4.47,1.22.47,1.8-2.28,23.2-3.01,46.78-3.64,67.54-1.75,46.73-.85,94.13.03,139.98l.12,6.41c.26,29.7,1.43,59.83,2.56,88.97,2.25,58.04,4.58,118.07-.26,176.49-.52,4.99-.99,10-1.42,15-.32,3.79,1.58,7.44,4.88,9.34.31.18.84.57,1.19,1.28.47,1.92.39,4.51.31,7.24-.06,2.08-.12,4.16-.02,5.76v4.55c.07,17.37.13,35.33-.57,52.83-1.15,25.64-2.19,51.3-3.2,76.87-.61,12.98-1.54,26.25-2.44,39.09-2.49,35.56-5.06,72.33-1.4,109.28,3.35,22.98,11.42,45.94,23.93,68.12.49.91,1.01,1.8,1.55,2.7,1.47,2.47,3.96,4.17,6.79,4.65.55.09,1.1.14,1.65.14,1.91,0,3.79-.56,5.4-1.62.92.15,3.37,2.11,4.84,3.29,1.39,1.11,2.8,2.22,4.62,3.46,13.19,8.15,27.38,13.19,38.27,16.67.22.07.44.13.66.18,63.09,15.38,130.69,22.86,206.68,22.86,57.49,0,120.62-4.39,193.08-13.44.23-.03.45-.05.66-.05,1.65,0,2.03,1.49,2.11,2.38.18,1.97-.93,2.34-1.75,2.49-63.7,8.75-129.3,13.18-194.98,13.18-10.33,0-20.66-.12-30.8-.32-63.71-2.48-112.1-7.85-156.9-17.42-.17-.04-.34-.07-.51-.09-8.44-1.34-42.69-10.79-60.53-22.95-1.65-1.13-3.58-1.7-5.53-1.7-1.17,0-2.34.21-3.47.63-2.99,1.13-5.25,3.65-6.05,6.75-2.74,10.69-4.95,21.24-1.9,32.78.16.59.37,1.17.63,1.72,17.98,37.65,79.87,45.72,120.82,51.07,5.95.78,11.46,1.5,16.61,2.28,8.57,1.07,17.15,2.17,25.74,3.27,48.95,6.29,99.56,12.79,149.91,12.79,13.45,0,26.61-.47,39.12-1.4,28.79-2.19,57.8-5.85,85.84-9.41,10-1.27,20.01-2.53,30.26-3.76,5.08-.74,10.26-1.42,15.48-2.11,37.25-4.93,79.46-10.51,109.1-38.52,10.6-9.18,13.99-24.2,9.25-41.34-.44-1.52-.96-3.02-1.48-4.52-1.15-3.29-2.05-5.9-1.77-7.88.7-4.42,3.34-8.97,6.13-13.78.78-1.34,1.55-2.67,2.18-3.81,9.44-16.18,12.78-33.57,15.01-50.2,3.14-29.21,4.51-60.91,4.18-97.11-2.12-69.16-10.96-138.75-19.51-206.04-2.82-22.19-5.73-45.14-8.33-67.44-1.63-18.02-3.7-36.29-5.7-53.95-5.27-46.64-10.72-94.87-8.52-142.31,2.06-54.69,10.09-110.28,17.85-164.04,2.06-14.26,4.11-28.5,6.1-43.08l.23-2.59c.27-3.11.91-10.4,2.37-11.62,0,0,.33-.17,1.33-.17.59.03,1.33.44,1.83,1.02.35.41.54.83.53.96-2.76,23.68-6.22,47.74-9.57,71-5.59,38.87-11.38,79.06-14.13,118.91-5.54,59.18.98,118.52,7.28,175.91,1.56,14.17,3.12,28.32,4.51,42.62,2.97,26.69,6.45,53.79,9.82,80,5.19,40.38,10.56,82.14,14.15,123.22.28,3.18,2.09,6.03,4.85,7.63,2.74,1.59,4.93,12.19,5.99,17.29.83,4.04,1.63,7.88,2.78,11.24,6.93,35.4,12.27,71.77,16.97,105.44,2.92,29.38,8.2,56.13,15.23,87.27,1.02,4.49,5.47,7.72,10.06,7.72.11,0,.22,0,.34,0,.58.15,1.17.25,1.77.3,7.67.57,15.18.69,24.1.69h10.16c1.24.12,2.54.17,3.9.17,3.1,0,6.35-.29,9.75-.6,2.8-.26,5.71-.53,8.28-.53,5.35,0,5.78.63,6,2.66-.15,2.07-2.82,2.3-2.93,2.31-10.36.79-20.78.89-28.69.89-2.39,0-4.77,0-7.15-.01-1.79-.19-3.73-.28-6.03-.28-1.88,0-3.83.06-5.77.13-1.73.06-3.49.11-5.23.11-2.91,0-5.08-.17-6.83-.53-.67-.14-1.33-.2-1.99-.2-4.4,0-8.38,2.98-9.51,7.41-1.04,4.08-3.19,12.57,1.09,21.24,12.34,25.3,25.83,29.75,49.63,29.75,1.78,0,3.64-.02,5.26-.05,6.51.12,12.96.21,19.38.21,20.74,0,45.3-.87,70.17-7.31,3.63-.94,6.41-3.87,7.16-7.54,2.16-10.58-.83-20.51-3.47-29.28-1.11-3.68-2.15-7.15-2.75-10.39-.03-.17-.37-1.62-.37-1.62-1.28-5.31-2.62-10.79-1.63-14.85.5-2.06,2.05-4.47,3.68-7.01.67-1.05,1.34-2.1,2.15-3.46,7.62-13.83,10.26-29.02,12.32-43.51,4.73-36.1.36-72.21-3.85-107.13l-.47-3.93Z"/></g><g id="change1_2"><path fill="#244668" d="M565.14,170.03h.1c.08,0,.16,0,.23,0,30.13-.72,73.65-6.25,109.91-28.45.16-.1.31-.19.47-.3,18.4-12.73,67.27-46.56,46.72-87.91-.45-.91-1.04-1.74-1.75-2.47-15.76-16.24-38.59-27.78-62.66-31.66-.52-.08-1.04-.12-1.56-.12-.12,0-.23,0-.35,0-8.7.31-17.59.46-27.2.46-28.1,0-56.95-1.35-84.84-2.67-12.04-.57-24.08-1.13-36.51-1.6h-.7c-4.47,0-9.02-.15-13.6-.29l-2.82-.09c-4.67-.14-9.38-.29-14.06-.29-13.95,0-30.29,1.08-46.01,9.24-27.23,15.49-29.98,50.79-18.45,78,21.22,45.01,71.29,67.3,153.08,68.14ZM624.62,57.03c4.74.16,9.5.41,14.26.66,7.63.4,15.53.81,23.39.86h.05c.64,0,1.42-.08,2.04-.19.4,0,1.11.53,1.58,1.39.12.23.71,1.4.2,2.18-1.26,1.93-1.8,4.23-1.53,6.52.82,6.9-11.26,16.55-18.48,22.31-1.63,1.3-3.16,2.53-4.55,3.69-27.43,20.42-60.26,24.71-83.01,24.71-3.45,0-6.91-.09-10.6-.3-19.5-.63-55.72-5.66-79.16-32.17-5.82-6.98-10.14-17.63-6.11-24.79,4.6-5.81,12.29-8.19,26.33-8.19,3.09,0,6.19.1,9.41.2,3.32.11,6.57.21,9.68.21.74,0,1.46,0,2.18-.02,29.24,1.26,58.91,1.83,87.6,2.39,8.94.17,17.88.35,26.7.54Z"/></g><g id="change2_1"><path fill="#f2bc57" d="M436.43,362.92c-53.44-1.83-106.93-5.84-159.78-14.15-8.99-1.46-17.93-3.03-26.83-4.95-5.43-1.17-11.99-2.45-15.69-6.96-8.19-10.16,2.38-23.97,13.73-19.91,10.71,5.23,23.29,5.56,34.92,7.98,110.67,17.06,222.83,15.38,334.41,11.39,73.45-1.71,147.17-4.05,219.81-15.82,8.95-1.5,17.95-2.86,26.86-4.64,6.52-2.12,13.85,1.24,15.89,7.96,1.92,6.27-1.67,13.56-8.11,15.34-38.64,7.97-77.97,12.56-117.3,15.75-105.76,6.52-211.95,9.72-317.91,8.01Z"/></g><g id="change2_2"><path fill="#f2bc57" d="M510.35,546.67c-75.2-2.29-151.09-2.77-224.89-18.62-15.34-4.18-31.05-8.34-45.64-14.6-11.72-8.44-1.35-27.11,12.05-21.26,73.6,26.5,153.23,25.72,230.46,29.34,102.95,2.11,206.23-.87,308.28-14.25,17.98-2.86,35.72-4.78,52.47-11.35,5.98-2.97,13.58.15,16.26,6.1,5.77,14.39-11.86,19.43-22.55,21.69-60.99,13.56-123.76,17.05-186.01,20.06-47.29,2.45-94.64,3.78-142,2.88,0,0,1.57.02,1.57.02Z"/></g><g id="change2_3"><path fill="#f2bc57" d="M439.86,537.62c-34.63-50.19-57.55-107.43-77.2-164.81-29.13,34.3-53.19,70.53-74.83,108.63-4.51,7.81-8.96,15.65-12.99,23.73.41,8.14-7.98,14.32-15.8,12.5-19.02-5.9-5.01-25.95.98-36.96,25.77-45.76,53.94-90.37,89.16-129.44,17.15-19.11,29.55-8.84,36.1,12.06,6.13,15.87,11.44,32.26,17.38,48.1,12.78,35.15,30.41,67.95,49.15,100.19,24.56-40.39,44.02-83.83,71.27-122.57,10.67-12.12,23.84-45.83,43.67-36.55,18.64,11.64,25.31,34.94,35.1,53.53,16.29,34.38,34.85,67.63,53.29,100.89,19.27-42.14,41.42-82.88,62.67-124.04,4.15-7.87,8.32-15.72,12.45-23.61,2.78-5.29,5.49-10.87,11.24-13.48,24.26-10.65,54.99,45.9,68.52,62.16,16.74,23.36,31.8,47.86,46.09,72.78,4.31,8.15,10.63,16.35,10.22,25.97-1.73,18.4-28.1,16.71-25.17-2.09-25.92-46.77-54.57-92.73-90.11-132.28-29.42,54.53-56.56,110.43-84.29,165.69-18.37,17.79-30.04-16.6-38.3-28.56-12.13-22.15-24.11-44.36-35.96-66.65-11.14-20.84-19.7-43.93-32.3-63.54-27.33,35.27-48.11,74.68-69.34,113.73-6.44,11.41-13,22.77-19.66,34.04-7.24,14.3-16.96,25.75-31.32,10.57Z"/></g><g id="change2_4"><path fill="#f2bc57" d="M871.62,670.13c-15.61-3.84-10.62-27.06,5.24-23.99,8.67,1.77,17.65.23,26.36-.5,46.79-7.42,94.12-17.55,136.69-38.98,6.75-2.98,11.92-9.38,19.48-10.23,8.59-.58,15.51,8.41,12.43,16.53-23.56,30.71-161.14,64.38-200.19,57.17Z"/></g><g id="change2_5"><path fill="#f2bc57" d="M220.97,674.02c-26.87-.99-136.01-15.34-146.35-39.34-3.86-12.52,12.67-21.86,21.21-11.78,10.36,5.03,21.77,8.12,32.37,11.42,24.13,6.9,49,10.57,73.9,13.52,9.42.67,19.58,3.2,28.81.46,14.63-5.26,23.6,15.99,9.43,22.62-6.17,2.51-12.77,3.26-19.37,3.11Z"/></g><g id="change3_1"><path fill="#0a253a" d="M547.66,128.67c3.62.21,7.27.31,10.91.31,31.53,0,63.65-7.79,89.1-26.83,9.82-8.27,28.36-20.52,26.68-34.85,5.45-8.34-2.28-20.44-12.03-18.57-12.45-.08-24.95-1.09-37.38-1.52-38.19-.82-76.35-1.28-114.52-2.93-3.74.08-7.75-.06-11.85-.19-16.15-.52-34-1.05-44.01,12.29-7.17,11.68-1.36,26.91,6.71,36.59,21.48,24.3,54.74,34.68,86.38,35.69Z"/></g><g id="change3_2"><path fill="#0a253a" d="M391.66,48.6c.17-.1.36-.21.56-.31.17-.12.35-.25.54-.36-.4.17-.77.38-1.09.67Z"/></g><g id="change3_3"><path fill="#0a253a" d="M1107.01,898.83c-10.03-79.4-21.31-158.61-30.4-238.14-15.86-132.68-7.94-270.29-53.36-397.83-28.08-82.39-78.54-136.11-160.1-167.26-14.88-6.46-86.76-35.36-121.14-31.64-2.7-21.08-22.13-35.97-40.67-45.44-17.41-9.24-37.17-15.84-57.1-13.9-21.27.29-44.09-.23-66.91-1-24.51-.75-48.98-2.21-73.49-3.2-26.16-.13-54.68-3.22-78.56,9.51-15.69,7.97-25.62,21.51-30.56,37.02-.42.15-.84.27-1.26.47-.23.17-.48.33-.71.5.4-.19.83-.35,1.25-.54h.02l.02-.02c.2-.05.39-.1.59-.15-.01.05-.03.09-.05.14-.82.24-1.61.54-2.36.93-32.2,22.15-69.71,34.06-105.87,48.16-70.65,24.11-115.17,88.34-147.58,152.22-36.63,70.54-49.65,149.92-57.11,228.3-5.1,52.53-11.49,104.93-16.34,157.5-5.08,65.57-13.04,130.91-26.45,195.41-10.18,51.67-21.73,103.09-31.45,154.85-7.75,44.42-14.08,93.23,6.16,135.29-42.04,69.85,54.33,84.35,103.91,84.79,3.64.33,7.29.5,10.93.5,15.27,0,30.36-2.99,43.77-10.93,13.83-8.07,27.98-22.73,25.57-39.93-.04-6.96-3.22-13.39-3.95-20.12,4.05-18.99,10.57-37.34,15.19-56.21,5.26-21.78,9.78-43.91,13.78-66.19.52,42.07,8.96,78.57,32.94,117.75-29.82,87.11,88.8,100.98,148.75,108,39.53,4.7,78.96,10.7,118.68,13.69,16.97,1.76,33.93,2.51,50.9,2.51,48.33-.02,96.62-6.08,144.53-12.41,60.53-7.17,195.62-18.72,163.27-110.41,22.55-34.25,25.18-76.02,26.54-116.31.19,1.19.37,2.39.56,3.58,4.07,35.23,9.74,73.82,19.08,108.9-10.17,23.84,3.03,48.98,21.44,64.59,12.41,10.59,29.31,10.07,44.69,10.49,7.15.17,14.33.31,21.54.31,25.01,0,50.13-1.53,74.34-7.77,33.06-11.09,13.31-50.59,9.59-74.41,37.44-63.31,14.23-152.01,7.4-221.59ZM435.37,32.43c12.71-6.6,26.85-7.96,41.16-7.96,5.04,0,10.13.17,15.15.33,5.41.17,10.8.36,16.07.35,49.65,1.92,99.59,5.56,148.87,3.8,21.15,3.41,42.17,13.35,57.17,28.81,15.59,31.38-20.41,59.47-43.52,75.47-30.71,18.8-69.14,26.14-105.02,27-52.49-.54-119.29-9.44-144.3-62.5-9.21-21.75-8.27-52.38,14.42-65.29ZM1093.57,1061.58c-1.96,13.75-4.39,27.73-11.18,40.05-2.49,4.16-5.6,8.11-6.77,12.87-1.65,6.77.29,13.98,1.88,20.6,2.17,11.74,8.71,23.9,6.25,35.92-28.6,7.4-57.27,7.31-86.92,6.79-24.17.36-34.83-.79-46.24-24.18-2.42-4.88-1.63-9.69-.4-14.52,4.47.89,9.49.76,14.34.61,3.85-.13,7.59-.25,10.89.15,2.59.02,5.16.02,7.75.02,9.82,0,19.64-.17,29.44-.92,6.67-.52,12.16-5.6,12.01-12.56-1.3-13.58-13.6-12.5-25.01-11.45-4.43.4-8.71.8-12.18.38-2.05-.02-4.08,0-6.12,0-9.34.02-18.68.04-27.98-.65-1.09-.28-2.2-.4-3.32-.38-6.45-28.55-12.06-56.16-15.03-86.08-4.99-35.79-10.28-71.59-17.24-107.06-3.48-9.5-4.02-28.91-13.34-34.39-5.96-68-16.44-135.74-23.98-203.49-7.02-71.98-18.56-144.05-11.78-216.53,4.41-63.67,16.3-126.39,23.69-189.7.65-6.66-5.12-12.58-11.58-12.93-13.25-.42-13.27,13.43-14.23,23.23-9.42,68.72-21.37,138.14-23.99,207.71-3.07,66.19,8.3,131.82,14.25,197.52,10.57,90.79,25.01,181.43,27.81,272.89.29,31.95-.71,63.96-4.12,95.76-2.15,15.98-5.22,31.7-13.73,46.3-3.72,6.71-8.32,13.31-9.53,21.02-.84,5.94,1.92,11.14,3.53,16.67,2.97,10.76,2.76,23.36-6.25,31.17-31.59,29.84-78.58,32.39-119.56,38.34-38.45,4.62-76.81,10.16-115.44,13.1-71.25,5.29-142.27-5.83-212.81-14.61-37.32-5.7-111.72-9.99-129.78-47.83-2.51-9.5-.43-18.73,1.93-27.84,18.9,12.89,54.34,22.92,64.5,24.54,52.11,11.12,105.39,15.55,158.57,17.63,10.39.21,20.79.33,31.18.33,65.61,0,131.36-4.35,196.31-13.27,16.03-2.93,12.04-26.41-3.68-24.28-131.01,16.36-266.95,22.27-396.12-9.22-12.54-4.01-24.86-8.73-36.09-15.67-6-4.1-11.1-10.87-19.31-7.14-.26.19-.45.38-.7.56-.47-.81-.94-1.62-1.39-2.42-11.28-20-19.51-42.06-22.82-64.82-4.81-48.77,1.63-97.74,3.93-146.49,1.02-25.62,2.05-51.26,3.2-76.89.77-19.27.63-38.55.58-57.84-.27-5.37.75-10.93-.79-16.13-1.07-2.87-3.1-5.13-5.57-6.57.44-4.96.86-9.92,1.37-14.87,7.36-88.74-1.48-177.71-2.24-266.57-.92-48.66-1.98-97.31-.15-145.93.69-22.5,1.42-44.94,3.64-67.36.46-16.57-23.21-16.95-24.51-1.36-10.45,134.06-.61,268.35,1.78,402.58.02,43.29-3.64,86.78-7.38,130.01-3.43,46.78-3.76,93.75-10.41,140.25-7.36,52.3-15.17,104.68-27.64,156.06-3.2,12.83-6.6,24.15-10.61,38.07-2.63,10.03-6.75,20.25-4.62,30.78,5.01,15.13,5.91,21.38-8.67,30.95-22.84,13.56-51.61,6.83-76.83,5.29-19.72-3.32-45.32-5.27-56.46-24.24-.98-8.46,4.97-16.53,8.42-24.07,1-1.71,1.52-3.44,1.86-5.18,6.45,3.3,14.83,5.02,20.47,6.75,21.29,5.18,42.98,9.26,64.9,9.32,16.11-.67,15.53-24.47-.56-24.53-22.3-.23-44.13-4.68-65.69-10.62-3.55-1.19-7.1-2.38-10.38-4.22-4.52-2.68-10.3-1.63-14.09,1.71-.18-.39-.37-.8-.55-1.19-12.37-33.54-7.4-70.83-1.96-105.33,15.36-83.58,35.94-166.2,48.08-250.34,9.76-74.24,14.08-149.13,23.3-223.45,7.1-68.58,12.33-138.14,34.39-203.91,21.94-61.74,57.38-129.8,109.05-172.03,39.45-29.78,89.91-38.13,133-61.07,4.35-2.45,8.73-4.9,13.05-7.44.85,12.05,4.1,23.97,9.54,34.45,17.09,34.02,51.19,54.66,87.82,63.29,23.34,6.14,47.49,9.21,71.65,9.21,25.8,0,51.63-3.51,76.43-10.57,37.99-10.7,87.47-40.47,101.53-80.74,3.18-.58,6.15-2.3,7.98-5.04,51.76,2.32,133.29,36.06,175.62,66.53,110.11,87.8,111.14,270.84,121.29,400.43,3.45,54.31,8.5,108.53,15.77,162.48,9.91,78.38,20.54,156.65,30.42,235.05,4.33,35.98,9.07,72.38,4.33,108.55Z"/></g></g></g></svg>