<?xml version="1.0" encoding="UTF-8" standalone="no"?><svg xmlns="http://www.w3.org/2000/svg" xmlns:xlink="http://www.w3.org/1999/xlink" contentScriptType="text/ecmascript" fill="#000000" width="690" zoomAndPan="magnify" contentStyleType="text/css" viewBox="-5.5 -5.3 690.0 904.6" height="905" preserveAspectRatio="xMidYMid meet" version="1"><g data-name="Layer_1"><g><g id="change1_1"><path fill="#ffd2ab" d="M146.61,234.11c11.31,12.97,27.95,19.14,44.26,23.88.35.1.72.17,1.09.19,1.84.12,3.18.51,3.67,1.07.95,1.08.69,4.72.48,7.63-.2,2.85-.41,5.8-.02,8.54,1.7,17.73,5.08,35.67,8.35,53.02l.65,3.42,1.6,7.02c4.55,19.96,9.26,40.6,14.94,60.73.28,1,.86,1.89,1.66,2.55.1.12.34.78.27,2.22-.14.78-.09,1.58.13,2.34,9.44,31.86,20.09,56.98,33.51,79.05.05.09.11.17.16.25,11.35,16.4,25.95,26.19,39.07,26.19,7.79,0,22.07-3.64,30.2-28.11,2.71-8.58,5.2-17.03,6-26.02.02-.24.02-.49.01-.73-.04-.71.15-1.43.52-2.02.83-1.3,1.03-2.91.53-4.38-.49-1.46-1.63-2.63-3.08-3.16-24.69-9.06-48.6-27.83-67.32-52.83-4.92-6.61-9.19-13.27-13.7-20.31-1.6-2.5-3.21-5.01-4.85-7.52-.34-.53-.78-.98-1.29-1.35-1.05-.75-.79-1.99-.63-2.48.13-.41.68-1.75,2.18-1.75h0c2.04.05,3.56,2.43,5.8,6.35.98,1.71,1.99,3.47,3.21,5.02,9.57,14.99,20.44,30.62,34.92,43.51,23.46,21.17,51.7,33.32,77.48,33.32,4.8,0,9.58-.41,14.21-1.22,2.48-.43,4.28-2.61,4.23-5.13-.12-6.48-.12-13.1-.13-19.5,0-5.62,0-11.24-.08-16.7.1-5.65.11-11.34.12-17.06.01-7.66.03-15.59.27-23.34.07-2.48-1.64-4.65-4.06-5.15-.38-.08-.73-.23-1.01-.42-6.31-4.44-12.29-9.7-17.79-15.62-.99-1.06-2.36-1.63-3.75-1.63-.74,0-1.49.16-2.19.5-2.48,1.18-5.05,1.78-7.64,1.78-5.93,0-11.48-3.15-14.49-8.23-2.86-4.84-2.83-10.44.13-15.84.72-1.35,1.46-1.35,1.78-1.35.96,0,2.05.65,2.53,1.5.25.46.46,1.14-.27,2.31-.11.17-.2.35-.29.53-1.77,3.8-1.63,7.78.37,10.92,2.13,3.34,6.07,5.33,10.54,5.33.95,0,1.9-.09,2.85-.27.54-.1,1.07-.3,1.55-.57.69-.39,1.38-.82,2.08-1.25,1.57-.98,3.36-2.09,4.43-2.09.12,0,.28.01.51.1,2.68,2.27,5.19,4.79,7.83,7.47,2.98,3,6.06,6.11,9.49,8.91.93.76,2.07,1.15,3.23,1.15.67,0,1.35-.13,1.99-.4,1.74-.74,2.93-2.38,3.1-4.27,1.04-12.13,2.93-22.67,5.76-32.19.43-1.43.2-2.98-.61-4.23-8.01-12.37-10.58-27.61-11.92-39.49-.02-.23-.06-.45-.12-.67-.83-3.32-.4-6.24.42-7.29.15-.19.43-.56,1.64-.56.61.04,1.33.45,1.8,1.02.19.24.51.7.45,1.17-.05.36-.05.73-.02,1.1,1.18,13.51,3.29,23.5,6.82,32.4.65,1.65,2.11,2.84,3.86,3.14.29.05.59.08.89.08,1.44,0,2.84-.61,3.82-1.71,7.96-8.96,22.5-11.2,35.51-12.61,2.36-.25,4.23-2.1,4.52-4.46.25-2.03.8-4.26,1.33-6.41.42-1.71.83-3.39,1.09-4.81,2.04-9.13,5.02-14.32,9.38-16.35,1.75-.81,2.89-2.55,2.95-4.47.43-14.06.71-30.72-.46-47.56-1.46-22.08-6.17-43.08-10.86-62.69-.55-2.31-2.62-3.92-4.96-3.92-.08,0-.17,0-.25,0-1.44.07-2.88.1-4.33.1-13.84,0-28.42-3.1-41.07-8.72-.66-.3-1.37-.44-2.07-.44-1.01,0-2.02.3-2.89.9-1.46,1-2.3,2.7-2.21,4.47.35,6.95-1.34,12.44-5.02,16.31-4.36,4.58-11.79,7.11-20.93,7.11-11.69,0-24.59-4.08-32.87-10.4-.91-.69-2-1.05-3.1-1.05-.71,0-1.43.15-2.1.45-1.71.77-2.86,2.42-2.99,4.29-1.27,18-3.14,35.3-11.82,49.09-8.85,11.55-20.9,13.98-29.48,13.98-16.08,0-33.49-8.69-43.33-21.62-.06-.08-.13-.17-.2-.25-6.71-7.77-12.11-17.04-16.04-27.56-.75-2-2.65-3.32-4.78-3.32-1.27,0-2.76-.16-4.44-.47-.18-.03-.36-.06-.54-.07-2.95-.23-5.93-.34-8.86-.34-10.34,0-20.08,1.49-28.81,4.38-16.51,4.93-27.9,14.86-32.06,27.94-4,12.59-.65,26.59,9.43,39.44.05.07.11.14.17.2ZM331.26,223.99c-.04-.15-.08-.31-.13-.46-.2-.58.01-1.16.16-1.46.3-.62.85-1.12,1.34-1.29.36-.12.69-.17.95-.17,1.45,0,3.01,3.2,3.28,6.72.01.2.04.4.08.6,2.77,14,4.17,29.77,4.42,49.62.01,1.27-.67,2.68-2.21,2.77-.04,0-.08,0-.12,0-1.14-.03-2.33-1.03-2.35-1.96-.16-13.29-.92-25.42-2.33-37.15-.92-6.96-1.87-12.27-3.1-17.23ZM289.17,305.3c0-.85-.2-1.69-.6-2.44-.38-.71-.41-1.6-.08-2.27.55-1.1,1.63-1.22,2.07-1.22.34,0,.67.06,1,.18,4.7,3.15,2.11,15.18-2.38,25.25-.22.52-.6,1.22-1.12,2.08-1.15,1.89-.95,4.31.5,5.99.03.04.06.07.09.11.91,1.93,1.74,3.92,2.57,5.91,1.67,3.99,3.4,8.12,5.69,11.9,8.72,15.66,23.42,28.63,44.93,39.63.78.4,1.53,1,1.2,2.39-.25,1.04-1.12,2.12-2.14,2.12-.19,0-.58-.04-1.17-.33-25.67-12.51-44.55-31.81-53.16-54.35-.6-1.57-1.94-2.75-3.58-3.14-.39-.09-.8-.14-1.19-.14-1.25,0-2.47.46-3.42,1.32-4.36,3.94-8.48,6.29-11,6.29-.57,0-1.41,0-2.34-1.74-.32-1.57,1.14-2.57,2.19-2.97,6.4-2.7,10.99-7.7,13.93-11.29,5.11-6.43,7.97-14.7,8.04-23.27ZM409.52,245.26c.25,5.76.67,15.41-1.84,18.04-.17.18-.44.47-1.35.48-1.88-.3-2.76-.95-1.77-9.82.33-2.93.66-5.96.34-8.72l-.02-1.1c-.12-7.71-.24-15.69-1.78-23.61-.07-.36-.18-.72-.33-1.06-.3-.69-.29-1.48.02-2.1.58-1.15,1.76-1.24,2.11-1.24.29,0,.58.05.85.14,2.91,2.22,3.09,8.43,3.24,13.93.07,2.46.13,4.79.42,6.98-.15,2.24-.03,4.96.1,8.07Z"/></g><g id="change1_2"><path fill="#ffd2ab" d="M662.61,383.19c-7.87-11.44-21.12-17.74-37.31-17.74h-2.12c-11.44,0-26.18.81-38.62,7.08-.19.1-.38.21-.56.33-1.56,1.05-6.31,4.26-5.48,9.12.27,1.58,1.37,4.37,5.69,5.68,3.28,1.47,7.91,2.19,13.23,3.02,5.73.89,16.38,2.55,17.81,5.4.24.48.01,1.51-.59,2.76-1.21,1.21-3.54,1.57-6.84,1.96l-.9.11c-1.5.24-3.02.47-4.55.71-11.71,1.79-23.81,3.65-34.21,9.99-1.45.89-2.37,2.44-2.44,4.14s.7,3.32,2.07,4.33c8.5,6.26,19.1,7.61,28.46,8.81,1.99.25,3.97.51,5.9.8.14.02.28.04.42.05,5.36.38,6.42,1.52,6.72,2.4.17.53.41,1.49.13,1.93-1.76,2.7-12.75,3.85-20.01,4.62-15.25,1.6-34.23,3.6-33.85,19.29.01.59.13,1.18.35,1.74,7.18,18.35,34.82,18.97,49.67,19.3,0,0,.87.02.91.02.22,0,.45-.01.67-.04.88-.12,1.76-.17,2.62-.17,3.06,0,5.06.75,5.63,1.45.35.44.25,1.37.13,1.99-.4,1.12-1.48,1.53-2.31,1.53-.17,0-.33-.01-.5-.04-.29-.05-.59-.08-.88-.08-.07,0-.14,0-.22,0-2.08.09-4.17.14-6.25.14-1.08,0-2.17-.01-3.25-.04-.04,0-.08,0-.13,0-2.48,0-4.61,1.79-5.03,4.24-.67,3.93-10.61,4.51-16.55,4.86l-.65.04c-3.38.18-6.77.33-10.15.47-2.19.09-4.08,1.57-4.69,3.67-1.77,6.07-7.66,26.12-7.66,26.12-.42,1.42-.13,2.97.68,4.22s2.18,2.09,3.65,2.3c10.15,1.42,20.64,2.88,30.78,4.92,5.74,1.15,11.58,2.46,17.23,3.73,4.82,1.08,9.64,2.16,14.44,3.16,2.96.64,5.94,1.09,8.81,1.53l1.17.18c.26.04.52.06.78.06,1.28,0,2.53-.48,3.48-1.37,1.14-1.06,1.74-2.59,1.61-4.15-.21-2.64-.43-5.13-.64-7.48-.2-6.31-1.25-12.79-2.26-19.06-2.43-15.02-4.72-29.2,3.99-40.63.14-.18.26-.37.37-.57,2.98-5.23,6.55-10.28,9.99-15.16,5.2-7.36,10.57-14.97,14.47-23.92,6.74-17.57,5.57-34.96-3.2-47.73Z"/></g><g id="change2_1"><path fill="#f2bc57" d="M447.81,400.13c16.79,73.77,126.04,38.07,95.98-31.51-25.44-52.88-106.78-26.44-95.98,31.51Z"/></g><g id="change3_1"><path fill="#ff8456" d="M617.9,354.07c-.9-19.25-3.02-38.86-5.86-58.86-4.46-9.24-24.4-4.18-35.55-5.93-50.52,2.3-100.13-.33-151.42,7.19-48.66,2.6-32.01,88.66-35.7,121.97-.1,18.23-.16,37.43,2.16,55.41-.7,10.13,10.87,8.18,17.73,9.72,34.21,4.61,67.41,6.36,103.04,6.4,10.68-1.9,44.59,3.85,51.12-4.63,1-3.21,3.57-7.85-.59-10.18-18.2-11.22-14.67-33.25,7.1-38.07,2.05-.54,3.56-2.3,3.77-4.41-.08-7.62-14.71-8.09-13.09-17.33,1.82-13.05,22.02-10.55,24.08-18.46-.06-6.94-12.04-7.19-11-14.89-.87-24.4,46.04-14.3,44.21-27.92ZM442.3,388.39c.32-39.89,47.63-66.45,81.87-46.82h0c54.63,28.64,25.32,114.75-35.58,103.91-26.79-4.07-47.89-29.87-46.3-57.09Z"/></g><g id="change3_2"><path fill="#ff8456" d="M449.14,288.8c40.17-3.5,80.42-2.12,120.59-3.96,7.51-.75,3.79-8.42,4.14-13.62.36-3.49-.74-7.26-4.67-7.63-19.55-1.27-116.94-14.13-122.05,6.77-1.54,5.37-7.04,17.39,2,18.44Z"/></g><g id="change4_1"><path fill="#244668" d="M178.24,435.88c-.01.27,0,.55.03.82,4.62,40.34,18.03,78.58,31.84,113.9.56,1.44,1.74,2.54,3.21,3.01.51.16,1.03.24,1.55.24.99,0,1.97-.29,2.81-.84,14.45-9.52,26.86-19.48,39.99-30.03,3.8-3.05,7.62-6.12,11.52-9.19,1.22-.96,1.94-2.43,1.94-3.99s-.7-3.03-1.91-4c-17.04-13.65-33.97-46.07-48.96-93.77-.42-1.34-1.38-2.45-2.65-3.07-.7-.34-1.46-.51-2.22-.51-.62,0-1.24.11-1.83.34-11.29,4.34-22.5,10.39-34.25,18.5-2.2,1.52-2.85,4.47-1.51,6.77.23.4.5,1.03.46,1.83Z"/></g><g id="change4_2"><path fill="#244668" d="M323.95,509.2c16.75,10.23,35.64,18.36,59.42,25.6.49.15.99.22,1.49.22.89,0,1.77-.23,2.55-.68,1.22-.71,2.1-1.89,2.42-3.27,3.01-12.91,5.4-25.92,7.79-39.22.42-2.36-.85-4.7-3.07-5.62-4.39-1.82-6.67-4.59-7.36-8.86-.84-5.93-1.44-12.25-1.83-19.33-.08-1.43-.76-2.77-1.87-3.67-.92-.75-2.06-1.15-3.23-1.15-.25,0-.5.02-.75.05-3.95.58-8.18.88-12.57.88,0,0-1.48,0-1.49,0-7.23,0-14.57-.84-21.82-2.5-.38-.09-.76-.13-1.14-.13-1.1,0-2.18.36-3.07,1.03-1.2.91-1.94,2.3-2.02,3.81-.9,16.87-6.47,33.88-14.91,45.49-.84,1.15-1.15,2.6-.88,4,.28,1.4,1.13,2.62,2.35,3.36Z"/></g><g id="change4_3"><path fill="#244668" d="M305.48,876.98c.95.92,2.22,1.43,3.54,1.43.06,0,19.73-.74,19.73-.74,13.39-.51,26.79-1.01,40.19-1.53,27.35-1.05,54.66-2.07,82.06-3.1l3.86-.16c2.77-.13,4.93-2.45,4.86-5.23-.31-12.61-.68-25.21-1.05-37.81,0,0-1.16-40.68-1.49-52.36-.49-17.5-.97-35-1.5-52.5-.23-7.52-.44-15.06-.65-22.59l-.86-30.51c-.04-1.6-.1-3.21-.16-4.81-.12-3.23-.24-6.57-.24-9.81,0-.93,1.24-1.94,2.47-1.94h0c1.51.07,2.19,1.4,2.19,1.95.39,12.66.73,25.32,1.08,37.98v.26c.05,1.48.73,2.87,1.88,3.81.92.75,2.06,1.15,3.23,1.15.29,0,.59-.02.88-.08.14-.02.28-.04.43-.04.2,0,.4.03.63.09,1.06.31,1.65,1.38,1.68,2.27.03.99.35,1.95.92,2.76,12.84,18.41,34.62,42.95,65.51,55.29.11.04.22.08.34.12,7.83,2.5,16.25,3.77,25.03,3.77,25.33,0,49.74-10.77,63.69-28.11.13-.17.25-.34.37-.52,23.75-38.51,19.64-142.26,16.77-185.08-.16-2.39-1.96-4.35-4.33-4.71-9.69-1.46-19.5-3.63-28.98-5.72-10.88-2.4-22.13-4.89-33.39-6.38l-4.78-.73c-3.38-.52-6.76-1.04-10.15-1.49-.23-.03-.45-.04-.68-.04-2.24,0-4.26,1.48-4.9,3.69-3.15,10.88-7.27,25.22-11.14,39.64-1.13,4.23-2.27,8.46-3.4,12.69-4.38,16.26-8.9,33.08-12.71,49.83-.49,1.7-.8,3.59-1.1,5.42-1.17,7.09-1.99,8.24-3.5,8.24-.15,0-.3,0-.47-.02-.51-.1-1.1-.29-1.32-.63-1.11-1.7.21-7.12.92-10.02.31-1.28.6-2.46.75-3.3,2.65-12.01,5.74-23.84,8.67-34.92.53-2.02-.22-4.16-1.9-5.41-.07-.05-.14-.11-.25-.19-17.78-21.17-33.83-44.38-49.36-66.84l-5.52-7.97c-6.41-9.81-13.28-19.47-19.22-27.77-.88-1.23-2.26-2-3.77-2.12-4.55-.34-9.1-.7-13.64-1.06-4.38-.35-8.75-.69-13.12-1.02-3-.43-6.28-.63-9.73-.84-2.06-.13-4.18-.25-6.31-.44-.15-.01-.3-.02-.45-.02-2.44,0-4.57,1.74-5.02,4.19l-1.66,9.14c-1.34,7.43-2.73,15.12-4.25,22.8-2.24,14.02-5.72,15.18-9.4,15.18-2.34,0-5.39-.69-9.2-2.11-18.11-6.07-39.25-13.96-58.77-26.5-.84-.54-1.8-.81-2.76-.81-1.07,0-2.14.34-3.03,1-2.41,1.78-4.96,3.17-7.57,4.11-2.54.92-3.89,3.86-3.12,6.45,0,.14.02.28.03.42,1.71,13.64,2.13,27.56,2.32,40.5,0,14.62-.33,29.74-.65,44.35-.54,24.44-1.09,49.72-.15,73.86.38,28.55-.18,57.53-.73,85.55-.37,19.31-.76,39.27-.84,59.08.08,4.9-.12,9.82-.32,14.56-.45,10.74-.91,21.85,1.95,32.79.02,1.37.58,2.67,1.57,3.62Z"/></g><g id="change4_4"><path fill="#244668" d="M18.07,889.47c.08,0,.17,0,.25,0,8.35-.41,16.88-.7,25.12-.98,4.37-.15,8.74-.3,13.12-.47l46.22-1.77,14.05-.52c1.46-.05,2.83-.73,3.76-1.85.93-1.13,1.33-2.6,1.1-4.04-5.44-34.67-4.23-70.76-3.07-105.66.29-8.79.59-17.57.78-26.38.43-41.47,7.32-80.84,14.62-122.53l.53-3.01c.1-.55.1-1.12.01-1.68-.14-.89.24-1.87.93-2.37.38-.28.82-.42,1.3-.42.79,0,1.55.38,2.03,1.02.83,1.09.58,3.11.11,6.06l-.2,1.3c-11.03,52.73-16.04,108.63-16.23,181.31.06,4.53.08,9.07.09,13.6.07,19.69.15,40.04,4,59.96.47,2.41,2.58,4.14,5.01,4.14.06,0,41.4-1.56,62.02-2.35,14.78-.57,29.57-1.14,44.36-1.7,14.7-.56,29.4-1.11,44.09-1.69,3.68-.13,12.16-.47,12.16-.47,1.5-.06,2.9-.78,3.83-1.96s1.28-2.72.97-4.19c-2.84-13.51-2.23-27.31-1.59-41.92.36-8.2.73-16.68.43-24.83.07-16.19.41-32.74.74-48.74.5-24.32,1.01-49.47.62-74.21-.98-25.53-.43-51.36.11-76.34.31-14.49.63-29.47.65-44.41v-.35c-.29-12.72-.59-25.87-2.27-38.85-.02-.18-.08-.57-.12-.75.05-2.63-1.91-4.87-4.52-5.18-3.74-.43-7.68-1.64-11.73-3.59-.71-.34-1.47-.51-2.21-.51-1.43,0-2.84.6-3.83,1.73-.06.07-.14.15-.21.22-3.02,2.41-6.03,4.81-9.02,7.2-14.23,11.38-27.67,22.14-42.2,32.32-.72.45-1.45.94-2.2,1.43-3.23,2.13-6.56,4.32-9.33,4.32-.72,0-1.4-.16-2.01-.44-1.65-.81-2.75-3.42-3.81-5.95l-.23-.55c-5-12.15-9.41-24.84-13.68-37.11l-2.03-5.84c-8.33-24.95-13.71-47.71-16.44-69.58-.23-1.85-1.46-3.43-3.19-4.12-.61-.24-1.24-.36-1.87-.36-1.18,0-2.34.41-3.27,1.19-51,42.58-91.71,97.72-117.81,159.67-24.73,66.26-37.58,140.21-38.19,219.88.37,25.85,1.39,47.35,3.23,67.65.24,2.64,2.46,4.65,5.08,4.65Z"/></g><g id="change2_2"><path fill="#f2bc57" d="M188.78,607.31c.3.78.45,1.6.51,2.2-.02-.23-.04-.56-.06-.7-.06-.25-.11-.5-.17-.74-.09-.26-.18-.51-.28-.77h0ZM220.93,681.23c30.29-3.89,37.41-42.14,29.83-66.88-6.43-1.03-11.97-.4-18.29-.25-14.76.67-29.52.71-44.29,1.21.13,19.38,6.17,67.99,32.74,65.92ZM208.42,692.31c-19.86-7.72-26.79-31.44-30.48-50.56-1.13-6.1-2.05-12.28-2.39-18.49.06-3.51-.82-7.79,1.6-10.67-3.77-11.54,11.28-10.01,18.4-10.27,13.56-.23,27.14-.6,40.69-1.13,6.89-.25,13.98-.52,20.65,1.55,8.71,3.21,9.17,23.9,9.45,32.02-.46,14.7-3.88,30.15-13.2,41.86-10.2,12.96-28.53,21.18-44.72,15.7Z"/></g><g id="change5_1"><path fill="#0a253a" d="M440.07,409.17c-.25-.76-.48-1.51-.68-2.27-.02-.02-.02-.04-.02-.04-.16-.54-.31-1.11-.43-1.67-.14-.5-.27-1.03-.37-1.53-.16-.7-.29-1.4-.43-2.1-.12-.54-.21-1.09-.27-1.65-.1-.47-.16-.93-.21-1.4-.12-.85-.21-1.73-.29-2.6-.21-2.54-.29-5.12-.17-7.69.02-.62.06-1.24.1-1.86.02-.1.02-.17.02-.25,0-.02.02-.04.02-.08,0-.06,0-.14.02-.21v-.1c1.26-14.21,7.22-27.79,17.41-37.9.6-.58,1.18-1.16,1.8-1.71.62-.56,1.24-1.13,1.88-1.65-2.91,23.52-8.13,47.1-17.7,66.7-.23-.66-.47-1.34-.68-2Z"/></g><g id="change5_2"><path fill="#0a253a" d="M495.29,344.92c-1.94.14-3.8.37-5.71.66-2.08.45-4.1.95-6.11,1.55-1.79.64-3.51,1.32-5.2,2.1-1.9.95-3.73,1.96-5.51,3.09-1.82,1.24-3.57,2.56-5.26,3.98-1.4,1.28-2.72,2.6-4,4-1.4,1.63-2.7,3.32-3.9,5.08-1.05,1.63-2,3.28-2.87,4.97-.87,1.86-1.63,3.73-2.31,5.63-.52,1.63-.95,3.26-1.34,4.89-.41,2.08-.74,4.15-.83,5.28l-.1,1.4c-.1,2.13-.1,4.25,0,6.37.16,1.73.37,3.45.66,5.16.39,1.86.85,3.69,1.4,5.51.66,1.94,1.42,3.84,2.25,5.71.97,1.94,2.02,3.78,3.16,5.61,1.09,1.57,2.21,3.07,3.42,4.54,1.46,1.63,2.99,3.16,4.6,4.64,1.49,1.26,3.03,2.46,4.64,3.57,1.79,1.16,3.61,2.23,5.53,3.2,1.71.8,3.45,1.51,5.24,2.15,1.77.58,3.53,1.07,5.36,1.47,2.17.43,4.37.72,6.58.91,1.77.08,3.55.1,5.34.02,1.92-.16,3.82-.39,5.73-.72,2.04-.39,4.06-.91,6.06-1.53,1.79-.6,3.51-1.3,5.24-2.08,1.92-.95,3.77-2,5.57-3.12,1.71-1.18,3.34-2.43,4.95-3.75,1.57-1.44,3.07-2.93,4.5-4.52,1.3-1.55,2.54-3.14,3.69-4.81,1.03-1.61,1.96-3.24,2.85-4.91.82-1.75,1.55-3.53,2.21-5.34.62-1.92,1.15-3.86,1.59-5.82.37-2,.66-4,.83-6.02.12-1.96.14-3.9.04-5.86-.14-1.98-.37-3.96-.72-5.92-.41-1.98-.89-3.92-1.51-5.84-.62-1.81-1.34-3.57-2.14-5.3-.91-1.84-1.92-3.63-3.01-5.36-1.14-1.69-2.37-3.3-3.67-4.85-1.49-1.69-3.07-3.28-3.98-4.13-1.59-1.38-3.24-2.64-4.97-3.86l-.19-.14c-1.65-1.07-3.34-2.06-5.09-2.97-1.69-.8-3.44-1.51-5.22-2.15-2.04-.66-4.1-1.2-6.19-1.67-1.94-.33-3.84-.58-5.78-.78-1.11-.06-2.19-.08-3.3-.08-.83,0-1.69.02-2.52.04ZM487.76,450.52c-13.74-2.31-26.34-9.43-35.54-19.87-10.19-11.57-15.68-27-15.02-42.41.02-.62.06-1.24.1-1.86.02-.1.02-.19.02-.25,0-.02.02-.04.02-.08,0-.08,0-.14.02-.21v-.1c1.26-14.21,7.22-27.79,17.41-37.9,10.67-10.6,25.04-17.14,40.1-17.8,8.93-.39,18.07,1.07,26.39,4.5h.02c.89.33,1.77.76,2.64,1.18.76.35,1.49.72,2.21,1.11.12.06.25.12.37.17v.02h.02c.19.12.39.23.58.37,1.51.83,2.97,1.73,4.42,2.68,10.36,7.05,18.4,16.96,22.98,28.63,5.03,12.83,5.28,27.23,1.18,40.33-4.33,13.86-13.92,25.87-26.3,33.44-9.53,5.84-20.59,8.89-31.71,8.89-3.32,0-6.64-.27-9.92-.83Z"/></g><g id="change5_3"><path fill="#0a253a" d="M331.58,278.43c-.16-12.23-.83-24.4-2.29-36.55-.74-5.59-1.63-11.18-2.99-16.67-1.32-3.78,1.07-8.05,4.77-9.3,7.12-2.25,10.42,5.2,10.87,11.02,3.3,16.63,4.31,33.65,4.52,50.56.04,4.08-2.78,7.65-6.99,7.92-.14.02-.27.02-.41.02-3.77,0-7.43-3.09-7.49-7.01Z"/></g><g id="change5_4"><path fill="#0a253a" d="M405.96,268.89c-11.35-1.65-5.1-15.58-6.15-23.29-.14-8.05-.17-16.17-1.71-24.1-.87-2-.89-4.39.14-6.4,1.84-3.69,6.33-5.07,10-3.32,7.43,4.75,5.16,17.51,6.33,25.27-.83,8.38,4.04,31.85-8.33,31.85h-.27Z"/></g><g id="change5_5"><path fill="#0a253a" d="M260.22,344.69c-1.36-4.13,1.09-8.07,4.99-9.53,4.81-2.04,8.64-5.76,11.92-9.76,4.54-5.71,6.87-12.87,6.93-20.15-1.13-2.12-1.24-4.77-.14-6.95,1.86-3.73,6.31-5.01,10-3.3,9.72,5.69,3.61,23.62-.04,31.79-2.91,6.77-16.86,22.88-26.53,22.88-2.89,0-5.42-1.44-7.12-4.99Z"/></g><g id="change5_6"><path fill="#0a253a" d="M337.46,399.18c-25.42-12.38-47.47-32.86-56.77-60.07-2.06-2.21-2.64-5.63-1.22-8.44,2.66-5.49,10.6-5.12,13.64-.19,2.78,5.86,4.83,12.19,8.25,17.82,9.43,16.96,25.83,28.9,42.79,37.57,7.47,3.84,3.55,14.17-3.28,14.17-1.07,0-2.23-.27-3.42-.85Z"/></g><g id="change5_7"><path fill="#0a253a" d="M480.42,264.96c-7.57.54-13.16.37-17.37.64-.8.06-1.53.12-2.23.21-.19.02-.37.04-.54.08-.8.12-1.53.27-2.21.49-.21.06-.41.12-.58.19-.19.06-.39.14-.56.21-.31.14-.62.27-.91.45-.45.25-.85.52-1.24.85-.1.08-.19.17-.29.27-.16.14-.29.27-.43.43-.14.12-.23.23-.35.37-.27.35-.54.72-.8,1.15-.14.17-.25.37-.35.58-.12.21-.23.43-.33.64-.1.16-.16.33-.23.5-.06.14-.12.27-.17.41-.08.17-.16.35-.21.52-.1.25-.19.52-.29.8-.27.83-.54,1.75-.8,2.76-.1.33-.17.68-.25,1.03-.08.39-.17.82-.27,1.24-.12.6-.25,1.22-.37,1.88-.08.52-.17,1.09-.27,1.65-.08.45-.14.91-.21,1.38,1.59-.17,3.2-.31,4.79-.43,1.2-.1,2.41-.19,3.61-.27,1.57-.14,3.14-.23,4.72-.33,24.61-1.59,49.31-1.42,73.98-1.92,11.12-.21,22.24-.74,33.36-1.01-1.09-3.36-.76-7.78-.87-11.04v-.02c-22.18-2.06-43.92-4.79-65.83-4.79-7.47,0-14.94.31-22.47,1.09ZM461.84,297.59c-2.15.14-4.31.29-6.46.49-.87.06-1.73.14-2.58.21-1.92.16-3.84.33-5.74.52-.14.02-.25.02-.39.04-7.01.7-14.01,1.59-20.98,2.7-13.18,1.13-19.39,5.57-23.17,14.59-.08,1.34-.56,2.56-1.32,3.57-.72,2.27-1.36,4.75-1.96,7.51-4.93,23.11-4.46,46.25-4.79,69.58.21,14.03-.14,28.16.06,42.23,0,.8.02,1.61.04,2.41.02.99.04,1.96.06,2.95.02,1.2.06,2.41.1,3.59.06,1.75.12,3.49.21,5.24.02.54.06,1.07.08,1.61.31,6.15.83,12.29,1.61,18.4.14,1.13.29,2.27.47,3.4,4.29.68,8.58,1.3,12.89,1.88,9.61,1.32,19.27,2.39,28.94,3.26.37.04.72.06,1.09.1,2.85.25,5.71.49,8.56.7,3.2.25,6.42.47,9.63.66,33.36,2.12,66.98,2,100.36.66.23-.78.45-1.57.68-2.35.23-.78.56-1.46.95-2.04-20.15-12.46-20.36-39.75,8.48-47.35-24.94-12.5-10.67-31.98,10.99-35.79-15.55-6.17-13.82-24.61-.25-32.16,9.74-4.66,21.5-7.72,33.48-8.6-.04-1.2-.06-2.39-.12-3.53-1.09-18.75-3.05-37.53-5.74-56.13-20.77-2.37-41.71-1.53-62.63-.68-12.52.5-25.04,1.01-37.5.83-15.02.16-30.04.5-45.01,1.49ZM170.53,171.42c-29.5,8.81-39.44,34.66-20.07,59.33,10.67,12.27,26.69,17.93,41.82,22.34,13.55.89,7.61,12.91,8.87,21.85,1.79,18.59,5.45,37.52,8.89,55.78,5.12,22.42,10.17,45.16,16.48,67.5,1.55,1.28,2.33,3.47,2.1,6.75-.02.1-.04.19-.06.29,8.05,27.17,18.22,53.58,32.97,77.84,18.26,26.39,47.61,37.34,60.2-.54,2.56-8.13,5.03-16.42,5.78-24.94-.1-1.82.39-3.59,1.32-5.05-27.83-10.21-51.97-30.96-69.65-54.57-6.83-9.18-12.54-18.61-18.73-28.08-5.69-4.1-2.43-13.66,4.64-13.49,7.08.16,9.37,8.97,13.06,13.51,9.88,15.49,20.44,30.45,34.18,42.7,23.43,21.13,55.7,36.39,87.39,30.86-.23-12.13-.04-24.26-.21-36.39.23-13.35-.02-26.94.39-40.47-.95-.19-1.94-.58-2.91-1.24-6.75-4.75-12.98-10.29-18.59-16.32-18.86,8.99-39.15-10.25-28.7-29.29,4.85-9.12,18.3-1.22,12.89,7.55-2.78,5.98,2.48,9.9,8.17,8.81,3.78-2.14,7.74-5.67,12.34-3.09,6.21,5.14,11.43,11.57,17.74,16.71.97-11.26,2.74-22.38,5.96-33.21-8.04-12.4-11.06-27.09-12.71-41.71-1.49-5.96-.6-14.48,7.37-14.19,3.86.27,7.47,3.92,6.95,7.94.93,10.58,2.6,21.19,6.48,30.96,9.1-10.23,24.55-12.75,38.78-14.28.48-3.96,1.82-8.02,2.5-11.72,1.75-7.82,4.79-16.42,12.21-19.87.48-15.68.64-31.38-.45-47.06-1.4-21.15-5.86-41.51-10.73-61.83-16.42.8-33.65-2.79-47.72-9.04,1.84,36.6-45.96,33.4-67.02,17.33-1.24,17.6-3.05,36.43-12.71,51.64-20.61,27.17-62.49,16.94-81.07-7.47-7.41-8.58-13-18.51-16.96-29.11-1.75,0-3.61-.23-5.38-.56-2.83-.21-5.65-.33-8.46-.33-9.28,0-18.5,1.24-27.35,4.17ZM326.61,504.84c18.22,11.12,38,18.9,58.24,25.08,3.01-12.89,5.4-25.93,7.74-38.97-5.34-2.21-9.35-6.04-10.46-12.87-.93-6.56-1.51-13.16-1.88-19.76-4.58.68-9.43.99-14.56.93-7.92.02-15.68-.91-23.21-2.64-.91,17.1-6.48,35.3-15.88,48.23ZM182.2,431.48c.78,1.34,1.22,2.93,1.15,4.64,4.46,38.97,17.35,76.37,31.52,112.62,18.5-12.19,34.14-25.54,51.16-38.97-20.13-16.11-37.36-53.97-50.63-96.22-11.76,4.52-22.8,10.77-33.19,17.93ZM530.06,583.56c7.51-28.32,15.84-56.42,24.05-84.54-21,.6-42.02.66-63.02.6-7.49-.23-15-.6-22.49-1.07,19.85,29.01,40.29,57.76,61.46,85.01ZM307.16,520.6c.14.47.21.95.23,1.44,1.71,13.62,2.15,27.38,2.37,41.13,0,39.03-2.31,79.49-.8,118.15.64,48.31-1.38,96.32-1.57,144.61.27,16.19-2.45,31.23,1.51,46.36.08.35.12.68.12,1.01,19.91-.76,39.81-1.49,59.72-2.27,27.35-1.05,54.67-2.08,82.02-3.11,1.28-.06,2.58-.1,3.86-.16-.47-18.38-1.03-36.74-1.55-55.12-.83-29.17-1.61-58.36-2.48-87.53-.37-12.01-.68-24.05-1.03-36.08-.16-5.69-.33-11.35-.49-17.04-.14-4.91-.41-9.84-.41-14.77,0-4.06,3.94-7.26,7.84-7.04,4.21.21,7.04,3.77,7.04,6.89.39,12.75.74,25.5,1.09,38.25,1.09-.19,2.23-.16,3.34.17,3.16.91,5.28,3.86,5.38,7.03,15.82,22.69,37.22,43.09,63.21,53.47,28.03,8.97,64.41.66,83.18-22.67,24.38-39.53,18.75-154.72,14.4-202.77-.62-20.98-11.31-44.6,2.78-63.09,7.59-13.31,18.03-24.4,24.12-38.37,11.47-29.91-2.39-59.14-36.8-58.53-12.54-.06-26.2.89-37.4,6.52-2.64,1.79-5.49,4.56-.85,5.78,8.99,4.41,41.86,2.14,32.94,18.84-2.68,3.42-7.18,3.77-11.2,4.25-12.4,2-26.06,3.4-36.91,10.01,9.08,6.7,21.31,7.03,32.1,8.68,4.39.31,9.63,1.22,11.22,5.94,6.64,20.69-54.01,5.43-53.49,27.27,6.06,15.47,31.85,15.76,45.82,16.07,6.75-.89,15.99.7,13.99,9.63-1.11,3.8-4.89,5.88-8.64,5.22-3.28.14-6.56.17-9.84.1-1.4,8.15-13.53,8.64-21.97,9.14-3.4.17-6.81.33-10.21.47-7.57,25.97-15.35,51.9-22.38,78.02-5.53,20.79-11.33,41.51-16.09,62.49-1.9,6.44-1.03,18.51-10.75,17.41-9.94-1.77-5.01-14.13-3.9-20.11,2.6-11.78,5.63-23.46,8.71-35.13-.27-.19-.54-.43-.82-.66-20.16-23.95-37.75-49.97-55.54-75.65-6.11-9.35-12.58-18.48-19.1-27.58-8.99-.68-17.97-1.42-26.94-2.1-4.6-.68-10.27-.78-15.93-1.28-1.94,10.62-3.78,21.25-5.88,31.83-2.68,16.75-8.11,23.48-25.27,17.12-20.96-7.03-41.32-15.1-59.91-27.05-2.76,2.04-5.73,3.67-8.85,4.81ZM52.73,599.07c-25.81,69.17-37.3,144.39-37.86,218.03.31,22.47,1.18,44.89,3.2,67.27,12.75-.62,25.54-.97,38.29-1.46,15.41-.6,30.82-1.16,46.23-1.77,4.68-.18,9.37-.35,14.05-.52-6.87-43.8-3.32-88.71-2.35-132.89.45-42.91,7.88-84.38,15.22-126.36-.43-2.72.66-5.61,2.95-7.3,3.32-2.43,7.96-1.61,10.42,1.63,2.52,3.32,1.42,7.57.87,11.37-12.52,59.76-15.99,119.67-16.15,180.32.33,24.4-.62,48.75,4,72.66,20.61-.78,41.2-1.55,61.81-2.35,29.48-1.15,58.98-2.23,88.46-3.38,4.06-.16,8.09-.31,12.15-.47-4.66-22.16-.45-45.32-1.28-67.83.19-40.8,2-82,1.36-122.73-1.55-40.48.7-80.45.76-120.83-.29-12.85-.56-25.83-2.23-38.64-.12-.5-.17-1.01-.16-1.51-4.25-.48-8.69-1.8-13.37-4.06-.21.25-.47.5-.74.74-17.29,13.76-33.83,27.36-51.7,39.88-5.47,3.44-11.88,8.81-18.61,5.65-3.57-1.75-5.07-5.71-6.52-9.14-5.84-14.21-10.77-28.78-15.84-43.28-7.67-22.94-13.66-46.54-16.67-70.57-50.48,42.15-90.77,96.96-116.29,157.53ZM10.19,893.6c-3.26-.17-6.37-2.31-6.85-6.73-8.83-87.63.1-176.2,24.1-260.76,24.4-79.3,75.01-150.78,139.79-202.23,5.34-3.9,27.56-19.16,43.74-24.94-6.72-23.41-12.25-47.51-16.4-69.52-.27-.1-.54-.21-.83-.35-53.14-23.95-89.45-84.11-87.02-142.22,1.65-37.11,27.44-73.96,64.55-82.25-3.11-18.9-8.27-36.29-4.11-55.08,4.56-25.33,27.36-27.87,43.34-9.96,5.61-15.76,25.5-17.91,37.69-8.44C270.44,3.15,312.91-5.31,346.5,3.11c18.5,4.91,35.94,13.6,55.14,15.91,8.89,1.22,17.8.85,26.7.5,7.1-.29,14.21-.58,21.29-.06,14.98,1.71,28.08,11.31,36.45,23.54,12.85,18.17,11.7,42.23,5.9,62.77-5.71,21.25-21.29,32.62-39.88,36.99,9.67,35.34,12.15,71.67,11.39,108.08,11.98-1.13,24.18-.74,36.16-1.73,25.31-1.16,50.52,3.01,75.59,5.65,9.08,1.82,8.62,12.69,8.52,19.76.27,1.71.14,3.47-.41,5.05,4.08.02,8.13.1,12.21.27,16.96.49,26.9,1.96,27.23,21.62,2.21,17.95,4.29,36.21,4.95,54.17,22.65,1.92,43.43,12.63,49.97,36.16,6.83,24.34-3.12,49.64-18.34,68.51-5.26,8.27-11.68,16.23-14.96,25.52,0,7.2,1.26,14.42,2.08,21.58,8,67.17,9.98,136.01-1.79,202.83-3.05,13.88-8.15,27.81-18.11,38.27-24.09,23.04-62.65,32.1-94.4,21.74-20.28-7.26-37.38-21.14-52.36-36.33-4.97-5.01-9.8-10.31-13.97-15.99-.19-.29-.41-.58-.62-.87.23,9.26.5,18.53.8,27.79.89,28.74,1.65,57.51,2.44,86.25.37,12.83.78,25.64,1.09,38.45.02.08.02.17.02.25,0,.23.02.47.02.7,0,.37.02.74.02,1.11v.1c.37.74.6,1.57.7,2.48.37,3.88-2.64,7.98-6.7,8.15-24.98.95-49.96,1.9-74.93,2.85-29.03,1.11-58.07,2.23-87.1,3.3-29.31,1.09-58.59,2.25-87.88,3.34-30.06,1.13-60.11,2.27-90.15,3.44-31.09,1.18-62.16,2.37-93.25,3.53-4.06.16-8.13.27-12.19.47-.16,0-.31.02-.45.02-3.53,0-6.68-2.21-7.49-5.67Z"/></g><g id="change5_8"><path fill="#0a253a" d="M636.89,551.43c-21.34-3.1-42.09-9.43-63.49-12.27-5.11-.76-10.18-1.59-15.29-2.26-2.41-.29-4.91-.56-6.46-2.73-3.83-4.76,1.24-11.92,7-10.05,11.59,1.63,23.23,3.17,34.72,5.47,10.62,2.13,21.14,4.7,31.75,6.9,4.47.96,9.02,1.49,13.52,2.3,1.67.34,3.12,1.05,4.18,2.42,3.53,4.17-.51,11.3-5.91,10.22Z"/></g></g></g></svg>