<?xml version="1.0" encoding="UTF-8" standalone="no"?><svg xmlns="http://www.w3.org/2000/svg" xmlns:xlink="http://www.w3.org/1999/xlink" contentScriptType="text/ecmascript" fill="#000000" width="891" zoomAndPan="magnify" contentStyleType="text/css" viewBox="0.0 0.0 891.0 828.3" height="828" preserveAspectRatio="xMidYMid meet" version="1"><g data-name="Layer 2"><g fill="#c9b8ff" id="change1_1" data-name="Layer 1"><path d="M791.58,0c18.54,5.08,38,5.13,57.1,5.33L846.6,8.84c8.89,2.95,18,5.33,26.26,10-7.26-.66-21.74-1.93-29-2.59,9.6,4.26,19.66,7.51,29.62,11-7.11,2-15.65,1.27-20.37,8,4.16,1.73,8.38,3.41,12.65,5.14C871.59,31.7,881,29.16,891,29.57c-4.22,2-8.39,3.86-12.6,5.74.66,10.56-2.14,22.55,5.74,31.24,0,8.53-1.68,16.76-6.35,24-30.69,22.1-68,30.12-102,45.36-59.13,27.69-123.45,41.2-186.49,56.54-39.52,16.77-79.55,32-121.21,42.47-39,17.73-81.38,28.65-117.61,52.28-.35,2.18-1.06,6.55-1.42,8.79-3.3,1-9.95,2.89-13.31,3.91a155.56,155.56,0,0,0,26.67-1c6.15-14.43,20.48-17.17,34.8-15.29l-1.78-4.83c10.52-.4,21-.6,31.6-1l-.61,9.65q9.68-8.76,19.66-17.42l.05,9.19,11.79,1.63c-.71-2.54-2.13-7.57-2.85-10.11,14.33-1.63,30.74,3.15,42.88-6.91,15.49-5,31.7-8,48-5.64,11,4.62,14.32-11.84,24.74-10,4.26-.1,12.75-.35,17-.45,1.53-7.57,4-7.57,7.22.1,28.7-8.94,59.28-6,88.54-11.84,22.31-5,45.22-.61,67.77-2.69l.46,2.69c11.18,1.88,21.59,6.66,32.36,10.11,6.15,2.79,15.24,3,16.1,12,3.41-.36,10.21-1,13.62-1.32l-4.42,9.8,10.21-6.86-2.39,11,12.7,9.45c-5.48-.1-16.46-.36-21.94-.46a48.2,48.2,0,0,0,15.95,4.72l-.21,11.13-6.35-2.08c-.15,8-.3,16.05-.05,24.13l-5.18-.56c1.07,7.92.41,16.31-5.84,22.1-32.77,24.53-69.29,43-103.43,65.33-39.22,17.73-76.3,40.13-111.46,64.87-57.3,27.69-106.83,69.7-166,93.88-28.71,16.51-58.58,30.78-88.5,44.86C297,635.62,256.9,663.05,212.6,683l.31-7.17c-2.49-.3-7.47-.91-10-1.27.91,21.8-23.42,25.86-38.41,34.14-6,4.78-11.78,9.86-17.27,15.19L169,725.54c25.1-14.13,55.12-15.4,81.39-26.88q11.36-5.79,24.74-2.33c-1.22-2.44-3.56-7.37-4.73-9.81,6.71-.45,13.46-1.06,20.22-1.72,14.58-8.64,32.36-9,47.19-17.33,15-4.62,30.59-6.5,46.13-7.82,3.66,2.34,7.32,4.72,11,7.11l.61-7.31c14.52-2.9,29.61-3.36,43.53-8.74,5.59,2.54,11.28,5,17.07,7.26l-1-9.4c10.37-2.64,20.93-3.91,31.55-5.18l.56,6.71c10.31-.51,20.68-.81,31-1.37l-1.37,4.57c10.87.46,22.3,1.32,25.14,14.27a21.92,21.92,0,0,0,5.39-18.74c5.94.3,17.83,1,23.72,1.32-2.38,4.93-7.21,14.88-9.6,19.81l11.13-6.3c1.83,3.71,5.43,11.08,7.26,14.73a33.21,33.21,0,0,1-16.51,7.68c2.49,1.67,7.42,4.92,9.86,6.6-10.67,1.27-21.39,2-32.06,3.15-17.83,14.73-43.08,9.24-62.18,21.39a233.66,233.66,0,0,1-72.39,26.62c-32.05,3.09-64.06,11.12-92.41,26.62-49.58,24.63-105.66,29.56-160,33-25.7,5.18-51.36,10.71-76.56,17.93-9.24,3.3-19.05,2-28.49,1.07.55,1.47,1.67,4.36,2.23,5.84A88,88,0,0,0,35,821.81c-1.62-4.68-3.25-9.4-4.82-14-12,3-23.47,1.78-30.18-9.65l9.75.61c-4.62-13.82,8.49-21.84,19.61-25.09-1.06-1.93-3.1-5.74-4.16-7.68l8.63.36c-1.32-15.65,15.24-16.1,24.08-24.59L64,742c2.84-7.07,5.94-14,8.64-21.09l8,2.44,3.25-12.39c.46,4.72,1.48,14.17,2,18.89-9.6,3-18.49,7.42-16.71,19-1.78,3-5.23,8.84-7,11.79,7.42-7.21,23.57-13.46,17-26.72,8.53,1.67,19.61-.41,23.11,9.85-1.42-7.72-2.59-15.54-3.55-23.31,15.19,3.45,31.8-12.45,32.2-26.83,4.68,1.53,9.35,3,14.13,4.32-3-10-13.47-8.13-21.54-9.09l5.89-10.37c9.25-6.3,18.95-12.49,25.91-21.54,1.78-2,5.28-6.14,7.06-8.22l3.2.5c8.33-7.06,16.41-14.42,24.33-21.94,2.19.61,6.51,1.88,8.64,2.54,3.45-6.3,7-12.5,10.62-18.7,11.58-7.52,22.5-16.91,37.13-17.47-2.44-1.12-7.31-3.25-9.75-4.32,5.38-4.27,10.72-8.74,16.1-13.06-.2-2.23-.61-6.65-.86-8.89,3.15.71,9.4,2.09,12.5,2.8-.51-3.2-1.53-9.5-2-12.7l10.88,2-.56-4.73a237.2,237.2,0,0,0,25.91-9.75c-.06-1.37-.21-4.06-.26-5.44,9.86-7.56,27.08-10.66,30-24.07l-2.38-1.63c-3.61-3.45,7.67-5.59,9.65-8.84,0,3.86.1,11.63.15,15.49a33.07,33.07,0,0,0,16-18.23l3.36.1.4-6.05,10.06,2.24-1.93-6.81c12.9,4.37,17.53-5.33,18.7-15.9,2.49,1.37,7.46,4.22,10,5.64l-3.5-12.19,13.56,6.7-3.66-11.58,11.18,4.12-3.2-8,11.28,3.86-2.14-9.25c2.9.92,8.69,2.75,11.59,3.71l-1-10.06,13,7.52-4-12.55c2.59,1.33,7.72,4.07,10.26,5.44,10.11-6.86,31-8.18,27.64-24.38,2.64,1.06,7.87,3.09,10.52,4.16l-3.56-10.21,9.09,4.06-2.13-8.53c2.84.91,8.48,2.74,11.28,3.66L495.82,409l7.16,4c.3-2.59.91-7.82,1.27-10.47l2,1.78c-.41,17.28,21.54,7.93,29.62,1.37,2.39-6.35,6.5-11.73,10.56-17.12,1.33,3.05,4.07,9.15,5.39,12.2,1.93-4,5.79-12,7.67-16,2.29,2.59,6.86,7.82,9.14,10.46,0-8.69.21-17.37.06-26.06,2.54,2.34,7.62,7.11,10.16,9.45-.21-4-.61-11.94-.82-15.95l8,4.67v-14c-61.17,10.11-123.35,2.24-184.76,9.09l-.82,3.76c-.2-1.72-.66-5.08-.86-6.75-33,13.51-69.5,16.86-104.9,16.51l-.26,3.35c-25-.1-49.58,5.84-74.17,9.91-2,1.11-6.2,3.35-8.28,4.47-3.86-3-7.67-6-11.53-8.89l3.45-6.46c-2.23.21-6.6.66-8.83.92,3.7,6.55,7.51,13.11,11.68,19.4-8.48.77-16.82,1.83-25.2,3.15-.2-2.43-.61-7.26-.81-9.65l-4.88,1.42c.66,2.49,2,7.52,2.75,10q-14.42,1.14-28.55,2.64l1-10.46c-1.83,4.42-3.56,8.89-5.13,13.46a367.45,367.45,0,0,1-41.3,8.89l2.59-7.16-12.8-.61,2.39,6.3c-10.62-1.63-23.42,3.25-31.91-5.34,3.41-1.52,10.21-4.52,13.62-6-11.74,2-19.1-7.93-29.31-11.18-.11-3.25-.36-9.8-.46-13.1A44.74,44.74,0,0,0,34.29,396.7c-2.59-9.39,4.37-17.68,7.42-26l1.52-1.32a209.2,209.2,0,0,1,12.3-24.84l-6.2,1.73c.25-3.71.76-11.18,1-14.94,2.39,4.12,4.78,8.28,7.22,12.45,11-5.89,8-17.48,9.09-27.13,6.86-1.73,13.87-2.64,20.83-4.06-1.12-3-3.35-9.05-4.42-12,2.74,1.52,8.28,4.52,11.07,6,4.53-7.11,8.94-14.32,13.11-21.64,6.05-2.79,12.09-5.64,18.34-8.18,1.42-3.6,3-7.26,4.42-10.87l.46,13.46c7.72-8.58,15.19-17.42,22.65-26.31l13.87.61.41-5.23,6.35,1.16c-.15-1.88-.56-5.53-.76-7.36,5.08,2.28,10.26,4.47,15.49,6.55,9.09-14,26.93-17.68,42-21.59l2.9,9.2c-.46-3-1.37-8.94-1.83-11.89,18.95-9.75,39.32-17,57.1-29l8.13,11.38-3.25-16.66,12.19,3.25-1.47-6.35c3.4.76,6.8,1.52,10.31,2.34,14.32-11.23,33.17-14.38,47-26.27,24.74-1.47,44-19.05,67.67-24.38l13.51-4.27c8.08-3.35,17.22-4.77,23.57-11.48-14.07.71-29.82-6.76-42.42,1.93-5.89,4.42-9-5.13-12.65-7.92-29.41-4.22-57.1,5.94-86.36,5.43l.31,4.47c-36.12-.71-72.8-13.16-108.46-1.57-14.79,5.43-30.64,5.28-46.13,6.7-34.65,6.4-70.77,5.59-105.46.05.15-2.23.45-6.7.56-8.89-3.15-.25-9.45-.66-12.6-.86,1.17-5.44,2.33-10.77,3.6-16.15-8.63-2.19-17.12-5.08-23.62-11.38l-5.18,1.57.81-5.74c4.12,0,12.35.15,16.46.25-1.93-4.06-5.79-12.09-7.72-16.15-2.59.25-7.82.71-10.46.91,8.43-3,16.81-6,25.4-8.89-2.59-2.38-7.73-7.16-10.27-9.55,3.36,1.73,10,5.24,13.37,7-4.68-15.24,8.94-7.57,15.54-8,0-2.65-.2-7.93-.25-10.57,3.45,3.1,10.26,9.4,13.71,12.5.1-3.46.31-10.37.46-13.82,14.58,3.15,27.18-14.68,40.13-5.44l13.82-.3c8.69-2.8,17.73-4.12,26.82-5.18,10.57-4.83,22-7.27,33.38-9.5l.15,8.73c-5.28.77-10.51,1.73-15.64,2.85,7.82.15,15.74-.2,23.67-.36-.46-2.49-1.37-7.57-1.83-10,4.93.61,14.78,1.77,19.71,2.38l2.44,2.09L242.42,31c-1.57-1.27-4.67-3.86-6.25-5.13,2.19-8.74,15.24.3,21.59-.92A126,126,0,0,1,286,26.72q11.66,2.3,23.42,4.52l-.21-6.45c14.13-.56,28.25-.25,42.37.36,3.46-11.23,18.54-16.36,26.62-6.81.51,5.94-2.39,9.85-8.69,11.78,5.08.72,10.27.51,15.5.92.56-3.3,1.68-10,2.23-13.31,24.74-3.1,51.92.56,77.17-6.05C474,16,482.81,10.92,490.89,6c7.82-1,15.54,1.27,23.37,1.93,22.6-1.37,45.06,2.75,67.66,2.24,55.53-4.47,111.21,1.32,166.78-1.52,9.1-2.7,18.54-3.66,28-4.73,3.92,1.78,11.64,5.28,15.5,7C792,8.18,791.73,2.74,791.58,0ZM590.15,377.4c7-7.77,14.48-15.29,25.2-17.37,3.56-2.24,7.06-4.47,10.67-6.71-12-1-25.15,3.61-36-3.25C590.1,359.11,585.53,368.86,590.15,377.4ZM180.5,662.65q-10.53,5.18-.87,9.6Q190.69,667.06,180.5,662.65Z"/><path d="M575,651.37c3.31-.46,9.91-1.47,13.21-2,1.78,11.83,15.5,9.7,23.63,14.83l10.76,3a46.35,46.35,0,0,1-21.59.81l9.45,9c-2.43-1.06-7.26-3.2-9.7-4.26-1.57,2.54-4.72,7.67-6.25,10.26-.2-3.15-.66-9.45-.86-12.6l-6.71.81c.56-4,1.73-11.83,2.29-15.8C584.46,654.11,579.74,652.74,575,651.37Z"/><path d="M105.51,698.16c4.12-4,12.3-12,16.41-16l-.3,18.14h-5.34c.1,3.86.31,11.63.41,15.49l-21.44.61,3,9.6-9.91,1.27c.46-7.26,1-14.47,1.88-21.64,3.66-.3,11-1,14.63-1.27C105,702.78,105.36,699.73,105.51,698.16Z"/></g></g></svg>