<?xml version="1.0" encoding="UTF-8" standalone="no"?><svg xmlns="http://www.w3.org/2000/svg" xmlns:xlink="http://www.w3.org/1999/xlink" contentScriptType="text/ecmascript" fill="#000000" width="595" zoomAndPan="magnify" contentStyleType="text/css" viewBox="-4.1 -0.3 594.6 903.5" height="904" preserveAspectRatio="xMidYMid meet" version="1"><g data-name="Layer_1"><g><g id="change1_1"><path fill="#244668" d="M498.81,647.91c-22.82-23.53-48.14-47.16-75.27-70.24-7.57-6.43-15.26-12.74-22.96-19.04-21.18-17.36-43.09-35.3-61.77-55.93-27.42-28.34-39.41-59.12-38.89-100.06l-.35-25.63c-.92-67.76-1.86-137.83-5.48-206.57l-.58-17.97c-.1-3.08-1.63-5.93-4.15-7.7-1.68-1.19-3.66-1.8-5.67-1.8-1,0-2,.15-2.97.46-3.17,1-6.81,1.61-10.66,2.25-2.9.48-5.89.98-8.79,1.68-45.1,6.46-91.72,8.03-136.81,9.54-14.06.47-28.12.94-42.03,1.55-7.35.23-14.69.43-22.03.64-11.06.31-22.12.62-33.19,1.01-5.4.19-9.63,4.71-9.46,10.11l.53,16.53c.69,21.15,1.4,43.03,1.43,64.24-.54,23.41-1.33,46.97-2.1,69.76-1.9,56.54-3.86,115-1.93,173.14.13,3.99,2.67,7.51,6.42,8.89.46.17.92.34,1.35.55.27.13.55.24.83.35,51.23,18.65,96.73,58.07,128.29,111.26,19.54,30.77,37.92,64.26,40.17,101,1.3,14.48,1.06,30.76-.74,49.77-.03.35-.15.66-.36.94-1.74,2.32-2.36,5.28-1.72,8.1.65,2.82,2.51,5.21,5.08,6.53l6.83,3.51c55.93,28.79,125.54,64.62,187.51,80.39.8.2,1.61.3,2.42.3,2.04,0,4.04-.63,5.73-1.84,2.35-1.69,3.84-4.34,4.06-7.23,1.36-17.91,4.04-35.91,7.98-53.5,5.49-24.5,13.35-47.44,23.37-68.19,11.87-24.55,25.94-43.82,41.85-57.29,5.99-5.08,11.78-9.03,17.68-12.08l-4.51-8.72,4.95,8.5c.95-.48,1.94-.95,2.92-1.4,2.92-1.31,5.02-3.97,5.62-7.11s-.36-6.39-2.59-8.69Z"/></g><g id="change2_1"><path fill="#fffbf2" d="M220.68,32.76c-.94-7.41-.61-16.34-10.03-16.93-15.64-.91-31-1.04-48.11-1.15-45.27-2.96-35.72,6.9-29.37,42.96.08,1.08,1.28,5.91.35,6.41-8.52,6.89-7.78-40.5-12.77-44-13.65-8.34-33.58,1.56-47.93,2.4-49.96,12.18-52.47,22.39-55.09,63.64.59,20.1-5.37,45.07,2.43,66.39,12.42,6.28,28.76.27,42.5,1.59,20.77-2.51,45.37,2.65,64.54-5.23,7.12-5.75-2.75-19.82,4.27-23.79,2.25,0,2.32,1.44,2.39,2.63,1.41,8.7-1.94,23.12,10.62,23.51,23.25-.71,46.04-1.53,69.04-3.41,19.26-2.52,7.72-94.5,7.16-115.03Z"/></g><g id="change2_2"><path fill="#fffbf2" d="M290.29,73.85c-1.37-59.45,9.25-50.39-54.79-56.56-21.36,2.63-2.81,43.13-7.19,58.81,3.03,19.23-5.41,45.35,2.25,66.66,15.93,5.39,38.42-1.29,52.89-6.82,18.77-8.93,4.49-44.5,6.85-62.09Z"/></g><g id="change2_3"><path fill="#fffbf2" d="M138.75,602.77c-8.58-22.03-111.84-120.98-121.89-81.94-1.65,100.86,30.24,198.82,129.99,235.69,53.23,34.98,40.49-4.24,40.8-42.53-3.62-42.25-26.64-77.32-48.9-111.22Z"/></g><g id="change2_4"><path fill="#fffbf2" d="M547.56,714.63c-6.72-14.87-32.14-67.43-48.33-47.69-65.64,37.19-86.75,122.63-93.02,193.15,1.19,16.92,28.04,10.94,38.66,13,36.13.55,70.02-15.65,89.35-44.91,20.99-31.1,26.02-73.4,13.34-113.55Z"/></g><g id="change3_1"><path fill="#0a253a" d="M493.06,621.41c-19.22-18.91-39.1-37.21-59.68-54.64-43.43-39.19-113.7-80.34-117.7-145.17-2.84-47.01-1.41-94.18-2.67-141.25-2.72-73.93-5.01-147.87-8.72-221.76,4.54-1.41,7.85-5.51,8.66-10.48,2.56-14.97-4.75-30.94-19.06-36.98-23.59-7.98-49.48-7.23-74.09-9.63C195.12.05,170.36-.35,145.64.3,107.21,2.09,24.83,3.85,8.91,45.81c-13.03,56.08-4.53,114.52-4.47,171.52,2.04,90.51-7.62,178.35-3.33,269.67,2.12,66.37,1.56,136.61,35.48,195.95,13.02,23.04,30.1,44.39,52.99,58.19,32.95,20.63,68.14,37.37,102.53,55.43,64.04,32.02,128.79,66.39,198.54,83.98,0,.02,0,.05,0,.07,1.49.37,2.99.71,4.49,1.07,1.15.28,2.29.55,3.44.82,4.35,1.01,8.7,1.98,13.09,2.85,1.17.21,2.34.4,3.49.59,0-.02,0-.04,0-.07,107.45,17.31,175.28-67.99,147.88-171.23-12.01-37.97-42.65-65.77-69.98-93.25ZM281.63,96.31c.44,9.67.78,19.35,1.12,29.02-2.22.51-4.42,1.71-6.41,3.81-12.95,2.74-26,4.78-39.11,6.38.83-18.88,1.31-37.74.96-56.66-.36-16.22-.6-32.49-2.9-48.56-.1-1.06-.27-2.14-.48-3.22,15.57,1.06,31.11,2.59,46.39,5.57-4.38,20.78.38,42.55.42,63.65ZM26.87,96.71c3.27-46.6-.28-52.87,48.27-64.69,12.61-2.62,25.36-4.32,38.16-5.47-.52,2.19-.43,4.66.55,7.33-.13-.13.07.79.28,1.72,2.09,9.4,3.77,19.16,5.21,28.98,2.86,15.88,26.36,12.11,24.24-3.84-1.9-11.95-3.59-24.11-6.95-35.74,21.63-.85,43.36-.42,64.91.15,2.86.16,5.73.32,8.6.47-.52,5.46,1.89,11,1.91,16.55,1.11,14,1.5,28.06,1.67,42.09.15,13.21.02,26.45-.48,39.66-.09,3.82-.8,9.11-.54,14.06-22.67,1.85-45.46,2.67-68.24,3.39.25-4.8-.49-10.07-.82-14.42-.8-16.07-24.52-15.41-24.55.7.44,4.82.7,9.67.9,14.51-9.93.34-19.85.74-29.74,1.27-21.11.69-42.22,1.2-63.32,1.92-.34-16.22-.47-32.44-.06-48.66ZM60.77,675.61c-28.56-46.36-32.15-102.06-34.1-155.13,40.46,16.79,75.9,46.79,100.84,83.08,22.28,34.03,46.78,69.63,50.35,111.29,1.28,15.48.94,31.03-.33,46.49-1.68-.84-3.36-1.69-4.99-2.5-40.9-22.15-88.58-40.06-111.77-83.22ZM199.45,772.5c1.24-1.69,2.11-3.67,2.3-5.87,1.61-17.03,2.28-34.5.75-51.59-2.35-38.66-21.3-73.33-41.66-105.39-30.59-51.57-76.37-94.52-133.22-115.22-.66-.31-1.36-.56-2.06-.83-2.7-81.02,2.06-160.46,3.95-242.4-.03-27.11-1.11-54.19-1.94-81.28,18.39-.63,36.78-1.09,55.17-1.66,60.15-2.63,120.72-2.67,180.4-11.26,6.37-1.6,13.92-2.17,20.55-4.29.19,6.01.38,12.02.58,18.02,4.06,77.29,4.74,154.64,5.83,232.02-.54,42.43,12.04,76.15,41.66,106.75,25.61,28.28,56.45,51.01,85.42,75.63,25.46,21.65,50.48,44.89,74.49,69.66-1.08.48-2.15.98-3.2,1.51-.19.1-.38.19-.56.29-7.02,3.63-13.5,8.21-19.52,13.31-19.14,16.21-33.51,38.09-44.34,60.51-10.8,22.36-18.68,46.09-24.11,70.31-4.05,18.08-6.68,36.45-8.09,54.91-63.51-16.15-137.03-54.68-192.39-83.14ZM455.15,862.88c-12.09.97-25.26.1-39.13-2.15.89-12.84,2.4-25.61,4.57-38.31,2.34-13.37,5.89-28.12,10.32-42.65,3.95-12.35,8.57-24.45,14.02-36.23,4.09-8.44,8.59-16.61,13.58-24.53,4.14-6.25,8.55-12.24,13.39-17.99,3.3-3.7,6.69-7.23,10.32-10.63,3.05-2.65,6.18-5.16,9.46-7.52,2.4-1.57,4.85-3.05,7.38-4.43.98-.5,1.97-.98,2.99-1.42,2.53-1.12,4.46-3.05,5.72-5.32.1.11.2.21.3.32,12.16,13.78,23.93,28.48,30.26,45.95,20.43,64.7-9.34,139.16-83.17,144.91Z"/></g></g></g></svg>