<?xml version="1.0" encoding="UTF-8" standalone="no"?><svg xmlns="http://www.w3.org/2000/svg" xmlns:xlink="http://www.w3.org/1999/xlink" contentScriptType="text/ecmascript" fill="#000000" width="835" zoomAndPan="magnify" contentStyleType="text/css" viewBox="-5.9 -1.2 834.8 2047.0" height="2047" data-name="Layer 2" preserveAspectRatio="xMidYMid meet" version="1"><g data-name="Layer 1"><g><g id="change1_1"><path fill="#51233c" d="m479.19,504.1c.82,12,6.37,23.79,8.32,35.43,6.17,37.1,4.45,74.81,12.12,111.87,7.75,37.34,24.07,72.64,34.58,109.16,24.08,83.47,32.28,175.86,4.17,259.38-4.88.68-2.76-6.48-2.79-9.86-.2-11.75-2.26-20.61-2.91-30.92-4.02-61.64-2-124.38-14.71-185.44-14.89-71.45-60.38-139.94-55.75-214.98,1.39-22.88,8.94-47.38,11.45-70.35.56-5.13-1.36-4.65,5.52-4.28h0Zm-273.41,617.31l-4.93-13.4c-18.04-123.65,11.61-247.13,36.73-367.78l13.3-47.27c-.3,5.14.57,10.49.11,15.59-4.48,49.3-17.78,100.26-25.25,149.5-11.35,74.81-15.92,150.01-20.01,225.21-.71,12.63.68,25.51.06,38.14h0Zm612.24,753.4c-16.42-44.51-52.5-98.09-74.38-142.63-73.82-150.13-144.34-325.05-179.1-488.96-5.13-24.21-12.43-57.08-14.69-81.12-2.45-26.27,7.15-17.28,21.03-32.19,101.41-108.94,34.98-319.63,18.43-452.62-11.22-90.03-2.62-198.46-43.77-280.4-28.55-56.88-58.32-51.04-98.74-84.45-21.82-18.01-30.86-56.03-26.84-83.18.71-4.57,13.12-18.4,16.61-25.7,23.68-49.81,23.56-145.34-17.34-186.32-8.8-8.8-29.88-18.44-42.17-17.14-33.2,3.44-51.86,41.41-59.98,69.87-12.39,43.46-10.09,104.51,14.34,143.59,11.22,17.95,18.12,15.1,15.11,40.92-7.72,66.69-62.49,71.77-104.18,107.2-63.62,54.12-64.27,139.66-62.01,217.2,1.35,47.49,1.41,92.82-5.75,140.66-28.16,187.39-141.19,348.97-6.68,528.5,6.07,8.08,15.85,11.22,12.35,23.96-40.79,156.8-74.87,320.85-130.14,473.08-12.26,33.74-28.67,66.75-41.01,99.92-15.01,40.28-14.95,64.41,26.83,84.68,30.12,14.57,87.49,22.77,120.61,20.49,3.57-.22,14.34-4.37,15.41-2.93.3.46.7,6.85,2.23,10.46,18.64,44.17,100.17,58.57,143.13,65.44,65.54,10.54,183.44,22.64,242.78-7.63,29.56-15.12,45.15-36.65,40.28-71.07,13.61.71,27.37,1.63,40.98,2.71,45.95,3.66,108.83,8.97,151.42-11.87,27.46-13.42,36.14-31.04,25.23-60.49h0Z"/></g><g id="change2_1"><path fill="#c9b8ff" d="m400.28,244.81c.63.64-.32,14.01.2,18.13,3.39,27.48,15.87,52.26,37.82,69.28,5.6,4.35,19.09,9.33,22.55,14.09,9.13,12.52,8.29,66.04,6.91,82.95-3.73,45.57-21.3,92.89-25.03,138.46-7.6,93.07,44.42,162.78,58.82,250.9,13.14,80.45,9.73,169.06,17.03,250.73,25.84,289.14,142.55,558.76,279.73,811.11,7.27,19.09,4.63,25.84-13.64,35.44-45.73,24.03-113.6,13.06-163.03,8.74-6.55-.57-22.38,2.43-25.58-2.61-20.63-92.1-46.06-183.3-65.34-275.72-10.54-50.49-20-103.1-26.23-154.16-.91-7.44.14-39.43-5.78-43.55-1.07-.73-12.53-.73-13.61.02-2.56,1.78-3.47,16.8-3.16,20.97,6.21,81.91,25.24,164.25,43.14,244.37,15.92,71.23,40.17,147.54,52.12,218.48,1.29,7.61,4.08,23.51,3.65,30.39-1.63,25.89-44.53,42.25-66.6,46.26-38.14,6.95-77.12,6.3-115.45,3.1-47.09-3.91-158.06-16.03-193.06-46.52-15.13-13.19-15.88-22.21-13.84-42.16,2.36-23.05,11.08-48.66,16.03-71.35,32.04-147.01,69-292.86,90.9-442.08-1.63-17.71-17.99-15.33-22.02.79-9.85,39.47-13.28,87.53-20.97,128.41-23.8,126.48-62.6,253.46-83.66,378.67-.47,2.84.22,9.11-.21,9.6-2.11,2.37-55.49.66-63.51.08-22.93-1.63-62.6-11.73-80.1-27.01-14.65-12.77-7.67-25.97-2.32-41.49,24.55-71.19,54.81-136.74,76.93-210.58,43.36-144.77,84.34-300.4,111.98-448.93,15.11-81.17,11.75-164.03,18.95-246,9.99-113.81,46.23-225.74,39.63-341.06-2.52-44.18-15.29-87.47-11.44-132.46,3.39-39.5,23.41-74.72,30.49-110.44,1-5.05-.41-15.39.98-17.36,2.17-3.08,36.32-21.42,43.94-29.33,1.82-1.88,5.46-7.79,7.6-10.74,13.61-18.89,20.47-41.28,21.36-64.61,6.1,3.08,32.62-4.02,33.82-2.8h0Z"/></g><g id="change3_1"><path fill="#ffffff" d="m270.62,368.82c2.19,2.36-16.72,52.41-18.98,61.35-8.68,34.5-11.88,70.67-9.29,106.44,2.09,28.8,11.19,58.12,10.29,87.39-.1,3.37-5.17,10.11-6.75,14.63-44.83,128.59-86.12,342.07-65.29,475.54,2.75,17.59,17.05,55.4,16.93,67.83-.1,10.79-6.08,33.31-8.71,45.06-.53,2.34,1.72,9.95-4.15,7.07-7.97-3.9-32.12-48.79-36.65-59.18-60.5-139.01,8.13-266.64,37.27-402.43,15.63-72.86,20.26-147.26,17.78-221.98-.3-8.99-3.72-16.97-3.03-28.24,3.13-51.39,11.75-108.62,53.6-143.68,2.4-2.01,14.97-11.95,16.98-9.79h0Z"/></g><g id="change3_2"><path fill="#ffffff" d="m544.04,1121.4l-2.71-49.43c-6.47-16.75.46-9.76,5.26-17.03,3.13-4.74,10.66-27.79,12.96-34.98,25.26-79.2,20.78-163.06.62-243.08-11.14-44.25-31.72-86.45-40.83-131.11-9.77-47.92-4.56-101.33-21.79-147.33-2.68-7.15-15.36-25.77-15.69-29.62-.64-7.44,5.25-27.3,5.86-36.49.74-10.82-2.32-69.17-.07-71.97.67-.82,15.68,11.26,16.99,12.6,33.25,34.09,49.51,108.79,53.55,155.02,6.39,72.96,9.23,140.38,19.85,214.09,15.15,105.11,61.23,275.5-14.29,363.83-2.3,2.68-16.87,18.59-19.73,15.49h0Z"/></g><g id="change3_3"><path fill="#ffffff" d="m371.2,22.66c16.18-4.71,27.83,3.16,37.54,14.97,30.93,37.64,30.95,134.31,0,171.94-23.02,28-47.13,18.31-62.54-10.74-19.57-36.85-21.07-95.82-6.55-134.45,4.65-12.38,18.55-37.93,31.56-41.71h0Z"/></g><g id="change3_4"><path fill="#ffffff" d="m322.83,1119.26c-1.16,0-2.31-.29-3.46-.88-9.61-4.93-16.24-29.96-18.64-40.51-7.2,9.73-25.94,32.24-40.33,24.78-4.8-2.49-7.44-5.97-7.83-10.33-1.23-13.61,19.97-31.78,28.22-38.3-7.77-5.02-27.4-18.72-28.81-29.84-.36-2.81.45-5.29,2.4-7.35.95-1.01,6.1-3.98,13.45-4.08,6.54-.14,16.64,2.14,27.56,13.21.4.4.39,1.05,0,1.45s-1.05.39-1.45,0c-10.41-10.56-19.97-12.65-26.07-12.6-7.11.09-11.6,3.02-11.98,3.43-1.53,1.62-2.14,3.49-1.86,5.7,1.41,11.16,24.48,26.24,29.08,29.15.28.18.46.49.48.82.02.33-.13.66-.39.86-4.99,3.86-29.8,23.79-28.58,37.39.33,3.67,2.53,6.52,6.74,8.7,14.28,7.42,35.04-20.35,39.06-26,.23-.33.65-.49,1.04-.41.4.08.71.39.79.79,3.57,16.63,10.45,37.44,18.07,41.35,1.57.81,3.1.87,4.66.19,15.29-6.67,6.37-40.97,4.42-47.78-.11-.37,0-.79.29-1.05.28-.26.69-.35,1.05-.22,6.38,2.44,28.08,9.92,39.66,3.65,3.54-1.92,5.8-5.03,6.71-9.26,1.33-6.13.32-11.08-3-14.7-9.38-10.25-34.55-7.67-39.51-7.05-.33.04-.66-.08-.89-.33-.22-.25-.31-.59-.24-.92,1.49-6.35,8.26-38.21-5.17-42.1-3.78-1.1-7.4-.68-10.77,1.24-10.47,5.97-15.93,24.51-17.36,30.05l-1.99-.48c1.48-5.77,7.17-24.98,18.33-31.35,3.87-2.21,8.02-2.69,12.35-1.43,14.15,4.1,9.3,32.4,6.92,43.12,8.57-.93,30.6-2.21,39.82,7.87,3.79,4.14,4.96,9.7,3.49,16.51-1.04,4.84-3.65,8.41-7.74,10.63-11.35,6.15-31.24.13-39.48-2.84,3.16,11.77,9.39,41.56-6.1,48.32-.98.43-1.97.64-2.95.64Z"/></g><g id="change3_5"><path fill="#ffffff" d="m418.48,689.47c-.84,0-1.75-.1-2.76-.34-17.1-4.04-17.78-31.45-17.59-39.76.01-.57.54-1.08,1.05-1,.57.01,1.01.48,1,1.05-.13,5.64.01,33.94,16.01,37.72,2.85.68,5.12.17,6.76-1.52,2.99-3.06,5.29-11.5-.73-34.33-.14-.53.17-1.08.69-1.24,8.73-2.63,14.31-7.86,15.31-14.34.69-4.49-1.12-8.79-4.72-11.24-4.85-3.29-11.87-2.7-19.27,1.63-.29.17-.64.19-.94.05-.3-.14-.52-.42-.58-.75-1.1-6.07-5.46-26.34-15.25-33.01-2.7-1.84-5.64-2.46-8.72-1.85-4.12.81-6.68,2.6-7.59,5.3-2.99,8.84,10.8,25.06,13.59,28.22.29.32.34.79.13,1.17s-.62.59-1.05.52c-16.28-2.52-35.9-2.74-37.66,4.95-.68,2.96-.14,5.45,1.63,7.61,5.82,7.07,24.26,9.1,39.58,8.63l.06,2.04c-7.66.24-33.31.25-41.23-9.37-2.18-2.64-2.86-5.8-2.05-9.37,2.37-10.39,26.44-8.36,37.26-6.9-5.19-6.23-15.09-19.62-12.21-28.15,1.17-3.45,4.24-5.68,9.13-6.65,3.65-.72,7.1,0,10.27,2.17,9.78,6.66,14.37,25.42,15.85,32.93,7.65-4.09,14.95-4.41,20.2-.85,4.26,2.89,6.4,7.97,5.59,13.24-1.08,7.05-6.82,12.73-15.8,15.69,4.78,18.53,4.77,30.42-.03,35.34-1.16,1.19-3.06,2.42-5.94,2.42Z"/></g><g id="change3_6"><path fill="#ffffff" d="m513.74,1427.26c-2.83,0-5.51-.91-8.02-2.71-13.92-10.02-18.71-45.15-19.84-55.68-.06-.56.34-1.07.91-1.13.55-.08,1.06.34,1.13.9.79,7.35,5.43,44.48,19.01,54.25,2.94,2.12,6.02,2.78,9.43,2.04,3.35-.74,5.69-2.5,7.16-5.39,4.52-8.9-.6-27.31-6.89-41.56-.12-.27-.12-.58,0-.85.12-.27.35-.48.63-.56,4.68-1.44,20.33-6.99,25-18.2,2.23-5.37,1.64-11.38-1.77-17.86-2.32-4.42-5.33-6.81-8.94-7.11-10.61-.87-23.98,15.92-26.54,19.29-.25.33-.67.48-1.08.37-.4-.11-.7-.45-.75-.86-.88-7.07-5.95-42.69-19.36-49.81-3.23-1.71-6.63-1.6-10.41.32-2.86,1.46-4.7,3.74-5.61,6.97-3.92,13.87,11.24,39.74,14.32,44.79.26.42.18.96-.19,1.29-.36.33-.91.35-1.3.06-29.66-22.35-40.81-22.58-44.81-20.72-2.74,1.27-3.1,3.88-3.15,4.65-.15,2.47,2.33,7.51,8.18,13.22,8.5,8.3,23.12,16.69,38.63,15.39.55-.06,1.06.37,1.1.93.05.56-.37,1.06-.93,1.1-16.18,1.36-31.4-7.35-40.23-15.96-5.64-5.5-9.01-11.17-8.79-14.81.06-1.06.56-4.64,4.33-6.39,7.4-3.43,21.8,2.62,42.87,17.95-5.71-10.11-15.44-29.89-12-42.07,1.06-3.75,3.3-6.52,6.65-8.23,4.36-2.22,8.49-2.32,12.3-.31,12.98,6.89,18.41,36.65,20.12,48.94,5.04-6.26,16.61-19.03,26.83-18.17,4.35.36,7.91,3.12,10.58,8.2,3.71,7.05,4.33,13.64,1.85,19.6-4.68,11.25-19.32,17.08-25.2,19.02,3.53,8.21,12.22,30.81,6.39,42.29-1.74,3.42-4.61,5.6-8.54,6.46-1.03.23-2.04.34-3.04.34Z"/></g></g></g></svg>