<?xml version="1.0" encoding="UTF-8" standalone="no"?><svg xmlns="http://www.w3.org/2000/svg" xmlns:xlink="http://www.w3.org/1999/xlink" contentScriptType="text/ecmascript" fill="#000000" width="1893" zoomAndPan="magnify" contentStyleType="text/css" viewBox="-0.8 -1.8 1893.1 522.7" height="523" preserveAspectRatio="xMidYMid meet" version="1"><g data-name="Layer 2"><g fill="#c9b8ff" id="change1_1" data-name="Layer 1"><path d="M1717.54,151.88l-1.49.3C1716.12,152.43,1716.7,152.27,1717.54,151.88Z"/><path d="M1842.18,143.77a5.62,5.62,0,0,0-1.86.31C1842.24,144,1843.93,143.91,1842.18,143.77Z"/><path d="M1718.47,151.69c2.18-.44,2.78-1.24,2.77-2a32.15,32.15,0,0,1-3.7,2.19Z"/><path d="M78.09,354.43h0l1.11-1.08C76,353.79,75.45,354.27,78.09,354.43Z"/><path d="M1597.06,279.3a.52.52,0,0,0,.2.41C1597.21,279.13,1597.09,278.86,1597.06,279.3Z"/><path d="M1541,286c0-.07-.09-.11-.18-.13C1541,286.17,1541.09,286.25,1541,286Z"/><path d="M1841.86,203.5c-.8-2.42-3.77-3.58-6.62-2.57l-3.12.17-3.34.18c-3.78,1.54-6.84,3.24-6.8,3.8l-.09.23c-.29.75-6.22,3.35-7.17,3-2.13-.82-4.07-1.75-3.91-3.84.11-1.51.8-2.56,3-2l1.76.43a14,14,0,0,1,5.26.71c.6.28,1.09-2.61,1.09-3.79s-.83-1.78-1.86-1.35l-.31.3-.72.67a2.84,2.84,0,0,1-3.3.39l-.34-.69-1.41-2.84c-1.34-3.24-1.77-5.91-1-5.93l.35,0,3.33.5c.88,2.06,4.85,6.07,6.4,5.5a2.44,2.44,0,0,1,3.3,2.16l3.28-.72,1.93-.42c2.87-1-.63-3.53-2.28-4a2,2,0,0,1-1.07-3.41l3.65.33,1.65.16c1.83-.4,7-2.61,11.59-4.92L1846,182c.71-2.84,1.81-2.53,4.81-1.32,3.41,1.36.67-2.42,4.14-2.54a16.53,16.53,0,0,0,10.27-4.57l.23-.21c-.22-.61-4.07-.21-5.55.15s-2.71-3.15-2.71-4.24-3.66-3.51-5-4.06-.1-2,2.74-3.13l2.14-1.05c.33-.16.17-1-.08-1.41a2.16,2.16,0,0,0-1.48-.33c-1.27.29-2.81,1.26-3.66,1-2.94-.85,1.63-1.72.34-2.39-1.06-.55-1.25-2.52-3.85-1.32-2.87,1.33-5.8,1.06-8.95.09-2.19-.68-4.11.67-3.11,2.2l1.39,2.09c-.62,2.16-3.73,1.52-4.63.68a20.15,20.15,0,0,0-5-2.86l-2,.93a7.17,7.17,0,0,1-3.68.19,14,14,0,0,1-4.5-1.56l-3.06-1.89a5.8,5.8,0,0,0,.88,6l-4.21-1c-8.64-2-12.34-1.47-15.79,2.48-.66.75,4,1.5.31,2.31-2.44.53-2.59-.85-2.92-2.19l-.24-1c-1.39-1.2.22-2.3,3.59-2.44l.53-.76,3-4.27c4.25,1.74,12.79-3.79,15-3s7.5-3,10-2.34,6.51-1.45,7-2.14,5.19-3.2,8.27-4.12l-1.89,0c-2.27,0-2.63-2.84-2.19-3.62s3.46-3.07,6.71-5.11l-3.22-3.45c-1.67-1.8,1.06-3.49,3.88-4.45l1-.35c.83-.74.56-1.88-.61-2.54H1843c-2.84,0-4.79-.92-2.9-2.48l2.94-2.44c-2.94-.81-7.38,4.89-10.31,5.77s-7.43-.47-8.16-1.18-2.75,0-4.51,1.7l-2.92.07-1.35,0c-2.59.24-.07,3.25,1.17,4s.62,3-1.36,5.09l-3.09,1a2,2,0,0,1-1.47-.38c-.25-.43-.38-1.25,0-1.41l1.33-.63c1.67-.53.53-2.25-2.55-3.82l-5.84,3a5.42,5.42,0,0,1-3.62,0c-2.31-1.33-4.33-1.19-6.84-.32l-2.1.73c-2.85.53-4.46,1.71-3.56,2.62l.32.85.3.79a2.85,2.85,0,0,1-2.64,1.87l-.65-.35-2.2-1.18A10.43,10.43,0,0,0,1774,140a32.84,32.84,0,0,0,5.34-7.17c.41-1-5.17-2.4-7-1.84a30.83,30.83,0,0,0-4.8,2c-.4.28-1,2.81-1.31,5.63.32-2.82-.49-5.85-.89-6.13a7.55,7.55,0,0,0-3.92.49c-.69.48-.89,2-.43,3.42l-3,.1c-2.9.09-1.74-1.67-2.64-2.48l-.35-.31c-.8-.12-1.46,3.35-1.46,4.73s-3.67,1.84-4.81,1.87-4.41,1.62-7.27,3.55l-2.5,1.81-1.39,1c-.8,1.39.37,2.17,2.59,1.73l2.19.07.65,0c.7.22-6.53,3.94-8.23,3.08s-2-3.93-1.43-5-.58-1.19-2.48-.17l-.34.59a5.43,5.43,0,0,0-1.11,3.38c.37,2.16-1.57,3.54-3.75,4l-2.78.56c-3.49-.36-11.43-2.5-13.89-3.13s-7.41,2-8.33,2.94-4.66,0-5.72-.71-2.15-3.58-1.48-4.8,3.47-2.27,6.22-2.35l2.75.22c1,.07,1.72,1.06,2.66,1.55l1,.5a3.1,3.1,0,0,0,3.16-.28l.23-.62.32-.89c.14-1.28,2.63-.56,3.29-.08s3.12-.28,5.47-1.71l1.73,2.29a3.38,3.38,0,0,1,.92,1.88c2.6-1.75,5.17-3.85,5-4.54-.28-1.35-3.93.37-5.23-.47s1.68-5.14,3.41-6.44-.15-3.47-1.31-3.86-2.57,1.4-2.74,2.18-3.26.41-4.23.09-.7-2.52-1.17-3.2.86-1.69,3-2.25l1.64-.88c.66-.35,1.2-1.66.88-1.86l-2.36-1.48c-3.5-1.84-6.37,2-6.38,3.61s-.08,4.26-.18,5.9l-6.26.08-1.53,0c-1.67.77-2.67,2.43-2.24,3.68l-2.37.78c-2.7.88-7,.51-7.36,3.67a4.68,4.68,0,0,1-2.57.7l-4.43-3.29c-3,2.79-7.08,4-9.1,2.74l-.9-1.46-.75-1.22c1.35-1.49,1.5-7.3-1-7.85s-8.58,2.65-10.13,4.06-6.41.61-7.76-.13a3.19,3.19,0,0,0-3.13,0c-.13.25-2.25-1.81-4.74-4.57l-5.36-.63a3.67,3.67,0,0,1,.34-2.42c.7-1,3-2.47,2.85-2.57-3.47-2.43.8-2.83,2.23-3.47l1.24-.56c2.05.11.38-.6-3.73-1.57l-3.38,2-.28.16c-1.28-.36-1.61-2.93-1.37-3.68s-3.13-4.2-4.48-5.26-5.82-.59-7-.1a2.17,2.17,0,0,0-1,3.13l-2.67-.25c-1.56-.15-3.25-1.4-4.45-1.16-1.55.31-2.45,2-4,2.41s-4.6.38-4.9-.08l-1-1.58c-2.06-.79-3.25-1.77-2.66-2.17l.56-.36a25.81,25.81,0,0,0,4.39-2.8c1.11-1.11,1.15-2.76,2.4-3.76l1.12-.89a9.79,9.79,0,0,0,6.11-2.43l1.47-.49,1.52-.5c-.3-.62-2.67-3.35-1.7-4s-5-.52-7.48-.25-5.19-1.12-6-3.08l2.16-3.22a1.68,1.68,0,0,0,0-2c-1.05-1-2.75-1.7-3.69-2.73l-.34-.37c.85-.92,6.27-.39,8-.93s2.56-3.58,1.86-6.78l1.58-1.81c2.14-2.45.27-4.19-1-5.36-2.76-2.46-4.73-6.13-10-6.34-3.65-.14-1.3-4.29-5.71-3.18-.16,0-1.2-.81-1.07-1.07.45-.86,1.61-1.61,1.77-2.46a3.21,3.21,0,0,0-1-2.52c-.75-.82-2.27-1.34-2.92-2.19-.35-.45.13-1.55.77-1.9l.58-.32a11.19,11.19,0,0,1,4.78,3.18l1.52,1.25.35.29c1.19-.24,0-1.91-.94-2.54s2.55-3,3.82-3.58,0-1.87-2.79-2.9l-1.07.49c-4.28,2-5.07.8-4.91-1.91.11-1.9-1.79-1.68-3.62-1.76l-1,0c-1-.33-4.12-2.78-7-5.46l-2-2.74c-1.39-1.93-4.25-3.25,1.34-3.76h.09a83.54,83.54,0,0,0-4.13-10l6.8-1.6c3.26-.77,3.08-.67,1.83-1.8-1.52-1.37-3.48-1.38-5.69-1.62l-1.56-.16a1.64,1.64,0,0,1,.24-3c.58-.14-2.86-4-4.24-5.35s-4.83-6.52-6.59-7-6.69,1.57-8,2.44-9.3-1.73-12.26-2-4.24,3.38-3.79,4.89-5.95-.78-5.46-2.76-1.54-2.38-4.52-.9L1538,3.54l-2.22-1.27c-5.36.69-8.1,2.51-7.74,2.77s-1.59,1.38-4.31,2.49l-2.53.09-2.93.1c-3.32-.76-8.75,2.62-11,3.2s-4.39.88-4.68.69l-.11-.22c-.6-1.21,1.51-3.24-2-3.54-1.79-.15-4.6-.86-4.76,1.69,0,.43-1.26,1.13-2,1.19l-2.76.21c-2.8.71-7.18-.9-8.33-.38s-5.63.28-10-.52L1469,8.53c-3-1.21-8.51,2.06-8.32,4.38l.06.73c.71.78.15,1.13-1.24.78l-1.22.06-1.79.09c-2.33.45-4.24-.26-4.26-1.59l-.48-1.07c-2.42-5.39-2.47-5.38,4.47-7.86l1.43-.52c1.95-.65,2.29-1.28.76-1.41l-.81-.35c-3.34-1.43-6.69-3.58-8.51,1-.13.32-1.95.25-2.88.52l-1.89.54c-2.23.77-1.43,3,1.78,5l-.84,2.86a2,2,0,0,0,.92,1.92l.65.42c1.24.09,1.2.44-.1.77l-.26.51-1.93,3.76c-5.23,1.16-10.34.75-10.63.28s-3.09-.36-6.23.23l-1.91,1.23c-2.31,1.48-2,1.86-3.09.84-.78-.73-1-1.76-1.79-2.46a4.16,4.16,0,0,0-2.58-.82,2.46,2.46,0,0,0-1.69,1.43c-.36,1.32.65,2.61-2.86,3.15-3.13.49-5.64,2.65-8.66,3.78-2.3.87-6.24,2.3-7.25,1.72l-3.94-2.29c-2.09,1.91-4.1,4.55-4.47,5.86l-2.35-.3c-.93-.11-2.44-3.8-2.47-4.5l-.08-2.36c2.89-1,0-1.08-2-.91s-1.47,4-1.76,5.41-2.51,2.11-4.93,1.54l-2-.67c-2.39-.78.5-1.65.28-1.85l-1.06-1c-1.53-.9-4.79-.46-7.25,1l.32.42,1.78,2.37c-1.76,1.94-5.79,2.61-6.76,2.92s-4.81,3.67-6.7,3.6l-9-.31-2.65.4c-2,.3-3.77,1.27-5.71,1.37s-4.57-1-6.28-.57c-1.5.4-1.78,2.78-3.32,3.29s-3.91-.16-5.84-.52l-3.55-.67a63.73,63.73,0,0,0-12.37,7.07c-1.36,1.18-4.9,1.59-7.87.91l-2.29-.43-2.13-.4c-2.4-.34-4.83,1.39-5,2.2s-3.49.17-4.48.5a4,4,0,0,0-2.25,1.84h-.25c-4.74,0-8.2,2.29-12.37,3.2l-1.62.36c-2.36-.71-5.91.65-7.89,3l-5.32-.18-6.74-.24c-3.56,1.88-9.28,4.88-10.32,5.49s-6-2.1-7.48-3.2-2.39-.63-2,1l.92,1.28.54.76c1.8.64-.35,2.62-4.77,4.37l-3.84.77-3,.6a105.37,105.37,0,0,1-12.38,2.26l-2.52,2.37c-2.29,2.16-4.14,1-4.52-1.41l0-.2c-2-.08-2.91.92-2.64,1.37s-2.37,1.09-3.31,1.18-1.34,2.2-1.22,2.87-2.61,1.22-3.65,1.22-2.23-3.58-2.34-4.78a2.52,2.52,0,0,0-1.45-2.12c-.34,0-.62,3.44-.62,4.72s-3.4,2.29-7.55,2.23l-.62,2.79c-.15.72,2,2.82-.6,1.78l-6.44-2.58c-4.09,3.34-5,5.64-1.94,5.13l2.18-.33a4.92,4.92,0,0,1,1.49,0l.1.67c0,.89-8.23,1.62-11.4,1.62s-6.57,2.09-7.56,4.64l-4.53.09c-1.48,0-3.07,1-4.33,1.81-2.58,1.58-4.65,4.26-8.63,1.14a5.48,5.48,0,0,0-2.78.63,30.16,30.16,0,0,1-11.82,3.79c-1.67.17-3-.11-4,1.57-1.91,3.13-7.47,2.59-11.32,3.78l-1.08.33c-2.77-1.53-5-1.12-5-.61a7.47,7.47,0,0,1-.48,2.12c-.33-.71-1.63-1.29-3.31-1.37-2.08-.09-7.47-2.44-7.86-1.16s2.91,3.24,4.45,3.63a16.24,16.24,0,0,0,6.2-.12,1.28,1.28,0,0,1-.87.55,73.27,73.27,0,0,0-9.51,2.54l-3.69.66-2.27.41a18.86,18.86,0,0,1-3.94,2.36l-.2-.13c-3.45-2.39-3.85-.74-5.59,1.29-1.26,1.47-5.08,1.41-6.37,4.07-.86,1.77-4.82-1.74-7.77-.46-.26.11-.88-.1-1.05,0l-4.21,3.14c-3.28-2.81-6.28-2.75-6.72-1.29s-4.11,6.16-6.14,5.49-5.56,1.44-6.2,2.34-4.25.11-5.32-.42,1.36-3.22,2.35-3.9,1-3.36.71-4.07-4.36-3.35-5.79-4.11a5.32,5.32,0,0,0-4.4-.37l-1,.14c-3.94.58-5.42,1.72-2.63,4.23.27.24-.38.89-.34,1.34.12,1.33-5.73-.91-2.7,2.12l1.11,1.11c-.2,1.41-2.64,4-1.93,4.63s-.5,1.13-2.69,1.15l-2-.19a53.07,53.07,0,0,1-5.94-1.06l-.27-.06c-.1-.57,4.08-1.32,5.75-1.43s2.11-.68,1-1.26l0-.37c-.15-1.27,1.77-2.65-1.08-3.73-4-1.52-3.42.83-4.74,2-.68.63-3.28.4-5,.28-.23,0-.82-2-.25-2.36,2.48-1.7.78-2.06-1.27-1.82-1.68.18-2.46,1.58-5,.17l-2.4-1.32c-4-.14-13.24,4.37-15.82,3.53s1.4-3.62,3.93-3.68,1.59-3.39-.37-3.63-1.32-1,1.43-1.77l2.25-1c.71-.31.82-2.32.62-2.36-4.88-1.13-6.74-6-13.23-5l-.59.09c-.53.36.12,1.49.63,1.89s-2.44.38-6.55,0V112a6.28,6.28,0,0,1-2.73.49c-2.48-2.27-4.37-1-7.2-.16l-1.85.57c-3.74-1.19-1-4.15.86-4.78s-.78-1.58-2.13-1.71-1-1.36.72-2.72l1.64-.74c3.12-1.4,2.41-3.45,2.18-5.34l-.07-.56a4,4,0,0,0-4.25,1.13l.23.12c3.89,2,0,3.26-1.39,3.61l-2.14.56c-3.34-.22-4.73-2.74-4.36-3.38s-1.56-1.84-4.29-2.66L934.06,99c-.29.58-1.21,1.57-1.55,1.51l-6-1c0,3.22-2.47,3.36-3.29,2.5a3,3,0,0,0-3.6-.21l-.69.83L917.84,104a8.43,8.43,0,0,1-7.17-.61l-2.71.16-.66,0c-1.18.27-.7,1.39,1.07,2.48l1.13,1.06a1.48,1.48,0,0,1-.22,1.92,4.12,4.12,0,0,1-2.82.31l-2-.93c-2-1.28-10,2.64-11.57,2.09s-2.48.32-2,1.91l-3.72.19c-3.23.16-5.78,2.54-4.78,4.3.71,1.25,1.76,2.42-.27,2.94-1.06.27-3-.9-4.42-1.5l-.8-.33c-.78-.51-3.12,3.27-3,5.44l-.51-.3-1.72-1c-3.85-.58-3.74,1.6-3,2.21s.93,1.49.77,1.63a72.27,72.27,0,0,1-7.59-2.07,6.49,6.49,0,0,0-5.11.91c-.32.46-3.68.19-5.11-.1s-.21,1.23.16,1.51-1.07,1.37-3.21,2.42l-2.16.7c-1.82.59-4.84,1.53-5.74,1l-3.47-2c-1.54,1.76-9.94,3.78-11.86,5.07s-.56,3,3,3.78l.68,3.22c.25,1.19.84,1.79-.57,2.69-1.59,1-3,1.2-4.57.07-.73-.54-1.77-1-2.14-1.64L820,138.44a93.32,93.32,0,0,0-13.76.15L805.05,141c-.52,1.07-1.69,1.22-3.92.48a19.8,19.8,0,0,0-9.35-.08c-1.43.31-1.6,2.66-4.59,3-1.18.14,2.88,2-.29,3l-1.6.5c-2,.81-.67,2.59.16,2.88a48.28,48.28,0,0,0,8.19.71l-.58,3.14c-.08.43-.63,1.13-1,1.15a7.18,7.18,0,0,1-2.85-.39c-.27-2.23-2.07-2.83-5-2.51l-4.82.54c-4.14-1.82-8.66-2.49-10.06-1.5l-1.37.83c-4.39,2.65-7.5,2.62-9.81-1.19l-1.68-2.78c-3.3-.91-7.54-1.07-9.43-.35l-.69-2.43c-.32-1.11-2.65-.94-4,.5-1.62,1.75-3.36,3.8-5.86,4.71l-1.71.63c-3.06-.78-5.57.61-5.57,1.3s4,1.18,8.85,1.11l.31.14c2.06,1,3.94,1.58,5.73-.33a7.69,7.69,0,0,1,2.54-1.17l6.52-2.48c1.45,3.61,1.15,6.74-.65,7l-1.61,0c-5.2-.1-7.83,2.11-10.1,4.83-.88,1.05-.17,3.5-3.59,2.57L736,164.5c-.69-1.4-3.84-1.31-4.52-.58s-5.39,1.22-10.46,1.1l-1.57,4c-.17.45-4,.21-6.15.36l-1.59.11c-1.29.76,4.26,1.9,5.87,3.37s3.21.37,3.56-2.43l3.16-1.44a8.3,8.3,0,0,1,3.68-1c1.58.13,3.27,1.45,4.51,1.23,1.53-.28,2.44-2,4-2.37a7.79,7.79,0,0,1,4.4.87c1.65.82,2.18,1.73,4.9.44l2.7-1.28a5.79,5.79,0,0,1,.26,8.92l-5.76-.31a16.82,16.82,0,0,0-7.7,1.52l-1.55.79c-.58,1.9-2.31,2.28-3.85.86l-2.38-.87-1.81-.66c-1.25-1.79-5.06-.38-8.46,3.13l.84,4.15c.09.42-1,1.3-1.71,1.36a4.45,4.45,0,0,1-2.54-.85c-.38-.25.11-1.17-.26-1.35a7.31,7.31,0,0,0-2.85-.64c-.43,0-1,.58-1.33,1-.17.18-.1.5,0,.73l1.63,4.93c-5.3,2.82-10.29,3.58-10.55,3a15,15,0,0,0-3-2.81c-.7-.48-1.75,1.7-3.14,1.85s-2.11,1.61-1.57,3.24l-2.64-.08c-4.3-.13-7.61.51-10.34,2.88-.58.49-2.92.46-4.07.11l-.8-.25c-.33-1.09,1.24-2.79,3.5-3.77l1.27-1.73c1.52-2.07,4.16,2.88,5.25.2l.93-2.3c2,.26,2.68-2.31,2.58-3.39s6.06-1.91,6.66-.39,4.25.79,6,1,4-2.62,4.3-3.68,2.07-3,3.94-4.21l.08-1.73.1-2.2a3.63,3.63,0,0,0-3-3.46c-1-.27-6.07,1.85-11.27,4.69l-5.55,1.73-2.74.85c-3.46-1.19-6.46-.23-6.46.48s-1.95.8-4.34.2l-1.14.47-3.82,1.58c-4,2.21-8,1.16-7.54.11s8.12-4.3,11.27-4.55,6-1,6.41-1.73h.27c6.53-.11,10.88-2.77,15-5.75l3-2.15c3.73-2.49,8.39-2.86,9-2.26s4.78-.11,5.9-.47a32.81,32.81,0,0,1,5.63-.93l1.64-.78,3.73-1.77a11.14,11.14,0,0,0-7.83-4.31l-1.09.8c-2.79,2.06-5.8,2.71-9.66,2.38l-5.15-.43c-5.27,1.19-10,5.31-10.21,6.68s-4.27-.75-5.33-1.62-5.24.18-4.84,1.12-2.46,1.72-3.66,1.72-7.51.14-14,.32l-4.83,3.17c-1.45,1-4.64.67-7,1l-.64.1a28,28,0,0,0,.72,4.23c.27,1.14-2.41,1.28-5.94.31l-2.08.41c-2.84.57-5,2.48-7.77,3.47-1.45.52-3.56.11-5.2.48-6.54,1.46-14.14,1.68-18,6.47l-1.44,1.77c-1.24,2.21-7.2,3.51-8.93,3.34s-4.31-3.59-6.06-3.23-6.66.57-8,.66-.81,1.53,1.13,3.2l.62,1.52.28.67c-1.69,1.06-5.12,1.19-7.61.3l-1.84-1c-.92-.51-1.76-2.27-1.51-2.4l5.31-2.59c-3-3.15-2.83-6,.35-6.36l1.71.78,2.67,1.22c2.77-.21,5-.58,4.91-.82l-.16-.14c-1.44-1.32-4.82-2.13-3.75-4.11s3.72-2.34,6.46-.85c.2.11,2.11-.68,2.11-1.06,0-1.78,1.44-2,3.5-1.88l1.72.07c3.09,0,1.33-2.14.32-2.63s1.05-1.94,1.83-2.23.21-1.4-1.29-2.48l3.82-.34c1.89-.18,1.82-1.93,0-2.83-1.36-.67-3-1.07-4.46-1.68l-.32-.14c-.19-.8,3.12-.65,4.4-.35s-2.36-5.13-5.18-5.87-6.88,1-7.42,1.67.66,2.81,1.24,3.54-1.15.45-3.85-.6L591.25,162c-3.88-1.87-4.33-3.63-.77-5.18l1.9-.82c2.64-.34,3.94-3.14,2.9-6.23l5-4.33c1.17-1,.54-3.2,1.82-3.84s3.92.25,5.91.12c.85-.06,1.58-1,2.35-1.51,1.65-1.15,3-.72,4.59.19l.85.49c1.91.19,3-.39,2.46-1.29l-.36-.05-5.06-.71a82,82,0,0,0,3.15-9.42l5.19,1a3.31,3.31,0,0,0,2.19-1.76c.63-4.23-6-5.51-8-8.78-1.42-2.29-5.15-1.3-7.88-1.26-1.58,0-3.12,1.16-4.69,1.17s-2.94-1-4.51-1.17l-1-.1c-1.2.54-2.11.19-2-.76l1.82-.86,3.51-1.67c2.56-2.51,1.91-6.14-1.44-8.07l.46-.82,1.23-2.18c-1.73-1.13-12.82-6.81-12.32-9.22s1.87-1,2.15-.08,1.71.7,3.19-.58l.91-1,.78-.87c.69-1.16.06-2.12-1.4-2.14l-1-.17-.95-.15a1.3,1.3,0,0,1-.65-2.14l.74-.66c.72-.63,2.46-1.2,2.38-1.7-.25-1.74,1.2-2.66,2.62-3.81l1.92-1.56c-2.77-1.26-7.15-3.6-7.7-4.48s2.67-3,3.53-3.66-3.49-1.26-5.46-1.26-3.58,2-3.58,2.68-5.24,2.94-7.08,3-3.74-4-3.84-5.1,4.34-2.08,5.89-2.08,3.54-1.9,3.82-2.62S580,63.77,579.41,63s-2.29.31-2.83,1.09-1.26.22-1.59-1.26l0-.91a11.71,11.71,0,0,0-2.1-7.9L572,52.65c-.94.47-6.24,1-11.77,1.18L557.63,49l-.17-.32c1.14-.7.24-2.53-2-4.06l-2.08-1.4c-2.46-1.66-4.23-2-4.94,1l-.1.42c-1.79.26-3.58-.5-4-1.69l.56-.31,5.76-3.22c.18-4.87-.95-8.89-2.51-8.93l-.92-.25c-1.1-.3-2.8-.79-2.93-1.34-.44-1.93,1.9-1.59,3.61-1.6a4.4,4.4,0,0,1,2,.22c2.85,2.29,4.71-.45,6.85-.8,1.55-.26.64-4.69-1.24-5.87-1.42-.89-3.37-1.39-4.73-2.31-2.8-1.88-8.07-2.51-8.29-1.06-.44,3-4.25,3-5.85,3.31l-2.25.48c-3.21-1.1-4.78-4.62-4.45-5.45s-2.87-2.57-3.84-3.32-4,4.51-5.94,6.6-4.16,3.15-4.87,2.36l.29-.34,1.52-1.74a45.46,45.46,0,0,0-5.27-6.53L510.41,11c-1.83-2.26-4-.92-5.7-.18s-3,2.73-4.65,2.8l-7.7.35c-7.46-2.89-14.51-3.79-15.66-2l-1.09,1.16-.77.81a15.69,15.69,0,0,1-6.72,1.16l-1,1.63-.59.95c-.17,1.27-4.54,1.2-9.7-.15l-5.2,4.91a26.26,26.26,0,0,1-2.4,1.79l-12.44-1.86c-3.33-1.67-6.1-2.66-7.72,1.31-.45,1.12-3,1-3.86-.65l-.3-.59c-.09-.17.29,1.66.84,4.07l-5.85-3.38c-2.34-1.34-6.65-1.11-5.76,2.67a1.51,1.51,0,0,1-.79,1.2c-4.07-.24-6.22,2.1-9.24,3s-6.66.71-10,1.55l-1.21.3c-3.53-2.17-6.35-1.51-6.26,1.45l-3.47.76c-1.13.25-2.82-.53-3.81-.21-1.55.52-2.65,1.63-4.07,2.37a25.19,25.19,0,0,1-6,2.72l-1.48.32c-2.08-.6-4.35.9-4.56,1.66s-2.57.82-5.25.13l-2.32-.29c-5.78-.73,1.06,3-2.39,3.27l-.57,0c-.55.53-4.64,1.47-9.09,2.09l-4.32-.84c-2.56-.5-5.64-.54-8,1.28l-.5.38c-3-.84-4.16,1.28-3.79,2.16s-1.18,2.49-3.46,3.6l-.4-.26c-5-3.31-7.66.21-9.14,2-2.6,3.1-7,4-10.69,5.83-4.29,2.11-8.24,4-13.75,4.66-6.11.67-6,1-9.37,3.24l-.49.31c-.57.32-3.35-.22-6.17-1.2l-1.6,2.18c-1.42,1.94-2.57,2.66-6,2.86l-3.32.2c2,1.19,3.4,2.34,3.2,2.56l-.28,0c-1.09.06-2.2,0-3.3,0-7.48.18-9.09,1-11,5.78-1.18,2.91-4.7,4.19-8.63,3.23L242,84c-.87.3-1.94,3.16-2.08,4.13s-3,1.1-3.85.89-4.22,4-6.86,3.7-4.81,2-4.81,2.92-8.58,1-19.07.17l-5.86,6.52-3.16,3.52c-4.56.34-11.72,5.31-14,6.38s-.87,3.65,3.13,5.74l3.81-1.73,4-1.8c2,2.14.14,4.32-4.1,4.85L188,120.66c-1.57,1.79-1.71,2.7-4.39.93a5,5,0,0,0-2.77.64l-3.63,2.15c-1.87-2.13.25-4.39,1.66-4.6s-3.77-.06-11.5.32l-6.6,0c-1.4,0-3.83,1.24-4,2.07-.36,1.94-1.59,2.08-4.06,2.43-4.05.55-7.51,3.66-6,5.76,2.37,3.34-1,3.84-3.79,4.51l-1.83.45c-2.44-.18-2.64,1.72-1.78,3a4.31,4.31,0,0,1,.59-.39c1.57-.86,2.84-2.49,5.22-.93,1.42.93,3.65,1.73,2,3.54l-.86,1a41.34,41.34,0,0,1-5.71-1.53,4.82,4.82,0,0,1,1,2.08l-1.27-.86c-.86-.59-1.61-1.17-1.65-1.8a7,7,0,0,0-2.28-.47c-.72.29-2-1.7-2.27-2.58s-5.22,2.56-6.18,4.26-2.63,1.65-2.92,1.19-2.25-1-4.37-1.25L119,141.7q-4.62,3.21-9.35,6.35a10.86,10.86,0,0,1-3.14,1.62l-.51.14c-1-.57-1.76-.27-1.72.67l.21.84.22.87c.44.93-.35,1.22-1.75.65l-.49.23a74.22,74.22,0,0,0-9.79,5.35l-.86.59c.4,1.73-2.4,2.21-6.23,1.06L83.82,164c-.51,1.12.08,2.13-2.55,2.56-3.46.57-5.84,3.16-10.14,2.59-3.07-.41-3.78.13-2.37,1.16l3.17,2.33c-2.72.63-6.11.52-7.52-.23l-1.33,1.34a64.87,64.87,0,0,1-4.73,4.64,5.59,5.59,0,0,1-3,.86l-3.79-2.94A67.84,67.84,0,0,0,44,181.59l.28.59c.61,1.29,1.73,3.28,3.09,3.47l5.24.72c.36,2.6-4.15,4.72-5.67,4.72s-3.49,4.08-5.72,4.56-3.46,1.57-2.72,2.41l.84.21c5,1.22,6.66,3.93,4.11,6.56l-3.61,3.71c3.44-.32-2,.94-5.33.4s-5.71-.41-5.35.29l.62.52c.68.56,4.26-.93,2.26,1.64l-1.07,1.36c-.54,1.74-10,1.55-12.58.09s-3.55.1-2.47.86A63.89,63.89,0,0,0,22.19,217c1.25.54,1.18,1.84-.15,2.87l-1.25.4c-1.84.58-4,.68-5.87,1.21-1.66.48-4.51.06-4,2.5l.23,1.13c-1.1,1.7,3.54,1.57,5.38,1.07s5-4.2,6.52-3.64,3.78,4.46,4.13,5.6-2.87,3.69-4.21,4.32a3.3,3.3,0,0,1-3.47-.84c-.27-.52-1.08.9-1.8,3.17l2.62,1.56c1.17.69,2.1,2.47,1.75,3.37-.27.7-6.77,7.39-7.59,7.37l-.82,0c-.87-.71-4,.13-6.92,1.88l2.81,2.42c1.87,1.61,2,3,.76,4.63-1.71,2.31-3.74.41-5.74.32-2.28-.11-5.33,2.28-4.38,3.33s1.56,3.66,5.13,1.39c1.31-.84,4.21-.47,5.76-1.23l1.55-.76a4,4,0,0,1,3.84-1.45c.49.31,2.05-2.7,3.27-3.52s5.44-5.91,7.8-5.33,2.68,3.11.72,5.62l3.43,1.9a32.55,32.55,0,0,1,7,4.68c1,.93.74,3.73.3,3.81l-4.62.84c-2,2.6,2.72,7.18,5,6.31a3.68,3.68,0,0,0,.34-.16L41.1,273l1.21,1c.78,1.44-1.24,3.56-4.5,4.71l-.29,3.39-.07.87c.39,1.1,3.9,2,4.95,2s1.47,3,1.32,4-3.34.51-4.35.66-2.48,1.75-3.27,3.54l3.22,1c.93.3,1.9,1.36,1.87,2L41,299.92c1.56,4.05,3.83,7.11,5,6.78l.38-.52,2.4-3.3c4.88-1.82,9.37-3.76,10-4.3l.69-.42a57.89,57.89,0,0,1,7.73-4.34c.78-.33,3,.81,4.4,1.37l.38.15c.2.53-3,1.33-4.37,1.48s1.16,5,.9,6.76-3.86,3.61-5,3.72.44,6.85-1.23,8a25.21,25.21,0,0,1-5,2.81l1.18,1.11a1.92,1.92,0,0,1,.24,2.46c-2.26,2.06-7.34,2.64-6.92,6.22l0,.29c-1.71.42-2.37,1.53-2.09,1.82s-1.31,1-2,1.23-.78.68-.2,1.08l0,.33-.09.88c-.42,1.12,4.23,2,5.93,2s4.2,3.49,2.88,4.37-7.39-1.25-9.86-1.08-3.32,1.54-1.9,3.07L42.28,343l-2.41,1.16c-2.82,1.46-4.11,2.93-2.87,3.25l.66.06c3.36.26,6.9,2,9.59-1.28l2.17-2.65c4.52.81,6.71,2.38,4.86,3.5l-1.08,1.12-.37.38c.8,1,5,0,6.29.73s6.35,1.44,8.09,1.92.75-5.21.42-7.4,5.53-1.89,7.63-1.17,2.17,2.91.17,4.86L72.17,345a2.2,2.2,0,0,0-1.44.24,1.37,1.37,0,0,0-.15,1.42c.44.6,5.83,1.89,6.65,1.52l3-1.33a48,48,0,0,1,8,4.95l2.77-2.3c1.18-1,3.52-.9,3.7.95.11,1.27,1.1,3.43-2.6,3l-3.7-.39c-.57,1.77-7.59,1.54-10.26,1.39l-2.29,2.23c-1.49,1.46-2.2,4,.72,4.12l5.57.24c-.55,2.47,4.35,6.21,3.72,7.67s2.7,2.79,7.39,2.95L92.55,378l-.23,2c1.68,1.76,5.34,5.77,4.37,6.84s3.36,3.26,5.39,3.54,3.69-1.38,3.69-2.15-3.29-1.85-4.69-2-1.7-.73-.67-1.21L101,385c3.37-.31,3.4-1.61,1.47-2.88l-1.48-1c-2.85-.86-.85-1.37,4.44-1.13l3,1.77c1.27.74,2.23,3.25,1.47,3.82-3.56,2.71-.14,3.46,2.31,3.75l3.47.41c4-.17,7.51,1.46,7.77,3.62l2.63,1.71c2.29,1.48,3.33,2.68-1,3.45l-1.11.2c-.8,1.29-6.13,2.66-8,2.6a4.27,4.27,0,0,1-3.93-3.62l.53-1.59,1.51-4.5c-3.36-.37-7.17-.72-7.57-.71s1.22,2.66,2,3.65-5,3.48-6.16,4.46.72,2.38,4.21,3.1l3.18.84a4.53,4.53,0,0,1,2.6,1.59l1.22,2.41c1,2.71,2.65,4.89,3.58,4.84l.68.11c1.89.32,4.72-1,5.54,1.11l.66,1.71c-2.17.11-4,.74-4,1.4l.41.2c.78.39,2.7.45,2.73.71.38,3.83,2.34,1.54,4,.54l.65-.39c1.67-.86,2.49-.2,1.83,1.46l-.7.66c-4.69,4.4-5,5.61.4,9.19l3.52,2.32c-.68,2.69-4.17,5.42-7.75,6.08l.44-3.55a2,2,0,0,0-1-1.87l-.66-.25c-1.24.33-.72,4-.14,5.27s4.43,4.37,8.54,6.87l5.37-2.89c.17-.09,3.66,1.84,4.41-.22l1-2.79c3.42-.85,9.24-1.95,12.94-2.43l2.67,2.53L160,438.8c1.22,1,.8,6.26.26,7.67s4.46,4,6.53,4.19,4.46-.74,5.33-2.16l1.19-.67c3.38-1.9,6.7,3.84,10.41.2a5.76,5.76,0,0,1,1.48.6l1.47.94c1.68,1.16-2.86,4.44-3.39,6.19s4.43,1.47,5.9,1a90.2,90.2,0,0,1,9.76-1.87l2.6,3.31,3.12-2.38c3.66,1.5,3.77-2.24,6.4-2,2.94.23,5.83.82,8.77,1,.71,0,1.46-1,2.35-1.47a4.38,4.38,0,0,1,2.29-.42c2.29.42,4.85.71,6.62,1.66l.92.5c-.19,1.77,9.63,2.27,13,1.23s4.79-3,3.21-4.38l-1.54-1.11-1.55-1.11c-2.27-1.37,3.54-3.21,5.94-2.92s2.49,1,1.79,1.18,1.27,3.74,2.29,5.1,3.41.9,5.33-1l1.79-1.46.74-.6a43.25,43.25,0,0,1,6.36-1l1.93.33c3.47.58,3.69-1.24,4.91-2.65.77-.88,3.73-2,4.12-1.74,2.52,1.5,4,.85,5.77-.58,3.87-3.13,11-2.82,14.67-6.66,1.36-1.41,6.37-.78,9.78-1.57,4-.93,8.71-.19,9.4-4.28a9.42,9.42,0,0,0,1.48.07l6.62-.81c.16-2.39-5-4.46-7.16-4.46s-1.6-1.19,1.21-2.65l2.24-1.18a63.25,63.25,0,0,0,6.12-3.29c2.7-1.83,2.53-1.89,4.48.43l.51.62c.93.62-3,3.27-4.44,4.3s.65,3.85,4.72,6.26l2.2-5.37.24-.58c3.23-.14,5.86-3,5.86-3.9s2.22-.52,4.93.92l2.26,0,2.55,0c2.78-1.31,7-.6,8.27-.39a27.56,27.56,0,0,0,4.29.4c.56-.07.56-.6,0-1.18l0-.53,0-.85a2.32,2.32,0,0,1,2.91-1l1,.5.93.49a1.9,1.9,0,0,0,2.71-.11l.84-.56a5.2,5.2,0,0,1,2.06-.31l7.88-.47c3.13,1.61,10.05-.17,10.75-1.78s3.2-2.86,5.55-2.78l1.73-.19,1.63-.19c1.87-.56,1.6.55-.61,2.46L401.52,417c-2.3,1.54-2.81,4.28-5,5.93l-1.19.88a22.56,22.56,0,0,1-6.1,1.36l-.92-.23c-1-.23-2-1.13-2.61-1-2.78.64-5.08,2.68-8.32,0-1-.82-6.51,2.49-7.17,4.51-.11.35.4,1.07.87,1.19,3.29.83,4.09-1.48,6.09-2.31l.36-.15c.62.11,1.11,1.5,1.08,3.09l1,.51,1.47.76c2.29.07,4.71,3.13,4.9,4.22s3.36,1,4.2.73,2,1.61,2.18,2.41,3.25-.14,4.3-.73-.34,4-2.55,5.22-.7,3.46,3.37,5l4.46-.64.4-.06c.43-.6-3-1.45-4.8-1.64s1.78-1.7,2.85-2,3,1.39,4.31,3.68l2,2c1.11,1.08-1.86,2.57-4.66,2.55h-.36a2.89,2.89,0,0,0,.25,3.19l1.08.31c4.26,1.19,6.43,2.67,3.13,5.73-.26.24.31,1.23.88,1.51l3.43,1.68c4.47.54,7.52.05,6.77-1.09l-.94-.12c-5.64-.75-5.61-4.32-3.95-5.89l2.47-2.33,4.24,1.2c2.84.8,4.94,2.87,4,5.48a8.55,8.55,0,0,0,1.48.44c3.08.83,2.87.74,1.9,1.75l-2,2.12c-3.2-.31-5.72,1.33-5.85,2s-1.45,1.55-2.94,1.85l-1,.58-.49.3a2.28,2.28,0,0,0,1.42,1.59c.28,0,3.78-.8,7.76-1.73l-.17,4.39c-.05,1.22,2.26,2.45,3.27,3.76l.3.38c-.29.65.61,1.16,2,1.12l.35-.4,1.52-1.7c1.35-2,8-2.36,8.86-3.61s-1.55-3.88-2.29-4.51-4.28-1-5.4-.9-1.07-2.12.11-4.86l4.25,1.87c.91.4,1.45,1.24,2.39,1.51l1.11.33c1.44,0,2.51-.73,2.38-1.66l-.22-.85-.26-1c-.44-1.19.69-1.67,2.5-1.06l1.17.48c3,1.23,7.81,1.42,6.49,5.19-.06.17,1.08.78,1.58.73.95-.08,2.32-.32,2.66-.79l1.21-1.64c1-2,4.31-2.05,5.14-1.52a3.6,3.6,0,0,0,3.33-.05l.55-.62,1.57-1.78c1.31-2.06,5.07-4,8.34-4.41l3.1,1.65c2.32,1.24,4.21-.62,3.58-3.37l-.17-.73a3.92,3.92,0,0,1,4-.81l.21.6,1,2.87c2.81-.85,5.78-5.71,4.37-7a25.21,25.21,0,0,0-4.61-3.25l-.17-.61-.22-.76c.53-.88,6.52-2.21,6.12-3.57s1.37-.94,3.92.94l-1.75,1.56c-1.95,1.74-1.19,2.26.52,3.31l1.05.65c.77.71,3.7.54,4.38.33a25.59,25.59,0,0,1,5-.38l.38,3.82c.08.86.95,1.72,1.65,2.51l1.21,1.37a3.6,3.6,0,0,0,4.65,0c.53-.74-1-1.46-3.51-1.6l.19-2.37.34-4.2c4.42-3.33,8.85-4.24,9.84-2l-3.09,1.6-.48.25c.23,1,3.62,1.8,4.83,1.8s.59-2-1.4-4.39l3.38-2.13,3.53-2.21c1.91-3.19,14-4,17-5.66s7.72,1.3,8.63,2.93,2.12,1,2.69-1.35l-1.22-.78L549.68,435c4.2-.43,6-2.34,5.16-3.15s0-2.45.58-2.85,1.88.73,2.17,1.28,3.67-.67,5-1.36,3,.41,3.69,2.44l1,1.39,1,1.35c1.56,1.32,2.26,2.77,2,2.91S565,435.15,563,434.3s-2.9.37-2,2.73l-.5,1.73c-.35,1.2-1.64,2.48.44,2.9,1.5.3,4.18,1.07,5.36-1.14,1.53-2.85,6.4-1.78,9.37-3.09.25-.11,4.58,1,2.71,2.7l-3,2.64c3,1.23,6.33-.34,6.64-1.33s1.87-1.12,3.46-.26l1.23.29c2.69.63,9.44-.63,10.23-2.09,1.27-2.34-2.43-1.7-3.77-2.51-.42-.26-.73-1.14-.49-1.28,3.28-2,.09-3-1.21-4.47-.89-1-1.16-3.11-.22-3.89l2-1.62a85.17,85.17,0,0,1-14.57-2.33L582.2,421l2.83-1.81c3.28.13,6.52.64,7.21,1.14l.34.57.26.41c-.11.57-6.57,1.49-6.57,2.37s3.41.12,7.6-1.69l.63-.16,1.24-.31a2.91,2.91,0,0,1,3.3,1.21l-.41.69L597.7,425c-1.49,1.63-1.52,3.63-.06,4.45l1.26.32a3.12,3.12,0,0,0,2.28-.81c.44-1,3.12-2.33,4.71-2.14l1.32.15c1.47-.07,2.72-1.91,2.77-4.09l.85-1.5c.5-.89,2.62-1.84,4.09-1.91,2.86-.13,1.81,1.65,1.92,2.72l.38,3.81c2.23-1.6,4-1.34,4-.57s1.53,1.23,3.39,1l.92.48c3.27,1.71,6.1.28,9.27.13,4.84-.24,5.47-2.43,7.12-4.47l.63-.79c1.3-.71,4.54,0,7.18,1.55l2.49.4,4.31.68c0,2.18.19,2.33.51.35l-.74-1.5-.64-1.3c-2.09-1.25,5.17-2.17,5.58-.22s1.44,3,2.31,2.23l.87-.06c3.84-.26,4.94-.51,6.79-1.83,2.23-1.59,4.24-3.28,8.25-2.82a13.06,13.06,0,0,0,5.91-.95c2.12-.87,3.39-.47,4.57.62l1.13,1c1.08,1.28,4,1.73,6.51,1l-3-2c-1.39-.93-1.3-2.17,1.31-2.63l1.43-.25a3,3,0,0,1,3.62,2.06l.83,1.26c.67,1,6.79,10,6.9,10.75,0,.34,0,1-.27,1-7,1.48-3.07,4.15-1.71,6.64,1.06,1.94,1.76,4,2.65,6l1.15,2.57c4.19.4,6.43-.17,5.87-.59s3-.77,4.08-.77.24,3.93,1.62,5.21,2.49-.59,2.49-1.54,6.44-2.66,8.15-1.76,2.86,1.85,2.56,2.12l-.31.06c-2.27.49-5.29-.36-6.69,1.61a37.69,37.69,0,0,0-3,5.11c-.09.16,1.22.62,1.82,1l.57.33a67.68,67.68,0,0,1,5.23,6h-7.44c-.18,0-.83,1.69-.46,1.87,2.48,1.28,2.84,3.18,1.59,4.57l-1.21,1.34c-2.79,1.06.61,3.24,2.62,3.71s2.39,1.7.85,2.74l-1.54.23-1.2.18c-1.62-.73-3.49,2-2.28,2.83s5.57-1.17,7-1,.41,1.33-2.34,2.6l4.68,1.52,1.71.56a2.19,2.19,0,0,1,.8,3.22,1.84,1.84,0,0,1-1.85.26l0-.17c.29-2.69-2.46-2.63-4.95-2.3-.81.11-1.6,1.28-1.86,2-.72,2.08,1.1,2.41,3.71,2.42h1A34.5,34.5,0,0,0,739,493l2.17,2.15,2.62,2.58c-1.95,1.35-1.06,5.17.7,5.26a7.78,7.78,0,0,1,4.64,1.79l.6.81c1.37,1.86,4.49,2.95,3.9,5.7-.36,1.63.89,3.4,1.22,5.13l.06.31c-.73.41.45,1,2.64,1.43l2,.38c.31.06.51.35.79.51l2,1.15c2.76.05,10.2-1.72,10.77-1.78s5.88,1.31,7.71,1.74,9.73-.71,11.74,0,6.71-1.22,7.4-2.17,2.22-2.72,3.37-3.95l.76-1.28c.37-.64-.19-1.53.14-2.2a2.8,2.8,0,0,1,1.93-1.25c.76,0,2.17.53,2.29,1,.31,1.21-.25,2.54.17,3.71l1.41,4c6.28.59,11.41-.63,11.41-1.27s-3.22-1.57-4.31-1.71-2.16-3-2.39-4-1.91-2.31-3.72-3.07l-1.48-.12c-2.13-.17-3.78-.46-3.09-2s2.57-1.49,4.06-.44c2.06,1.46,3.51.89,5.39-.23l.61-.36c1.65.38,2.65,1.45,2.21,2.38l-.83.54-1,.67c-1.4.54,1.08,2.56,5.5,4.49l4.54.57.43.06c.75-.37.33-2.39,0-3s2.37-1.06,3.33-1.06,1.74,4.16.25,5.25-5.74,4-4.3,4.35,8-3,10.66-3.63a32.07,32.07,0,0,1,8.9-.76l2-.18c5.68-.54,10.14-2.95,14.29-5.31l4.61-2.63c1.87-4.32,3.79-9.08,4.62-9.65s4.7.53,5.77,1.05,1.66-1.19,1.34-3.8l5,.25,1.19.06c1.18,1.44,2.38,2.21,2.66,1.71l.26-.42.25-.43c.22-.34,4.63,2.71,6.2,3.94a4.92,4.92,0,0,0,5.93-.38l1.32,0c3.72.05,4.09-1.1,4-3.15-.09-1.89,2.4-2,3.6-1.1,3.32,2.43,5.89.69,6.73-.93l1-2c2.25-.27,9.48-1.13,11.16-2a18.11,18.11,0,0,0,4.45-3.26l1.78,1.16,2,1.28a46.34,46.34,0,0,1,9-5.3l3.62.23c2.55.16,3-.77,2.94-2.24v-.65a23.9,23.9,0,0,1,6.37-2.79l3.52.9,2.2.56c3.74-1.69,13.79-4,15.33-5.27a66,66,0,0,1,8.85-5.44l4.25-.23,2.26-.13a45.65,45.65,0,0,0-4.38-4.88c-.3-.2,1.56-.38,4.12-.4l-.7-2.47-.9-3.2c2.52,1.1,8.38-3.23,11.6-3.38s7.15-.4,7.89-.25,1,2.39.89,3.09-2.47,1.11-3.05,1.17a2.15,2.15,0,0,0-1.49,1.44l-3.39.6-3.09.53c-2.77.58-5.34,3.14-5.42,3.72s6.26,1.53,8.58.9a126,126,0,0,0,13.27-5.19l5.54-1,4.52-.79c4.66-1.71,10.91-4.08,11.76-4.56a19.62,19.62,0,0,0,4-4l-2.67-1.5c-1-.59-2.29-1.15-.45-2.13a80.24,80.24,0,0,1,9.45-2.88,6.12,6.12,0,0,0,2.44-1.72c1.79-1.58,2.83-1.59,4.43-.05l1.71,1.66c2,1.79,3.92,1.36,4.37-.95h-.3l-4.52,0c-.56-2.37,2.14-5.31,3.32-5.68s6.45-.83,6.89.24,2.81.58,3.62,0,4.73,1.11,8.72,3.69l4.19-2.36,2-1.13c-.09-3.11,4.83-6.31,6.25-7.25a20.41,20.41,0,0,0,4.07-3.68l-2.25-.69-.91-.28c-1.19-.18-.4-1.52.2-1.93s3.26.64,4.07,1.15,4.13-2.44,5.13-4.17a3.29,3.29,0,0,0,.34-1c-1-.74-1.87-2-2.7,0-.7,1.73-2,1.88-3.72,1.64a6.49,6.49,0,0,1-2.94-1.36c-.18-.13.71-1.21,1.43-1.54,1.39-.63,3-1,4.51-1.54l1.52-.52,2.1.73a15.15,15.15,0,0,0-.55-4.51c-.41-.59.11-1.19,1.15-1.34l.32.15,2.42,1.2c2.61,1.38,2.72,3.92.28,5.68a12.2,12.2,0,0,0,3.68.71c1.62-.22,8.18,0,9.56-.57s-.2-6-1.41-7.71-.12-3.72,2.4-4.54l1.11,3.08.33.92c.16,1,1.47,1.43,2.92.87l.4.22,2.22,1.27c2.53,1.86,6.41,1.54,7.06.89a3,3,0,0,1,2.15-.8c.27.1-.66,2.73-1.1,3.7s4.65-.08,6.46-.69,2.24-4,3.58-4.22,2.43,3.21,2.43,4.55,7-.46,9.84-1.69,1.53-3.11-2.84-4.18l-3.13-.66-2.63-.55c.66-1.2-.84-2.71-3.33-3.34l.08-.25,1-2.65c-2.88-.73-8.25-3.51-8-4.88s2.34-1.22,4.72.34l1.54,1.18a6.49,6.49,0,0,0,6.65.68c1.33-.55,2.08-1.24,3.15,0l.68.79c.64.91.1,2.11-1.19,2.67l-1.13-.05-1.73-.08c-2.43-.62-2.66,1.32-2.13,2.07s6.8,3,9.23,2.81,5.49-2.71,6.77-5.56l3.67,1,2,.58c2.53,1.27-1.16,5.61-2.78,7.09s0,1.22,3.54-.56l.59.34,3.45,2c1.75-1.63,8.4-3.55,10-4.18s3.29-1.32,3.67-1.5l0-.2c1-4.43,9.21-2.82,11.52-6.21a8.71,8.71,0,0,1,2.23.47c1.83.71,3.54.93,3.85-.84.09-.5-1.39-1.38-2.41-1.66-3.76-1-7.45-1.27-10.87.77l-.85.5c-1.74.21.54-3.92,3-4.29s3.09-2.06,2.6-2.56,10.5-.44,14.2-1.84,2.47,3,1.56,4.6,1,.54,1.84-.3a4.58,4.58,0,0,1,3.42-1.19l.48.28,2.86,1.69c3.35-.7,7.3-5.14,9.31-5.71s.56-1.06-3.22-1.09l-.9-2.95a1.78,1.78,0,0,1,.32-1.56c1.53-1.93,6.1,1.09,6.85-1.77.68-2.58,2.88-2.63,6-2.68l2.24,0c2.86-.93,5.46.71,5.55,1.62s-4.46,1.16-6,1a15.18,15.18,0,0,0-6.42,1.43l-.68,1.38-.55,1.11c.24,1.39,2,1.25,2.54.8s2.29.36,3.92,1.8l.9-.17,4.23-.77c4.28-1.44,12.44-5.22,14.39-5.55a17.44,17.44,0,0,1,7.53.93l2.57-.41c4-.64,0-3.36,2.56-4.23.88-.3,2.19,0,3.1-.32l7.3-2.36c8.28-3.43,16.9-3.84,17.41-3.16s1.94-3.88,4.31-4.43,9.34-3.2,9.94-1.69,2.09-.38,3.62-.9a65.65,65.65,0,0,1,8.35-1.82l2-1.12c2.74-1.57,6.85-1.51,8-.76,3.35,2.1,4.77.1,5.48-1s.54-2,3-2.32A13.9,13.9,0,0,0,1355,357c2.68-2,4,1.29,6.21.43,6.53-2.52,13.42-4.67,19.49-7.61,1.66-.8,1.38-3,4.27-.92a11.86,11.86,0,0,0,2.94-1.28c3.55-2,6.41-5,11.81-4.58,3.29.25,4.13-1.73,6.23-2.49l2.07-.76c2.55-.44,7.36-1.07,8.37-1.23s6.3-2.87,8.45-3.46,8.65-2,14.45-3.06l5.23-1.06c3.44-.7,7-1.4,8.31-4.28.26-.57,3-.62,3.24-1.18.71-1.57-.78-2.1-3-2.07-.39,0-1.23-1.2-1.09-1.75s1.34-1,2.15-1.11l2.06-.15c2.23.06,4.61-2.51,4.81-3.44s1.81-.49,3.58,1l.33,1.07.24.81c-1.08,1.2-.08,2.18,2.22,2.19h1.81c6.63-.06,9.15-1.19,11-5.06.37-.77-4.13-1.87.69-2.61,2-.31,3.25-3.89,4.93-3.92l3.5-.07c1.58-2.25,2.44-2.22,1.91.06l-1,1.12-1.09,1.24c-1.85,1.11-3.63,3-3.94,4.21l.54.22c1.7.66,3.42.55,3.57-1.3.14-1.59,1-1.29,2.5-.5l.88.47c1.76.17,1.66-2.59-.23-6.15l5.1-.93,6.44-1.18c.15,1.26-.09,2.5-1.2,2.91-2.57.95,0,3.91,1.76,3.5s10-4.08,11.81-4.22.2-2.3-1.43-2.57a19.26,19.26,0,0,1-4.52-1.14c-.7-.43.71-2.14,3.14-3.8l2.12-1.21,2.61-1.5c2.65-1.34,7.77-.91,8.87-.35s-1,.91-4.68.75l-1.34,2.63-.17.35c-.13.22,3.5,2.11,4.84,2.73s2.54-.28,2.66-2l3.56.27c1.44.11,3.06-1.31,4.58-1.29l1.64,0c2.13.89,2.44-.95,2-1.72s1.34-1.4,4-1.38l1.77,0c4.23-.08,8.86.81,11.86-2.31a6.1,6.1,0,0,1,2.25.29,14.27,14.27,0,0,1,3.69,1.09l.8.48c.36.92,1,0,1.52-2.12l.4-1.68.35-1.45c1.37-2.05-7.35-2.86-10.9-2.55s-4.23-1.46-1.52-3.93l4.41.22c3.1.15,4.25-1.29,5.43-2.88.5-.67,2.21-1.65,2.57-1.51l1.43.54c1.31.95-.68,4.63,1.12,5.06s2.65,1.82,2.42,2.21.7.54,2.09.34l1.23.07c1.75.1,3.53.72,5.19.58,2-.17,3.77-1.19,5.72-1.32l1.29-.09c1.54.69,3.77-4.12,1.57-5.29s-5-1-6.21.46l-.89,1.25-.52.73a2.79,2.79,0,0,1-3.23.21l-.6-.68-1.53-1.73c0-2,2.64-3.07,3.49-2.91s5.47-4.1,8.4-4.32.73-2.78.31-3.81-3.21.54-6.19,3.5l-8.72.65-.85.06c-.83.54-2.57,1.79-3.85,2.78l-2.14-1.8a4,4,0,0,0-2.34-1,3,3,0,0,0-2,1.23c-.68,1-.56,2.63-1.61,3.08a69.67,69.67,0,0,1-12.71,4.33l-2.2.46a42.78,42.78,0,0,0-11,.95l-1,3-.29.86c1.65,1.53,5.56,1,8.7-1.12l2.69-1.79c.88-.58.79-.49,2.28,1.45.78,1,2.23,1.75,3.27,2.67l1.22,1.07c1.53,1.51-3.16,1.23-4.69.47s-6.49-.12-7.9.35-8.82,1.16-9.18-.08a21.8,21.8,0,0,1-.77-3.69l-.15-.72,0-.2c-.41-.2-3.31,1.27-4.58,2.08s-1.07-1.19-.83-1.72,2.22-3.26,3.48-3.72a47.49,47.49,0,0,1,5.17-1.46l.79.36,1.54.69c1.51,0,5.74-1.67,6.66-1.42-.32-.6-1-2.09-1.77-4.09l2.9,0a15.43,15.43,0,0,1,4.86.95l2.24.74c2.31-.53,3.71-1.26,3.11-1.62l-.3-.12-1-.44a1.39,1.39,0,0,1-.45-2.48h.81l2.61,0c3,.39,6.1-.43,6.92-1.82l1.28-1.33,1-1c1.6-.85,5.46.16,6.81,0s4.21.63,5.74.88-2-6.63-.77-7.59,3.84,2,5.32,3,5.88-.32,7.26-1.26,4.6,2.68,5.69,3.34,1.94-.36,1.9-2.25L1595,269c.09-1.76-1.16-4.07,3.55-4.12.3,0,.44-1.72.88-2.58.3-.59,1.15-1.58,1.46-1.53a16.81,16.81,0,0,1,3.6,1.15c1.72.68,1.28,1.27,0,2.11-1.09.71-1.74,2.51-2.54,2.5-3.52-.05-2.09,2.14-3.41,3-2.67,1.83,1.57,2,2,3.08s.7,2.25,1.11,3.37l.66,1.79c.73-1.17,1.66-2.73,2.59-4.31-.36,3.26-1.15,6.87-1.74,7.18-.89.46-4.93-.07-5.86-1,.07,1-.08,2.87-1.28,3.8-1.91,1.49-1.25,2.73,1.47,2.76l1.44-.67c2.82-1.31,4.81-4.11,8.71-1a5.15,5.15,0,0,0,2.64-.66c.18-2.38,2.32-3.25,5.3-3.82,1-.2,2.48-3.19,2.6-4.44,0-.5-.16-1.16.24-1.45a3.43,3.43,0,0,1,2,0l3.53,1.1c.32,2.7,5.63,1.48,7.34.32a51.2,51.2,0,0,1,5.92-3.44l1.77,1.06.45.27a15.54,15.54,0,0,0,5-2.15l1.54-1c1.29-.84,4.17-.5,5.63-1.29.6-.33-1.1-2.28-1-3.46l.08-.81c1.85-1.44,6.17,4,9.14,3.36s.18-5.07.61-6.17,8.55-3.71,11.11-4.28,5.56,4.08,3.37,5.27,1.38-.63,3.67-1.42,9.7-5.08,12.55-5.47,1.06-3.2.38-4.46,1.31-1.71,4.42-1l1.42,1.09c2.74,2.11,6.1,1.69,9,1.21a42,42,0,0,0,9-3.1A1.54,1.54,0,0,0,1716,248a3.83,3.83,0,0,0-2.7-.7l-1.76.33c-1.81.69.37-2.46.33-4s1.19-7.63,3.23-9.19,2.3,2.49,1.89,4.11.44,6.27,2.34,7.67,3.49,2.08,3.54,1.53l-.11-.49-.6-2.86c.91-4.17,6.15-5.18,5.78-4.22s-.93,4.63-.09,5.5,1.65-.11,1.79-2.18l3.21-.71c2.59-.58,5.24-1,7.85-1.53a4.86,4.86,0,0,0,1.76-.67c.84-.61-.91-3.73-1.16-3.52-1.58,1.29-2.55.93-4.06-.1l-1.16-.8c-2-.66-1.57-2.05,1-3.08l1.59-.32c1.13-.22,3.43-.13,3.58.18,1.82,3.71,7.28,2.47,10.81,3.78l.61.22c2.48-.66-.49-3.6-2-4.33s1.61-3.85,3-4.79a39.18,39.18,0,0,1,4.87-2.69l1.61.94a7,7,0,0,0,4.15.17l3.2-.91c-1.7-1.11-.56-2,.59-2a1.79,1.79,0,0,0,1.65-1.8c-.12-.49-.88-.55-1.67-.12l-.81.11-1.63.23a4.1,4.1,0,0,1-3.83-2.9c0-.83,3-1.51,4.14-1.51s1.6-1.09,1.07-2.42l2.65-.63,1.79-.42a1.49,1.49,0,0,0,0-2.86c-.87-.27,3-1.17,4.17-.58s3,3.58,2.75,4.72a11.38,11.38,0,0,0-.3,2.09l.3.1c3,1,6.27,3,9.1,2.75l3.59-.3c3.67.3,7.24,1.31,7.94,2.24l-.28.18-1.16.73c-1.66.6,4.08,2.76,6.94,2.53s3.86,1.53,3.48,2.07,11.66,2.51,14.52.28,1.64-8,.25-9c0,.6,0,1.42-.08,2.65,0,1.63-4.08,3.39-6.71,4.71-.89.45-3.68.69-4-1.33-.09-.56-1.13-1.53-1.57-1.49-6.44.6-5.48-4.38-9.32-5.71-.08,0,.46-1.54,1.13-1.76a4.89,4.89,0,0,1,2.79.45l.34,3.71c2.58-.47,5.93-1.14,9.34-1.86-2.37-.07-4.5-.19-5.14-.54-1.53-.83-1.15-2.71.85-4.18l1.46-1.31,2.42-2.17c2,1.39,6.44,1.31,9.77-.18l1.28-2.58a5.71,5.71,0,0,1,2.72-2.9c2-.75,4.32-1.42,6.16.81l1.37,1.65c2.5,1.44-.41,4.31-1.21,3.34s-4.82,1.12-6.06.69-3.27,2-5,5.53c3.74-.81,6.62-1.43,7.21-1.52a25.94,25.94,0,0,1,8,1.11l1.34-2,1.18-1.74a16.59,16.59,0,0,0,6.37-6.45l-4.87-1.7Zm-6.15-29,.88-.73a44.32,44.32,0,0,1,6.17-4.22c1.26-.72,3.13-1.63,4.44-1.46l1.42.19a3,3,0,0,1,.36,4.31c-1.13,1.13-5.86,2.79-6.5,2.15s-4.38.87-5.68,1.69S1835,176.37,1835.71,174.48Zm-10.62-33,2.87-.44.73-.11c1.12.82.36,3-1.67,4.83l-2.45,1-.82.33C1820.06,145.15,1820.67,142.62,1825.09,141.51ZM38.57,225.94c-1.54,0-4.54-3.26-5.37-4.81s1.25-2.23,4.64-1.49S40.1,225.94,38.57,225.94Zm210,212.28c-1.77,1-5.1,1.5-5.69,2.68l-1,2.05c-1.67-.56-3.38-.2-3.8.8l-.84.64-.46.37c-1.31-.08-2.33-.9-2.31-1.19a.64.64,0,0,1,.44-.52c.11,0,.2-.31.18-.7L235,442c-1.39-3.59-1.22-3.67,4-3.33,1.07.07,3.23-.63,3.22-.94-.09-2.49,2.47-2,4.45-1.92S249.92,437.44,248.6,438.22Zm25.71,3.37L273,442.74l-1.23,1.07c-1.29,1.68-4.33,2-6.75.68l-1.78-1.35c-.68-.51-.45-1.63-.41-2.47a3.48,3.48,0,0,1,1.79-.33,14.57,14.57,0,0,1,2,2l.19.2c.57.54,1.24-.06,1.5-1.33l.56-.81c1.11-1.59,2-4,3.87-4.44l4-.95C277.18,437.54,276.09,440.49,274.31,441.59Zm150.81.41a40.1,40.1,0,0,1-6.87,4.22l-2.63,1.14a20.4,20.4,0,0,0-.84,7.52c-.66-2.37-4.31-6.62-4.31-7.73s2.57-2.33,3.76-2.42,2.1-1.42,2-2.94l.23-1.4a2.25,2.25,0,0,1,1.55-1.5c.83-.11,2.65.43,2.65.68V442c1.8-.88,3.89-.94,4.65-.14ZM456,303l-1.61,1.26a12.75,12.75,0,0,1-6.06,2.53l-.92-.44-2-.95c.29-2.28,1.93-3.33,3.63-2.33s6.56-1.21,7.28-.31Zm20.17-2.79c-1.55.75-3.15,1.46-4.63,2.26l-1.07.58c-1.68.4-1.27-1.66-.61-2.54a2.41,2.41,0,0,0-.27-3c-.8-.79,3.56-4.24,5.82-4.63s4.57,2,5.13,5.26Zm23.43-10.9c-2.66,1.14-7.67-.44-11.15-3.52l-.33-3.88c-.08-.86-.68-1.38.44-2.13s1.6-1,3.22-.22l1.5.76c2.39.15,4.31.8,4.29,1s-1.27.29-2.79.21l-1.29.19c-.8.13-1.92.72-2,1.18a1.88,1.88,0,0,0,1.21,1.71c4.06,1,8.34,3.27,12-.62l.22-.24C507.58,284.38,502.2,288.16,499.55,289.3Zm80.28,144c7.5-.22,7.68-.1,8.06,6.4C583.52,437.62,577.64,437.88,579.83,433.28Zm.42-263.18,2.69-.36,2.17-.3c2.63,1.18,2.84,3.5.46,5.16l-2.7.46-2.09.35C577.83,174.24,577.59,171.85,580.25,170.1ZM575,207.28l3.08,1c1.16.39,1.83-2.86,3.41-.34.22.36-1.14,1.51-2.09,1.82-3.29,1.05-6.24,2.07-8,4.55l-.77,1.07a17.68,17.68,0,0,1-6.05.14.52.52,0,0,1-.06-.72l.14-.18,1.52-2A17.37,17.37,0,0,1,575,207.28Zm-16.6-26a11.07,11.07,0,0,0,5.2-2c.74-.49-1.57-1-.76-2.62,1.72-3.36,1.52-4,5.26-4.22l1.37-.09c2.63,0,2.44.85-.42,1.8l-.48.84c-.86,1.51.84,1.94,3,2,.95,0,.74.26-2.18,1.54-3.49,1.54-6.67,3.42-9.92,5.19l-1.13.62c-1.71,1.23-4.07,0-5.24-2.81ZM534.2,401.05a9.74,9.74,0,0,1-7.73-.83L530.3,398l2.42-1.38c2.86-2.06,5.77-3,6.47-2S536.37,400.2,534.2,401.05Zm3.61-202.17c.76-1.92,3.17-3.54,4.93-5.27.15-.15.6-.18.92-.24l2.83-.55c3.67,2.7,5,4.91,3.07,4.91s-7.31,1.35-6,3l.5,1.2c.22.53-.4,1.59-1.07,1.81a4,4,0,0,1-2.8-.46C539.09,201.89,537.32,200.14,537.81,198.88Zm12.83,45.5-.77-.18-9-2.17c2.63-6.06,5.79-8.6,7-5.64l.6,2.74c.33,1.48.7,2.19,3.09,2.24H552A2.35,2.35,0,0,1,550.64,244.38Zm1.68-18.24c1.6-1.16,5.55-.5,6.46.06s.69,1.67-.5,2.47S550.71,227.29,552.32,226.14Zm5.4,23.34,4.12-.83c1.88-.38,3.26-1.8,5-2.55l.74-.31c1.21.09,1.92.64,1.59,1.22l-.16.54-.94,3.13C563.63,252,559,251.4,557.72,249.48ZM565,262.61c-.16-1.8.47-3.28,1.41-3.28s3.78,4.28,3.78,5.94S565.21,264.41,565,262.61Zm14.19-32.51-.67.45c-1.28.26-4.29-4.13-5-5.85a3.23,3.23,0,0,0-4.07-1.41c-.84.53-1.12.1-.61-1s2.44-3.24,3.47-3.1l.29.23c2,1.59,5.49,2.56,4.69,5.35-.12.41.91,1.29,1.63,1.43C584.68,227.37,581.17,228.82,579.23,230.1ZM630,189.48l.5-1.57c-.21-2.64,2.74-1.86,3.56-1.09s2.62-.23,4-2.22l1.44-1.22.44-.37c1.28.19,3.26,1.46,5,3.1q-2.1.6-4.74,1.42l-.2,0a2.13,2.13,0,0,0-1.27.48q-4.14,1.29-9.26,3Zm5.8,4.12.63.24a1.53,1.53,0,0,1-1.21,1.86l-.68-.11-2-.31c-1.2-.24-.36-.95,2-1.94A5.61,5.61,0,0,1,635.77,193.6Zm-32.72,27.67c-2.09,2.45-3.73,2.93-3.63,1.08l-.24-1.12c-.17-.83-.84-2.29-1.37-2.31-2.33-.08-3.89-.95-2.75-2.11.75-.77,3.83-1.07,5.46-.71,1.85.4,3.05,2.21,4.89,2.59,2.16.44,3.51-.32,1.07-1.76-.18-.11.06-.88.34-1a4.37,4.37,0,0,1,2.06-.12,2.39,2.39,0,0,1,1.34,1l.87,1.43c.92,1.75.51,3.38-.89,3.61l-1-.08ZM621,235.69c-.88,1.26-8.74,3.51-10.91,3.13a11.69,11.69,0,0,1-4-1.24,30.27,30.27,0,0,1,5.62-.85l2.68-.59,2.32-.5C619.92,234.41,621.84,234.44,621,235.69Zm.46-36.18c-2.17.13-2.71,2.15-1.2,4.49l.93,2.16c.24.56-.9,1.55-1.74,2.1a4,4,0,0,1-2.46-.83l-1.08-1.4c-.91-1.76-9.84-5.15-12.23-3.57s-8.2,3.94-12.91,5.24l-4.34.54-.69.09c-1-.91-1.33-2.19-.66-2.85l.74-.09c2.7-.32,5.61.48,8.08-1.35l.53-.39c3.59,1.24,8.56-.79,11-4.49l3.83-2.65.64-.44c2.46.69,5.39.06,6.51-1.39l2.8.16,2,.11C623.76,194.9,623.59,199.38,621.42,199.51Zm7.86,224.19c-2,.71-4.34.36-5.24-.77s-2.55-4.76-.95-4.6l.34.29c2.56,2.24,5.29,2.84,8.67.76l.26-.15C633.25,419.51,631.27,423,629.28,423.7Zm13.51-213.07c-.48.7-3-.73-3.87-1.49s-1.81-.46-2.18.67l0,.68-.05,1.71c-1.64-.37-5.39,1.34-6.33,2.13s-1.21-1.39-.57-4.84l-4-2.42c-.2-.12.59-1.48,1.26-1.64a4,4,0,0,1,2.78.56l1.27,1.19c1.89,1.32,3.44-1.15,3.44-2.64s.89-2.44,2-2.12,5.85-3.1,6.87-4.77,8.19,3.37,8.16,4.29-.53,1.51-1.11,1.32l-.5-.17-.5-.17c-1-.32-1.81,3.25-1.81,4.7s-2,1.47-2.43,1.21S643.27,209.93,642.79,210.63Zm6.6,30c-2,.48-3.73,0-3.73-1.18s6.61-4.38,8.12-3S651.43,240.19,649.39,240.67Zm2.53-52.27-3.62,1.19c-1.51.85-2.13.66-2,0,2.9-.81,6.14-1.65,9.67-2.51Zm72.64,30.06c-1.65,1.1-2.62,0-2.18-2.49l-4.23,0h-.94c-1.15,1.35-4,1.53-4.84,1.12s2.94-2.75,8.39-5.19l1.79,1.83c1.08,1.12,2.14,2.54,2.07,3.8Zm60.25-60-.27-.16-3.27-1.95c-1.1,1.87-.49,3.66,1.37,4l1,.54a1.45,1.45,0,0,1,.34,1.9,3.92,3.92,0,0,1-2.75.61l-2.27-1c-2.9-.94-4.63-.92-3.86,0l.34.94.89,2.47c-2.93.75-6,1.55-6.74,1.78l-.08-.09c-3.14-3.19-5.52,1.29-8.33.35a1.72,1.72,0,0,1-1.07-1.16c-.19-1.86-.86-2.06-2.94-.73l-.58.37c-1.69-.36-2.78-1.5-2.42-2.53l.83-.64,2.72-2.11c3,1.24,8.74.71,8.81-.28s1.8-1.51,2.44-1.15a1.44,1.44,0,0,0,1.78-.13l.33-.4c1.28-1.56,2.15-3.41,4-4.6l2.3-1.52a29.2,29.2,0,0,1,8,3.76C786,157.38,785.74,158.14,784.81,158.45Zm23.8-12.25c0-1.15-.22-2.77.75-3.34a18.87,18.87,0,0,1,6.31-1.8c1.14-.18,3.33.16,3.66.68.78,1.2-.08,1.88-2.35,2.37l-2.41.52c-2.15,1.41-4.84,2.23-6,1.82Zm-13.2,4.54c-.83-.63-1.53-3.26.76-4.1l1.67-.64,3.53-1.36c2.82,1.81.53,5.18-1.24,5.91S796.24,151.36,795.41,150.74Zm13.09,33.43c-2.49,0-8.63-1.75-8.72-2.55s6.92-1.17,9.17.15S811,184.17,808.5,184.17Zm14.62-34.51a21.36,21.36,0,0,1-4.5,3.16l-3.88,2.46c-3.86-2.27-2.42-4.12,3.19-4.11l2.82-2.85c.31-.31-.38-1-.33-1.53a2.39,2.39,0,0,1,.71-1.25c1,.14,2.66.41,2.68.69A4.58,4.58,0,0,1,823.12,149.66Zm17.46-13.35-2.34,1.79c-4.08.59-7.42.49-7.42-.23s.63-2.53,1.4-2.41l.39.21c1.95,1,3.89,1.74,4.5-.68.48-1.88,2.14-1.81,3.72-1.09C841.35,134.15,841.24,135.8,840.58,136.31Zm16.69,3.1-4.4.16c.67-2.45-.25-3.55-2.06-2.43l-1.87.78a3.87,3.87,0,0,1-2.71-.64c-.4-.43,0-1.78.44-1.9l3.8-1c4.61-.28,8.6.08,8.87.8l-.2.65C858.75,137.11,860.71,139.28,857.27,139.41Zm24.35-5.09c-4.39-2.55-6,1.29-9.14,1.58-2.89.26-2.25,2.71-2.39,4.39v.19a2.46,2.46,0,0,1-2.3-.19c-.65-.44-1.15-3.6.35-6l2.24-1.18c2.23-1.18,5.71-1.34,8.7-1.76.84-.12,1.87.45,2.83.67,1.36.31,2.09-2.76,3.63-.45C886.42,132.88,883,135.15,881.62,134.32ZM915.44,122l-2.56,1.19c-1.76.82-6.35.23-7.32-1.14-.32-.45.26-1.67.87-1.85,2.19-.65,6.2.76,5.92-2.59a4.12,4.12,0,0,1,1.47-.13l2.25.47C919,118.69,918.76,120.51,915.44,122Zm47.41,339.15-.3.14a1.92,1.92,0,0,1-.73-2.87l.86-.11,2.68-.35c2.81-.7,6-.06,7.06,1.4s1,5.54-3.3,4.9L968,462.38C966.63,460,965.51,460,962.85,461.18Zm10.21,9.14-2.14-.12c-2.62-.14-3.94.32-4.15,2.33l0,.35c-3.48.3,5.06-6,7.81-4.82S976.63,470.27,973.06,470.32Zm115.39-48.78-1.48,1.19c-1.44,1.4-6.34,3.71-7.85,3.27s-3.66-2.89-4.11-3.95.65-1.62,2.44-1.27,5.92.5,6.1-.29l.8-.61,1.33-1c2.08-.46,4,.24,4.15,1.56Zm85-27.25c-1.27-.33-1.75.4-1.07,1.62l-.36.19c-2.45,1.31-4.84,2.86-7.66,3.57-1.24.31-3.65-1-5.1-1.92-.45-.28.53-1.61.85-2.46,0-.05,3.18-2.07,3.23-2.08,1-.24,2.18-.8,3.08-.66l2.06.33a9.63,9.63,0,0,0,7.23-1.4c2-1.39,6.74,1.67,5,2.46S1174.68,394.62,1173.4,394.29Zm10.07,9.83c-1.54,1.07-5.92-.87-7.3-2.11s-.21-2.17,2.59-2,9.1-1.17,9.49-.63S1185,403.06,1183.47,404.12Zm18.59-17.64c-1,0-1.44-.17,0,0Zm3.63-1a6.3,6.3,0,0,1-3.42,1l.66-3,.62-2.82C1207.07,381.52,1208,383.7,1205.69,385.45Zm32.57-10.36c-1.11-.06-1.13.83-.67,1.3s-.14.88-1.34.88-4.33-1.75-4.33-2.47,4.65-2,6.66-2.35,3.64,1.05,3.64,1.7S1239.38,375.16,1238.26,375.09Zm19.59-7.69-2.83,1.8c-3.42,2-6.9,3.52-7.75,3.33l-.22-.48c-.25-.54.4-1.85.79-1.87,3.87-.26,5.36-1.91,6.2-4.21a4.38,4.38,0,0,1,2.79-.37C1257.5,365.85,1258.15,367.21,1257.85,367.4Zm10.46,10.73c-.57-.16-3.83,3.62-6,3s1.63-4.16,4.06-5.45,4.41-1.42,4.41-.3S1268.87,378.29,1268.31,378.13Zm-1.87-14.31-.36.22-1.23.76a4.67,4.67,0,0,0-.72,3.74l-1.8-.13a3,3,0,0,1-2.11-1.12l-.64-1.8c1.81-1.36,5.34-3.71,7.85-5.22l3.09,2.16,1.34.94c2.25.62,3.22,1.63,2.15,2.24S1267.73,364.29,1266.44,363.82ZM1282,370c-3.56.61-2,1.81-.84,3.15.57.65.74,2.18.22,2.42l-1.57.72a38.59,38.59,0,0,1-3.14-2.91L1276,373c-.48-.26-1.83-.15-1.89-.34-.36-1.14-1.24-2.71-.49-3.41l1.45-1.36c2.31-1,4.64-1.67,5.17-1.47a21,21,0,0,0,6-.16l.31,1.9C1286.93,370.68,1283.88,369.67,1282,370Zm12.33-.62c-1.77.91-1.23,0-.48-.62s-1.53-3.43-.06-3.91a5.86,5.86,0,0,1,4.45.36C1299.26,365.86,1296.15,368.44,1294.37,369.36Zm113-96.72c-2.28,0-1.76,1.86,1.16,4.08l-6.78.87-1.47.19c-1.83,1.62-3.69.94-4.13-1.52l1.06-1.43.84-1.13c2.88-.57,5.4-2.9,5.6-5.18l4.84,1,1.86.37c1-.94,3.76-4,5.17-3.62S1409.69,272.61,1407.41,272.64ZM1475,256c-.89,1.43-2.48,2-4.72.34-.64-.48-4.25.18-5.62,1-2,1.2-3.11,3.07-4.81,4.54-.74.64-2.53,1.59-3,1.41l-7.19-2.94c-6.18,2.76-11.22,5.85-11.22,6.87s-1,4-2.16,3l.1-.32c.74-2.53-6.5-1.06-4.31-3.79,1-1.25,4.36-1.57,5.62-2.81.83-.82-1.77-2.76,1.22-3.58l3.42-.93c3.44,1,6.59,1.46,7,1l.19-.43c.65-1.52-1.66-3.82,1.54-4.54l3-.67c3.63-.1,11,.9,12.48,0s.36-3.33-.89-4.19,2.06-.87,7.36,0l2.15,2.17C1476.09,253,1475.77,254.86,1475,256Zm17.44-4.32a28.63,28.63,0,0,1-4.57,3.18l-4,2.4c-2.82-2.38-6.79-7.46-7.12-8.69s.89-3.24,1.46-3.62,1,.44,1,1.84,5.7,0,7,1l-.31.63c-.46.93-1.84,1.59.68,1.71.88,0,1.78-.67,2.74-.82l1.2-.18c1.39,0,2.5.85,2.46,1.88Zm9.87,52.62c.46,0,1.2,1.33,1.51,2.78C1501.47,305.52,1501.53,304.31,1502.35,304.31Zm5.8-71.9-2.44-.15c-2.7-.08-4.6-1-4.22-2.13s5,.29,6.74.42l1.42-.86a20.65,20.65,0,0,1,4.33-1.83,3,3,0,0,1,1.61,1.4C1515.75,230,1509.31,232.49,1508.15,232.41Zm14.73,11.12c-1.54-.23-4.92-1.85-7.53-3.6l-.74-1.89-.64-1.62c1.43-2.43,3.39-3.73,4.35-2.89s10.2,6.88,10.21,8.17S1524.41,243.75,1522.88,243.53Zm18.66-26.09c3.33-.06,6.58.48,7.23,1.19l-.17.54a2.83,2.83,0,0,1-2.15,1.07c-3.1-.17-4.85.33-4.4,2.77a1.84,1.84,0,0,1-1.18,1.6h-.07C1540.09,220.92,1539.81,217.46,1541.54,217.44Zm-3.67,7.24s0,0,0,0c-.11.4,1.7,1,2.53,1.58l.65.45c.6.57.31,1.43-.63,1.91l-.94.11a3.23,3.23,0,0,1-2.23-.64l-1.31-1.84C1535.14,224.92,1536,224.38,1537.87,224.68Zm6.89,9c-.62,1.11-5.21,1.38-6.3,2.58s-3.48.42-5.3-1.73l5-.85,4.48-.77c-.12-1.17-1-4.22-1.61-7.31.13.05.24.08.37.14,4.16,1.76,9.27,6.59,8.94,7.09S1545.38,232.59,1544.76,233.71Zm34.21-8.19-1.33.78c-2.33,1.35-5.8,2.49-6.62,4.2l-1.6,3.34c-3-1-3.77-3.92-1.73-6.59S1581,224.46,1579,225.52Zm-3.49-12-2.5,1.72c-1.82,2.85-3.17,4-3,2.57s-5.3-3.22-5.5-4.32l.65-.45c1.11-.77,3.63-1.81,4.25-1.5l3,1.5a36.77,36.77,0,0,1,1-4.16c.24-.4,2.89.52,5.89,2Zm129.5-42.3,1.39-.17,3.79-.46c4.86.17,7.79,1,6.51,1.85l-.22.56-.63,1.64a9.15,9.15,0,0,1-4.93,3.66l-.68-.37c-1.34-.73-.2-3-3.78-2.62l-1,.13C1704,174.87,1703.86,173,1705,171.24Zm-24.39-17.65c1.41.51,2.2,4.95.16,5.07s-4.13,2.93-4.3,4-.83,1.91-1.49,1.94l-.31-.19a29.07,29.07,0,0,1-3.82-2.6c-1.7-1.46-1.54-2.33,1.6-2.91,4.16-.77-.8-1.66-.25-2.13l1.77-1.47C1676.2,153.84,1679.18,153.08,1680.59,153.59ZM1680,195c-1.29-1.3-.89-2.65.9-3l1.19-.08,1.42-.1c1.94,0,3.52,1,3.52,2.14S1681.27,196.28,1680,195Zm-1.61,39.55c-2.75.9-2.81-2.21-2.31-3.08s2.45-1.37,4.35-1.11S1681.11,233.63,1678.37,234.52Zm5-44.67,0-.15c-.19-1.24-.16-2.49-2.86-2.33-2.37.15-2.9-.73-4.31-2.06l-2.51-2.4c2.17-.82,4.63-.71,5.47.25s5.7,4,5.7,5S1684.14,190,1683.33,189.85Zm-27.68-43.42,2.37-.92.52-.2c.87.14,1.4.73,1.19,1.31l0,.51,0,.46c.36.48,2.37.25,3,0a11.07,11.07,0,0,0,3.1-3.17l1.46-.33c3.33-.75,1.65,2.52,3.44,2.68l7.88.73c-3.58,2-11.52,3.34-17.63,3l-4.79,1.9-3.72,1.48C1647.78,155.26,1649.16,151.92,1655.65,146.43Zm12,54.79c-.4,1.22-3.37.12-4.51-.78a1.89,1.89,0,0,1,.15-3.2C1664.52,196.39,1668.06,200,1667.66,201.22Zm-8.75-36.45-2,.21-1.43.15c-2.45.89-2.45-.83,0-3.83l2.07-2c.27-.27,3.16.09,3.4.53l.81,1.44A2.77,2.77,0,0,1,1658.91,164.77Zm-2.55,79.35c-2.84,0-7.87-2-5.62-4.36l4.19,0,3.86,0C1660.29,242.13,1659.2,244.12,1656.36,244.12Zm-15.57-108.73c2.44.14,3.34,1.08,2,2.1s-6.67,1.48-7.48.78S1638.34,135.26,1640.79,135.39Zm-11.48,62.76c1.17.28-.93,1.09-2,1.28a16.36,16.36,0,0,1-1.81.3l-1-.35-1-.37c-1.43-.25,3.48-4.12,5.56-5.37s3.67-2.45,3.53-2.65l.19.38.68,1.39c1.24.21,1.7.61,1.39,1.05l.27-.1-.39.23a2.45,2.45,0,0,1-.67.4C1631.23,196.07,1628.67,198,1629.31,198.15Zm11.89-26.8c-1,1-2.6,1.75-3.44,2.79-.53.66-.69,2-.08,2.45,2.65,2,0,1.82-1.57,1.75-1.1-.05-2.64-1.13-3.13-.9-1.72.8-3.44,2-4.75.15a.56.56,0,0,1-.06-.23c-2.54,1-5.06,1-6.25-.37l1.08.27a11.49,11.49,0,0,0,5.49-.87,4,4,0,0,1,2-1.7,9.73,9.73,0,0,0,4.2-2.19c-.66.66-1.45,1.43-2.38,2.29a49.8,49.8,0,0,0,8.31-5.11l.34.32C1641.27,170.34,1641.49,171.07,1641.2,171.35Zm-6.19.77a5.1,5.1,0,0,0,.75-1.12l.38-.78C1637,169.85,1636.42,170.64,1635,172.12Zm-12.66-.91c1.91-.65,3.69-.58,3.68-2.65,0-1.18,1.57-2.95,3.07-3.36s3.58.76,5.43,1.22l.63.16c.78.19-.47,1.15-2.79,2.14s-6.78,6-8,6.72l-1.54-1.27C1621.56,173.13,1620.31,171.9,1622.35,171.21Zm-.66,5.72-3.85,2.91a4.73,4.73,0,0,1-2.69-.57l-.49-2.2C1614.16,174.7,1618.43,176.07,1621.69,176.93Zm-8.31,21.44c2.37-1.41,3.83-.68,3.25,1.62l-1.27,1.07c-1.64,1.38-2.64,2.08-.72,3.88,1.23,1.16-.74,2-3,1.92l-2.23-.06C1609.35,206,1611,199.78,1613.38,198.37ZM1597.47,72l2.19-.53c2-2,4.16-2.72,4.52-2.18s-1.23,3.57-2.15,4.84-2.32,2.1-3.1,1.84-4.6-.89-6.11-2.84Zm1.84,149.74a3.83,3.83,0,0,1-2.64,1.46l-6-.72c-2,.82,1.36-.74,4.49-2.33a11.41,11.41,0,0,0,2.1.1C1599.12,220.15,1600.05,220.57,1599.31,221.75Zm5.37,48.19.1-1.52a7.51,7.51,0,0,1,.24,3.4A4.83,4.83,0,0,1,1604.68,269.94Zm1.28,7.74,0-2.71a6.72,6.72,0,0,0-.57-2.26c1.87-3.16,3.67-6.13,4-5.9.45.37.1,2.7-.78,5.19l2.78,2.22,1.22,1C1612.59,277.27,1609.63,278.39,1606,277.68Zm2.11-15.43.25-.28c.88-1,2.3-2.68,3.31-2.62,5.34.34,9.43-1.3,13.64-3.07.51-.21,2.57.39,2.62.71l.12.7a3.67,3.67,0,0,1-1.06.66l-.47.07C1619.73,259.29,1608.84,263,1608.07,262.25Zm24.4-4.95c1.53-.09,1.41,0-.11.28C1632.39,257.48,1632.44,257.39,1632.47,257.3Zm1.45,6-2.62.33a14.25,14.25,0,0,1-5.44-1.13,34.32,34.32,0,0,1,4.74-2.58l1.17-1.33a2.42,2.42,0,0,0,.33-.48l3.7,2.79C1636.14,261.17,1634.78,263.2,1633.92,263.31Zm-2.41-5.59,0,0v0Zm4.92-3.6-3.85,2.63c.23-1.41,0-3,.27-4.45l.06-.27a4.43,4.43,0,0,1,4,1.78Zm1.49-42.85a4,4,0,0,1-2,0,11,11,0,0,1-1.26-2.58l-.18-.45c-.15-.65-3.91-1.18-5.45-1.18s-1.88,2-.75,4.45l-5.85.09c-1.64,0-2.77,3.31-4.91,4l-2,.64c-.41,1-2,1.43-3.53,1l-1.31.11a6.24,6.24,0,0,0-3.44,1.38l-2.09,2.1c-1.76-.17-5.19-.62-9.15-1.19,1.82-1,3.35-1.83,3.35-2.12,0-.83,7.06-2.66,9.84-3.11s4.42-1.54,3.65-2.42l-.17-1-.14-.86c.6-1,3.33-1.25,4.17-1s3.15-1.42,5.13-3.63l3.89-1,4.23-1c4.91,2.4,8.7,5.38,8.43,6.63Zm6.48-16.43.25,0c.22-.17-1.17-1.79-2.81-2.68,3.56-.24,6.52.44,6.42,1.93-.16,2.33-1.35,3.55-2.66,2.72l-.81-.28c-1.19-.41-2.19,2.53-3.43.27C1640.55,195.33,1642.17,194.68,1644.4,194.84Zm-3,11.26c.22-.79.9-2.13,1.51-2.15,2.46-.09,2.81-.89,2.84-2.32l0-.76c.81-.84,3.24-.94,5.41-.24l.92,1.07c1,1.14-.14,2.07-2.6,2.21L1647,204c-1.69,1.63-4.23,2.64-5.64,2.25ZM1651,255c-2.2-.05-4.55,4-5.69,4.39l-.7-.23c-.67-.22-1.39-1.43-1.08-1.78,1.3-1.45,3.23-2.76-1.42-2.85-.32,0-.77-1.24-.79-1.9,0-.28,1.13-.89,1.46-.81l4,1C1651.31,254,1653.22,255,1651,255Zm34.52-12.35c-3.74-.16-1.25,4.23-5.64,3.15-3-.74-5.27,1.21-7.83,1.35-3.3.18-5.84.9-6.43,2.92-.5,1.77-2.18,1.39-3.62,1.87-4.8,1.61-6.91,1-7.52-2.48l-.2-1.14c.09-1.9,4.65-1.39,5.86-.83s2.54.81,3,.57l.11-.39c.26-.94-.14-2.58.46-2.75a35.24,35.24,0,0,1,8.18-1.46c2.67-.11,5.7,1,8,.51l1.64-.38c1.24-2.29,3.71-2.69,5.49-.88Zm-2-61.72c-.46-.47-.16-1.89-.13-1.89,6.4-.21,7.52-4.88,12.1-6.56l.52-.19c1.52.2-.92,2.25-5.43,4.57l1.12,3.9a5.27,5.27,0,0,1-1.41.29C1688.12,178.51,1685.62,183,1683.59,180.89Zm27.51,42-1.2-.16c-1.3-.17-2.49-.74-3.79-.92-3.06-.4-5.46-.07-6,2.55l-.16.83c-1.26,1.06-2.8-.6-3.41-3.68l3.76-1.21c3.74-1.19,7.62-2.78,11.56-.54l1.07.6A1.94,1.94,0,0,1,1711.1,222.9Zm17.33,7.12a11.26,11.26,0,0,1-4.08,2.26l-.72-.29-2.54-1.05c-2.51-1.43-2.85-3.28-.75-4.13S1729.18,229.23,1728.43,230Zm3.47-49.23-1.28.4c-1.2.38-2.88,0-4.22.25-1.6.31-3.62,1.64-4.48,1.32l-3.14-1.16c.33-2.63-4.09,4.13-5.55,5.75s-4.12,4.49-5.53,4.5a17.81,17.81,0,0,0-6,1.69l-1.41-.32c-1.46-.34-2.09-2.1-3.55-2.78s-3.9-.78-5.57-1.48l-.92-.38c-.43-1,6.23-3.67,7.75-2.27s2.34,1.18,1.81-.5l2.68.17,6.82.43c1.54-3.87,6.3-5.92,7.29-5.6s5.46-3.33,6.68-3,.7-2.25.23-3.13,1.77-2,5-2.58l2.06,1.86c1.57,1.42,2.06,2.6-1.36,3-.34,0-.92,0-1,.11-.4.63-1.2,1.45-.9,1.92,1.09,1.71,1.84,0,2.81-.22l.9-.22C1733.19,178.4,1733.6,179.43,1731.9,180.79Zm8.29,37.91a6.43,6.43,0,0,1,1.75-2.66l.69-.19.63-.17c.62,0,1.31.75,1.77,1.7a4.3,4.3,0,0,0-.75,2.61C1744.36,222.28,1739.84,219.71,1740.19,218.7Zm12.09,4.21,1.35.57C1753.53,224.05,1753,223.72,1752.28,222.91Zm7.94-6.07-.59,2.06c-3,.83-5.93-1.28-6.09-2.38s-1.53-1.53-3-1l-1.4.21-1.38.21h0c-1.13-2-1.93-3.8-1.77-4.16.47-1.06,4-1.07,7.85,0l2.81,1.08C1758.7,213.67,1760.81,214.76,1760.22,216.84Zm0-46.18c-2.8,1.19-2.48,3.7-1.74,4.14s-1.15,1.76-4.21,2.94l-2.4,1.21c-4,2-6.48.73-9.16-1.17a3.21,3.21,0,0,0-2.22-.1c-1.65,1-3.35,1.2-4.33-.17-.38-.54.64-1.84,1.54-2.43,2.28-1.5,5.06-2.65,7.23-4.21a23.93,23.93,0,0,0,4.23-4.38c.22-.26-.22-1-.65-1.25-1-.73-3.5,2.93-3.53-.45,0-.93,2.29-1.78,3-2.83.84-1.25.6-2.93,1.76-3.94s3.33-1.63,5.24-2c2.22-.45,2.35.77,3.25,1.94l2.43,3.17c1.43,2.83,6.51,3.59,8.08,3s-.93-3.74-2.23-4.62.61-3.29,4.23-5.35l4.35.71,5-.37,1.23-3.31c4.17.18,9.38-2.67,11.09-2.67s2.74-1.74,2.3-3.87l3-1.43,1.75-.83a30.81,30.81,0,0,1,5.57,3.28l2.43-1.49,1.22-.75c1.78-.8,4.77,1.88,5.32,3.08s-8.45.81-12,1.24-6.06,2-5.56,3.56l.73.07,6.41.63c1.53,1,1.63,2.66,1.15,3s-3-.23-5.6-1.24l-2.55-.71-2.46-.67c-2.85-.47-5.16-.43-5.12.1l-.08.47c-.39,2,0,5.42-1.38,5.79-4,1.09-2.67-3.08-5.61-3.75l-.61-.13c-.66-.19-1.2,2.13-1.2,3s2.9,2.3,6.45,3.09l1.53,1.49,1.6,1.55c-1.29,2.46-2.71,5.88-2.25,6.89s-1.75.52-4.92-1.09l-2.9-.18-3.92-.24C1772.75,167.7,1763,169.48,1760.2,170.66Zm24.35,35.68c-.7.34,0,1.87-.31,2.82-.07.28-1.18.69-1.67.61-.9-.13-2.35-.53-2.41-.91l-.27-1.61c.09-2-3.81-1.69-5-1.1a4.65,4.65,0,0,1-2.88.48c-.2-.16.22-1.19,1-2.27l.44-1c1.51-3.48,1.61-3.71,5.08-2.67,2,.59,5.47-1.17,6,1.67C1784.66,203.63,1787.71,204.82,1784.55,206.34Zm12,8.11-3.53-2.56c-1.68-1.21-3-.46-4.54.38l-.84.46c-2.4.19-.3-2.48.71-3.18s6.73-.15,8.48.26S1798.41,212.31,1796.5,214.45Zm9.76-8.34-1.38,1c-2.28,1.08-5-.47-6.12-3.45l-.45-2.43-.14-.77c1.08-1,2.06.78,2.16,4l5.51-.2C1806,204.23,1806.68,205.82,1806.26,206.11Zm-1.59-13.2c-2.63.14-8.17,5.57-12.08,7.11l-3.83.66-1.75.3c-2.41-1.2-3.78-5.27-3.3-6.4s2.28-2.31,4-2.63l.45.35,1.66,1.32c2,2.38,4.49,2.2,5.54-.4l1.36-1.33c1.23-1.2,3.71-1.78,5.29-2.86,2.67-1.82,2.53-1.89,4.47.48l.81,1C1808.49,191.69,1807.3,192.78,1804.67,192.91Z"/><path d="M1628,195.68l-.84.3c-.6.55,1.44,0,4.84-1.15l-.14,0A29,29,0,0,0,1628,195.68Z"/><path d="M1823.7,218.75l.11.08c0-1.36,0-1.39,0-1.39.17-.37.34-.73.52-1.08-2.62.56-5.64,1.22-8.63,1.84C1819.06,218.31,1822.86,218.32,1823.7,218.75Z"/><path d="M1633.64,194.51l.39-.17.67-.4.12-.13-2.8,1Z"/><path d="M139.54,138.72a2.8,2.8,0,0,1-.25-.35c-.49.38-.68.73-.65,1.07l1.92.58A14.87,14.87,0,0,0,139.54,138.72Z"/><path d="M1632.26,174.79a37.79,37.79,0,0,1-3.77,1.6,1.65,1.65,0,0,0-.32,1,13.5,13.5,0,0,0,4-2.49Z"/><path d="M1104.38,419.1c.5.38,1,.63,1.55.25l2.21-1.56.06-.05c-1.22-.36-2.51-.8-3.62-1.18A12.35,12.35,0,0,1,1104.38,419.1Z"/><path d="M1364.73,411.31c.34-2.76-9.35-1.09-11.25,1.48s-9.36,2.68-11.37,2-6.58-.75-10.15-.24l-3.09.88c-.6.17-.81,1.95-.31,2.73.68,1.06,2.72,1.75,3.24,2.81l.52,1.07c-.44,1.78.34,3.46,1.75,3.75s6.38.59,7.38.17l.07-.47c.08-.53-.67-1.25-1.36-1.65-.43-.24-1.45.05-2.14-.06l-3.8-.63c1.65-1.72,2.78-3.31,2.52-3.54l-.31-.09c-1.44-.41-3.91.08-3.57-1.85.18-1.06,3.51-1.91,5.22-1.34a5.11,5.11,0,0,1,1.62.92l3.59,3.1a121.63,121.63,0,0,0,13.5-3.33l.39,2.88,0,.35c1.36.31,6.12-2.19,7.8-1.49s3.2-.91,3.39-3.59l-1.19-1.26Z"/><path d="M1348,26c2.4,1.11,4.8,1.09,5,.72s2.09-.22,4.28.32l1.48-1.67c.82-.93,1.52-.78,3.17-.3l2.47.72c3.25,0,6.11-.91,6.35-2s6.17-1.41,6.17-2.1,4.29-2.73,5.94-3.3,1.67-2.49.06-4.28l-4.29,2.14a3.18,3.18,0,0,1-1.52-.17c-3.33-.8-6.16,1.26-9.59.78l-.68-.1c-1.27,1.52-4.42,1.32-5.14.83s-1.89.31-2.59,1.78l-1.1.2-3,.57c-3.2.67-9.18,3.65-10.62,3S1345.6,24.9,1348,26Z"/><path d="M1889.17,194.88l-3.82,2.37c-1.87,1.15-4.88,1.51-7.46,2.05l-.85.18c-1.14-.28-2.29-3.25-2.37-4.28s-3.36-1.77-4.47-1.73-1.07,2.33.09,5.11l-.13,2.24-.09,1.49a44.65,44.65,0,0,1-11.65-2l-3.78,1.88c-1.34.67-4.51.55-4.12-1.93.19-1.23.29-2.56-2.5-2.44a2.26,2.26,0,0,0-1,.16c-1.74,1.17-1,2.18.56,3l1.44.79c1.19,1.17,3.13,2.86,4.3,3.76l-1.5,1.06c-1.41,1-1.37,1.72.79,1.58,1.21-.09,2.25-1.13,3.5-1.31l.61-.08c.93.74,1.86.5,2.08-.54l.62-.8c.51-.68,2.08-1.71,2.44-1.59,1.53.53,2.65,1.65,4.21,2.11,1,.3,3-.57,3.73-.19,1.26.67,1.79,1.94,2.79,2.88l1,.91c1.21.91,4.32.29,5.28-.32s-1.31-2.13-2.48-2.52,2.46-2,3.87-2.41,3.28-2.79,3.56-3.6,4.62-1.48,6.59-1.48S1891.82,197.32,1889.17,194.88Z"/><path d="M1761.13,126l-3.59.1a11.91,11.91,0,0,0-3.75.7c.34,3.05-2.91,2.06-5.14,2.29l-1.31.13a23.8,23.8,0,0,0-5.44,2.63l-2.16.19c-1.75.16-3.85-.16-5.2.4-1.61.67-4.36,1.89-2.62,3.42s2.53,2.61.21,4.3c-.51.38,1.2,2.36,2.27,3.42.37.38,1.9.36,2.85.27.39,0,1-.8.87-1.15-.2-.65-1-1.21-1.29-1.86-1.48-3,2.49-6.78,6.3-5.63,2.73.82,3.81.78,5.75-.56l1-.72c2-.21,5.19-3.16,6.22-4s4.87-2,6.15-2.24,2.33,2.21,2.33,3a4.47,4.47,0,0,0,1.46,2.4,1.39,1.39,0,0,0,1.47,0c.41-.27,1.47-3.83,1.47-4.95S1765.47,126,1761.13,126Z"/><path d="M1478.71,342c0-.16,1.17-.4,1.83-.47,3.59-.39,1.68-2.29,2-3.52,0-.24-2.09-1-2.27-.93l-2,1.33c-2,1.59-1.55,5.26-3.19,5.56s-3.49-2.72-3.72-4.26-2.55,2.37-3.08,3.72a15.33,15.33,0,0,1-2.77,4.29l-1.9-.46-.84-.2c-.83-.41-4.27.07-7.66,1.06l-2.77,1.28-3.24,1.49c-3,2.4-4.18,3.83-2.5,3.16l1.48-.2a9.28,9.28,0,0,1,3.57.39l.21,4.36c4-1.17,7.87-2.61,8.69-3.21v-.53c0-1.6-1-1.33-2.41-.47-1.59,1-3.52,1.11-4-.55s2.33-3.12,5.68-3.36c3.66-.26,2.91,1.46,3.07,2.88l.06.53a1.8,1.8,0,0,0,2.06.52v-.18l.07-1.49c0-1.44,6.14-3.56,13.69-4.73Z"/><path d="M1687.72,137.18l2.32.25c1.2.14,3.15.42,3.56,0l3-2.76c2.29,1.8,4.16,1.24,4.16.47s4.89-1.75,6.65-1.88,1.88-1.34.27-2.69l-.15-1-.17-1.11c.92-1.36-.83-2.51-3.89-2.53l-2.54.06c-4.77.12-6.37,1.1-6.76,4.12l-.22,1.61c-.11,2-5.52,1.1-7.4.24s-3.41,1.51-3.41,2.57S1685.19,136.8,1687.72,137.18Z"/><path d="M1430.27,385.74c-.69,1-5.49-.42-4.44-1.52s-1.54-2-2.6-2,.53,5.09,0,7-11,1.22-12.09,2.07.79,2.61,2.22,3.15-.37.89-4,.78l-2.05.3-.79.12c-.56,1.1-.23,2.08.72,2.17l.55-.25c3.52-1.59,4.39-.5,4.36,1.82V400c.4.83,4-2.43,5.21-3.84a9.79,9.79,0,0,1,3.19-2.77,5.3,5.3,0,0,1,3.7,1.89l1.26.83c.73.48,3.09.68,3.53.32l1.27-1c-1.41-.88-3.86-2.14-4.26-2.57s.26-1.25,1.44-1.82l1.15-.09c3.9-.32,5.73-1.7,5.5-4.34l-.14-1.53C1433.73,383,1431,384.77,1430.27,385.74Z"/><path d="M831.45,128v-.46l.12-2.92a80.56,80.56,0,0,1,13.66-4.25l3.28,0,3.27,0c1.67-1.08,5.31-3.24,8.07-4.8l3.63-.1c.81,0,2.31-1.26,2.16-1.75-.37-1.23-6.75-2.66-8.47-2-2.9,1.1-6.38,1.54-7.14,4.6l-.3,1.17a73.57,73.57,0,0,1-11.7-.71L836,118.59a99.4,99.4,0,0,0-7.5,6.85l-.77.84A2.49,2.49,0,0,0,831.45,128Z"/><path d="M794.25,138.9l2.2.54.85.2c.87-.21.77-3.17.45-4.25s1.39-1.91,3.79-1.85l1.7.13c1,.09,2.51.77,3,.5l3.73-1.9c4-2.31-1.72-5-4-3.06s-4.11,1.93-4.11,0v-2.34c0-1.27-1.67.07-3.71,3l-3.48,1.7c-1.61.79-3.41.86-3.81-1-.22-1-.34-2.11-2.17-.83-.73.51-1.42,1.43-1.26,2.07l.49,2C788.73,135.71,791.55,138,794.25,138.9Z"/><path d="M1396.26,400.84c-1.39.35-9.33.81-11.59,1.79s-8,4.85-10,4.79-3.21,1.94-2.81,4.44l.76,1.94.19.49c1.71.26,3.19-.66,3.3-2.05l.93-.83.6-.52c2,.12,4.37-5.13,6.88-6.28s6.77.24,7.47,1,2.31.47,3.6-.57l1.54-.57,3.65-1.38C1400.52,400.41,1397.64,400.49,1396.26,400.84Z"/><path d="M1483.38,368.63l-.7,2.85c-.45,1.86-2,1.72-3.77,1.14l-2.27-.75c-2.24-.93-7.52,1-8.71,1.92s-.34,3.36.57,4.21-1.55,2.53-2.83,2.93,2.41.92,3.72,1,2.37-3,2.37-4,1.66-1.7,3.68-1.47,11.45-2.37,11.19-1.21.65-.4,1.09-2S1486.21,369.5,1483.38,368.63Z"/><path d="M1032,120.52l1.34-1.62c1.93-2.32,5.56-3.76,7.71-3,1.81.61,2.81,1.23,4-.15l2.58-3c3,1.59,5.23,2,5,1,.22,1.05,3.64.87,7.61-.4l1.63-2.81,1.5-2.57c-3.42-.53-2.25-1.38-1.06-1.51s-1-2.39-2.06-3.1a1.52,1.52,0,0,0-2.5.72l-.83.59c-.85.61-2.43.73-3.65,1.11l-3.76,1.19c1.94,1.49,5.16,3.82,7.17,5.19-2-1.37-5.28-1.78-5.9-1.52s-2.16-1-2.58-1.56-4,2-5.15,3.15-4.67.34-5.76.06-7.43,3-7.81,4.7A3,3,0,0,0,1032,120.52Z"/><path d="M1798.54,130.06c1.94.77,3.33-.41,3.08-2.63l.58-1.07c.68-1.28,2.53-2.27,3.33-3.54l.44-.71c-.46-1,.53-3.27,2.21-4.94l.4-1.83c.08-.36-1.21-1.18-1.92-1.21a3.29,3.29,0,0,0-2.3,1c-.64,1.07-.82,3.26-1.18,3.26l-7.88,0c2.37,3.23,0,6.2-1.34,6.31s-2.48,3.15-2.48,4.15S1796.59,129.28,1798.54,130.06Z"/><path d="M1574,307.13c-1,.13-2.83.35-2.83.55,0,3.53-4.82,3-7.53,3.81l-5.75,1.7a30.28,30.28,0,0,1,2.25,6.17c0,.65,9.06.15,9.44-.92s.32-2.17-.13-2.42-2.72,1.14-3.14,2-3.27-.53-4-1.12,1.88-2.24,5.81-3.67l3.19-1.2,3-1.14c0-.37.16-1.22.42-3.26C1574.76,307.44,1574.19,307.1,1574,307.13Z"/><path d="M1574.32,310.84c0,.27,0,.29,0,.29,4.1,1.44,4.68,1.09,1.3-.77Z"/><path d="M1815.07,122.93l4.74-2.3c5.85.34,10-.12,9.22-1l.1-.66c.09-.65,2.75-1.31.08-1.89l-5.07-1.09c-6.46-1.18-11-1-10.07.49l.66.92c.88,1.24,1.16,2.17-1.39,2.7-1,.21-2.36,1.14-2.32,1.69C1811.17,123.71,1814.19,123.36,1815.07,122.93Z"/><path d="M1721.84,126.72c1.33,1,6.68,1.91,9.62.26-2-1.39-3-3.26-2.73-3.7s-.39-.72-1.55-.31l-1-.09-1.6-.14a5.77,5.77,0,0,0-4.63,1C1719.55,124.34,1720.39,125.67,1721.84,126.72Z"/><path d="M1733.66,126.79l-1.5-.29a5.08,5.08,0,0,1-.7.48,8.78,8.78,0,0,0,2.12,1.08S1733.58,128,1733.66,126.79Z"/><path d="M1739.21,126c.53-.75,1.14-2,.62-2.45l-1-.89c-1.75-.62-4-.5-4.95.27l0,.73c-.1,1.51-.17,2.48-.21,3.13l3.29.64C1737.48,127.54,1738.78,126.61,1739.21,126Z"/><path d="M1767,117c.16-.77,4-.06,5.33.41s6.48-2.78,6.56-4.6-2.36-1.9-3.15-1.31-5,1-9.34.88l-2.5,2.75-.09.1a2.26,2.26,0,0,0-3.18,1.79C1760.44,118.57,1766.82,117.81,1767,117Z"/><path d="M1782.41,225.18c-1.13-.94-6.05-3.79-4.83-4.5s.9-1.84-.72-2.52l-1.59-.29-2-.37c-2.32-.11-2.61.54-.64,1.43l1.32,1.08.86.7c.18,1.2-1.55,2.38-2.26,2.45a7,7,0,0,0-3,1.65l-.4.86-.27.57c.43.87,3.48.08,4.38-.43s1,1.72.26,2.41a10.37,10.37,0,0,0-2,4.49c0,1.12,4.18-2.66,5.34-4s5.77-1.24,7.2-.77S1783.53,226.12,1782.41,225.18Z"/><path d="M1327.21,426.61c-1.67.43-3.7-3.43-4.21-3.5a69.21,69.21,0,0,0-7,.82c-1.67.3-2.8,1.52-2.51,2.73l-.63.74-1.22,1.43c.33,1.55,4.2,4.07,5.56,3.77s.14-2.64.81-3.4,6.12-2.23,8.28-1.23,3.93-.3,3.93-1S1328.89,426.17,1327.21,426.61Z"/><path d="M1553.84,321.59c-2.81-.77-5.1-.21-5.1,1.25s-3.28,5.06-4.23,5.06-2.63-2.43-3.07-3.62-1.6.86-2.56,4.56l3.64,1.7,4.27,2c3.27-1.95,5.07-5.09,4.74-5.67s.58-1.3,2-1.61l1.33-.16.63-.07c.74.2,5.74,2.21,6.63,1.18S1556.65,322.36,1553.84,321.59Z"/><path d="M886.38,108.77c1.49.54,3.54-.47,4.56-2.25l1.48-.69c4.19-2,8.8-3.48,13.14-5.29.94-.4,2.19-1.48,2-1.94-.88-1.79-1.76.05-2.71.12-3.68.26-6.83,1-9.14,3.13a5.36,5.36,0,0,1-3.13-.69c-1.42-2-1.27-2-2.14-1.57l-2.22,1.1c-2.45,1.22-2.62,3.58-1.85,4.15S884.89,108.23,886.38,108.77Z"/><path d="M1116.27,89.84c1.49-1,10.41-3.07,10.83-3.3a28.72,28.72,0,0,0,2.56-1.76l1.69.76a4,4,0,0,0,2.79-.51,1.41,1.41,0,0,0-.08-1.9,62.68,62.68,0,0,0-6.82-3.15c-.11,0-.91.79-1.49,1.14-3,1.84-6.08,3.67-9.17,5.46a9.47,9.47,0,0,1-1.86.53L1110,88.46C1112,90.21,1114.79,90.83,1116.27,89.84Z"/><path d="M1761.35,240.61c-1.3-1.39-4.51-2.14-7.13-1.67l-1.72,1c-2,1.15-2,2.54,1.43,2.86l.63.06c.63.33-.44,1.22-2.39,2l-.59,1-.72,1.22c.3,1.68,3.78,3.05,4.68,3.05s.76-2.66-.31-5.93l6.62-.35a2.1,2.1,0,0,0,.29-1.92Z"/><path d="M1679,283.09l-2.81,0c-4-.06-6.9.72-9.39,2.79-.37.3-2.38-.3-3.62-.5l-.53-.08c-.56-.14-1.33.43-1.71,1.26l.4.47.69.83c1.27.72,6.77-.74,8.47-1.52s2.76.74,2.35,3.38l4.65-3.29.52-.37c2.44.71,4.88.57,5.43-.32S1683,282.15,1679,283.09Z"/><path d="M775.79,140.31a5.42,5.42,0,0,1-.17,1.17c.55-.08,1.08-.17,1.55-.26Z"/><path d="M772.46,144.92c1.7-.2,2.77-1.84,3.16-3.44a63.52,63.52,0,0,1-9.08.72l-2.33,1.18c-1.29.65-4,1.36-3.93,1.65l.49,1.25C762.11,147.62,769.52,145.27,772.46,144.92Z"/><path d="M775.36,138.65c-1.15-1.32-2.12-1.34-2.16,0l.54.36,2,1.34A2.54,2.54,0,0,0,775.36,138.65Z"/><path d="M1747,125.26c1.06.31,3.34-1.48,5.08-4l4.57.2h.37c.24-.3-1-3.63-1.66-5s-3-.94-5.2,1S1745.92,125,1747,125.26Z"/><path d="M1653.7,286.65l-3.2-.33c-3.39-.34-1.8-2.47-3.53-3-3.24-.94-4,1.47-6.08,2.22-.49.18-1.5-.41-2.28-.44-1.24-.05-3.14-.26-3.63.18l-1.68,1.54c-2,2.68-1.35,3.9,1.54,2.73l1.44-.85,1.44-.85c1.71.12,7.63,1.85,7.4.61s2.43.28,3.58,1.35S1652.1,289.48,1653.7,286.65Z"/><path d="M1777.89,124.57c.75,1,3.61.54,6.35-1.12l2.45-.26,3-.33c2-1.36-5.43-2.48-8.77-2.48S1777.14,123.53,1777.89,124.57Z"/><path d="M1660.36,292.8l-.46-.84-.38-.7c.63-1.09-1.74-2-2.75-2s-2.28,2.1-2.44,2.87-1.89,1.13-3.84.79-4.39,2.56-3.77,3,5.06.12,9.87-.63l4.5-.18.62,0C1662.33,294.52,1661.73,293.5,1660.36,292.8Z"/><path d="M612.62,429.69c-1,1.63,4.13,3,6.52,3s4-1.3,3.5-2.89S613.6,428.06,612.62,429.69Z"/><path d="M18.74,202.4c1.69,1.34,7.64,2.76,8.31,1.38s-4.83-3.14-7.15-3.37S17.05,201.07,18.74,202.4Z"/><path d="M1513.67,357.75l-4.72,2.5a5.16,5.16,0,0,1-2.25-.15l-1.18-.2c-1.17-.26-1,.34.49,1.32s5.91,3,6.78,2.27l1.44-.71,1.16-.57C1517.13,361.82,1516.36,359.81,1513.67,357.75Z"/><path d="M1718.53,256.21l-.12.06-1.39.79c-1.4,1,.43,3.9-.81,4.57a51.18,51.18,0,0,1-7.72,2.47c-1.8.4-.6.82,2.66.92s10.6-5.71,10-6.45A12.5,12.5,0,0,0,1718.53,256.21Z"/><path d="M219.41,459.07l-3.48-1.6c-3.19-1.47-4.34-.91-4.55,1.56l0,.56c-1.45.85,6.69,1.54,9.73,1.54s5.53-.66,5.53-1.47S223.36,457.81,219.41,459.07Z"/><path d="M1314.39,30.27c-2.32,0-2.11.1.1.32Z"/><path d="M1320.16,33.48l1.75-1.92c1.13-2.44,1.85-4.94,1.61-5.56l-.39,0a7.94,7.94,0,0,0-2.84.17l-.93,4.84c-2.11-.14-3.74-.27-4.87-.38l.75,2.42C1316.18,36.06,1318.7,35.1,1320.16,33.48Z"/><path d="M1255.61,46.6a30.8,30.8,0,0,0,5.16-1.74C1262.88,43.75,1260.57,44.54,1255.61,46.6Z"/><path d="M1255.61,46.6c-.58.16-1.17.32-1.77.46l.42.11Z"/><path d="M1247.37,48.14c.77.16,3.58-.36,6.47-1.08l-6.12-1.58-.55-.15C1245.75,46.55,1245.83,47.81,1247.37,48.14Z"/><path d="M1536.62,351.45c-3.78-1.16-3.62-4.44-2.59-5.18s.42-1.19-1.35-1-4,5.25-3.55,6.27,3.23,2.24,6.15,2.72l2.52.7a2.39,2.39,0,0,0,1.73-.51c.22-.62.35-1.75-.1-1.92Z"/><path d="M721.89,156.25l.42.27c.17.51,1.92.63,3.91.27l.83,1.8,1.78,3.86c2.53-1.45,2.6-5.23,1.81-6.21a9,9,0,0,0-4.49-2.44l-1.57-.23c-1.17-.18-2.89-.56-3.48-.2C719.46,154.38,720.52,155.38,721.89,156.25Z"/><path d="M1429.4,365c2.77-2.19,4.13-4,3-4s-3.52-1.28-3.43-1.76-3.57-.88-4.85-.88-1.9,1.74-1.41,3.86l2.67,1.1Z"/><path d="M1855.85,131.87l3.29-.08c4.19-.88,6.91-2,6-2.58s-8.18,1-9.64-.43a3.53,3.53,0,0,0-5.12.08l.51.91C1851.5,130.8,1854.16,131.91,1855.85,131.87Z"/><path d="M1478.17,356.53c2.9.74,9.51-1.34,9-1.42s-3.16-3.73-3.9-5.12-3,2.46-5.6,3.43S1475.27,355.79,1478.17,356.53Z"/><path d="M914.12,92.73l.57.4c.82.6,1.4,2.15,1.75,2.1,3-.38,5.92-1,8.82-1.66.22,0,.26-1,0-1.42l-.83-1.27c-.88-1.07-6.93-.12-8.77.51S913.11,92.63,914.12,92.73Z"/><path d="M1699.2,261.84l-1.19-.17c-2.13-1.16-3.93.26-4,3.16l.2,1.88a2.23,2.23,0,0,0,1.63,1.4,4.29,4.29,0,0,0,2.62-.74c.59-.47.3-1.46.9-1.9.88-.62,2.93,2.91,3.63-.39C1703.44,262.93,1702,262.22,1699.2,261.84Z"/><path d="M1526.59,356.24l-.82-1.21-1.51-2.21c-2.13.89-4.28-.38-4.45-1.19s-1.57-.81-3.13,0l0,.51,0,1.19c.67,1.29,5.43,5.17,8,5.09S1528.15,357.36,1526.59,356.24Z"/><path d="M1288.12,41.1l.86.56c.3,1.13,3.17.85,6.38-.62l-4-2.39a4.75,4.75,0,0,1-1.93-2.07c-.8-1.91-1-2.16-2.05-1.63C1283.27,37,1283.49,38.05,1288.12,41.1Z"/><path d="M1145.53,418.05c-2.46.1-1.08,3.86.89,3.86a4.2,4.2,0,0,0,3.57-2.84C1150,418.41,1148,418,1145.53,418.05Z"/><path d="M1714.08,270.42l-2.58.91c-2.58.9-4.31,3-6.29,4.57-.16.13.53,1.09.92,1.12l1,.07a15.21,15.21,0,0,0,5-3.07l3,.14,1,0C1717.22,274,1716.33,272.32,1714.08,270.42Z"/><path d="M1122.79,426.51l-1.36-1.82-1-1.3c-1.76-1.61-3.2,1-3.2,2.35a2.43,2.43,0,0,0,2,2.55l.71,0,3.56.18C1124.65,426.56,1124.32,425.66,1122.79,426.51Z"/><path d="M1308.47,432.14l-1.49-.69c-2.82-.22-5,.59-4.87,1.8s4.94,3.1,6.14,2.7a2.54,2.54,0,0,0,1.35-3.28Z"/><path d="M1764,229.53c-1.57,0-5.45,3-5.45,4.09s3.87-1.24,5.45-2.25S1765.53,229.53,1764,229.53Z"/><path d="M1745.31,257.8c-1.64,0-4,.05-4.76.75l-1.37,1.18c-1.11,2.54.88,4,4.41,3.25l1.73-.86c1-.53,1.38-1.9,1.57-2.93C1747,258.75,1745.86,257.79,1745.31,257.8Z"/></g></g></svg>