<?xml version="1.0" encoding="UTF-8" standalone="no"?><svg xmlns="http://www.w3.org/2000/svg" xmlns:xlink="http://www.w3.org/1999/xlink" contentScriptType="text/ecmascript" fill="#000000" width="881" zoomAndPan="magnify" contentStyleType="text/css" viewBox="-13.4 -5.5 880.7 1113.7" height="1114" preserveAspectRatio="xMidYMid meet" version="1"><g data-name="Layer_1"><g><g id="change1_1"><path fill="#244668" d="M585.38,260.5c-1.01-.61-2.13-1.04-3.29-1.26-.89-.17-1.64-.72-1.95-1.44-1.41-3.28-4.5-5.54-8.06-5.89-.32-.03-.64-.05-.96-.05-3.21,0-6.25,1.58-8.09,4.26l-5.92,8.66c-51.59,80.8-92.52,168.61-125.11,268.4l-2.51,7.54c-13.13,39.36-26.7,80.07-34.47,122.3l-.42,2.97c-.71,4.96-1.44,10.09-1.83,15.3-.32,4.31,2.22,8.33,6.25,9.89,2.7,1.05,6.06,4.59,7.73,8.11,4.24,9.25,1.91,20.52-.56,32.44-.68,3.27-1.34,6.5-1.87,9.67-12.31,52.88-24.65,100.52-37.72,145.6-2.58,8.69-5.23,17.35-7.88,26.02-4.61,15.07-9.38,30.65-13.69,46.14-1.41,5.07,1.42,10.34,6.42,11.97,34.73,11.31,63.45,17.59,90.65,19.78,2.77.15,5.51.22,8.22.22,25.01,0,49.15-6.2,71.74-18.44,4.21-2.28,6.16-7.27,4.62-11.8-1.37-4.03-5.15-6.65-9.29-6.65-.52,0-1.05.04-1.58.13-7.73,1.25-15.61,1.89-23.42,1.89s-15.15-.59-22.63-1.76c-23.87-8.06-40.13-23.06-49.68-45.81-44.17-105.23,71.14-339.54,120.39-439.6,4.99-10.13,9.39-19.07,13.18-26.98,3.43-8.04,7.95-17.65,12.74-27.82,19.47-41.36,43.69-92.84,38.98-128.02-1.97-13.39-12.35-21.1-19.98-25.74Z"/></g><g id="change1_2"><path fill="#244668" d="M691.29,40.92c-41.48-15.96-72.99-25.86-101.93-25.86-35.86,0-68.04,14.38-118.86,53.15-118.45,93.52-173.93,231.22-208.99,340.61-25.19,75.08-44.26,143.84-58.29,210.2-1.12,5.28,2.24,10.47,7.51,11.63,6.13,1.34,12.88,2.96,20.4,4.89,49.38,14.09,97.49,31.64,143.02,52.15,1.29.58,2.66.87,4.03.87,1.74,0,3.47-.46,5.01-1.37,2.75-1.63,4.54-4.5,4.78-7.69.56-7.22,1.58-14.51,3.06-21.81,6.84-36.39,18.69-72.5,30.15-107.43l2.17-6.63c35.4-110.24,78.99-204.13,133.21-286.99,30.16-45.29,71.46-107.31,135.25-116.46,3.7-.45,7.41-.68,11.03-.68,71.03,0,104.81,86.67,113.47,113.23,1.33,4.09,5.14,6.77,9.33,6.77.46,0,.92-.03,1.38-.1,4.72-.67,8.28-4.63,8.44-9.39,1.32-39.03-3-72.55-13.19-102.46-19.59-57.94-74.56-85.51-130.97-106.65Z"/></g><g id="change1_3"><path fill="#244668" d="M309.04,756.05c-2.97-5.38-8.02-9.6-14.15-11.85-12.06-4.55-24.63-8.18-35.9-11.44-7.43-1.99-14.86-4.07-22.3-6.15-25.94-7.25-52.76-14.75-80.11-18.75-.48-.07-.95-.1-1.42-.1-3.89,0-7.47,2.31-9.03,5.97-15.41,36.15-25.73,74-33,102.93-1,3.98.58,8.16,3.96,10.49,11.99,8.24,28.02,16.37,47.6,24.15,2.11.85,4.24,1.66,6.37,2.46,1.12.43,2.31.64,3.49.64,1.4,0,2.8-.3,4.1-.9,2.39-1.1,4.24-3.11,5.14-5.59.76-2.1,1.52-4.21,2.16-5.96,1.37-3.3,2.64-6.72,3.93-10.18,4.3-11.54,8.36-22.45,16.23-29.49,4.28-2.95,9.91-4.63,15.52-4.63,3.8,0,7.38.77,10.4,2.23,14.12,9.35,4.28,39.23-2.24,59.06l-.64,1.94c-.85,2.6-.58,5.44.75,7.83s3.6,4.12,6.26,4.77c16.38,3.99,34.08,7.95,52.6,9.94.35.04.71.06,1.06.06,4.21,0,8.01-2.71,9.34-6.79,11.72-36.2,23.52-82.45,10.56-119.18-.18-.51-.4-1-.66-1.47Z"/></g><g id="change2_1"><path fill="#f2bc57" d="M393.84,702.69c-53.32-24.67-126.21-58.11-197.68-68.35-78.02-27.94-112.01,70.05-126.46,129.39-18.11,67.81-40.79,134.93-53.51,204.12-22.31,102.17,167.27,115.91,236.88,125.72,73.02-6.05,74.91-113.35,96.99-168.59,3.69-23.89,76.35-228.55,43.78-222.29ZM265.66,982.12c-18.9,52.98-99.04,23.72-138.23,6.8-48.45-16.91-44.49-52.29-34.03-108.57,15.37-56.63,26.68-147.83,59.97-180.89,31.09,11.45,67.41,15.6,99.36,26.52,18.13,6.21,42.66,8.98,56.32,21.78,32.98,20.33-14.28,173.31-43.39,234.36Z"/></g><g id="change2_2"><path fill="#f2bc57" d="M226.75,803.19c-38.6-13.05-64.38,147.15-81.12,177.76-3.32,12.03,11.79,13.93,19.85,17.19,19.99,1.36,20.01-39.78,29.27-53.76,5.28-25.63,57.38-127.95,32-141.19Z"/></g><g id="change3_1"><path fill="#0a253a" d="M124.19,998.19c22.27,8.73,44.71,18.1,68.35,22.27,6.83,1.05,13.96,1.69,21.06,1.69,26.52,0,52.78-8.8,61.45-37.15,12.2-28.69,22.36-58.23,32.83-87.55,13.94-40.22,37.82-120.14,8.52-156.21-12.64-13.06-31.88-15.61-48.43-21.17-34.75-9.7-69.45-19.96-104.98-26.29-3.2-3.51-8.32-5.22-12.97-3.53-18.51,6.73-21.48,29.63-28.35,45.76-16.05,46.45-28.04,94.26-37.9,142.38-9.32,50.11-18.51,99.25,40.41,119.81ZM190.81,872.28c1.5-4.42,3.04-8.82,4.61-13.22,3.32-9.32,6.75-18.61,10.48-27.79,3.38-6.92,6.79-21.69,18.32-18.6.77,13.66-3.97,27-7.69,39.97-14.84,44.9-31.53,89.2-47.26,133.79-.3.78-.5,1.58-.61,2.38-4.58-1.56-9.13-3.2-13.65-4.92.66-2.1,1.33-4.18,2.16-6.16,11.85-34.91,21.82-70.5,33.65-105.44ZM255.76,967.62c-8.23,24.57-17.3,30.01-42.35,29.73-.42,0-.83-.05-1.25-.05.43.02.86.02,1.27.02h.21l-1.49-.02c-6.8-.02-13.5-.78-20.11-2.07.16-.33.35-.63.48-.98,7.04-18.35,13.06-37.07,19.68-55.58,6.1-17.07,12.33-34.09,18.37-51.18,17.42,4.09,34.73,7.24,51.26,9.54-1.78,5.08-3.53,10.02-5.16,14.68-6.75,18.72-13.44,37.46-20.92,55.91ZM155.16,717.59c34.39,5.02,67.76,15.67,101.28,24.66,11.74,3.39,23.53,6.83,34.98,11.14,3.76,1.38,7.06,3.85,9.01,7.4,11.56,32.77,1.46,75.44-10.67,112.86-17.28-1.86-34.31-5.58-51.3-9.72,7.84-23.84,20.15-59.05-1.59-72.6-11.33-5.81-26.58-4.16-36.86,3.22-12.7,11.01-16.93,28.63-23.15,43.63-.78,2.1-1.5,4.23-2.26,6.34-2.08-.79-4.18-1.52-6.25-2.34-14.73-5.84-32.09-13.79-45.7-23.15,8.66-34.49,18.53-68.69,32.49-101.45ZM113.72,856.04c.96-4.05,1.92-8.1,2.89-12.16,15.17,9.15,32.07,17.15,49.89,24.04-4.76,14.24-9.31,28.55-13.78,42.9-6.85,21.36-13.2,42.96-20.61,64.15-13.82-5.78-29.27-14.39-29.85-31.08-2.4-29.69,5.41-59.01,11.47-87.86Z"/></g><g id="change3_2"><path fill="#0a253a" d="M82.2,1073.44c54.66,16.44,110.82,31.68,168.03,34.75.73.02,1.44.04,2.15.04,62.27-.02,81.18-69.04,95.49-122.36,4.6,1.46,9.42,2.47,13.79,3.99,20.48,5.45,41.02,10.84,62.02,14.06,9.24,1.28,18.16,1.92,26.75,1.92,90.41,0,145.91-68.68,191.17-144.11,40.99-67.82,74.85-139.62,106.75-212.12,43.34-97.03,76.1-198.71,91.9-303.98,15.46-100.96,27.12-232.45-78.36-288.56-34.54-19.81-72.42-33.05-110.16-45.4-34-11.76-71.57-17.13-106.36-4.05-75.55,29.06-134.92,89.45-182.77,153.1-70.44,95.7-106.08,212.19-140.6,324.62-12.73,43.44-23.94,87.24-33.31,131.51-37.78-4.51-69.94,3.32-95.24,45.32-27.75,45.17-37.11,98.44-52.2,148.58-11.91,41.92-23.95,83.85-34.08,126.27-20.52,75.26,2.72,111.2,75.05,136.42ZM442.62,981.09c-29.96-2.42-59.57-10.01-88.13-19.31,6.71-24.13,14.38-47.97,21.52-72,14.04-48.45,26.5-97.35,37.94-146.47,2.59-15.63,8.71-32.87,1.73-48.12-2.53-5.31-7.52-11.01-13.12-13.18.44-5.89,1.36-11.76,2.19-17.64,8.06-43.75,22.55-85.98,36.57-128.09,30.67-93.9,70.48-182.29,124.07-266.22,1.9-2.76,3.8-5.56,5.73-8.38,1.61,3.74,5.06,6.44,9.17,7.21,7.13,4.33,14.08,10.05,15.36,18.78,5.45,40.68-34.25,111.26-51.03,150.55-49.23,102.51-245.66,470.26-77.19,525.82,8.29,1.34,16.63,2.01,24.97,2.01s16.71-.67,24.99-2.01c-22.09,11.97-46.99,18.53-74.76,17.05ZM638.94,270c-2.88,62.87-20.43,123.82-38.8,183.64-27.48,85.42-61.79,169.41-109.49,245.66-10.63,16.15-21.94,31.7-34.48,46.43-5.81,6.77-12.31,13.71-19.24,20.48,18.66-77.69,52.01-153.12,85-225.62,23.97-50.23,49.94-99.54,71.73-150.8,16.49-42.77,52.61-110.12.27-141.33-3.18-2.49-7.02-3.74-10.68-3.74-.19,0-.38.02-.58.02,12.52-18.1,25.99-36.36,41.5-51.74.98.94,1.76,2.07,2.59,3.11,13.35,21.96,12.22,49.06,12.18,73.9ZM270.82,411.94c41.04-128.04,97.75-250.74,205.77-336.03,46.83-35.73,77.71-51.03,112.77-51.03,27.18,0,56.85,9.21,98.41,25.2,50.98,19.1,106.46,45.2,125.2,100.63,10.93,32.09,13.81,65.42,12.68,98.98-21.35-65.48-66.72-127.58-135.02-119.25-66.19,9.49-107.75,68.99-142.23,120.77-58.51,89.41-101.76,187.84-134.39,289.43-12.43,37.94-25.24,75.95-32.62,115.25-1.53,7.54-2.61,15.17-3.2,22.86-46.72-21.06-95.09-38.59-144.36-52.65-7.15-1.84-14.15-3.55-21-5.04,14.98-70.81,34.98-140.5,58-209.11ZM25.83,969.76c3.74-24.84,10.62-49.08,17.01-73.36,9.95-37.44,21.15-75.72,31.55-113.25,11.68-40.18,21.14-82.64,46.18-117.05,9.51-12.43,22.27-23.63,38.38-25.45,2.63-.13,5.24-.21,7.86-.21,7.81,0,15.57.61,23.32,1.65,3.45,2.69,8.3,3.49,12.39,1.99,7.33,1.36,14.58,3.03,21.77,4.83,54.79,15.9,107.48,34.2,158.97,59.55,2.86,3.28,7,4.58,10.97,4.01-2.32,21.81-8.19,43.15-13.56,64.34-14.27,61.08-33.01,121.06-50.63,181.3-12.31,39.24-25.05,126.85-78.08,125.6-27.73-.86-54.99-6.39-81.99-12.41-41.68-10.47-86.27-17.4-122.38-42.08-20.62-13.6-26.41-36.17-21.77-59.47Z"/></g></g></g></svg>