<?xml version="1.0" encoding="UTF-8" standalone="no"?><svg xmlns="http://www.w3.org/2000/svg" xmlns:xlink="http://www.w3.org/1999/xlink" contentScriptType="text/ecmascript" fill="#000000" width="711" zoomAndPan="magnify" contentStyleType="text/css" viewBox="-15.4 -26.5 710.7 727.0" height="727" preserveAspectRatio="xMidYMid meet" version="1"><g data-name="Layer_1"><g><g id="change1_1"><path fill="#ff8456" d="M682.97,71.98c-21.53-98.51-159.91-58.9-209.53-15.69-4.79,2.39-9.73,11.46-14.4,11.51-15.37,5.65-29.39,18.41-41.37,31-4.77,6.4,3.67,9.8,9.17,9.16,21.98,2.77,50.58,7.29,77.78,17.58,2.5.53,5.14,1.95,4.59,3.85-.13,1.99-2.07,2.02-3.68,1.52-34.35-11.89-70.66-20.35-101.84-19.6-41.65,16.03-73.92,47.71-105.93,77.41-7.78,9.36-40.43,45.65-24.14,49.55,12.77,1.2,33.4-7.02,43.21-.72.55,2.49-4.03,2.81-6.3,2.48-13.46-.1-27.49,4.07-40.74,2.47-2.11-.92-4.63-.29-6.07,1.58-33.55,17.33-59.76,43.15-82.27,77.68-7.06,13.56,29.23,5.09,36.98,7.38,42.3,2.71,88.22,3.94,121.73,19.1-.1,1.16-1.38,2.81-3.03,2.04-40.84-11.25-86.04-15.93-129.24-16.77-14.56.53-26.95-.09-38.57,5.78-26.86,21.98-60.87,50.32-78.68,77.42-24.44,44.3-20.59,36.12,22.6,33.26,47.1,1.53,101.45,10.71,141.96,30,2.8,1.15.84,5.63-1.96,4.27-53.95-24.23-121.47-34.54-178.9-25.9-17.47,31.74-40.05,62.32-53.77,96.84-29.69,66.24,6.08,137.05,80.85,135.56,58.58-1.01,107.88-34.7,155.33-65.66,43.68-32.78,84.44-66.95,130.4-96.49,55.34-40.33,86.73-116.67,135.04-166.89,31.85-32.95,56.56-72.42,79.86-111.69,34.9-53.41,81.52-111.36,80.93-178.03ZM377.65,249.31c-8.24-5.23,4.45-7.22,9.52-6.76,13.03.08,53.47,10.38,58.57,20.47-.47.94-1.83,1.73-2.94,1.19-24.16-10.57-45.51-20.91-65.16-14.9Z"/></g><g id="change2_1"><path fill="#0a253a" d="M476.27,60.54c-5.96,3.65-9.68,12.36-17.23,12.36-12.77,6.44-24.53,15.66-34.31,25.87-6.13,5.98-11.06,13.95-19.21,17.31-40.56,15.57-72.64,47.04-104.01,76.1-14.09,15.25-25.73,32.12-31.98,51.86-3.22,8.64-14.05,9.1-20.73,14.15-29.31,20.18-52.73,48-70.55,78.45-11.41,15.33-29.42,24.18-42.83,37.55-15.68,14.09-28.14,29-40.66,45.51-10.13,13.93-14.4,30.7-19.54,46.83-15.68,30.66-37.83,58.11-49.94,90.65-28.24,66.12,4.87,131,80.56,128.36,55.43-2.87,103.04-35.3,148.06-64.71,23.99-16.15,45.47-35.57,68.08-53.53,19.7-15.62,42.27-27.05,61.95-42.7,26.72-21.68,49.22-47.96,68.61-76.21,12.05-17.58,21.87-36.74,34.76-53.62,23.23-29.66,50.87-56.01,72.55-86.93,13.97-19.37,24.78-40.76,37.96-60.69,15.16-22.63,31.65-44.66,44.85-68.51,16.21-32.9,37.96-67.99,35.28-105.79-4.23-24.1-22.44-44.52-45.38-52.58-11.88-3.71-23.97-5.38-36.02-5.38-43.03,0-85.98,21.08-120.27,45.63ZM94.58,700.36c-68.28-1.94-110-65.71-89.22-129.82,10.23-39.71,35.52-73.05,55.51-108.1,5.01-15.1,8.77-31.07,17.41-44.72,21.81-34.41,53.27-60.67,84.83-85.67,23.43-37.01,51.92-75.53,92.81-94.13,9.76-29.95,31.01-54.46,54.56-74.72,27.58-23.19,55.04-48.75,89.57-60.98,10.31-7.86,17.72-19.41,28.39-27.15,13.72-11.18,30.26-17.49,43.16-29.71C511.54,17.9,560.25-3.41,609.49.45c43.78,1.51,85.84,38.17,83.96,83.65-8.48,69.03-53.47,125.94-90.32,182.47-15.27,25.7-30.2,51.31-49.66,73.92-18.98,23.68-40.99,44.85-58.81,69.42.25-.31.37-.48.6-.8-39.16,65.02-78.16,118.45-145.62,156.7-20.96,13.59-39.11,30.76-58.67,46.17-25.6,20.26-53.14,37.9-81.45,54.11-33.03,18.75-69.67,34.41-108.12,34.41-2.27,0-4.54-.06-6.81-.16Z"/></g><g id="change2_2"><path fill="#0a253a" d="M503.86,135.74c-27.07-10.62-55.99-15.49-84.75-18.86-3.98-.45-9.1-.33-11.99-3.49-2.14-2.33-2.66-5.76-1.32-8.62,2.83-5.61,8.25-4.33,13.62-3.03,2.64.62,5.28,1.26,7.61,1.09,26.94,3.38,53.93,8.29,79.4,17.93,10.97,1.9,9.86,15.53.76,15.53-1.01,0-2.12-.18-3.32-.54Z"/></g><g id="change2_3"><path fill="#0a253a" d="M268.31,247.45c-8.58-3.69-4.17-16.88,4.89-14.26,13.76-.6,27.69-2.95,41.57-2.95,10.91,1.01,8.69,16.21-2.13,14.94-6.39-.21-12.85.58-19.29,1.38-5.76.72-11.51,1.44-17.18,1.44-2.64,0-5.26-.16-7.86-.54Z"/></g><g id="change2_4"><path fill="#0a253a" d="M440.51,268.78c-18.11-9.06-37.73-16.15-57.84-16.48-8.42,7.49-18.34-6.91-9.14-12.81,21.27-7.3,53.55,6.5,73.21,15.74,3.61,1.84,5.42,6.07,3.65,9.88-1.18,2.64-4.04,4.39-6.89,4.39-1.01,0-2.04-.23-2.99-.72Z"/></g><g id="change2_5"><path fill="#0a253a" d="M335.8,355.2c-25.35-6.83-51.08-11.31-77.17-13.78-26.59-1.61-53.74-5.16-80.06-.48-10.25,7.41-18.11-9.26-6.42-13.49,11.68-3.94,24.26-3.73,36.62-3.51,3.28.06,6.54.12,9.78.1,40.93,1.03,82.19,6.27,121.57,16.9,8.44,2.64,5.65,14.61-2.02,14.61-.74,0-1.51-.1-2.31-.35Z"/></g><g id="change2_6"><path fill="#0a253a" d="M251.14,488.89c-47.06-21.15-117.51-34.91-168.44-25.89-8.56,4.13-15.14-8.71-6.71-13.31,31.03-9.04,64.43-3.38,95.89.91,29.42,4.35,58.5,12.09,85.47,24.74,3.69,1.71,5.38,6.19,3.67,9.88-1.22,2.72-4,4.33-6.83,4.33-1.03,0-2.08-.21-3.05-.66Z"/></g></g></g></svg>