<?xml version="1.0" encoding="UTF-8" standalone="no"?><svg xmlns="http://www.w3.org/2000/svg" xmlns:xlink="http://www.w3.org/1999/xlink" contentScriptType="text/ecmascript" fill="#000000" width="736" zoomAndPan="magnify" contentStyleType="text/css" viewBox="-0.8 -8.7 735.9 682.9" height="683" data-name="Layer 2" preserveAspectRatio="xMidYMid meet" version="1"><g data-name="Layer 1"><g><g id="change1_1"><path fill="#51233c" d="m582.78,358.6c-9.03,7.03,11.21,2.27,12.54,2.19,26.68-1.76,68.03,5.68,72.28,38.08,6,45.49-52.99,59.42-86.61,66.99-106.41,23.95-171.05,26.26-267.6,85.98-35.65,22.08-53.97,40.02-84.14,67.4-2.4,2.18-7.13,3.98-8.2,5.58-1.83,2.72-.91,9.53-2.06,14-5.62,21.66-25.47,35.41-47.86,31.51-18.78-3.28-40.07-27.7-52.17-41.97-28.83-34.01-61.43-76.27-86.84-112.9C20.31,498.43,1.3,471.84.04,450.95c-.86-14.35,11.77-30.46,26-32.61,6.89-1.05,21.82,2.91,24.14,1.23,1.88-1.37,3-5.82,5.58-8.26,14.84-14.05,43.1-29.53,60.75-42.57,101.34-74.85,192.7-155.78,284.94-240.86,40.13-36.99,81.18-82.74,129.23-109.55,17.67-9.86,50.55-27.03,69.03-13.06,4.49,3.39,9.08,14.98,11.98,15.64,1.74.39,17.78-6,22.88-6.58,19.32-2.19,46.77,8.1,51.11,28.97,1.28,6.18-1.8,14.45,5.03,17.92,2.86,1.46,6.33,1.05,9.19,2.29,25.47,11.01,30.79,36.14,27.41,61.92-.86,6.71-11.49,28.12-11.16,29.67,1.1,5.09,14.52,9.67,15.94,23.17,3.01,28.33-15.25,52.74-32.22,73.56-31.38,38.47-73.64,72.21-111.35,104.56-2.26,1.94-5.3,1.87-5.75,2.22h0Z"/></g><g id="change2_1"><path fill="#c9b8ff" d="m422.52,213.46c1.52,1.53,7.42,2.79,9.86,2.92,12.11.56,13.96-9.09,20.62-16.29,28.13-30.44,64.97-62.2,96.48-89.48,18.41-15.96,42.56-31.77,59.77-48.16,8.05-7.64,3.3-12.43,18.84-17.88,23.1-8.13,37.17,1.46,28.27,25.97l-98.9,84.78c-11.97,15.01-32.47,28.79-43.59,43.66-10.77,14.4.7,25.51,16.12,20.71,46.14-45.15,95.11-87.18,144.7-128.49,22.97-11.52,27.9,12.71,24.69,31.55-4.53,26.46-29.75,49.09-48.88,65.93-16.91,14.9-35.15,29.61-52.81,43.63-21.62,17.16-51.75,35.04-71.19,52.78-5.04,4.59-10.54,11.33-6.92,18.41,4.66,9.09,14.58,7.91,22.62,4.2,12.94-6,40.39-28.8,53.2-38.67,31.97-24.59,60.9-52.63,91.82-78.07,9.96-8.22,21.24-17.24,16.79,3.01-7.64,34.82-95.16,110.28-124.7,134.76-10.7,8.87-60.03,42.89-62.78,52-3.25,10.82,6.05,22.02,16.65,21.45,17.42-.96,41.25-11.69,60.06-13.6,12.28-1.27,37.24-1.42,44.72,10.04,12.05,18.5-26.18,30.83-39.1,34.59-58.46,17.03-122.29,21.22-181.47,38.97-64.26,19.26-149.03,68.56-196.38,115.93-3.96,3.95-4.74,8.22-11.58,11.37-4.12,1.9-4.62-6.72-7.42-8.29-6.71-10.15-15.48-36.64-29.21-37.54-12.4-.8-14.39,10.81-11.48,20.84,3.86,13.26,20.52,32.72,26.99,46.48,2.83,6.07,5.66,12.04.61,17.67-10.94,12.25-26.4-2.9-34.45-11.4-32.51-34.31-73.73-89.38-100.79-128.8-6.6-9.62-20.27-28.37-23.24-38.75-3.2-11.21-3.24-16.31,8.86-13.45,16.38,3.88,32.25,38.69,48.74,22.6,11.98-11.7-6.37-23.1-12.74-31.04-1.58-1.98-4.02-3.08-1.2-5.84,23.18-16.63,47.05-32.46,69.92-49.48,98-72.89,188.6-153.75,278.06-236.26,38.93-35.9,82.43-84.7,130-108.77,14.95-7.56,40.02-19.71,31.83,8.86l-94.17,80.34c-16.95,17.76-35.49,33.5-51.65,51.67-6.6,7.42-26.61,24.1-15.62,35.12h0Z"/></g></g></g></svg>