<?xml version="1.0" encoding="UTF-8" standalone="no"?><svg xmlns="http://www.w3.org/2000/svg" xmlns:xlink="http://www.w3.org/1999/xlink" contentScriptType="text/ecmascript" fill="#000000" width="1184" zoomAndPan="magnify" contentStyleType="text/css" viewBox="-4.8 -4.8 1184.2 1184.2" height="1184" preserveAspectRatio="xMidYMid meet" version="1"><g data-name="Layer 2"><g fill="#51233c" id="change1_1" data-name="Layer 1"><path d="M60.85,0a60.85,60.85,0,1,0,60.86,60.85A60.85,60.85,0,0,0,60.85,0Z"/><path d="M1113.75,121.7a60.85,60.85,0,1,0-60.85-60.85A60.85,60.85,0,0,0,1113.75,121.7Z"/><path d="M587.3,0a60.85,60.85,0,1,0,60.85,60.85A60.85,60.85,0,0,0,587.3,0Z"/><path d="M324.08,0a60.85,60.85,0,1,0,60.85,60.85A60.85,60.85,0,0,0,324.08,0Z"/><path d="M850.52,0a60.85,60.85,0,1,0,60.86,60.85A60.85,60.85,0,0,0,850.52,0Z"/><path d="M60.85,1052.89a60.86,60.86,0,1,0,60.86,60.86A60.85,60.85,0,0,0,60.85,1052.89Z"/><path d="M60.85,526.45a60.85,60.85,0,1,0,60.86,60.85A60.85,60.85,0,0,0,60.85,526.45Z"/><path d="M60.85,263.22a60.86,60.86,0,1,0,60.86,60.86A60.85,60.85,0,0,0,60.85,263.22Z"/><path d="M60.85,789.67a60.86,60.86,0,1,0,60.86,60.85A60.85,60.85,0,0,0,60.85,789.67Z"/><path d="M1113.75,1052.89a60.86,60.86,0,1,0,60.85,60.86A60.85,60.85,0,0,0,1113.75,1052.89Z"/><path d="M1113.75,526.45a60.85,60.85,0,1,0,60.85,60.85A60.85,60.85,0,0,0,1113.75,526.45Z"/><path d="M1113.75,263.22a60.86,60.86,0,1,0,60.85,60.86A60.85,60.85,0,0,0,1113.75,263.22Z"/><path d="M1113.75,789.67a60.86,60.86,0,1,0,60.85,60.85A60.85,60.85,0,0,0,1113.75,789.67Z"/><path d="M587.3,1052.89a60.86,60.86,0,1,0,60.85,60.86A60.85,60.85,0,0,0,587.3,1052.89Z"/><path d="M587.3,526.45a60.85,60.85,0,1,0,60.85,60.85A60.85,60.85,0,0,0,587.3,526.45Z"/><path d="M587.3,263.22a60.86,60.86,0,1,0,60.85,60.86A60.85,60.85,0,0,0,587.3,263.22Z"/><path d="M587.3,789.67a60.86,60.86,0,1,0,60.85,60.85A60.85,60.85,0,0,0,587.3,789.67Z"/><path d="M850.52,1052.89a60.86,60.86,0,1,0,60.86,60.86A60.86,60.86,0,0,0,850.52,1052.89Z"/><path d="M850.52,526.45a60.85,60.85,0,1,0,60.86,60.85A60.85,60.85,0,0,0,850.52,526.45Z"/><path d="M850.52,263.22a60.86,60.86,0,1,0,60.86,60.86A60.86,60.86,0,0,0,850.52,263.22Z"/><path d="M850.52,789.67a60.86,60.86,0,1,0,60.86,60.85A60.86,60.86,0,0,0,850.52,789.67Z"/><path d="M324.08,1052.89a60.86,60.86,0,1,0,60.85,60.86A60.86,60.86,0,0,0,324.08,1052.89Z"/><path d="M324.08,526.45a60.85,60.85,0,1,0,60.85,60.85A60.85,60.85,0,0,0,324.08,526.45Z"/><path d="M324.08,263.22a60.86,60.86,0,1,0,60.85,60.86A60.86,60.86,0,0,0,324.08,263.22Z"/><path d="M324.08,789.67a60.86,60.86,0,1,0,60.85,60.85A60.86,60.86,0,0,0,324.08,789.67Z"/></g></g></svg>