<?xml version="1.0" encoding="UTF-8" standalone="no"?><svg xmlns="http://www.w3.org/2000/svg" xmlns:xlink="http://www.w3.org/1999/xlink" contentScriptType="text/ecmascript" fill="#000000" width="816" zoomAndPan="magnify" contentStyleType="text/css" viewBox="0.0 0.0 815.9 822.0" height="822" data-name="Layer 2" preserveAspectRatio="xMidYMid meet" version="1"><g id="change1_1" data-name="Layer 1"><path d="m812.99,821.99c-1.16,0-2.32-.86-2.61-2.03-1.74-4.37-3.49-9.3-5.23-13.65q-.28-.28-.28-.58c-.3-.58-.3-1.45,0-2.03.28-.58.86-1.46,1.74-1.74,1.45-.3,3.19.28,3.77,1.74v.28h0c2.03,5.23,3.77,9.88,5.22,13.93.3.88.3,1.46,0,2.32-.28.58-.86,1.16-1.45,1.46-.58.28-.86.28-1.16.28Zm-14.8-35.98c-1.16,0-2.04-.58-2.62-1.46-2.32-4.93-4.63-9.28-6.68-12.77q-.28,0-.28-.28h.28-.28v-.3h0c-.88-1.16-.58-2.91.86-3.77,1.16-.88,3.2-.58,3.77.86h.3l-.3.3h.3c2.32,3.77,4.93,8.12,7.26,13.35.86,1.45.28,3.19-1.16,3.77-.58.3-.86.3-1.45.3Zm-149.77-14.51c-1.45,0-2.61-1.16-2.91-2.62,0-.86.3-1.45.58-2.03.58-.58,1.46-1.16,2.03-1.16h.58c4.65-.3,9.58-1.16,14.23-2.03,1.74-.3,3.19.86,3.49,2.31.28,1.74-.58,3.2-2.32,3.49-5.23.88-10.45,1.74-15.09,2.04h-.58Zm-23.51-1.16h-.58c-4.93-1.16-9.86-2.62-14.8-4.65,0,0,0-.3-.3-.3h0c-1.45-.58-2.03-2.31-1.45-3.77.58-1.45,2.32-2.03,4.05-1.45h0c4.37,2.03,8.72,3.49,13.65,4.35,1.74.28,2.61,1.74,2.32,3.49-.3,1.45-1.46,2.32-2.91,2.32Zm61.24-7.26c-1.16,0-2.31-.58-2.61-1.74-.58-1.74.3-3.2,1.74-3.78h.58c.28-.28.86-.57,1.45-.57l1.74-.88c3.77-1.16,7.26-2.61,10.74-3.77,1.45-.3,3.19.58,3.77,2.03.3,1.46-.28,2.91-2.03,3.49l-.3.28c-3.77,1.16-7.54,2.62-11.61,4.07-.28,0-.58.3-1.16.3-.28.28-.58.28-.86.28,0,.3-.3.3-.3.3h-1.16Zm89.12-7.84c-.58,0-1.16-.3-1.46-.58-3.77-2.91-7.84-4.65-12.47-5.81h-.3c-.86-.28-1.45-.86-1.74-1.45-.58-.58-.58-1.46-.58-2.32.58-1.46,2.04-2.32,3.49-2.04.3,0,.58,0,.58.3,5.23,1.16,9.86,3.49,14.23,6.39.86.57,1.16,1.15,1.16,2.03.28.58,0,1.45-.3,2.03-.58.88-1.45,1.46-2.61,1.46Zm-183.73-3.2c-.88,0-1.46-.58-2.03-1.16-3.49-3.77-6.69-7.84-9.3-12.47v-.3h0c-.58-.58-.58-1.45-.28-2.32,0-.57.58-1.15,1.16-1.73,1.45-.58,3.19,0,4.05,1.16v.28h.3v.28c2.32,4.07,5.22,7.84,8.12,11.32.58.58.88,1.16.88,2.04s-.3,1.45-.88,2.03-1.45.86-2.03.86Zm131.78-.86c-1.46,0-2.62-.88-2.91-2.03-.28-1.74.58-3.2,2.03-3.49h.3s.28-.3.58-.3c4.63-1.16,9.58-2.03,14.51-2.89,1.45-.3,2.91.86,3.19,2.61.3,1.45-.86,2.91-2.32,3.19-4.05.58-8.42,1.46-14.21,2.91h-1.16Zm-228.13-20.03c-.58,0-1.46-.3-2.04-.88-.28-.58-.86-1.45-.86-2.03,0-1.45,1.16-2.91,2.91-2.91h.28c4.07-.28,8.7-1.45,13.35-3.49,1.45-.58,3.19.3,4.07,1.74.58,1.46-.3,3.2-1.74,3.78-5.51,2.03-10.74,3.47-15.39,3.77h-.57Zm-19.74-10.45c-.88,0-2.03-.58-2.32-1.46-2.03-2.91-3.77-6.38-5.23-10.74-.28-1.16-.58-2.31-.86-3.77h-.3v-.58c0-.58,0-1.16.3-1.74.58-.86,1.16-1.45,1.74-1.45,1.74-.3,3.19.58,3.77,2.03h0v.3h0c.3,1.16.58,2.32.88,3.47,1.15,3.49,2.61,6.69,4.35,9.3.86,1.45.58,3.19-.88,4.07-.28.28-.86.58-1.45.58Zm98.68-2.91c-1.45,0-2.61-1.16-2.91-2.32-1.16-4.65-2.03-9.58-2.61-15.09v-.3h0c0-.86,0-1.45.58-2.03.58-.86,1.16-1.16,2.03-1.16,1.46-.28,2.91.88,3.2,2.61v.58c.58,4.65,1.45,9.3,2.61,13.93,0,.88,0,1.74-.58,2.32-.3.58-.88,1.16-1.74,1.16-.28,0-.28.3-.58.3Zm-43.54-2.04c-.86,0-2.03-.28-2.32-1.16-1.16-1.15-.86-3.19.58-4.05q.3,0,.3-.3c3.47-2.32,7.26-5.22,11.61-9,1.16-.86,3.19-.58,4.07.58,1.16,1.16.86,3.2-.3,4.07-4.35,3.77-8.42,6.68-11.9,9.28h-.28.28-.58c-.28.58-.86.58-1.45.58Zm29.61-24.96c-.86,0-1.45-.28-2.03-.86s-.88-1.46-.88-2.32c0-.58.3-1.46.88-1.74l.28-.3c2.91-2.89,6.09-6.09,9.86-9.86.3-4.65.58-9.28,1.46-14.8v-.3h0c.58-1.74,2.03-2.61,3.49-2.32.86,0,1.45.3,1.74.88.57.86.86,1.45.57,2.32v.28c-.86,4.93-1.15,9.86-1.45,14.51-.28.3-.28.58-.28.58,0,.86-.3,1.45-.58,2.03-3.78,3.78-7.26,7.26-10.74,10.74l-.3.3h0c-.58.58-1.16.86-2.03.86Zm-93.47-7.54c-1.73,0-2.89-1.16-2.89-2.91v-.3c0-4.35.28-9.28.86-14.8v-.58h0l.3-.3c0-1.45,1.45-2.61,2.89-2.03.88,0,1.46.3,2.04.86.58.58.58,1.46.58,2.32h0v.3c-.58,4.35-.88,9-.88,14.21v.3c0,1.45-1.16,2.91-2.91,2.91h0Zm120.17-20.9c-.86,0-1.45-.28-2.03-.58-.58-.58-.88-1.45-.88-2.32,0-.58.3-1.45.58-1.74,0-.28.3-.28.3-.28v-.3c3.19-3.77,6.38-7.54,9.58-11.31.86-1.16,2.61-1.46,4.05-.3,1.16.88,1.46,2.62.3,4.07-3.49,4.35-6.68,8.12-9.58,11.32v.28h-.28c-.58.88-1.16,1.16-2.04,1.16Zm-114.94-17.42h-.58c-1.45-.58-2.32-2.03-2.03-3.77,1.45-5.23,2.61-9.86,4.07-14.51h.28v-.28c.28-1.46,2.03-2.32,3.49-1.74.86,0,1.45.58,1.74,1.45.28.58.58,1.45.28,2.03q0,.3-.28.58c-1.16,4.07-2.62,9-4.07,13.93-.3,1.46-1.45,2.32-2.91,2.32Zm106.24-4.05h-.58c-1.74-.58-2.61-2.32-2.04-3.78,1.46-4.63,3.2-9.28,5.23-14.21h.3v-.3c.58-1.45,2.31-2.03,3.77-1.45.58.28,1.16.86,1.45,1.45.3.88.3,1.74,0,2.32v.3c-1.74,4.05-3.49,8.42-5.22,13.63-.3,1.16-1.46,2.04-2.91,2.04Zm32.8-9c-.58,0-1.16-.3-1.74-.58-.58-.3-.86-1.16-1.16-1.74,0-.88.3-1.74.58-2.32h.3v-.3c2.89-4.05,5.8-8.12,8.7-12.19.88-1.16,2.61-1.45,3.77-.58,1.46.88,1.74,2.62.88,3.78-2.62,3.77-5.23,7.84-8.72,12.47v.3h-.28c-.58.86-1.46,1.16-2.32,1.16Zm-126.55-23.81c-.3,0-.58,0-1.16-.28-.58-.3-1.16-.88-1.46-1.46-.28-.86-.28-1.45,0-2.31,1.74-4.37,3.49-9,5.53-13.65,0-.28.28-.28.28-.58.58-1.45,2.32-2.03,3.77-1.45,1.46.58,2.04,2.31,1.46,3.77v.28h0c-2.04,4.65-3.78,9.3-5.81,13.93-.28.88-1.45,1.74-2.61,1.74Zm110.29-2.03c-.28,0-.86-.3-1.45-.58-1.46-.86-1.74-2.61-.88-4.07,2.91-4.35,6.09-8.42,9.3-12.19l.28-.28c.88-1.16,2.91-1.16,4.07,0,.58.28.86,1.16.86,1.73.3.88,0,1.74-.58,2.32,0,0-.28,0-.28.3-3.19,3.49-6.09,7.26-8.72,11.32-.57.86-1.45,1.45-2.61,1.45Zm37.74-6.68c-.3,0-.88,0-1.46-.3-.58-.58-1.16-1.16-1.16-1.73-.28-.88-.28-1.74.3-2.32v-.3c2.91-5.22,5.22-9.58,6.68-13.05.58-1.46,2.32-2.04,3.77-1.46s2.32,2.32,1.74,3.77c-2.03,4.07-4.35,8.72-6.97,13.65-.28,0-.28.28-.28.28-.58.88-1.46,1.46-2.61,1.46Zm-10.46-20.9c-1.16,0-2.03-.58-2.32-1.45-1.15-1.16-.86-2.91.58-4.07,5.23-3.77,9.58-6.38,13.35-7.84,0,0,0-.28.3-.28,1.45-.58,3.19.28,3.77,1.74.58,1.45-.28,3.19-1.74,3.77h-.28c-2.91,1.45-7.26,3.77-12.19,7.54-.3.3-.88.58-1.46.58Zm-122.48-6.09c-.3,0-.58-.28-1.16-.28-1.46-.88-2.04-2.32-1.46-3.77l2.04-4.37c1.16-3.19,2.61-6.38,4.05-9.58l.3-.28c.58-1.45,2.32-2.03,3.77-1.45,1.46.58,2.04,2.31,1.46,3.77q0,.28-.3.58c-.86,2.03-1.74,4.07-2.61,6.09-1.16,2.61-2.32,4.93-3.19,7.54-.58.88-1.74,1.74-2.91,1.74Zm15.38-35.7c-.28,0-.58-.28-.86-.28-1.74-.58-2.32-2.32-1.74-3.78,1.74-4.63,3.49-8.99,5.22-13.93v-.28h.3v-.3c.28-1.15,2.03-2.03,3.49-1.45.86.3,1.45.88,1.74,1.45.28.58.28,1.46,0,2.04v.58c-1.46,4.35-3.2,9-5.23,13.93-.58,1.16-1.74,2.03-2.91,2.03Zm11.61-37.15h-.28c-1.74-.3-2.61-1.74-2.32-3.49.86-5.23,1.45-9.86,1.45-13.65v-.28l-.28-.3q0-.28.28-.57c0-1.46,1.16-2.62,2.62-2.62h.28c1.46,0,2.62,1.16,2.91,2.62v1.15c0,4.37-.58,9.3-1.74,14.81-.28,1.16-1.45,2.32-2.91,2.32Zm-4.93-37.44c-.86,0-1.74-.58-2.32-1.46-2.61-3.47-5.8-6.38-10.15-8.99q0-.3-.3-.3c-.58-.28-.86-1.16-1.16-1.74-.28-.86,0-1.45.3-2.32.86-1.16,2.61-1.74,3.77-.86q.28,0,.58.28c4.65,2.91,8.7,6.68,11.61,10.74.58.58.58,1.46.58,2.04-.28.86-.58,1.45-1.16,2.03-.58.28-1.16.58-1.74.58Zm-33.09-18.58h-.57c-4.37-1.16-9.3-1.74-14.51-2.32h-.3c-.86-.28-1.45-.58-2.03-1.16-.3-.58-.58-1.45-.58-2.03.28-1.74,1.74-2.91,3.19-2.61h.58c5.51.58,10.45,1.45,14.8,2.32,1.74.28,2.62,2.03,2.32,3.47-.28,1.46-1.45,2.32-2.91,2.32Zm-53.98-3.19c-1.45,0-2.61-1.16-2.91-2.61,0-.88.3-1.74.88-2.32s1.16-.88,2.03-.88h.3c5.22-.28,10.15-.28,14.8-.28h.3c1.45,0,2.89,1.16,2.89,2.91,0,1.45-1.45,2.89-2.89,2.89h-.3c-4.35,0-9.28,0-14.51.3h-.58Zm-23.21-1.74c-.3,0-.58,0-.88-.3-5.22-1.45-9.86-4.35-13.93-7.82h0s-.28,0-.28-.3c-.58-.28-.88-1.16-.88-2.03,0-.58.3-1.46.58-2.04,1.16-1.16,3.2-1.16,4.37-.28v.28h0c3.77,3.2,7.54,5.23,11.89,6.97.88,0,1.46.58,1.74,1.16.3.86.3,1.74,0,2.32-.28,1.16-1.45,2.03-2.61,2.03Zm-26.42-27c-1.16,0-2.03-.58-2.61-1.74-1.74-4.05-3.19-8.99-4.65-14.51v-.28h0v-.3c-.28-1.45.58-2.89,2.03-3.47,1.46-.3,3.2.86,3.49,2.32h0s0,.28.3.28c1.16,4.93,2.61,9.58,4.35,13.65.28.86.28,1.73,0,2.31-.3.58-.88,1.16-1.74,1.46-.28.28-.58.28-1.16.28Zm-8.12-37.73c-1.46,0-2.62-1.16-2.91-2.61-.3-5.53-.58-10.46-.58-15.09v-.58c0-1.46,1.16-2.91,2.91-2.91,1.45,0,2.91,1.45,2.91,2.91v.28c0,4.65.28,9.58.57,14.81.3,1.45-.86,2.89-2.61,3.19h-.28Zm0-38.89h0c-1.74-.3-2.91-1.46-2.91-3.2.58-4.93.86-9.86,1.45-14.8v-.58c.3-1.46,1.74-2.32,3.2-2.32,1.73,0,2.89,1.45,2.61,3.19h0v.3h0c-.58,5.22-.88,10.16-1.46,14.8,0,1.46-1.15,2.62-2.89,2.62Zm4.05-38.61h-.28c-1.45,0-2.91-1.46-2.91-3.2v-2.89c0-4.37,0-8.14-.58-11.32v-.58h0c0-.86.3-1.45.58-2.03.58-.58,1.16-.88,2.03-1.16,1.74-.3,2.91,1.16,3.2,2.61h0v.3c.58,4.05.86,7.82.86,12.19v1.45c-.28.58-.28,1.16-.28,1.74,0,1.45-1.16,2.91-2.62,2.91Zm-166.02-2.04h-4.35c-1.46-.28-2.62-1.73-2.62-3.19.3-1.74,1.74-2.91,3.2-2.61h.86c3.77.28,8.42,0,13.65-.88,1.73-.28,2.89.58,3.19,2.32.28.58,0,1.46-.3,2.04-.58.58-1.16,1.15-2.03,1.15-4.35.88-8.12,1.16-11.61,1.16Zm33.96-7.54c-1.45,0-2.32-.88-2.91-2.03-.28-.58-.28-1.46.3-2.04.28-.86.86-1.16,1.45-1.45,0-.3.3-.3.3-.3,5.22-2.03,9.57-3.47,13.93-5.22,1.45-.58,3.19,0,3.77,1.45s0,3.19-1.74,3.77c-5.23,2.32-9.58,4.07-13.93,5.51h-.3c-.28.3-.58.3-.86.3Zm-58.05-3.77c-.86,0-1.45-.3-2.03-.88-3.2-4.05-6.09-8.42-8.42-13.35l-.3-.28c-.58-1.46,0-3.2,1.46-3.78,1.45-.58,3.19,0,3.77,1.16,0,.3.28.3.28.58,2.04,4.37,4.65,8.14,7.55,11.9,1.16,1.16.86,2.91-.3,4.07-.58.28-1.16.58-2.03.58Zm93.75-11.04c-1.16,0-2.03-.86-2.61-2.03s0-2.91,1.45-3.77h.3c.28-.3.58-.3.58-.3,4.63-2.03,8.99-3.77,13.35-5.8,1.45-.58,3.19.28,3.77,1.74.58,1.45,0,3.19-1.46,3.77-4.35,1.74-8.99,3.77-13.93,5.8,0,0,0,.3-.28.3-.3,0-.58.28-1.16.28Zm87.08-12.47c-.86,0-1.45-.58-2.03-1.16-2.91-3.19-6.68-5.23-11.04-6.39h-.28c-.86-.28-1.45-.58-2.03-1.45-.3-.58-.58-1.45-.3-2.03.3-1.74,1.74-2.62,3.49-2.32h.28c5.81,1.45,10.46,4.35,14.23,8.42.58.58.58,1.45.58,2.03,0,.86-.3,1.45-.88,2.03s-1.16.88-2.03.88Zm-50.79-2.32c-1.45,0-2.61-.86-2.91-2.03-.28-.58-.28-1.46,0-2.04.58-.86,1.16-1.16,1.74-1.45q.3-.3.58-.3c5.23-1.74,9.86-3.19,14.51-4.05,1.45-.58,2.91.58,3.49,2.03.28,1.74-.58,3.19-2.32,3.49-3.77.86-8.12,2.03-13.93,4.05h-.3v.3h-.86Zm-145.41-9.28c-1.46,0-2.62-.88-2.91-2.32-.88-4.65-1.74-9.58-2.62-14.81v-.58c0-.86.3-1.45.58-2.03.58-.58,1.16-1.16,2.04-1.16,1.16,0,2.91.86,3.19,2.32v.58c.58,4.93,1.45,9.86,2.61,14.51.3,1.45-.86,2.91-2.31,3.49h-.58Zm-4.37-38.61h-.28c-1.46,0-2.61-1.16-2.91-2.91,0-4.65-.28-9.86-.28-14.81v-.28c0-1.74,1.16-2.91,2.89-3.19,1.46,0,2.91,1.45,2.91,2.91v.57c0,4.95.3,10.16.3,14.81.28,1.45-1.16,2.91-2.62,2.91h0Zm-.58-38.9c-1.73,0-2.89-1.15-2.89-2.89v-15.39c0-1.45,1.16-2.91,2.89-2.91,1.46,0,2.91,1.46,2.91,2.91v15.39c0,1.74-1.45,2.89-2.91,2.89Zm-.28-38.89h-.3c-1.45,0-2.89-1.16-2.89-2.91-.3-5.22-.58-10.15-.88-14.51v-.28h-.28c0-.88.28-1.74.86-2.32.3-.58,1.16-.86,1.74-.86,1.45-.3,3.19.86,3.19,2.31.3.3.3.58.3.58.28,4.95.58,9.88.86,15.09,0,1.46-1.16,2.91-2.61,2.91h0Zm-145.13-11.9c-3.19,0-6.09-.58-8.42-1.73q-.28-.3-.58-.3c-1.45-.86-2.03-2.61-1.16-4.07.58-1.16,2.61-1.74,3.77-1.16.3,0,.3.3.3.3,3.49,1.45,7.84,1.74,12.47.28,1.74-.28,3.2.58,3.78,2.04.28,1.45-.58,3.19-2.04,3.49-2.89.86-5.51,1.15-8.12,1.15Zm28.15-11.61c-.86,0-1.73-.28-2.31-1.16-.3-.58-.58-1.45-.3-2.32,0-.57.58-1.45,1.16-1.73h.3v-.3c.86-.28,1.45-.86,2.03-1.45,3.77-2.32,7.26-4.93,10.16-6.97,1.45-.86,3.19-.28,4.05.88.88,1.45.58,3.19-.58,4.05-3.19,2.04-6.38,4.37-10.15,6.97-.3,0-.58.28-.88.58-.58.28-.86.58-1.45.86h0c-.3,0-.3.3-.3.3-.58.28-1.16.28-1.74.28Zm-47.31-9.86c-1.45,0-2.61-.88-2.91-2.32-.86-4.07-1.45-8.7-2.03-15.09v-.28c-.28-1.74.88-2.91,2.61-3.2,1.46-.28,2.91,1.16,3.2,2.62v.58c.28,4.93,1.16,9.86,2.03,14.21,0,.88,0,1.46-.58,2.04-.28.86-.86,1.15-1.74,1.45h-.58Zm158.48-4.93c-1.45,0-2.32-.88-2.89-2.04-1.46-4.63-3.78-8.99-6.39-12.19v-.28h0c-1.16-1.16-.86-3.2.28-4.07,1.16-.86,3.2-.86,4.07.3v.28q.3,0,.3.28c2.89,3.49,5.22,8.14,7.26,13.95.28.57.28,1.45,0,2.03-.58.86-1.16,1.45-1.74,1.45-.3.3-.58.3-.88.3Zm-78.36-6.09c-1.16,0-2.04-.58-2.32-1.46-.58-.58-.58-1.45-.3-2.32,0-.58.58-1.15,1.16-1.45,0-.28.3-.28.3-.28,4.93-2.91,9.28-5.23,13.35-6.97,1.45-.86,3.19,0,4.07,1.16.58,1.45,0,3.19-1.46,4.07-4.07,2.03-8.42,4.35-13.05,6.68,0,0-.3,0-.3.28-.28.3-.86.3-1.45.3Zm35.7-15.39c-1.46,0-2.62-.86-2.91-2.03-.58-1.74.58-3.19,2.03-3.77h.3c5.22-1.16,9.86-1.74,13.93-1.74h1.74c.86,0,1.45.28,2.03.86s.88,1.46.88,2.04c-.3,1.73-1.46,2.89-2.91,2.89h-1.74c-3.77,0-7.84.58-12.49,1.46,0,.28-.28.28-.28.28h-.58ZM2.89,59.5c-1.73,0-2.89-1.45-2.89-2.91v-15.38h0c0-1.46,1.45-2.91,2.89-2.91h0c1.74,0,2.91,1.45,2.91,3.19v15.09c0,1.46-1.45,2.91-2.91,2.91h0Zm.3-38.89c-1.45,0-2.91-1.46-2.91-2.91V2.89C.28,1.16,1.74,0,3.19,0c1.74,0,2.91,1.16,2.91,2.89v14.81c0,1.74-1.16,2.91-2.91,2.91Z"/></g></svg>