<?xml version="1.0" encoding="UTF-8" standalone="no"?><svg xmlns="http://www.w3.org/2000/svg" xmlns:xlink="http://www.w3.org/1999/xlink" contentScriptType="text/ecmascript" fill="#000000" width="63.3" zoomAndPan="magnify" contentStyleType="text/css" viewBox="16.3 16.3 63.3 63.3" height="63.3" data-name="Layer 1" preserveAspectRatio="xMidYMid meet" version="1"><g id="change1_1"><path fill="#51233c" d="M79.67,48c0,2.48-8.19,3.85-8.8,6.13s5.75,7.64,4.56,9.71-9-.81-10.7.9,1.21,9.47-.89,10.69-7.35-5.2-9.71-4.56-3.65,8.8-6.13,8.8-3.85-8.19-6.13-8.8-7.64,5.75-9.71,4.56.81-9-.9-10.7-9.47,1.21-10.69-.89,5.2-7.35,4.56-9.71-8.8-3.65-8.8-6.13,8.19-3.85,8.8-6.13-5.75-7.64-4.56-9.71,9,.81,10.7-.9-1.21-9.47.89-10.69,7.35,5.2,9.71,4.56,3.65-8.8,6.13-8.8,3.85,8.19,6.13,8.8,7.64-5.75,9.71-4.56-.81,9,.9,10.7,9.47-1.21,10.69.89-5.2,7.35-4.56,9.71S79.67,45.52,79.67,48Z"/></g></svg>