<?xml version="1.0" encoding="UTF-8" standalone="no"?><svg xmlns="http://www.w3.org/2000/svg" xmlns:xlink="http://www.w3.org/1999/xlink" contentScriptType="text/ecmascript" fill="#000000" width="701" zoomAndPan="magnify" contentStyleType="text/css" viewBox="-32.4 -18.7 701.0 2003.2" height="2003" data-name="Layer 2" preserveAspectRatio="xMidYMid meet" version="1"><g data-name="Layer 1"><g><g id="change1_1"><path fill="#51233c" d="m299.31,1803.37c-.3-1.11-4.94-5.09-5.63-4.23-3.96,31.12-18.98,108.02-62.91,98.12-21.28-4.8-19.9-40.39-18.92-57.33,3.8-66.35,23.26-138.66,31.18-205.58,1.31-11.13-3.88-28.96,8.55-34.07-52.46-134.3-60.56-273.54-82.13-414-23.43-152.63-69.86-276.21-4.01-427.22,12.11-27.76,29.8-54.92,41.41-82.62,11.33-27.04,16.98-52.57,6.51-80.89l-29.6-64.82c-14.87,48.98-32.02,97.41-46.57,146.52-18.53,62.56-40.84,135.26-51.8,199.05-3.81,22.17-7.04,44.06-1.85,66.11,5.64,23.98,23.99,47.86,26.75,71.89,7.53,65.54-58.78,45.56-83.96,5.05-58.77-94.57-4.29-209.69,20.77-305.36,20.72-79.07,32.43-159.36,38.17-240.87,3.08-43.79,3.54-68.87-13.72-110.64-8.32-20.15-35.56-54.91-31.02-75.05,7.76-34.52,86.36-37.93,113.72-35.84,35.51,2.71,67.8,21.95,101.63,31.08,17.64-.83,23.87-14.98,28.66-30.29,1.69-5.39,6.83-26.1,6.49-30.26-.48-6.07-10.23-11.83-14.25-16.95-35.49-45.28-38.16-127.87-6.91-176.03,31.06-47.85,81.25-32.26,104.25,13.85,23.31,46.74,21.71,117.37-8.73,160.58-2.31,3.28-7.01,6.07-8.31,8.59-3.89,7.56,3.2,37.89,6.28,47.35,17.16,52.83,44.14,13.56,67.03-5.02,14.36-11.67,41.69-27.39,59.79-30.41,34.08-5.67,81.23-1.26,111.65,16.83,66.78,39.67,15.26,76.76-11.67,119.79-8.46,13.5-18.53,31.35-24.47,46-26.44,65.29-20.77,173.73-15.68,243.99,7.66,105.58,38.12,210.66,13.58,317.64-7.47,32.53-36.05,93.16-74.25,95.11-9.22.47-21.18-9.78-23.19-18.83-6.1-27.48,22.11-70.35,31.9-96.71,28.15-75.8-13.62-163.95-31.73-238.88-12.54-51.92-20.65-105.17-23.26-158.56-3.67-.39-4.83,6.32-6.1,9.37-5.75,13.79-16.27,35.09-18.65,49-8.78,51.33,17.07,106.3,29.66,155.18,29.29,113.72,16.86,201.23-5.66,314.16-31.54,158.17-70.22,315.41-108.4,472,11.23,103.78,36.23,205.74,47.33,309.39,2.82,26.37,6.88,48.95,2.06,75.67-7.43,41.16-63.52,49.21-77.63,5.53-1.44-4.48-6.34-24.92-6.34-27.49v-109.92h0Z"/></g><g id="change2_1"><path fill="#f471a4" d="m485.35,1040.91c-6.39-6.3,22.57-62.89,26.75-73.29,13.28-32.95,19.2-53.19,15.68-88.94-7.12-72.31-35.87-140.78-50.2-211.93-8.49-42.11-20.77-124.86-14.73-165.55,3.5-23.59,22.77-53.82,25.37-81.72.98-10.49,2.24-24.51-10.41-26.54-11.43-1.84-8.79,19.41-10.05,25.8-11.64,58.71-41.67,105.16-60.71,159.15-26.28,74.46,3.01,121.51,21.15,191.78,24.56,95.08,19.76,165.14,2.84,260.64-18.29,103.25-46.98,206.16-67.16,309.15-13.53,1.22-27.23,7.3-40.81,8.52-26.07,2.32-60.54-1.43-86.46-6.2-20.28-3.73-26.78-1.39-30.16-23.39-6.99-45.6-10.19-92.03-17.28-137.73-11.34-73.08-30.47-146.48-36.53-219.97-5.96-72.45,5.23-137.32,36.19-203.58,25.85-55.35,65.83-102.06,44.25-167.18-16.16-48.75-48.21-96.69-52.23-150.69-.88-11.86,10.5-40.91-9.42-34.96-21.45,6.4-4.17,72.04.92,88.64-31.16,111.64-71.26,222.26-97.85,335.9-8.44,36.1-19.75,80.65-11.34,117.08,4.96,21.53,32.64,66.5,27.26,84.88-2,6.82-11.67,4.72-16.74,3.24-22.28-6.53-37.71-36.29-44.27-57.18-27.7-88.19,19.28-185.27,40.83-270.66,18.59-73.65,33.65-163.31,37.49-238.74,3.88-76.17-12.19-94.93-42-158.29-5.05-10.73-9.4-16.05,1.47-23.18,26.3-17.27,73.26-17.45,103.25-11.09,7.11,1.51,58.94,19.69,60.82,22.34,1.29,1.83,3.11,20.01,4.5,25.08,12.41,45.01,37.84,113.92,97.16,85.65,28.25-13.47,57.3-57.88,73-84.85,12.83-22.07,14.6-33.93,35.73-51.65,30.78-25.82,64.34-31.98,104.11-27.98,17.13,1.71,69.11,19.52,69.14,40.63.02,12.76-37.15,57.44-46.2,72.13-32.69,53.08-37.56,92.55-40.98,153.5-2.81,50-1.68,104.44,2.81,154.85,8.23,92.13,48.5,276.01-10.05,353.73-4.34,5.75-27.85,29.82-35.12,22.65h0Z"/></g><g id="change3_1"><path fill="#ffffff" d="m306.67,1280.87c-18.15,0-44.37-2.8-82.6-11.91-.55-.13-.89-.68-.76-1.23.13-.55.69-.88,1.23-.76,82.8,19.72,108.65,9.75,118.38,6,3.76-1.45,6.04-2.33,7.82.91.27.5.09,1.12-.4,1.39-.5.27-1.12.09-1.39-.4-.86-1.56-1.2-1.56-5.29.01-5.36,2.07-15.53,5.98-36.98,5.98Z"/></g><g id="change3_2"><path fill="#ffffff" d="m330.89,1945.13c-1.67-1.68-7.88-17.91-8.42-21.17-6.76-40.08-1.15-83.02-3.34-123.49-5.76-106.37-50.87-203.79-78.25-305.08-12.34-45.61-22.24-91.98-28.93-138.78,25.05,6.83,51.18,10.56,77.19,11.59l4.21,4.25,11.44,75.94c3.31,122.81,33.1,242.48,50.71,363.64,5.02,34.54,12.07,78.25,8.74,112.63-.74,7.67-5.14,20.99-13.2,23.42-4.76,1.43-16.78.42-20.13-2.95h0Z"/></g><g id="change3_3"><path fill="#ffffff" d="m309.69,21.08c30.53-6.87,50.02,34.31,55.97,58.56,7.05,28.72,5.69,63.27-4.98,91.08-18.97,49.47-60.19,47.83-80.46,0-14.6-34.46-16.34-78.73-2.05-113.52,4.77-11.59,18.84-33.27,31.53-36.12h0Z"/></g><g id="change3_4"><path fill="#ffffff" d="m335.95,226.32c1.13,1.49,4.94,29.78,7,36.69,6.39,21.34,18.32,41.33,42.33,42.27,3.45.13,5.71-.85,4.18,4.15-2.07,6.79-16.38,27.97-21.31,35.06-17.35,24.89-53.76,70.55-84.41,36.93-10.94-11.99-25.69-50.57-28.93-66.9-3.12-15.68-.53-10.48,9.05-12.24,34.78-6.43,42.09-46.12,46.73-75.95,3.69-.57,6.75,2.56,10.06,2.85,3.93.35,13.95-4.64,15.29-2.86h0Z"/></g><g id="change3_5"><path fill="#ffffff" d="m262.68,1638.48l9.9,25.32c2.75,20.61,18.19,52.51,18.23,72.06,0,2.78-5.55,10.05-7.11,15.25-9.12,30.28-12.9,93.82-32.26,117.13-7.61,9.16-16.09,13.86-19.22-.59-3.7-17.05,5.25-69.07,8.11-89.44,6.55-46.66,17.43-92.81,22.36-139.73h0Z"/></g><g id="change3_6"><path fill="#ffffff" d="m358.49,1362.25c2.42,2.33-15.49,56.3-14.85,65.46l-16.13,58.55c-.65-39.71-9.56-78.97-14.12-118.37,7.4,3.52,42.54-8.09,45.1-5.64h0Z"/></g><g id="change3_7"><path fill="#ffffff" d="m283.61,1237.77c-25.3,0-49.57-4-71.8-12.03-.53-.19-.81-.78-.61-1.31.19-.53.78-.81,1.31-.61,48.51,17.53,106.86,15.66,164.32-5.25.53-.19,1.12.08,1.31.61.19.53-.08,1.12-.61,1.31-31.61,11.51-63.51,17.29-93.92,17.29Z"/></g></g></g></svg>