<?xml version="1.0" encoding="UTF-8" standalone="no"?><svg xmlns="http://www.w3.org/2000/svg" xmlns:xlink="http://www.w3.org/1999/xlink" contentScriptType="text/ecmascript" fill="#000000" width="1075" zoomAndPan="magnify" contentStyleType="text/css" viewBox="-15.8 -12.4 1074.7 1240.6" height="1241" preserveAspectRatio="xMidYMid meet" version="1"><g data-name="Layer_1"><g><g id="change1_1"><path fill="#fffbf2" d="M1041.12,436.01c-2.83-9.75-17.91-8.68-19.1,1.52-6.7,46.8-17.28,89.04-26.4,132.03-38.07,185.52-105.56,367.27-120.86,554.47,3.78-208.97,95.05-406.01,130.37-621.86,30.89-171.43,44.21-234.3-139.52-288.93-72.87-34.08-18.97,32.86-61.6,145.25-16.69,52.5-37.03,101.22-60.46,144.82-34.62,67.12-66.76,92.8-116.08,23.43-30.97-37.63-59.26-76.22-91.89-112.83-2.45-2.74-6.25-3.86-9.75-2.96-16,10.42-13.19,56.71-19.02,75.44-17.35,116.53-27.25,225.99-41.16,339.64-11.89,113.95-30.5,232.77-34.38,348.78-.6,6.25,1.4,13.74,9.11,14.09,141.62,8.64,258.83,25.5,389.3,24.03,97.81,13.94,109.47-105.4,123.21-187.56,9.82-61.63,14.63-121.81,22.75-183.44,10.34-78.74,27.55-156.36,43.23-233.46,10.78-56.96,31.62-112.54,22.26-172.45Z"/></g><g id="change1_2"><path fill="#fffbf2" d="M327.05,379.32c28.19,122.31-13.86,213.73,129.67,84.4,63.32-65.85,87.89-51.94,16.44-103.38-111.64-83.83-196.15-305.47,18.07-290.67,355.21,30.68,291.63,144.57,43.98,319.81-5.23,3.45-5.55,11.59-.96,15.74,21.91,23.76,42.39,49.77,62.19,74.93,27.81,27.71,46.39,78.99,89.85,83.74,86.2-67.51,148.97-270.31,129.56-392.52-13.27-121.8-214.59-148.97-310.06-156.5-250.76-.67-208.94,174.28-178.74,364.45Z"/></g><g id="change1_3"><path fill="#fffbf2" d="M426.42,1154.27c22.53-237.32,47.1-472.46,82.08-708.03,1.96-9.1-10.1-15.65-16.59-8.75-39.44,39.48-74.66,67.8-110.97,89.2-30.84,18.16-38.1,3.08-43.8-44.82-10.07-102.96-48.02-237.3-34.38-337.08-3.56-22.42-62.43-23.58-77.87-24.94-118.4-6.53-117.27,208.39-134.23,290.41-18.67,165.24-27.64,334-63.22,495.9-20.21,122.38-43.24,271.94,138.89,269.67,83.27,4.49,165.62,5.33,248.7,11.48,16.33-.41,7.96-22.63,11.38-33.03Z"/></g><g id="change2_1"><path fill="#3d2f1f" d="M539.29,1210.47c86.86,8.52,173.72,16.9,261.12,16.84,9.93.56,19.16.86,27.73.86,70.77,0,97.54-21.27,119.77-102.51,20.44-78.33,27.85-159.07,37.23-239.24,8.29-82.79,25.58-164.05,41.96-245.53,9.36-50.69,25.89-103.85,30.34-156.08.84-12.77,1.48-25.57.33-38.34-1.46-11.99-7.63-40.41-22.27-39.97,3.99-46.05,1.36-90.35-16.07-123.89-24.38-40.6-75.49-53.59-116.53-71.27-18.41-7.17-37.03-13.75-55.85-19.77-4.26-1.27-9.34-3.38-14.21-4.22-.46-4.64-1.02-9.3-1.65-13.92-13.14-102.74-100.4-125.2-186.13-150.23-83.45-25.62-176.64-35.58-258.86-.67-40.95,6.79-62.27,29.94-78.71,66.84-4.07,9.22-7.33,19.08-9.86,29.48-.58-.19-1.17-.38-1.76-.56-.58-.69-1.27-1.34-2.07-1.96-22.67-8.44-48.12-10.95-72.32-11.14-31.7-.36-63.48,11.16-79.99,39.66-15.15,22.48-24.13,48.37-31.64,74.24-21.9,78.33-30.28,159.55-39.8,240.08-11.51,105.62-15.8,212.08-34.35,316.85C24.13,854.66,3.22,932.13.34,1011.83c-2.32,73.57,5.16,136.8,83.08,165.22,25.35,8.92,52.34,11.24,78.98,13.21,65.38,4.39,130.97,4.24,196.37,8.34,60.2,3.53,120.37,7.63,180.51,11.85ZM834.62,213.36c9.34,2.9,18.58,6.04,27.85,9.17,30.3,10.84,61.26,22.77,90.52,36.63,15.44,7.82,31.63,15.98,41.87,30.46,36.25,60.85,8.07,169.33-4.37,236.44-22.98,103.83-48.08,207.05-76.25,309.6-13.89,50.27-24.28,101.32-35.37,152.24-8.88,44.46-17.45,89.68-16.42,135.17.48,6.67,7.31,11.47,13.69,10.68,16.93-3.05,8.34-25.26,11.3-37.95,5.71-72.42,24.3-143,40.06-213.75,27.21-103.16,55.22-206.1,77.71-310.43,7.81-37.17,19.7-84.73,26.52-132.72.4,1.3.65,2.63.71,3.93,6.16,56.08-12.5,108.57-23.23,163.75-15.73,77.27-33.01,155.35-43.33,234.06-6.81,53.53-12.18,107.25-19.14,160.78-8.52,49.77-20.29,161.52-61.24,191.17-16.32,11.01-36.88,10.41-55.81,10.51-25.78-.1-51.55-.75-77.31-1.42-51.8-.9-103.43-5.12-154.95-10.51-51.95-4.93-104.2-8.74-156.5-12.08.82-2.79.63-5.94-1.12-9.06,11.24-149.52,30.74-298.23,47.74-447.25,8.5-78.44,17.32-156.9,28.94-234.94,3.46-22.48,6.61-45.15,11.77-67.32,29.28,32.67,55.41,68.08,83.17,102.02,15.94,19.18,29.9,40.64,53.47,51.97,42.19,20.77,69.39-37.11,87.15-66.34,25.14-46.74,45.22-96.16,61.3-146.72,15.42-47.51,23-98.04,21.25-148.1ZM332.75,93.38c10.72-22.69,27.94-42.9,54.24-45.38,76.52-32.85,162.48-27.98,241.04-3.99,73.21,22.15,165.92,38.28,178.09,128.65,17.61,105.87-20.54,210.89-65.78,305.11-12.87,22.11-32.7,68.3-57.25,76.81-19.27-3.74-31.36-22.09-43.36-36.15-32.99-39.72-63.23-81.91-98.25-119.89-.29-.31-.56-.61-.82-.9,56.17-37.36,108.8-80.28,155.33-129.19,57.11-60.59,90.41-124.43-6.33-165.53-62.14-26.93-130.28-43.09-198.42-43.09-16.67,0-33.35.98-49.92,2.99-58.8,4.45-100.82,46.16-93.09,106.81,8.23,51.9,31.84,101.13,62.54,143.46,15.82,20.92,35.96,38.38,56.21,54.85,13.35,10.91,26.87,21.65,41.06,31.47-3.03,3.26-6.1,6.92-9.4,10.43-15.23,16.44-31.74,31.63-48.45,46.55-27.16,22.92-55.52,49.73-89.39,63.04-10.85-24.01-9.32-53.2-14.15-79.05-2.9-20.96-6.39-41.83-9.9-62.7-11.97-81.49-41.37-209.68-3.99-284.31ZM166.99,1166.03c-26.18-2.05-50.65-3.57-76.1-12.35-50.77-19.27-64.38-54.81-65.76-105.83-2.28-46.18,4.03-94.34,12.01-140,14.79-78.82,29.55-157.82,37.97-237.62,8.17-79.73,13.23-159.74,22.88-239.31,10.05-79.5,18.56-160.33,45.66-236.19,9.01-21.48,18.89-45.49,40.16-57.69,13.18-5.35,27.04-7.36,41.08-7.36,15.23,0,30.67,2.38,45.59,5.47,1.55,1.13,3.39,1.9,5.35,2.17,5.75,1.99,11.45,4.16,17.2,6.16-14.1,103.16,25.8,244.95,34.33,339.29,3.51,37.05,12.83,80.28,58.69,52.32,41.68-24.54,78.63-56.5,112.86-90.76-16.23,86.3-23.57,174.36-34.14,261.46-14.35,132.83-32.95,265.18-43.92,398.38-1.63,20.12-3.43,40.26-5.2,60.38-.54,4.12-.96,8.85.03,12.98-30.88-1.88-61.77-3.64-92.6-5.37-51.99-2.49-104.12-2.68-156.1-6.12Z"/></g></g></g></svg>