<?xml version="1.0" encoding="UTF-8" standalone="no"?><svg xmlns="http://www.w3.org/2000/svg" xmlns:xlink="http://www.w3.org/1999/xlink" contentScriptType="text/ecmascript" fill="#000000" width="866" zoomAndPan="magnify" contentStyleType="text/css" viewBox="-0.2 -0.4 866.4 688.5" height="688" data-name="Layer 2" preserveAspectRatio="xMidYMid meet" version="1"><g id="change1_1" data-name="Layer 1"><path d="m462.49,688.02h-2.61c-.88,0-1.76-.57-2.04-1.16-.57-.57-.88-1.16-.88-2.04,0-1.45,1.16-2.89,3.2-2.61h2.32c4.05,0,8.14-.57,11.9-1.45,1.45-.28,3.17.6,3.49,2.32.28,1.45-.6,2.89-2.04,3.49-4.65.88-9.01,1.45-13.35,1.45Zm-402.3-4.65h-2.61c-1.45-.28-2.61-1.45-2.61-3.17,0-1.47,1.16-2.92,3.2-2.64h.57c3.77.6,8.14-.28,11.9-2.01h0s.28,0,.28-.28h.28s.31-.31.6-.31c1.45-.57,2.89.31,3.49,1.45.57,1.47,0,3.2-1.16,4.08h-.6s-.28.28-.57.28h0c-4.08,1.76-8.42,2.61-12.78,2.61Zm376.76-.28c-.31,0-.6-.28-.88-.28-4.65-1.76-9.3-3.77-13.95-6.09h-.28v-.31c-1.45-.57-2.01-2.3-1.45-3.77.88-1.45,2.61-2.01,4.05-1.16h.31c4.34,2.32,8.7,4.37,13.35,5.81,1.45.6,2.01,2.32,1.73,3.77-.57,1.16-1.73,2.04-2.89,2.04Zm197.93-5.53h-.28c-4.93-.85-9.86-2.01-15.08-4.05h-.6v-.28c-.88-.28-1.16-.88-1.45-1.45-.28-.6-.28-1.47,0-2.04.57-1.45,2.32-2.32,3.77-1.73h.28c4.37,1.73,9.01,3.17,13.66,3.77.85,0,1.45.57,2.01,1.16.31.57.6,1.45.6,2.01-.28,1.45-1.45,2.61-2.92,2.61Zm-138.72-.85c-.88,0-1.76-.6-2.32-1.16-.28-.6-.6-1.45-.28-2.32,0-.6.28-1.45,1.13-1.76,0,0,0-.28.31-.28,3.49-2.61,6.94-5.5,11.03-9.3.88-1.13,2.89-1.13,4.05,0,1.16,1.16,1.16,2.92,0,4.08-4.05,3.77-7.82,7.26-11.9,9.86h0v.28h-.28c-.28.28-.88.6-1.73.6Zm162.25-.31c-1.45,0-2.61-.85-2.92-2.3-.57-1.47.6-3.2,2.04-3.49h.28c4.37-1.16,8.73-2.61,13.66-4.93,1.16-.6,3.17,0,3.77,1.45.57,1.45,0,3.17-1.45,3.77-4.96,2.32-9.89,4.05-14.51,5.22l-.31.28h-.57Zm-620.87-3.77c-.85,0-1.73-.28-2.3-1.16h0l-.31-.28c-3.17-4.34-5.5-9.3-6.38-14.8-.28-1.76.88-3.2,2.61-3.49,1.45,0,2.92.88,3.2,2.61.57,4.37,2.32,8.42,5.22,11.9v.28h.28v.31c.88,1.13.6,2.89-.28,4.05-.57.28-1.45.57-2.04.57Zm56.32-2.61c-1.16,0-2.04-.57-2.61-1.45-.28-.88-.6-1.45-.28-2.32.28-.88.85-1.45,1.45-1.73,3.17-1.76,6.66-3.49,9.86-5.24.88-.57,2.04-1.16,3.2-1.73h0c.28,0,.28-.28.57-.28,1.16-.6,2.92,0,3.77,1.45.6,1.16.28,2.89-1.16,3.77h0c-.28,0-.28.28-.28.28-3.2,1.76-6.66,3.49-9.86,5.24l-3.49,1.73c-.28.28-.88.28-1.16.28Zm308.82-4.93c-.57,0-1.16-.28-1.73-.57-3.77-2.64-7.85-5.24-12.19-8.42h-.28v-.31c-.88-.28-1.16-1.16-1.47-1.73,0-.88,0-1.45.6-2.04.88-1.45,2.89-1.73,4.05-.85h.31v.28q.28,0,.57.28c3.49,2.61,7.54,5.22,11.62,7.85,1.45.85,1.73,2.61.85,4.05-.57.88-1.45,1.45-2.32,1.45Zm197.08-2.89c-.85,0-1.45-.31-1.73-.6-4.05-2.89-8.14-6.38-11.62-9.86l-.28-.28q-.28,0-.28-.28c-.6-.31-.88-1.16-.88-1.76,0-.88.28-1.45.88-2.04,1.16-1.13,2.89-1.13,4.05-.28l.28.28-.28.31.28-.31c3.8,3.49,7.57,6.69,11.05,9.58,1.45.88,1.73,2.64.85,4.08-.57.57-1.45,1.16-2.32,1.16Zm92.6-3.49c-.88,0-1.45-.6-2.04-1.16-.57-.6-.85-1.16-.85-2.04s.57-1.45,1.13-2.01h0s0-.31.31-.31c3.49-2.89,6.66-6.38,9.86-10.15.88-1.16,2.89-1.45,4.05-.6,1.16,1.16,1.45,2.92.6,4.08-3.49,4.34-6.97,7.82-10.74,11.31h-.28l-.31.28c-.28.31-1.16.6-1.73.6Zm-564.55-7.54c-1.16,0-2.04-.6-2.61-1.47-.28-.57-.6-1.45-.28-2.01.28-.88.57-1.45,1.45-1.76l3.77-2.32c2.89-1.73,5.81-3.77,8.99-5.5h.31c1.16-.88,3.17-.6,3.77.88.57.57.57,1.45.57,2.01-.28.88-.85,1.45-1.45,2.04h-.28c0,.28-.28.28-.28.28-3.77,2.32-8.14,4.93-12.5,7.54-.28,0-.85.31-1.45.31Zm395.61-2.32c-.57,0-1.45,0-1.73-.6-1.45-.88-1.76-2.61-.6-4.05h0c3.2-4.08,5.81-8.14,8.42-12.19.88-1.16,2.92-1.76,4.08-.88,1.45.88,1.73,2.61.85,4.05-2.61,4.08-5.5,8.14-8.42,12.19l-.28.31h0v.28h-.28c-.6.57-1.16.88-2.04.88Zm-152.38-6.41c-.57,0-1.16,0-1.73-.57-3.2-2.32-6.09-4.37-9.3-6.97l-2.61-2.04h0s-.28,0-.28-.28h0c-.88-.28-1.16-1.16-1.16-1.73-.28-.88,0-1.76.57-2.32.88-1.16,2.61-1.45,4.08-.6,0,.31.28.31.28.31,3.49,2.89,7.26,5.5,11.9,8.99,1.16,1.16,1.45,2.89.57,4.05-.57.88-1.45,1.16-2.32,1.16Zm-334.07-6.09c-.57,0-1.16,0-1.45-.28-1.45-.88-2.04-2.61-1.16-4.05h0v-.28c2.61-4.65,4.93-9.01,7.26-13.07.88-1.45,2.61-1.76,4.05-1.16.6.57,1.16,1.16,1.45,1.73,0,.88,0,1.45-.28,2.32-2.32,3.77-4.65,7.85-7.26,12.78v.28q0,.28-.28.28c-.6.88-1.45,1.45-2.32,1.45Zm535.24-1.73c-.88,0-1.76-.6-2.32-1.16-3.2-4.37-6.09-8.42-8.73-12.19q0-.28-.28-.28v-.31c-.28-.57-.57-1.45-.28-2.01,0-.88.57-1.45,1.16-1.76,1.45-.85,3.2-.57,4.05.88h0s.31,0,.31.28c2.89,4.37,5.78,8.42,8.39,11.9.88,1.16.88,3.2-.57,4.05-.28.31-1.16.6-1.73.6Zm-411.31-3.77c-.85,0-2.01-.6-2.3-1.45-.6-.6-.6-1.47-.6-2.04.28-.88.6-1.45,1.45-2.04,3.77-2.32,8.14-5.22,12.5-7.82l.28-.28c1.16-.88,2.89-.31,3.77.85s.57,3.2-.6,4.08l-.28.28c-4.34,2.61-8.42,5.22-12.76,8.14-.31.28-.88.28-1.47.28Zm554.68-3.2c-.28,0-.88,0-1.16-.28-.57-.28-1.16-.88-1.45-1.45-.28-.6-.28-1.45,0-2.32l.28-.28c2.04-4.37,4.08-9.01,5.53-13.35.57-1.47,2.32-2.32,3.77-1.76.57,0,1.16.6,1.73,1.45.31.6.31,1.45,0,2.04-1.73,4.93-3.49,9.58-5.78,14.23h0c0,.28-.31.28-.31.28-.57.88-1.45,1.45-2.61,1.45Zm-375.29-8.99c-.88,0-1.45,0-2.04-.6l-2.32-2.01c-3.17-2.32-6.09-4.65-9.27-6.97l-.31-.28h0c-1.16-.88-1.45-2.92-.57-4.08s2.89-1.45,4.05-.57c.28,0,.28.28.28.28,3.8,2.89,7.57,5.81,11.9,9.3,1.16.85,1.45,2.61.28,4.05-.28.57-1.13.88-2.01.88Zm204.06-2.32c-.6,0-1.16-.28-1.47-.6-.85-.28-1.16-.85-1.45-1.73-.28-.6,0-1.45.28-2.04v-.28h.31c2.01-3.77,4.34-8.14,6.94-13.07.6-1.45,2.32-2.04,3.77-1.16,1.47.6,2.04,2.32,1.47,3.77-2.92,5.53-5.24,9.58-7.26,13.35h0l-.31.31c-.28.85-1.45,1.45-2.3,1.45Zm-350.94-6.97c-1.16,0-2.01-.57-2.61-1.16-.28-.88-.57-1.45-.28-2.32,0-.57.57-1.45,1.16-1.73l4.65-3.49c2.61-1.76,4.93-3.2,7.54-4.93h0v-.28q.28,0,.57-.31c1.16-.57,2.92-.28,3.8.88.57.57.57,1.45.57,2.04-.28.85-.57,1.45-1.16,2.01l-.28.31h0l-1.45.85c-3.77,2.61-7.26,5.24-11.03,7.57-.31.28-.88.57-1.47.57Zm-136.4-6.09c-.6,0-1.16-.28-1.47-.57-.85-.6-1.16-1.16-1.45-2.04,0-.6.28-1.45.6-2.04h0l.28-.28c2.61-3.77,5.81-7.85,9.3-11.9.85-1.16,2.89-1.45,4.05-.28.57.28,1.16,1.16,1.16,2.04,0,.57-.28,1.45-.88,2.01-2.89,3.2-5.81,6.97-8.99,11.34v.28h-.31v.28c-.57.6-1.45,1.16-2.3,1.16Zm671.04-1.45h-.57c-.28,0-.88,0-2.04-.88-.85-1.16-.85-1.73-.85-2.32v-.28c0-1.16,0-2.89.28-4.65,0-1.16.28-2.32.28-3.2v-.28c0-1.73,1.16-2.89,2.89-2.89h0c1.76,0,2.92,1.45,2.92,2.89v.88c-.28,1.16-.28,2.61-.28,3.77-.31.88-.31,1.73-.31,2.61.31.6.6.88.6,1.45,0,1.76-1.45,2.92-2.92,2.92Zm-418.54-6.97c-.85,0-1.45,0-1.73-.57-4.05-2.92-7.85-5.81-11.9-9.01h-.28c-.6-.57-.88-1.16-1.16-2.04,0-.85,0-1.45.57-2.01.88-1.45,2.92-1.76,4.08-.6h.28c4.37,3.49,8.14,6.41,11.9,9.3,1.16.88,1.45,2.61.57,3.77-.57.88-1.45,1.16-2.32,1.16Zm-84.44-7.82c-.88,0-1.76-.6-2.32-1.47-.6-.57-.6-1.16-.6-2.01.28-.88.6-1.47,1.16-1.76,3.77-2.89,7.54-5.81,11.9-8.99h.28q0-.28.28-.28c1.16-.88,2.92-.6,3.8.57,1.13,1.45.85,3.2-.6,4.05v.31h0c-2.61,1.73-4.93,3.49-7.26,5.22-1.73,1.45-3.2,2.61-4.93,3.77-.6.28-1.16.6-1.73.6Zm-142.24-12.78c-.88,0-1.45-.28-2.04-.88s-.85-1.45-.85-2.32c0-.57.57-1.45,1.13-1.73v-.28h.31c0-.31.28-.31.28-.6,3.77-3.17,7.54-6.09,11.31-8.99,1.47-.88,3.2-.6,4.08.57,1.16,1.45.85,3.2-.6,4.08-4.05,3.17-7.82,6.09-11.31,9.27h-.28v.31h-.31c-.28.28-1.16.57-1.73.57Zm195.04-1.73c-.57,0-1.16,0-1.73-.31-4.37-2.89-8.7-5.22-12.78-7.26,0,0-.28,0-.28-.28h0c-1.45-.88-2.04-2.32-1.16-3.77.57-1.45,2.32-2.04,3.77-1.45,0,0,0,.28.28.28h0c5.24,2.61,9.89,5.53,13.35,7.54,1.16.6,1.76,2.32.88,3.77-.57.88-1.45,1.47-2.32,1.47Zm-21.77-9.01c-.88,0-1.73-.28-2.32-.88-.28-.85-.57-1.73-.28-2.32,0-.85.28-1.45.88-1.73,2.01-1.73,4.05-3.2,6.09-4.65,1.73-1.45,3.77-3.17,5.81-4.65l.28-.28c1.16-.88,2.89-.57,4.05.6.88,1.16.6,3.17-.57,4.05l-.31.28c-3.77,2.92-7.82,6.09-11.88,9.01-.31.57-.88.57-1.76.57Zm-13.07-8.42c-.57,0-.85,0-1.16-.28-4.62-1.76-9.27-3.49-13.63-4.93-.28,0-.28-.28-.57-.28h0c-.6-.31-1.16-.6-1.76-1.47-.28-.57-.28-1.45,0-2.01.6-1.76,2.32-2.61,3.77-2.04q0,.28.31.28h.28c4.34,1.45,8.99,3.2,13.92,5.24.6.28,1.16.85,1.47,1.45.28.88.28,1.45,0,2.32-.6,1.16-1.47,1.73-2.64,1.73Zm-127.98-2.32c-1.16,0-2.04-.57-2.64-1.73-.28-.6-.28-1.45,0-2.32,0-.6.6-1.16,1.47-1.45h0v-.31h.28c4.93-2.3,9.58-4.05,13.92-5.5,1.47-.6,3.2,0,3.77,1.73.6,1.47-.28,3.2-1.73,3.49-4.37,1.76-8.99,3.49-13.35,5.53-.28,0-.28.28-.28.28h-.28c-.31.28-.6.28-1.16.28Zm90.85-9.27h-.6c-4.65-.88-9.58-1.76-14.51-2.32h-.28c-.88-.31-1.73-.6-2.04-1.16-.57-.6-.57-1.47-.57-2.04.28-1.73,1.45-2.61,3.17-2.61h.6c5.81.88,10.46,1.73,14.8,2.61,1.45.28,2.61,1.73,2.32,3.2-.28,1.45-1.45,2.32-2.89,2.32Zm-54-2.04c-1.16,0-2.61-1.16-2.61-2.32-.28-1.73.57-3.2,2.32-3.49h.57c4.65-.57,9.58-1.16,15.11-1.45h0c1.45,0,2.89,1.45,2.89,2.89,0,1.76-1.16,2.92-2.89,2.92-4.65.28-9.58.57-14.23,1.45h-1.16Zm134.98-1.76c-.88,0-1.76-.57-2.32-1.16-.6-.57-.6-1.45-.6-2.01,0-.88.6-1.45,1.16-2.04,3.77-3.2,7.54-6.09,11.62-9.3l.28-.28c1.16-.88,2.89-.88,4.05.6.88,1.16.88,2.89-.28,4.05l-.57.28c-3.49,2.61-6.97,5.53-10.18,8.14l-1.45,1.16c-.57.28-1.16.57-1.73.57Zm30.19-24.66c-.88,0-1.76-.28-2.32-.88-.31-.57-.6-1.45-.6-2.32,0-.57.6-1.45,1.16-1.73l3.49-2.89c2.61-2.32,5.22-4.37,7.85-6.69h0l.28-.28c1.16-.88,3.17-.88,4.05.28.6.6.88,1.45.88,2.32-.28.57-.6,1.45-1.16,1.73l-.28.31s0,.28-.31.28c-1.45,1.16-2.89,2.32-4.34,3.77-2.32,1.73-4.65,3.77-6.97,5.53-.28.57-1.16.57-1.73.57Zm29.88-24.97c-.85,0-1.73-.28-2.32-.85-.57-.6-.57-1.47-.57-2.04,0-.88.28-1.45.88-2.04,2.61-2.01,4.93-4.34,7.54-6.38,1.16-1.16,2.61-2.32,3.77-3.2l.28-.28c1.16-1.16,3.2-1.16,4.37.28.28.6.57,1.16.57,2.04,0,.6-.57,1.45-1.16,2.04h0v.28l-.57.28c-1.45,1.16-2.92,2.32-4.37,3.77-2.32,1.76-4.34,3.77-6.66,5.53-.6.57-1.16.57-1.76.57Zm29.62-25.23c-.88,0-1.76-.31-2.32-1.16-.6-.6-.88-1.16-.6-2.04,0-.88.31-1.45.88-2.04,2.04-1.73,4.37-3.77,6.38-5.5,1.76-1.47,3.2-2.92,4.93-4.37h.31c.85-1.16,2.89-.88,4.05.28.88,1.16.88,2.92-.28,4.08h-.28v.28c-2.64,2.04-4.93,4.05-7.26,6.09-1.47,1.16-2.64,2.32-4.08,3.49-.57.57-1.16.88-1.73.88Zm29.03-25.85c-.88,0-1.76-.28-2.04-.88-1.16-1.16-.88-3.17.28-4.05,1.16-1.16,2.04-2.04,3.2-3.2,2.61-2.3,5.22-4.34,7.82-6.66q0-.28.31-.28h0l.28-.31c1.16-.85,2.89-.57,3.77.6s.88,2.89-.28,4.05l-3.2,2.61c-2.61,2.64-5.5,4.96-8.14,7.57-.57.28-1.45.57-2.01.57Zm29.03-25.82c-.88,0-1.76-.28-2.32-.88-.6-.57-.6-1.45-.6-2.32,0-.57.31-1.45.88-1.73,1.76-1.76,3.77-3.49,5.53-4.93,1.73-1.76,3.49-3.49,5.5-4.93v-.31h0v.31-.31h.28c1.16-1.16,3.2-1.16,4.08,0,1.16,1.16.88,2.92-.28,4.08v.28h0c-4.08,3.49-7.85,6.97-11.34,10.15-.28.31-1.16.6-1.73.6Zm28.74-26.13c-.88,0-1.76-.28-2.04-.88-.6-.57-.88-1.45-.88-2.3,0-.6.28-1.47.88-1.76,1.73-1.73,3.49-3.2,5.22-4.65,1.76-1.73,3.77-3.77,5.81-5.5l.28-.31h0c1.16-.85,3.2-.85,4.08.31,1.16,1.16.85,2.89-.31,4.05h0v.28c-.28,0-.57.31-.57.31-2.61,2.3-5.22,4.62-7.85,7.26l-2.61,2.3c-.57.6-1.16.88-2.01.88Zm28.71-26.42c-.85,0-1.73-.28-2.32-.85-.57-.6-.57-1.16-.57-2.04s.28-1.45.88-2.04c3.49-3.17,7.26-6.66,10.74-9.86l.57-.28v-.28c1.16-.88,2.89-.88,4.05.28.6.57.88,1.45.6,2.04,0,.85-.28,1.45-.88,2.01l-.28.28c-3.2,3.2-6.69,6.12-9.86,9.3l-1.16.88c-.28.57-1.16.57-1.76.57Zm28.46-26.11c-.88,0-1.45-.6-2.04-.88-.57-.57-.88-1.45-.88-2.32s.31-1.45,1.16-2.04c2.64-2.3,5.24-4.62,7.85-7.26l3.2-2.89c1.13-1.16,3.17-.88,4.05,0,1.16,1.16,1.16,2.89,0,4.05l-.28.31c-2.64,2.32-4.93,4.62-7.26,6.66l-3.77,3.49c-.6.6-1.16.88-2.04.88Zm28.74-26.42c-.88,0-1.76-.28-2.32-.88-.88-1.16-.88-3.17.28-4.05,2.04-2.04,4.37-4.08,6.38-6.09,1.45-1.45,3.2-2.92,4.65-4.08l.28-.28c1.16-1.16,2.92-.88,4.08,0,.85,1.16.85,3.2-.31,4.37h-.28c-1.73,1.73-3.49,3.49-5.5,5.22-1.76,1.76-3.49,3.2-5.24,4.93-.57.6-1.45.88-2.01.88Zm28.43-26.42c-.57,0-1.45-.28-2.04-.88-1.16-1.16-1.16-2.89.31-4.05,2.01-2.04,4.34-4.05,6.66-6.09,1.45-1.45,2.92-2.61,4.37-4.05v-.31h.28c1.16-.85,2.89-.85,4.05.31.88,1.16.88,2.89-.28,4.05,0,0,0,.28-.28.28l-3.2,2.92c-2.61,2.32-5.22,4.62-7.82,7.26-.6.28-1.16.57-2.04.57Zm29.03-26.13c-.88,0-1.73-.28-2.32-.85-.57-.6-.88-1.45-.88-2.32.31-.6.6-1.45,1.16-1.76,2.64-2.61,5.53-4.93,8.14-7.54l3.2-2.89c1.16-.88,3.17-.88,4.05.28,1.16,1.45,1.16,3.2-.28,4.05v.31h0q-.28.28-.6.28c-1.45,1.45-3.17,3.17-4.93,4.65-2.01,1.73-3.77,3.49-5.78,5.22-.6.28-1.16.57-1.76.57Zm29.03-25.82c-.88,0-1.73-.57-2.32-1.16s-.88-1.16-.57-2.04c0-.85.28-1.45.85-2.01l3.49-2.92c2.61-2.32,5.24-4.62,7.85-6.94h0s.28,0,.28-.31c1.16-.85,2.89-.85,4.05.6.88,1.16.88,2.89-.28,4.05h0q-.28,0-.28.28c-3.77,2.92-7.54,6.41-11.31,9.58-.6.6-1.16.88-1.76.88Zm40.33-9.86h0c-5.78,0-10.43-.28-14.8-.28h-.57c-1.45-.31-2.61-1.76-2.61-3.2s1.16-2.61,2.89-2.61h.28c5.24,0,10.18.28,14.8.28,1.76,0,2.92,1.16,2.92,2.92,0,1.45-1.16,2.89-2.92,2.89Zm23.81,0c-.88,0-1.45-.28-2.04-.88s-.85-1.16-.85-2.01.28-1.47.57-2.04c.6-.6,1.45-.88,2.32-.88h.28c4.37-.28,9.3-.28,14.82-.57h0c1.45,0,2.89,1.16,2.89,2.89.28,1.45-1.16,2.89-2.61,2.89-5.22.31-10.18.31-15.11.6h-.28Zm-62.7-1.45h0c-3.17-.28-6.09-.28-9.27-.6-2.04,0-3.77-.28-5.53-.28h-.57v-.28c-.88,0-1.47-.28-2.04-.88-.28-.57-.6-1.45-.6-2.04.31-1.73,1.16-2.89,3.2-2.61h3.2c3.77.28,7.82.6,11.9.88.85,0,1.45.28,2.01.88.6.57.88,1.45.88,2.32-.28,1.45-1.45,2.61-3.2,2.61Zm101.3-.6c-1.45,0-2.61-1.16-2.89-2.61,0-1.73,1.16-3.2,2.89-3.2h.28c5.53-.57,10.46-1.13,14.51-1.45,2.04-.28,3.2.88,3.49,2.32,0,.88-.28,1.76-.57,2.32-.6.6-1.16.88-2.04.88-5.22.88-10.46,1.16-14.8,1.73h-.88Zm-139.91-2.32h-.28c-4.65-.57-9.3-1.16-14.8-1.73h-.6c-.57,0-1.45-.6-1.73-1.16-.57-.6-.57-1.45-.57-2.04,0-1.73,1.45-2.89,3.17-2.61h.28c4.93.6,9.89,1.16,14.82,1.76,1.73,0,2.61,1.45,2.61,3.17-.28,1.45-1.45,2.61-2.92,2.61Zm178.8-2.61c-1.73,0-2.89-1.16-3.17-2.61,0-.57,0-1.45.57-2.04.6-.57,1.16-1.16,1.76-1.16.28,0,.57,0,.57-.28h.28c4.37-.88,9.3-1.73,14.23-2.89,1.16-.28,2.89.57,3.2,2.32.57,1.45-.6,2.89-2.04,3.17-4.37,1.16-9.3,2.32-14.8,3.2v-.28.28h-.31c0,.28-.28.28-.28.28Zm-217.41-2.01h-.28c-4.34-.6-8.99-1.16-14.8-2.04h-.57c-.6-.28-1.47-.6-1.76-1.16-.57-.88-.57-1.45-.57-2.32.28-1.16,1.45-2.32,2.89-2.32h.88c5.22.88,10.15,1.45,14.51,2.04.85.28,1.45.57,2.01,1.16.6.57.6,1.45.6,2.01-.28,1.47-1.45,2.64-2.92,2.64Zm-38.29-5.81h-.6c-4.34-.6-9.58-1.45-14.51-2.32h-.28s-.28-.28-.57-.28c-1.47-.31-2.32-1.76-2.04-3.2.28-1.76,2.04-2.61,3.2-2.32h.28q0-.28.28,0c5.81.88,10.46,1.73,14.51,2.32,1.73.28,2.61,2.04,2.32,3.49-.28,1.45-1.45,2.32-2.61,2.32Zm143.37-.88c-.85,0-1.73-.28-2.32-.88-.28-.57-.57-1.45-.57-2.32,0-.57.28-1.45,1.16-2.01,2.32-1.76,4.65-3.77,6.97-5.81l4.65-3.77v-.28c1.13-.88,3.17-.6,4.05.57.88,1.16.88,2.89-.28,4.05q-.31,0-.31.31c-4.05,3.17-8.11,6.66-11.59,9.58-.6.28-1.16.57-1.76.57Zm149.77-1.16c-1.16,0-2.32-.88-2.89-2.04-.28-.57,0-1.45.28-2.01.28-.6.88-1.16,1.45-1.47q.28-.28.6-.28c4.65-1.73,9.27-3.49,13.35-5.5,1.45-.6,3.17,0,3.77,1.45.88,1.45.28,2.89-1.16,3.77-4.37,2.04-9.3,4.05-14.23,5.81h-.28c-.28.28-.6.28-.88.28Zm-331.47-4.93h-.57c-3.77-.6-7.57-1.45-11.34-2.32l-3.17-.57h-.6c-1.45-.31-2.61-2.04-2.32-3.49.28-1.47,2.04-2.61,3.49-2.32.6.28.28,0,.6.28,3.46.57,6.94,1.45,10.43,2.04l4.08.85c.57,0,1.16.31,1.73,1.16.28.6.6,1.47.6,2.04-.31,1.45-1.76,2.32-2.92,2.32Zm-38.01-7.85c-.31,0-.6-.28-.88-.28l-2.04-.28c-4.05-.88-8.11-2.04-12.47-2.89h0c-.28,0-.28-.31-.28-.31-.88,0-1.45-.57-1.76-1.16-.28-.57-.57-1.45-.28-2.01.28-1.76,1.73-2.61,3.49-2.32h.28c4.93,1.16,9.86,2.32,14.51,3.49,1.45.28,2.61,1.73,2.04,3.49-.28,1.16-1.45,2.3-2.61,2.3Zm403.15-5.78c-.57,0-1.45-.31-2.04-.88-.57-.6-.85-1.16-.57-2.04,0-.85.28-1.45.88-2.01,0,0,0-.31.28-.31h0c3.77-3.17,6.66-6.94,8.99-10.74.6-1.13,2.61-1.73,3.77-.85,1.47.85,2.04,2.61,1.16,4.05-2.61,4.05-5.78,8.14-10.15,11.9v.28h-.6c-.28.6-.85.6-1.73.6Zm-441.19-3.49h-.57c-3.2-.88-6.09-1.76-9.3-2.32l-5.22-1.45h-.28v-.31c-1.47-.28-2.32-1.73-2.04-3.46.28-1.47,2.04-2.32,3.49-2.04h.28c3.49,1.16,6.97,2.04,10.15,2.89,1.47.31,2.92.6,4.37,1.16.57,0,1.45.6,1.73,1.16.31.6.6,1.45.31,2.32-.31,1.16-1.47,2.04-2.92,2.04Zm287.64-1.45c-.88,0-1.73-.6-2.04-1.16-.57-.6-.85-1.47-.85-2.04.28-.88.57-1.45,1.16-2.04,1.16-.85,2.01-1.73,3.17-2.61,2.61-2.04,5.53-4.34,8.42-6.38v-.28h.28q0-.31.31-.31c1.16-.85,2.89-.57,4.05.6.28.57.6,1.45.6,2.04-.31.85-.6,1.45-1.16,2.01q-.31,0-.31.28s-.28,0-.28.31l-4.05,3.17c-2.61,1.76-4.93,3.77-7.54,5.81-.31.28-.88.6-1.76.6Zm-325.09-8.73h-.85c-4.08-1.16-8.42-2.61-14.23-4.05,0-.28-.28-.28-.28-.28-.88-.28-1.47-.6-1.76-1.45-.28-.6-.57-1.47-.28-2.04.57-1.45,2.04-2.61,3.77-2.04h.28c4.65,1.45,9.3,2.92,14.23,4.37,1.45.28,2.32,2.04,2.04,3.49-.31,1.16-1.47,2.01-2.92,2.01Zm-37.13-11.03c-.31,0-.6,0-.88-.28-3.2-.88-6.09-1.73-9.3-2.89-1.45-.6-3.17-.88-4.93-1.47l-.28-.28h0c-.88-.28-1.45-.88-1.76-1.45-.28-.57-.28-1.45,0-2.04.31-1.73,2.04-2.32,3.49-2.01,0,0,.31,0,.31.28,4.34,1.16,8.7,2.61,14.2,4.34,1.45.6,2.32,2.32,2.04,3.8-.6,1.16-1.73,2.01-2.89,2.01Zm393.29-4.05c-1.16,0-1.76-.28-2.32-1.16-1.16-1.45-.6-3.2.57-4.05,3.77-2.64,7.57-5.53,12.19-8.73h.31s0-.28.28-.28c1.16-.57,2.89-.28,3.77.88.28.57.57,1.45.57,2.32-.28.57-.57,1.45-1.45,1.73h0v.28h-.28c-3.2,2.32-6.66,4.65-10.46,7.26l-1.45,1.16c-.57.31-1.16.6-1.73.6Zm137.27-5.22c-1.73,0-2.89-1.16-3.17-2.64h0v-.57c-.6-3.77-1.76-8.14-3.77-12.78v-.28h0c-.88-1.73-.31-3.49,1.13-4.05,1.47-.6,3.49,0,4.08,1.45v.28l.28.28c2.04,4.96,3.49,9.58,4.05,14.51v.31h0c.31,1.73-.85,3.17-2.3,3.49l-.31-.6v.6h0Zm-567.44-2.92c-.28,0-.57,0-.88-.28-3.17-.88-6.09-2.04-8.99-2.89-1.76-.6-3.49-1.47-5.22-2.04h-.31c-.85-.28-1.45-.88-1.73-1.45-.28-.88-.28-1.47,0-2.32.57-1.45,2.04-2.32,3.49-1.76h.57c2.32,1.16,4.93,2.04,7.57,2.92,2.01.57,4.34,1.45,6.38,2.01.57.31,1.45.88,1.73,1.76.28.57.28,1.45,0,2.04-.28,1.13-1.45,2.01-2.61,2.01Zm-36.57-13.07c-.6,0-.88-.28-1.16-.28-2.61-1.16-5.53-2.04-8.14-3.17-2.04-.6-3.77-1.47-5.5-2.04h-.31l-.28-.28h0c-1.45-.6-2.32-2.32-1.73-3.8.57-1.45,2.32-2.3,3.77-1.73.28.28.57.28.57.28,2.32.88,4.93,2.04,7.26,2.92,2.04.85,4.37,1.45,6.41,2.32,1.45.57,2.3,2.32,1.73,3.77-.28,1.16-1.45,2.01-2.61,2.01Zm498.93-.28c-1.16,0-2.01-.57-2.61-1.45-.85-1.45-.28-3.2,1.16-4.05,5.24-3.2,9.3-5.53,13.07-7.57h.28v-.28c1.45-.57,3.2,0,4.08,1.45.57,1.47,0,2.92-1.47,3.77,0,0,0,.31-.28.31-3.77,2.01-8.14,4.65-12.76,7.26-.31.28-.88.57-1.47.57Zm-535.21-13.92c-.28,0-.6,0-1.16-.31h0c-4.65-1.73-9.3-3.77-13.63-5.5l-.6-.28c-.57-.31-1.16-.88-1.45-1.47-.28-.85-.28-1.73,0-2.32.57-1.45,2.32-2.3,3.77-1.45h.28c.31,0,.6,0,.6.31,2.32.85,4.93,2.01,7.26,2.89,2.01.88,4.05,1.73,6.09,2.61.57.28,1.16.6,1.45,1.45.28.6.28,1.45,0,2.32s-1.45,1.76-2.61,1.76Zm621.43-2.92c-.6,0-1.16-.28-1.47-.57-.28,0-.28-.28-.28-.28-3.77-2.64-7.82-4.37-12.47-5.24-1.76-.28-2.61-2.01-2.32-3.49.28-1.45,1.73-2.61,3.49-2.32,5.22,1.16,10.15,3.2,14.51,6.41.28,0,.28.28.28.28,1.45.88,1.76,2.61.6,4.05-.31.6-1.47,1.16-2.32,1.16Zm-51.67-.85c-1.16,0-2.04-.6-2.61-1.76-.28-.88-.28-1.45,0-2.32.28-.57.88-1.16,1.73-1.45,4.93-2.04,9.86-3.49,14.51-4.65h.88c1.45,0,2.61.88,2.89,2.32.31,1.45-.57,2.89-2.01,3.49l-.31-.6v.6h-.28c-4.05.88-8.42,2.32-13.63,4.05-.28.31-.88.31-1.16.31Zm-605.48-11.34c-.57,0-.85-.28-1.16-.28-3.77-1.76-7.26-3.2-10.74-4.93l-2.89-1.16c-.28,0-.57-.28-.57-.28-1.47-.6-2.04-2.32-1.47-3.77.88-1.47,2.64-2.04,4.08-1.47l.28.31c2.32.85,4.37,2.01,6.69,2.89,2.3,1.16,4.62,2.04,6.94,3.2,1.16.57,2.04,2.01,1.45,3.77-.57.85-1.45,1.73-2.61,1.73Zm-35.4-16.24c-.57,0-.88,0-1.16-.31-4.05-1.73-8.42-3.77-13.35-6.38h-.28s-.28,0-.28-.28h0c-1.47-.6-2.04-2.32-1.47-3.77.88-1.45,2.64-2.04,4.08-1.45,0,0,0,.28.28.28h0c2.61,1.16,5.53,2.61,8.14,3.77,1.73.88,3.49,1.73,5.22,2.61.57.28,1.16.88,1.45,1.76.28.57.28,1.45,0,2.01-.57,1.16-1.45,1.76-2.61,1.76Zm-35.12-17.12c-.28,0-.88-.31-1.16-.31-5.22-2.61-9.3-4.93-13.07-6.94h-.57v-.31c-1.45-.57-2.04-2.32-1.16-3.77.57-1.45,2.32-2.01,3.49-1.16h.57c4.37,2.32,9.01,4.65,13.35,6.97,1.45.88,2.04,2.61,1.16,3.77-.28,1.16-1.45,1.76-2.61,1.76Zm-34.24-18.31c-.6,0-.88,0-1.47-.28-4.93-2.61-8.99-5.22-13.04-7.26l-.31-.28c-.85-.28-1.16-.88-1.45-1.73-.28-.88,0-1.47.28-2.32.88-1.16,2.64-1.76,4.08-.88h.28c3.2,2.04,6.69,3.77,10.15,5.81l2.64,1.45c.85.57,1.45,1.16,1.45,1.73.28.88.28,1.47,0,2.32-.6.88-1.76,1.45-2.61,1.45Zm-33.96-19.13c-.6,0-.88-.31-1.47-.6-1.45-.88-2.89-1.73-4.34-2.61-2.92-1.73-5.81-3.2-8.42-4.93l-.28-.28h-.31c-.57-.6-.85-1.16-1.16-1.76,0-.88,0-1.45.31-2.32.85-1.16,2.89-1.73,4.05-.85h.28v.28q.28,0,.6.28c3.49,2.04,6.94,4.05,10.15,6.09l2.04,1.16c1.45.88,1.73,2.61,1.16,4.05-.6.88-1.45,1.47-2.61,1.47ZM15.49,14.06c-.57,0-1.16-.28-1.73-.6-3.77-2.32-8.14-5.22-12.5-8.11-.57-.31-1.13-1.16-1.13-1.76C-.18,2.72.13,2.16.41,1.28,1.26.12,3.02-.45,4.47.43c4.05,2.61,8.14,5.22,12.47,8.11,1.47.88,1.76,2.61.88,4.08-.57.85-1.45,1.45-2.32,1.45Z"/></g></svg>