<?xml version="1.0" encoding="UTF-8" standalone="no"?><svg xmlns="http://www.w3.org/2000/svg" xmlns:xlink="http://www.w3.org/1999/xlink" contentScriptType="text/ecmascript" fill="#000000" width="855" zoomAndPan="magnify" contentStyleType="text/css" viewBox="-7.5 -4.2 854.8 1587.0" height="1587" preserveAspectRatio="xMidYMid meet" version="1"><g data-name="Layer_1"><g><g id="change1_1"><path fill="#244668" d="M765.21,1201.69c-3.1-7.59-6.18-15.14-9.24-22.8-22.04-52.26-45.97-104.63-69.11-155.27-17.99-39.39-36.6-80.11-54.16-120.45l-1.95-4.49c-12.53-28.78-25.47-58.53-36.71-88.21-20.67-55.46-34.61-114.34-48.09-171.28-1.82-7.69-3.64-15.38-5.45-22.95-23.64-103.98-44.38-197.84-58.97-293.92-3.1-17.61-5.61-35.88-8.04-53.56-6.83-49.79-13.9-101.27-35.29-148.35-.07-.16-.15-.31-.23-.47C399.13,45.22,357.67,14.75,294.87,14.75c-25.31,0-54.29,4.72-97.01,15.82-12.69,3.5-25.42,6.89-38.16,10.28-35.48,9.43-72.16,19.19-107.6,31.55-.34.12-33.86,12.93-36.78,28.4-.91,4.83.74,9.48,4.54,12.78.64.56,1.36,1.03,2.12,1.4,6.31,3.09,13.83,4.58,23.01,4.58,15.71,0,33.06-4.4,48.37-8.28,5.69-1.44,11.07-2.8,15.71-3.74,9.3-2.04,18.74-4.37,27.87-6.61,27.82-6.84,56.58-13.92,84.79-13.92,1.92,0,3.84.03,5.88.1,15.09.33,30.68,8.56,37.06,19.55,4.21,7.25,4.08,15.09-.2,23-19.09,32.34-73.61,38.38-126.33,44.21-40.43,4.47-78.74,8.71-103.78,24.54-1.55.42-3.01,1.23-4.23,2.42-3.07,2.98-4.55,6.36-4.41,10.02.14,3.6,1.84,6.82,5.04,9.56,7.48,6.8,16.26,8.23,22.68,9.28.24.04.48.07.73.09,6.52.57,13.32.86,20.21.86,28.54,0,56.5-4.89,83.54-9.62,17.99-3.15,36.6-6.4,55.04-8.11,8.33-.85,15.08-1.24,21.24-1.24,18.23,0,31.96,3.67,41.67,10.97,4.11,3.36,6.1,7.58,6.06,12.92-.05,8.42-5.23,18.17-13.11,24.44-19.02,16.04-45.21,21.63-70.53,27.03-.4.08-.79.19-1.17.33-4.38,1.52-19.32,3.1-33.77,4.63-50.19,5.31-83.75,9.89-92.71,24.66-2.71,4.47-3.14,9.64-1.2,14.58.14.36.3.71.49,1.05.48,1.06,1.16,2.04,2.02,2.9,11.29,11.21,28.39,16.66,52.27,16.65,25.62,0,55.57-6.15,84.52-12.1,25.75-5.29,50.08-10.28,68.22-10.28,2.88,0,5.55.13,8.29.42,15.85,1.15,27.84,8.98,30.54,19.96,2.44,9.91-3.63,20.5-15.93,28.14-29.51,16.76-64.75,22.29-95.81,27.16-4.75.72-9.51,1.42-14.27,2.11-19.48,2.84-39.62,5.77-59.23,10.92-6.72,1.74-18.49,6.17-21.86,16.31-1.16,3.49-2.16,10.53,4.34,18.65,8.75,10.53,24.4,15.64,47.85,15.64s49.42-4.48,75.46-8.81c22.91-3.81,44.56-7.41,60.15-7.41,3.34,0,6.31.17,9.22.55,24.18,2.26,40.31,12.41,41.09,25.85.67,11.63-11.7,26.91-40.74,33.07-19.05,4.65-38.36,6.15-58.81,7.74-12.63.98-25.68,2-38.88,3.88-28.32,4.92-44.21,12.16-50.02,22.76-2.54,4.63-3.05,9.87-1.5,14.95.37,2.2,1.48,4.22,3.17,5.72,9.67,8.59,23.99,12.76,43.77,12.76,24.27,0,53-6.13,80.79-12.05,22.98-4.9,44.68-9.52,59.39-9.52.68,0,1.36,0,2.01.03.11,0,1.62-.04,2.04-.04,8.51,0,17.07,4.03,22.33,10.5,2.96,3.64,6.13,9.64,4.45,17.66-4.66,23.05-32.66,32.83-41.13,35.28-.26.08-.53.17-.78.26-12.45,4.77-31.76,6.74-52.2,8.84-40.08,4.11-85.5,8.76-101.22,38.04-.42.79-.74,1.64-.93,2.51-1.31,5.91-.37,12.27,2.88,19.46.67,1.48,1.7,2.73,2.97,3.68,5.76,5.77,14.22,8.7,25.2,8.7,17.8,0,40-7.42,59.59-13.97,10.05-3.36,19.55-6.54,25.41-7.55.31-.05.63-.12.94-.21,35.84-9.87,65.02-15.24,92.13-16.89,3.16-.3,6.37-.45,9.54-.45,12.39,0,42.85,2.54,57.92,25.78,4.48,7.54,6.63,18.41,1.44,25.56-4.93,6.55-14.01,11.49-21.13,11.49-2.08,0-3.94-.42-5.54-1.25-1.42-.74-2.98-1.11-4.54-1.11-1.02,0-2.04.16-3.03.48-21.6,7-44.07,12.91-65.79,18.62-8.4,2.21-16.81,4.42-25.6,6.82-7.39,2.36-17.03,4.75-27.24,7.27-34.17,8.46-76.7,18.98-93.37,42.15-1.82,2.53-2.33,5.77-1.38,8.74.95,2.97,3.26,5.31,6.21,6.3,12.72,4.3,25.82,4.94,38.49,5.57,7.63.38,14.83.73,22.18,1.9,33.73,4.03,77.28,11.21,114.93,31.16,92.73,49.81,111.6,165.95,121.99,270.68,1.76,23.25,3.12,47.13,4.44,70.22,4.46,78.5,9.08,159.68,30.39,236.72,16.78,62.56,64.08,125.68,131.91,125.68,1.42,0,2.85-.03,4.12-.08,44.54-1,77.94-23.06,105.13-69.43,21.49-36.72,23.98-80.22,23.98-109.88-.9-61.61-24.6-119.65-47.51-175.79Z"/></g><g id="change2_1"><path fill="#0a253a" d="M661.38,931.9c-20.78-47.66-42.7-94.95-59.84-144.07-29.26-88.2-47.67-180.81-68.28-272.03-15.17-65.47-26.93-131.7-37.57-198.04-11.17-65.49-14.53-133.76-40.58-195.58C430.04,66.73,385.23,9.57,321.13,1.46c-45.9-5.61-91.78,6.03-136,17.26-32.43,8.75-64.82,17.51-97.1,26.77-22.66,6.53-46.14,12.73-65.97,25.99-16.22,8.99-29.56,30.46-17.24,47.64,13.04,17.89,37.82,15.93,57.38,13.52,41.85-3.21,157.04-49.03,186.76-22.71,8.62,7.42.8,17.42-6.35,22.49-22.29,17-51.78,18.62-78.48,23.33-34.72,7.55-158.93,6.89-153.09,58.88,23.45,75.07,202.51-12.07,255.29,19.03l-.24.06c4.48,5.35-5.45,13.97-9.61,17.3-38.64,24.59-87.63,24.27-131.67,30.95-29.42,3.16-83.53,13.31-69.06,54.3,18.14,36.05,67.58,31.31,101.57,27.56,26.68-.61,133.96-35.14,144.41-10.15-11.29,30.73-118.74,37.84-149.76,44.65-31.86,4.57-73.55,18.66-53.91,58.78,13.4,23.32,43.4,27.93,68.03,26.18,32.44-1.82,64.43-7.87,96.52-12.69,19.77-1.6,57.63-10.08,69.63,10,0,0-.08.02-.08.02.09.63-.15,1.22-.43,1.78,0,0,.27-.13.27-.13-40.57,39.08-143.12,5.46-183.48,52.8-14.09,15.32-7.8,39.94,9.84,49.48,15.82,9.74,35.14,10.56,53.2,9.57,39.77-2.19,78.17-13.71,117.42-19.58,9.27-.74,19.95-3.93,28.3,1.55-.21-.16-.41-.32-.62-.48-.25-.19-.46-.35-.69-.52.25.17.49.35.73.53.18.1.36.21.54.31,2.73,2.24,3.58,5.48,2.77,8.93-23.28,51.13-166.31,11.12-194.67,79.35-11.44,41.76,27.89,61.43,63.94,51.59,48.96-11.43,155.26-53.68,200.31-29.37,6.83,3.99,19.7,13.27,13.61,21.95-4.84-3.27-11.01-1.68-16.16-.09-11.91,3.4-23.62,7.51-35.56,10.77-29.78,8.08-60.2,16.25-90.18,24.09-30.58,8.65-116.1,25.78-106.62,69.39,9.43,28.62,57.21,19.45,81.65,24.7,55.89,7.28,117.7,21,154.58,67.6,40.74,52.22,54.85,118.77,63.18,183.17,11.7,97.5,8.03,196.62,27.06,293.3,12.36,77.94,47.23,166.47,131.59,187.55,74.53,13.97,126.77-25.35,157.17-90.54,37.4-89.19,9.37-187.08-26.81-271.9-37.07-92.99-80.89-183.14-121.71-274.51ZM780.27,1482.38c-22.36,38.15-50.85,63.56-96.86,64.59-66.07,2.57-110.81-60.44-126.33-118.34-27.33-98.79-26.81-203.49-34.52-305.13-10.02-101.13-28.73-225.73-127.13-278.59-36.48-19.33-77.75-27.4-118.41-32.26-19.38-3.09-40.07-.73-58.69-7.02,19.27-26.76,83.99-35.68,115.64-45.81,30.52-8.27,61.31-15.68,91.42-25.43,13.03,6.78,30.83-2.14,39.05-13.06,7.84-10.8,5.6-25.62-.84-36.48-16.18-24.95-48.73-32.73-76.83-30.09-31.78,1.94-63.2,8.76-93.83,17.22-23.66,4.07-85.4,34.63-102.41,14.65,0,0-.13.11-.13.11-1.86-4.09-3.24-8.78-2.24-13.27,20.49-38.2,109.65-27.55,148.27-42.35,21.02-6.07,43.39-19.91,48.02-42.77,4.73-22.64-16.6-40.91-38.13-39.89-44.57-1.44-147.1,40.26-179.76,11.26,0,0,.12-.1.12-.1-7.14-17.04,31.8-24.28,43.39-26.3,32.71-4.63,66.12-3.88,98.34-11.76,64.4-13.63,64.87-71.99-1.76-78.23-44.03-5.93-159.74,35.18-186.03,3.53-8.47-10.58,3.09-16.75,12.42-19.17,23.79-6.27,48.24-9.14,72.52-12.85,33.85-5.31,69.05-11.2,99.17-28.33,37.4-23.22,22.5-63.43-18.76-66.44-52.78-5.67-169.36,45.6-207.09,8.13,0,0,.23.08.23.08-.15-.31-.31-.63-.46-.94,0,0-.06.28-.06.28-9.05-23.02,103.59-24.68,121.77-30.99,26.07-5.56,53.96-11.53,74.82-29.13,15.51-12.34,24.58-38.04,6.92-52.47-19.7-14.84-46.61-14.28-70.12-11.89-52.62,4.9-103.34,21.55-156.94,16.87-6.48-1.06-12.67-2.25-17.78-6.96-2.17-1.81-2.29-3.2-.27-5.17-.42.6-.5.68-.58.76-.14.18-.28.36-.42.55,53.21-38.97,199.29-10.72,236.95-74.53,16.91-31.17-15.65-56.7-45.09-57.36-40.96-1.42-81.17,11.94-120.86,20.67-21.93,4.41-59.84,18.13-80.43,8.27-8.64-7.16,22.4-22.29,28.86-24.58,47.5-16.57,96.62-28.23,145.09-41.63,111.81-29.02,171.61-25.52,228.78,84.43,28.35,62.41,30.82,132.77,42.6,199.55,15.03,99.03,36.88,196.78,59.07,294.4,15.7,65.73,30.26,132.06,53.91,195.49,11.92,31.47,25.43,62.34,38.86,93.19,40.18,92.27,84.1,182.87,123.22,275.62,24.64,61.65,54.99,126.87,55.98,194.91,0,35.92-4.17,73.24-22.63,104.77Z"/></g></g></g></svg>