<?xml version="1.0" encoding="UTF-8" standalone="no"?><svg xmlns="http://www.w3.org/2000/svg" xmlns:xlink="http://www.w3.org/1999/xlink" contentScriptType="text/ecmascript" fill="#000000" width="699" zoomAndPan="magnify" contentStyleType="text/css" viewBox="-2.6 -2.1 698.9 476.9" height="477" preserveAspectRatio="xMidYMid meet" version="1"><g data-name="Layer_1"><g><g id="change1_1"><path fill="#fff4d4" d="M133.87,304.67l76.41-96.77s88.42-97.72,134.23-80.67c0,0,14.86,10.42,1.96,37.13-12.9,26.7-84.75,89.71-84.75,89.71,0,0-41.61,40.76-90.03,71.78l-22.99,12.33s-11.06-24.43-14.84-33.51Z"/></g><g id="change2_1"><path fill="#f2bc57" d="M661.73,236.28c-3.02-46.76-3.94-92.87-1.78-140.48-.45-16.76,5.22-34.15-1.34-50.84-13.32-26.44-49.49-26.66-61.41-26.75-3.9.44-4.35,3.68-8.96,1.47-68.11-8.97-139.97-6.45-211.91-6.53-66.57.07-127.55-2.88-193.46-3.29-43.05,0-78.26,2.05-110.78,6.45-45.72.77-50.59,40.65-54.51,72.71-11.51,91.53-7.67,221.4,1.55,319.41,2.06,66.31,256.3,37.31,309.87,41.37v.02c103.24-6.3,206.98-.13,310.23-10.02,57-11.29,19.15-160.68,22.49-203.51ZM156.21,343.53c-.44-4.19-5.04-3.47-7.5-5.35-3.01-4.42-8.36-11.25-10.96-15.48.42-2.17-.6-4.36-2.53-5.44-1.57-.87-1.7-1.56-1.75-1.83-1.56-4.94-8.09-5.98-12.01-8.63-32.79-15.56-28.24-29.05,6.14-35.6,13.34-4.38,27.92-4.15,40.11-9.67,2.13-7.28,41.56-39.1,25.75-42.64-34.6-6.93-107.88-21.82-91.49-50.82,50.92-17.82,99.98-10.77,155.95-7.97,23.56-16.57,44.51-32.84,67.49-36.57,10.18-1.67,25.64-2.56,28.92,9.86,2.57,28.84-26.29,56.93-48.01,79.21-1.81,1.86-1.94,4.77-.31,6.78,2.71,5.13,2.45,14.85,4.21,20.86,18.05,78.75,6.89,178.38-54.42,47.86-2.92-5.24-5.03-17.52-12.88-12.12-13.18,11.96-25.51,22.2-37.7,31.31-2.68,1.89-2.71,6.21-.06,8.14,2.6,12.25-.36,26.74-3.14,37.74-2.85,6.44-12.85,29.04-23.09,21.7-5.75-4.71-20.82-21.53-22.71-31.33ZM416.58,154.43c6.84,2.06,69.4-5.8,62.64,2.73-14.99,2.93-31.65.41-47.03,1.75-4.52-.8-20.05,3.69-18.08-3.66.45-.86,1.59-1.04,2.47-.82ZM586.33,202.38c-53.1,8.29-115.37,2.98-170.39,5.45-3.94.59-6.2-2.27-4.54-4.36,54.88,1.24,117.59-5.94,174.93-1.08ZM424.62,263.53c-4.02.19-15.91-.71-8.93-5.69,11.9,1.42,23.99,1.51,38.12,1.64,45.42-.69,86.73-2.08,133.12-5.1,2.1-.71,7.88-.13,7.09,1.57.37,3.31-3.43,2.96-5.96,3.01-52.42,3.16-108.23,6.22-163.44,4.57Z"/></g><g id="change3_1"><path fill="#0a253a" d="M72.47,21.4c-45.63.58-46.33,42.81-51.02,77.71-4.97,53.45-6.37,107.27-6.42,160.95,2.46,49.39,5.03,98.84,9.2,148.08.6,20.73,24.49,26.01,40.68,29.83,20.82,4.54,42.08,6.4,63.33,7.82,66.88,2.87,133.82-.39,200.7-1.11-.02,0-.06.02-.08.02,47.8-1.38,95.68-3.53,143.44-4.15,55.41-1.8,111.54,1.79,166.54-5.86,16.05-.23,18.86-18.79,22.75-31.01,8.03-30.12,4.25-61.27.39-91.7-4.04-32-4.7-64.3-6.29-96.48-3.14-39.82-2.15-79.67-.83-119.53-.52-16.17,4.93-33.13-.8-48.71-10.31-20.48-36.29-23.79-56.85-23.93-4.52,4.91-10.29.31-15.66.25-18.17-2.08-36.49-2.85-54.73-3.76-37.83-2.27-75.67-2-113.52-1.73-26.57.17-53.14.37-79.71-.31-50.21-.12-100.51-2.81-150.72-2.81-36.86,0-73.67,1.46-110.39,6.44ZM182.34,461.76c-42.52,0-85.72-.78-127.14-10.83-36.27-8.46-47.18-23.31-47.61-60.28-3.18-64.12-10.23-128.19-6.56-192.45,1.53-40.37,2.15-80.95,8.23-120.97C14.87,33.18,28.9,7.72,76.88,5.89,141.54-2.12,206.46-.24,271.4,1.64c32.02.93,64.05,1.86,96.05,1.61,15.45.06,30.92.02,46.38-.02,54.56-.17,109.15-.33,163.51,4.95,5.67.72,11.53.64,16.83,2.93,1.44-1.47,3.49-2.35,5.71-2.37,14.59-.49,29.34,1.73,42.52,8.21,23.11,9.92,32.45,32.74,28.55,56.77-2.79,47.78-3.73,95.8-.25,143.38.45,48.17,7.51,95.76,10.62,143.71-.39,26.92-4.64,86.42-39.55,88.46-65.35,8.71-131.82,4.08-197.49,6.7-85.3,2.58-170.69,5.53-255.91,5.78h-6.02Z"/></g><g id="change3_2"><path fill="#0a253a" d="M414.28,164.02c-5.18-1.18-7.43-7.71-4.21-11.88,1.67-2.48,4.87-3.34,7.69-2.68,19.5-.68,39.07-.47,58.57-1.28,4.02-.6,8.11,2.25,8.58,6.38.5,3.84-2.35,8.07-6.4,8.36-11.02.82-22.12.66-33.17.78-4.29-.12-8.58.1-12.89.31-3.49.17-7.03.35-10.52.35-2.56,0-5.1-.1-7.65-.35Z"/></g><g id="change3_3"><path fill="#0a253a" d="M405.81,205.34c-.25-4.42,3.22-8.85,10.42-7.32,55.95-.27,111.94-1.38,167.88-3.11,9.65.04,9.86,14.73.08,14.91-56.05,1.79-112.14,2.83-168.23,3.1-.39.04-.76.06-1.13.06-5.8,0-8.81-3.82-9.02-7.65Z"/></g><g id="change3_4"><path fill="#0a253a" d="M429.89,268.94c-5.63-.56-11.59-.02-16.94-1.84-8.35-3.59-3.94-16.55,4.97-14.05,36.56,2.97,72.68.1,109.23-.58,20.01-.87,40.06-1.84,59.45-3.18,5.08-.91,11.8-.19,12.52,6.09.72,6.42-5.07,9.1-10.67,8.68-5.47.39-11,.74-16.52,1.07-40.25,2.19-80.6,4-120.93,4-7.05,0-14.07-.06-21.1-.17Z"/></g><g id="change3_5"><path fill="#0a253a" d="M429.42,268.94h.47c.16.02.31.04.49.06l-.95-.06Z"/></g><g id="change3_6"><path fill="#0a253a" d="M344.12,134.16v-.06s-.02,0-.04-.02c.02.02.02.04.04.08ZM219.15,216.5c-27.62,31.3-56.38,62.47-76,99.46.95.43,1.84,1.07,2.6,1.88,2.04,2.17,3.98,4.5,5.73,6.95,1.03,1.44,1.88,2.99,2.81,4.48,50.63-28.65,92.17-67.99,131.72-109.58,17.41-19.31,62.94-58.15,58.15-85.34-3.59-.99-7.26-1.46-10.98-1.46-41.38,0-89.39,56.85-114.02,83.59ZM175.68,378.81c-5.61-4.6-22.18-22.4-24.49-34.31-2.23-.19-4.23-.99-5.92-2.54-2.81-2.56-4.21-6.25-6.46-9.26-2.33-3.47-6.99-6.27-6.07-10.97-2.62-1.46-3.9-3.3-4.29-5.34-12.09-7.26-27.77-12.07-34.1-25.37-6.6-18.75,27.38-22.98,39.71-26.8,7.65-1.86,15.55-2.66,23.15-4.58,1.9-1.48,4.29-1.82,6.46-1.26,9.24-11.84,18.96-23.29,29-34.45-35.17-5.45-120.76-27.35-94.05-59.85,16.28-9.08,36.58-9.28,54.85-11.29,34.78-2.39,69.77-.8,104.45,2.21,19.5-17.08,41.14-30.84,66.55-36.49,12.79-2.41,31.83-1.61,34.91,14.13,3.03,31.32-26.65,60.18-49.41,83.53,3.69,4.56,2.91,13.9,4.56,19.23,5.57,30.88,11.78,62.49,6.77,93.88-1.94,10.5-2.97,29.56-17.87,27.5-28.61-7.18-44.99-51.47-57.08-77.01-12.23,11.1-24.86,21.74-38.08,31.62,1.09.83,2,2.04,2.56,3.69.93,13.02-.25,27.09-3.98,39.73-3.07,9.06-8.73,16.77-15.58,23.33-2.02,2.58-4.83,3.78-7.7,3.78s-5.59-1.09-7.88-3.11Z"/></g></g></g></svg>