<?xml version="1.0" encoding="UTF-8" standalone="no"?><svg xmlns="http://www.w3.org/2000/svg" xmlns:xlink="http://www.w3.org/1999/xlink" contentScriptType="text/ecmascript" fill="#000000" width="840" zoomAndPan="magnify" contentStyleType="text/css" viewBox="-29.9 -10.0 839.7 819.8" height="820" preserveAspectRatio="xMidYMid meet" version="1"><g data-name="Layer 2"><g data-name="Layer 2"><g id="change1_1"><path fill="#51233c" d="M404.88,809.75A405,405,0,0,1,247.27,31.83,406.56,406.56,0,0,1,522,17.2a19.5,19.5,0,1,1-11.26,37.33A366.43,366.43,0,0,0,404.88,39C203.13,39,39,203.13,39,404.88S203.13,770.75,404.88,770.75a367.14,367.14,0,0,0,89.32-11,19.5,19.5,0,0,1,9.49,37.83A406.53,406.53,0,0,1,404.88,809.75Z"/></g><g id="change1_2"><path fill="#51233c" d="M736.88,620.14a19.5,19.5,0,0,1-16.77-29.42,365.48,365.48,0,0,0,50.64-185.84,19.5,19.5,0,0,1,39,0,404.61,404.61,0,0,1-56.06,205.68A19.49,19.49,0,0,1,736.88,620.14Z"/></g><g id="change1_3"><path fill="#51233c" d="M631.85,112.91a19.42,19.42,0,0,1-11.48-3.75A369.88,369.88,0,0,0,588.61,88.4a19.5,19.5,0,1,1,19.61-33.71,406,406,0,0,1,35.14,23,19.5,19.5,0,0,1-11.51,35.25Z"/></g><g id="change1_4"><path fill="#51233c" d="M598.39,91.05a19.38,19.38,0,0,1-9.79-2.65c-3.33-1.94-6.75-3.86-10.16-5.7A19.5,19.5,0,1,1,597,48.38c3.77,2,7.56,4.17,11.25,6.31a19.5,19.5,0,0,1-9.83,36.36Z"/></g><g id="change2_1"><circle fill="#51233c" r="324.26" cx="404.88" cy="404.88"/></g><g id="change3_1"><path fill="#ffffff" d="M477.53,290H382.78a19,19,0,0,0-18.85,16.26c-3,20.12-7.23,44.94-9.22,56.3,12.77-11.87,32.22-20.38,61.91-20.38,62.68,0,99.66,44.71,99.66,108.26,0,63.17-34.06,120.25-119,120.25-43.41,0-78.69-15.89-98.69-44.92-13.14-19.08.44-45.08,23.62-45.08h0a31.78,31.78,0,0,1,27.62,15.93c9.13,16,25.06,26,48.94,26,37.25,0,55.36-27.12,55.36-67.24,0-36.76-14.2-63.63-54.28-63.63-24,0-37.82,7.41-46.94,19.64a33.73,33.73,0,0,1-31.79,13.07h0a31.9,31.9,0,0,1-26.94-37c6.24-36.1,13.14-83.76,17.86-119.55A33.23,33.23,0,0,1,345,239H476.63a25.86,25.86,0,0,1,25.5,30.2h0A25,25,0,0,1,477.53,290Z"/></g></g></g></svg>