<?xml version="1.0" encoding="UTF-8" standalone="no"?><svg xmlns="http://www.w3.org/2000/svg" xmlns:xlink="http://www.w3.org/1999/xlink" contentScriptType="text/ecmascript" fill="#000000" width="929" zoomAndPan="magnify" contentStyleType="text/css" viewBox="-9.2 -2.3 929.2 874.0" height="874" preserveAspectRatio="xMidYMid meet" version="1"><g data-name="Layer_1"><g><g id="change1_1"><path fill="#f2bc57" d="M801.8,143.9C534.53,104.26,43.83,337.06,11.85,630.52c17.17,39.9,88.06,48.39,128.85,49.87,207.57,2.11,410.92-90.5,565.24-229.99,32.86-105,73.01-203.74,95.86-306.5ZM495.7,488.78c-56.38,26.05-195.93,78.92-230.5,5.59-10.08-63.01,57.95-113.89,105.81-149.58,49.5-33.91,108.27-61.75,165.9-75.72,46.19-10.21,129.76-23.63,139.81,37.89-5.37,83.14-111.54,146.06-181.01,181.83Z"/></g><g id="change1_2"><path fill="#f2bc57" d="M847.47,149.28c-11.36-5.59-14.94,43.05-19.38,51.2-13.36,56.3-27.99,104.32-44.99,162.1-1.59,4.98,5.29,8.89,8.72,4.81,45.87-53.53,128.18-163.89,55.65-218.11Z"/></g><g id="change2_1"><path fill="#c79973" d="M865.52,10.45c-.79-.44-1.65-.66-2.5-.66-1.42,0-2.83.59-3.82,1.72-13.51,15.23-20.18,34.41-26.63,52.97-1.59,4.57-3.24,9.3-4.93,13.81-.03.08-.06.17-.09.26-5.93,18.73-11.31,37.71-15.79,53.8l-2.06,7.41-1.95,7.09c-.03.1-.06.19-.09.29l-.75,2.71c-5.54,20.02-11.27,40.72-17.47,60.93-11.88,39.92-25.51,80.23-38.7,119.2-7.8,23.06-15.87,46.91-23.48,70.42-2.65,8.45-5.25,16.91-7.85,25.37-.04.12-.07.24-.09.36l-2.39,7.79c-2.01,6.56-4.01,13.12-6.04,19.69-.03.08-.06.16-.08.25-11.7,38.05-24.48,78.52-40.57,118.17-.99,2.45.05,5.26,2.4,6.46.95.49,1.46,1.68,1.2,2.83-.03.13-.05.25-.07.38-.49,3.33-1.51,7.08-2.58,11.05-3.17,11.72-7.12,26.31,2.03,37.14.4.47.88.87,1.42,1.17,1.56.87,3.19,1.31,4.85,1.31.38,0,.77-.02,1.15-.07.66-.08,1.29-.29,1.87-.61,7.06-3.97,10.61-11.35,13.73-17.86,1.03-2.15,2.01-4.19,3.05-5.98.07-.12.14-.25.2-.38,13.36-28.25,23.32-58.14,32.07-84.44,12.19-34.95,21.86-70.89,31.22-105.65,4.28-15.93,8.72-32.4,13.29-48.43,23.4-73.6,42.34-147.94,62.89-230.44,5.89-22.28,12.69-44.73,19.27-66.45,2.6-8.6,5.2-17.19,7.76-25.8.06-.21.11-.42.14-.63.3-1.81,1.21-4.48,2.18-7.3,3.01-8.78,7.56-22.05-2.79-27.88Z"/></g><g id="change3_1"><path fill="#244668" d="M767.59,606.51c-.07-.45-.19-.89-.38-1.3-5.47-12.39-14.32-22.37-22.87-32.02-4-4.51-8.13-9.17-11.77-13.93-.97-1.28-2.48-2.01-4.06-2.01-.25,0-.51.02-.77.06-1.84.28-3.39,1.55-4.03,3.3-5.96,16.35-11.83,30.88-17.99,44.54-11.84,28.03-21.73,32.22-26.56,32.22-3.37,0-6.98-1.85-10.75-5.48-8.77-10.98-5.02-26.85-1.72-40.86.32-1.37.64-2.71.94-4.02.62-2.71-1.04-5.41-3.74-6.09-.71-.18-1.19-.64-1.45-1.38-.33-.94-.16-2.05.43-2.84.24-.31.44-.65.6-1.01,3.91-8.79,7.77-18.39,11.82-29.37.74-2.01.14-4.28-1.49-5.66-.95-.8-2.12-1.21-3.3-1.21-.87,0-1.74.22-2.53.67-1.83,1.04-3.65,2.09-5.45,3.18-5.63,3.44-11.47,6.85-17.11,10.14-19.48,11.37-39.62,23.12-56.27,39.07-.12.11-.23.24-.34.36-10.02,11.67-17.33,26.35-23.21,38.14-.04.08-.07.15-.11.23-27.92,63.83-45.36,113.64-56.55,161.5-.04.16-.07.31-.09.47-3.66,26.9,39.92,42.91,65.96,52.47,3.13,1.15,5.9,2.17,8.15,3.05.12.05.23.09.35.12,21.97,6.85,45.49,13.18,68.66,13.18,14.48,0,27.34-2.41,39.31-7.35.86-.35,1.6-.94,2.15-1.68,8.11-10.94,11.5-24.21,14.78-37.04,1.64-6.43,3.19-12.5,5.29-18.25.04-.12.08-.25.12-.37,6.41-22.87,14.25-45.33,21.83-67.05,8.24-23.59,16.76-47.99,23.46-73.09.95-4.36,2.21-8.74,3.55-13.38,3.47-12.03,7.06-24.48,5.13-37.33Z"/></g><g id="change4_1"><path fill="#0a253a" d="M7.85,644.36c-17.04-26.65-2.6-59.23,8.19-85.55,21.33-45.53,45.94-89.47,78.17-127.92,73.32-84.07,164.85-150.1,263.85-200.5,54.61-28.34,112.53-49.66,171.31-67.48,55.95-17.54,113.9-29.77,172.48-31.83,28.45-1.28,57.04-1.71,85.49-.04,9.55,1.11,19.6,1.32,29.33,2.68-1.38,4.93-2.74,9.86-4.09,14.79-3.47-.45-6.93-.85-10.38-1.32-51.86-4.39-104.53-2.72-155.82,3.82-92.32,14.42-181.68,45.38-266.1,84.85-76.87,37.96-149.94,84.48-213.25,142.36-35.01,31.89-68.65,66.03-93.55,106.14-19.89,34.68-67.19,106.26-56.67,144.82,16.17,36.45,85.41,44.41,120.99,46.09,158.68.62,316.08-49.1,447.17-138.16,49-33.23,95.54-70,139.33-109.85-2.87,9.37-5.73,18.73-8.62,28.1-42.48,36.62-86.58,69.13-124.21,95.29-129.49,87.92-284.77,137.06-441.06,139.7-46.05-.8-112.6-7.04-142.55-46Z"/></g><g id="change4_2"><path fill="#0a253a" d="M765.47,387.94c34.58-35.07,66.04-73.69,87.49-118.1,17.06-35.98,34.24-105.03-16.94-119.51-1.65,1.34-3.69,1.84-5.65,1.59,1.16-4.66,2.33-9.3,3.47-13.95.8.31,1.55.64,2.33.99,1.79-1.44,4.19-2.02,6.58-1.47,9.08,1.86,17.37,6.6,23.89,13.16,24.88,25.68,19.97,67.11,10.5,98.65-19.8,58.38-65.93,116.1-119.61,167.96,2.62-9.76,5.26-19.54,7.94-29.31Z"/></g><g id="change4_3"><path fill="#0a253a" d="M680,627.24c7.71-4.33,10.58-14.56,14.87-21.95,12.83-27.11,22.42-55.54,31.87-83.94,17.7-50.73,29.75-102.43,44.46-153.94,24.12-75.88,43.59-152.99,62.82-230.2,8.21-31.03,17.93-61.64,27.07-92.4,1.34-8.29,11.02-24.78,1.92-29.91-16.15,18.2-22.2,42.89-30.61,65.19-13.84,43.69-24.63,88.31-38.1,132.15-18.94,63.7-41.79,126.66-62.2,189.69-18.07,57.76-34.41,115.98-57.16,172.03,3.03,1.55,4.62,5.07,3.84,8.5-2.04,13.8-11.76,32.22-1.69,44.15-.16-.12-.31-.21-.47-.31-.08-.08-.18-.16-.37-.23,1.07.82,2.35,1.34,3.73,1.16ZM664.63,635.33c-11.55-14.11-5.57-33.75-1.98-49.47-5.4-1.36-7.06-8-3.84-12.25,11.92-26.8,21.19-56.34,30.35-83.71,23.77-77.9,49.24-154.64,75.15-231.57,16.26-49.59,30-99.7,44.06-149.91,8.54-29.77,17.47-59.81,32.04-87.26,5.34-9.72,12.52-23.41,25.64-20.86,12.32,2.62,18.03,16.46,14.91,27.95-6.6,27.21-15.82,53.78-23.52,80.72-17.62,61.1-30.88,123.34-48.46,184.47-18.96,61.19-35.67,122.97-52.85,184.66-13.57,43.51-26.92,87.39-45.69,129.02-5.79,13.7-16.74,35.34-31.27,35.34-4.51,0-9.37-2.09-14.53-7.14Z"/></g><g id="change4_4"><path fill="#0a253a" d="M622.9,869.06c-28.63-5.07-54.63-13.95-80.58-26.05-12.44-6.15-25.08-13-34.43-23.52-5.67-6.58-10.4-15.18-9.28-24.14,2.48-17.18,8.6-35.44,13.59-51.53,18.57-52.42,34.12-107.83,66.26-153.85,24.3-26.88,58.84-42.02,89.18-60.98,4.93-11.39,24.34-1.2,13.9,8.79-5.18,3.65-10.93,6.58-16.36,9.88-24.9,15.22-51.51,28.43-72.51,48.54-9.39,10.95-16.34,24.73-22.51,37.09-22.69,51.88-43.36,105.48-56.24,160.62-3.53,25.97,51.97,42.62,70.92,50.09,33.38,10.4,70.9,19.87,104.51,5.98,11.33-15.29,12.91-36.27,19.37-53.99,13.43-47.98,32.53-92.38,45.22-139.85,3.45-15.93,11.08-32.45,8.62-48.87-8.5-19.27-25.99-32.66-37.65-49.94-5.86-7.65,5.86-16.83,11.8-9.08,3.71,5.14,7.67,10.07,11.78,14.89,34.7,37.67,34.7,45.43,20.67,93.93-9.47,36.12-23.15,71.67-34.8,106.3-10.91,29.95-15.91,61.99-29.38,90.91-8.65,13.64-30.44,17.49-50.87,17.49-11.76,0-23.08-1.28-31.18-2.7Z"/></g><g id="change4_5"><path fill="#0a253a" d="M309.33,533.23c-15.16-3.03-30.53-9.43-40.6-21.58-3.86-4.68-6.52-9.98-8.38-15.7-1.9-5.84-2.29-12.11-2.06-18.15.14-3.03.52-6,.87-8.04,2.58-14.65,9.12-28.34,17.1-40.8,8.09-12.63,17.72-24.2,28.06-35.05,19.39-20.34,41.47-38.04,63.79-53.33,25.27-17.33,52.01-32.53,79.84-45.36,13.97-6.42,28.18-12.29,42.64-17.51,14.75-5.34,29.85-10.07,45.14-13.62,12.61-2.93,25.29-5.39,38.16-6.99,1.9-.23,3.78-.43,5.69-.62.29-.08.6-.12.91-.16,1.05-.1,2.1-.17,2.95-.25,3.59-.29,7.18-.48,10.79-.62,3.36-.16,6.73-.25,10.11-.12.17,0,.35.02.52.04h.16c4.56.1,9.12.35,13.68.82,15.08,1.55,30.37,5.59,42.91,14.4,5.51,3.88,10.38,9.04,13.82,14.85,3.82,6.46,5.86,13.7,6.37,21.17,1.05,15.55-4.27,30.76-11.37,44.37-6.6,12.61-15.1,24.12-24.18,34.86-9.82,11.55-20.71,22.11-32.02,32.14-11.35,10.09-23.37,19.43-35.75,28.22-25.44,18.03-52.46,33.67-80.56,47.18-17.74,8.54-36.02,15.93-53.7,22.09-28.61,10.07-58.57,17.45-88.87,19.83-5.43.45-10.89.68-16.34.68-9.98,0-19.91-.82-29.67-2.76Z"/></g></g></g></svg>