<?xml version="1.0" encoding="UTF-8" standalone="no"?><svg xmlns="http://www.w3.org/2000/svg" xmlns:xlink="http://www.w3.org/1999/xlink" contentScriptType="text/ecmascript" fill="#000000" width="58.2" zoomAndPan="magnify" contentStyleType="text/css" viewBox="1.0 5.0 58.2 50.0" height="50" preserveAspectRatio="xMidYMid meet" version="1"><g id="change1_1"><path d="m36.995,54.989c-.487,0-.952-.171-1.309-.481-.83-.725-.918-1.989-.195-2.82l17.119-19.688H3c-1.103,0-2-.897-2-2s.897-2,2-2h49.61s-17.001-19.552-17.117-19.685c-.724-.833-.637-2.098.192-2.822.361-.315.826-.489,1.312-.489.585,0,1.136.251,1.514.687-.002-.002,19.835,22.81,19.996,22.994.654.752.653,1.881,0,2.629l-19.999,22.999c-.371.43-.924.677-1.514.677h0Z"/></g></svg>