<?xml version="1.0" encoding="UTF-8" standalone="no"?><svg xmlns="http://www.w3.org/2000/svg" xmlns:xlink="http://www.w3.org/1999/xlink" contentScriptType="text/ecmascript" fill="#9a332d" width="512" zoomAndPan="magnify" contentStyleType="text/css" viewBox="0.0 0.0 512.0 512.0" height="512" preserveAspectRatio="xMidYMid meet" version="1"><g id="change1_1"><path d="M256,0C114.615,0,0,114.615,0,256s114.615,256,256,256s256-114.615,256-256S397.385,0,256,0z M350.797,328.86 L275.9,403.757C270.622,409.035,263.464,412,256,412c-7.464,0-14.622-2.965-19.9-8.243l-74.896-74.897 c-52.355-52.355-52.355-137.239,0-189.594l0,0c52.354-52.355,137.238-52.355,189.593,0l0,0 C403.151,191.621,403.151,276.505,350.797,328.86z"/><circle r="48.75" cx="256" cy="234.062"/></g></svg>