<?xml version="1.0" encoding="UTF-8" standalone="no"?><svg xmlns="http://www.w3.org/2000/svg" xmlns:xlink="http://www.w3.org/1999/xlink" contentScriptType="text/ecmascript" fill="#000000" width="317.2" zoomAndPan="magnify" contentStyleType="text/css" viewBox="-12.0 0.0 317.2 317.6" height="317.6" data-name="Layer 1" preserveAspectRatio="xMidYMid meet" version="1"><g id="change1_1"><path fill="#9acce3" d="M37.66,0C-1.58,72-12,141.08,15.19,165.45c20.92,18.74,84.17,29,122.56,15.32,5-1.8,18.68-7.22,26.55-1,5.44,4.29,4.7,11.43,6.13,30.64,1.06,14.36,3.52,28.58,5.1,42.9,1.08,9.78,2.73,23.79,5.11,40.85Q299,317.59,304.21,302.3q1-2.9-2-7.15c-6-46.62-9.32-86.43-11.23-117.45-3.09-50-1.89-65.53-15.32-77.61-21.82-19.65-71-20-106.22-6.13-13.7,5.37-28.78,14.23-35.74,8.17-4-3.51-4.08-10.92-1-23.49,3.82-15.73,13.08-41.8,38.81-72.51Z"/></g></svg>