<?xml version="1.0" encoding="UTF-8" standalone="no"?><svg xmlns="http://www.w3.org/2000/svg" xmlns:xlink="http://www.w3.org/1999/xlink" contentScriptType="text/ecmascript" fill="#000000" width="84.1" zoomAndPan="magnify" contentStyleType="text/css" viewBox="21.9 2.3 84.1 123.4" height="123.4" preserveAspectRatio="xMidYMid meet" version="1"><g id="change1_1"><path d="M21.935,119.962v.25h5.484V125.7h.25v-5.484h5.358V125.7h.25v-5.484h5.359V125.7h.25v-5.484h5.358V125.7h.25v-5.484h5.36V125.7h.25v-5.484h5.358V125.7h.25v-5.484H61.07V125.7h.25v-5.484h5.36V125.7h.25v-5.484h5.358V125.7h.25v-5.484H77.9V125.7h.25v-5.484h5.36V125.7h.25v-5.484h5.358V125.7h.25v-5.484h5.359V125.7h.25v-5.484h5.358V125.7h.25v-5.484h5.484v-.25h-5.484V114.6h5.484v-.25h-5.484V109h5.484v-.25h-5.484v-5.359h5.484v-.25h-5.484V97.777h5.484v-.25h-5.484V92.168h5.484v-.25h-5.484V86.56h5.484v-.25h-5.484V80.952h5.484V80.7h-5.484v-5.36h5.484v-.25h-5.484V69.734h5.484v-.25h-5.484V64.125h5.484v-.25h-5.484V58.516h5.484v-.25h-5.484V52.908h5.484v-.25h-5.484V47.3h5.484v-.25h-5.484V41.69h5.484v-.25h-5.484V36.081h5.484v-.25h-5.484V30.473h5.484v-.25h-5.484V24.864h5.484v-.25h-5.484V19.255h5.484v-.25h-5.484V13.647h5.484V13.4h-5.484V8.038h5.484v-.25h-5.484V2.3h-.25V7.788H94.973V2.3h-.25V7.788H89.364V2.3h-.25V7.788H83.756V2.3h-.25V7.788h-5.36V2.3H77.9V7.788H72.538V2.3h-.25V7.788H66.93V2.3h-.25V7.788H61.32V2.3h-.25V7.788H55.712V2.3h-.25V7.788H50.1V2.3h-.25V7.788h-5.36V2.3h-.25V7.788H38.886V2.3h-.25V7.788H33.277V2.3h-.25V7.788H27.669V2.3h-.25V7.788H21.935v.25h5.484V13.4H21.935v.25h5.484v5.358H21.935v.25h5.484v5.359H21.935v.25h5.484v5.359H21.935v.25h5.484v5.358H21.935v.25h5.484V41.44H21.935v.25h5.484v5.359H21.935v.25h5.484v5.359H21.935v.25h5.484v5.358H21.935v.25h5.484v5.359H21.935v.25h5.484v5.359H21.935v.25h5.484v5.358H21.935v.25h5.484V80.7H21.935v.25h5.484V86.31H21.935v.25h5.484v5.358H21.935v.25h5.484v5.359H21.935v.25h5.484v5.359H21.935v.25h5.484v5.359H21.935V109h5.484v5.358H21.935v.25h5.484v5.359Zm11.342,0V114.6h5.359v5.359Zm0-10.967h5.359v5.358H33.277Zm0-5.609h5.359v5.359H33.277Zm0-5.609h5.359v5.359H33.277Zm0-5.609h5.359v5.359H33.277Zm0-5.608h5.359v5.358H33.277Zm0-5.608h5.359V86.31H33.277Zm0-5.61h5.359V80.7H33.277Zm0-5.608h5.359v5.358H33.277Zm0-5.609h5.359v5.359H33.277Zm0-5.609h5.359v5.359H33.277Zm0-5.608h5.359v5.358H33.277Zm0-5.609h5.359v5.359H33.277Zm0-5.609h5.359v5.359H33.277Zm0-5.609h5.359V41.44H33.277Zm0-5.608h5.359v5.358H33.277Zm0-5.609h5.359v5.359H33.277Zm0-5.609h5.359v5.359H33.277Zm0-5.608h5.359v5.358H33.277Zm61.446,5.358H89.364V13.647h5.359Zm0,5.609H89.364V19.255h5.359Zm0,5.609H89.364V24.864h5.359Zm0,5.608H89.364V30.473h5.359Zm0,5.609H89.364V36.081h5.359Zm0,5.609H89.364V41.69h5.359Zm0,5.609H89.364V47.3h5.359Zm0,5.608H89.364V52.908h5.359Zm0,5.609H89.364V58.516h5.359Zm0,5.609H89.364V64.125h5.359Zm0,5.608H89.364V69.734h5.359Zm0,5.61H89.364v-5.36h5.359Zm0,5.608H89.364V80.952h5.359Zm0,5.608H89.364V86.56h5.359Zm0,5.609H89.364V92.168h5.359Zm0,5.609H89.364V97.777h5.359Zm0,5.609H89.364v-5.359h5.359Zm0,5.608H89.364V109h5.359ZM38.886,109h5.358v5.358H38.886Zm0-5.609h5.358v5.359H38.886Zm0-5.609h5.358v5.359H38.886Zm0-5.609h5.358v5.359H38.886Zm0-5.608h5.358v5.358H38.886Zm0-5.608h5.358V86.31H38.886Zm0-5.61h5.358V80.7H38.886Zm0-5.608h5.358v5.358H38.886Zm0-5.609h5.358v5.359H38.886Zm0-5.609h5.358v5.359H38.886Zm0-5.608h5.358v5.358H38.886Zm0-5.609h5.358v5.359H38.886Zm0-5.609h5.358v5.359H38.886Zm0-5.609h5.358V41.44H38.886Zm0-5.608h5.358v5.358H38.886Zm0-5.609h5.358v5.359H38.886Zm0-5.609h5.358v5.359H38.886Zm50.228,5.359H83.756V19.255h5.358Zm0,5.609H83.756V24.864h5.358Zm0,5.608H83.756V30.473h5.358Zm0,5.609H83.756V36.081h5.358Zm0,5.609H83.756V41.69h5.358Zm0,5.609H83.756V47.3h5.358Zm0,5.608H83.756V52.908h5.358Zm0,5.609H83.756V58.516h5.358Zm0,5.609H83.756V64.125h5.358Zm0,5.608H83.756V69.734h5.358Zm0,5.61H83.756v-5.36h5.358Zm0,5.608H83.756V80.952h5.358Zm0,5.608H83.756V86.56h5.358Zm0,5.609H83.756V92.168h5.358Zm0,5.609H83.756V97.777h5.358Zm0,5.609H83.756v-5.359h5.358Zm-44.62-5.359h5.36v5.359h-5.36Zm0-5.609h5.36v5.359h-5.36Zm0-5.609h5.36v5.359h-5.36Zm0-5.608h5.36v5.358h-5.36Zm0-5.608h5.36V86.31h-5.36Zm0-5.61h5.36V80.7h-5.36Zm0-5.608h5.36v5.358h-5.36Zm0-5.609h5.36v5.359h-5.36Zm0-5.609h5.36v5.359h-5.36Zm0-5.608h5.36v5.358h-5.36Zm0-5.609h5.36v5.359h-5.36Zm0-5.609h5.36v5.359h-5.36Zm0-5.609h5.36V41.44h-5.36Zm0-5.608h5.36v5.358h-5.36Zm0-5.609h5.36v5.359h-5.36Zm39.012,5.359h-5.36V24.864h5.36Zm0,5.608h-5.36V30.473h5.36Zm0,5.609h-5.36V36.081h5.36Zm0,5.609h-5.36V41.69h5.36Zm0,5.609h-5.36V47.3h5.36Zm0,5.608h-5.36V52.908h5.36Zm0,5.609h-5.36V58.516h5.36Zm0,5.609h-5.36V64.125h5.36Zm0,5.608h-5.36V69.734h5.36Zm0,5.61h-5.36v-5.36h5.36Zm0,5.608h-5.36V80.952h5.36Zm0,5.608h-5.36V86.56h5.36Zm0,5.609h-5.36V92.168h5.36Zm0,5.609h-5.36V97.777h5.36ZM50.1,97.777h5.358v5.359H50.1Zm0-5.609h5.358v5.359H50.1Zm0-5.608h5.358v5.358H50.1Zm0-5.608h5.358V86.31H50.1Zm0-5.61h5.358V80.7H50.1Zm0-5.608h5.358v5.358H50.1Zm0-5.609h5.358v5.359H50.1Zm0-5.609h5.358v5.359H50.1Zm0-5.608h5.358v5.358H50.1Zm0-5.609h5.358v5.359H50.1Zm0-5.609h5.358v5.359H50.1Zm0-5.609h5.358V41.44H50.1Zm0-5.608h5.358v5.358H50.1ZM77.9,35.831H72.538V30.473H77.9Zm0,5.609H72.538V36.081H77.9Zm0,5.609H72.538V41.69H77.9Zm0,5.609H72.538V47.3H77.9Zm0,5.608H72.538V52.908H77.9Zm0,5.609H72.538V58.516H77.9Zm0,5.609H72.538V64.125H77.9Zm0,5.608H72.538V69.734H77.9Zm0,5.61H72.538v-5.36H77.9Zm0,5.608H72.538V80.952H77.9Zm0,5.608H72.538V86.56H77.9Zm0,5.609H72.538V92.168H77.9ZM55.712,92.168H61.07v5.359H55.712Zm0-5.608H61.07v5.358H55.712Zm0-5.608H61.07V86.31H55.712Zm0-5.61H61.07V80.7H55.712Zm0-5.608H61.07v5.358H55.712Zm0-5.609H61.07v5.359H55.712Zm0-5.609H61.07v5.359H55.712Zm0-5.608H61.07v5.358H55.712Zm0-5.609H61.07v5.359H55.712Zm0-5.609H61.07v5.359H55.712Zm0-5.609H61.07V41.44H55.712ZM72.288,41.44H66.93V36.081h5.358Zm0,5.609H66.93V41.69h5.358Zm0,5.609H66.93V47.3h5.358Zm0,5.608H66.93V52.908h5.358Zm0,5.609H66.93V58.516h5.358Zm0,5.609H66.93V64.125h5.358Zm0,5.608H66.93V69.734h5.358Zm0,5.61H66.93v-5.36h5.358Zm0,5.608H66.93V80.952h5.358Zm0,5.608H66.93V86.56h5.358ZM61.32,86.56h5.36v5.358H61.32Zm0-5.608h5.36V86.31H61.32Zm0-5.61h5.36V80.7H61.32Zm0-5.608h5.36v5.358H61.32Zm0-5.609h5.36v5.359H61.32Zm0-5.609h5.36v5.359H61.32Zm0-5.608h5.36v5.358H61.32Zm0-5.609h5.36v5.359H61.32Zm0-5.609h5.36v5.359H61.32Zm5.36-.25H61.32V36.081h5.36ZM61.32,92.168h5.36v5.359H61.32Zm5.61,0h5.358v5.359H66.93Zm5.358-56.337H66.93V30.473h5.358Zm-5.608,0H61.32V30.473h5.36Zm-5.61,0H55.712V30.473H61.07ZM55.712,97.777H61.07v5.359H55.712Zm5.608,0h5.36v5.359H61.32Zm5.61,0h5.358v5.359H66.93Zm5.608,0H77.9v5.359H72.538ZM77.9,30.223H72.538V24.864H77.9Zm-5.608,0H66.93V24.864h5.358Zm-5.608,0H61.32V24.864h5.36Zm-5.61,0H55.712V24.864H61.07Zm-5.608,0H50.1V24.864h5.358ZM50.1,103.386h5.358v5.359H50.1Zm5.608,0H61.07v5.359H55.712Zm5.608,0h5.36v5.359H61.32Zm5.61,0h5.358v5.359H66.93Zm5.608,0H77.9v5.359H72.538Zm5.608,0h5.36v5.359h-5.36Zm5.36-78.772h-5.36V19.255h5.36Zm-5.61,0H72.538V19.255H77.9Zm-5.608,0H66.93V19.255h5.358Zm-5.608,0H61.32V19.255h5.36Zm-5.61,0H55.712V19.255H61.07Zm-5.608,0H50.1V19.255h5.358Zm-5.608,0h-5.36V19.255h5.36ZM44.494,109h5.36v5.358h-5.36Zm5.61,0h5.358v5.358H50.1Zm5.608,0H61.07v5.358H55.712Zm5.608,0h5.36v5.358H61.32Zm5.61,0h5.358v5.358H66.93Zm5.608,0H77.9v5.358H72.538Zm5.608,0h5.36v5.358h-5.36Zm5.61,0h5.358v5.358H83.756Zm5.358-89.99H83.756V13.647h5.358Zm-5.608,0h-5.36V13.647h5.36Zm-5.61,0H72.538V13.647H77.9Zm-5.608,0H66.93V13.647h5.358Zm-5.608,0H61.32V13.647h5.36Zm-5.61,0H55.712V13.647H61.07Zm-5.608,0H50.1V13.647h5.358Zm-5.608,0h-5.36V13.647h5.36Zm-5.61,0H38.886V13.647h5.358ZM38.886,119.962V114.6h5.358v5.359Zm5.608,0V114.6h5.36v5.359Zm5.61,0V114.6h5.358v5.359Zm5.608,0V114.6H61.07v5.359Zm5.608,0V114.6h5.36v5.359Zm5.61,0V114.6h5.358v5.359Zm5.608,0V114.6H77.9v5.359Zm5.608,0V114.6h5.36v5.359Zm5.61,0V114.6h5.358v5.359Zm5.608,0V114.6h5.359v5.359Zm10.967,0H94.973V114.6h5.358Zm0-5.609H94.973V109h5.358Zm0-5.608H94.973v-5.359h5.358Zm0-5.609H94.973V97.777h5.358Zm0-5.609H94.973V92.168h5.358Zm0-5.609H94.973V86.56h5.358Zm0-5.608H94.973V80.952h5.358Zm0-5.608H94.973v-5.36h5.358Zm0-5.61H94.973V69.734h5.358Zm0-5.608H94.973V64.125h5.358Zm0-5.609H94.973V58.516h5.358Zm0-5.609H94.973V52.908h5.358Zm0-5.608H94.973V47.3h5.358Zm0-5.609H94.973V41.69h5.358Zm0-5.609H94.973V36.081h5.358Zm0-5.609H94.973V30.473h5.358Zm0-5.608H94.973V24.864h5.358Zm0-5.609H94.973V19.255h5.358Zm0-5.609H94.973V13.647h5.358Zm0-10.967V13.4H94.973V8.038Zm-5.608,0V13.4H89.364V8.038Zm-5.609,0V13.4H83.756V8.038Zm-5.608,0V13.4h-5.36V8.038Zm-5.61,0V13.4H72.538V8.038Zm-5.608,0V13.4H66.93V8.038Zm-5.608,0V13.4H61.32V8.038Zm-5.61,0V13.4H55.712V8.038Zm-5.608,0V13.4H50.1V8.038Zm-5.608,0V13.4h-5.36V8.038Zm-5.61,0V13.4H38.886V8.038Zm-5.608,0V13.4H33.277V8.038Zm-10.967,0h5.358V13.4H27.669Zm0,5.609h5.358v5.358H27.669Zm0,5.608h5.358v5.359H27.669Zm0,5.609h5.358v5.359H27.669Zm0,5.609h5.358v5.358H27.669Zm0,5.608h5.358V41.44H27.669Zm0,5.609h5.358v5.359H27.669Zm0,5.609h5.358v5.359H27.669Zm0,5.609h5.358v5.358H27.669Zm0,5.608h5.358v5.359H27.669Zm0,5.609h5.358v5.359H27.669Zm0,5.609h5.358v5.358H27.669Zm0,5.608h5.358V80.7H27.669Zm0,5.61h5.358V86.31H27.669Zm0,5.608h5.358v5.358H27.669Zm0,5.608h5.358v5.359H27.669Zm0,5.609h5.358v5.359H27.669Zm0,5.609h5.358v5.359H27.669Zm0,5.609h5.358v5.358H27.669Zm0,5.608h5.358v5.359H27.669Z"/></g></svg>