<?xml version="1.0" encoding="UTF-8" standalone="no"?><svg xmlns="http://www.w3.org/2000/svg" xmlns:xlink="http://www.w3.org/1999/xlink" contentScriptType="text/ecmascript" fill="#000000" width="453.2" zoomAndPan="magnify" contentStyleType="text/css" viewBox="71.0 71.0 453.2 453.2" height="453.2" preserveAspectRatio="xMidYMid meet" version="1"><g fill="#d2361c" id="change1_1"><path fill="inherit" d="M 297.640625 170.710938 C 267.589844 170.710938 243.226562 195.070312 243.226562 225.121094 C 243.226562 255.171875 267.589844 279.535156 297.640625 279.535156 C 327.691406 279.535156 352.050781 255.171875 352.050781 225.121094 C 352.050781 195.070312 327.691406 170.710938 297.640625 170.710938"/><path fill="inherit" d="M 297.640625 436.410156 C 297.640625 436.410156 195.523438 297.453125 195.523438 241.054688 C 195.523438 184.65625 241.242188 138.9375 297.640625 138.9375 C 354.035156 138.9375 399.757812 184.65625 399.757812 241.054688 C 399.757812 297.453125 297.640625 436.410156 297.640625 436.410156 Z M 297.640625 71.015625 C 172.480469 71.015625 71.015625 172.480469 71.015625 297.640625 C 71.015625 422.800781 172.480469 524.261719 297.640625 524.261719 C 422.800781 524.261719 524.261719 422.800781 524.261719 297.640625 C 524.261719 172.480469 422.800781 71.015625 297.640625 71.015625"/></g></svg>