<?xml version="1.0" encoding="UTF-8" standalone="no"?><svg xmlns="http://www.w3.org/2000/svg" xmlns:xlink="http://www.w3.org/1999/xlink" contentScriptType="text/ecmascript" fill="#d2361c" width="504" zoomAndPan="magnify" contentStyleType="text/css" viewBox="4.1 4.1 503.9 503.9" height="504" data-name="Layer 1" preserveAspectRatio="xMidYMid meet" version="1"><g id="change1_1"><path d="m256 4.054c-138.767 0-251.946 113.179-251.946 251.946s113.179 251.946 251.946 251.946 251.946-113.179 251.946-251.946-113.179-251.946-251.946-251.946zm-128.669 153.718h257.341c2.078 0 4.098.27 6.019.776l-130.344 108.206c-1.251 1.039-2.79 1.558-4.345 1.558s-3.094-.519-4.348-1.558l-130.344-108.206c1.924-.507 3.941-.776 6.022-.776zm-23.706 172.753v-149.051c0-3.422.734-6.673 2.045-9.613l99.379 82.5-99.684 85.062c-1.119-2.748-1.741-5.752-1.741-8.898zm281.046 23.703h-257.34c-2.398 0-4.71-.362-6.894-1.026l100.437-85.706 17.844 14.814c5.079 4.213 11.188 6.32 17.283 6.32s12.204-2.107 17.283-6.32l17.841-14.814 100.44 85.706c-2.19.667-4.495 1.026-6.894 1.026zm23.702-23.703c0 3.146-.616 6.15-1.741 8.898l-99.687-85.062 99.382-82.503c1.315 2.944 2.046 6.195 2.046 9.616v149.05z" fill-rule="evenodd"/></g></svg>