<?xml version="1.0" encoding="UTF-8" standalone="no"?><svg xmlns="http://www.w3.org/2000/svg" xmlns:xlink="http://www.w3.org/1999/xlink" contentScriptType="text/ecmascript" fill="#d2361c" width="21.5" zoomAndPan="magnify" contentStyleType="text/css" viewBox="1.2 1.2 21.5 21.5" height="21.5" preserveAspectRatio="xMidYMid meet" version="1">
 <g id="change1_1"><path fill="inherit" d="m13.551 8.417c-0.415-1.378-1.037-2.247-1.62-2.247s-1.2 0.869-1.62 2.247z"/></g>
 <g id="change1_2"><path fill="inherit" d="m14.028 11.527a12.138 12.138 0 0 0 -0.251 -2.2h-3.692a13.174 13.174 0 0 0 -0.233 2.2z"/></g>
 <g id="change1_3"><path fill="inherit" d="m14.938 11.527h2.78a6.033 6.033 0 0 0 -0.627 -2.2h-2.373a16.107 16.107 0 0 1 0.22 2.2z"/></g>
 <g id="change1_4"><path fill="inherit" d="m10.311 15.523c0.416 1.4 1.039 2.248 1.62 2.248s1.205-0.846 1.62-2.248z"/></g>
 <g id="change1_5"><path fill="inherit" d="m8.947 11.527a15.216 15.216 0 0 1 0.219 -2.2h-2.377a5.355 5.355 0 0 0 -0.623 2.2z"/></g>
 <g id="change1_6"><path fill="inherit" d="m9.852 12.436a13.174 13.174 0 0 0 0.233 2.2h3.692a12.138 12.138 0 0 0 0.251 -2.2z"/></g>
 <g id="change1_7"><path fill="inherit" d="m8.947 12.436h-2.781a5.351 5.351 0 0 0 0.623 2.2h2.377a15.2 15.2 0 0 1 -0.219 -2.2z"/></g>
 <g id="change1_8"><path fill="inherit" d="m17.718 12.436h-2.78a16.091 16.091 0 0 1 -0.22 2.2h2.373a6.028 6.028 0 0 0 0.627 -2.2z"/></g>
 <g id="change1_9"><path fill="inherit" d="m14.513 15.523a7.217 7.217 0 0 1 -0.837 2 5.956 5.956 0 0 0 2.841 -2z"/></g>
 <g id="change1_10"><path fill="inherit" d="m11.931 1.211a10.771 10.771 0 1 0 10.786 10.771 10.777 10.777 0 0 0 -10.786 -10.771zm0 17.47a6.644 6.644 0 0 1 -5.762 -3.325 0.425 0.425 0 0 1 -0.08 -0.111 6.64 6.64 0 0 1 0 -6.526 0.6 0.6 0 0 1 0.08 -0.134 6.7 6.7 0 0 1 11.546 0 0.57 0.57 0 0 1 0.081 0.134 6.758 6.758 0 0 1 0 6.526 0.407 0.407 0 0 1 -0.081 0.111 6.677 6.677 0 0 1 -5.784 3.325z"/></g>
 <g id="change1_11"><path fill="inherit" d="m9.373 15.523h-2a5.743 5.743 0 0 0 2.84 2 6.872 6.872 0 0 1 -0.84 -2z"/></g>
 <g id="change1_12"><path fill="inherit" d="m9.373 8.417a6.726 6.726 0 0 1 0.836 -1.976 5.727 5.727 0 0 0 -2.84 1.976z"/></g>
 <g id="change1_13"><path fill="inherit" d="m14.513 8.417h2a5.939 5.939 0 0 0 -2.841 -1.976 7.061 7.061 0 0 1 0.841 1.976z"/></g>
</svg>